%TF.GenerationSoftware,KiCad,Pcbnew,9.0.7-1.fc42*%
%TF.CreationDate,2026-04-01T23:45:43+05:30*%
%TF.ProjectId,macropad,6d616372-6f70-4616-942e-6b696361645f,rev?*%
%TF.SameCoordinates,Original*%
%TF.FileFunction,Soldermask,Bot*%
%TF.FilePolarity,Negative*%
%FSLAX46Y46*%
G04 Gerber Fmt 4.6, Leading zero omitted, Abs format (unit mm)*
G04 Created by KiCad (PCBNEW 9.0.7-1.fc42) date 2026-04-01 23:45:43*
%MOMM*%
%LPD*%
G01*
G04 APERTURE LIST*
G04 Aperture macros list*
%AMRoundRect*
0 Rectangle with rounded corners*
0 $1 Rounding radius*
0 $2 $3 $4 $5 $6 $7 $8 $9 X,Y pos of 4 corners*
0 Add a 4 corners polygon primitive as box body*
4,1,4,$2,$3,$4,$5,$6,$7,$8,$9,$2,$3,0*
0 Add four circle primitives for the rounded corners*
1,1,$1+$1,$2,$3*
1,1,$1+$1,$4,$5*
1,1,$1+$1,$6,$7*
1,1,$1+$1,$8,$9*
0 Add four rect primitives between the rounded corners*
20,1,$1+$1,$2,$3,$4,$5,0*
20,1,$1+$1,$4,$5,$6,$7,0*
20,1,$1+$1,$6,$7,$8,$9,0*
20,1,$1+$1,$8,$9,$2,$3,0*%
G04 Aperture macros list end*
%ADD10RoundRect,0.225000X0.225000X0.475000X-0.225000X0.475000X-0.225000X-0.475000X0.225000X-0.475000X0*%
%ADD11O,0.900000X1.400000*%
%ADD12R,1.700000X1.700000*%
%ADD13C,1.700000*%
%ADD14C,1.701800*%
%ADD15C,3.000000*%
%ADD16C,3.987800*%
%ADD17R,2.550000X2.500000*%
%ADD18C,0.100000*%
%ADD19O,1.200000X2.000000*%
%ADD20O,1.200000X1.800000*%
%ADD21C,1.000000*%
%ADD22RoundRect,0.225000X-0.525000X-1.125000X0.525000X-1.125000X0.525000X1.125000X-0.525000X1.125000X0*%
%ADD23R,2.000000X2.000000*%
%ADD24C,2.000000*%
%ADD25R,3.000000X2.500000*%
%ADD26RoundRect,0.250000X0.825000X0.825000X-0.825000X0.825000X-0.825000X-0.825000X0.825000X-0.825000X0*%
%ADD27C,2.150000*%
%ADD28RoundRect,0.225000X-0.475000X0.225000X-0.475000X-0.225000X0.475000X-0.225000X0.475000X0.225000X0*%
%ADD29O,1.400000X0.900000*%
%ADD30RoundRect,0.225000X0.475000X-0.225000X0.475000X0.225000X-0.475000X0.225000X-0.475000X-0.225000X0*%
G04 APERTURE END LIST*
D10*
%TO.C,J6*%
X70175001Y-53700001D03*
D11*
X68925001Y-53700001D03*
X67675001Y-53700001D03*
%TD*%
D12*
%TO.C,U3*%
X110170000Y-53910000D03*
D13*
X112710000Y-53910000D03*
X110170000Y-56450000D03*
X112710000Y-56450000D03*
X110170000Y-58990000D03*
X112710000Y-58990000D03*
X110170000Y-61530000D03*
X112710000Y-61530000D03*
%TD*%
D14*
%TO.C,SW2*%
X83884320Y-104505444D03*
D15*
X85154320Y-101965444D03*
D16*
X88964320Y-104505444D03*
D15*
X91504320Y-99425444D03*
D14*
X94044320Y-104505444D03*
D17*
X95254320Y-99425444D03*
X81404320Y-101965444D03*
%TD*%
D18*
%TO.C,J2*%
X98930000Y-47970000D03*
X93150000Y-47970000D03*
D19*
X100360000Y-48462500D03*
D20*
X100360000Y-44282500D03*
D19*
X91720000Y-48462500D03*
D20*
X91720000Y-44282500D03*
%TD*%
D14*
%TO.C,SW7*%
X121984320Y-85455444D03*
D15*
X123254320Y-82915444D03*
D16*
X127064320Y-85455444D03*
D15*
X129604320Y-80375444D03*
D14*
X132144320Y-85455444D03*
D17*
X133354320Y-80375444D03*
X119504320Y-82915444D03*
%TD*%
D14*
%TO.C,SW6*%
X102934320Y-123555444D03*
D15*
X104204320Y-121015444D03*
D16*
X108014320Y-123555444D03*
D15*
X110554320Y-118475444D03*
D14*
X113094320Y-123555444D03*
D17*
X114304320Y-118475444D03*
X100454320Y-121015444D03*
%TD*%
D14*
%TO.C,SW3*%
X83884320Y-123555444D03*
D15*
X85154320Y-121015444D03*
D16*
X88964320Y-123555444D03*
D15*
X91504320Y-118475444D03*
D14*
X94044320Y-123555444D03*
D17*
X95254320Y-118475444D03*
X81404320Y-121015444D03*
%TD*%
D21*
%TO.C,J9*%
X196960000Y-116460000D03*
X201460000Y-116460000D03*
D13*
X195710000Y-114310000D03*
X198210000Y-114310000D03*
X200210000Y-114310000D03*
X202710000Y-114310000D03*
D22*
X193410000Y-116460000D03*
X205010000Y-116460000D03*
%TD*%
D23*
%TO.C,SW13*%
X55320000Y-94450000D03*
D24*
X55320000Y-99450000D03*
X55320000Y-96950000D03*
D25*
X62820000Y-91350000D03*
X62820000Y-102550000D03*
D24*
X69820000Y-94450000D03*
X69820000Y-99450000D03*
%TD*%
D14*
%TO.C,SW9*%
X121984320Y-123555444D03*
D15*
X123254320Y-121015444D03*
D16*
X127064320Y-123555444D03*
D15*
X129604320Y-118475444D03*
D14*
X132144320Y-123555444D03*
D17*
X133354320Y-118475444D03*
X119504320Y-121015444D03*
%TD*%
D24*
%TO.C,SW10*%
X57320000Y-66980000D03*
X57320000Y-54480000D03*
X57020000Y-63730000D03*
X57020000Y-60730000D03*
X57020000Y-57730000D03*
%TD*%
D26*
%TO.C,J8*%
X75090000Y-114810000D03*
D27*
X70490000Y-114810000D03*
%TD*%
D28*
%TO.C,J3*%
X101860000Y-71705000D03*
D29*
X101860000Y-72955000D03*
%TD*%
D23*
%TO.C,SW12*%
X55270000Y-77350000D03*
D24*
X55270000Y-82350000D03*
X55270000Y-79850000D03*
D25*
X62770000Y-74250000D03*
X62770000Y-85450000D03*
D24*
X69770000Y-77350000D03*
X69770000Y-82350000D03*
%TD*%
D14*
%TO.C,SW5*%
X102934320Y-104505444D03*
D15*
X104204320Y-101965444D03*
D16*
X108014320Y-104505444D03*
D15*
X110554320Y-99425444D03*
D14*
X113094320Y-104505444D03*
D17*
X114304320Y-99425444D03*
X100454320Y-101965444D03*
%TD*%
D12*
%TO.C,U5*%
X195810000Y-94880000D03*
D13*
X195810000Y-92340000D03*
X198350000Y-94880000D03*
X198350000Y-92340000D03*
X200890000Y-94880000D03*
X200890000Y-92340000D03*
X203430000Y-94880000D03*
X203430000Y-92340000D03*
%TD*%
D14*
%TO.C,SW1*%
X83884320Y-85455444D03*
D15*
X85154320Y-82915444D03*
D16*
X88964320Y-85455444D03*
D15*
X91504320Y-80375444D03*
D14*
X94044320Y-85455444D03*
D17*
X95254320Y-80375444D03*
X81404320Y-82915444D03*
%TD*%
D14*
%TO.C,SW4*%
X102934320Y-85455444D03*
D15*
X104204320Y-82915444D03*
D16*
X108014320Y-85455444D03*
D15*
X110554320Y-80375444D03*
D14*
X113094320Y-85455444D03*
D17*
X114304320Y-80375444D03*
X100454320Y-82915444D03*
%TD*%
D12*
%TO.C,J1*%
X111070000Y-47920000D03*
D13*
X113610000Y-47920000D03*
X116150000Y-47920000D03*
X118690000Y-47920000D03*
%TD*%
D12*
%TO.C,J4*%
X69330000Y-131300000D03*
D13*
X66790000Y-131300000D03*
X64250000Y-131300000D03*
X61710000Y-131300000D03*
%TD*%
D12*
%TO.C,J5*%
X191700000Y-86880000D03*
D13*
X191700000Y-84340000D03*
X191700000Y-81800000D03*
X191700000Y-79260000D03*
%TD*%
D14*
%TO.C,SW8*%
X121984320Y-104505444D03*
D15*
X123254320Y-101965444D03*
D16*
X127064320Y-104505444D03*
D15*
X129604320Y-99425444D03*
D14*
X132144320Y-104505444D03*
D17*
X133354320Y-99425444D03*
X119504320Y-101965444D03*
%TD*%
D30*
%TO.C,J10*%
X191655000Y-113860000D03*
D29*
X191655000Y-112610000D03*
%TD*%
M02*
