%TF.GenerationSoftware,KiCad,Pcbnew,9.0.7-1.fc42*%
%TF.CreationDate,2026-04-01T23:48:07+05:30*%
%TF.ProjectId,macropad,6d616372-6f70-4616-942e-6b696361645f,rev?*%
%TF.SameCoordinates,Original*%
%TF.FileFunction,Drillmap*%
%TF.FilePolarity,Positive*%
%FSLAX45Y45*%
G04 Gerber Fmt 4.5, Leading zero omitted, Abs format (unit mm)*
G04 Created by KiCad (PCBNEW 9.0.7-1.fc42) date 2026-04-01 23:48:07*
%MOMM*%
%LPD*%
G01*
G04 APERTURE LIST*
%ADD10C,0.050000*%
%ADD11C,0.200000*%
%ADD12C,0.100000*%
%ADD13C,0.110000*%
%ADD14C,0.115000*%
G04 APERTURE END LIST*
D10*
X5379198Y-13406802D02*
G75*
G02*
X4979198Y-13406802I-200000J0D01*
G01*
X4979198Y-13406802D02*
G75*
G02*
X5379198Y-13406802I200000J0D01*
G01*
X5379198Y-4516198D02*
G75*
G02*
X4979198Y-4516198I-200000J0D01*
G01*
X4979198Y-4516198D02*
G75*
G02*
X5379198Y-4516198I200000J0D01*
G01*
X13909802Y-4513198D02*
G75*
G02*
X13509802Y-4513198I-200000J0D01*
G01*
X13509802Y-4513198D02*
G75*
G02*
X13909802Y-4513198I200000J0D01*
G01*
X14028000Y-4195000D02*
X14028000Y-13725000D01*
X4861000Y-13725000D02*
X4861000Y-4198000D01*
X4861000Y-4198000D02*
X4954000Y-4201000D01*
X18766000Y-7578500D02*
X21149000Y-7578500D01*
X21149000Y-11935500D01*
X18766000Y-11935500D01*
X18766000Y-7578500D01*
X4954000Y-4201000D02*
X14028000Y-4195000D01*
X21030802Y-7896698D02*
G75*
G02*
X20630802Y-7896698I-200000J0D01*
G01*
X20630802Y-7896698D02*
G75*
G02*
X21030802Y-7896698I200000J0D01*
G01*
X13945157Y-13442157D02*
G75*
G02*
X13545157Y-13442157I-200000J0D01*
G01*
X13545157Y-13442157D02*
G75*
G02*
X13945157Y-13442157I200000J0D01*
G01*
X14028000Y-13725000D02*
X4861000Y-13725000D01*
D11*
D12*
X5410000Y-5017000D02*
X5440000Y-5047000D01*
X5440000Y-5017000D02*
X5410000Y-5047000D01*
X5425000Y-6918000D02*
X5455000Y-6948000D01*
X5455000Y-6918000D02*
X5425000Y-6948000D01*
X5522500Y-11431750D02*
X5552500Y-11461750D01*
X5552500Y-11431750D02*
X5522500Y-11461750D01*
X5543000Y-8953000D02*
X5573000Y-8983000D01*
X5573000Y-8953000D02*
X5543000Y-8983000D01*
X5552500Y-12862500D02*
X5582500Y-12892500D01*
X5582500Y-12862500D02*
X5552500Y-12892500D01*
X5558250Y-12095000D02*
X5588250Y-12125000D01*
X5588250Y-12095000D02*
X5558250Y-12125000D01*
X5560000Y-10354000D02*
X5590000Y-10384000D01*
X5590000Y-10354000D02*
X5560000Y-10384000D01*
X5565000Y-8616000D02*
X5595000Y-8646000D01*
X5595000Y-8616000D02*
X5565000Y-8646000D01*
X5572000Y-12295000D02*
X5602000Y-12325000D01*
X5602000Y-12295000D02*
X5572000Y-12325000D01*
X5575000Y-10708000D02*
X5605000Y-10738000D01*
X5605000Y-10708000D02*
X5575000Y-10738000D01*
X5687000Y-7964000D02*
X5717000Y-7994000D01*
X5717000Y-7964000D02*
X5687000Y-7994000D01*
X5706000Y-9673000D02*
X5736000Y-9703000D01*
X5736000Y-9673000D02*
X5706000Y-9703000D01*
X5755000Y-13160000D02*
X5785000Y-13190000D01*
X5785000Y-13160000D02*
X5755000Y-13190000D01*
X5827000Y-11849000D02*
X5857000Y-11879000D01*
X5857000Y-11849000D02*
X5827000Y-11879000D01*
X5870000Y-10555000D02*
X5900000Y-10585000D01*
X5900000Y-10555000D02*
X5870000Y-10585000D01*
X5870000Y-12680000D02*
X5900000Y-12710000D01*
X5900000Y-12680000D02*
X5870000Y-12710000D01*
X5972000Y-11350000D02*
X6002000Y-11380000D01*
X6002000Y-11350000D02*
X5972000Y-11380000D01*
X6200000Y-11287000D02*
X6230000Y-11317000D01*
X6230000Y-11287000D02*
X6200000Y-11317000D01*
X6221118Y-6252500D02*
X6251118Y-6282500D01*
X6251118Y-6252500D02*
X6221118Y-6282500D01*
X6221118Y-6252500D02*
X6251118Y-6282500D01*
X6251118Y-6252500D02*
X6221118Y-6282500D01*
X6231000Y-6940000D02*
X6261000Y-6970000D01*
X6261000Y-6940000D02*
X6231000Y-6970000D01*
X6231000Y-8006000D02*
X6261000Y-8036000D01*
X6261000Y-8006000D02*
X6231000Y-8036000D01*
X6235000Y-12867500D02*
X6265000Y-12897500D01*
X6265000Y-12867500D02*
X6235000Y-12897500D01*
X6246000Y-9677000D02*
X6276000Y-9707000D01*
X6276000Y-9677000D02*
X6246000Y-9707000D01*
X6319000Y-11661000D02*
X6349000Y-11691000D01*
X6349000Y-11661000D02*
X6319000Y-11691000D01*
X6491000Y-5101000D02*
X6521000Y-5131000D01*
X6521000Y-5101000D02*
X6491000Y-5131000D01*
X6666000Y-10207000D02*
X6696000Y-10237000D01*
X6696000Y-10207000D02*
X6666000Y-10237000D01*
X6685000Y-5545000D02*
X6715000Y-5575000D01*
X6715000Y-5545000D02*
X6685000Y-5575000D01*
X6949000Y-6188000D02*
X6979000Y-6218000D01*
X6979000Y-6188000D02*
X6949000Y-6218000D01*
X7073000Y-8816000D02*
X7103000Y-8846000D01*
X7103000Y-8816000D02*
X7073000Y-8846000D01*
X7097000Y-12659000D02*
X7127000Y-12689000D01*
X7127000Y-12659000D02*
X7097000Y-12689000D01*
X7118000Y-11990000D02*
X7148000Y-12020000D01*
X7148000Y-11990000D02*
X7118000Y-12020000D01*
X7264750Y-7627000D02*
X7294750Y-7657000D01*
X7294750Y-7627000D02*
X7264750Y-7657000D01*
X7291000Y-9114676D02*
X7321000Y-9144676D01*
X7321000Y-9114676D02*
X7291000Y-9144676D01*
X7343000Y-7753000D02*
X7373000Y-7783000D01*
X7373000Y-7753000D02*
X7343000Y-7783000D01*
X7348000Y-7995000D02*
X7378000Y-8025000D01*
X7378000Y-7995000D02*
X7348000Y-8025000D01*
X7349000Y-9754000D02*
X7379000Y-9784000D01*
X7379000Y-9754000D02*
X7349000Y-9784000D01*
X7351000Y-9253000D02*
X7381000Y-9283000D01*
X7381000Y-9253000D02*
X7351000Y-9283000D01*
X7413000Y-10348000D02*
X7443000Y-10378000D01*
X7443000Y-10348000D02*
X7413000Y-10378000D01*
X7460000Y-12386000D02*
X7490000Y-12416000D01*
X7490000Y-12386000D02*
X7460000Y-12416000D01*
X7539000Y-6025000D02*
X7569000Y-6055000D01*
X7569000Y-6025000D02*
X7539000Y-6055000D01*
X7622000Y-6045000D02*
X7652000Y-6075000D01*
X7652000Y-6045000D02*
X7622000Y-6075000D01*
X7752000Y-8957000D02*
X7782000Y-8987000D01*
X7782000Y-8957000D02*
X7752000Y-8987000D01*
X7895000Y-4913000D02*
X7925000Y-4943000D01*
X7925000Y-4913000D02*
X7895000Y-4943000D01*
X8028000Y-5712000D02*
X8058000Y-5742000D01*
X8058000Y-5712000D02*
X8028000Y-5742000D01*
X8088000Y-6326000D02*
X8118000Y-6356000D01*
X8118000Y-6326000D02*
X8088000Y-6356000D01*
X8125432Y-8276544D02*
X8155432Y-8306544D01*
X8155432Y-8276544D02*
X8125432Y-8306544D01*
X8125432Y-10181544D02*
X8155432Y-10211544D01*
X8155432Y-10181544D02*
X8125432Y-10211544D01*
X8125432Y-12086544D02*
X8155432Y-12116544D01*
X8155432Y-12086544D02*
X8125432Y-12116544D01*
X8324000Y-6938000D02*
X8354000Y-6968000D01*
X8354000Y-6938000D02*
X8324000Y-6968000D01*
X8413000Y-6906000D02*
X8443000Y-6936000D01*
X8443000Y-6906000D02*
X8413000Y-6936000D01*
X8469000Y-6815000D02*
X8499000Y-6845000D01*
X8499000Y-6815000D02*
X8469000Y-6845000D01*
X8610000Y-8883000D02*
X8640000Y-8913000D01*
X8640000Y-8883000D02*
X8610000Y-8913000D01*
X8637000Y-5102750D02*
X8667000Y-5132750D01*
X8667000Y-5102750D02*
X8637000Y-5132750D01*
X8680000Y-4747000D02*
X8710000Y-4777000D01*
X8710000Y-4747000D02*
X8680000Y-4777000D01*
X8881000Y-5276500D02*
X8911000Y-5306500D01*
X8911000Y-5276500D02*
X8881000Y-5306500D01*
X9037294Y-6078412D02*
X9067294Y-6108412D01*
X9067294Y-6078412D02*
X9037294Y-6108412D01*
X9078427Y-5952426D02*
X9108427Y-5982426D01*
X9108427Y-5952426D02*
X9078427Y-5982426D01*
X9085000Y-5861000D02*
X9115000Y-5891000D01*
X9115000Y-5861000D02*
X9085000Y-5891000D01*
X9092500Y-13565000D02*
X9122500Y-13595000D01*
X9122500Y-13565000D02*
X9092500Y-13595000D01*
X9128000Y-5509000D02*
X9158000Y-5539000D01*
X9158000Y-5509000D02*
X9128000Y-5539000D01*
X9183000Y-11279000D02*
X9213000Y-11309000D01*
X9213000Y-11279000D02*
X9183000Y-11309000D01*
X9238000Y-5699000D02*
X9268000Y-5729000D01*
X9268000Y-5699000D02*
X9238000Y-5729000D01*
X9337000Y-4453000D02*
X9367000Y-4483000D01*
X9367000Y-4453000D02*
X9337000Y-4483000D01*
X9342000Y-5010000D02*
X9372000Y-5040000D01*
X9372000Y-5010000D02*
X9342000Y-5040000D01*
X9347000Y-5254000D02*
X9377000Y-5284000D01*
X9377000Y-5254000D02*
X9347000Y-5284000D01*
X9353904Y-5949315D02*
X9383904Y-5979315D01*
X9383904Y-5949315D02*
X9353904Y-5979315D01*
X9369000Y-6337000D02*
X9399000Y-6367000D01*
X9399000Y-6337000D02*
X9369000Y-6367000D01*
X9423763Y-5807959D02*
X9453763Y-5837959D01*
X9453763Y-5807959D02*
X9423763Y-5837959D01*
X9530000Y-5838000D02*
X9560000Y-5868000D01*
X9560000Y-5838000D02*
X9530000Y-5868000D01*
X9586000Y-4453000D02*
X9616000Y-4483000D01*
X9616000Y-4453000D02*
X9586000Y-4483000D01*
X9608064Y-5929642D02*
X9638064Y-5959642D01*
X9638064Y-5929642D02*
X9608064Y-5959642D01*
X9649600Y-5480352D02*
X9679600Y-5510352D01*
X9679600Y-5480352D02*
X9649600Y-5510352D01*
X9686000Y-5431000D02*
X9716000Y-5461000D01*
X9716000Y-5431000D02*
X9686000Y-5461000D01*
X9707886Y-5999526D02*
X9737886Y-6029526D01*
X9737886Y-5999526D02*
X9707886Y-6029526D01*
X9708000Y-7251000D02*
X9738000Y-7281000D01*
X9738000Y-7251000D02*
X9708000Y-7281000D01*
X9723829Y-5827989D02*
X9753829Y-5857989D01*
X9753829Y-5827989D02*
X9723829Y-5857989D01*
X9737589Y-6219824D02*
X9767589Y-6249824D01*
X9767589Y-6219824D02*
X9737589Y-6249824D01*
X9742000Y-6766000D02*
X9772000Y-6796000D01*
X9772000Y-6766000D02*
X9742000Y-6796000D01*
X9801000Y-8942000D02*
X9831000Y-8972000D01*
X9831000Y-8942000D02*
X9801000Y-8972000D01*
X9802000Y-5845000D02*
X9832000Y-5875000D01*
X9832000Y-5845000D02*
X9802000Y-5875000D01*
X9814000Y-4452000D02*
X9844000Y-4482000D01*
X9844000Y-4452000D02*
X9814000Y-4482000D01*
X9821000Y-6382000D02*
X9851000Y-6412000D01*
X9851000Y-6382000D02*
X9821000Y-6412000D01*
X9839171Y-6647695D02*
X9869171Y-6677695D01*
X9869171Y-6647695D02*
X9839171Y-6677695D01*
X9841000Y-5009000D02*
X9871000Y-5039000D01*
X9871000Y-5009000D02*
X9841000Y-5039000D01*
X9887687Y-6015540D02*
X9917687Y-6045540D01*
X9917687Y-6015540D02*
X9887687Y-6045540D01*
X9907453Y-5855024D02*
X9937453Y-5885024D01*
X9937453Y-5855024D02*
X9907453Y-5885024D01*
X9926000Y-6653000D02*
X9956000Y-6683000D01*
X9956000Y-6653000D02*
X9926000Y-6683000D01*
X9928000Y-7221000D02*
X9958000Y-7251000D01*
X9958000Y-7221000D02*
X9928000Y-7251000D01*
X9952744Y-5789079D02*
X9982744Y-5819079D01*
X9982744Y-5789079D02*
X9952744Y-5819079D01*
X10030432Y-8276544D02*
X10060432Y-8306544D01*
X10060432Y-8276544D02*
X10030432Y-8306544D01*
X10030432Y-10181544D02*
X10060432Y-10211544D01*
X10060432Y-10181544D02*
X10030432Y-10211544D01*
X10043000Y-5299000D02*
X10073000Y-5329000D01*
X10073000Y-5299000D02*
X10043000Y-5329000D01*
X10169183Y-5281183D02*
X10199183Y-5311183D01*
X10199183Y-5281183D02*
X10169183Y-5311183D01*
X10233000Y-5974000D02*
X10263000Y-6004000D01*
X10263000Y-5974000D02*
X10233000Y-6004000D01*
X10241000Y-5824000D02*
X10271000Y-5854000D01*
X10271000Y-5824000D02*
X10241000Y-5854000D01*
X10297000Y-5057000D02*
X10327000Y-5087000D01*
X10327000Y-5057000D02*
X10297000Y-5087000D01*
X10361037Y-6149479D02*
X10391037Y-6179479D01*
X10391037Y-6149479D02*
X10361037Y-6179479D01*
X10422000Y-4925000D02*
X10452000Y-4955000D01*
X10452000Y-4925000D02*
X10422000Y-4955000D01*
X10422500Y-13565000D02*
X10452500Y-13595000D01*
X10452500Y-13565000D02*
X10422500Y-13595000D01*
X10435000Y-4535000D02*
X10465000Y-4565000D01*
X10465000Y-4535000D02*
X10435000Y-4565000D01*
X10472000Y-5579000D02*
X10502000Y-5609000D01*
X10502000Y-5579000D02*
X10472000Y-5609000D01*
X10479901Y-6115350D02*
X10509901Y-6145350D01*
X10509901Y-6115350D02*
X10479901Y-6145350D01*
X10660000Y-8947000D02*
X10690000Y-8977000D01*
X10690000Y-8947000D02*
X10660000Y-8977000D01*
X11128000Y-5137000D02*
X11158000Y-5167000D01*
X11158000Y-5137000D02*
X11128000Y-5167000D01*
X11198000Y-11279000D02*
X11228000Y-11309000D01*
X11228000Y-11279000D02*
X11198000Y-11309000D01*
X11283000Y-6750000D02*
X11313000Y-6780000D01*
X11313000Y-6750000D02*
X11283000Y-6780000D01*
X11534000Y-9054000D02*
X11564000Y-9084000D01*
X11564000Y-9054000D02*
X11534000Y-9084000D01*
X11647500Y-13520000D02*
X11677500Y-13550000D01*
X11677500Y-13520000D02*
X11647500Y-13550000D01*
X11762000Y-6790000D02*
X11792000Y-6820000D01*
X11792000Y-6790000D02*
X11762000Y-6820000D01*
X11920000Y-13285000D02*
X11950000Y-13315000D01*
X11950000Y-13285000D02*
X11920000Y-13315000D01*
X12150000Y-7279000D02*
X12180000Y-7309000D01*
X12180000Y-7279000D02*
X12150000Y-7309000D01*
X12170000Y-6326000D02*
X12200000Y-6356000D01*
X12200000Y-6326000D02*
X12170000Y-6356000D01*
X12232000Y-4755000D02*
X12262000Y-4785000D01*
X12262000Y-4755000D02*
X12232000Y-4785000D01*
X12244000Y-4873000D02*
X12274000Y-4903000D01*
X12274000Y-4873000D02*
X12244000Y-4903000D01*
X12259000Y-4953000D02*
X12289000Y-4983000D01*
X12289000Y-4953000D02*
X12259000Y-4983000D01*
X12261000Y-5017000D02*
X12291000Y-5047000D01*
X12291000Y-5017000D02*
X12261000Y-5047000D01*
X12386000Y-5106000D02*
X12416000Y-5136000D01*
X12416000Y-5106000D02*
X12386000Y-5136000D01*
X12422000Y-6805000D02*
X12452000Y-6835000D01*
X12452000Y-6805000D02*
X12422000Y-6835000D01*
X12760000Y-7304000D02*
X12790000Y-7334000D01*
X12790000Y-7304000D02*
X12760000Y-7334000D01*
X12879000Y-7662000D02*
X12909000Y-7692000D01*
X12909000Y-7662000D02*
X12879000Y-7692000D01*
X12938000Y-9594000D02*
X12968000Y-9624000D01*
X12968000Y-9594000D02*
X12938000Y-9624000D01*
X12969000Y-11491000D02*
X12999000Y-11521000D01*
X12999000Y-11491000D02*
X12969000Y-11521000D01*
X13007500Y-12845000D02*
X13037500Y-12875000D01*
X13037500Y-12845000D02*
X13007500Y-12875000D01*
X13381000Y-7325000D02*
X13411000Y-7355000D01*
X13411000Y-7325000D02*
X13381000Y-7355000D01*
X13750000Y-12355000D02*
X13780000Y-12385000D01*
X13780000Y-12355000D02*
X13750000Y-12385000D01*
X13784000Y-8772000D02*
X13814000Y-8802000D01*
X13814000Y-8772000D02*
X13784000Y-8802000D01*
X13804000Y-9498000D02*
X13834000Y-9528000D01*
X13834000Y-9498000D02*
X13804000Y-9528000D01*
X13810000Y-11257500D02*
X13840000Y-11287500D01*
X13840000Y-11257500D02*
X13810000Y-11287500D01*
X13826000Y-10443000D02*
X13856000Y-10473000D01*
X13856000Y-10443000D02*
X13826000Y-10473000D01*
X13910000Y-7113000D02*
X13940000Y-7143000D01*
X13940000Y-7113000D02*
X13910000Y-7143000D01*
X18836000Y-10511000D02*
X18866000Y-10541000D01*
X18866000Y-10511000D02*
X18836000Y-10541000D01*
X18882000Y-10904000D02*
X18912000Y-10934000D01*
X18912000Y-10904000D02*
X18882000Y-10934000D01*
X18888000Y-11535000D02*
X18918000Y-11565000D01*
X18918000Y-11535000D02*
X18888000Y-11565000D01*
X18890000Y-9755000D02*
X18920000Y-9785000D01*
X18920000Y-9755000D02*
X18890000Y-9785000D01*
X18893000Y-11225000D02*
X18923000Y-11255000D01*
X18923000Y-11225000D02*
X18893000Y-11255000D01*
X18903000Y-10156000D02*
X18933000Y-10186000D01*
X18933000Y-10156000D02*
X18903000Y-10186000D01*
X18915000Y-8324000D02*
X18945000Y-8354000D01*
X18945000Y-8324000D02*
X18915000Y-8354000D01*
X18917000Y-8706000D02*
X18947000Y-8736000D01*
X18947000Y-8706000D02*
X18917000Y-8736000D01*
X18927000Y-7820000D02*
X18957000Y-7850000D01*
X18957000Y-7820000D02*
X18927000Y-7850000D01*
X18932000Y-9007000D02*
X18962000Y-9037000D01*
X18962000Y-9007000D02*
X18932000Y-9037000D01*
X18939000Y-11768000D02*
X18969000Y-11798000D01*
X18969000Y-11768000D02*
X18939000Y-11798000D01*
X18946000Y-9363000D02*
X18976000Y-9393000D01*
X18976000Y-9363000D02*
X18946000Y-9393000D01*
X19110000Y-11592000D02*
X19140000Y-11622000D01*
X19140000Y-11592000D02*
X19110000Y-11622000D01*
X19129000Y-10275000D02*
X19159000Y-10305000D01*
X19159000Y-10275000D02*
X19129000Y-10305000D01*
X19209000Y-7713000D02*
X19239000Y-7743000D01*
X19239000Y-7713000D02*
X19209000Y-7743000D01*
X19345000Y-9198000D02*
X19375000Y-9228000D01*
X19375000Y-9198000D02*
X19345000Y-9228000D01*
X19350000Y-9459000D02*
X19380000Y-9489000D01*
X19380000Y-9459000D02*
X19350000Y-9489000D01*
X19444000Y-9621000D02*
X19474000Y-9651000D01*
X19474000Y-9621000D02*
X19444000Y-9651000D01*
X19494000Y-10341000D02*
X19524000Y-10371000D01*
X19524000Y-10341000D02*
X19494000Y-10371000D01*
X19497150Y-10247000D02*
X19527150Y-10277000D01*
X19527150Y-10247000D02*
X19497150Y-10277000D01*
X19512000Y-9683000D02*
X19542000Y-9713000D01*
X19542000Y-9683000D02*
X19512000Y-9713000D01*
X19539000Y-11824000D02*
X19569000Y-11854000D01*
X19569000Y-11824000D02*
X19539000Y-11854000D01*
X19576067Y-10127820D02*
X19606067Y-10157820D01*
X19606067Y-10127820D02*
X19576067Y-10157820D01*
X19594000Y-8112000D02*
X19624000Y-8142000D01*
X19624000Y-8112000D02*
X19594000Y-8142000D01*
X19594000Y-8502000D02*
X19624000Y-8532000D01*
X19624000Y-8502000D02*
X19594000Y-8532000D01*
X19612000Y-9688100D02*
X19642000Y-9718100D01*
X19642000Y-9688100D02*
X19612000Y-9718100D01*
X19646427Y-10224574D02*
X19676427Y-10254574D01*
X19676427Y-10224574D02*
X19646427Y-10254574D01*
X19693000Y-7755000D02*
X19723000Y-7785000D01*
X19723000Y-7755000D02*
X19693000Y-7785000D01*
X19822000Y-10351000D02*
X19852000Y-10381000D01*
X19852000Y-10351000D02*
X19822000Y-10381000D01*
X19828000Y-9728000D02*
X19858000Y-9758000D01*
X19858000Y-9728000D02*
X19828000Y-9758000D01*
X19937000Y-10578000D02*
X19967000Y-10608000D01*
X19967000Y-10578000D02*
X19937000Y-10608000D01*
X20013657Y-10016997D02*
X20043657Y-10046997D01*
X20043657Y-10016997D02*
X20013657Y-10046997D01*
X20017104Y-10104552D02*
X20047104Y-10134552D01*
X20047104Y-10104552D02*
X20017104Y-10134552D01*
X20022000Y-10865000D02*
X20052000Y-10895000D01*
X20052000Y-10865000D02*
X20022000Y-10895000D01*
X20024000Y-10430000D02*
X20054000Y-10460000D01*
X20054000Y-10430000D02*
X20024000Y-10460000D01*
X20033000Y-10224000D02*
X20063000Y-10254000D01*
X20063000Y-10224000D02*
X20033000Y-10254000D01*
X20051000Y-10586000D02*
X20081000Y-10616000D01*
X20081000Y-10586000D02*
X20051000Y-10616000D01*
X20104000Y-7740000D02*
X20134000Y-7770000D01*
X20134000Y-7740000D02*
X20104000Y-7770000D01*
X20232000Y-10864000D02*
X20262000Y-10894000D01*
X20262000Y-10864000D02*
X20232000Y-10894000D01*
X20258500Y-11051000D02*
X20288500Y-11081000D01*
X20288500Y-11051000D02*
X20258500Y-11081000D01*
X20281000Y-9720000D02*
X20311000Y-9750000D01*
X20311000Y-9720000D02*
X20281000Y-9750000D01*
X20307000Y-9998000D02*
X20337000Y-10028000D01*
X20337000Y-9998000D02*
X20307000Y-10028000D01*
X20383000Y-8117000D02*
X20413000Y-8147000D01*
X20413000Y-8117000D02*
X20383000Y-8147000D01*
X20388000Y-8298000D02*
X20418000Y-8328000D01*
X20418000Y-8298000D02*
X20388000Y-8328000D01*
X20394000Y-10406000D02*
X20424000Y-10436000D01*
X20424000Y-10406000D02*
X20394000Y-10436000D01*
X20406000Y-10031000D02*
X20436000Y-10061000D01*
X20436000Y-10031000D02*
X20406000Y-10061000D01*
X20408000Y-10771250D02*
X20438000Y-10801250D01*
X20438000Y-10771250D02*
X20408000Y-10801250D01*
X20479000Y-8781000D02*
X20509000Y-8811000D01*
X20509000Y-8781000D02*
X20479000Y-8811000D01*
X20505000Y-11076000D02*
X20535000Y-11106000D01*
X20535000Y-11076000D02*
X20505000Y-11106000D01*
X20589000Y-10422000D02*
X20619000Y-10452000D01*
X20619000Y-10422000D02*
X20589000Y-10452000D01*
X20785000Y-8471000D02*
X20815000Y-8501000D01*
X20815000Y-8471000D02*
X20785000Y-8501000D01*
X20936000Y-9388000D02*
X20966000Y-9418000D01*
X20966000Y-9388000D02*
X20936000Y-9418000D01*
X20948000Y-10911000D02*
X20978000Y-10941000D01*
X20978000Y-10911000D02*
X20948000Y-10941000D01*
X20967000Y-11364000D02*
X20997000Y-11394000D01*
X20997000Y-11364000D02*
X20967000Y-11394000D01*
X20967000Y-11693000D02*
X20997000Y-11723000D01*
X20997000Y-11693000D02*
X20967000Y-11723000D01*
X20973000Y-10068000D02*
X21003000Y-10098000D01*
X21003000Y-10068000D02*
X20973000Y-10098000D01*
X21013000Y-8850000D02*
X21043000Y-8880000D01*
X21043000Y-8850000D02*
X21013000Y-8880000D01*
X6200000Y-10826000D02*
G75*
G02*
X6170000Y-10826000I-15000J0D01*
G01*
X6170000Y-10826000D02*
G75*
G02*
X6200000Y-10826000I15000J0D01*
G01*
X6200000Y-10946000D02*
G75*
G02*
X6170000Y-10946000I-15000J0D01*
G01*
X6170000Y-10946000D02*
G75*
G02*
X6200000Y-10946000I15000J0D01*
G01*
X6200000Y-11066000D02*
G75*
G02*
X6170000Y-11066000I-15000J0D01*
G01*
X6170000Y-11066000D02*
G75*
G02*
X6200000Y-11066000I15000J0D01*
G01*
X6340000Y-10826000D02*
G75*
G02*
X6310000Y-10826000I-15000J0D01*
G01*
X6310000Y-10826000D02*
G75*
G02*
X6340000Y-10826000I15000J0D01*
G01*
X6340000Y-10946000D02*
G75*
G02*
X6310000Y-10946000I-15000J0D01*
G01*
X6310000Y-10946000D02*
G75*
G02*
X6340000Y-10946000I15000J0D01*
G01*
X6340000Y-11066000D02*
G75*
G02*
X6310000Y-11066000I-15000J0D01*
G01*
X6310000Y-11066000D02*
G75*
G02*
X6340000Y-11066000I15000J0D01*
G01*
X6767500Y-5340000D02*
X6767500Y-5400000D01*
X6737500Y-5370000D02*
X6797500Y-5370000D01*
X6892500Y-5340000D02*
X6892500Y-5400000D01*
X6862500Y-5370000D02*
X6922500Y-5370000D01*
X7017500Y-5340000D02*
X7017500Y-5400000D01*
X6987500Y-5370000D02*
X7047500Y-5370000D01*
X10186000Y-7140500D02*
X10186000Y-7200500D01*
X10156000Y-7170500D02*
X10216000Y-7170500D01*
X10186000Y-7265500D02*
X10186000Y-7325500D01*
X10156000Y-7295500D02*
X10216000Y-7295500D01*
X19165500Y-11231000D02*
X19165500Y-11291000D01*
X19135500Y-11261000D02*
X19195500Y-11261000D01*
X19165500Y-11356000D02*
X19165500Y-11416000D01*
X19135500Y-11386000D02*
X19195500Y-11386000D01*
X9196749Y-4452999D02*
X9196749Y-4403501D01*
X9147251Y-4403501D01*
X9147251Y-4452999D01*
X9196749Y-4452999D01*
X9207000Y-4463250D02*
X9207000Y-4393250D01*
X9137000Y-4393250D02*
G75*
G02*
X9207000Y-4393250I35000J0D01*
G01*
X9137000Y-4393250D02*
X9137000Y-4463250D01*
X9137000Y-4463250D02*
G75*
G03*
X9207000Y-4463250I35000J0D01*
G01*
X9196749Y-4870999D02*
X9196749Y-4821501D01*
X9147251Y-4821501D01*
X9147251Y-4870999D01*
X9196749Y-4870999D01*
X9207000Y-4896250D02*
X9207000Y-4796250D01*
X9137000Y-4796250D02*
G75*
G02*
X9207000Y-4796250I35000J0D01*
G01*
X9137000Y-4796250D02*
X9137000Y-4896250D01*
X9137000Y-4896250D02*
G75*
G03*
X9207000Y-4896250I35000J0D01*
G01*
X10060749Y-4452999D02*
X10060749Y-4403501D01*
X10011251Y-4403501D01*
X10011251Y-4452999D01*
X10060749Y-4452999D01*
X10071000Y-4463250D02*
X10071000Y-4393250D01*
X10001000Y-4393250D02*
G75*
G02*
X10071000Y-4393250I35000J0D01*
G01*
X10001000Y-4393250D02*
X10001000Y-4463250D01*
X10001000Y-4463250D02*
G75*
G03*
X10071000Y-4463250I35000J0D01*
G01*
X10060749Y-4870999D02*
X10060749Y-4821501D01*
X10011251Y-4821501D01*
X10011251Y-4870999D01*
X10060749Y-4870999D01*
X10071000Y-4896250D02*
X10071000Y-4796250D01*
X10001000Y-4796250D02*
G75*
G02*
X10071000Y-4796250I35000J0D01*
G01*
X10001000Y-4796250D02*
X10001000Y-4896250D01*
X10001000Y-4896250D02*
G75*
G03*
X10071000Y-4896250I35000J0D01*
G01*
X19341000Y-11686000D02*
X19381000Y-11646000D01*
X19341000Y-11606000D01*
X19301000Y-11646000D01*
X19341000Y-11686000D01*
X19301000Y-11576000D02*
X19301000Y-11716000D01*
X19381000Y-11716000D02*
G75*
G02*
X19301000Y-11716000I-40000J0D01*
G01*
X19381000Y-11716000D02*
X19381000Y-11576000D01*
X19381000Y-11576000D02*
G75*
G03*
X19301000Y-11576000I-40000J0D01*
G01*
X20501000Y-11686000D02*
X20541000Y-11646000D01*
X20501000Y-11606000D01*
X20461000Y-11646000D01*
X20501000Y-11686000D01*
X20461000Y-11576000D02*
X20461000Y-11716000D01*
X20541000Y-11716000D02*
G75*
G02*
X20461000Y-11716000I-40000J0D01*
G01*
X20541000Y-11716000D02*
X20541000Y-11576000D01*
X20541000Y-11576000D02*
G75*
G03*
X20461000Y-11576000I-40000J0D01*
G01*
X5477000Y-7685000D02*
X5577000Y-7785000D01*
X5577000Y-7685000D02*
X5477000Y-7785000D01*
X5577000Y-7735000D02*
G75*
G02*
X5477000Y-7735000I-50000J0D01*
G01*
X5477000Y-7735000D02*
G75*
G02*
X5577000Y-7735000I50000J0D01*
G01*
X5477000Y-7935000D02*
X5577000Y-8035000D01*
X5577000Y-7935000D02*
X5477000Y-8035000D01*
X5577000Y-7985000D02*
G75*
G02*
X5477000Y-7985000I-50000J0D01*
G01*
X5477000Y-7985000D02*
G75*
G02*
X5577000Y-7985000I50000J0D01*
G01*
X5477000Y-8185000D02*
X5577000Y-8285000D01*
X5577000Y-8185000D02*
X5477000Y-8285000D01*
X5577000Y-8235000D02*
G75*
G02*
X5477000Y-8235000I-50000J0D01*
G01*
X5477000Y-8235000D02*
G75*
G02*
X5577000Y-8235000I50000J0D01*
G01*
X5482000Y-9395000D02*
X5582000Y-9495000D01*
X5582000Y-9395000D02*
X5482000Y-9495000D01*
X5582000Y-9445000D02*
G75*
G02*
X5482000Y-9445000I-50000J0D01*
G01*
X5482000Y-9445000D02*
G75*
G02*
X5582000Y-9445000I50000J0D01*
G01*
X5482000Y-9645000D02*
X5582000Y-9745000D01*
X5582000Y-9645000D02*
X5482000Y-9745000D01*
X5582000Y-9695000D02*
G75*
G02*
X5482000Y-9695000I-50000J0D01*
G01*
X5482000Y-9695000D02*
G75*
G02*
X5582000Y-9695000I50000J0D01*
G01*
X5482000Y-9895000D02*
X5582000Y-9995000D01*
X5582000Y-9895000D02*
X5482000Y-9995000D01*
X5582000Y-9945000D02*
G75*
G02*
X5482000Y-9945000I-50000J0D01*
G01*
X5482000Y-9945000D02*
G75*
G02*
X5582000Y-9945000I50000J0D01*
G01*
X6121000Y-13080000D02*
X6221000Y-13180000D01*
X6221000Y-13080000D02*
X6121000Y-13180000D01*
X6221000Y-13130000D02*
G75*
G02*
X6121000Y-13130000I-50000J0D01*
G01*
X6121000Y-13130000D02*
G75*
G02*
X6221000Y-13130000I50000J0D01*
G01*
X6375000Y-13080000D02*
X6475000Y-13180000D01*
X6475000Y-13080000D02*
X6375000Y-13180000D01*
X6475000Y-13130000D02*
G75*
G02*
X6375000Y-13130000I-50000J0D01*
G01*
X6375000Y-13130000D02*
G75*
G02*
X6475000Y-13130000I50000J0D01*
G01*
X6629000Y-13080000D02*
X6729000Y-13180000D01*
X6729000Y-13080000D02*
X6629000Y-13180000D01*
X6729000Y-13130000D02*
G75*
G02*
X6629000Y-13130000I-50000J0D01*
G01*
X6629000Y-13130000D02*
G75*
G02*
X6729000Y-13130000I50000J0D01*
G01*
X6883000Y-13080000D02*
X6983000Y-13180000D01*
X6983000Y-13080000D02*
X6883000Y-13180000D01*
X6983000Y-13130000D02*
G75*
G02*
X6883000Y-13130000I-50000J0D01*
G01*
X6883000Y-13130000D02*
G75*
G02*
X6983000Y-13130000I50000J0D01*
G01*
X6927000Y-7685000D02*
X7027000Y-7785000D01*
X7027000Y-7685000D02*
X6927000Y-7785000D01*
X7027000Y-7735000D02*
G75*
G02*
X6927000Y-7735000I-50000J0D01*
G01*
X6927000Y-7735000D02*
G75*
G02*
X7027000Y-7735000I50000J0D01*
G01*
X6927000Y-8185000D02*
X7027000Y-8285000D01*
X7027000Y-8185000D02*
X6927000Y-8285000D01*
X7027000Y-8235000D02*
G75*
G02*
X6927000Y-8235000I-50000J0D01*
G01*
X6927000Y-8235000D02*
G75*
G02*
X7027000Y-8235000I50000J0D01*
G01*
X6932000Y-9395000D02*
X7032000Y-9495000D01*
X7032000Y-9395000D02*
X6932000Y-9495000D01*
X7032000Y-9445000D02*
G75*
G02*
X6932000Y-9445000I-50000J0D01*
G01*
X6932000Y-9445000D02*
G75*
G02*
X7032000Y-9445000I50000J0D01*
G01*
X6932000Y-9895000D02*
X7032000Y-9995000D01*
X7032000Y-9895000D02*
X6932000Y-9995000D01*
X7032000Y-9945000D02*
G75*
G02*
X6932000Y-9945000I-50000J0D01*
G01*
X6932000Y-9945000D02*
G75*
G02*
X7032000Y-9945000I50000J0D01*
G01*
X10967000Y-5341000D02*
X11067000Y-5441000D01*
X11067000Y-5341000D02*
X10967000Y-5441000D01*
X11067000Y-5391000D02*
G75*
G02*
X10967000Y-5391000I-50000J0D01*
G01*
X10967000Y-5391000D02*
G75*
G02*
X11067000Y-5391000I50000J0D01*
G01*
X10967000Y-5595000D02*
X11067000Y-5695000D01*
X11067000Y-5595000D02*
X10967000Y-5695000D01*
X11067000Y-5645000D02*
G75*
G02*
X10967000Y-5645000I-50000J0D01*
G01*
X10967000Y-5645000D02*
G75*
G02*
X11067000Y-5645000I50000J0D01*
G01*
X10967000Y-5849000D02*
X11067000Y-5949000D01*
X11067000Y-5849000D02*
X10967000Y-5949000D01*
X11067000Y-5899000D02*
G75*
G02*
X10967000Y-5899000I-50000J0D01*
G01*
X10967000Y-5899000D02*
G75*
G02*
X11067000Y-5899000I50000J0D01*
G01*
X10967000Y-6103000D02*
X11067000Y-6203000D01*
X11067000Y-6103000D02*
X10967000Y-6203000D01*
X11067000Y-6153000D02*
G75*
G02*
X10967000Y-6153000I-50000J0D01*
G01*
X10967000Y-6153000D02*
G75*
G02*
X11067000Y-6153000I50000J0D01*
G01*
X11057000Y-4742000D02*
X11157000Y-4842000D01*
X11157000Y-4742000D02*
X11057000Y-4842000D01*
X11157000Y-4792000D02*
G75*
G02*
X11057000Y-4792000I-50000J0D01*
G01*
X11057000Y-4792000D02*
G75*
G02*
X11157000Y-4792000I50000J0D01*
G01*
X11221000Y-5341000D02*
X11321000Y-5441000D01*
X11321000Y-5341000D02*
X11221000Y-5441000D01*
X11321000Y-5391000D02*
G75*
G02*
X11221000Y-5391000I-50000J0D01*
G01*
X11221000Y-5391000D02*
G75*
G02*
X11321000Y-5391000I50000J0D01*
G01*
X11221000Y-5595000D02*
X11321000Y-5695000D01*
X11321000Y-5595000D02*
X11221000Y-5695000D01*
X11321000Y-5645000D02*
G75*
G02*
X11221000Y-5645000I-50000J0D01*
G01*
X11221000Y-5645000D02*
G75*
G02*
X11321000Y-5645000I50000J0D01*
G01*
X11221000Y-5849000D02*
X11321000Y-5949000D01*
X11321000Y-5849000D02*
X11221000Y-5949000D01*
X11321000Y-5899000D02*
G75*
G02*
X11221000Y-5899000I-50000J0D01*
G01*
X11221000Y-5899000D02*
G75*
G02*
X11321000Y-5899000I50000J0D01*
G01*
X11221000Y-6103000D02*
X11321000Y-6203000D01*
X11321000Y-6103000D02*
X11221000Y-6203000D01*
X11321000Y-6153000D02*
G75*
G02*
X11221000Y-6153000I-50000J0D01*
G01*
X11221000Y-6153000D02*
G75*
G02*
X11321000Y-6153000I50000J0D01*
G01*
X11311000Y-4742000D02*
X11411000Y-4842000D01*
X11411000Y-4742000D02*
X11311000Y-4842000D01*
X11411000Y-4792000D02*
G75*
G02*
X11311000Y-4792000I-50000J0D01*
G01*
X11311000Y-4792000D02*
G75*
G02*
X11411000Y-4792000I50000J0D01*
G01*
X11565000Y-4742000D02*
X11665000Y-4842000D01*
X11665000Y-4742000D02*
X11565000Y-4842000D01*
X11665000Y-4792000D02*
G75*
G02*
X11565000Y-4792000I-50000J0D01*
G01*
X11565000Y-4792000D02*
G75*
G02*
X11665000Y-4792000I50000J0D01*
G01*
X11819000Y-4742000D02*
X11919000Y-4842000D01*
X11919000Y-4742000D02*
X11819000Y-4842000D01*
X11919000Y-4792000D02*
G75*
G02*
X11819000Y-4792000I-50000J0D01*
G01*
X11819000Y-4792000D02*
G75*
G02*
X11919000Y-4792000I50000J0D01*
G01*
X19120000Y-7876000D02*
X19220000Y-7976000D01*
X19220000Y-7876000D02*
X19120000Y-7976000D01*
X19220000Y-7926000D02*
G75*
G02*
X19120000Y-7926000I-50000J0D01*
G01*
X19120000Y-7926000D02*
G75*
G02*
X19220000Y-7926000I50000J0D01*
G01*
X19120000Y-8130000D02*
X19220000Y-8230000D01*
X19220000Y-8130000D02*
X19120000Y-8230000D01*
X19220000Y-8180000D02*
G75*
G02*
X19120000Y-8180000I-50000J0D01*
G01*
X19120000Y-8180000D02*
G75*
G02*
X19220000Y-8180000I50000J0D01*
G01*
X19120000Y-8384000D02*
X19220000Y-8484000D01*
X19220000Y-8384000D02*
X19120000Y-8484000D01*
X19220000Y-8434000D02*
G75*
G02*
X19120000Y-8434000I-50000J0D01*
G01*
X19120000Y-8434000D02*
G75*
G02*
X19220000Y-8434000I50000J0D01*
G01*
X19120000Y-8638000D02*
X19220000Y-8738000D01*
X19220000Y-8638000D02*
X19120000Y-8738000D01*
X19220000Y-8688000D02*
G75*
G02*
X19120000Y-8688000I-50000J0D01*
G01*
X19120000Y-8688000D02*
G75*
G02*
X19220000Y-8688000I50000J0D01*
G01*
X19521000Y-11381000D02*
X19621000Y-11481000D01*
X19621000Y-11381000D02*
X19521000Y-11481000D01*
X19621000Y-11431000D02*
G75*
G02*
X19521000Y-11431000I-50000J0D01*
G01*
X19521000Y-11431000D02*
G75*
G02*
X19621000Y-11431000I50000J0D01*
G01*
X19531000Y-9184000D02*
X19631000Y-9284000D01*
X19631000Y-9184000D02*
X19531000Y-9284000D01*
X19631000Y-9234000D02*
G75*
G02*
X19531000Y-9234000I-50000J0D01*
G01*
X19531000Y-9234000D02*
G75*
G02*
X19631000Y-9234000I50000J0D01*
G01*
X19531000Y-9438000D02*
X19631000Y-9538000D01*
X19631000Y-9438000D02*
X19531000Y-9538000D01*
X19631000Y-9488000D02*
G75*
G02*
X19531000Y-9488000I-50000J0D01*
G01*
X19531000Y-9488000D02*
G75*
G02*
X19631000Y-9488000I50000J0D01*
G01*
X19771000Y-11381000D02*
X19871000Y-11481000D01*
X19871000Y-11381000D02*
X19771000Y-11481000D01*
X19871000Y-11431000D02*
G75*
G02*
X19771000Y-11431000I-50000J0D01*
G01*
X19771000Y-11431000D02*
G75*
G02*
X19871000Y-11431000I50000J0D01*
G01*
X19785000Y-9184000D02*
X19885000Y-9284000D01*
X19885000Y-9184000D02*
X19785000Y-9284000D01*
X19885000Y-9234000D02*
G75*
G02*
X19785000Y-9234000I-50000J0D01*
G01*
X19785000Y-9234000D02*
G75*
G02*
X19885000Y-9234000I50000J0D01*
G01*
X19785000Y-9438000D02*
X19885000Y-9538000D01*
X19885000Y-9438000D02*
X19785000Y-9538000D01*
X19885000Y-9488000D02*
G75*
G02*
X19785000Y-9488000I-50000J0D01*
G01*
X19785000Y-9488000D02*
G75*
G02*
X19885000Y-9488000I50000J0D01*
G01*
X19971000Y-11381000D02*
X20071000Y-11481000D01*
X20071000Y-11381000D02*
X19971000Y-11481000D01*
X20071000Y-11431000D02*
G75*
G02*
X19971000Y-11431000I-50000J0D01*
G01*
X19971000Y-11431000D02*
G75*
G02*
X20071000Y-11431000I50000J0D01*
G01*
X20039000Y-9184000D02*
X20139000Y-9284000D01*
X20139000Y-9184000D02*
X20039000Y-9284000D01*
X20139000Y-9234000D02*
G75*
G02*
X20039000Y-9234000I-50000J0D01*
G01*
X20039000Y-9234000D02*
G75*
G02*
X20139000Y-9234000I50000J0D01*
G01*
X20039000Y-9438000D02*
X20139000Y-9538000D01*
X20139000Y-9438000D02*
X20039000Y-9538000D01*
X20139000Y-9488000D02*
G75*
G02*
X20039000Y-9488000I-50000J0D01*
G01*
X20039000Y-9488000D02*
G75*
G02*
X20139000Y-9488000I50000J0D01*
G01*
X20221000Y-11381000D02*
X20321000Y-11481000D01*
X20321000Y-11381000D02*
X20221000Y-11481000D01*
X20321000Y-11431000D02*
G75*
G02*
X20221000Y-11431000I-50000J0D01*
G01*
X20221000Y-11431000D02*
G75*
G02*
X20321000Y-11431000I50000J0D01*
G01*
X20293000Y-9184000D02*
X20393000Y-9284000D01*
X20393000Y-9184000D02*
X20293000Y-9284000D01*
X20393000Y-9234000D02*
G75*
G02*
X20293000Y-9234000I-50000J0D01*
G01*
X20293000Y-9234000D02*
G75*
G02*
X20393000Y-9234000I50000J0D01*
G01*
X20293000Y-9438000D02*
X20393000Y-9538000D01*
X20393000Y-9438000D02*
X20293000Y-9538000D01*
X20393000Y-9488000D02*
G75*
G02*
X20293000Y-9488000I-50000J0D01*
G01*
X20293000Y-9488000D02*
G75*
G02*
X20393000Y-9488000I50000J0D01*
G01*
D13*
X5647000Y-5718000D02*
X5757000Y-5828000D01*
X5757000Y-5718000D02*
X5647000Y-5828000D01*
X5702000Y-5718000D02*
X5702000Y-5828000D01*
X5647000Y-5773000D02*
X5757000Y-5773000D01*
X5647000Y-6018000D02*
X5757000Y-6128000D01*
X5757000Y-6018000D02*
X5647000Y-6128000D01*
X5702000Y-6018000D02*
X5702000Y-6128000D01*
X5647000Y-6073000D02*
X5757000Y-6073000D01*
X5647000Y-6318000D02*
X5757000Y-6428000D01*
X5757000Y-6318000D02*
X5647000Y-6428000D01*
X5702000Y-6318000D02*
X5702000Y-6428000D01*
X5647000Y-6373000D02*
X5757000Y-6373000D01*
X5677000Y-5393000D02*
X5787000Y-5503000D01*
X5787000Y-5393000D02*
X5677000Y-5503000D01*
X5732000Y-5393000D02*
X5732000Y-5503000D01*
X5677000Y-5448000D02*
X5787000Y-5448000D01*
X5677000Y-6643000D02*
X5787000Y-6753000D01*
X5787000Y-6643000D02*
X5677000Y-6753000D01*
X5732000Y-6643000D02*
X5732000Y-6753000D01*
X5677000Y-6698000D02*
X5787000Y-6698000D01*
D14*
X6991500Y-11423500D02*
X7106500Y-11538500D01*
X7106500Y-11423500D02*
X6991500Y-11538500D01*
X7089659Y-11521659D02*
X7089659Y-11440341D01*
X7008341Y-11440341D01*
X7008341Y-11521659D01*
X7089659Y-11521659D01*
X7451500Y-11423500D02*
X7566500Y-11538500D01*
X7566500Y-11423500D02*
X7451500Y-11538500D01*
X7549659Y-11521659D02*
X7549659Y-11440341D01*
X7468341Y-11440341D01*
X7468341Y-11521659D01*
X7549659Y-11521659D01*
D11*
X6177000Y-7325000D02*
X6377000Y-7525000D01*
X6377000Y-7325000D02*
X6177000Y-7525000D01*
X6277000Y-7525000D02*
X6377000Y-7425000D01*
X6277000Y-7325000D01*
X6177000Y-7425000D01*
X6277000Y-7525000D01*
D12*
X6252000Y-7525000D02*
X6302000Y-7525000D01*
X6302000Y-7325000D02*
G75*
G02*
X6302000Y-7525000I0J-100000D01*
G01*
X6302000Y-7325000D02*
X6252000Y-7325000D01*
X6252000Y-7325000D02*
G75*
G03*
X6252000Y-7525000I0J-100000D01*
G01*
D11*
X6177000Y-8445000D02*
X6377000Y-8645000D01*
X6377000Y-8445000D02*
X6177000Y-8645000D01*
X6277000Y-8645000D02*
X6377000Y-8545000D01*
X6277000Y-8445000D01*
X6177000Y-8545000D01*
X6277000Y-8645000D01*
D12*
X6252000Y-8645000D02*
X6302000Y-8645000D01*
X6302000Y-8445000D02*
G75*
G02*
X6302000Y-8645000I0J-100000D01*
G01*
X6302000Y-8445000D02*
X6252000Y-8445000D01*
X6252000Y-8445000D02*
G75*
G03*
X6252000Y-8645000I0J-100000D01*
G01*
D11*
X6182000Y-9035000D02*
X6382000Y-9235000D01*
X6382000Y-9035000D02*
X6182000Y-9235000D01*
X6282000Y-9235000D02*
X6382000Y-9135000D01*
X6282000Y-9035000D01*
X6182000Y-9135000D01*
X6282000Y-9235000D01*
D12*
X6257000Y-9235000D02*
X6307000Y-9235000D01*
X6307000Y-9035000D02*
G75*
G02*
X6307000Y-9235000I0J-100000D01*
G01*
X6307000Y-9035000D02*
X6257000Y-9035000D01*
X6257000Y-9035000D02*
G75*
G03*
X6257000Y-9235000I0J-100000D01*
G01*
D11*
X6182000Y-10155000D02*
X6382000Y-10355000D01*
X6382000Y-10155000D02*
X6182000Y-10355000D01*
X6282000Y-10355000D02*
X6382000Y-10255000D01*
X6282000Y-10155000D01*
X6182000Y-10255000D01*
X6282000Y-10355000D01*
D12*
X6257000Y-10355000D02*
X6307000Y-10355000D01*
X6307000Y-10155000D02*
G75*
G02*
X6307000Y-10355000I0J-100000D01*
G01*
X6307000Y-10155000D02*
X6257000Y-10155000D01*
X6257000Y-10155000D02*
G75*
G03*
X6257000Y-10355000I0J-100000D01*
G01*
D11*
X5119277Y-14038984D02*
X5119277Y-13838984D01*
X5119277Y-13838984D02*
X5166896Y-13838984D01*
X5166896Y-13838984D02*
X5195467Y-13848508D01*
X5195467Y-13848508D02*
X5214515Y-13867555D01*
X5214515Y-13867555D02*
X5224039Y-13886603D01*
X5224039Y-13886603D02*
X5233563Y-13924698D01*
X5233563Y-13924698D02*
X5233563Y-13953269D01*
X5233563Y-13953269D02*
X5224039Y-13991365D01*
X5224039Y-13991365D02*
X5214515Y-14010412D01*
X5214515Y-14010412D02*
X5195467Y-14029460D01*
X5195467Y-14029460D02*
X5166896Y-14038984D01*
X5166896Y-14038984D02*
X5119277Y-14038984D01*
X5319277Y-14038984D02*
X5319277Y-13905650D01*
X5319277Y-13943746D02*
X5328801Y-13924698D01*
X5328801Y-13924698D02*
X5338324Y-13915174D01*
X5338324Y-13915174D02*
X5357372Y-13905650D01*
X5357372Y-13905650D02*
X5376420Y-13905650D01*
X5443086Y-14038984D02*
X5443086Y-13905650D01*
X5443086Y-13838984D02*
X5433563Y-13848508D01*
X5433563Y-13848508D02*
X5443086Y-13858031D01*
X5443086Y-13858031D02*
X5452610Y-13848508D01*
X5452610Y-13848508D02*
X5443086Y-13838984D01*
X5443086Y-13838984D02*
X5443086Y-13858031D01*
X5566896Y-14038984D02*
X5547848Y-14029460D01*
X5547848Y-14029460D02*
X5538324Y-14010412D01*
X5538324Y-14010412D02*
X5538324Y-13838984D01*
X5671658Y-14038984D02*
X5652610Y-14029460D01*
X5652610Y-14029460D02*
X5643086Y-14010412D01*
X5643086Y-14010412D02*
X5643086Y-13838984D01*
X5900229Y-14038984D02*
X5900229Y-13838984D01*
X5900229Y-13838984D02*
X5966896Y-13981841D01*
X5966896Y-13981841D02*
X6033562Y-13838984D01*
X6033562Y-13838984D02*
X6033562Y-14038984D01*
X6214515Y-14038984D02*
X6214515Y-13934222D01*
X6214515Y-13934222D02*
X6204991Y-13915174D01*
X6204991Y-13915174D02*
X6185943Y-13905650D01*
X6185943Y-13905650D02*
X6147848Y-13905650D01*
X6147848Y-13905650D02*
X6128801Y-13915174D01*
X6214515Y-14029460D02*
X6195467Y-14038984D01*
X6195467Y-14038984D02*
X6147848Y-14038984D01*
X6147848Y-14038984D02*
X6128801Y-14029460D01*
X6128801Y-14029460D02*
X6119277Y-14010412D01*
X6119277Y-14010412D02*
X6119277Y-13991365D01*
X6119277Y-13991365D02*
X6128801Y-13972317D01*
X6128801Y-13972317D02*
X6147848Y-13962793D01*
X6147848Y-13962793D02*
X6195467Y-13962793D01*
X6195467Y-13962793D02*
X6214515Y-13953269D01*
X6309753Y-13905650D02*
X6309753Y-14105650D01*
X6309753Y-13915174D02*
X6328801Y-13905650D01*
X6328801Y-13905650D02*
X6366896Y-13905650D01*
X6366896Y-13905650D02*
X6385943Y-13915174D01*
X6385943Y-13915174D02*
X6395467Y-13924698D01*
X6395467Y-13924698D02*
X6404991Y-13943746D01*
X6404991Y-13943746D02*
X6404991Y-14000888D01*
X6404991Y-14000888D02*
X6395467Y-14019936D01*
X6395467Y-14019936D02*
X6385943Y-14029460D01*
X6385943Y-14029460D02*
X6366896Y-14038984D01*
X6366896Y-14038984D02*
X6328801Y-14038984D01*
X6328801Y-14038984D02*
X6309753Y-14029460D01*
X6490705Y-14019936D02*
X6500229Y-14029460D01*
X6500229Y-14029460D02*
X6490705Y-14038984D01*
X6490705Y-14038984D02*
X6481182Y-14029460D01*
X6481182Y-14029460D02*
X6490705Y-14019936D01*
X6490705Y-14019936D02*
X6490705Y-14038984D01*
X6490705Y-13915174D02*
X6500229Y-13924698D01*
X6500229Y-13924698D02*
X6490705Y-13934222D01*
X6490705Y-13934222D02*
X6481182Y-13924698D01*
X6481182Y-13924698D02*
X6490705Y-13915174D01*
X6490705Y-13915174D02*
X6490705Y-13934222D01*
D12*
X4828500Y-14352500D02*
X4858500Y-14382500D01*
X4858500Y-14352500D02*
X4828500Y-14382500D01*
D11*
X5157372Y-14258984D02*
X5176420Y-14258984D01*
X5176420Y-14258984D02*
X5195467Y-14268508D01*
X5195467Y-14268508D02*
X5204991Y-14278031D01*
X5204991Y-14278031D02*
X5214515Y-14297079D01*
X5214515Y-14297079D02*
X5224039Y-14335174D01*
X5224039Y-14335174D02*
X5224039Y-14382793D01*
X5224039Y-14382793D02*
X5214515Y-14420888D01*
X5214515Y-14420888D02*
X5204991Y-14439936D01*
X5204991Y-14439936D02*
X5195467Y-14449460D01*
X5195467Y-14449460D02*
X5176420Y-14458984D01*
X5176420Y-14458984D02*
X5157372Y-14458984D01*
X5157372Y-14458984D02*
X5138324Y-14449460D01*
X5138324Y-14449460D02*
X5128801Y-14439936D01*
X5128801Y-14439936D02*
X5119277Y-14420888D01*
X5119277Y-14420888D02*
X5109753Y-14382793D01*
X5109753Y-14382793D02*
X5109753Y-14335174D01*
X5109753Y-14335174D02*
X5119277Y-14297079D01*
X5119277Y-14297079D02*
X5128801Y-14278031D01*
X5128801Y-14278031D02*
X5138324Y-14268508D01*
X5138324Y-14268508D02*
X5157372Y-14258984D01*
X5309753Y-14439936D02*
X5319277Y-14449460D01*
X5319277Y-14449460D02*
X5309753Y-14458984D01*
X5309753Y-14458984D02*
X5300229Y-14449460D01*
X5300229Y-14449460D02*
X5309753Y-14439936D01*
X5309753Y-14439936D02*
X5309753Y-14458984D01*
X5385944Y-14258984D02*
X5509753Y-14258984D01*
X5509753Y-14258984D02*
X5443086Y-14335174D01*
X5443086Y-14335174D02*
X5471658Y-14335174D01*
X5471658Y-14335174D02*
X5490705Y-14344698D01*
X5490705Y-14344698D02*
X5500229Y-14354222D01*
X5500229Y-14354222D02*
X5509753Y-14373269D01*
X5509753Y-14373269D02*
X5509753Y-14420888D01*
X5509753Y-14420888D02*
X5500229Y-14439936D01*
X5500229Y-14439936D02*
X5490705Y-14449460D01*
X5490705Y-14449460D02*
X5471658Y-14458984D01*
X5471658Y-14458984D02*
X5414515Y-14458984D01*
X5414515Y-14458984D02*
X5395467Y-14449460D01*
X5395467Y-14449460D02*
X5385944Y-14439936D01*
X5633562Y-14258984D02*
X5652610Y-14258984D01*
X5652610Y-14258984D02*
X5671658Y-14268508D01*
X5671658Y-14268508D02*
X5681182Y-14278031D01*
X5681182Y-14278031D02*
X5690705Y-14297079D01*
X5690705Y-14297079D02*
X5700229Y-14335174D01*
X5700229Y-14335174D02*
X5700229Y-14382793D01*
X5700229Y-14382793D02*
X5690705Y-14420888D01*
X5690705Y-14420888D02*
X5681182Y-14439936D01*
X5681182Y-14439936D02*
X5671658Y-14449460D01*
X5671658Y-14449460D02*
X5652610Y-14458984D01*
X5652610Y-14458984D02*
X5633562Y-14458984D01*
X5633562Y-14458984D02*
X5614515Y-14449460D01*
X5614515Y-14449460D02*
X5604991Y-14439936D01*
X5604991Y-14439936D02*
X5595467Y-14420888D01*
X5595467Y-14420888D02*
X5585944Y-14382793D01*
X5585944Y-14382793D02*
X5585944Y-14335174D01*
X5585944Y-14335174D02*
X5595467Y-14297079D01*
X5595467Y-14297079D02*
X5604991Y-14278031D01*
X5604991Y-14278031D02*
X5614515Y-14268508D01*
X5614515Y-14268508D02*
X5633562Y-14258984D01*
X5824039Y-14258984D02*
X5843086Y-14258984D01*
X5843086Y-14258984D02*
X5862134Y-14268508D01*
X5862134Y-14268508D02*
X5871658Y-14278031D01*
X5871658Y-14278031D02*
X5881182Y-14297079D01*
X5881182Y-14297079D02*
X5890705Y-14335174D01*
X5890705Y-14335174D02*
X5890705Y-14382793D01*
X5890705Y-14382793D02*
X5881182Y-14420888D01*
X5881182Y-14420888D02*
X5871658Y-14439936D01*
X5871658Y-14439936D02*
X5862134Y-14449460D01*
X5862134Y-14449460D02*
X5843086Y-14458984D01*
X5843086Y-14458984D02*
X5824039Y-14458984D01*
X5824039Y-14458984D02*
X5804991Y-14449460D01*
X5804991Y-14449460D02*
X5795467Y-14439936D01*
X5795467Y-14439936D02*
X5785943Y-14420888D01*
X5785943Y-14420888D02*
X5776420Y-14382793D01*
X5776420Y-14382793D02*
X5776420Y-14335174D01*
X5776420Y-14335174D02*
X5785943Y-14297079D01*
X5785943Y-14297079D02*
X5795467Y-14278031D01*
X5795467Y-14278031D02*
X5804991Y-14268508D01*
X5804991Y-14268508D02*
X5824039Y-14258984D01*
X5976420Y-14458984D02*
X5976420Y-14325650D01*
X5976420Y-14344698D02*
X5985943Y-14335174D01*
X5985943Y-14335174D02*
X6004991Y-14325650D01*
X6004991Y-14325650D02*
X6033563Y-14325650D01*
X6033563Y-14325650D02*
X6052610Y-14335174D01*
X6052610Y-14335174D02*
X6062134Y-14354222D01*
X6062134Y-14354222D02*
X6062134Y-14458984D01*
X6062134Y-14354222D02*
X6071658Y-14335174D01*
X6071658Y-14335174D02*
X6090705Y-14325650D01*
X6090705Y-14325650D02*
X6119277Y-14325650D01*
X6119277Y-14325650D02*
X6138324Y-14335174D01*
X6138324Y-14335174D02*
X6147848Y-14354222D01*
X6147848Y-14354222D02*
X6147848Y-14458984D01*
X6243086Y-14458984D02*
X6243086Y-14325650D01*
X6243086Y-14344698D02*
X6252610Y-14335174D01*
X6252610Y-14335174D02*
X6271658Y-14325650D01*
X6271658Y-14325650D02*
X6300229Y-14325650D01*
X6300229Y-14325650D02*
X6319277Y-14335174D01*
X6319277Y-14335174D02*
X6328801Y-14354222D01*
X6328801Y-14354222D02*
X6328801Y-14458984D01*
X6328801Y-14354222D02*
X6338324Y-14335174D01*
X6338324Y-14335174D02*
X6357372Y-14325650D01*
X6357372Y-14325650D02*
X6385943Y-14325650D01*
X6385943Y-14325650D02*
X6404991Y-14335174D01*
X6404991Y-14335174D02*
X6414515Y-14354222D01*
X6414515Y-14354222D02*
X6414515Y-14458984D01*
X6804991Y-14249460D02*
X6633563Y-14506603D01*
X7062134Y-14258984D02*
X7081182Y-14258984D01*
X7081182Y-14258984D02*
X7100229Y-14268508D01*
X7100229Y-14268508D02*
X7109753Y-14278031D01*
X7109753Y-14278031D02*
X7119277Y-14297079D01*
X7119277Y-14297079D02*
X7128801Y-14335174D01*
X7128801Y-14335174D02*
X7128801Y-14382793D01*
X7128801Y-14382793D02*
X7119277Y-14420888D01*
X7119277Y-14420888D02*
X7109753Y-14439936D01*
X7109753Y-14439936D02*
X7100229Y-14449460D01*
X7100229Y-14449460D02*
X7081182Y-14458984D01*
X7081182Y-14458984D02*
X7062134Y-14458984D01*
X7062134Y-14458984D02*
X7043086Y-14449460D01*
X7043086Y-14449460D02*
X7033563Y-14439936D01*
X7033563Y-14439936D02*
X7024039Y-14420888D01*
X7024039Y-14420888D02*
X7014515Y-14382793D01*
X7014515Y-14382793D02*
X7014515Y-14335174D01*
X7014515Y-14335174D02*
X7024039Y-14297079D01*
X7024039Y-14297079D02*
X7033563Y-14278031D01*
X7033563Y-14278031D02*
X7043086Y-14268508D01*
X7043086Y-14268508D02*
X7062134Y-14258984D01*
X7214515Y-14439936D02*
X7224039Y-14449460D01*
X7224039Y-14449460D02*
X7214515Y-14458984D01*
X7214515Y-14458984D02*
X7204991Y-14449460D01*
X7204991Y-14449460D02*
X7214515Y-14439936D01*
X7214515Y-14439936D02*
X7214515Y-14458984D01*
X7347848Y-14258984D02*
X7366896Y-14258984D01*
X7366896Y-14258984D02*
X7385944Y-14268508D01*
X7385944Y-14268508D02*
X7395467Y-14278031D01*
X7395467Y-14278031D02*
X7404991Y-14297079D01*
X7404991Y-14297079D02*
X7414515Y-14335174D01*
X7414515Y-14335174D02*
X7414515Y-14382793D01*
X7414515Y-14382793D02*
X7404991Y-14420888D01*
X7404991Y-14420888D02*
X7395467Y-14439936D01*
X7395467Y-14439936D02*
X7385944Y-14449460D01*
X7385944Y-14449460D02*
X7366896Y-14458984D01*
X7366896Y-14458984D02*
X7347848Y-14458984D01*
X7347848Y-14458984D02*
X7328801Y-14449460D01*
X7328801Y-14449460D02*
X7319277Y-14439936D01*
X7319277Y-14439936D02*
X7309753Y-14420888D01*
X7309753Y-14420888D02*
X7300229Y-14382793D01*
X7300229Y-14382793D02*
X7300229Y-14335174D01*
X7300229Y-14335174D02*
X7309753Y-14297079D01*
X7309753Y-14297079D02*
X7319277Y-14278031D01*
X7319277Y-14278031D02*
X7328801Y-14268508D01*
X7328801Y-14268508D02*
X7347848Y-14258984D01*
X7604991Y-14458984D02*
X7490706Y-14458984D01*
X7547848Y-14458984D02*
X7547848Y-14258984D01*
X7547848Y-14258984D02*
X7528801Y-14287555D01*
X7528801Y-14287555D02*
X7509753Y-14306603D01*
X7509753Y-14306603D02*
X7490706Y-14316127D01*
X7795467Y-14458984D02*
X7681182Y-14458984D01*
X7738325Y-14458984D02*
X7738325Y-14258984D01*
X7738325Y-14258984D02*
X7719277Y-14287555D01*
X7719277Y-14287555D02*
X7700229Y-14306603D01*
X7700229Y-14306603D02*
X7681182Y-14316127D01*
X7909753Y-14344698D02*
X7890706Y-14335174D01*
X7890706Y-14335174D02*
X7881182Y-14325650D01*
X7881182Y-14325650D02*
X7871658Y-14306603D01*
X7871658Y-14306603D02*
X7871658Y-14297079D01*
X7871658Y-14297079D02*
X7881182Y-14278031D01*
X7881182Y-14278031D02*
X7890706Y-14268508D01*
X7890706Y-14268508D02*
X7909753Y-14258984D01*
X7909753Y-14258984D02*
X7947848Y-14258984D01*
X7947848Y-14258984D02*
X7966896Y-14268508D01*
X7966896Y-14268508D02*
X7976420Y-14278031D01*
X7976420Y-14278031D02*
X7985944Y-14297079D01*
X7985944Y-14297079D02*
X7985944Y-14306603D01*
X7985944Y-14306603D02*
X7976420Y-14325650D01*
X7976420Y-14325650D02*
X7966896Y-14335174D01*
X7966896Y-14335174D02*
X7947848Y-14344698D01*
X7947848Y-14344698D02*
X7909753Y-14344698D01*
X7909753Y-14344698D02*
X7890706Y-14354222D01*
X7890706Y-14354222D02*
X7881182Y-14363746D01*
X7881182Y-14363746D02*
X7871658Y-14382793D01*
X7871658Y-14382793D02*
X7871658Y-14420888D01*
X7871658Y-14420888D02*
X7881182Y-14439936D01*
X7881182Y-14439936D02*
X7890706Y-14449460D01*
X7890706Y-14449460D02*
X7909753Y-14458984D01*
X7909753Y-14458984D02*
X7947848Y-14458984D01*
X7947848Y-14458984D02*
X7966896Y-14449460D01*
X7966896Y-14449460D02*
X7976420Y-14439936D01*
X7976420Y-14439936D02*
X7985944Y-14420888D01*
X7985944Y-14420888D02*
X7985944Y-14382793D01*
X7985944Y-14382793D02*
X7976420Y-14363746D01*
X7976420Y-14363746D02*
X7966896Y-14354222D01*
X7966896Y-14354222D02*
X7947848Y-14344698D01*
X8062134Y-14258984D02*
X8062134Y-14297079D01*
X8138325Y-14258984D02*
X8138325Y-14297079D01*
X8433563Y-14535174D02*
X8424039Y-14525650D01*
X8424039Y-14525650D02*
X8404991Y-14497079D01*
X8404991Y-14497079D02*
X8395468Y-14478031D01*
X8395468Y-14478031D02*
X8385944Y-14449460D01*
X8385944Y-14449460D02*
X8376420Y-14401841D01*
X8376420Y-14401841D02*
X8376420Y-14363746D01*
X8376420Y-14363746D02*
X8385944Y-14316127D01*
X8385944Y-14316127D02*
X8395468Y-14287555D01*
X8395468Y-14287555D02*
X8404991Y-14268508D01*
X8404991Y-14268508D02*
X8424039Y-14239936D01*
X8424039Y-14239936D02*
X8433563Y-14230412D01*
X8614515Y-14458984D02*
X8500230Y-14458984D01*
X8557372Y-14458984D02*
X8557372Y-14258984D01*
X8557372Y-14258984D02*
X8538325Y-14287555D01*
X8538325Y-14287555D02*
X8519277Y-14306603D01*
X8519277Y-14306603D02*
X8500230Y-14316127D01*
X8728801Y-14344698D02*
X8709753Y-14335174D01*
X8709753Y-14335174D02*
X8700230Y-14325650D01*
X8700230Y-14325650D02*
X8690706Y-14306603D01*
X8690706Y-14306603D02*
X8690706Y-14297079D01*
X8690706Y-14297079D02*
X8700230Y-14278031D01*
X8700230Y-14278031D02*
X8709753Y-14268508D01*
X8709753Y-14268508D02*
X8728801Y-14258984D01*
X8728801Y-14258984D02*
X8766896Y-14258984D01*
X8766896Y-14258984D02*
X8785944Y-14268508D01*
X8785944Y-14268508D02*
X8795468Y-14278031D01*
X8795468Y-14278031D02*
X8804991Y-14297079D01*
X8804991Y-14297079D02*
X8804991Y-14306603D01*
X8804991Y-14306603D02*
X8795468Y-14325650D01*
X8795468Y-14325650D02*
X8785944Y-14335174D01*
X8785944Y-14335174D02*
X8766896Y-14344698D01*
X8766896Y-14344698D02*
X8728801Y-14344698D01*
X8728801Y-14344698D02*
X8709753Y-14354222D01*
X8709753Y-14354222D02*
X8700230Y-14363746D01*
X8700230Y-14363746D02*
X8690706Y-14382793D01*
X8690706Y-14382793D02*
X8690706Y-14420888D01*
X8690706Y-14420888D02*
X8700230Y-14439936D01*
X8700230Y-14439936D02*
X8709753Y-14449460D01*
X8709753Y-14449460D02*
X8728801Y-14458984D01*
X8728801Y-14458984D02*
X8766896Y-14458984D01*
X8766896Y-14458984D02*
X8785944Y-14449460D01*
X8785944Y-14449460D02*
X8795468Y-14439936D01*
X8795468Y-14439936D02*
X8804991Y-14420888D01*
X8804991Y-14420888D02*
X8804991Y-14382793D01*
X8804991Y-14382793D02*
X8795468Y-14363746D01*
X8795468Y-14363746D02*
X8785944Y-14354222D01*
X8785944Y-14354222D02*
X8766896Y-14344698D01*
X8919277Y-14344698D02*
X8900230Y-14335174D01*
X8900230Y-14335174D02*
X8890706Y-14325650D01*
X8890706Y-14325650D02*
X8881182Y-14306603D01*
X8881182Y-14306603D02*
X8881182Y-14297079D01*
X8881182Y-14297079D02*
X8890706Y-14278031D01*
X8890706Y-14278031D02*
X8900230Y-14268508D01*
X8900230Y-14268508D02*
X8919277Y-14258984D01*
X8919277Y-14258984D02*
X8957372Y-14258984D01*
X8957372Y-14258984D02*
X8976420Y-14268508D01*
X8976420Y-14268508D02*
X8985944Y-14278031D01*
X8985944Y-14278031D02*
X8995468Y-14297079D01*
X8995468Y-14297079D02*
X8995468Y-14306603D01*
X8995468Y-14306603D02*
X8985944Y-14325650D01*
X8985944Y-14325650D02*
X8976420Y-14335174D01*
X8976420Y-14335174D02*
X8957372Y-14344698D01*
X8957372Y-14344698D02*
X8919277Y-14344698D01*
X8919277Y-14344698D02*
X8900230Y-14354222D01*
X8900230Y-14354222D02*
X8890706Y-14363746D01*
X8890706Y-14363746D02*
X8881182Y-14382793D01*
X8881182Y-14382793D02*
X8881182Y-14420888D01*
X8881182Y-14420888D02*
X8890706Y-14439936D01*
X8890706Y-14439936D02*
X8900230Y-14449460D01*
X8900230Y-14449460D02*
X8919277Y-14458984D01*
X8919277Y-14458984D02*
X8957372Y-14458984D01*
X8957372Y-14458984D02*
X8976420Y-14449460D01*
X8976420Y-14449460D02*
X8985944Y-14439936D01*
X8985944Y-14439936D02*
X8995468Y-14420888D01*
X8995468Y-14420888D02*
X8995468Y-14382793D01*
X8995468Y-14382793D02*
X8985944Y-14363746D01*
X8985944Y-14363746D02*
X8976420Y-14354222D01*
X8976420Y-14354222D02*
X8957372Y-14344698D01*
X9233563Y-14458984D02*
X9233563Y-14258984D01*
X9319277Y-14458984D02*
X9319277Y-14354222D01*
X9319277Y-14354222D02*
X9309753Y-14335174D01*
X9309753Y-14335174D02*
X9290706Y-14325650D01*
X9290706Y-14325650D02*
X9262134Y-14325650D01*
X9262134Y-14325650D02*
X9243087Y-14335174D01*
X9243087Y-14335174D02*
X9233563Y-14344698D01*
X9443087Y-14458984D02*
X9424039Y-14449460D01*
X9424039Y-14449460D02*
X9414515Y-14439936D01*
X9414515Y-14439936D02*
X9404992Y-14420888D01*
X9404992Y-14420888D02*
X9404992Y-14363746D01*
X9404992Y-14363746D02*
X9414515Y-14344698D01*
X9414515Y-14344698D02*
X9424039Y-14335174D01*
X9424039Y-14335174D02*
X9443087Y-14325650D01*
X9443087Y-14325650D02*
X9471658Y-14325650D01*
X9471658Y-14325650D02*
X9490706Y-14335174D01*
X9490706Y-14335174D02*
X9500230Y-14344698D01*
X9500230Y-14344698D02*
X9509753Y-14363746D01*
X9509753Y-14363746D02*
X9509753Y-14420888D01*
X9509753Y-14420888D02*
X9500230Y-14439936D01*
X9500230Y-14439936D02*
X9490706Y-14449460D01*
X9490706Y-14449460D02*
X9471658Y-14458984D01*
X9471658Y-14458984D02*
X9443087Y-14458984D01*
X9624039Y-14458984D02*
X9604992Y-14449460D01*
X9604992Y-14449460D02*
X9595468Y-14430412D01*
X9595468Y-14430412D02*
X9595468Y-14258984D01*
X9776420Y-14449460D02*
X9757373Y-14458984D01*
X9757373Y-14458984D02*
X9719277Y-14458984D01*
X9719277Y-14458984D02*
X9700230Y-14449460D01*
X9700230Y-14449460D02*
X9690706Y-14430412D01*
X9690706Y-14430412D02*
X9690706Y-14354222D01*
X9690706Y-14354222D02*
X9700230Y-14335174D01*
X9700230Y-14335174D02*
X9719277Y-14325650D01*
X9719277Y-14325650D02*
X9757373Y-14325650D01*
X9757373Y-14325650D02*
X9776420Y-14335174D01*
X9776420Y-14335174D02*
X9785944Y-14354222D01*
X9785944Y-14354222D02*
X9785944Y-14373269D01*
X9785944Y-14373269D02*
X9690706Y-14392317D01*
X9862134Y-14449460D02*
X9881182Y-14458984D01*
X9881182Y-14458984D02*
X9919277Y-14458984D01*
X9919277Y-14458984D02*
X9938325Y-14449460D01*
X9938325Y-14449460D02*
X9947849Y-14430412D01*
X9947849Y-14430412D02*
X9947849Y-14420888D01*
X9947849Y-14420888D02*
X9938325Y-14401841D01*
X9938325Y-14401841D02*
X9919277Y-14392317D01*
X9919277Y-14392317D02*
X9890706Y-14392317D01*
X9890706Y-14392317D02*
X9871658Y-14382793D01*
X9871658Y-14382793D02*
X9862134Y-14363746D01*
X9862134Y-14363746D02*
X9862134Y-14354222D01*
X9862134Y-14354222D02*
X9871658Y-14335174D01*
X9871658Y-14335174D02*
X9890706Y-14325650D01*
X9890706Y-14325650D02*
X9919277Y-14325650D01*
X9919277Y-14325650D02*
X9938325Y-14335174D01*
X10014515Y-14535174D02*
X10024039Y-14525650D01*
X10024039Y-14525650D02*
X10043087Y-14497079D01*
X10043087Y-14497079D02*
X10052611Y-14478031D01*
X10052611Y-14478031D02*
X10062134Y-14449460D01*
X10062134Y-14449460D02*
X10071658Y-14401841D01*
X10071658Y-14401841D02*
X10071658Y-14363746D01*
X10071658Y-14363746D02*
X10062134Y-14316127D01*
X10062134Y-14316127D02*
X10052611Y-14287555D01*
X10052611Y-14287555D02*
X10043087Y-14268508D01*
X10043087Y-14268508D02*
X10024039Y-14239936D01*
X10024039Y-14239936D02*
X10014515Y-14230412D01*
D12*
X4858500Y-14631500D02*
G75*
G02*
X4828500Y-14631500I-15000J0D01*
G01*
X4828500Y-14631500D02*
G75*
G02*
X4858500Y-14631500I15000J0D01*
G01*
D11*
X5157372Y-14522984D02*
X5176420Y-14522984D01*
X5176420Y-14522984D02*
X5195467Y-14532508D01*
X5195467Y-14532508D02*
X5204991Y-14542031D01*
X5204991Y-14542031D02*
X5214515Y-14561079D01*
X5214515Y-14561079D02*
X5224039Y-14599174D01*
X5224039Y-14599174D02*
X5224039Y-14646793D01*
X5224039Y-14646793D02*
X5214515Y-14684888D01*
X5214515Y-14684888D02*
X5204991Y-14703936D01*
X5204991Y-14703936D02*
X5195467Y-14713460D01*
X5195467Y-14713460D02*
X5176420Y-14722984D01*
X5176420Y-14722984D02*
X5157372Y-14722984D01*
X5157372Y-14722984D02*
X5138324Y-14713460D01*
X5138324Y-14713460D02*
X5128801Y-14703936D01*
X5128801Y-14703936D02*
X5119277Y-14684888D01*
X5119277Y-14684888D02*
X5109753Y-14646793D01*
X5109753Y-14646793D02*
X5109753Y-14599174D01*
X5109753Y-14599174D02*
X5119277Y-14561079D01*
X5119277Y-14561079D02*
X5128801Y-14542031D01*
X5128801Y-14542031D02*
X5138324Y-14532508D01*
X5138324Y-14532508D02*
X5157372Y-14522984D01*
X5309753Y-14703936D02*
X5319277Y-14713460D01*
X5319277Y-14713460D02*
X5309753Y-14722984D01*
X5309753Y-14722984D02*
X5300229Y-14713460D01*
X5300229Y-14713460D02*
X5309753Y-14703936D01*
X5309753Y-14703936D02*
X5309753Y-14722984D01*
X5385944Y-14522984D02*
X5509753Y-14522984D01*
X5509753Y-14522984D02*
X5443086Y-14599174D01*
X5443086Y-14599174D02*
X5471658Y-14599174D01*
X5471658Y-14599174D02*
X5490705Y-14608698D01*
X5490705Y-14608698D02*
X5500229Y-14618222D01*
X5500229Y-14618222D02*
X5509753Y-14637269D01*
X5509753Y-14637269D02*
X5509753Y-14684888D01*
X5509753Y-14684888D02*
X5500229Y-14703936D01*
X5500229Y-14703936D02*
X5490705Y-14713460D01*
X5490705Y-14713460D02*
X5471658Y-14722984D01*
X5471658Y-14722984D02*
X5414515Y-14722984D01*
X5414515Y-14722984D02*
X5395467Y-14713460D01*
X5395467Y-14713460D02*
X5385944Y-14703936D01*
X5633562Y-14522984D02*
X5652610Y-14522984D01*
X5652610Y-14522984D02*
X5671658Y-14532508D01*
X5671658Y-14532508D02*
X5681182Y-14542031D01*
X5681182Y-14542031D02*
X5690705Y-14561079D01*
X5690705Y-14561079D02*
X5700229Y-14599174D01*
X5700229Y-14599174D02*
X5700229Y-14646793D01*
X5700229Y-14646793D02*
X5690705Y-14684888D01*
X5690705Y-14684888D02*
X5681182Y-14703936D01*
X5681182Y-14703936D02*
X5671658Y-14713460D01*
X5671658Y-14713460D02*
X5652610Y-14722984D01*
X5652610Y-14722984D02*
X5633562Y-14722984D01*
X5633562Y-14722984D02*
X5614515Y-14713460D01*
X5614515Y-14713460D02*
X5604991Y-14703936D01*
X5604991Y-14703936D02*
X5595467Y-14684888D01*
X5595467Y-14684888D02*
X5585944Y-14646793D01*
X5585944Y-14646793D02*
X5585944Y-14599174D01*
X5585944Y-14599174D02*
X5595467Y-14561079D01*
X5595467Y-14561079D02*
X5604991Y-14542031D01*
X5604991Y-14542031D02*
X5614515Y-14532508D01*
X5614515Y-14532508D02*
X5633562Y-14522984D01*
X5824039Y-14522984D02*
X5843086Y-14522984D01*
X5843086Y-14522984D02*
X5862134Y-14532508D01*
X5862134Y-14532508D02*
X5871658Y-14542031D01*
X5871658Y-14542031D02*
X5881182Y-14561079D01*
X5881182Y-14561079D02*
X5890705Y-14599174D01*
X5890705Y-14599174D02*
X5890705Y-14646793D01*
X5890705Y-14646793D02*
X5881182Y-14684888D01*
X5881182Y-14684888D02*
X5871658Y-14703936D01*
X5871658Y-14703936D02*
X5862134Y-14713460D01*
X5862134Y-14713460D02*
X5843086Y-14722984D01*
X5843086Y-14722984D02*
X5824039Y-14722984D01*
X5824039Y-14722984D02*
X5804991Y-14713460D01*
X5804991Y-14713460D02*
X5795467Y-14703936D01*
X5795467Y-14703936D02*
X5785943Y-14684888D01*
X5785943Y-14684888D02*
X5776420Y-14646793D01*
X5776420Y-14646793D02*
X5776420Y-14599174D01*
X5776420Y-14599174D02*
X5785943Y-14561079D01*
X5785943Y-14561079D02*
X5795467Y-14542031D01*
X5795467Y-14542031D02*
X5804991Y-14532508D01*
X5804991Y-14532508D02*
X5824039Y-14522984D01*
X5976420Y-14722984D02*
X5976420Y-14589650D01*
X5976420Y-14608698D02*
X5985943Y-14599174D01*
X5985943Y-14599174D02*
X6004991Y-14589650D01*
X6004991Y-14589650D02*
X6033563Y-14589650D01*
X6033563Y-14589650D02*
X6052610Y-14599174D01*
X6052610Y-14599174D02*
X6062134Y-14618222D01*
X6062134Y-14618222D02*
X6062134Y-14722984D01*
X6062134Y-14618222D02*
X6071658Y-14599174D01*
X6071658Y-14599174D02*
X6090705Y-14589650D01*
X6090705Y-14589650D02*
X6119277Y-14589650D01*
X6119277Y-14589650D02*
X6138324Y-14599174D01*
X6138324Y-14599174D02*
X6147848Y-14618222D01*
X6147848Y-14618222D02*
X6147848Y-14722984D01*
X6243086Y-14722984D02*
X6243086Y-14589650D01*
X6243086Y-14608698D02*
X6252610Y-14599174D01*
X6252610Y-14599174D02*
X6271658Y-14589650D01*
X6271658Y-14589650D02*
X6300229Y-14589650D01*
X6300229Y-14589650D02*
X6319277Y-14599174D01*
X6319277Y-14599174D02*
X6328801Y-14618222D01*
X6328801Y-14618222D02*
X6328801Y-14722984D01*
X6328801Y-14618222D02*
X6338324Y-14599174D01*
X6338324Y-14599174D02*
X6357372Y-14589650D01*
X6357372Y-14589650D02*
X6385943Y-14589650D01*
X6385943Y-14589650D02*
X6404991Y-14599174D01*
X6404991Y-14599174D02*
X6414515Y-14618222D01*
X6414515Y-14618222D02*
X6414515Y-14722984D01*
X6804991Y-14513460D02*
X6633563Y-14770603D01*
X7062134Y-14522984D02*
X7081182Y-14522984D01*
X7081182Y-14522984D02*
X7100229Y-14532508D01*
X7100229Y-14532508D02*
X7109753Y-14542031D01*
X7109753Y-14542031D02*
X7119277Y-14561079D01*
X7119277Y-14561079D02*
X7128801Y-14599174D01*
X7128801Y-14599174D02*
X7128801Y-14646793D01*
X7128801Y-14646793D02*
X7119277Y-14684888D01*
X7119277Y-14684888D02*
X7109753Y-14703936D01*
X7109753Y-14703936D02*
X7100229Y-14713460D01*
X7100229Y-14713460D02*
X7081182Y-14722984D01*
X7081182Y-14722984D02*
X7062134Y-14722984D01*
X7062134Y-14722984D02*
X7043086Y-14713460D01*
X7043086Y-14713460D02*
X7033563Y-14703936D01*
X7033563Y-14703936D02*
X7024039Y-14684888D01*
X7024039Y-14684888D02*
X7014515Y-14646793D01*
X7014515Y-14646793D02*
X7014515Y-14599174D01*
X7014515Y-14599174D02*
X7024039Y-14561079D01*
X7024039Y-14561079D02*
X7033563Y-14542031D01*
X7033563Y-14542031D02*
X7043086Y-14532508D01*
X7043086Y-14532508D02*
X7062134Y-14522984D01*
X7214515Y-14703936D02*
X7224039Y-14713460D01*
X7224039Y-14713460D02*
X7214515Y-14722984D01*
X7214515Y-14722984D02*
X7204991Y-14713460D01*
X7204991Y-14713460D02*
X7214515Y-14703936D01*
X7214515Y-14703936D02*
X7214515Y-14722984D01*
X7347848Y-14522984D02*
X7366896Y-14522984D01*
X7366896Y-14522984D02*
X7385944Y-14532508D01*
X7385944Y-14532508D02*
X7395467Y-14542031D01*
X7395467Y-14542031D02*
X7404991Y-14561079D01*
X7404991Y-14561079D02*
X7414515Y-14599174D01*
X7414515Y-14599174D02*
X7414515Y-14646793D01*
X7414515Y-14646793D02*
X7404991Y-14684888D01*
X7404991Y-14684888D02*
X7395467Y-14703936D01*
X7395467Y-14703936D02*
X7385944Y-14713460D01*
X7385944Y-14713460D02*
X7366896Y-14722984D01*
X7366896Y-14722984D02*
X7347848Y-14722984D01*
X7347848Y-14722984D02*
X7328801Y-14713460D01*
X7328801Y-14713460D02*
X7319277Y-14703936D01*
X7319277Y-14703936D02*
X7309753Y-14684888D01*
X7309753Y-14684888D02*
X7300229Y-14646793D01*
X7300229Y-14646793D02*
X7300229Y-14599174D01*
X7300229Y-14599174D02*
X7309753Y-14561079D01*
X7309753Y-14561079D02*
X7319277Y-14542031D01*
X7319277Y-14542031D02*
X7328801Y-14532508D01*
X7328801Y-14532508D02*
X7347848Y-14522984D01*
X7604991Y-14722984D02*
X7490706Y-14722984D01*
X7547848Y-14722984D02*
X7547848Y-14522984D01*
X7547848Y-14522984D02*
X7528801Y-14551555D01*
X7528801Y-14551555D02*
X7509753Y-14570603D01*
X7509753Y-14570603D02*
X7490706Y-14580127D01*
X7795467Y-14722984D02*
X7681182Y-14722984D01*
X7738325Y-14722984D02*
X7738325Y-14522984D01*
X7738325Y-14522984D02*
X7719277Y-14551555D01*
X7719277Y-14551555D02*
X7700229Y-14570603D01*
X7700229Y-14570603D02*
X7681182Y-14580127D01*
X7909753Y-14608698D02*
X7890706Y-14599174D01*
X7890706Y-14599174D02*
X7881182Y-14589650D01*
X7881182Y-14589650D02*
X7871658Y-14570603D01*
X7871658Y-14570603D02*
X7871658Y-14561079D01*
X7871658Y-14561079D02*
X7881182Y-14542031D01*
X7881182Y-14542031D02*
X7890706Y-14532508D01*
X7890706Y-14532508D02*
X7909753Y-14522984D01*
X7909753Y-14522984D02*
X7947848Y-14522984D01*
X7947848Y-14522984D02*
X7966896Y-14532508D01*
X7966896Y-14532508D02*
X7976420Y-14542031D01*
X7976420Y-14542031D02*
X7985944Y-14561079D01*
X7985944Y-14561079D02*
X7985944Y-14570603D01*
X7985944Y-14570603D02*
X7976420Y-14589650D01*
X7976420Y-14589650D02*
X7966896Y-14599174D01*
X7966896Y-14599174D02*
X7947848Y-14608698D01*
X7947848Y-14608698D02*
X7909753Y-14608698D01*
X7909753Y-14608698D02*
X7890706Y-14618222D01*
X7890706Y-14618222D02*
X7881182Y-14627746D01*
X7881182Y-14627746D02*
X7871658Y-14646793D01*
X7871658Y-14646793D02*
X7871658Y-14684888D01*
X7871658Y-14684888D02*
X7881182Y-14703936D01*
X7881182Y-14703936D02*
X7890706Y-14713460D01*
X7890706Y-14713460D02*
X7909753Y-14722984D01*
X7909753Y-14722984D02*
X7947848Y-14722984D01*
X7947848Y-14722984D02*
X7966896Y-14713460D01*
X7966896Y-14713460D02*
X7976420Y-14703936D01*
X7976420Y-14703936D02*
X7985944Y-14684888D01*
X7985944Y-14684888D02*
X7985944Y-14646793D01*
X7985944Y-14646793D02*
X7976420Y-14627746D01*
X7976420Y-14627746D02*
X7966896Y-14618222D01*
X7966896Y-14618222D02*
X7947848Y-14608698D01*
X8062134Y-14522984D02*
X8062134Y-14561079D01*
X8138325Y-14522984D02*
X8138325Y-14561079D01*
X8433563Y-14799174D02*
X8424039Y-14789650D01*
X8424039Y-14789650D02*
X8404991Y-14761079D01*
X8404991Y-14761079D02*
X8395468Y-14742031D01*
X8395468Y-14742031D02*
X8385944Y-14713460D01*
X8385944Y-14713460D02*
X8376420Y-14665841D01*
X8376420Y-14665841D02*
X8376420Y-14627746D01*
X8376420Y-14627746D02*
X8385944Y-14580127D01*
X8385944Y-14580127D02*
X8395468Y-14551555D01*
X8395468Y-14551555D02*
X8404991Y-14532508D01*
X8404991Y-14532508D02*
X8424039Y-14503936D01*
X8424039Y-14503936D02*
X8433563Y-14494412D01*
X8595468Y-14522984D02*
X8557372Y-14522984D01*
X8557372Y-14522984D02*
X8538325Y-14532508D01*
X8538325Y-14532508D02*
X8528801Y-14542031D01*
X8528801Y-14542031D02*
X8509753Y-14570603D01*
X8509753Y-14570603D02*
X8500230Y-14608698D01*
X8500230Y-14608698D02*
X8500230Y-14684888D01*
X8500230Y-14684888D02*
X8509753Y-14703936D01*
X8509753Y-14703936D02*
X8519277Y-14713460D01*
X8519277Y-14713460D02*
X8538325Y-14722984D01*
X8538325Y-14722984D02*
X8576420Y-14722984D01*
X8576420Y-14722984D02*
X8595468Y-14713460D01*
X8595468Y-14713460D02*
X8604991Y-14703936D01*
X8604991Y-14703936D02*
X8614515Y-14684888D01*
X8614515Y-14684888D02*
X8614515Y-14637269D01*
X8614515Y-14637269D02*
X8604991Y-14618222D01*
X8604991Y-14618222D02*
X8595468Y-14608698D01*
X8595468Y-14608698D02*
X8576420Y-14599174D01*
X8576420Y-14599174D02*
X8538325Y-14599174D01*
X8538325Y-14599174D02*
X8519277Y-14608698D01*
X8519277Y-14608698D02*
X8509753Y-14618222D01*
X8509753Y-14618222D02*
X8500230Y-14637269D01*
X8852611Y-14722984D02*
X8852611Y-14522984D01*
X8938325Y-14722984D02*
X8938325Y-14618222D01*
X8938325Y-14618222D02*
X8928801Y-14599174D01*
X8928801Y-14599174D02*
X8909753Y-14589650D01*
X8909753Y-14589650D02*
X8881182Y-14589650D01*
X8881182Y-14589650D02*
X8862134Y-14599174D01*
X8862134Y-14599174D02*
X8852611Y-14608698D01*
X9062134Y-14722984D02*
X9043087Y-14713460D01*
X9043087Y-14713460D02*
X9033563Y-14703936D01*
X9033563Y-14703936D02*
X9024039Y-14684888D01*
X9024039Y-14684888D02*
X9024039Y-14627746D01*
X9024039Y-14627746D02*
X9033563Y-14608698D01*
X9033563Y-14608698D02*
X9043087Y-14599174D01*
X9043087Y-14599174D02*
X9062134Y-14589650D01*
X9062134Y-14589650D02*
X9090706Y-14589650D01*
X9090706Y-14589650D02*
X9109753Y-14599174D01*
X9109753Y-14599174D02*
X9119277Y-14608698D01*
X9119277Y-14608698D02*
X9128801Y-14627746D01*
X9128801Y-14627746D02*
X9128801Y-14684888D01*
X9128801Y-14684888D02*
X9119277Y-14703936D01*
X9119277Y-14703936D02*
X9109753Y-14713460D01*
X9109753Y-14713460D02*
X9090706Y-14722984D01*
X9090706Y-14722984D02*
X9062134Y-14722984D01*
X9243087Y-14722984D02*
X9224039Y-14713460D01*
X9224039Y-14713460D02*
X9214515Y-14694412D01*
X9214515Y-14694412D02*
X9214515Y-14522984D01*
X9395468Y-14713460D02*
X9376420Y-14722984D01*
X9376420Y-14722984D02*
X9338325Y-14722984D01*
X9338325Y-14722984D02*
X9319277Y-14713460D01*
X9319277Y-14713460D02*
X9309753Y-14694412D01*
X9309753Y-14694412D02*
X9309753Y-14618222D01*
X9309753Y-14618222D02*
X9319277Y-14599174D01*
X9319277Y-14599174D02*
X9338325Y-14589650D01*
X9338325Y-14589650D02*
X9376420Y-14589650D01*
X9376420Y-14589650D02*
X9395468Y-14599174D01*
X9395468Y-14599174D02*
X9404992Y-14618222D01*
X9404992Y-14618222D02*
X9404992Y-14637269D01*
X9404992Y-14637269D02*
X9309753Y-14656317D01*
X9481182Y-14713460D02*
X9500230Y-14722984D01*
X9500230Y-14722984D02*
X9538325Y-14722984D01*
X9538325Y-14722984D02*
X9557373Y-14713460D01*
X9557373Y-14713460D02*
X9566896Y-14694412D01*
X9566896Y-14694412D02*
X9566896Y-14684888D01*
X9566896Y-14684888D02*
X9557373Y-14665841D01*
X9557373Y-14665841D02*
X9538325Y-14656317D01*
X9538325Y-14656317D02*
X9509753Y-14656317D01*
X9509753Y-14656317D02*
X9490706Y-14646793D01*
X9490706Y-14646793D02*
X9481182Y-14627746D01*
X9481182Y-14627746D02*
X9481182Y-14618222D01*
X9481182Y-14618222D02*
X9490706Y-14599174D01*
X9490706Y-14599174D02*
X9509753Y-14589650D01*
X9509753Y-14589650D02*
X9538325Y-14589650D01*
X9538325Y-14589650D02*
X9557373Y-14599174D01*
X9633563Y-14799174D02*
X9643087Y-14789650D01*
X9643087Y-14789650D02*
X9662134Y-14761079D01*
X9662134Y-14761079D02*
X9671658Y-14742031D01*
X9671658Y-14742031D02*
X9681182Y-14713460D01*
X9681182Y-14713460D02*
X9690706Y-14665841D01*
X9690706Y-14665841D02*
X9690706Y-14627746D01*
X9690706Y-14627746D02*
X9681182Y-14580127D01*
X9681182Y-14580127D02*
X9671658Y-14551555D01*
X9671658Y-14551555D02*
X9662134Y-14532508D01*
X9662134Y-14532508D02*
X9643087Y-14503936D01*
X9643087Y-14503936D02*
X9633563Y-14494412D01*
D12*
X4828500Y-14865500D02*
X4828500Y-14925500D01*
X4798500Y-14895500D02*
X4858500Y-14895500D01*
D11*
X5157372Y-14786984D02*
X5176420Y-14786984D01*
X5176420Y-14786984D02*
X5195467Y-14796508D01*
X5195467Y-14796508D02*
X5204991Y-14806031D01*
X5204991Y-14806031D02*
X5214515Y-14825079D01*
X5214515Y-14825079D02*
X5224039Y-14863174D01*
X5224039Y-14863174D02*
X5224039Y-14910793D01*
X5224039Y-14910793D02*
X5214515Y-14948888D01*
X5214515Y-14948888D02*
X5204991Y-14967936D01*
X5204991Y-14967936D02*
X5195467Y-14977460D01*
X5195467Y-14977460D02*
X5176420Y-14986984D01*
X5176420Y-14986984D02*
X5157372Y-14986984D01*
X5157372Y-14986984D02*
X5138324Y-14977460D01*
X5138324Y-14977460D02*
X5128801Y-14967936D01*
X5128801Y-14967936D02*
X5119277Y-14948888D01*
X5119277Y-14948888D02*
X5109753Y-14910793D01*
X5109753Y-14910793D02*
X5109753Y-14863174D01*
X5109753Y-14863174D02*
X5119277Y-14825079D01*
X5119277Y-14825079D02*
X5128801Y-14806031D01*
X5128801Y-14806031D02*
X5138324Y-14796508D01*
X5138324Y-14796508D02*
X5157372Y-14786984D01*
X5309753Y-14967936D02*
X5319277Y-14977460D01*
X5319277Y-14977460D02*
X5309753Y-14986984D01*
X5309753Y-14986984D02*
X5300229Y-14977460D01*
X5300229Y-14977460D02*
X5309753Y-14967936D01*
X5309753Y-14967936D02*
X5309753Y-14986984D01*
X5490705Y-14786984D02*
X5452610Y-14786984D01*
X5452610Y-14786984D02*
X5433563Y-14796508D01*
X5433563Y-14796508D02*
X5424039Y-14806031D01*
X5424039Y-14806031D02*
X5404991Y-14834603D01*
X5404991Y-14834603D02*
X5395467Y-14872698D01*
X5395467Y-14872698D02*
X5395467Y-14948888D01*
X5395467Y-14948888D02*
X5404991Y-14967936D01*
X5404991Y-14967936D02*
X5414515Y-14977460D01*
X5414515Y-14977460D02*
X5433563Y-14986984D01*
X5433563Y-14986984D02*
X5471658Y-14986984D01*
X5471658Y-14986984D02*
X5490705Y-14977460D01*
X5490705Y-14977460D02*
X5500229Y-14967936D01*
X5500229Y-14967936D02*
X5509753Y-14948888D01*
X5509753Y-14948888D02*
X5509753Y-14901269D01*
X5509753Y-14901269D02*
X5500229Y-14882222D01*
X5500229Y-14882222D02*
X5490705Y-14872698D01*
X5490705Y-14872698D02*
X5471658Y-14863174D01*
X5471658Y-14863174D02*
X5433563Y-14863174D01*
X5433563Y-14863174D02*
X5414515Y-14872698D01*
X5414515Y-14872698D02*
X5404991Y-14882222D01*
X5404991Y-14882222D02*
X5395467Y-14901269D01*
X5633562Y-14786984D02*
X5652610Y-14786984D01*
X5652610Y-14786984D02*
X5671658Y-14796508D01*
X5671658Y-14796508D02*
X5681182Y-14806031D01*
X5681182Y-14806031D02*
X5690705Y-14825079D01*
X5690705Y-14825079D02*
X5700229Y-14863174D01*
X5700229Y-14863174D02*
X5700229Y-14910793D01*
X5700229Y-14910793D02*
X5690705Y-14948888D01*
X5690705Y-14948888D02*
X5681182Y-14967936D01*
X5681182Y-14967936D02*
X5671658Y-14977460D01*
X5671658Y-14977460D02*
X5652610Y-14986984D01*
X5652610Y-14986984D02*
X5633562Y-14986984D01*
X5633562Y-14986984D02*
X5614515Y-14977460D01*
X5614515Y-14977460D02*
X5604991Y-14967936D01*
X5604991Y-14967936D02*
X5595467Y-14948888D01*
X5595467Y-14948888D02*
X5585944Y-14910793D01*
X5585944Y-14910793D02*
X5585944Y-14863174D01*
X5585944Y-14863174D02*
X5595467Y-14825079D01*
X5595467Y-14825079D02*
X5604991Y-14806031D01*
X5604991Y-14806031D02*
X5614515Y-14796508D01*
X5614515Y-14796508D02*
X5633562Y-14786984D01*
X5824039Y-14786984D02*
X5843086Y-14786984D01*
X5843086Y-14786984D02*
X5862134Y-14796508D01*
X5862134Y-14796508D02*
X5871658Y-14806031D01*
X5871658Y-14806031D02*
X5881182Y-14825079D01*
X5881182Y-14825079D02*
X5890705Y-14863174D01*
X5890705Y-14863174D02*
X5890705Y-14910793D01*
X5890705Y-14910793D02*
X5881182Y-14948888D01*
X5881182Y-14948888D02*
X5871658Y-14967936D01*
X5871658Y-14967936D02*
X5862134Y-14977460D01*
X5862134Y-14977460D02*
X5843086Y-14986984D01*
X5843086Y-14986984D02*
X5824039Y-14986984D01*
X5824039Y-14986984D02*
X5804991Y-14977460D01*
X5804991Y-14977460D02*
X5795467Y-14967936D01*
X5795467Y-14967936D02*
X5785943Y-14948888D01*
X5785943Y-14948888D02*
X5776420Y-14910793D01*
X5776420Y-14910793D02*
X5776420Y-14863174D01*
X5776420Y-14863174D02*
X5785943Y-14825079D01*
X5785943Y-14825079D02*
X5795467Y-14806031D01*
X5795467Y-14806031D02*
X5804991Y-14796508D01*
X5804991Y-14796508D02*
X5824039Y-14786984D01*
X5976420Y-14986984D02*
X5976420Y-14853650D01*
X5976420Y-14872698D02*
X5985943Y-14863174D01*
X5985943Y-14863174D02*
X6004991Y-14853650D01*
X6004991Y-14853650D02*
X6033563Y-14853650D01*
X6033563Y-14853650D02*
X6052610Y-14863174D01*
X6052610Y-14863174D02*
X6062134Y-14882222D01*
X6062134Y-14882222D02*
X6062134Y-14986984D01*
X6062134Y-14882222D02*
X6071658Y-14863174D01*
X6071658Y-14863174D02*
X6090705Y-14853650D01*
X6090705Y-14853650D02*
X6119277Y-14853650D01*
X6119277Y-14853650D02*
X6138324Y-14863174D01*
X6138324Y-14863174D02*
X6147848Y-14882222D01*
X6147848Y-14882222D02*
X6147848Y-14986984D01*
X6243086Y-14986984D02*
X6243086Y-14853650D01*
X6243086Y-14872698D02*
X6252610Y-14863174D01*
X6252610Y-14863174D02*
X6271658Y-14853650D01*
X6271658Y-14853650D02*
X6300229Y-14853650D01*
X6300229Y-14853650D02*
X6319277Y-14863174D01*
X6319277Y-14863174D02*
X6328801Y-14882222D01*
X6328801Y-14882222D02*
X6328801Y-14986984D01*
X6328801Y-14882222D02*
X6338324Y-14863174D01*
X6338324Y-14863174D02*
X6357372Y-14853650D01*
X6357372Y-14853650D02*
X6385943Y-14853650D01*
X6385943Y-14853650D02*
X6404991Y-14863174D01*
X6404991Y-14863174D02*
X6414515Y-14882222D01*
X6414515Y-14882222D02*
X6414515Y-14986984D01*
X6804991Y-14777460D02*
X6633563Y-15034603D01*
X7062134Y-14786984D02*
X7081182Y-14786984D01*
X7081182Y-14786984D02*
X7100229Y-14796508D01*
X7100229Y-14796508D02*
X7109753Y-14806031D01*
X7109753Y-14806031D02*
X7119277Y-14825079D01*
X7119277Y-14825079D02*
X7128801Y-14863174D01*
X7128801Y-14863174D02*
X7128801Y-14910793D01*
X7128801Y-14910793D02*
X7119277Y-14948888D01*
X7119277Y-14948888D02*
X7109753Y-14967936D01*
X7109753Y-14967936D02*
X7100229Y-14977460D01*
X7100229Y-14977460D02*
X7081182Y-14986984D01*
X7081182Y-14986984D02*
X7062134Y-14986984D01*
X7062134Y-14986984D02*
X7043086Y-14977460D01*
X7043086Y-14977460D02*
X7033563Y-14967936D01*
X7033563Y-14967936D02*
X7024039Y-14948888D01*
X7024039Y-14948888D02*
X7014515Y-14910793D01*
X7014515Y-14910793D02*
X7014515Y-14863174D01*
X7014515Y-14863174D02*
X7024039Y-14825079D01*
X7024039Y-14825079D02*
X7033563Y-14806031D01*
X7033563Y-14806031D02*
X7043086Y-14796508D01*
X7043086Y-14796508D02*
X7062134Y-14786984D01*
X7214515Y-14967936D02*
X7224039Y-14977460D01*
X7224039Y-14977460D02*
X7214515Y-14986984D01*
X7214515Y-14986984D02*
X7204991Y-14977460D01*
X7204991Y-14977460D02*
X7214515Y-14967936D01*
X7214515Y-14967936D02*
X7214515Y-14986984D01*
X7347848Y-14786984D02*
X7366896Y-14786984D01*
X7366896Y-14786984D02*
X7385944Y-14796508D01*
X7385944Y-14796508D02*
X7395467Y-14806031D01*
X7395467Y-14806031D02*
X7404991Y-14825079D01*
X7404991Y-14825079D02*
X7414515Y-14863174D01*
X7414515Y-14863174D02*
X7414515Y-14910793D01*
X7414515Y-14910793D02*
X7404991Y-14948888D01*
X7404991Y-14948888D02*
X7395467Y-14967936D01*
X7395467Y-14967936D02*
X7385944Y-14977460D01*
X7385944Y-14977460D02*
X7366896Y-14986984D01*
X7366896Y-14986984D02*
X7347848Y-14986984D01*
X7347848Y-14986984D02*
X7328801Y-14977460D01*
X7328801Y-14977460D02*
X7319277Y-14967936D01*
X7319277Y-14967936D02*
X7309753Y-14948888D01*
X7309753Y-14948888D02*
X7300229Y-14910793D01*
X7300229Y-14910793D02*
X7300229Y-14863174D01*
X7300229Y-14863174D02*
X7309753Y-14825079D01*
X7309753Y-14825079D02*
X7319277Y-14806031D01*
X7319277Y-14806031D02*
X7328801Y-14796508D01*
X7328801Y-14796508D02*
X7347848Y-14786984D01*
X7490706Y-14806031D02*
X7500229Y-14796508D01*
X7500229Y-14796508D02*
X7519277Y-14786984D01*
X7519277Y-14786984D02*
X7566896Y-14786984D01*
X7566896Y-14786984D02*
X7585944Y-14796508D01*
X7585944Y-14796508D02*
X7595467Y-14806031D01*
X7595467Y-14806031D02*
X7604991Y-14825079D01*
X7604991Y-14825079D02*
X7604991Y-14844127D01*
X7604991Y-14844127D02*
X7595467Y-14872698D01*
X7595467Y-14872698D02*
X7481182Y-14986984D01*
X7481182Y-14986984D02*
X7604991Y-14986984D01*
X7671658Y-14786984D02*
X7795467Y-14786984D01*
X7795467Y-14786984D02*
X7728801Y-14863174D01*
X7728801Y-14863174D02*
X7757372Y-14863174D01*
X7757372Y-14863174D02*
X7776420Y-14872698D01*
X7776420Y-14872698D02*
X7785944Y-14882222D01*
X7785944Y-14882222D02*
X7795467Y-14901269D01*
X7795467Y-14901269D02*
X7795467Y-14948888D01*
X7795467Y-14948888D02*
X7785944Y-14967936D01*
X7785944Y-14967936D02*
X7776420Y-14977460D01*
X7776420Y-14977460D02*
X7757372Y-14986984D01*
X7757372Y-14986984D02*
X7700229Y-14986984D01*
X7700229Y-14986984D02*
X7681182Y-14977460D01*
X7681182Y-14977460D02*
X7671658Y-14967936D01*
X7966896Y-14786984D02*
X7928801Y-14786984D01*
X7928801Y-14786984D02*
X7909753Y-14796508D01*
X7909753Y-14796508D02*
X7900229Y-14806031D01*
X7900229Y-14806031D02*
X7881182Y-14834603D01*
X7881182Y-14834603D02*
X7871658Y-14872698D01*
X7871658Y-14872698D02*
X7871658Y-14948888D01*
X7871658Y-14948888D02*
X7881182Y-14967936D01*
X7881182Y-14967936D02*
X7890706Y-14977460D01*
X7890706Y-14977460D02*
X7909753Y-14986984D01*
X7909753Y-14986984D02*
X7947848Y-14986984D01*
X7947848Y-14986984D02*
X7966896Y-14977460D01*
X7966896Y-14977460D02*
X7976420Y-14967936D01*
X7976420Y-14967936D02*
X7985944Y-14948888D01*
X7985944Y-14948888D02*
X7985944Y-14901269D01*
X7985944Y-14901269D02*
X7976420Y-14882222D01*
X7976420Y-14882222D02*
X7966896Y-14872698D01*
X7966896Y-14872698D02*
X7947848Y-14863174D01*
X7947848Y-14863174D02*
X7909753Y-14863174D01*
X7909753Y-14863174D02*
X7890706Y-14872698D01*
X7890706Y-14872698D02*
X7881182Y-14882222D01*
X7881182Y-14882222D02*
X7871658Y-14901269D01*
X8062134Y-14786984D02*
X8062134Y-14825079D01*
X8138325Y-14786984D02*
X8138325Y-14825079D01*
X8433563Y-15063174D02*
X8424039Y-15053650D01*
X8424039Y-15053650D02*
X8404991Y-15025079D01*
X8404991Y-15025079D02*
X8395468Y-15006031D01*
X8395468Y-15006031D02*
X8385944Y-14977460D01*
X8385944Y-14977460D02*
X8376420Y-14929841D01*
X8376420Y-14929841D02*
X8376420Y-14891746D01*
X8376420Y-14891746D02*
X8385944Y-14844127D01*
X8385944Y-14844127D02*
X8395468Y-14815555D01*
X8395468Y-14815555D02*
X8404991Y-14796508D01*
X8404991Y-14796508D02*
X8424039Y-14767936D01*
X8424039Y-14767936D02*
X8433563Y-14758412D01*
X8490706Y-14786984D02*
X8624039Y-14786984D01*
X8624039Y-14786984D02*
X8538325Y-14986984D01*
X8852611Y-14986984D02*
X8852611Y-14786984D01*
X8938325Y-14986984D02*
X8938325Y-14882222D01*
X8938325Y-14882222D02*
X8928801Y-14863174D01*
X8928801Y-14863174D02*
X8909753Y-14853650D01*
X8909753Y-14853650D02*
X8881182Y-14853650D01*
X8881182Y-14853650D02*
X8862134Y-14863174D01*
X8862134Y-14863174D02*
X8852611Y-14872698D01*
X9062134Y-14986984D02*
X9043087Y-14977460D01*
X9043087Y-14977460D02*
X9033563Y-14967936D01*
X9033563Y-14967936D02*
X9024039Y-14948888D01*
X9024039Y-14948888D02*
X9024039Y-14891746D01*
X9024039Y-14891746D02*
X9033563Y-14872698D01*
X9033563Y-14872698D02*
X9043087Y-14863174D01*
X9043087Y-14863174D02*
X9062134Y-14853650D01*
X9062134Y-14853650D02*
X9090706Y-14853650D01*
X9090706Y-14853650D02*
X9109753Y-14863174D01*
X9109753Y-14863174D02*
X9119277Y-14872698D01*
X9119277Y-14872698D02*
X9128801Y-14891746D01*
X9128801Y-14891746D02*
X9128801Y-14948888D01*
X9128801Y-14948888D02*
X9119277Y-14967936D01*
X9119277Y-14967936D02*
X9109753Y-14977460D01*
X9109753Y-14977460D02*
X9090706Y-14986984D01*
X9090706Y-14986984D02*
X9062134Y-14986984D01*
X9243087Y-14986984D02*
X9224039Y-14977460D01*
X9224039Y-14977460D02*
X9214515Y-14958412D01*
X9214515Y-14958412D02*
X9214515Y-14786984D01*
X9395468Y-14977460D02*
X9376420Y-14986984D01*
X9376420Y-14986984D02*
X9338325Y-14986984D01*
X9338325Y-14986984D02*
X9319277Y-14977460D01*
X9319277Y-14977460D02*
X9309753Y-14958412D01*
X9309753Y-14958412D02*
X9309753Y-14882222D01*
X9309753Y-14882222D02*
X9319277Y-14863174D01*
X9319277Y-14863174D02*
X9338325Y-14853650D01*
X9338325Y-14853650D02*
X9376420Y-14853650D01*
X9376420Y-14853650D02*
X9395468Y-14863174D01*
X9395468Y-14863174D02*
X9404992Y-14882222D01*
X9404992Y-14882222D02*
X9404992Y-14901269D01*
X9404992Y-14901269D02*
X9309753Y-14920317D01*
X9481182Y-14977460D02*
X9500230Y-14986984D01*
X9500230Y-14986984D02*
X9538325Y-14986984D01*
X9538325Y-14986984D02*
X9557373Y-14977460D01*
X9557373Y-14977460D02*
X9566896Y-14958412D01*
X9566896Y-14958412D02*
X9566896Y-14948888D01*
X9566896Y-14948888D02*
X9557373Y-14929841D01*
X9557373Y-14929841D02*
X9538325Y-14920317D01*
X9538325Y-14920317D02*
X9509753Y-14920317D01*
X9509753Y-14920317D02*
X9490706Y-14910793D01*
X9490706Y-14910793D02*
X9481182Y-14891746D01*
X9481182Y-14891746D02*
X9481182Y-14882222D01*
X9481182Y-14882222D02*
X9490706Y-14863174D01*
X9490706Y-14863174D02*
X9509753Y-14853650D01*
X9509753Y-14853650D02*
X9538325Y-14853650D01*
X9538325Y-14853650D02*
X9557373Y-14863174D01*
X9633563Y-15063174D02*
X9643087Y-15053650D01*
X9643087Y-15053650D02*
X9662134Y-15025079D01*
X9662134Y-15025079D02*
X9671658Y-15006031D01*
X9671658Y-15006031D02*
X9681182Y-14977460D01*
X9681182Y-14977460D02*
X9690706Y-14929841D01*
X9690706Y-14929841D02*
X9690706Y-14891746D01*
X9690706Y-14891746D02*
X9681182Y-14844127D01*
X9681182Y-14844127D02*
X9671658Y-14815555D01*
X9671658Y-14815555D02*
X9662134Y-14796508D01*
X9662134Y-14796508D02*
X9643087Y-14767936D01*
X9643087Y-14767936D02*
X9633563Y-14758412D01*
D12*
X4848249Y-15184249D02*
X4848249Y-15134751D01*
X4798751Y-15134751D01*
X4798751Y-15184249D01*
X4848249Y-15184249D01*
D11*
X5157372Y-15050984D02*
X5176420Y-15050984D01*
X5176420Y-15050984D02*
X5195467Y-15060508D01*
X5195467Y-15060508D02*
X5204991Y-15070031D01*
X5204991Y-15070031D02*
X5214515Y-15089079D01*
X5214515Y-15089079D02*
X5224039Y-15127174D01*
X5224039Y-15127174D02*
X5224039Y-15174793D01*
X5224039Y-15174793D02*
X5214515Y-15212888D01*
X5214515Y-15212888D02*
X5204991Y-15231936D01*
X5204991Y-15231936D02*
X5195467Y-15241460D01*
X5195467Y-15241460D02*
X5176420Y-15250984D01*
X5176420Y-15250984D02*
X5157372Y-15250984D01*
X5157372Y-15250984D02*
X5138324Y-15241460D01*
X5138324Y-15241460D02*
X5128801Y-15231936D01*
X5128801Y-15231936D02*
X5119277Y-15212888D01*
X5119277Y-15212888D02*
X5109753Y-15174793D01*
X5109753Y-15174793D02*
X5109753Y-15127174D01*
X5109753Y-15127174D02*
X5119277Y-15089079D01*
X5119277Y-15089079D02*
X5128801Y-15070031D01*
X5128801Y-15070031D02*
X5138324Y-15060508D01*
X5138324Y-15060508D02*
X5157372Y-15050984D01*
X5309753Y-15231936D02*
X5319277Y-15241460D01*
X5319277Y-15241460D02*
X5309753Y-15250984D01*
X5309753Y-15250984D02*
X5300229Y-15241460D01*
X5300229Y-15241460D02*
X5309753Y-15231936D01*
X5309753Y-15231936D02*
X5309753Y-15250984D01*
X5385944Y-15050984D02*
X5519277Y-15050984D01*
X5519277Y-15050984D02*
X5433563Y-15250984D01*
X5633562Y-15050984D02*
X5652610Y-15050984D01*
X5652610Y-15050984D02*
X5671658Y-15060508D01*
X5671658Y-15060508D02*
X5681182Y-15070031D01*
X5681182Y-15070031D02*
X5690705Y-15089079D01*
X5690705Y-15089079D02*
X5700229Y-15127174D01*
X5700229Y-15127174D02*
X5700229Y-15174793D01*
X5700229Y-15174793D02*
X5690705Y-15212888D01*
X5690705Y-15212888D02*
X5681182Y-15231936D01*
X5681182Y-15231936D02*
X5671658Y-15241460D01*
X5671658Y-15241460D02*
X5652610Y-15250984D01*
X5652610Y-15250984D02*
X5633562Y-15250984D01*
X5633562Y-15250984D02*
X5614515Y-15241460D01*
X5614515Y-15241460D02*
X5604991Y-15231936D01*
X5604991Y-15231936D02*
X5595467Y-15212888D01*
X5595467Y-15212888D02*
X5585944Y-15174793D01*
X5585944Y-15174793D02*
X5585944Y-15127174D01*
X5585944Y-15127174D02*
X5595467Y-15089079D01*
X5595467Y-15089079D02*
X5604991Y-15070031D01*
X5604991Y-15070031D02*
X5614515Y-15060508D01*
X5614515Y-15060508D02*
X5633562Y-15050984D01*
X5824039Y-15050984D02*
X5843086Y-15050984D01*
X5843086Y-15050984D02*
X5862134Y-15060508D01*
X5862134Y-15060508D02*
X5871658Y-15070031D01*
X5871658Y-15070031D02*
X5881182Y-15089079D01*
X5881182Y-15089079D02*
X5890705Y-15127174D01*
X5890705Y-15127174D02*
X5890705Y-15174793D01*
X5890705Y-15174793D02*
X5881182Y-15212888D01*
X5881182Y-15212888D02*
X5871658Y-15231936D01*
X5871658Y-15231936D02*
X5862134Y-15241460D01*
X5862134Y-15241460D02*
X5843086Y-15250984D01*
X5843086Y-15250984D02*
X5824039Y-15250984D01*
X5824039Y-15250984D02*
X5804991Y-15241460D01*
X5804991Y-15241460D02*
X5795467Y-15231936D01*
X5795467Y-15231936D02*
X5785943Y-15212888D01*
X5785943Y-15212888D02*
X5776420Y-15174793D01*
X5776420Y-15174793D02*
X5776420Y-15127174D01*
X5776420Y-15127174D02*
X5785943Y-15089079D01*
X5785943Y-15089079D02*
X5795467Y-15070031D01*
X5795467Y-15070031D02*
X5804991Y-15060508D01*
X5804991Y-15060508D02*
X5824039Y-15050984D01*
X5976420Y-15250984D02*
X5976420Y-15117650D01*
X5976420Y-15136698D02*
X5985943Y-15127174D01*
X5985943Y-15127174D02*
X6004991Y-15117650D01*
X6004991Y-15117650D02*
X6033563Y-15117650D01*
X6033563Y-15117650D02*
X6052610Y-15127174D01*
X6052610Y-15127174D02*
X6062134Y-15146222D01*
X6062134Y-15146222D02*
X6062134Y-15250984D01*
X6062134Y-15146222D02*
X6071658Y-15127174D01*
X6071658Y-15127174D02*
X6090705Y-15117650D01*
X6090705Y-15117650D02*
X6119277Y-15117650D01*
X6119277Y-15117650D02*
X6138324Y-15127174D01*
X6138324Y-15127174D02*
X6147848Y-15146222D01*
X6147848Y-15146222D02*
X6147848Y-15250984D01*
X6243086Y-15250984D02*
X6243086Y-15117650D01*
X6243086Y-15136698D02*
X6252610Y-15127174D01*
X6252610Y-15127174D02*
X6271658Y-15117650D01*
X6271658Y-15117650D02*
X6300229Y-15117650D01*
X6300229Y-15117650D02*
X6319277Y-15127174D01*
X6319277Y-15127174D02*
X6328801Y-15146222D01*
X6328801Y-15146222D02*
X6328801Y-15250984D01*
X6328801Y-15146222D02*
X6338324Y-15127174D01*
X6338324Y-15127174D02*
X6357372Y-15117650D01*
X6357372Y-15117650D02*
X6385943Y-15117650D01*
X6385943Y-15117650D02*
X6404991Y-15127174D01*
X6404991Y-15127174D02*
X6414515Y-15146222D01*
X6414515Y-15146222D02*
X6414515Y-15250984D01*
X6804991Y-15041460D02*
X6633563Y-15298603D01*
X7062134Y-15050984D02*
X7081182Y-15050984D01*
X7081182Y-15050984D02*
X7100229Y-15060508D01*
X7100229Y-15060508D02*
X7109753Y-15070031D01*
X7109753Y-15070031D02*
X7119277Y-15089079D01*
X7119277Y-15089079D02*
X7128801Y-15127174D01*
X7128801Y-15127174D02*
X7128801Y-15174793D01*
X7128801Y-15174793D02*
X7119277Y-15212888D01*
X7119277Y-15212888D02*
X7109753Y-15231936D01*
X7109753Y-15231936D02*
X7100229Y-15241460D01*
X7100229Y-15241460D02*
X7081182Y-15250984D01*
X7081182Y-15250984D02*
X7062134Y-15250984D01*
X7062134Y-15250984D02*
X7043086Y-15241460D01*
X7043086Y-15241460D02*
X7033563Y-15231936D01*
X7033563Y-15231936D02*
X7024039Y-15212888D01*
X7024039Y-15212888D02*
X7014515Y-15174793D01*
X7014515Y-15174793D02*
X7014515Y-15127174D01*
X7014515Y-15127174D02*
X7024039Y-15089079D01*
X7024039Y-15089079D02*
X7033563Y-15070031D01*
X7033563Y-15070031D02*
X7043086Y-15060508D01*
X7043086Y-15060508D02*
X7062134Y-15050984D01*
X7214515Y-15231936D02*
X7224039Y-15241460D01*
X7224039Y-15241460D02*
X7214515Y-15250984D01*
X7214515Y-15250984D02*
X7204991Y-15241460D01*
X7204991Y-15241460D02*
X7214515Y-15231936D01*
X7214515Y-15231936D02*
X7214515Y-15250984D01*
X7347848Y-15050984D02*
X7366896Y-15050984D01*
X7366896Y-15050984D02*
X7385944Y-15060508D01*
X7385944Y-15060508D02*
X7395467Y-15070031D01*
X7395467Y-15070031D02*
X7404991Y-15089079D01*
X7404991Y-15089079D02*
X7414515Y-15127174D01*
X7414515Y-15127174D02*
X7414515Y-15174793D01*
X7414515Y-15174793D02*
X7404991Y-15212888D01*
X7404991Y-15212888D02*
X7395467Y-15231936D01*
X7395467Y-15231936D02*
X7385944Y-15241460D01*
X7385944Y-15241460D02*
X7366896Y-15250984D01*
X7366896Y-15250984D02*
X7347848Y-15250984D01*
X7347848Y-15250984D02*
X7328801Y-15241460D01*
X7328801Y-15241460D02*
X7319277Y-15231936D01*
X7319277Y-15231936D02*
X7309753Y-15212888D01*
X7309753Y-15212888D02*
X7300229Y-15174793D01*
X7300229Y-15174793D02*
X7300229Y-15127174D01*
X7300229Y-15127174D02*
X7309753Y-15089079D01*
X7309753Y-15089079D02*
X7319277Y-15070031D01*
X7319277Y-15070031D02*
X7328801Y-15060508D01*
X7328801Y-15060508D02*
X7347848Y-15050984D01*
X7490706Y-15070031D02*
X7500229Y-15060508D01*
X7500229Y-15060508D02*
X7519277Y-15050984D01*
X7519277Y-15050984D02*
X7566896Y-15050984D01*
X7566896Y-15050984D02*
X7585944Y-15060508D01*
X7585944Y-15060508D02*
X7595467Y-15070031D01*
X7595467Y-15070031D02*
X7604991Y-15089079D01*
X7604991Y-15089079D02*
X7604991Y-15108127D01*
X7604991Y-15108127D02*
X7595467Y-15136698D01*
X7595467Y-15136698D02*
X7481182Y-15250984D01*
X7481182Y-15250984D02*
X7604991Y-15250984D01*
X7671658Y-15050984D02*
X7804991Y-15050984D01*
X7804991Y-15050984D02*
X7719277Y-15250984D01*
X7966896Y-15050984D02*
X7928801Y-15050984D01*
X7928801Y-15050984D02*
X7909753Y-15060508D01*
X7909753Y-15060508D02*
X7900229Y-15070031D01*
X7900229Y-15070031D02*
X7881182Y-15098603D01*
X7881182Y-15098603D02*
X7871658Y-15136698D01*
X7871658Y-15136698D02*
X7871658Y-15212888D01*
X7871658Y-15212888D02*
X7881182Y-15231936D01*
X7881182Y-15231936D02*
X7890706Y-15241460D01*
X7890706Y-15241460D02*
X7909753Y-15250984D01*
X7909753Y-15250984D02*
X7947848Y-15250984D01*
X7947848Y-15250984D02*
X7966896Y-15241460D01*
X7966896Y-15241460D02*
X7976420Y-15231936D01*
X7976420Y-15231936D02*
X7985944Y-15212888D01*
X7985944Y-15212888D02*
X7985944Y-15165269D01*
X7985944Y-15165269D02*
X7976420Y-15146222D01*
X7976420Y-15146222D02*
X7966896Y-15136698D01*
X7966896Y-15136698D02*
X7947848Y-15127174D01*
X7947848Y-15127174D02*
X7909753Y-15127174D01*
X7909753Y-15127174D02*
X7890706Y-15136698D01*
X7890706Y-15136698D02*
X7881182Y-15146222D01*
X7881182Y-15146222D02*
X7871658Y-15165269D01*
X8062134Y-15050984D02*
X8062134Y-15089079D01*
X8138325Y-15050984D02*
X8138325Y-15089079D01*
X8433563Y-15327174D02*
X8424039Y-15317650D01*
X8424039Y-15317650D02*
X8404991Y-15289079D01*
X8404991Y-15289079D02*
X8395468Y-15270031D01*
X8395468Y-15270031D02*
X8385944Y-15241460D01*
X8385944Y-15241460D02*
X8376420Y-15193841D01*
X8376420Y-15193841D02*
X8376420Y-15155746D01*
X8376420Y-15155746D02*
X8385944Y-15108127D01*
X8385944Y-15108127D02*
X8395468Y-15079555D01*
X8395468Y-15079555D02*
X8404991Y-15060508D01*
X8404991Y-15060508D02*
X8424039Y-15031936D01*
X8424039Y-15031936D02*
X8433563Y-15022412D01*
X8547849Y-15050984D02*
X8566896Y-15050984D01*
X8566896Y-15050984D02*
X8585944Y-15060508D01*
X8585944Y-15060508D02*
X8595468Y-15070031D01*
X8595468Y-15070031D02*
X8604991Y-15089079D01*
X8604991Y-15089079D02*
X8614515Y-15127174D01*
X8614515Y-15127174D02*
X8614515Y-15174793D01*
X8614515Y-15174793D02*
X8604991Y-15212888D01*
X8604991Y-15212888D02*
X8595468Y-15231936D01*
X8595468Y-15231936D02*
X8585944Y-15241460D01*
X8585944Y-15241460D02*
X8566896Y-15250984D01*
X8566896Y-15250984D02*
X8547849Y-15250984D01*
X8547849Y-15250984D02*
X8528801Y-15241460D01*
X8528801Y-15241460D02*
X8519277Y-15231936D01*
X8519277Y-15231936D02*
X8509753Y-15212888D01*
X8509753Y-15212888D02*
X8500230Y-15174793D01*
X8500230Y-15174793D02*
X8500230Y-15127174D01*
X8500230Y-15127174D02*
X8509753Y-15089079D01*
X8509753Y-15089079D02*
X8519277Y-15070031D01*
X8519277Y-15070031D02*
X8528801Y-15060508D01*
X8528801Y-15060508D02*
X8547849Y-15050984D01*
X8852611Y-15250984D02*
X8852611Y-15050984D01*
X8938325Y-15250984D02*
X8938325Y-15146222D01*
X8938325Y-15146222D02*
X8928801Y-15127174D01*
X8928801Y-15127174D02*
X8909753Y-15117650D01*
X8909753Y-15117650D02*
X8881182Y-15117650D01*
X8881182Y-15117650D02*
X8862134Y-15127174D01*
X8862134Y-15127174D02*
X8852611Y-15136698D01*
X9062134Y-15250984D02*
X9043087Y-15241460D01*
X9043087Y-15241460D02*
X9033563Y-15231936D01*
X9033563Y-15231936D02*
X9024039Y-15212888D01*
X9024039Y-15212888D02*
X9024039Y-15155746D01*
X9024039Y-15155746D02*
X9033563Y-15136698D01*
X9033563Y-15136698D02*
X9043087Y-15127174D01*
X9043087Y-15127174D02*
X9062134Y-15117650D01*
X9062134Y-15117650D02*
X9090706Y-15117650D01*
X9090706Y-15117650D02*
X9109753Y-15127174D01*
X9109753Y-15127174D02*
X9119277Y-15136698D01*
X9119277Y-15136698D02*
X9128801Y-15155746D01*
X9128801Y-15155746D02*
X9128801Y-15212888D01*
X9128801Y-15212888D02*
X9119277Y-15231936D01*
X9119277Y-15231936D02*
X9109753Y-15241460D01*
X9109753Y-15241460D02*
X9090706Y-15250984D01*
X9090706Y-15250984D02*
X9062134Y-15250984D01*
X9243087Y-15250984D02*
X9224039Y-15241460D01*
X9224039Y-15241460D02*
X9214515Y-15222412D01*
X9214515Y-15222412D02*
X9214515Y-15050984D01*
X9395468Y-15241460D02*
X9376420Y-15250984D01*
X9376420Y-15250984D02*
X9338325Y-15250984D01*
X9338325Y-15250984D02*
X9319277Y-15241460D01*
X9319277Y-15241460D02*
X9309753Y-15222412D01*
X9309753Y-15222412D02*
X9309753Y-15146222D01*
X9309753Y-15146222D02*
X9319277Y-15127174D01*
X9319277Y-15127174D02*
X9338325Y-15117650D01*
X9338325Y-15117650D02*
X9376420Y-15117650D01*
X9376420Y-15117650D02*
X9395468Y-15127174D01*
X9395468Y-15127174D02*
X9404992Y-15146222D01*
X9404992Y-15146222D02*
X9404992Y-15165269D01*
X9404992Y-15165269D02*
X9309753Y-15184317D01*
X9481182Y-15241460D02*
X9500230Y-15250984D01*
X9500230Y-15250984D02*
X9538325Y-15250984D01*
X9538325Y-15250984D02*
X9557373Y-15241460D01*
X9557373Y-15241460D02*
X9566896Y-15222412D01*
X9566896Y-15222412D02*
X9566896Y-15212888D01*
X9566896Y-15212888D02*
X9557373Y-15193841D01*
X9557373Y-15193841D02*
X9538325Y-15184317D01*
X9538325Y-15184317D02*
X9509753Y-15184317D01*
X9509753Y-15184317D02*
X9490706Y-15174793D01*
X9490706Y-15174793D02*
X9481182Y-15155746D01*
X9481182Y-15155746D02*
X9481182Y-15146222D01*
X9481182Y-15146222D02*
X9490706Y-15127174D01*
X9490706Y-15127174D02*
X9509753Y-15117650D01*
X9509753Y-15117650D02*
X9538325Y-15117650D01*
X9538325Y-15117650D02*
X9557373Y-15127174D01*
X9804992Y-15174793D02*
X9957373Y-15174793D01*
X9881182Y-15250984D02*
X9881182Y-15098603D01*
X10290706Y-15117650D02*
X10290706Y-15250984D01*
X10243087Y-15041460D02*
X10195468Y-15184317D01*
X10195468Y-15184317D02*
X10319277Y-15184317D01*
X10538325Y-15241460D02*
X10557373Y-15250984D01*
X10557373Y-15250984D02*
X10595468Y-15250984D01*
X10595468Y-15250984D02*
X10614516Y-15241460D01*
X10614516Y-15241460D02*
X10624039Y-15222412D01*
X10624039Y-15222412D02*
X10624039Y-15212888D01*
X10624039Y-15212888D02*
X10614516Y-15193841D01*
X10614516Y-15193841D02*
X10595468Y-15184317D01*
X10595468Y-15184317D02*
X10566896Y-15184317D01*
X10566896Y-15184317D02*
X10547849Y-15174793D01*
X10547849Y-15174793D02*
X10538325Y-15155746D01*
X10538325Y-15155746D02*
X10538325Y-15146222D01*
X10538325Y-15146222D02*
X10547849Y-15127174D01*
X10547849Y-15127174D02*
X10566896Y-15117650D01*
X10566896Y-15117650D02*
X10595468Y-15117650D01*
X10595468Y-15117650D02*
X10614516Y-15127174D01*
X10738325Y-15250984D02*
X10719277Y-15241460D01*
X10719277Y-15241460D02*
X10709754Y-15222412D01*
X10709754Y-15222412D02*
X10709754Y-15050984D01*
X10843087Y-15250984D02*
X10824039Y-15241460D01*
X10824039Y-15241460D02*
X10814516Y-15231936D01*
X10814516Y-15231936D02*
X10804992Y-15212888D01*
X10804992Y-15212888D02*
X10804992Y-15155746D01*
X10804992Y-15155746D02*
X10814516Y-15136698D01*
X10814516Y-15136698D02*
X10824039Y-15127174D01*
X10824039Y-15127174D02*
X10843087Y-15117650D01*
X10843087Y-15117650D02*
X10871658Y-15117650D01*
X10871658Y-15117650D02*
X10890706Y-15127174D01*
X10890706Y-15127174D02*
X10900230Y-15136698D01*
X10900230Y-15136698D02*
X10909754Y-15155746D01*
X10909754Y-15155746D02*
X10909754Y-15212888D01*
X10909754Y-15212888D02*
X10900230Y-15231936D01*
X10900230Y-15231936D02*
X10890706Y-15241460D01*
X10890706Y-15241460D02*
X10871658Y-15250984D01*
X10871658Y-15250984D02*
X10843087Y-15250984D01*
X10966897Y-15117650D02*
X11043087Y-15117650D01*
X10995468Y-15050984D02*
X10995468Y-15222412D01*
X10995468Y-15222412D02*
X11004992Y-15241460D01*
X11004992Y-15241460D02*
X11024039Y-15250984D01*
X11024039Y-15250984D02*
X11043087Y-15250984D01*
X11100230Y-15241460D02*
X11119277Y-15250984D01*
X11119277Y-15250984D02*
X11157373Y-15250984D01*
X11157373Y-15250984D02*
X11176420Y-15241460D01*
X11176420Y-15241460D02*
X11185944Y-15222412D01*
X11185944Y-15222412D02*
X11185944Y-15212888D01*
X11185944Y-15212888D02*
X11176420Y-15193841D01*
X11176420Y-15193841D02*
X11157373Y-15184317D01*
X11157373Y-15184317D02*
X11128801Y-15184317D01*
X11128801Y-15184317D02*
X11109754Y-15174793D01*
X11109754Y-15174793D02*
X11100230Y-15155746D01*
X11100230Y-15155746D02*
X11100230Y-15146222D01*
X11100230Y-15146222D02*
X11109754Y-15127174D01*
X11109754Y-15127174D02*
X11128801Y-15117650D01*
X11128801Y-15117650D02*
X11157373Y-15117650D01*
X11157373Y-15117650D02*
X11176420Y-15127174D01*
X11252611Y-15327174D02*
X11262135Y-15317650D01*
X11262135Y-15317650D02*
X11281182Y-15289079D01*
X11281182Y-15289079D02*
X11290706Y-15270031D01*
X11290706Y-15270031D02*
X11300230Y-15241460D01*
X11300230Y-15241460D02*
X11309754Y-15193841D01*
X11309754Y-15193841D02*
X11309754Y-15155746D01*
X11309754Y-15155746D02*
X11300230Y-15108127D01*
X11300230Y-15108127D02*
X11290706Y-15079555D01*
X11290706Y-15079555D02*
X11281182Y-15060508D01*
X11281182Y-15060508D02*
X11262135Y-15031936D01*
X11262135Y-15031936D02*
X11252611Y-15022412D01*
D12*
X4818500Y-15463500D02*
X4858500Y-15423500D01*
X4818500Y-15383500D01*
X4778500Y-15423500D01*
X4818500Y-15463500D01*
D11*
X5157372Y-15314984D02*
X5176420Y-15314984D01*
X5176420Y-15314984D02*
X5195467Y-15324508D01*
X5195467Y-15324508D02*
X5204991Y-15334031D01*
X5204991Y-15334031D02*
X5214515Y-15353079D01*
X5214515Y-15353079D02*
X5224039Y-15391174D01*
X5224039Y-15391174D02*
X5224039Y-15438793D01*
X5224039Y-15438793D02*
X5214515Y-15476888D01*
X5214515Y-15476888D02*
X5204991Y-15495936D01*
X5204991Y-15495936D02*
X5195467Y-15505460D01*
X5195467Y-15505460D02*
X5176420Y-15514984D01*
X5176420Y-15514984D02*
X5157372Y-15514984D01*
X5157372Y-15514984D02*
X5138324Y-15505460D01*
X5138324Y-15505460D02*
X5128801Y-15495936D01*
X5128801Y-15495936D02*
X5119277Y-15476888D01*
X5119277Y-15476888D02*
X5109753Y-15438793D01*
X5109753Y-15438793D02*
X5109753Y-15391174D01*
X5109753Y-15391174D02*
X5119277Y-15353079D01*
X5119277Y-15353079D02*
X5128801Y-15334031D01*
X5128801Y-15334031D02*
X5138324Y-15324508D01*
X5138324Y-15324508D02*
X5157372Y-15314984D01*
X5309753Y-15495936D02*
X5319277Y-15505460D01*
X5319277Y-15505460D02*
X5309753Y-15514984D01*
X5309753Y-15514984D02*
X5300229Y-15505460D01*
X5300229Y-15505460D02*
X5309753Y-15495936D01*
X5309753Y-15495936D02*
X5309753Y-15514984D01*
X5433563Y-15400698D02*
X5414515Y-15391174D01*
X5414515Y-15391174D02*
X5404991Y-15381650D01*
X5404991Y-15381650D02*
X5395467Y-15362603D01*
X5395467Y-15362603D02*
X5395467Y-15353079D01*
X5395467Y-15353079D02*
X5404991Y-15334031D01*
X5404991Y-15334031D02*
X5414515Y-15324508D01*
X5414515Y-15324508D02*
X5433563Y-15314984D01*
X5433563Y-15314984D02*
X5471658Y-15314984D01*
X5471658Y-15314984D02*
X5490705Y-15324508D01*
X5490705Y-15324508D02*
X5500229Y-15334031D01*
X5500229Y-15334031D02*
X5509753Y-15353079D01*
X5509753Y-15353079D02*
X5509753Y-15362603D01*
X5509753Y-15362603D02*
X5500229Y-15381650D01*
X5500229Y-15381650D02*
X5490705Y-15391174D01*
X5490705Y-15391174D02*
X5471658Y-15400698D01*
X5471658Y-15400698D02*
X5433563Y-15400698D01*
X5433563Y-15400698D02*
X5414515Y-15410222D01*
X5414515Y-15410222D02*
X5404991Y-15419746D01*
X5404991Y-15419746D02*
X5395467Y-15438793D01*
X5395467Y-15438793D02*
X5395467Y-15476888D01*
X5395467Y-15476888D02*
X5404991Y-15495936D01*
X5404991Y-15495936D02*
X5414515Y-15505460D01*
X5414515Y-15505460D02*
X5433563Y-15514984D01*
X5433563Y-15514984D02*
X5471658Y-15514984D01*
X5471658Y-15514984D02*
X5490705Y-15505460D01*
X5490705Y-15505460D02*
X5500229Y-15495936D01*
X5500229Y-15495936D02*
X5509753Y-15476888D01*
X5509753Y-15476888D02*
X5509753Y-15438793D01*
X5509753Y-15438793D02*
X5500229Y-15419746D01*
X5500229Y-15419746D02*
X5490705Y-15410222D01*
X5490705Y-15410222D02*
X5471658Y-15400698D01*
X5633562Y-15314984D02*
X5652610Y-15314984D01*
X5652610Y-15314984D02*
X5671658Y-15324508D01*
X5671658Y-15324508D02*
X5681182Y-15334031D01*
X5681182Y-15334031D02*
X5690705Y-15353079D01*
X5690705Y-15353079D02*
X5700229Y-15391174D01*
X5700229Y-15391174D02*
X5700229Y-15438793D01*
X5700229Y-15438793D02*
X5690705Y-15476888D01*
X5690705Y-15476888D02*
X5681182Y-15495936D01*
X5681182Y-15495936D02*
X5671658Y-15505460D01*
X5671658Y-15505460D02*
X5652610Y-15514984D01*
X5652610Y-15514984D02*
X5633562Y-15514984D01*
X5633562Y-15514984D02*
X5614515Y-15505460D01*
X5614515Y-15505460D02*
X5604991Y-15495936D01*
X5604991Y-15495936D02*
X5595467Y-15476888D01*
X5595467Y-15476888D02*
X5585944Y-15438793D01*
X5585944Y-15438793D02*
X5585944Y-15391174D01*
X5585944Y-15391174D02*
X5595467Y-15353079D01*
X5595467Y-15353079D02*
X5604991Y-15334031D01*
X5604991Y-15334031D02*
X5614515Y-15324508D01*
X5614515Y-15324508D02*
X5633562Y-15314984D01*
X5824039Y-15314984D02*
X5843086Y-15314984D01*
X5843086Y-15314984D02*
X5862134Y-15324508D01*
X5862134Y-15324508D02*
X5871658Y-15334031D01*
X5871658Y-15334031D02*
X5881182Y-15353079D01*
X5881182Y-15353079D02*
X5890705Y-15391174D01*
X5890705Y-15391174D02*
X5890705Y-15438793D01*
X5890705Y-15438793D02*
X5881182Y-15476888D01*
X5881182Y-15476888D02*
X5871658Y-15495936D01*
X5871658Y-15495936D02*
X5862134Y-15505460D01*
X5862134Y-15505460D02*
X5843086Y-15514984D01*
X5843086Y-15514984D02*
X5824039Y-15514984D01*
X5824039Y-15514984D02*
X5804991Y-15505460D01*
X5804991Y-15505460D02*
X5795467Y-15495936D01*
X5795467Y-15495936D02*
X5785943Y-15476888D01*
X5785943Y-15476888D02*
X5776420Y-15438793D01*
X5776420Y-15438793D02*
X5776420Y-15391174D01*
X5776420Y-15391174D02*
X5785943Y-15353079D01*
X5785943Y-15353079D02*
X5795467Y-15334031D01*
X5795467Y-15334031D02*
X5804991Y-15324508D01*
X5804991Y-15324508D02*
X5824039Y-15314984D01*
X5976420Y-15514984D02*
X5976420Y-15381650D01*
X5976420Y-15400698D02*
X5985943Y-15391174D01*
X5985943Y-15391174D02*
X6004991Y-15381650D01*
X6004991Y-15381650D02*
X6033563Y-15381650D01*
X6033563Y-15381650D02*
X6052610Y-15391174D01*
X6052610Y-15391174D02*
X6062134Y-15410222D01*
X6062134Y-15410222D02*
X6062134Y-15514984D01*
X6062134Y-15410222D02*
X6071658Y-15391174D01*
X6071658Y-15391174D02*
X6090705Y-15381650D01*
X6090705Y-15381650D02*
X6119277Y-15381650D01*
X6119277Y-15381650D02*
X6138324Y-15391174D01*
X6138324Y-15391174D02*
X6147848Y-15410222D01*
X6147848Y-15410222D02*
X6147848Y-15514984D01*
X6243086Y-15514984D02*
X6243086Y-15381650D01*
X6243086Y-15400698D02*
X6252610Y-15391174D01*
X6252610Y-15391174D02*
X6271658Y-15381650D01*
X6271658Y-15381650D02*
X6300229Y-15381650D01*
X6300229Y-15381650D02*
X6319277Y-15391174D01*
X6319277Y-15391174D02*
X6328801Y-15410222D01*
X6328801Y-15410222D02*
X6328801Y-15514984D01*
X6328801Y-15410222D02*
X6338324Y-15391174D01*
X6338324Y-15391174D02*
X6357372Y-15381650D01*
X6357372Y-15381650D02*
X6385943Y-15381650D01*
X6385943Y-15381650D02*
X6404991Y-15391174D01*
X6404991Y-15391174D02*
X6414515Y-15410222D01*
X6414515Y-15410222D02*
X6414515Y-15514984D01*
X6804991Y-15305460D02*
X6633563Y-15562603D01*
X7062134Y-15314984D02*
X7081182Y-15314984D01*
X7081182Y-15314984D02*
X7100229Y-15324508D01*
X7100229Y-15324508D02*
X7109753Y-15334031D01*
X7109753Y-15334031D02*
X7119277Y-15353079D01*
X7119277Y-15353079D02*
X7128801Y-15391174D01*
X7128801Y-15391174D02*
X7128801Y-15438793D01*
X7128801Y-15438793D02*
X7119277Y-15476888D01*
X7119277Y-15476888D02*
X7109753Y-15495936D01*
X7109753Y-15495936D02*
X7100229Y-15505460D01*
X7100229Y-15505460D02*
X7081182Y-15514984D01*
X7081182Y-15514984D02*
X7062134Y-15514984D01*
X7062134Y-15514984D02*
X7043086Y-15505460D01*
X7043086Y-15505460D02*
X7033563Y-15495936D01*
X7033563Y-15495936D02*
X7024039Y-15476888D01*
X7024039Y-15476888D02*
X7014515Y-15438793D01*
X7014515Y-15438793D02*
X7014515Y-15391174D01*
X7014515Y-15391174D02*
X7024039Y-15353079D01*
X7024039Y-15353079D02*
X7033563Y-15334031D01*
X7033563Y-15334031D02*
X7043086Y-15324508D01*
X7043086Y-15324508D02*
X7062134Y-15314984D01*
X7214515Y-15495936D02*
X7224039Y-15505460D01*
X7224039Y-15505460D02*
X7214515Y-15514984D01*
X7214515Y-15514984D02*
X7204991Y-15505460D01*
X7204991Y-15505460D02*
X7214515Y-15495936D01*
X7214515Y-15495936D02*
X7214515Y-15514984D01*
X7347848Y-15314984D02*
X7366896Y-15314984D01*
X7366896Y-15314984D02*
X7385944Y-15324508D01*
X7385944Y-15324508D02*
X7395467Y-15334031D01*
X7395467Y-15334031D02*
X7404991Y-15353079D01*
X7404991Y-15353079D02*
X7414515Y-15391174D01*
X7414515Y-15391174D02*
X7414515Y-15438793D01*
X7414515Y-15438793D02*
X7404991Y-15476888D01*
X7404991Y-15476888D02*
X7395467Y-15495936D01*
X7395467Y-15495936D02*
X7385944Y-15505460D01*
X7385944Y-15505460D02*
X7366896Y-15514984D01*
X7366896Y-15514984D02*
X7347848Y-15514984D01*
X7347848Y-15514984D02*
X7328801Y-15505460D01*
X7328801Y-15505460D02*
X7319277Y-15495936D01*
X7319277Y-15495936D02*
X7309753Y-15476888D01*
X7309753Y-15476888D02*
X7300229Y-15438793D01*
X7300229Y-15438793D02*
X7300229Y-15391174D01*
X7300229Y-15391174D02*
X7309753Y-15353079D01*
X7309753Y-15353079D02*
X7319277Y-15334031D01*
X7319277Y-15334031D02*
X7328801Y-15324508D01*
X7328801Y-15324508D02*
X7347848Y-15314984D01*
X7481182Y-15314984D02*
X7604991Y-15314984D01*
X7604991Y-15314984D02*
X7538325Y-15391174D01*
X7538325Y-15391174D02*
X7566896Y-15391174D01*
X7566896Y-15391174D02*
X7585944Y-15400698D01*
X7585944Y-15400698D02*
X7595467Y-15410222D01*
X7595467Y-15410222D02*
X7604991Y-15429269D01*
X7604991Y-15429269D02*
X7604991Y-15476888D01*
X7604991Y-15476888D02*
X7595467Y-15495936D01*
X7595467Y-15495936D02*
X7585944Y-15505460D01*
X7585944Y-15505460D02*
X7566896Y-15514984D01*
X7566896Y-15514984D02*
X7509753Y-15514984D01*
X7509753Y-15514984D02*
X7490706Y-15505460D01*
X7490706Y-15505460D02*
X7481182Y-15495936D01*
X7795467Y-15514984D02*
X7681182Y-15514984D01*
X7738325Y-15514984D02*
X7738325Y-15314984D01*
X7738325Y-15314984D02*
X7719277Y-15343555D01*
X7719277Y-15343555D02*
X7700229Y-15362603D01*
X7700229Y-15362603D02*
X7681182Y-15372127D01*
X7976420Y-15314984D02*
X7881182Y-15314984D01*
X7881182Y-15314984D02*
X7871658Y-15410222D01*
X7871658Y-15410222D02*
X7881182Y-15400698D01*
X7881182Y-15400698D02*
X7900229Y-15391174D01*
X7900229Y-15391174D02*
X7947848Y-15391174D01*
X7947848Y-15391174D02*
X7966896Y-15400698D01*
X7966896Y-15400698D02*
X7976420Y-15410222D01*
X7976420Y-15410222D02*
X7985944Y-15429269D01*
X7985944Y-15429269D02*
X7985944Y-15476888D01*
X7985944Y-15476888D02*
X7976420Y-15495936D01*
X7976420Y-15495936D02*
X7966896Y-15505460D01*
X7966896Y-15505460D02*
X7947848Y-15514984D01*
X7947848Y-15514984D02*
X7900229Y-15514984D01*
X7900229Y-15514984D02*
X7881182Y-15505460D01*
X7881182Y-15505460D02*
X7871658Y-15495936D01*
X8062134Y-15314984D02*
X8062134Y-15353079D01*
X8138325Y-15314984D02*
X8138325Y-15353079D01*
X8433563Y-15591174D02*
X8424039Y-15581650D01*
X8424039Y-15581650D02*
X8404991Y-15553079D01*
X8404991Y-15553079D02*
X8395468Y-15534031D01*
X8395468Y-15534031D02*
X8385944Y-15505460D01*
X8385944Y-15505460D02*
X8376420Y-15457841D01*
X8376420Y-15457841D02*
X8376420Y-15419746D01*
X8376420Y-15419746D02*
X8385944Y-15372127D01*
X8385944Y-15372127D02*
X8395468Y-15343555D01*
X8395468Y-15343555D02*
X8404991Y-15324508D01*
X8404991Y-15324508D02*
X8424039Y-15295936D01*
X8424039Y-15295936D02*
X8433563Y-15286412D01*
X8547849Y-15314984D02*
X8566896Y-15314984D01*
X8566896Y-15314984D02*
X8585944Y-15324508D01*
X8585944Y-15324508D02*
X8595468Y-15334031D01*
X8595468Y-15334031D02*
X8604991Y-15353079D01*
X8604991Y-15353079D02*
X8614515Y-15391174D01*
X8614515Y-15391174D02*
X8614515Y-15438793D01*
X8614515Y-15438793D02*
X8604991Y-15476888D01*
X8604991Y-15476888D02*
X8595468Y-15495936D01*
X8595468Y-15495936D02*
X8585944Y-15505460D01*
X8585944Y-15505460D02*
X8566896Y-15514984D01*
X8566896Y-15514984D02*
X8547849Y-15514984D01*
X8547849Y-15514984D02*
X8528801Y-15505460D01*
X8528801Y-15505460D02*
X8519277Y-15495936D01*
X8519277Y-15495936D02*
X8509753Y-15476888D01*
X8509753Y-15476888D02*
X8500230Y-15438793D01*
X8500230Y-15438793D02*
X8500230Y-15391174D01*
X8500230Y-15391174D02*
X8509753Y-15353079D01*
X8509753Y-15353079D02*
X8519277Y-15334031D01*
X8519277Y-15334031D02*
X8528801Y-15324508D01*
X8528801Y-15324508D02*
X8547849Y-15314984D01*
X8852611Y-15514984D02*
X8852611Y-15314984D01*
X8938325Y-15514984D02*
X8938325Y-15410222D01*
X8938325Y-15410222D02*
X8928801Y-15391174D01*
X8928801Y-15391174D02*
X8909753Y-15381650D01*
X8909753Y-15381650D02*
X8881182Y-15381650D01*
X8881182Y-15381650D02*
X8862134Y-15391174D01*
X8862134Y-15391174D02*
X8852611Y-15400698D01*
X9062134Y-15514984D02*
X9043087Y-15505460D01*
X9043087Y-15505460D02*
X9033563Y-15495936D01*
X9033563Y-15495936D02*
X9024039Y-15476888D01*
X9024039Y-15476888D02*
X9024039Y-15419746D01*
X9024039Y-15419746D02*
X9033563Y-15400698D01*
X9033563Y-15400698D02*
X9043087Y-15391174D01*
X9043087Y-15391174D02*
X9062134Y-15381650D01*
X9062134Y-15381650D02*
X9090706Y-15381650D01*
X9090706Y-15381650D02*
X9109753Y-15391174D01*
X9109753Y-15391174D02*
X9119277Y-15400698D01*
X9119277Y-15400698D02*
X9128801Y-15419746D01*
X9128801Y-15419746D02*
X9128801Y-15476888D01*
X9128801Y-15476888D02*
X9119277Y-15495936D01*
X9119277Y-15495936D02*
X9109753Y-15505460D01*
X9109753Y-15505460D02*
X9090706Y-15514984D01*
X9090706Y-15514984D02*
X9062134Y-15514984D01*
X9243087Y-15514984D02*
X9224039Y-15505460D01*
X9224039Y-15505460D02*
X9214515Y-15486412D01*
X9214515Y-15486412D02*
X9214515Y-15314984D01*
X9395468Y-15505460D02*
X9376420Y-15514984D01*
X9376420Y-15514984D02*
X9338325Y-15514984D01*
X9338325Y-15514984D02*
X9319277Y-15505460D01*
X9319277Y-15505460D02*
X9309753Y-15486412D01*
X9309753Y-15486412D02*
X9309753Y-15410222D01*
X9309753Y-15410222D02*
X9319277Y-15391174D01*
X9319277Y-15391174D02*
X9338325Y-15381650D01*
X9338325Y-15381650D02*
X9376420Y-15381650D01*
X9376420Y-15381650D02*
X9395468Y-15391174D01*
X9395468Y-15391174D02*
X9404992Y-15410222D01*
X9404992Y-15410222D02*
X9404992Y-15429269D01*
X9404992Y-15429269D02*
X9309753Y-15448317D01*
X9481182Y-15505460D02*
X9500230Y-15514984D01*
X9500230Y-15514984D02*
X9538325Y-15514984D01*
X9538325Y-15514984D02*
X9557373Y-15505460D01*
X9557373Y-15505460D02*
X9566896Y-15486412D01*
X9566896Y-15486412D02*
X9566896Y-15476888D01*
X9566896Y-15476888D02*
X9557373Y-15457841D01*
X9557373Y-15457841D02*
X9538325Y-15448317D01*
X9538325Y-15448317D02*
X9509753Y-15448317D01*
X9509753Y-15448317D02*
X9490706Y-15438793D01*
X9490706Y-15438793D02*
X9481182Y-15419746D01*
X9481182Y-15419746D02*
X9481182Y-15410222D01*
X9481182Y-15410222D02*
X9490706Y-15391174D01*
X9490706Y-15391174D02*
X9509753Y-15381650D01*
X9509753Y-15381650D02*
X9538325Y-15381650D01*
X9538325Y-15381650D02*
X9557373Y-15391174D01*
X9804992Y-15438793D02*
X9957373Y-15438793D01*
X9881182Y-15514984D02*
X9881182Y-15362603D01*
X10195468Y-15334031D02*
X10204992Y-15324508D01*
X10204992Y-15324508D02*
X10224039Y-15314984D01*
X10224039Y-15314984D02*
X10271658Y-15314984D01*
X10271658Y-15314984D02*
X10290706Y-15324508D01*
X10290706Y-15324508D02*
X10300230Y-15334031D01*
X10300230Y-15334031D02*
X10309754Y-15353079D01*
X10309754Y-15353079D02*
X10309754Y-15372127D01*
X10309754Y-15372127D02*
X10300230Y-15400698D01*
X10300230Y-15400698D02*
X10185944Y-15514984D01*
X10185944Y-15514984D02*
X10309754Y-15514984D01*
X10538325Y-15505460D02*
X10557373Y-15514984D01*
X10557373Y-15514984D02*
X10595468Y-15514984D01*
X10595468Y-15514984D02*
X10614516Y-15505460D01*
X10614516Y-15505460D02*
X10624039Y-15486412D01*
X10624039Y-15486412D02*
X10624039Y-15476888D01*
X10624039Y-15476888D02*
X10614516Y-15457841D01*
X10614516Y-15457841D02*
X10595468Y-15448317D01*
X10595468Y-15448317D02*
X10566896Y-15448317D01*
X10566896Y-15448317D02*
X10547849Y-15438793D01*
X10547849Y-15438793D02*
X10538325Y-15419746D01*
X10538325Y-15419746D02*
X10538325Y-15410222D01*
X10538325Y-15410222D02*
X10547849Y-15391174D01*
X10547849Y-15391174D02*
X10566896Y-15381650D01*
X10566896Y-15381650D02*
X10595468Y-15381650D01*
X10595468Y-15381650D02*
X10614516Y-15391174D01*
X10738325Y-15514984D02*
X10719277Y-15505460D01*
X10719277Y-15505460D02*
X10709754Y-15486412D01*
X10709754Y-15486412D02*
X10709754Y-15314984D01*
X10843087Y-15514984D02*
X10824039Y-15505460D01*
X10824039Y-15505460D02*
X10814516Y-15495936D01*
X10814516Y-15495936D02*
X10804992Y-15476888D01*
X10804992Y-15476888D02*
X10804992Y-15419746D01*
X10804992Y-15419746D02*
X10814516Y-15400698D01*
X10814516Y-15400698D02*
X10824039Y-15391174D01*
X10824039Y-15391174D02*
X10843087Y-15381650D01*
X10843087Y-15381650D02*
X10871658Y-15381650D01*
X10871658Y-15381650D02*
X10890706Y-15391174D01*
X10890706Y-15391174D02*
X10900230Y-15400698D01*
X10900230Y-15400698D02*
X10909754Y-15419746D01*
X10909754Y-15419746D02*
X10909754Y-15476888D01*
X10909754Y-15476888D02*
X10900230Y-15495936D01*
X10900230Y-15495936D02*
X10890706Y-15505460D01*
X10890706Y-15505460D02*
X10871658Y-15514984D01*
X10871658Y-15514984D02*
X10843087Y-15514984D01*
X10966897Y-15381650D02*
X11043087Y-15381650D01*
X10995468Y-15314984D02*
X10995468Y-15486412D01*
X10995468Y-15486412D02*
X11004992Y-15505460D01*
X11004992Y-15505460D02*
X11024039Y-15514984D01*
X11024039Y-15514984D02*
X11043087Y-15514984D01*
X11100230Y-15505460D02*
X11119277Y-15514984D01*
X11119277Y-15514984D02*
X11157373Y-15514984D01*
X11157373Y-15514984D02*
X11176420Y-15505460D01*
X11176420Y-15505460D02*
X11185944Y-15486412D01*
X11185944Y-15486412D02*
X11185944Y-15476888D01*
X11185944Y-15476888D02*
X11176420Y-15457841D01*
X11176420Y-15457841D02*
X11157373Y-15448317D01*
X11157373Y-15448317D02*
X11128801Y-15448317D01*
X11128801Y-15448317D02*
X11109754Y-15438793D01*
X11109754Y-15438793D02*
X11100230Y-15419746D01*
X11100230Y-15419746D02*
X11100230Y-15410222D01*
X11100230Y-15410222D02*
X11109754Y-15391174D01*
X11109754Y-15391174D02*
X11128801Y-15381650D01*
X11128801Y-15381650D02*
X11157373Y-15381650D01*
X11157373Y-15381650D02*
X11176420Y-15391174D01*
X11252611Y-15591174D02*
X11262135Y-15581650D01*
X11262135Y-15581650D02*
X11281182Y-15553079D01*
X11281182Y-15553079D02*
X11290706Y-15534031D01*
X11290706Y-15534031D02*
X11300230Y-15505460D01*
X11300230Y-15505460D02*
X11309754Y-15457841D01*
X11309754Y-15457841D02*
X11309754Y-15419746D01*
X11309754Y-15419746D02*
X11300230Y-15372127D01*
X11300230Y-15372127D02*
X11290706Y-15343555D01*
X11290706Y-15343555D02*
X11281182Y-15324508D01*
X11281182Y-15324508D02*
X11262135Y-15295936D01*
X11262135Y-15295936D02*
X11252611Y-15286412D01*
D12*
X4758500Y-15637500D02*
X4858500Y-15737500D01*
X4858500Y-15637500D02*
X4758500Y-15737500D01*
X4858500Y-15687500D02*
G75*
G02*
X4758500Y-15687500I-50000J0D01*
G01*
X4758500Y-15687500D02*
G75*
G02*
X4858500Y-15687500I50000J0D01*
G01*
D11*
X5224039Y-15778984D02*
X5109753Y-15778984D01*
X5166896Y-15778984D02*
X5166896Y-15578984D01*
X5166896Y-15578984D02*
X5147848Y-15607555D01*
X5147848Y-15607555D02*
X5128801Y-15626603D01*
X5128801Y-15626603D02*
X5109753Y-15636127D01*
X5309753Y-15759936D02*
X5319277Y-15769460D01*
X5319277Y-15769460D02*
X5309753Y-15778984D01*
X5309753Y-15778984D02*
X5300229Y-15769460D01*
X5300229Y-15769460D02*
X5309753Y-15759936D01*
X5309753Y-15759936D02*
X5309753Y-15778984D01*
X5443086Y-15578984D02*
X5462134Y-15578984D01*
X5462134Y-15578984D02*
X5481182Y-15588508D01*
X5481182Y-15588508D02*
X5490705Y-15598031D01*
X5490705Y-15598031D02*
X5500229Y-15617079D01*
X5500229Y-15617079D02*
X5509753Y-15655174D01*
X5509753Y-15655174D02*
X5509753Y-15702793D01*
X5509753Y-15702793D02*
X5500229Y-15740888D01*
X5500229Y-15740888D02*
X5490705Y-15759936D01*
X5490705Y-15759936D02*
X5481182Y-15769460D01*
X5481182Y-15769460D02*
X5462134Y-15778984D01*
X5462134Y-15778984D02*
X5443086Y-15778984D01*
X5443086Y-15778984D02*
X5424039Y-15769460D01*
X5424039Y-15769460D02*
X5414515Y-15759936D01*
X5414515Y-15759936D02*
X5404991Y-15740888D01*
X5404991Y-15740888D02*
X5395467Y-15702793D01*
X5395467Y-15702793D02*
X5395467Y-15655174D01*
X5395467Y-15655174D02*
X5404991Y-15617079D01*
X5404991Y-15617079D02*
X5414515Y-15598031D01*
X5414515Y-15598031D02*
X5424039Y-15588508D01*
X5424039Y-15588508D02*
X5443086Y-15578984D01*
X5633562Y-15578984D02*
X5652610Y-15578984D01*
X5652610Y-15578984D02*
X5671658Y-15588508D01*
X5671658Y-15588508D02*
X5681182Y-15598031D01*
X5681182Y-15598031D02*
X5690705Y-15617079D01*
X5690705Y-15617079D02*
X5700229Y-15655174D01*
X5700229Y-15655174D02*
X5700229Y-15702793D01*
X5700229Y-15702793D02*
X5690705Y-15740888D01*
X5690705Y-15740888D02*
X5681182Y-15759936D01*
X5681182Y-15759936D02*
X5671658Y-15769460D01*
X5671658Y-15769460D02*
X5652610Y-15778984D01*
X5652610Y-15778984D02*
X5633562Y-15778984D01*
X5633562Y-15778984D02*
X5614515Y-15769460D01*
X5614515Y-15769460D02*
X5604991Y-15759936D01*
X5604991Y-15759936D02*
X5595467Y-15740888D01*
X5595467Y-15740888D02*
X5585944Y-15702793D01*
X5585944Y-15702793D02*
X5585944Y-15655174D01*
X5585944Y-15655174D02*
X5595467Y-15617079D01*
X5595467Y-15617079D02*
X5604991Y-15598031D01*
X5604991Y-15598031D02*
X5614515Y-15588508D01*
X5614515Y-15588508D02*
X5633562Y-15578984D01*
X5824039Y-15578984D02*
X5843086Y-15578984D01*
X5843086Y-15578984D02*
X5862134Y-15588508D01*
X5862134Y-15588508D02*
X5871658Y-15598031D01*
X5871658Y-15598031D02*
X5881182Y-15617079D01*
X5881182Y-15617079D02*
X5890705Y-15655174D01*
X5890705Y-15655174D02*
X5890705Y-15702793D01*
X5890705Y-15702793D02*
X5881182Y-15740888D01*
X5881182Y-15740888D02*
X5871658Y-15759936D01*
X5871658Y-15759936D02*
X5862134Y-15769460D01*
X5862134Y-15769460D02*
X5843086Y-15778984D01*
X5843086Y-15778984D02*
X5824039Y-15778984D01*
X5824039Y-15778984D02*
X5804991Y-15769460D01*
X5804991Y-15769460D02*
X5795467Y-15759936D01*
X5795467Y-15759936D02*
X5785943Y-15740888D01*
X5785943Y-15740888D02*
X5776420Y-15702793D01*
X5776420Y-15702793D02*
X5776420Y-15655174D01*
X5776420Y-15655174D02*
X5785943Y-15617079D01*
X5785943Y-15617079D02*
X5795467Y-15598031D01*
X5795467Y-15598031D02*
X5804991Y-15588508D01*
X5804991Y-15588508D02*
X5824039Y-15578984D01*
X5976420Y-15778984D02*
X5976420Y-15645650D01*
X5976420Y-15664698D02*
X5985943Y-15655174D01*
X5985943Y-15655174D02*
X6004991Y-15645650D01*
X6004991Y-15645650D02*
X6033563Y-15645650D01*
X6033563Y-15645650D02*
X6052610Y-15655174D01*
X6052610Y-15655174D02*
X6062134Y-15674222D01*
X6062134Y-15674222D02*
X6062134Y-15778984D01*
X6062134Y-15674222D02*
X6071658Y-15655174D01*
X6071658Y-15655174D02*
X6090705Y-15645650D01*
X6090705Y-15645650D02*
X6119277Y-15645650D01*
X6119277Y-15645650D02*
X6138324Y-15655174D01*
X6138324Y-15655174D02*
X6147848Y-15674222D01*
X6147848Y-15674222D02*
X6147848Y-15778984D01*
X6243086Y-15778984D02*
X6243086Y-15645650D01*
X6243086Y-15664698D02*
X6252610Y-15655174D01*
X6252610Y-15655174D02*
X6271658Y-15645650D01*
X6271658Y-15645650D02*
X6300229Y-15645650D01*
X6300229Y-15645650D02*
X6319277Y-15655174D01*
X6319277Y-15655174D02*
X6328801Y-15674222D01*
X6328801Y-15674222D02*
X6328801Y-15778984D01*
X6328801Y-15674222D02*
X6338324Y-15655174D01*
X6338324Y-15655174D02*
X6357372Y-15645650D01*
X6357372Y-15645650D02*
X6385943Y-15645650D01*
X6385943Y-15645650D02*
X6404991Y-15655174D01*
X6404991Y-15655174D02*
X6414515Y-15674222D01*
X6414515Y-15674222D02*
X6414515Y-15778984D01*
X6804991Y-15569460D02*
X6633563Y-15826603D01*
X7062134Y-15578984D02*
X7081182Y-15578984D01*
X7081182Y-15578984D02*
X7100229Y-15588508D01*
X7100229Y-15588508D02*
X7109753Y-15598031D01*
X7109753Y-15598031D02*
X7119277Y-15617079D01*
X7119277Y-15617079D02*
X7128801Y-15655174D01*
X7128801Y-15655174D02*
X7128801Y-15702793D01*
X7128801Y-15702793D02*
X7119277Y-15740888D01*
X7119277Y-15740888D02*
X7109753Y-15759936D01*
X7109753Y-15759936D02*
X7100229Y-15769460D01*
X7100229Y-15769460D02*
X7081182Y-15778984D01*
X7081182Y-15778984D02*
X7062134Y-15778984D01*
X7062134Y-15778984D02*
X7043086Y-15769460D01*
X7043086Y-15769460D02*
X7033563Y-15759936D01*
X7033563Y-15759936D02*
X7024039Y-15740888D01*
X7024039Y-15740888D02*
X7014515Y-15702793D01*
X7014515Y-15702793D02*
X7014515Y-15655174D01*
X7014515Y-15655174D02*
X7024039Y-15617079D01*
X7024039Y-15617079D02*
X7033563Y-15598031D01*
X7033563Y-15598031D02*
X7043086Y-15588508D01*
X7043086Y-15588508D02*
X7062134Y-15578984D01*
X7214515Y-15759936D02*
X7224039Y-15769460D01*
X7224039Y-15769460D02*
X7214515Y-15778984D01*
X7214515Y-15778984D02*
X7204991Y-15769460D01*
X7204991Y-15769460D02*
X7214515Y-15759936D01*
X7214515Y-15759936D02*
X7214515Y-15778984D01*
X7347848Y-15578984D02*
X7366896Y-15578984D01*
X7366896Y-15578984D02*
X7385944Y-15588508D01*
X7385944Y-15588508D02*
X7395467Y-15598031D01*
X7395467Y-15598031D02*
X7404991Y-15617079D01*
X7404991Y-15617079D02*
X7414515Y-15655174D01*
X7414515Y-15655174D02*
X7414515Y-15702793D01*
X7414515Y-15702793D02*
X7404991Y-15740888D01*
X7404991Y-15740888D02*
X7395467Y-15759936D01*
X7395467Y-15759936D02*
X7385944Y-15769460D01*
X7385944Y-15769460D02*
X7366896Y-15778984D01*
X7366896Y-15778984D02*
X7347848Y-15778984D01*
X7347848Y-15778984D02*
X7328801Y-15769460D01*
X7328801Y-15769460D02*
X7319277Y-15759936D01*
X7319277Y-15759936D02*
X7309753Y-15740888D01*
X7309753Y-15740888D02*
X7300229Y-15702793D01*
X7300229Y-15702793D02*
X7300229Y-15655174D01*
X7300229Y-15655174D02*
X7309753Y-15617079D01*
X7309753Y-15617079D02*
X7319277Y-15598031D01*
X7319277Y-15598031D02*
X7328801Y-15588508D01*
X7328801Y-15588508D02*
X7347848Y-15578984D01*
X7481182Y-15578984D02*
X7604991Y-15578984D01*
X7604991Y-15578984D02*
X7538325Y-15655174D01*
X7538325Y-15655174D02*
X7566896Y-15655174D01*
X7566896Y-15655174D02*
X7585944Y-15664698D01*
X7585944Y-15664698D02*
X7595467Y-15674222D01*
X7595467Y-15674222D02*
X7604991Y-15693269D01*
X7604991Y-15693269D02*
X7604991Y-15740888D01*
X7604991Y-15740888D02*
X7595467Y-15759936D01*
X7595467Y-15759936D02*
X7585944Y-15769460D01*
X7585944Y-15769460D02*
X7566896Y-15778984D01*
X7566896Y-15778984D02*
X7509753Y-15778984D01*
X7509753Y-15778984D02*
X7490706Y-15769460D01*
X7490706Y-15769460D02*
X7481182Y-15759936D01*
X7700229Y-15778984D02*
X7738325Y-15778984D01*
X7738325Y-15778984D02*
X7757372Y-15769460D01*
X7757372Y-15769460D02*
X7766896Y-15759936D01*
X7766896Y-15759936D02*
X7785944Y-15731365D01*
X7785944Y-15731365D02*
X7795467Y-15693269D01*
X7795467Y-15693269D02*
X7795467Y-15617079D01*
X7795467Y-15617079D02*
X7785944Y-15598031D01*
X7785944Y-15598031D02*
X7776420Y-15588508D01*
X7776420Y-15588508D02*
X7757372Y-15578984D01*
X7757372Y-15578984D02*
X7719277Y-15578984D01*
X7719277Y-15578984D02*
X7700229Y-15588508D01*
X7700229Y-15588508D02*
X7690706Y-15598031D01*
X7690706Y-15598031D02*
X7681182Y-15617079D01*
X7681182Y-15617079D02*
X7681182Y-15664698D01*
X7681182Y-15664698D02*
X7690706Y-15683746D01*
X7690706Y-15683746D02*
X7700229Y-15693269D01*
X7700229Y-15693269D02*
X7719277Y-15702793D01*
X7719277Y-15702793D02*
X7757372Y-15702793D01*
X7757372Y-15702793D02*
X7776420Y-15693269D01*
X7776420Y-15693269D02*
X7785944Y-15683746D01*
X7785944Y-15683746D02*
X7795467Y-15664698D01*
X7966896Y-15645650D02*
X7966896Y-15778984D01*
X7919277Y-15569460D02*
X7871658Y-15712317D01*
X7871658Y-15712317D02*
X7995467Y-15712317D01*
X8062134Y-15578984D02*
X8062134Y-15617079D01*
X8138325Y-15578984D02*
X8138325Y-15617079D01*
X8433563Y-15855174D02*
X8424039Y-15845650D01*
X8424039Y-15845650D02*
X8404991Y-15817079D01*
X8404991Y-15817079D02*
X8395468Y-15798031D01*
X8395468Y-15798031D02*
X8385944Y-15769460D01*
X8385944Y-15769460D02*
X8376420Y-15721841D01*
X8376420Y-15721841D02*
X8376420Y-15683746D01*
X8376420Y-15683746D02*
X8385944Y-15636127D01*
X8385944Y-15636127D02*
X8395468Y-15607555D01*
X8395468Y-15607555D02*
X8404991Y-15588508D01*
X8404991Y-15588508D02*
X8424039Y-15559936D01*
X8424039Y-15559936D02*
X8433563Y-15550412D01*
X8595468Y-15645650D02*
X8595468Y-15778984D01*
X8547849Y-15569460D02*
X8500230Y-15712317D01*
X8500230Y-15712317D02*
X8624039Y-15712317D01*
X8690706Y-15598031D02*
X8700230Y-15588508D01*
X8700230Y-15588508D02*
X8719277Y-15578984D01*
X8719277Y-15578984D02*
X8766896Y-15578984D01*
X8766896Y-15578984D02*
X8785944Y-15588508D01*
X8785944Y-15588508D02*
X8795468Y-15598031D01*
X8795468Y-15598031D02*
X8804991Y-15617079D01*
X8804991Y-15617079D02*
X8804991Y-15636127D01*
X8804991Y-15636127D02*
X8795468Y-15664698D01*
X8795468Y-15664698D02*
X8681182Y-15778984D01*
X8681182Y-15778984D02*
X8804991Y-15778984D01*
X9043087Y-15778984D02*
X9043087Y-15578984D01*
X9128801Y-15778984D02*
X9128801Y-15674222D01*
X9128801Y-15674222D02*
X9119277Y-15655174D01*
X9119277Y-15655174D02*
X9100230Y-15645650D01*
X9100230Y-15645650D02*
X9071658Y-15645650D01*
X9071658Y-15645650D02*
X9052611Y-15655174D01*
X9052611Y-15655174D02*
X9043087Y-15664698D01*
X9252611Y-15778984D02*
X9233563Y-15769460D01*
X9233563Y-15769460D02*
X9224039Y-15759936D01*
X9224039Y-15759936D02*
X9214515Y-15740888D01*
X9214515Y-15740888D02*
X9214515Y-15683746D01*
X9214515Y-15683746D02*
X9224039Y-15664698D01*
X9224039Y-15664698D02*
X9233563Y-15655174D01*
X9233563Y-15655174D02*
X9252611Y-15645650D01*
X9252611Y-15645650D02*
X9281182Y-15645650D01*
X9281182Y-15645650D02*
X9300230Y-15655174D01*
X9300230Y-15655174D02*
X9309753Y-15664698D01*
X9309753Y-15664698D02*
X9319277Y-15683746D01*
X9319277Y-15683746D02*
X9319277Y-15740888D01*
X9319277Y-15740888D02*
X9309753Y-15759936D01*
X9309753Y-15759936D02*
X9300230Y-15769460D01*
X9300230Y-15769460D02*
X9281182Y-15778984D01*
X9281182Y-15778984D02*
X9252611Y-15778984D01*
X9433563Y-15778984D02*
X9414515Y-15769460D01*
X9414515Y-15769460D02*
X9404992Y-15750412D01*
X9404992Y-15750412D02*
X9404992Y-15578984D01*
X9585944Y-15769460D02*
X9566896Y-15778984D01*
X9566896Y-15778984D02*
X9528801Y-15778984D01*
X9528801Y-15778984D02*
X9509753Y-15769460D01*
X9509753Y-15769460D02*
X9500230Y-15750412D01*
X9500230Y-15750412D02*
X9500230Y-15674222D01*
X9500230Y-15674222D02*
X9509753Y-15655174D01*
X9509753Y-15655174D02*
X9528801Y-15645650D01*
X9528801Y-15645650D02*
X9566896Y-15645650D01*
X9566896Y-15645650D02*
X9585944Y-15655174D01*
X9585944Y-15655174D02*
X9595468Y-15674222D01*
X9595468Y-15674222D02*
X9595468Y-15693269D01*
X9595468Y-15693269D02*
X9500230Y-15712317D01*
X9671658Y-15769460D02*
X9690706Y-15778984D01*
X9690706Y-15778984D02*
X9728801Y-15778984D01*
X9728801Y-15778984D02*
X9747849Y-15769460D01*
X9747849Y-15769460D02*
X9757373Y-15750412D01*
X9757373Y-15750412D02*
X9757373Y-15740888D01*
X9757373Y-15740888D02*
X9747849Y-15721841D01*
X9747849Y-15721841D02*
X9728801Y-15712317D01*
X9728801Y-15712317D02*
X9700230Y-15712317D01*
X9700230Y-15712317D02*
X9681182Y-15702793D01*
X9681182Y-15702793D02*
X9671658Y-15683746D01*
X9671658Y-15683746D02*
X9671658Y-15674222D01*
X9671658Y-15674222D02*
X9681182Y-15655174D01*
X9681182Y-15655174D02*
X9700230Y-15645650D01*
X9700230Y-15645650D02*
X9728801Y-15645650D01*
X9728801Y-15645650D02*
X9747849Y-15655174D01*
X9824039Y-15855174D02*
X9833563Y-15845650D01*
X9833563Y-15845650D02*
X9852611Y-15817079D01*
X9852611Y-15817079D02*
X9862134Y-15798031D01*
X9862134Y-15798031D02*
X9871658Y-15769460D01*
X9871658Y-15769460D02*
X9881182Y-15721841D01*
X9881182Y-15721841D02*
X9881182Y-15683746D01*
X9881182Y-15683746D02*
X9871658Y-15636127D01*
X9871658Y-15636127D02*
X9862134Y-15607555D01*
X9862134Y-15607555D02*
X9852611Y-15588508D01*
X9852611Y-15588508D02*
X9833563Y-15559936D01*
X9833563Y-15559936D02*
X9824039Y-15550412D01*
D13*
X4748500Y-15896500D02*
X4858500Y-16006500D01*
X4858500Y-15896500D02*
X4748500Y-16006500D01*
X4803500Y-15896500D02*
X4803500Y-16006500D01*
X4748500Y-15951500D02*
X4858500Y-15951500D01*
D11*
X5224039Y-16042984D02*
X5109753Y-16042984D01*
X5166896Y-16042984D02*
X5166896Y-15842984D01*
X5166896Y-15842984D02*
X5147848Y-15871555D01*
X5147848Y-15871555D02*
X5128801Y-15890603D01*
X5128801Y-15890603D02*
X5109753Y-15900127D01*
X5309753Y-16023936D02*
X5319277Y-16033460D01*
X5319277Y-16033460D02*
X5309753Y-16042984D01*
X5309753Y-16042984D02*
X5300229Y-16033460D01*
X5300229Y-16033460D02*
X5309753Y-16023936D01*
X5309753Y-16023936D02*
X5309753Y-16042984D01*
X5509753Y-16042984D02*
X5395467Y-16042984D01*
X5452610Y-16042984D02*
X5452610Y-15842984D01*
X5452610Y-15842984D02*
X5433563Y-15871555D01*
X5433563Y-15871555D02*
X5414515Y-15890603D01*
X5414515Y-15890603D02*
X5395467Y-15900127D01*
X5633562Y-15842984D02*
X5652610Y-15842984D01*
X5652610Y-15842984D02*
X5671658Y-15852508D01*
X5671658Y-15852508D02*
X5681182Y-15862031D01*
X5681182Y-15862031D02*
X5690705Y-15881079D01*
X5690705Y-15881079D02*
X5700229Y-15919174D01*
X5700229Y-15919174D02*
X5700229Y-15966793D01*
X5700229Y-15966793D02*
X5690705Y-16004888D01*
X5690705Y-16004888D02*
X5681182Y-16023936D01*
X5681182Y-16023936D02*
X5671658Y-16033460D01*
X5671658Y-16033460D02*
X5652610Y-16042984D01*
X5652610Y-16042984D02*
X5633562Y-16042984D01*
X5633562Y-16042984D02*
X5614515Y-16033460D01*
X5614515Y-16033460D02*
X5604991Y-16023936D01*
X5604991Y-16023936D02*
X5595467Y-16004888D01*
X5595467Y-16004888D02*
X5585944Y-15966793D01*
X5585944Y-15966793D02*
X5585944Y-15919174D01*
X5585944Y-15919174D02*
X5595467Y-15881079D01*
X5595467Y-15881079D02*
X5604991Y-15862031D01*
X5604991Y-15862031D02*
X5614515Y-15852508D01*
X5614515Y-15852508D02*
X5633562Y-15842984D01*
X5824039Y-15842984D02*
X5843086Y-15842984D01*
X5843086Y-15842984D02*
X5862134Y-15852508D01*
X5862134Y-15852508D02*
X5871658Y-15862031D01*
X5871658Y-15862031D02*
X5881182Y-15881079D01*
X5881182Y-15881079D02*
X5890705Y-15919174D01*
X5890705Y-15919174D02*
X5890705Y-15966793D01*
X5890705Y-15966793D02*
X5881182Y-16004888D01*
X5881182Y-16004888D02*
X5871658Y-16023936D01*
X5871658Y-16023936D02*
X5862134Y-16033460D01*
X5862134Y-16033460D02*
X5843086Y-16042984D01*
X5843086Y-16042984D02*
X5824039Y-16042984D01*
X5824039Y-16042984D02*
X5804991Y-16033460D01*
X5804991Y-16033460D02*
X5795467Y-16023936D01*
X5795467Y-16023936D02*
X5785943Y-16004888D01*
X5785943Y-16004888D02*
X5776420Y-15966793D01*
X5776420Y-15966793D02*
X5776420Y-15919174D01*
X5776420Y-15919174D02*
X5785943Y-15881079D01*
X5785943Y-15881079D02*
X5795467Y-15862031D01*
X5795467Y-15862031D02*
X5804991Y-15852508D01*
X5804991Y-15852508D02*
X5824039Y-15842984D01*
X5976420Y-16042984D02*
X5976420Y-15909650D01*
X5976420Y-15928698D02*
X5985943Y-15919174D01*
X5985943Y-15919174D02*
X6004991Y-15909650D01*
X6004991Y-15909650D02*
X6033563Y-15909650D01*
X6033563Y-15909650D02*
X6052610Y-15919174D01*
X6052610Y-15919174D02*
X6062134Y-15938222D01*
X6062134Y-15938222D02*
X6062134Y-16042984D01*
X6062134Y-15938222D02*
X6071658Y-15919174D01*
X6071658Y-15919174D02*
X6090705Y-15909650D01*
X6090705Y-15909650D02*
X6119277Y-15909650D01*
X6119277Y-15909650D02*
X6138324Y-15919174D01*
X6138324Y-15919174D02*
X6147848Y-15938222D01*
X6147848Y-15938222D02*
X6147848Y-16042984D01*
X6243086Y-16042984D02*
X6243086Y-15909650D01*
X6243086Y-15928698D02*
X6252610Y-15919174D01*
X6252610Y-15919174D02*
X6271658Y-15909650D01*
X6271658Y-15909650D02*
X6300229Y-15909650D01*
X6300229Y-15909650D02*
X6319277Y-15919174D01*
X6319277Y-15919174D02*
X6328801Y-15938222D01*
X6328801Y-15938222D02*
X6328801Y-16042984D01*
X6328801Y-15938222D02*
X6338324Y-15919174D01*
X6338324Y-15919174D02*
X6357372Y-15909650D01*
X6357372Y-15909650D02*
X6385943Y-15909650D01*
X6385943Y-15909650D02*
X6404991Y-15919174D01*
X6404991Y-15919174D02*
X6414515Y-15938222D01*
X6414515Y-15938222D02*
X6414515Y-16042984D01*
X6804991Y-15833460D02*
X6633563Y-16090603D01*
X7062134Y-15842984D02*
X7081182Y-15842984D01*
X7081182Y-15842984D02*
X7100229Y-15852508D01*
X7100229Y-15852508D02*
X7109753Y-15862031D01*
X7109753Y-15862031D02*
X7119277Y-15881079D01*
X7119277Y-15881079D02*
X7128801Y-15919174D01*
X7128801Y-15919174D02*
X7128801Y-15966793D01*
X7128801Y-15966793D02*
X7119277Y-16004888D01*
X7119277Y-16004888D02*
X7109753Y-16023936D01*
X7109753Y-16023936D02*
X7100229Y-16033460D01*
X7100229Y-16033460D02*
X7081182Y-16042984D01*
X7081182Y-16042984D02*
X7062134Y-16042984D01*
X7062134Y-16042984D02*
X7043086Y-16033460D01*
X7043086Y-16033460D02*
X7033563Y-16023936D01*
X7033563Y-16023936D02*
X7024039Y-16004888D01*
X7024039Y-16004888D02*
X7014515Y-15966793D01*
X7014515Y-15966793D02*
X7014515Y-15919174D01*
X7014515Y-15919174D02*
X7024039Y-15881079D01*
X7024039Y-15881079D02*
X7033563Y-15862031D01*
X7033563Y-15862031D02*
X7043086Y-15852508D01*
X7043086Y-15852508D02*
X7062134Y-15842984D01*
X7214515Y-16023936D02*
X7224039Y-16033460D01*
X7224039Y-16033460D02*
X7214515Y-16042984D01*
X7214515Y-16042984D02*
X7204991Y-16033460D01*
X7204991Y-16033460D02*
X7214515Y-16023936D01*
X7214515Y-16023936D02*
X7214515Y-16042984D01*
X7347848Y-15842984D02*
X7366896Y-15842984D01*
X7366896Y-15842984D02*
X7385944Y-15852508D01*
X7385944Y-15852508D02*
X7395467Y-15862031D01*
X7395467Y-15862031D02*
X7404991Y-15881079D01*
X7404991Y-15881079D02*
X7414515Y-15919174D01*
X7414515Y-15919174D02*
X7414515Y-15966793D01*
X7414515Y-15966793D02*
X7404991Y-16004888D01*
X7404991Y-16004888D02*
X7395467Y-16023936D01*
X7395467Y-16023936D02*
X7385944Y-16033460D01*
X7385944Y-16033460D02*
X7366896Y-16042984D01*
X7366896Y-16042984D02*
X7347848Y-16042984D01*
X7347848Y-16042984D02*
X7328801Y-16033460D01*
X7328801Y-16033460D02*
X7319277Y-16023936D01*
X7319277Y-16023936D02*
X7309753Y-16004888D01*
X7309753Y-16004888D02*
X7300229Y-15966793D01*
X7300229Y-15966793D02*
X7300229Y-15919174D01*
X7300229Y-15919174D02*
X7309753Y-15881079D01*
X7309753Y-15881079D02*
X7319277Y-15862031D01*
X7319277Y-15862031D02*
X7328801Y-15852508D01*
X7328801Y-15852508D02*
X7347848Y-15842984D01*
X7585944Y-15909650D02*
X7585944Y-16042984D01*
X7538325Y-15833460D02*
X7490706Y-15976317D01*
X7490706Y-15976317D02*
X7614515Y-15976317D01*
X7671658Y-15842984D02*
X7795467Y-15842984D01*
X7795467Y-15842984D02*
X7728801Y-15919174D01*
X7728801Y-15919174D02*
X7757372Y-15919174D01*
X7757372Y-15919174D02*
X7776420Y-15928698D01*
X7776420Y-15928698D02*
X7785944Y-15938222D01*
X7785944Y-15938222D02*
X7795467Y-15957269D01*
X7795467Y-15957269D02*
X7795467Y-16004888D01*
X7795467Y-16004888D02*
X7785944Y-16023936D01*
X7785944Y-16023936D02*
X7776420Y-16033460D01*
X7776420Y-16033460D02*
X7757372Y-16042984D01*
X7757372Y-16042984D02*
X7700229Y-16042984D01*
X7700229Y-16042984D02*
X7681182Y-16033460D01*
X7681182Y-16033460D02*
X7671658Y-16023936D01*
X7862134Y-15842984D02*
X7985944Y-15842984D01*
X7985944Y-15842984D02*
X7919277Y-15919174D01*
X7919277Y-15919174D02*
X7947848Y-15919174D01*
X7947848Y-15919174D02*
X7966896Y-15928698D01*
X7966896Y-15928698D02*
X7976420Y-15938222D01*
X7976420Y-15938222D02*
X7985944Y-15957269D01*
X7985944Y-15957269D02*
X7985944Y-16004888D01*
X7985944Y-16004888D02*
X7976420Y-16023936D01*
X7976420Y-16023936D02*
X7966896Y-16033460D01*
X7966896Y-16033460D02*
X7947848Y-16042984D01*
X7947848Y-16042984D02*
X7890706Y-16042984D01*
X7890706Y-16042984D02*
X7871658Y-16033460D01*
X7871658Y-16033460D02*
X7862134Y-16023936D01*
X8062134Y-15842984D02*
X8062134Y-15881079D01*
X8138325Y-15842984D02*
X8138325Y-15881079D01*
X8433563Y-16119174D02*
X8424039Y-16109650D01*
X8424039Y-16109650D02*
X8404991Y-16081079D01*
X8404991Y-16081079D02*
X8395468Y-16062031D01*
X8395468Y-16062031D02*
X8385944Y-16033460D01*
X8385944Y-16033460D02*
X8376420Y-15985841D01*
X8376420Y-15985841D02*
X8376420Y-15947746D01*
X8376420Y-15947746D02*
X8385944Y-15900127D01*
X8385944Y-15900127D02*
X8395468Y-15871555D01*
X8395468Y-15871555D02*
X8404991Y-15852508D01*
X8404991Y-15852508D02*
X8424039Y-15823936D01*
X8424039Y-15823936D02*
X8433563Y-15814412D01*
X8604991Y-15842984D02*
X8509753Y-15842984D01*
X8509753Y-15842984D02*
X8500230Y-15938222D01*
X8500230Y-15938222D02*
X8509753Y-15928698D01*
X8509753Y-15928698D02*
X8528801Y-15919174D01*
X8528801Y-15919174D02*
X8576420Y-15919174D01*
X8576420Y-15919174D02*
X8595468Y-15928698D01*
X8595468Y-15928698D02*
X8604991Y-15938222D01*
X8604991Y-15938222D02*
X8614515Y-15957269D01*
X8614515Y-15957269D02*
X8614515Y-16004888D01*
X8614515Y-16004888D02*
X8604991Y-16023936D01*
X8604991Y-16023936D02*
X8595468Y-16033460D01*
X8595468Y-16033460D02*
X8576420Y-16042984D01*
X8576420Y-16042984D02*
X8528801Y-16042984D01*
X8528801Y-16042984D02*
X8509753Y-16033460D01*
X8509753Y-16033460D02*
X8500230Y-16023936D01*
X8852611Y-16042984D02*
X8852611Y-15842984D01*
X8938325Y-16042984D02*
X8938325Y-15938222D01*
X8938325Y-15938222D02*
X8928801Y-15919174D01*
X8928801Y-15919174D02*
X8909753Y-15909650D01*
X8909753Y-15909650D02*
X8881182Y-15909650D01*
X8881182Y-15909650D02*
X8862134Y-15919174D01*
X8862134Y-15919174D02*
X8852611Y-15928698D01*
X9062134Y-16042984D02*
X9043087Y-16033460D01*
X9043087Y-16033460D02*
X9033563Y-16023936D01*
X9033563Y-16023936D02*
X9024039Y-16004888D01*
X9024039Y-16004888D02*
X9024039Y-15947746D01*
X9024039Y-15947746D02*
X9033563Y-15928698D01*
X9033563Y-15928698D02*
X9043087Y-15919174D01*
X9043087Y-15919174D02*
X9062134Y-15909650D01*
X9062134Y-15909650D02*
X9090706Y-15909650D01*
X9090706Y-15909650D02*
X9109753Y-15919174D01*
X9109753Y-15919174D02*
X9119277Y-15928698D01*
X9119277Y-15928698D02*
X9128801Y-15947746D01*
X9128801Y-15947746D02*
X9128801Y-16004888D01*
X9128801Y-16004888D02*
X9119277Y-16023936D01*
X9119277Y-16023936D02*
X9109753Y-16033460D01*
X9109753Y-16033460D02*
X9090706Y-16042984D01*
X9090706Y-16042984D02*
X9062134Y-16042984D01*
X9243087Y-16042984D02*
X9224039Y-16033460D01*
X9224039Y-16033460D02*
X9214515Y-16014412D01*
X9214515Y-16014412D02*
X9214515Y-15842984D01*
X9395468Y-16033460D02*
X9376420Y-16042984D01*
X9376420Y-16042984D02*
X9338325Y-16042984D01*
X9338325Y-16042984D02*
X9319277Y-16033460D01*
X9319277Y-16033460D02*
X9309753Y-16014412D01*
X9309753Y-16014412D02*
X9309753Y-15938222D01*
X9309753Y-15938222D02*
X9319277Y-15919174D01*
X9319277Y-15919174D02*
X9338325Y-15909650D01*
X9338325Y-15909650D02*
X9376420Y-15909650D01*
X9376420Y-15909650D02*
X9395468Y-15919174D01*
X9395468Y-15919174D02*
X9404992Y-15938222D01*
X9404992Y-15938222D02*
X9404992Y-15957269D01*
X9404992Y-15957269D02*
X9309753Y-15976317D01*
X9481182Y-16033460D02*
X9500230Y-16042984D01*
X9500230Y-16042984D02*
X9538325Y-16042984D01*
X9538325Y-16042984D02*
X9557373Y-16033460D01*
X9557373Y-16033460D02*
X9566896Y-16014412D01*
X9566896Y-16014412D02*
X9566896Y-16004888D01*
X9566896Y-16004888D02*
X9557373Y-15985841D01*
X9557373Y-15985841D02*
X9538325Y-15976317D01*
X9538325Y-15976317D02*
X9509753Y-15976317D01*
X9509753Y-15976317D02*
X9490706Y-15966793D01*
X9490706Y-15966793D02*
X9481182Y-15947746D01*
X9481182Y-15947746D02*
X9481182Y-15938222D01*
X9481182Y-15938222D02*
X9490706Y-15919174D01*
X9490706Y-15919174D02*
X9509753Y-15909650D01*
X9509753Y-15909650D02*
X9538325Y-15909650D01*
X9538325Y-15909650D02*
X9557373Y-15919174D01*
X9633563Y-16119174D02*
X9643087Y-16109650D01*
X9643087Y-16109650D02*
X9662134Y-16081079D01*
X9662134Y-16081079D02*
X9671658Y-16062031D01*
X9671658Y-16062031D02*
X9681182Y-16033460D01*
X9681182Y-16033460D02*
X9690706Y-15985841D01*
X9690706Y-15985841D02*
X9690706Y-15947746D01*
X9690706Y-15947746D02*
X9681182Y-15900127D01*
X9681182Y-15900127D02*
X9671658Y-15871555D01*
X9671658Y-15871555D02*
X9662134Y-15852508D01*
X9662134Y-15852508D02*
X9643087Y-15823936D01*
X9643087Y-15823936D02*
X9633563Y-15814412D01*
D14*
X4743500Y-16158000D02*
X4858500Y-16273000D01*
X4858500Y-16158000D02*
X4743500Y-16273000D01*
X4841659Y-16256159D02*
X4841659Y-16174841D01*
X4760341Y-16174841D01*
X4760341Y-16256159D01*
X4841659Y-16256159D01*
D11*
X5224039Y-16306984D02*
X5109753Y-16306984D01*
X5166896Y-16306984D02*
X5166896Y-16106984D01*
X5166896Y-16106984D02*
X5147848Y-16135555D01*
X5147848Y-16135555D02*
X5128801Y-16154603D01*
X5128801Y-16154603D02*
X5109753Y-16164127D01*
X5309753Y-16287936D02*
X5319277Y-16297460D01*
X5319277Y-16297460D02*
X5309753Y-16306984D01*
X5309753Y-16306984D02*
X5300229Y-16297460D01*
X5300229Y-16297460D02*
X5309753Y-16287936D01*
X5309753Y-16287936D02*
X5309753Y-16306984D01*
X5509753Y-16306984D02*
X5395467Y-16306984D01*
X5452610Y-16306984D02*
X5452610Y-16106984D01*
X5452610Y-16106984D02*
X5433563Y-16135555D01*
X5433563Y-16135555D02*
X5414515Y-16154603D01*
X5414515Y-16154603D02*
X5395467Y-16164127D01*
X5690705Y-16106984D02*
X5595467Y-16106984D01*
X5595467Y-16106984D02*
X5585944Y-16202222D01*
X5585944Y-16202222D02*
X5595467Y-16192698D01*
X5595467Y-16192698D02*
X5614515Y-16183174D01*
X5614515Y-16183174D02*
X5662134Y-16183174D01*
X5662134Y-16183174D02*
X5681182Y-16192698D01*
X5681182Y-16192698D02*
X5690705Y-16202222D01*
X5690705Y-16202222D02*
X5700229Y-16221269D01*
X5700229Y-16221269D02*
X5700229Y-16268888D01*
X5700229Y-16268888D02*
X5690705Y-16287936D01*
X5690705Y-16287936D02*
X5681182Y-16297460D01*
X5681182Y-16297460D02*
X5662134Y-16306984D01*
X5662134Y-16306984D02*
X5614515Y-16306984D01*
X5614515Y-16306984D02*
X5595467Y-16297460D01*
X5595467Y-16297460D02*
X5585944Y-16287936D01*
X5824039Y-16106984D02*
X5843086Y-16106984D01*
X5843086Y-16106984D02*
X5862134Y-16116508D01*
X5862134Y-16116508D02*
X5871658Y-16126031D01*
X5871658Y-16126031D02*
X5881182Y-16145079D01*
X5881182Y-16145079D02*
X5890705Y-16183174D01*
X5890705Y-16183174D02*
X5890705Y-16230793D01*
X5890705Y-16230793D02*
X5881182Y-16268888D01*
X5881182Y-16268888D02*
X5871658Y-16287936D01*
X5871658Y-16287936D02*
X5862134Y-16297460D01*
X5862134Y-16297460D02*
X5843086Y-16306984D01*
X5843086Y-16306984D02*
X5824039Y-16306984D01*
X5824039Y-16306984D02*
X5804991Y-16297460D01*
X5804991Y-16297460D02*
X5795467Y-16287936D01*
X5795467Y-16287936D02*
X5785943Y-16268888D01*
X5785943Y-16268888D02*
X5776420Y-16230793D01*
X5776420Y-16230793D02*
X5776420Y-16183174D01*
X5776420Y-16183174D02*
X5785943Y-16145079D01*
X5785943Y-16145079D02*
X5795467Y-16126031D01*
X5795467Y-16126031D02*
X5804991Y-16116508D01*
X5804991Y-16116508D02*
X5824039Y-16106984D01*
X5976420Y-16306984D02*
X5976420Y-16173650D01*
X5976420Y-16192698D02*
X5985943Y-16183174D01*
X5985943Y-16183174D02*
X6004991Y-16173650D01*
X6004991Y-16173650D02*
X6033563Y-16173650D01*
X6033563Y-16173650D02*
X6052610Y-16183174D01*
X6052610Y-16183174D02*
X6062134Y-16202222D01*
X6062134Y-16202222D02*
X6062134Y-16306984D01*
X6062134Y-16202222D02*
X6071658Y-16183174D01*
X6071658Y-16183174D02*
X6090705Y-16173650D01*
X6090705Y-16173650D02*
X6119277Y-16173650D01*
X6119277Y-16173650D02*
X6138324Y-16183174D01*
X6138324Y-16183174D02*
X6147848Y-16202222D01*
X6147848Y-16202222D02*
X6147848Y-16306984D01*
X6243086Y-16306984D02*
X6243086Y-16173650D01*
X6243086Y-16192698D02*
X6252610Y-16183174D01*
X6252610Y-16183174D02*
X6271658Y-16173650D01*
X6271658Y-16173650D02*
X6300229Y-16173650D01*
X6300229Y-16173650D02*
X6319277Y-16183174D01*
X6319277Y-16183174D02*
X6328801Y-16202222D01*
X6328801Y-16202222D02*
X6328801Y-16306984D01*
X6328801Y-16202222D02*
X6338324Y-16183174D01*
X6338324Y-16183174D02*
X6357372Y-16173650D01*
X6357372Y-16173650D02*
X6385943Y-16173650D01*
X6385943Y-16173650D02*
X6404991Y-16183174D01*
X6404991Y-16183174D02*
X6414515Y-16202222D01*
X6414515Y-16202222D02*
X6414515Y-16306984D01*
X6804991Y-16097460D02*
X6633563Y-16354603D01*
X7062134Y-16106984D02*
X7081182Y-16106984D01*
X7081182Y-16106984D02*
X7100229Y-16116508D01*
X7100229Y-16116508D02*
X7109753Y-16126031D01*
X7109753Y-16126031D02*
X7119277Y-16145079D01*
X7119277Y-16145079D02*
X7128801Y-16183174D01*
X7128801Y-16183174D02*
X7128801Y-16230793D01*
X7128801Y-16230793D02*
X7119277Y-16268888D01*
X7119277Y-16268888D02*
X7109753Y-16287936D01*
X7109753Y-16287936D02*
X7100229Y-16297460D01*
X7100229Y-16297460D02*
X7081182Y-16306984D01*
X7081182Y-16306984D02*
X7062134Y-16306984D01*
X7062134Y-16306984D02*
X7043086Y-16297460D01*
X7043086Y-16297460D02*
X7033563Y-16287936D01*
X7033563Y-16287936D02*
X7024039Y-16268888D01*
X7024039Y-16268888D02*
X7014515Y-16230793D01*
X7014515Y-16230793D02*
X7014515Y-16183174D01*
X7014515Y-16183174D02*
X7024039Y-16145079D01*
X7024039Y-16145079D02*
X7033563Y-16126031D01*
X7033563Y-16126031D02*
X7043086Y-16116508D01*
X7043086Y-16116508D02*
X7062134Y-16106984D01*
X7214515Y-16287936D02*
X7224039Y-16297460D01*
X7224039Y-16297460D02*
X7214515Y-16306984D01*
X7214515Y-16306984D02*
X7204991Y-16297460D01*
X7204991Y-16297460D02*
X7214515Y-16287936D01*
X7214515Y-16287936D02*
X7214515Y-16306984D01*
X7347848Y-16106984D02*
X7366896Y-16106984D01*
X7366896Y-16106984D02*
X7385944Y-16116508D01*
X7385944Y-16116508D02*
X7395467Y-16126031D01*
X7395467Y-16126031D02*
X7404991Y-16145079D01*
X7404991Y-16145079D02*
X7414515Y-16183174D01*
X7414515Y-16183174D02*
X7414515Y-16230793D01*
X7414515Y-16230793D02*
X7404991Y-16268888D01*
X7404991Y-16268888D02*
X7395467Y-16287936D01*
X7395467Y-16287936D02*
X7385944Y-16297460D01*
X7385944Y-16297460D02*
X7366896Y-16306984D01*
X7366896Y-16306984D02*
X7347848Y-16306984D01*
X7347848Y-16306984D02*
X7328801Y-16297460D01*
X7328801Y-16297460D02*
X7319277Y-16287936D01*
X7319277Y-16287936D02*
X7309753Y-16268888D01*
X7309753Y-16268888D02*
X7300229Y-16230793D01*
X7300229Y-16230793D02*
X7300229Y-16183174D01*
X7300229Y-16183174D02*
X7309753Y-16145079D01*
X7309753Y-16145079D02*
X7319277Y-16126031D01*
X7319277Y-16126031D02*
X7328801Y-16116508D01*
X7328801Y-16116508D02*
X7347848Y-16106984D01*
X7585944Y-16173650D02*
X7585944Y-16306984D01*
X7538325Y-16097460D02*
X7490706Y-16240317D01*
X7490706Y-16240317D02*
X7614515Y-16240317D01*
X7785944Y-16106984D02*
X7690706Y-16106984D01*
X7690706Y-16106984D02*
X7681182Y-16202222D01*
X7681182Y-16202222D02*
X7690706Y-16192698D01*
X7690706Y-16192698D02*
X7709753Y-16183174D01*
X7709753Y-16183174D02*
X7757372Y-16183174D01*
X7757372Y-16183174D02*
X7776420Y-16192698D01*
X7776420Y-16192698D02*
X7785944Y-16202222D01*
X7785944Y-16202222D02*
X7795467Y-16221269D01*
X7795467Y-16221269D02*
X7795467Y-16268888D01*
X7795467Y-16268888D02*
X7785944Y-16287936D01*
X7785944Y-16287936D02*
X7776420Y-16297460D01*
X7776420Y-16297460D02*
X7757372Y-16306984D01*
X7757372Y-16306984D02*
X7709753Y-16306984D01*
X7709753Y-16306984D02*
X7690706Y-16297460D01*
X7690706Y-16297460D02*
X7681182Y-16287936D01*
X7862134Y-16106984D02*
X7985944Y-16106984D01*
X7985944Y-16106984D02*
X7919277Y-16183174D01*
X7919277Y-16183174D02*
X7947848Y-16183174D01*
X7947848Y-16183174D02*
X7966896Y-16192698D01*
X7966896Y-16192698D02*
X7976420Y-16202222D01*
X7976420Y-16202222D02*
X7985944Y-16221269D01*
X7985944Y-16221269D02*
X7985944Y-16268888D01*
X7985944Y-16268888D02*
X7976420Y-16287936D01*
X7976420Y-16287936D02*
X7966896Y-16297460D01*
X7966896Y-16297460D02*
X7947848Y-16306984D01*
X7947848Y-16306984D02*
X7890706Y-16306984D01*
X7890706Y-16306984D02*
X7871658Y-16297460D01*
X7871658Y-16297460D02*
X7862134Y-16287936D01*
X8062134Y-16106984D02*
X8062134Y-16145079D01*
X8138325Y-16106984D02*
X8138325Y-16145079D01*
X8433563Y-16383174D02*
X8424039Y-16373650D01*
X8424039Y-16373650D02*
X8404991Y-16345079D01*
X8404991Y-16345079D02*
X8395468Y-16326031D01*
X8395468Y-16326031D02*
X8385944Y-16297460D01*
X8385944Y-16297460D02*
X8376420Y-16249841D01*
X8376420Y-16249841D02*
X8376420Y-16211746D01*
X8376420Y-16211746D02*
X8385944Y-16164127D01*
X8385944Y-16164127D02*
X8395468Y-16135555D01*
X8395468Y-16135555D02*
X8404991Y-16116508D01*
X8404991Y-16116508D02*
X8424039Y-16087936D01*
X8424039Y-16087936D02*
X8433563Y-16078412D01*
X8500230Y-16126031D02*
X8509753Y-16116508D01*
X8509753Y-16116508D02*
X8528801Y-16106984D01*
X8528801Y-16106984D02*
X8576420Y-16106984D01*
X8576420Y-16106984D02*
X8595468Y-16116508D01*
X8595468Y-16116508D02*
X8604991Y-16126031D01*
X8604991Y-16126031D02*
X8614515Y-16145079D01*
X8614515Y-16145079D02*
X8614515Y-16164127D01*
X8614515Y-16164127D02*
X8604991Y-16192698D01*
X8604991Y-16192698D02*
X8490706Y-16306984D01*
X8490706Y-16306984D02*
X8614515Y-16306984D01*
X8852611Y-16306984D02*
X8852611Y-16106984D01*
X8938325Y-16306984D02*
X8938325Y-16202222D01*
X8938325Y-16202222D02*
X8928801Y-16183174D01*
X8928801Y-16183174D02*
X8909753Y-16173650D01*
X8909753Y-16173650D02*
X8881182Y-16173650D01*
X8881182Y-16173650D02*
X8862134Y-16183174D01*
X8862134Y-16183174D02*
X8852611Y-16192698D01*
X9062134Y-16306984D02*
X9043087Y-16297460D01*
X9043087Y-16297460D02*
X9033563Y-16287936D01*
X9033563Y-16287936D02*
X9024039Y-16268888D01*
X9024039Y-16268888D02*
X9024039Y-16211746D01*
X9024039Y-16211746D02*
X9033563Y-16192698D01*
X9033563Y-16192698D02*
X9043087Y-16183174D01*
X9043087Y-16183174D02*
X9062134Y-16173650D01*
X9062134Y-16173650D02*
X9090706Y-16173650D01*
X9090706Y-16173650D02*
X9109753Y-16183174D01*
X9109753Y-16183174D02*
X9119277Y-16192698D01*
X9119277Y-16192698D02*
X9128801Y-16211746D01*
X9128801Y-16211746D02*
X9128801Y-16268888D01*
X9128801Y-16268888D02*
X9119277Y-16287936D01*
X9119277Y-16287936D02*
X9109753Y-16297460D01*
X9109753Y-16297460D02*
X9090706Y-16306984D01*
X9090706Y-16306984D02*
X9062134Y-16306984D01*
X9243087Y-16306984D02*
X9224039Y-16297460D01*
X9224039Y-16297460D02*
X9214515Y-16278412D01*
X9214515Y-16278412D02*
X9214515Y-16106984D01*
X9395468Y-16297460D02*
X9376420Y-16306984D01*
X9376420Y-16306984D02*
X9338325Y-16306984D01*
X9338325Y-16306984D02*
X9319277Y-16297460D01*
X9319277Y-16297460D02*
X9309753Y-16278412D01*
X9309753Y-16278412D02*
X9309753Y-16202222D01*
X9309753Y-16202222D02*
X9319277Y-16183174D01*
X9319277Y-16183174D02*
X9338325Y-16173650D01*
X9338325Y-16173650D02*
X9376420Y-16173650D01*
X9376420Y-16173650D02*
X9395468Y-16183174D01*
X9395468Y-16183174D02*
X9404992Y-16202222D01*
X9404992Y-16202222D02*
X9404992Y-16221269D01*
X9404992Y-16221269D02*
X9309753Y-16240317D01*
X9481182Y-16297460D02*
X9500230Y-16306984D01*
X9500230Y-16306984D02*
X9538325Y-16306984D01*
X9538325Y-16306984D02*
X9557373Y-16297460D01*
X9557373Y-16297460D02*
X9566896Y-16278412D01*
X9566896Y-16278412D02*
X9566896Y-16268888D01*
X9566896Y-16268888D02*
X9557373Y-16249841D01*
X9557373Y-16249841D02*
X9538325Y-16240317D01*
X9538325Y-16240317D02*
X9509753Y-16240317D01*
X9509753Y-16240317D02*
X9490706Y-16230793D01*
X9490706Y-16230793D02*
X9481182Y-16211746D01*
X9481182Y-16211746D02*
X9481182Y-16202222D01*
X9481182Y-16202222D02*
X9490706Y-16183174D01*
X9490706Y-16183174D02*
X9509753Y-16173650D01*
X9509753Y-16173650D02*
X9538325Y-16173650D01*
X9538325Y-16173650D02*
X9557373Y-16183174D01*
X9633563Y-16383174D02*
X9643087Y-16373650D01*
X9643087Y-16373650D02*
X9662134Y-16345079D01*
X9662134Y-16345079D02*
X9671658Y-16326031D01*
X9671658Y-16326031D02*
X9681182Y-16297460D01*
X9681182Y-16297460D02*
X9690706Y-16249841D01*
X9690706Y-16249841D02*
X9690706Y-16211746D01*
X9690706Y-16211746D02*
X9681182Y-16164127D01*
X9681182Y-16164127D02*
X9671658Y-16135555D01*
X9671658Y-16135555D02*
X9662134Y-16116508D01*
X9662134Y-16116508D02*
X9643087Y-16087936D01*
X9643087Y-16087936D02*
X9633563Y-16078412D01*
X4658500Y-16379500D02*
X4858500Y-16579500D01*
X4858500Y-16379500D02*
X4658500Y-16579500D01*
X4758500Y-16579500D02*
X4858500Y-16479500D01*
X4758500Y-16379500D01*
X4658500Y-16479500D01*
X4758500Y-16579500D01*
X5109753Y-16390031D02*
X5119277Y-16380508D01*
X5119277Y-16380508D02*
X5138324Y-16370984D01*
X5138324Y-16370984D02*
X5185944Y-16370984D01*
X5185944Y-16370984D02*
X5204991Y-16380508D01*
X5204991Y-16380508D02*
X5214515Y-16390031D01*
X5214515Y-16390031D02*
X5224039Y-16409079D01*
X5224039Y-16409079D02*
X5224039Y-16428127D01*
X5224039Y-16428127D02*
X5214515Y-16456698D01*
X5214515Y-16456698D02*
X5100229Y-16570984D01*
X5100229Y-16570984D02*
X5224039Y-16570984D01*
X5309753Y-16551936D02*
X5319277Y-16561460D01*
X5319277Y-16561460D02*
X5309753Y-16570984D01*
X5309753Y-16570984D02*
X5300229Y-16561460D01*
X5300229Y-16561460D02*
X5309753Y-16551936D01*
X5309753Y-16551936D02*
X5309753Y-16570984D01*
X5443086Y-16370984D02*
X5462134Y-16370984D01*
X5462134Y-16370984D02*
X5481182Y-16380508D01*
X5481182Y-16380508D02*
X5490705Y-16390031D01*
X5490705Y-16390031D02*
X5500229Y-16409079D01*
X5500229Y-16409079D02*
X5509753Y-16447174D01*
X5509753Y-16447174D02*
X5509753Y-16494793D01*
X5509753Y-16494793D02*
X5500229Y-16532888D01*
X5500229Y-16532888D02*
X5490705Y-16551936D01*
X5490705Y-16551936D02*
X5481182Y-16561460D01*
X5481182Y-16561460D02*
X5462134Y-16570984D01*
X5462134Y-16570984D02*
X5443086Y-16570984D01*
X5443086Y-16570984D02*
X5424039Y-16561460D01*
X5424039Y-16561460D02*
X5414515Y-16551936D01*
X5414515Y-16551936D02*
X5404991Y-16532888D01*
X5404991Y-16532888D02*
X5395467Y-16494793D01*
X5395467Y-16494793D02*
X5395467Y-16447174D01*
X5395467Y-16447174D02*
X5404991Y-16409079D01*
X5404991Y-16409079D02*
X5414515Y-16390031D01*
X5414515Y-16390031D02*
X5424039Y-16380508D01*
X5424039Y-16380508D02*
X5443086Y-16370984D01*
X5633562Y-16370984D02*
X5652610Y-16370984D01*
X5652610Y-16370984D02*
X5671658Y-16380508D01*
X5671658Y-16380508D02*
X5681182Y-16390031D01*
X5681182Y-16390031D02*
X5690705Y-16409079D01*
X5690705Y-16409079D02*
X5700229Y-16447174D01*
X5700229Y-16447174D02*
X5700229Y-16494793D01*
X5700229Y-16494793D02*
X5690705Y-16532888D01*
X5690705Y-16532888D02*
X5681182Y-16551936D01*
X5681182Y-16551936D02*
X5671658Y-16561460D01*
X5671658Y-16561460D02*
X5652610Y-16570984D01*
X5652610Y-16570984D02*
X5633562Y-16570984D01*
X5633562Y-16570984D02*
X5614515Y-16561460D01*
X5614515Y-16561460D02*
X5604991Y-16551936D01*
X5604991Y-16551936D02*
X5595467Y-16532888D01*
X5595467Y-16532888D02*
X5585944Y-16494793D01*
X5585944Y-16494793D02*
X5585944Y-16447174D01*
X5585944Y-16447174D02*
X5595467Y-16409079D01*
X5595467Y-16409079D02*
X5604991Y-16390031D01*
X5604991Y-16390031D02*
X5614515Y-16380508D01*
X5614515Y-16380508D02*
X5633562Y-16370984D01*
X5824039Y-16370984D02*
X5843086Y-16370984D01*
X5843086Y-16370984D02*
X5862134Y-16380508D01*
X5862134Y-16380508D02*
X5871658Y-16390031D01*
X5871658Y-16390031D02*
X5881182Y-16409079D01*
X5881182Y-16409079D02*
X5890705Y-16447174D01*
X5890705Y-16447174D02*
X5890705Y-16494793D01*
X5890705Y-16494793D02*
X5881182Y-16532888D01*
X5881182Y-16532888D02*
X5871658Y-16551936D01*
X5871658Y-16551936D02*
X5862134Y-16561460D01*
X5862134Y-16561460D02*
X5843086Y-16570984D01*
X5843086Y-16570984D02*
X5824039Y-16570984D01*
X5824039Y-16570984D02*
X5804991Y-16561460D01*
X5804991Y-16561460D02*
X5795467Y-16551936D01*
X5795467Y-16551936D02*
X5785943Y-16532888D01*
X5785943Y-16532888D02*
X5776420Y-16494793D01*
X5776420Y-16494793D02*
X5776420Y-16447174D01*
X5776420Y-16447174D02*
X5785943Y-16409079D01*
X5785943Y-16409079D02*
X5795467Y-16390031D01*
X5795467Y-16390031D02*
X5804991Y-16380508D01*
X5804991Y-16380508D02*
X5824039Y-16370984D01*
X5976420Y-16570984D02*
X5976420Y-16437650D01*
X5976420Y-16456698D02*
X5985943Y-16447174D01*
X5985943Y-16447174D02*
X6004991Y-16437650D01*
X6004991Y-16437650D02*
X6033563Y-16437650D01*
X6033563Y-16437650D02*
X6052610Y-16447174D01*
X6052610Y-16447174D02*
X6062134Y-16466222D01*
X6062134Y-16466222D02*
X6062134Y-16570984D01*
X6062134Y-16466222D02*
X6071658Y-16447174D01*
X6071658Y-16447174D02*
X6090705Y-16437650D01*
X6090705Y-16437650D02*
X6119277Y-16437650D01*
X6119277Y-16437650D02*
X6138324Y-16447174D01*
X6138324Y-16447174D02*
X6147848Y-16466222D01*
X6147848Y-16466222D02*
X6147848Y-16570984D01*
X6243086Y-16570984D02*
X6243086Y-16437650D01*
X6243086Y-16456698D02*
X6252610Y-16447174D01*
X6252610Y-16447174D02*
X6271658Y-16437650D01*
X6271658Y-16437650D02*
X6300229Y-16437650D01*
X6300229Y-16437650D02*
X6319277Y-16447174D01*
X6319277Y-16447174D02*
X6328801Y-16466222D01*
X6328801Y-16466222D02*
X6328801Y-16570984D01*
X6328801Y-16466222D02*
X6338324Y-16447174D01*
X6338324Y-16447174D02*
X6357372Y-16437650D01*
X6357372Y-16437650D02*
X6385943Y-16437650D01*
X6385943Y-16437650D02*
X6404991Y-16447174D01*
X6404991Y-16447174D02*
X6414515Y-16466222D01*
X6414515Y-16466222D02*
X6414515Y-16570984D01*
X6804991Y-16361460D02*
X6633563Y-16618603D01*
X7062134Y-16370984D02*
X7081182Y-16370984D01*
X7081182Y-16370984D02*
X7100229Y-16380508D01*
X7100229Y-16380508D02*
X7109753Y-16390031D01*
X7109753Y-16390031D02*
X7119277Y-16409079D01*
X7119277Y-16409079D02*
X7128801Y-16447174D01*
X7128801Y-16447174D02*
X7128801Y-16494793D01*
X7128801Y-16494793D02*
X7119277Y-16532888D01*
X7119277Y-16532888D02*
X7109753Y-16551936D01*
X7109753Y-16551936D02*
X7100229Y-16561460D01*
X7100229Y-16561460D02*
X7081182Y-16570984D01*
X7081182Y-16570984D02*
X7062134Y-16570984D01*
X7062134Y-16570984D02*
X7043086Y-16561460D01*
X7043086Y-16561460D02*
X7033563Y-16551936D01*
X7033563Y-16551936D02*
X7024039Y-16532888D01*
X7024039Y-16532888D02*
X7014515Y-16494793D01*
X7014515Y-16494793D02*
X7014515Y-16447174D01*
X7014515Y-16447174D02*
X7024039Y-16409079D01*
X7024039Y-16409079D02*
X7033563Y-16390031D01*
X7033563Y-16390031D02*
X7043086Y-16380508D01*
X7043086Y-16380508D02*
X7062134Y-16370984D01*
X7214515Y-16551936D02*
X7224039Y-16561460D01*
X7224039Y-16561460D02*
X7214515Y-16570984D01*
X7214515Y-16570984D02*
X7204991Y-16561460D01*
X7204991Y-16561460D02*
X7214515Y-16551936D01*
X7214515Y-16551936D02*
X7214515Y-16570984D01*
X7347848Y-16370984D02*
X7366896Y-16370984D01*
X7366896Y-16370984D02*
X7385944Y-16380508D01*
X7385944Y-16380508D02*
X7395467Y-16390031D01*
X7395467Y-16390031D02*
X7404991Y-16409079D01*
X7404991Y-16409079D02*
X7414515Y-16447174D01*
X7414515Y-16447174D02*
X7414515Y-16494793D01*
X7414515Y-16494793D02*
X7404991Y-16532888D01*
X7404991Y-16532888D02*
X7395467Y-16551936D01*
X7395467Y-16551936D02*
X7385944Y-16561460D01*
X7385944Y-16561460D02*
X7366896Y-16570984D01*
X7366896Y-16570984D02*
X7347848Y-16570984D01*
X7347848Y-16570984D02*
X7328801Y-16561460D01*
X7328801Y-16561460D02*
X7319277Y-16551936D01*
X7319277Y-16551936D02*
X7309753Y-16532888D01*
X7309753Y-16532888D02*
X7300229Y-16494793D01*
X7300229Y-16494793D02*
X7300229Y-16447174D01*
X7300229Y-16447174D02*
X7309753Y-16409079D01*
X7309753Y-16409079D02*
X7319277Y-16390031D01*
X7319277Y-16390031D02*
X7328801Y-16380508D01*
X7328801Y-16380508D02*
X7347848Y-16370984D01*
X7481182Y-16370984D02*
X7614515Y-16370984D01*
X7614515Y-16370984D02*
X7528801Y-16570984D01*
X7719277Y-16456698D02*
X7700229Y-16447174D01*
X7700229Y-16447174D02*
X7690706Y-16437650D01*
X7690706Y-16437650D02*
X7681182Y-16418603D01*
X7681182Y-16418603D02*
X7681182Y-16409079D01*
X7681182Y-16409079D02*
X7690706Y-16390031D01*
X7690706Y-16390031D02*
X7700229Y-16380508D01*
X7700229Y-16380508D02*
X7719277Y-16370984D01*
X7719277Y-16370984D02*
X7757372Y-16370984D01*
X7757372Y-16370984D02*
X7776420Y-16380508D01*
X7776420Y-16380508D02*
X7785944Y-16390031D01*
X7785944Y-16390031D02*
X7795467Y-16409079D01*
X7795467Y-16409079D02*
X7795467Y-16418603D01*
X7795467Y-16418603D02*
X7785944Y-16437650D01*
X7785944Y-16437650D02*
X7776420Y-16447174D01*
X7776420Y-16447174D02*
X7757372Y-16456698D01*
X7757372Y-16456698D02*
X7719277Y-16456698D01*
X7719277Y-16456698D02*
X7700229Y-16466222D01*
X7700229Y-16466222D02*
X7690706Y-16475746D01*
X7690706Y-16475746D02*
X7681182Y-16494793D01*
X7681182Y-16494793D02*
X7681182Y-16532888D01*
X7681182Y-16532888D02*
X7690706Y-16551936D01*
X7690706Y-16551936D02*
X7700229Y-16561460D01*
X7700229Y-16561460D02*
X7719277Y-16570984D01*
X7719277Y-16570984D02*
X7757372Y-16570984D01*
X7757372Y-16570984D02*
X7776420Y-16561460D01*
X7776420Y-16561460D02*
X7785944Y-16551936D01*
X7785944Y-16551936D02*
X7795467Y-16532888D01*
X7795467Y-16532888D02*
X7795467Y-16494793D01*
X7795467Y-16494793D02*
X7785944Y-16475746D01*
X7785944Y-16475746D02*
X7776420Y-16466222D01*
X7776420Y-16466222D02*
X7757372Y-16456698D01*
X7862134Y-16370984D02*
X7995467Y-16370984D01*
X7995467Y-16370984D02*
X7909753Y-16570984D01*
X8062134Y-16370984D02*
X8062134Y-16409079D01*
X8138325Y-16370984D02*
X8138325Y-16409079D01*
X8433563Y-16647174D02*
X8424039Y-16637650D01*
X8424039Y-16637650D02*
X8404991Y-16609079D01*
X8404991Y-16609079D02*
X8395468Y-16590031D01*
X8395468Y-16590031D02*
X8385944Y-16561460D01*
X8385944Y-16561460D02*
X8376420Y-16513841D01*
X8376420Y-16513841D02*
X8376420Y-16475746D01*
X8376420Y-16475746D02*
X8385944Y-16428127D01*
X8385944Y-16428127D02*
X8395468Y-16399555D01*
X8395468Y-16399555D02*
X8404991Y-16380508D01*
X8404991Y-16380508D02*
X8424039Y-16351936D01*
X8424039Y-16351936D02*
X8433563Y-16342412D01*
X8547849Y-16370984D02*
X8566896Y-16370984D01*
X8566896Y-16370984D02*
X8585944Y-16380508D01*
X8585944Y-16380508D02*
X8595468Y-16390031D01*
X8595468Y-16390031D02*
X8604991Y-16409079D01*
X8604991Y-16409079D02*
X8614515Y-16447174D01*
X8614515Y-16447174D02*
X8614515Y-16494793D01*
X8614515Y-16494793D02*
X8604991Y-16532888D01*
X8604991Y-16532888D02*
X8595468Y-16551936D01*
X8595468Y-16551936D02*
X8585944Y-16561460D01*
X8585944Y-16561460D02*
X8566896Y-16570984D01*
X8566896Y-16570984D02*
X8547849Y-16570984D01*
X8547849Y-16570984D02*
X8528801Y-16561460D01*
X8528801Y-16561460D02*
X8519277Y-16551936D01*
X8519277Y-16551936D02*
X8509753Y-16532888D01*
X8509753Y-16532888D02*
X8500230Y-16494793D01*
X8500230Y-16494793D02*
X8500230Y-16447174D01*
X8500230Y-16447174D02*
X8509753Y-16409079D01*
X8509753Y-16409079D02*
X8519277Y-16390031D01*
X8519277Y-16390031D02*
X8528801Y-16380508D01*
X8528801Y-16380508D02*
X8547849Y-16370984D01*
X8852611Y-16570984D02*
X8852611Y-16370984D01*
X8938325Y-16570984D02*
X8938325Y-16466222D01*
X8938325Y-16466222D02*
X8928801Y-16447174D01*
X8928801Y-16447174D02*
X8909753Y-16437650D01*
X8909753Y-16437650D02*
X8881182Y-16437650D01*
X8881182Y-16437650D02*
X8862134Y-16447174D01*
X8862134Y-16447174D02*
X8852611Y-16456698D01*
X9062134Y-16570984D02*
X9043087Y-16561460D01*
X9043087Y-16561460D02*
X9033563Y-16551936D01*
X9033563Y-16551936D02*
X9024039Y-16532888D01*
X9024039Y-16532888D02*
X9024039Y-16475746D01*
X9024039Y-16475746D02*
X9033563Y-16456698D01*
X9033563Y-16456698D02*
X9043087Y-16447174D01*
X9043087Y-16447174D02*
X9062134Y-16437650D01*
X9062134Y-16437650D02*
X9090706Y-16437650D01*
X9090706Y-16437650D02*
X9109753Y-16447174D01*
X9109753Y-16447174D02*
X9119277Y-16456698D01*
X9119277Y-16456698D02*
X9128801Y-16475746D01*
X9128801Y-16475746D02*
X9128801Y-16532888D01*
X9128801Y-16532888D02*
X9119277Y-16551936D01*
X9119277Y-16551936D02*
X9109753Y-16561460D01*
X9109753Y-16561460D02*
X9090706Y-16570984D01*
X9090706Y-16570984D02*
X9062134Y-16570984D01*
X9243087Y-16570984D02*
X9224039Y-16561460D01*
X9224039Y-16561460D02*
X9214515Y-16542412D01*
X9214515Y-16542412D02*
X9214515Y-16370984D01*
X9395468Y-16561460D02*
X9376420Y-16570984D01*
X9376420Y-16570984D02*
X9338325Y-16570984D01*
X9338325Y-16570984D02*
X9319277Y-16561460D01*
X9319277Y-16561460D02*
X9309753Y-16542412D01*
X9309753Y-16542412D02*
X9309753Y-16466222D01*
X9309753Y-16466222D02*
X9319277Y-16447174D01*
X9319277Y-16447174D02*
X9338325Y-16437650D01*
X9338325Y-16437650D02*
X9376420Y-16437650D01*
X9376420Y-16437650D02*
X9395468Y-16447174D01*
X9395468Y-16447174D02*
X9404992Y-16466222D01*
X9404992Y-16466222D02*
X9404992Y-16485269D01*
X9404992Y-16485269D02*
X9309753Y-16504317D01*
X9481182Y-16561460D02*
X9500230Y-16570984D01*
X9500230Y-16570984D02*
X9538325Y-16570984D01*
X9538325Y-16570984D02*
X9557373Y-16561460D01*
X9557373Y-16561460D02*
X9566896Y-16542412D01*
X9566896Y-16542412D02*
X9566896Y-16532888D01*
X9566896Y-16532888D02*
X9557373Y-16513841D01*
X9557373Y-16513841D02*
X9538325Y-16504317D01*
X9538325Y-16504317D02*
X9509753Y-16504317D01*
X9509753Y-16504317D02*
X9490706Y-16494793D01*
X9490706Y-16494793D02*
X9481182Y-16475746D01*
X9481182Y-16475746D02*
X9481182Y-16466222D01*
X9481182Y-16466222D02*
X9490706Y-16447174D01*
X9490706Y-16447174D02*
X9509753Y-16437650D01*
X9509753Y-16437650D02*
X9538325Y-16437650D01*
X9538325Y-16437650D02*
X9557373Y-16447174D01*
X9804992Y-16494793D02*
X9957373Y-16494793D01*
X9881182Y-16570984D02*
X9881182Y-16418603D01*
X10290706Y-16437650D02*
X10290706Y-16570984D01*
X10243087Y-16361460D02*
X10195468Y-16504317D01*
X10195468Y-16504317D02*
X10319277Y-16504317D01*
X10538325Y-16561460D02*
X10557373Y-16570984D01*
X10557373Y-16570984D02*
X10595468Y-16570984D01*
X10595468Y-16570984D02*
X10614516Y-16561460D01*
X10614516Y-16561460D02*
X10624039Y-16542412D01*
X10624039Y-16542412D02*
X10624039Y-16532888D01*
X10624039Y-16532888D02*
X10614516Y-16513841D01*
X10614516Y-16513841D02*
X10595468Y-16504317D01*
X10595468Y-16504317D02*
X10566896Y-16504317D01*
X10566896Y-16504317D02*
X10547849Y-16494793D01*
X10547849Y-16494793D02*
X10538325Y-16475746D01*
X10538325Y-16475746D02*
X10538325Y-16466222D01*
X10538325Y-16466222D02*
X10547849Y-16447174D01*
X10547849Y-16447174D02*
X10566896Y-16437650D01*
X10566896Y-16437650D02*
X10595468Y-16437650D01*
X10595468Y-16437650D02*
X10614516Y-16447174D01*
X10738325Y-16570984D02*
X10719277Y-16561460D01*
X10719277Y-16561460D02*
X10709754Y-16542412D01*
X10709754Y-16542412D02*
X10709754Y-16370984D01*
X10843087Y-16570984D02*
X10824039Y-16561460D01*
X10824039Y-16561460D02*
X10814516Y-16551936D01*
X10814516Y-16551936D02*
X10804992Y-16532888D01*
X10804992Y-16532888D02*
X10804992Y-16475746D01*
X10804992Y-16475746D02*
X10814516Y-16456698D01*
X10814516Y-16456698D02*
X10824039Y-16447174D01*
X10824039Y-16447174D02*
X10843087Y-16437650D01*
X10843087Y-16437650D02*
X10871658Y-16437650D01*
X10871658Y-16437650D02*
X10890706Y-16447174D01*
X10890706Y-16447174D02*
X10900230Y-16456698D01*
X10900230Y-16456698D02*
X10909754Y-16475746D01*
X10909754Y-16475746D02*
X10909754Y-16532888D01*
X10909754Y-16532888D02*
X10900230Y-16551936D01*
X10900230Y-16551936D02*
X10890706Y-16561460D01*
X10890706Y-16561460D02*
X10871658Y-16570984D01*
X10871658Y-16570984D02*
X10843087Y-16570984D01*
X10966897Y-16437650D02*
X11043087Y-16437650D01*
X10995468Y-16370984D02*
X10995468Y-16542412D01*
X10995468Y-16542412D02*
X11004992Y-16561460D01*
X11004992Y-16561460D02*
X11024039Y-16570984D01*
X11024039Y-16570984D02*
X11043087Y-16570984D01*
X11100230Y-16561460D02*
X11119277Y-16570984D01*
X11119277Y-16570984D02*
X11157373Y-16570984D01*
X11157373Y-16570984D02*
X11176420Y-16561460D01*
X11176420Y-16561460D02*
X11185944Y-16542412D01*
X11185944Y-16542412D02*
X11185944Y-16532888D01*
X11185944Y-16532888D02*
X11176420Y-16513841D01*
X11176420Y-16513841D02*
X11157373Y-16504317D01*
X11157373Y-16504317D02*
X11128801Y-16504317D01*
X11128801Y-16504317D02*
X11109754Y-16494793D01*
X11109754Y-16494793D02*
X11100230Y-16475746D01*
X11100230Y-16475746D02*
X11100230Y-16466222D01*
X11100230Y-16466222D02*
X11109754Y-16447174D01*
X11109754Y-16447174D02*
X11128801Y-16437650D01*
X11128801Y-16437650D02*
X11157373Y-16437650D01*
X11157373Y-16437650D02*
X11176420Y-16447174D01*
X11252611Y-16647174D02*
X11262135Y-16637650D01*
X11262135Y-16637650D02*
X11281182Y-16609079D01*
X11281182Y-16609079D02*
X11290706Y-16590031D01*
X11290706Y-16590031D02*
X11300230Y-16561460D01*
X11300230Y-16561460D02*
X11309754Y-16513841D01*
X11309754Y-16513841D02*
X11309754Y-16475746D01*
X11309754Y-16475746D02*
X11300230Y-16428127D01*
X11300230Y-16428127D02*
X11290706Y-16399555D01*
X11290706Y-16399555D02*
X11281182Y-16380508D01*
X11281182Y-16380508D02*
X11262135Y-16351936D01*
X11262135Y-16351936D02*
X11252611Y-16342412D01*
M02*
