%TF.GenerationSoftware,KiCad,Pcbnew,9.0.8-1.fc43*%
%TF.CreationDate,2026-04-08T18:07:34+05:30*%
%TF.ProjectId,macropad,6d616372-6f70-4616-942e-6b696361645f,rev?*%
%TF.SameCoordinates,Original*%
%TF.FileFunction,Drillmap*%
%TF.FilePolarity,Positive*%
%FSLAX45Y45*%
G04 Gerber Fmt 4.5, Leading zero omitted, Abs format (unit mm)*
G04 Created by KiCad (PCBNEW 9.0.8-1.fc43) date 2026-04-08 18:07:34*
%MOMM*%
%LPD*%
G01*
G04 APERTURE LIST*
%ADD10C,0.050000*%
%ADD11C,0.100000*%
%ADD12C,0.200000*%
%ADD13C,0.110000*%
%ADD14C,0.115000*%
G04 APERTURE END LIST*
D10*
X5038000Y-4206000D02*
X14057000Y-4206000D01*
X5038000Y-13747000D02*
X5038000Y-4206000D01*
X5038000Y-13747000D02*
X14059000Y-13747000D01*
X5662264Y-4630264D02*
G75*
G02*
X5262264Y-4630264I-200000J0D01*
G01*
X5262264Y-4630264D02*
G75*
G02*
X5662264Y-4630264I200000J0D01*
G01*
X5662264Y-13323736D02*
G75*
G02*
X5262264Y-13323736I-200000J0D01*
G01*
X5262264Y-13323736D02*
G75*
G02*
X5662264Y-13323736I200000J0D01*
G01*
X13833736Y-4630264D02*
G75*
G02*
X13433736Y-4630264I-200000J0D01*
G01*
X13433736Y-4630264D02*
G75*
G02*
X13833736Y-4630264I200000J0D01*
G01*
X13833736Y-13323736D02*
G75*
G02*
X13433736Y-13323736I-200000J0D01*
G01*
X13433736Y-13323736D02*
G75*
G02*
X13833736Y-13323736I200000J0D01*
G01*
X14057000Y-4206000D02*
X14058000Y-9375000D01*
X14058000Y-9775000D02*
X14058000Y-10175000D01*
X14058000Y-10575000D02*
X14058000Y-10975000D01*
X14058000Y-11375000D02*
X14058000Y-11775000D01*
X14058000Y-12175000D02*
X14058000Y-12575000D01*
X14058000Y-12975000D02*
X14059000Y-13347000D01*
X14258000Y-9375000D02*
X16654000Y-9375000D01*
X14258000Y-9775000D02*
X14258000Y-10175000D01*
X14258000Y-10575000D02*
X14258000Y-10975000D01*
X14258000Y-11375000D02*
X14258000Y-11775000D01*
X14258000Y-12175000D02*
X14258000Y-12575000D01*
X14258000Y-12975000D02*
X14259000Y-13347000D01*
X14259000Y-13747000D02*
X16655000Y-13749000D01*
X14896562Y-13324736D02*
G75*
G02*
X14496562Y-13324736I-200000J0D01*
G01*
X14496562Y-13324736D02*
G75*
G02*
X14896562Y-13324736I200000J0D01*
G01*
X16654000Y-9375000D02*
X16655000Y-13749000D01*
D11*
X14059000Y-13747000D02*
G75*
G02*
X14259000Y-13747000I100000J0D01*
G01*
X14259000Y-13347000D02*
G75*
G02*
X14059000Y-13347000I-100000J0D01*
G01*
X14058000Y-9775000D02*
G75*
G02*
X14258000Y-9775000I100000J0D01*
G01*
X14258000Y-9375000D02*
G75*
G02*
X14058000Y-9375000I-100000J0D01*
G01*
X14058000Y-12975000D02*
G75*
G02*
X14258000Y-12975000I100000J0D01*
G01*
X14258000Y-12575000D02*
G75*
G02*
X14058000Y-12575000I-100000J0D01*
G01*
X14058000Y-11375000D02*
G75*
G02*
X14258000Y-11375000I100000J0D01*
G01*
X14258000Y-10975000D02*
G75*
G02*
X14058000Y-10975000I-100000J0D01*
G01*
X14058000Y-10575000D02*
G75*
G02*
X14258000Y-10575000I100000J0D01*
G01*
X14258000Y-10175000D02*
G75*
G02*
X14058000Y-10175000I-100000J0D01*
G01*
X14058000Y-12175000D02*
G75*
G02*
X14258000Y-12175000I100000J0D01*
G01*
X14258000Y-11775000D02*
G75*
G02*
X14058000Y-11775000I-100000J0D01*
G01*
D12*
D11*
X5347000Y-12920000D02*
X5377000Y-12950000D01*
X5377000Y-12920000D02*
X5347000Y-12950000D01*
X5354000Y-12458000D02*
X5384000Y-12488000D01*
X5384000Y-12458000D02*
X5354000Y-12488000D01*
X5522500Y-11431750D02*
X5552500Y-11461750D01*
X5552500Y-11431750D02*
X5522500Y-11461750D01*
X5561000Y-6993000D02*
X5591000Y-7023000D01*
X5591000Y-6993000D02*
X5561000Y-7023000D01*
X5563000Y-10835000D02*
X5593000Y-10865000D01*
X5593000Y-10835000D02*
X5563000Y-10865000D01*
X5588000Y-10405000D02*
X5618000Y-10435000D01*
X5618000Y-10405000D02*
X5588000Y-10435000D01*
X5592000Y-8779000D02*
X5622000Y-8809000D01*
X5622000Y-8779000D02*
X5592000Y-8809000D01*
X5666000Y-12816000D02*
X5696000Y-12846000D01*
X5696000Y-12816000D02*
X5666000Y-12846000D01*
X5802000Y-13180000D02*
X5832000Y-13210000D01*
X5832000Y-13180000D02*
X5802000Y-13210000D01*
X5827000Y-11849000D02*
X5857000Y-11879000D01*
X5857000Y-11849000D02*
X5827000Y-11879000D01*
X5870000Y-10555000D02*
X5900000Y-10585000D01*
X5900000Y-10555000D02*
X5870000Y-10585000D01*
X5972000Y-11350000D02*
X6002000Y-11380000D01*
X6002000Y-11350000D02*
X5972000Y-11380000D01*
X6022000Y-5122000D02*
X6052000Y-5152000D01*
X6052000Y-5122000D02*
X6022000Y-5152000D01*
X6083000Y-12795000D02*
X6113000Y-12825000D01*
X6113000Y-12795000D02*
X6083000Y-12825000D01*
X6200000Y-11287000D02*
X6230000Y-11317000D01*
X6230000Y-11287000D02*
X6200000Y-11317000D01*
X6201000Y-4367000D02*
X6231000Y-4397000D01*
X6231000Y-4367000D02*
X6201000Y-4397000D01*
X6221118Y-6252500D02*
X6251118Y-6282500D01*
X6251118Y-6252500D02*
X6221118Y-6282500D01*
X6231000Y-6940000D02*
X6261000Y-6970000D01*
X6261000Y-6940000D02*
X6231000Y-6970000D01*
X6231000Y-8006000D02*
X6261000Y-8036000D01*
X6261000Y-8006000D02*
X6231000Y-8036000D01*
X6246000Y-9677000D02*
X6276000Y-9707000D01*
X6276000Y-9677000D02*
X6246000Y-9707000D01*
X6291000Y-13538000D02*
X6321000Y-13568000D01*
X6321000Y-13538000D02*
X6291000Y-13568000D01*
X6319000Y-11661000D02*
X6349000Y-11691000D01*
X6349000Y-11661000D02*
X6319000Y-11691000D01*
X6489000Y-4854000D02*
X6519000Y-4884000D01*
X6519000Y-4854000D02*
X6489000Y-4884000D01*
X6491000Y-5101000D02*
X6521000Y-5131000D01*
X6521000Y-5101000D02*
X6491000Y-5131000D01*
X6666000Y-10207000D02*
X6696000Y-10237000D01*
X6696000Y-10207000D02*
X6666000Y-10237000D01*
X6818000Y-6284000D02*
X6848000Y-6314000D01*
X6848000Y-6284000D02*
X6818000Y-6314000D01*
X6876000Y-4377000D02*
X6906000Y-4407000D01*
X6906000Y-4377000D02*
X6876000Y-4407000D01*
X7043000Y-8796000D02*
X7073000Y-8826000D01*
X7073000Y-8796000D02*
X7043000Y-8826000D01*
X7097000Y-12659000D02*
X7127000Y-12689000D01*
X7127000Y-12659000D02*
X7097000Y-12689000D01*
X7110000Y-7056000D02*
X7140000Y-7086000D01*
X7140000Y-7056000D02*
X7110000Y-7086000D01*
X7112000Y-6142000D02*
X7142000Y-6172000D01*
X7142000Y-6142000D02*
X7112000Y-6172000D01*
X7118000Y-11990000D02*
X7148000Y-12020000D01*
X7148000Y-11990000D02*
X7118000Y-12020000D01*
X7128000Y-13531000D02*
X7158000Y-13561000D01*
X7158000Y-13531000D02*
X7128000Y-13561000D01*
X7186000Y-10571000D02*
X7216000Y-10601000D01*
X7216000Y-10571000D02*
X7186000Y-10601000D01*
X7210000Y-5116000D02*
X7240000Y-5146000D01*
X7240000Y-5116000D02*
X7210000Y-5146000D01*
X7264750Y-7627000D02*
X7294750Y-7657000D01*
X7294750Y-7627000D02*
X7264750Y-7657000D01*
X7291000Y-9114676D02*
X7321000Y-9144676D01*
X7321000Y-9114676D02*
X7291000Y-9144676D01*
X7343000Y-7753000D02*
X7373000Y-7783000D01*
X7373000Y-7753000D02*
X7343000Y-7783000D01*
X7345000Y-4867000D02*
X7375000Y-4897000D01*
X7375000Y-4867000D02*
X7345000Y-4897000D01*
X7348000Y-7995000D02*
X7378000Y-8025000D01*
X7378000Y-7995000D02*
X7348000Y-8025000D01*
X7349000Y-9754000D02*
X7379000Y-9784000D01*
X7379000Y-9754000D02*
X7349000Y-9784000D01*
X7351000Y-9253000D02*
X7381000Y-9283000D01*
X7381000Y-9253000D02*
X7351000Y-9283000D01*
X7424000Y-5321000D02*
X7454000Y-5351000D01*
X7454000Y-5321000D02*
X7424000Y-5351000D01*
X7448000Y-10874000D02*
X7478000Y-10904000D01*
X7478000Y-10874000D02*
X7448000Y-10904000D01*
X7457000Y-10272000D02*
X7487000Y-10302000D01*
X7487000Y-10272000D02*
X7457000Y-10302000D01*
X7460000Y-12386000D02*
X7490000Y-12416000D01*
X7490000Y-12386000D02*
X7460000Y-12416000D01*
X7505000Y-4365000D02*
X7535000Y-4395000D01*
X7535000Y-4365000D02*
X7505000Y-4395000D01*
X7539000Y-6025000D02*
X7569000Y-6055000D01*
X7569000Y-6025000D02*
X7539000Y-6055000D01*
X7571000Y-5118000D02*
X7601000Y-5148000D01*
X7601000Y-5118000D02*
X7571000Y-5148000D01*
X7611000Y-6074000D02*
X7641000Y-6104000D01*
X7641000Y-6074000D02*
X7611000Y-6104000D01*
X7669000Y-5770000D02*
X7699000Y-5800000D01*
X7699000Y-5770000D02*
X7669000Y-5800000D01*
X7707000Y-6983000D02*
X7737000Y-7013000D01*
X7737000Y-6983000D02*
X7707000Y-7013000D01*
X7710000Y-6641000D02*
X7740000Y-6671000D01*
X7740000Y-6641000D02*
X7710000Y-6671000D01*
X7715000Y-6320000D02*
X7745000Y-6350000D01*
X7745000Y-6320000D02*
X7715000Y-6350000D01*
X7757000Y-10027000D02*
X7787000Y-10057000D01*
X7787000Y-10027000D02*
X7757000Y-10057000D01*
X7757000Y-11140000D02*
X7787000Y-11170000D01*
X7787000Y-11140000D02*
X7757000Y-11170000D01*
X7761000Y-8731000D02*
X7791000Y-8761000D01*
X7791000Y-8731000D02*
X7761000Y-8761000D01*
X7761000Y-9181000D02*
X7791000Y-9211000D01*
X7791000Y-9181000D02*
X7761000Y-9211000D01*
X7761000Y-10564000D02*
X7791000Y-10594000D01*
X7791000Y-10564000D02*
X7761000Y-10594000D01*
X7762000Y-4853000D02*
X7792000Y-4883000D01*
X7792000Y-4853000D02*
X7762000Y-4883000D01*
X7765000Y-9677000D02*
X7795000Y-9707000D01*
X7795000Y-9677000D02*
X7765000Y-9707000D01*
X7868000Y-5311000D02*
X7898000Y-5341000D01*
X7898000Y-5311000D02*
X7868000Y-5341000D01*
X7944000Y-6441000D02*
X7974000Y-6471000D01*
X7974000Y-6441000D02*
X7944000Y-6471000D01*
X7946000Y-6752000D02*
X7976000Y-6782000D01*
X7976000Y-6752000D02*
X7946000Y-6782000D01*
X7982000Y-13541000D02*
X8012000Y-13571000D01*
X8012000Y-13541000D02*
X7982000Y-13571000D01*
X8051000Y-5118000D02*
X8081000Y-5148000D01*
X8081000Y-5118000D02*
X8051000Y-5148000D01*
X8062000Y-5770000D02*
X8092000Y-5800000D01*
X8092000Y-5770000D02*
X8062000Y-5800000D01*
X8125432Y-8276544D02*
X8155432Y-8306544D01*
X8155432Y-8276544D02*
X8125432Y-8306544D01*
X8125432Y-10181544D02*
X8155432Y-10211544D01*
X8155432Y-10181544D02*
X8125432Y-10211544D01*
X8125432Y-12086544D02*
X8155432Y-12116544D01*
X8155432Y-12086544D02*
X8125432Y-12116544D01*
X8130000Y-4375000D02*
X8160000Y-4405000D01*
X8160000Y-4375000D02*
X8130000Y-4405000D01*
X8170000Y-6275000D02*
X8200000Y-6305000D01*
X8200000Y-6275000D02*
X8170000Y-6305000D01*
X8170000Y-6578000D02*
X8200000Y-6608000D01*
X8200000Y-6578000D02*
X8170000Y-6608000D01*
X8324000Y-6938000D02*
X8354000Y-6968000D01*
X8354000Y-6938000D02*
X8324000Y-6968000D01*
X8350000Y-5311000D02*
X8380000Y-5341000D01*
X8380000Y-5311000D02*
X8350000Y-5341000D01*
X8413000Y-6906000D02*
X8443000Y-6936000D01*
X8443000Y-6906000D02*
X8413000Y-6936000D01*
X8450000Y-6255000D02*
X8480000Y-6285000D01*
X8480000Y-6255000D02*
X8450000Y-6285000D01*
X8455000Y-11404000D02*
X8485000Y-11434000D01*
X8485000Y-11404000D02*
X8455000Y-11434000D01*
X8464000Y-5767000D02*
X8494000Y-5797000D01*
X8494000Y-5767000D02*
X8464000Y-5797000D01*
X8469000Y-6815000D02*
X8499000Y-6845000D01*
X8499000Y-6815000D02*
X8469000Y-6845000D01*
X8510000Y-9482000D02*
X8540000Y-9512000D01*
X8540000Y-9482000D02*
X8510000Y-9512000D01*
X8590000Y-12744000D02*
X8620000Y-12774000D01*
X8620000Y-12744000D02*
X8590000Y-12774000D01*
X8601000Y-10871000D02*
X8631000Y-10901000D01*
X8631000Y-10871000D02*
X8601000Y-10901000D01*
X8636000Y-8943000D02*
X8666000Y-8973000D01*
X8666000Y-8943000D02*
X8636000Y-8973000D01*
X8637000Y-5102750D02*
X8667000Y-5132750D01*
X8667000Y-5102750D02*
X8637000Y-5132750D01*
X8696000Y-4375000D02*
X8726000Y-4405000D01*
X8726000Y-4375000D02*
X8696000Y-4405000D01*
X8756000Y-13548000D02*
X8786000Y-13578000D01*
X8786000Y-13548000D02*
X8756000Y-13578000D01*
X8881000Y-5276500D02*
X8911000Y-5306500D01*
X8911000Y-5276500D02*
X8881000Y-5306500D01*
X9037294Y-6078412D02*
X9067294Y-6108412D01*
X9067294Y-6078412D02*
X9037294Y-6108412D01*
X9078427Y-5952426D02*
X9108427Y-5982426D01*
X9108427Y-5952426D02*
X9078427Y-5982426D01*
X9085000Y-5861000D02*
X9115000Y-5891000D01*
X9115000Y-5861000D02*
X9085000Y-5891000D01*
X9134000Y-10858000D02*
X9164000Y-10888000D01*
X9164000Y-10858000D02*
X9134000Y-10888000D01*
X9203000Y-12735000D02*
X9233000Y-12765000D01*
X9233000Y-12735000D02*
X9203000Y-12765000D01*
X9238000Y-5699000D02*
X9268000Y-5729000D01*
X9268000Y-5699000D02*
X9238000Y-5729000D01*
X9337000Y-4453000D02*
X9367000Y-4483000D01*
X9367000Y-4453000D02*
X9337000Y-4483000D01*
X9347000Y-5254000D02*
X9377000Y-5284000D01*
X9377000Y-5254000D02*
X9347000Y-5284000D01*
X9352000Y-5010000D02*
X9382000Y-5040000D01*
X9382000Y-5010000D02*
X9352000Y-5040000D01*
X9353904Y-5949315D02*
X9383904Y-5979315D01*
X9383904Y-5949315D02*
X9353904Y-5979315D01*
X9359000Y-11400000D02*
X9389000Y-11430000D01*
X9389000Y-11400000D02*
X9359000Y-11430000D01*
X9363000Y-9477000D02*
X9393000Y-9507000D01*
X9393000Y-9477000D02*
X9363000Y-9507000D01*
X9369000Y-6337000D02*
X9399000Y-6367000D01*
X9399000Y-6337000D02*
X9369000Y-6367000D01*
X9371000Y-8946000D02*
X9401000Y-8976000D01*
X9401000Y-8946000D02*
X9371000Y-8976000D01*
X9405000Y-13548000D02*
X9435000Y-13578000D01*
X9435000Y-13548000D02*
X9405000Y-13578000D01*
X9423763Y-5807959D02*
X9453763Y-5837959D01*
X9453763Y-5807959D02*
X9423763Y-5837959D01*
X9510432Y-8022544D02*
X9540432Y-8052544D01*
X9540432Y-8022544D02*
X9510432Y-8052544D01*
X9510432Y-9927544D02*
X9540432Y-9957544D01*
X9540432Y-9927544D02*
X9510432Y-9957544D01*
X9510432Y-11832544D02*
X9540432Y-11862544D01*
X9540432Y-11832544D02*
X9510432Y-11862544D01*
X9530000Y-5838000D02*
X9560000Y-5868000D01*
X9560000Y-5838000D02*
X9530000Y-5868000D01*
X9586000Y-4453000D02*
X9616000Y-4483000D01*
X9616000Y-4453000D02*
X9586000Y-4483000D01*
X9608064Y-5929642D02*
X9638064Y-5959642D01*
X9638064Y-5929642D02*
X9608064Y-5959642D01*
X9649600Y-5480352D02*
X9679600Y-5510352D01*
X9679600Y-5480352D02*
X9649600Y-5510352D01*
X9707886Y-5999526D02*
X9737886Y-6029526D01*
X9737886Y-5999526D02*
X9707886Y-6029526D01*
X9708000Y-7251000D02*
X9738000Y-7281000D01*
X9738000Y-7251000D02*
X9708000Y-7281000D01*
X9737589Y-6217000D02*
X9767589Y-6247000D01*
X9767589Y-6217000D02*
X9737589Y-6247000D01*
X9738000Y-5839000D02*
X9768000Y-5869000D01*
X9768000Y-5839000D02*
X9738000Y-5869000D01*
X9742000Y-6766000D02*
X9772000Y-6796000D01*
X9772000Y-6766000D02*
X9742000Y-6796000D01*
X9814000Y-4452000D02*
X9844000Y-4482000D01*
X9844000Y-4452000D02*
X9814000Y-4482000D01*
X9821000Y-6382000D02*
X9851000Y-6412000D01*
X9851000Y-6382000D02*
X9821000Y-6412000D01*
X9824000Y-5916000D02*
X9854000Y-5946000D01*
X9854000Y-5916000D02*
X9824000Y-5946000D01*
X9830000Y-5009000D02*
X9860000Y-5039000D01*
X9860000Y-5009000D02*
X9830000Y-5039000D01*
X9839171Y-6647695D02*
X9869171Y-6677695D01*
X9869171Y-6647695D02*
X9839171Y-6677695D01*
X9887687Y-6015540D02*
X9917687Y-6045540D01*
X9917687Y-6015540D02*
X9887687Y-6045540D01*
X9907453Y-5893884D02*
X9937453Y-5923884D01*
X9937453Y-5893884D02*
X9907453Y-5923884D01*
X9912000Y-7220000D02*
X9942000Y-7250000D01*
X9942000Y-7220000D02*
X9912000Y-7250000D01*
X9926000Y-6653000D02*
X9956000Y-6683000D01*
X9956000Y-6653000D02*
X9926000Y-6683000D01*
X9936000Y-5812000D02*
X9966000Y-5842000D01*
X9966000Y-5812000D02*
X9936000Y-5842000D01*
X10030432Y-10181544D02*
X10060432Y-10211544D01*
X10060432Y-10181544D02*
X10030432Y-10211544D01*
X10043000Y-5299000D02*
X10073000Y-5329000D01*
X10073000Y-5299000D02*
X10043000Y-5329000D01*
X10169183Y-5281183D02*
X10199183Y-5311183D01*
X10199183Y-5281183D02*
X10169183Y-5311183D01*
X10224000Y-13538000D02*
X10254000Y-13568000D01*
X10254000Y-13538000D02*
X10224000Y-13568000D01*
X10233000Y-5974000D02*
X10263000Y-6004000D01*
X10263000Y-5974000D02*
X10233000Y-6004000D01*
X10241000Y-5824000D02*
X10271000Y-5854000D01*
X10271000Y-5824000D02*
X10241000Y-5854000D01*
X10289000Y-4498000D02*
X10319000Y-4528000D01*
X10319000Y-4498000D02*
X10289000Y-4528000D01*
X10297000Y-5057000D02*
X10327000Y-5087000D01*
X10327000Y-5057000D02*
X10297000Y-5087000D01*
X10361037Y-6149479D02*
X10391037Y-6179479D01*
X10391037Y-6149479D02*
X10361037Y-6179479D01*
X10412000Y-11391000D02*
X10442000Y-11421000D01*
X10442000Y-11391000D02*
X10412000Y-11421000D01*
X10422000Y-4925000D02*
X10452000Y-4955000D01*
X10452000Y-4925000D02*
X10422000Y-4955000D01*
X10463000Y-9496000D02*
X10493000Y-9526000D01*
X10493000Y-9496000D02*
X10463000Y-9526000D01*
X10472000Y-5579000D02*
X10502000Y-5609000D01*
X10502000Y-5579000D02*
X10472000Y-5609000D01*
X10479901Y-6115350D02*
X10509901Y-6145350D01*
X10509901Y-6115350D02*
X10479901Y-6145350D01*
X10512000Y-12771000D02*
X10542000Y-12801000D01*
X10542000Y-12771000D02*
X10512000Y-12801000D01*
X10526000Y-10846000D02*
X10556000Y-10876000D01*
X10556000Y-10846000D02*
X10526000Y-10876000D01*
X10611000Y-8951000D02*
X10641000Y-8981000D01*
X10641000Y-8951000D02*
X10611000Y-8981000D01*
X10694000Y-5422000D02*
X10724000Y-5452000D01*
X10724000Y-5422000D02*
X10694000Y-5452000D01*
X10708000Y-5603000D02*
X10738000Y-5633000D01*
X10738000Y-5603000D02*
X10708000Y-5633000D01*
X10747000Y-5050000D02*
X10777000Y-5080000D01*
X10777000Y-5050000D02*
X10747000Y-5080000D01*
X10770000Y-7103000D02*
X10800000Y-7133000D01*
X10800000Y-7103000D02*
X10770000Y-7133000D01*
X10791000Y-7422000D02*
X10821000Y-7452000D01*
X10821000Y-7422000D02*
X10791000Y-7452000D01*
X10824000Y-4375000D02*
X10854000Y-4405000D01*
X10854000Y-4375000D02*
X10824000Y-4405000D01*
X10961000Y-6526000D02*
X10991000Y-6556000D01*
X10991000Y-6526000D02*
X10961000Y-6556000D01*
X11055000Y-10829000D02*
X11085000Y-10859000D01*
X11085000Y-10829000D02*
X11055000Y-10859000D01*
X11102000Y-13523000D02*
X11132000Y-13553000D01*
X11132000Y-13523000D02*
X11102000Y-13553000D01*
X11108000Y-12755000D02*
X11138000Y-12785000D01*
X11138000Y-12755000D02*
X11108000Y-12785000D01*
X11121000Y-7447000D02*
X11151000Y-7477000D01*
X11151000Y-7447000D02*
X11121000Y-7477000D01*
X11257000Y-8951000D02*
X11287000Y-8981000D01*
X11287000Y-8951000D02*
X11257000Y-8981000D01*
X11258000Y-11383000D02*
X11288000Y-11413000D01*
X11288000Y-11383000D02*
X11258000Y-11413000D01*
X11319000Y-6952000D02*
X11349000Y-6982000D01*
X11349000Y-6952000D02*
X11319000Y-6982000D01*
X11326000Y-9484000D02*
X11356000Y-9514000D01*
X11356000Y-9484000D02*
X11326000Y-9514000D01*
X11415432Y-8022544D02*
X11445432Y-8052544D01*
X11445432Y-8022544D02*
X11415432Y-8052544D01*
X11415432Y-9927544D02*
X11445432Y-9957544D01*
X11445432Y-9927544D02*
X11415432Y-9957544D01*
X11415432Y-11832544D02*
X11445432Y-11862544D01*
X11445432Y-11832544D02*
X11415432Y-11862544D01*
X11534000Y-6544000D02*
X11564000Y-6574000D01*
X11564000Y-6544000D02*
X11534000Y-6574000D01*
X11560000Y-4396000D02*
X11590000Y-4426000D01*
X11590000Y-4396000D02*
X11560000Y-4426000D01*
X11626000Y-7277000D02*
X11656000Y-7307000D01*
X11656000Y-7277000D02*
X11626000Y-7307000D01*
X11627000Y-5907000D02*
X11657000Y-5937000D01*
X11657000Y-5907000D02*
X11627000Y-5937000D01*
X11645000Y-5081000D02*
X11675000Y-5111000D01*
X11675000Y-5081000D02*
X11645000Y-5111000D01*
X11823000Y-6231000D02*
X11853000Y-6261000D01*
X11853000Y-6231000D02*
X11823000Y-6261000D01*
X11852000Y-6952000D02*
X11882000Y-6982000D01*
X11882000Y-6952000D02*
X11852000Y-6982000D01*
X11947000Y-5463000D02*
X11977000Y-5493000D01*
X11977000Y-5463000D02*
X11947000Y-5493000D01*
X12026000Y-13513000D02*
X12056000Y-13543000D01*
X12056000Y-13513000D02*
X12026000Y-13543000D01*
X12069000Y-5899000D02*
X12099000Y-5929000D01*
X12099000Y-5899000D02*
X12069000Y-5929000D01*
X12107000Y-6515000D02*
X12137000Y-6545000D01*
X12137000Y-6515000D02*
X12107000Y-6545000D01*
X12169000Y-4474000D02*
X12199000Y-4504000D01*
X12199000Y-4474000D02*
X12169000Y-4504000D01*
X12181000Y-7284000D02*
X12211000Y-7314000D01*
X12211000Y-7284000D02*
X12181000Y-7314000D01*
X12197000Y-5078000D02*
X12227000Y-5108000D01*
X12227000Y-5078000D02*
X12197000Y-5108000D01*
X12274000Y-11391000D02*
X12304000Y-11421000D01*
X12304000Y-11391000D02*
X12274000Y-11421000D01*
X12329000Y-9499000D02*
X12359000Y-9529000D01*
X12359000Y-9499000D02*
X12329000Y-9529000D01*
X12361000Y-6231000D02*
X12391000Y-6261000D01*
X12391000Y-6231000D02*
X12361000Y-6261000D01*
X12398000Y-8948000D02*
X12428000Y-8978000D01*
X12428000Y-8948000D02*
X12398000Y-8978000D01*
X12409000Y-5456000D02*
X12439000Y-5486000D01*
X12439000Y-5456000D02*
X12409000Y-5486000D01*
X12428000Y-10817000D02*
X12458000Y-10847000D01*
X12458000Y-10817000D02*
X12428000Y-10847000D01*
X12433000Y-4779000D02*
X12463000Y-4809000D01*
X12463000Y-4779000D02*
X12433000Y-4809000D01*
X12440000Y-6938000D02*
X12470000Y-6968000D01*
X12470000Y-6938000D02*
X12440000Y-6968000D01*
X12474000Y-12742000D02*
X12504000Y-12772000D01*
X12504000Y-12742000D02*
X12474000Y-12772000D01*
X12596000Y-5899000D02*
X12626000Y-5929000D01*
X12626000Y-5899000D02*
X12596000Y-5929000D01*
X12688000Y-6529000D02*
X12718000Y-6559000D01*
X12718000Y-6529000D02*
X12688000Y-6559000D01*
X12690000Y-4463000D02*
X12720000Y-4493000D01*
X12720000Y-4463000D02*
X12690000Y-4493000D01*
X12704000Y-5057000D02*
X12734000Y-5087000D01*
X12734000Y-5057000D02*
X12704000Y-5087000D01*
X12719000Y-7288000D02*
X12749000Y-7318000D01*
X12749000Y-7288000D02*
X12719000Y-7318000D01*
X12934000Y-6961000D02*
X12964000Y-6991000D01*
X12964000Y-6961000D02*
X12934000Y-6991000D01*
X12966000Y-10821000D02*
X12996000Y-10851000D01*
X12996000Y-10821000D02*
X12966000Y-10851000D01*
X12988000Y-4776000D02*
X13018000Y-4806000D01*
X13018000Y-4776000D02*
X12988000Y-4806000D01*
X12991000Y-12742000D02*
X13021000Y-12772000D01*
X13021000Y-12742000D02*
X12991000Y-12772000D01*
X13032000Y-8945000D02*
X13062000Y-8975000D01*
X13062000Y-8945000D02*
X13032000Y-8975000D01*
X13053000Y-13499000D02*
X13083000Y-13529000D01*
X13083000Y-13499000D02*
X13053000Y-13529000D01*
X13161000Y-9492000D02*
X13191000Y-9522000D01*
X13191000Y-9492000D02*
X13161000Y-9522000D01*
X13188000Y-11351000D02*
X13218000Y-11381000D01*
X13218000Y-11351000D02*
X13188000Y-11381000D01*
X13282000Y-7263000D02*
X13312000Y-7293000D01*
X13312000Y-7263000D02*
X13282000Y-7293000D01*
X13310544Y-11832544D02*
X13340544Y-11862544D01*
X13340544Y-11832544D02*
X13310544Y-11862544D01*
X13320432Y-8022544D02*
X13350432Y-8052544D01*
X13350432Y-8022544D02*
X13320432Y-8052544D01*
X13320432Y-9927544D02*
X13350432Y-9957544D01*
X13350432Y-9927544D02*
X13320432Y-9957544D01*
X13601000Y-6944000D02*
X13631000Y-6974000D01*
X13631000Y-6944000D02*
X13601000Y-6974000D01*
X13809000Y-7274000D02*
X13839000Y-7304000D01*
X13839000Y-7274000D02*
X13809000Y-7304000D01*
X13811000Y-8310000D02*
X13841000Y-8340000D01*
X13841000Y-8310000D02*
X13811000Y-8340000D01*
X13811000Y-9099000D02*
X13841000Y-9129000D01*
X13841000Y-9099000D02*
X13811000Y-9129000D01*
X13823000Y-10033000D02*
X13853000Y-10063000D01*
X13853000Y-10033000D02*
X13823000Y-10063000D01*
X13827000Y-10913000D02*
X13857000Y-10943000D01*
X13857000Y-10913000D02*
X13827000Y-10943000D01*
X13830000Y-11716000D02*
X13860000Y-11746000D01*
X13860000Y-11716000D02*
X13830000Y-11746000D01*
X13837000Y-12501000D02*
X13867000Y-12531000D01*
X13867000Y-12501000D02*
X13837000Y-12531000D01*
X14457000Y-9784000D02*
X14487000Y-9814000D01*
X14487000Y-9784000D02*
X14457000Y-9814000D01*
X14466000Y-10461000D02*
X14496000Y-10491000D01*
X14496000Y-10461000D02*
X14466000Y-10491000D01*
X14472000Y-10856000D02*
X14502000Y-10886000D01*
X14502000Y-10856000D02*
X14472000Y-10886000D01*
X14479000Y-11620000D02*
X14509000Y-11650000D01*
X14509000Y-11620000D02*
X14479000Y-11650000D01*
X14492298Y-12253500D02*
X14522298Y-12283500D01*
X14522298Y-12253500D02*
X14492298Y-12283500D01*
X14503000Y-12807000D02*
X14533000Y-12837000D01*
X14533000Y-12807000D02*
X14503000Y-12837000D01*
X14693000Y-12518000D02*
X14723000Y-12548000D01*
X14723000Y-12518000D02*
X14693000Y-12548000D01*
X14886000Y-12761000D02*
X14916000Y-12791000D01*
X14916000Y-12761000D02*
X14886000Y-12791000D01*
X14897000Y-9990000D02*
X14927000Y-10020000D01*
X14927000Y-9990000D02*
X14897000Y-10020000D01*
X14916000Y-10346000D02*
X14946000Y-10376000D01*
X14946000Y-10346000D02*
X14916000Y-10376000D01*
X14983298Y-10526250D02*
X15013298Y-10556250D01*
X15013298Y-10526250D02*
X14983298Y-10556250D01*
X14996298Y-10894500D02*
X15026298Y-10924500D01*
X15026298Y-10894500D02*
X14996298Y-10924500D01*
X15003298Y-12999500D02*
X15033298Y-13029500D01*
X15033298Y-12999500D02*
X15003298Y-13029500D01*
X15004798Y-11401500D02*
X15034798Y-11431500D01*
X15034798Y-11401500D02*
X15004798Y-11431500D01*
X15008298Y-13180500D02*
X15038298Y-13210500D01*
X15038298Y-13180500D02*
X15008298Y-13210500D01*
X15047000Y-13559000D02*
X15077000Y-13589000D01*
X15077000Y-13559000D02*
X15047000Y-13589000D01*
X15048000Y-12525000D02*
X15078000Y-12555000D01*
X15078000Y-12525000D02*
X15048000Y-12555000D01*
X15110298Y-11577500D02*
X15140298Y-11607500D01*
X15140298Y-11577500D02*
X15110298Y-11607500D01*
X15132798Y-10246500D02*
X15162798Y-10276500D01*
X15162798Y-10246500D02*
X15132798Y-10276500D01*
X15159298Y-10433500D02*
X15189298Y-10463500D01*
X15189298Y-10433500D02*
X15159298Y-10463500D01*
X15169798Y-11401500D02*
X15199798Y-11431500D01*
X15199798Y-11401500D02*
X15169798Y-11431500D01*
X15262000Y-12764000D02*
X15292000Y-12794000D01*
X15292000Y-12764000D02*
X15262000Y-12794000D01*
X15340298Y-10711500D02*
X15370298Y-10741500D01*
X15370298Y-10711500D02*
X15340298Y-10741500D01*
X15358298Y-11073500D02*
X15388298Y-11103500D01*
X15388298Y-11073500D02*
X15358298Y-11103500D01*
X15367298Y-10867500D02*
X15397298Y-10897500D01*
X15397298Y-10867500D02*
X15367298Y-10897500D01*
X15369298Y-10432500D02*
X15399298Y-10462500D01*
X15399298Y-10432500D02*
X15369298Y-10462500D01*
X15377641Y-11280503D02*
X15407641Y-11310503D01*
X15407641Y-11280503D02*
X15377641Y-11310503D01*
X15435298Y-11192500D02*
X15465298Y-11222500D01*
X15465298Y-11192500D02*
X15435298Y-11222500D01*
X15454298Y-10719500D02*
X15484298Y-10749500D01*
X15484298Y-10719500D02*
X15454298Y-10749500D01*
X15563298Y-11569400D02*
X15593298Y-11599400D01*
X15593298Y-11569400D02*
X15563298Y-11599400D01*
X15569298Y-10946500D02*
X15599298Y-10976500D01*
X15599298Y-10946500D02*
X15569298Y-10976500D01*
X15638000Y-13559000D02*
X15668000Y-13589000D01*
X15668000Y-13559000D02*
X15638000Y-13589000D01*
X15744871Y-11072927D02*
X15774871Y-11102927D01*
X15774871Y-11072927D02*
X15744871Y-11102927D01*
X15779298Y-11609400D02*
X15809298Y-11639400D01*
X15809298Y-11609400D02*
X15779298Y-11639400D01*
X15797298Y-12795500D02*
X15827298Y-12825500D01*
X15827298Y-12795500D02*
X15797298Y-12825500D01*
X15797298Y-13185500D02*
X15827298Y-13215500D01*
X15827298Y-13185500D02*
X15797298Y-13215500D01*
X15815230Y-11169680D02*
X15845230Y-11199680D01*
X15845230Y-11169680D02*
X15815230Y-11199680D01*
X15879298Y-11614500D02*
X15909298Y-11644500D01*
X15909298Y-11614500D02*
X15879298Y-11644500D01*
X15894147Y-11050500D02*
X15924147Y-11080500D01*
X15924147Y-11050500D02*
X15894147Y-11080500D01*
X15897298Y-10956500D02*
X15927298Y-10986500D01*
X15927298Y-10956500D02*
X15897298Y-10986500D01*
X15947298Y-11676500D02*
X15977298Y-11706500D01*
X15977298Y-11676500D02*
X15947298Y-11706500D01*
X16041298Y-11838500D02*
X16071298Y-11868500D01*
X16071298Y-11838500D02*
X16041298Y-11868500D01*
X16046298Y-12099500D02*
X16076298Y-12129500D01*
X16076298Y-12099500D02*
X16046298Y-12129500D01*
X16069000Y-13557000D02*
X16099000Y-13587000D01*
X16099000Y-13557000D02*
X16069000Y-13587000D01*
X16262298Y-11022500D02*
X16292298Y-11052500D01*
X16292298Y-11022500D02*
X16262298Y-11052500D01*
X16306000Y-10291000D02*
X16336000Y-10321000D01*
X16336000Y-10291000D02*
X16306000Y-10321000D01*
X16480000Y-9640000D02*
X16510000Y-9670000D01*
X16510000Y-9640000D02*
X16480000Y-9670000D01*
X16488298Y-11141500D02*
X16518298Y-11171500D01*
X16518298Y-11141500D02*
X16488298Y-11171500D01*
X16498298Y-10072500D02*
X16528298Y-10102500D01*
X16528298Y-10072500D02*
X16498298Y-10102500D01*
X16500000Y-10495000D02*
X16530000Y-10525000D01*
X16530000Y-10495000D02*
X16500000Y-10525000D01*
X16500000Y-12015000D02*
X16530000Y-12045000D01*
X16530000Y-12015000D02*
X16500000Y-12045000D01*
X16501298Y-11542500D02*
X16531298Y-11572500D01*
X16531298Y-11542500D02*
X16501298Y-11572500D01*
X16503000Y-13405000D02*
X16533000Y-13435000D01*
X16533000Y-13405000D02*
X16503000Y-13435000D01*
X16512000Y-12443000D02*
X16542000Y-12473000D01*
X16542000Y-12443000D02*
X16512000Y-12473000D01*
X16515000Y-12951000D02*
X16545000Y-12981000D01*
X16545000Y-12951000D02*
X16515000Y-12981000D01*
X6200000Y-10826000D02*
G75*
G02*
X6170000Y-10826000I-15000J0D01*
G01*
X6170000Y-10826000D02*
G75*
G02*
X6200000Y-10826000I15000J0D01*
G01*
X6200000Y-10946000D02*
G75*
G02*
X6170000Y-10946000I-15000J0D01*
G01*
X6170000Y-10946000D02*
G75*
G02*
X6200000Y-10946000I15000J0D01*
G01*
X6200000Y-11066000D02*
G75*
G02*
X6170000Y-11066000I-15000J0D01*
G01*
X6170000Y-11066000D02*
G75*
G02*
X6200000Y-11066000I15000J0D01*
G01*
X6340000Y-10826000D02*
G75*
G02*
X6310000Y-10826000I-15000J0D01*
G01*
X6310000Y-10826000D02*
G75*
G02*
X6340000Y-10826000I15000J0D01*
G01*
X6340000Y-10946000D02*
G75*
G02*
X6310000Y-10946000I-15000J0D01*
G01*
X6310000Y-10946000D02*
G75*
G02*
X6340000Y-10946000I15000J0D01*
G01*
X6340000Y-11066000D02*
G75*
G02*
X6310000Y-11066000I-15000J0D01*
G01*
X6310000Y-11066000D02*
G75*
G02*
X6340000Y-11066000I15000J0D01*
G01*
X6767500Y-5340000D02*
X6767500Y-5400000D01*
X6737500Y-5370000D02*
X6797500Y-5370000D01*
X6892500Y-5340000D02*
X6892500Y-5400000D01*
X6862500Y-5370000D02*
X6922500Y-5370000D01*
X7017500Y-5340000D02*
X7017500Y-5400000D01*
X6987500Y-5370000D02*
X7047500Y-5370000D01*
X10186000Y-7140500D02*
X10186000Y-7200500D01*
X10156000Y-7170500D02*
X10216000Y-7170500D01*
X10186000Y-7265500D02*
X10186000Y-7325500D01*
X10156000Y-7295500D02*
X10216000Y-7295500D01*
X16255798Y-9911500D02*
X16255798Y-9971500D01*
X16225798Y-9941500D02*
X16285798Y-9941500D01*
X16255798Y-10036500D02*
X16255798Y-10096500D01*
X16225798Y-10066500D02*
X16285798Y-10066500D01*
X9196749Y-4452999D02*
X9196749Y-4403501D01*
X9147251Y-4403501D01*
X9147251Y-4452999D01*
X9196749Y-4452999D01*
X9207000Y-4463250D02*
X9207000Y-4393250D01*
X9137000Y-4393250D02*
G75*
G02*
X9207000Y-4393250I35000J0D01*
G01*
X9137000Y-4393250D02*
X9137000Y-4463250D01*
X9137000Y-4463250D02*
G75*
G03*
X9207000Y-4463250I35000J0D01*
G01*
X9196749Y-4870999D02*
X9196749Y-4821501D01*
X9147251Y-4821501D01*
X9147251Y-4870999D01*
X9196749Y-4870999D01*
X9207000Y-4896250D02*
X9207000Y-4796250D01*
X9137000Y-4796250D02*
G75*
G02*
X9207000Y-4796250I35000J0D01*
G01*
X9137000Y-4796250D02*
X9137000Y-4896250D01*
X9137000Y-4896250D02*
G75*
G03*
X9207000Y-4896250I35000J0D01*
G01*
X10060749Y-4452999D02*
X10060749Y-4403501D01*
X10011251Y-4403501D01*
X10011251Y-4452999D01*
X10060749Y-4452999D01*
X10071000Y-4463250D02*
X10071000Y-4393250D01*
X10001000Y-4393250D02*
G75*
G02*
X10071000Y-4393250I35000J0D01*
G01*
X10001000Y-4393250D02*
X10001000Y-4463250D01*
X10001000Y-4463250D02*
G75*
G03*
X10071000Y-4463250I35000J0D01*
G01*
X10060749Y-4870999D02*
X10060749Y-4821501D01*
X10011251Y-4821501D01*
X10011251Y-4870999D01*
X10060749Y-4870999D01*
X10071000Y-4896250D02*
X10071000Y-4796250D01*
X10001000Y-4796250D02*
G75*
G02*
X10071000Y-4796250I35000J0D01*
G01*
X10001000Y-4796250D02*
X10001000Y-4896250D01*
X10001000Y-4896250D02*
G75*
G03*
X10071000Y-4896250I35000J0D01*
G01*
X14920298Y-9721500D02*
X14960298Y-9681500D01*
X14920298Y-9641500D01*
X14880298Y-9681500D01*
X14920298Y-9721500D01*
X14960298Y-9751500D02*
X14960298Y-9611500D01*
X14880298Y-9611500D02*
G75*
G02*
X14960298Y-9611500I40000J0D01*
G01*
X14880298Y-9611500D02*
X14880298Y-9751500D01*
X14880298Y-9751500D02*
G75*
G03*
X14960298Y-9751500I40000J0D01*
G01*
X16080298Y-9721500D02*
X16120298Y-9681500D01*
X16080298Y-9641500D01*
X16040298Y-9681500D01*
X16080298Y-9721500D01*
X16120298Y-9751500D02*
X16120298Y-9611500D01*
X16040298Y-9611500D02*
G75*
G02*
X16120298Y-9611500I40000J0D01*
G01*
X16040298Y-9611500D02*
X16040298Y-9751500D01*
X16040298Y-9751500D02*
G75*
G03*
X16120298Y-9751500I40000J0D01*
G01*
X5477000Y-7685000D02*
X5577000Y-7785000D01*
X5577000Y-7685000D02*
X5477000Y-7785000D01*
X5577000Y-7735000D02*
G75*
G02*
X5477000Y-7735000I-50000J0D01*
G01*
X5477000Y-7735000D02*
G75*
G02*
X5577000Y-7735000I50000J0D01*
G01*
X5477000Y-7935000D02*
X5577000Y-8035000D01*
X5577000Y-7935000D02*
X5477000Y-8035000D01*
X5577000Y-7985000D02*
G75*
G02*
X5477000Y-7985000I-50000J0D01*
G01*
X5477000Y-7985000D02*
G75*
G02*
X5577000Y-7985000I50000J0D01*
G01*
X5477000Y-8185000D02*
X5577000Y-8285000D01*
X5577000Y-8185000D02*
X5477000Y-8285000D01*
X5577000Y-8235000D02*
G75*
G02*
X5477000Y-8235000I-50000J0D01*
G01*
X5477000Y-8235000D02*
G75*
G02*
X5577000Y-8235000I50000J0D01*
G01*
X5482000Y-9395000D02*
X5582000Y-9495000D01*
X5582000Y-9395000D02*
X5482000Y-9495000D01*
X5582000Y-9445000D02*
G75*
G02*
X5482000Y-9445000I-50000J0D01*
G01*
X5482000Y-9445000D02*
G75*
G02*
X5582000Y-9445000I50000J0D01*
G01*
X5482000Y-9645000D02*
X5582000Y-9745000D01*
X5582000Y-9645000D02*
X5482000Y-9745000D01*
X5582000Y-9695000D02*
G75*
G02*
X5482000Y-9695000I-50000J0D01*
G01*
X5482000Y-9695000D02*
G75*
G02*
X5582000Y-9695000I50000J0D01*
G01*
X5482000Y-9895000D02*
X5582000Y-9995000D01*
X5582000Y-9895000D02*
X5482000Y-9995000D01*
X5582000Y-9945000D02*
G75*
G02*
X5482000Y-9945000I-50000J0D01*
G01*
X5482000Y-9945000D02*
G75*
G02*
X5582000Y-9945000I50000J0D01*
G01*
X6121000Y-13080000D02*
X6221000Y-13180000D01*
X6221000Y-13080000D02*
X6121000Y-13180000D01*
X6221000Y-13130000D02*
G75*
G02*
X6121000Y-13130000I-50000J0D01*
G01*
X6121000Y-13130000D02*
G75*
G02*
X6221000Y-13130000I50000J0D01*
G01*
X6375000Y-13080000D02*
X6475000Y-13180000D01*
X6475000Y-13080000D02*
X6375000Y-13180000D01*
X6475000Y-13130000D02*
G75*
G02*
X6375000Y-13130000I-50000J0D01*
G01*
X6375000Y-13130000D02*
G75*
G02*
X6475000Y-13130000I50000J0D01*
G01*
X6629000Y-13080000D02*
X6729000Y-13180000D01*
X6729000Y-13080000D02*
X6629000Y-13180000D01*
X6729000Y-13130000D02*
G75*
G02*
X6629000Y-13130000I-50000J0D01*
G01*
X6629000Y-13130000D02*
G75*
G02*
X6729000Y-13130000I50000J0D01*
G01*
X6883000Y-13080000D02*
X6983000Y-13180000D01*
X6983000Y-13080000D02*
X6883000Y-13180000D01*
X6983000Y-13130000D02*
G75*
G02*
X6883000Y-13130000I-50000J0D01*
G01*
X6883000Y-13130000D02*
G75*
G02*
X6983000Y-13130000I50000J0D01*
G01*
X6927000Y-7685000D02*
X7027000Y-7785000D01*
X7027000Y-7685000D02*
X6927000Y-7785000D01*
X7027000Y-7735000D02*
G75*
G02*
X6927000Y-7735000I-50000J0D01*
G01*
X6927000Y-7735000D02*
G75*
G02*
X7027000Y-7735000I50000J0D01*
G01*
X6927000Y-8185000D02*
X7027000Y-8285000D01*
X7027000Y-8185000D02*
X6927000Y-8285000D01*
X7027000Y-8235000D02*
G75*
G02*
X6927000Y-8235000I-50000J0D01*
G01*
X6927000Y-8235000D02*
G75*
G02*
X7027000Y-8235000I50000J0D01*
G01*
X6932000Y-9395000D02*
X7032000Y-9495000D01*
X7032000Y-9395000D02*
X6932000Y-9495000D01*
X7032000Y-9445000D02*
G75*
G02*
X6932000Y-9445000I-50000J0D01*
G01*
X6932000Y-9445000D02*
G75*
G02*
X7032000Y-9445000I50000J0D01*
G01*
X6932000Y-9895000D02*
X7032000Y-9995000D01*
X7032000Y-9895000D02*
X6932000Y-9995000D01*
X7032000Y-9945000D02*
G75*
G02*
X6932000Y-9945000I-50000J0D01*
G01*
X6932000Y-9945000D02*
G75*
G02*
X7032000Y-9945000I50000J0D01*
G01*
X10967000Y-5341000D02*
X11067000Y-5441000D01*
X11067000Y-5341000D02*
X10967000Y-5441000D01*
X11067000Y-5391000D02*
G75*
G02*
X10967000Y-5391000I-50000J0D01*
G01*
X10967000Y-5391000D02*
G75*
G02*
X11067000Y-5391000I50000J0D01*
G01*
X10967000Y-5595000D02*
X11067000Y-5695000D01*
X11067000Y-5595000D02*
X10967000Y-5695000D01*
X11067000Y-5645000D02*
G75*
G02*
X10967000Y-5645000I-50000J0D01*
G01*
X10967000Y-5645000D02*
G75*
G02*
X11067000Y-5645000I50000J0D01*
G01*
X10967000Y-5849000D02*
X11067000Y-5949000D01*
X11067000Y-5849000D02*
X10967000Y-5949000D01*
X11067000Y-5899000D02*
G75*
G02*
X10967000Y-5899000I-50000J0D01*
G01*
X10967000Y-5899000D02*
G75*
G02*
X11067000Y-5899000I50000J0D01*
G01*
X10967000Y-6103000D02*
X11067000Y-6203000D01*
X11067000Y-6103000D02*
X10967000Y-6203000D01*
X11067000Y-6153000D02*
G75*
G02*
X10967000Y-6153000I-50000J0D01*
G01*
X10967000Y-6153000D02*
G75*
G02*
X11067000Y-6153000I50000J0D01*
G01*
X11057000Y-4742000D02*
X11157000Y-4842000D01*
X11157000Y-4742000D02*
X11057000Y-4842000D01*
X11157000Y-4792000D02*
G75*
G02*
X11057000Y-4792000I-50000J0D01*
G01*
X11057000Y-4792000D02*
G75*
G02*
X11157000Y-4792000I50000J0D01*
G01*
X11221000Y-5341000D02*
X11321000Y-5441000D01*
X11321000Y-5341000D02*
X11221000Y-5441000D01*
X11321000Y-5391000D02*
G75*
G02*
X11221000Y-5391000I-50000J0D01*
G01*
X11221000Y-5391000D02*
G75*
G02*
X11321000Y-5391000I50000J0D01*
G01*
X11221000Y-5595000D02*
X11321000Y-5695000D01*
X11321000Y-5595000D02*
X11221000Y-5695000D01*
X11321000Y-5645000D02*
G75*
G02*
X11221000Y-5645000I-50000J0D01*
G01*
X11221000Y-5645000D02*
G75*
G02*
X11321000Y-5645000I50000J0D01*
G01*
X11221000Y-5849000D02*
X11321000Y-5949000D01*
X11321000Y-5849000D02*
X11221000Y-5949000D01*
X11321000Y-5899000D02*
G75*
G02*
X11221000Y-5899000I-50000J0D01*
G01*
X11221000Y-5899000D02*
G75*
G02*
X11321000Y-5899000I50000J0D01*
G01*
X11221000Y-6103000D02*
X11321000Y-6203000D01*
X11321000Y-6103000D02*
X11221000Y-6203000D01*
X11321000Y-6153000D02*
G75*
G02*
X11221000Y-6153000I-50000J0D01*
G01*
X11221000Y-6153000D02*
G75*
G02*
X11321000Y-6153000I50000J0D01*
G01*
X11311000Y-4742000D02*
X11411000Y-4842000D01*
X11411000Y-4742000D02*
X11311000Y-4842000D01*
X11411000Y-4792000D02*
G75*
G02*
X11311000Y-4792000I-50000J0D01*
G01*
X11311000Y-4792000D02*
G75*
G02*
X11411000Y-4792000I50000J0D01*
G01*
X11565000Y-4742000D02*
X11665000Y-4842000D01*
X11665000Y-4742000D02*
X11565000Y-4842000D01*
X11665000Y-4792000D02*
G75*
G02*
X11565000Y-4792000I-50000J0D01*
G01*
X11565000Y-4792000D02*
G75*
G02*
X11665000Y-4792000I50000J0D01*
G01*
X11819000Y-4742000D02*
X11919000Y-4842000D01*
X11919000Y-4742000D02*
X11819000Y-4842000D01*
X11919000Y-4792000D02*
G75*
G02*
X11819000Y-4792000I-50000J0D01*
G01*
X11819000Y-4792000D02*
G75*
G02*
X11919000Y-4792000I50000J0D01*
G01*
X15028298Y-11789500D02*
X15128298Y-11889500D01*
X15128298Y-11789500D02*
X15028298Y-11889500D01*
X15128298Y-11839500D02*
G75*
G02*
X15028298Y-11839500I-50000J0D01*
G01*
X15028298Y-11839500D02*
G75*
G02*
X15128298Y-11839500I50000J0D01*
G01*
X15028298Y-12043500D02*
X15128298Y-12143500D01*
X15128298Y-12043500D02*
X15028298Y-12143500D01*
X15128298Y-12093500D02*
G75*
G02*
X15028298Y-12093500I-50000J0D01*
G01*
X15028298Y-12093500D02*
G75*
G02*
X15128298Y-12093500I50000J0D01*
G01*
X15100298Y-9846500D02*
X15200298Y-9946500D01*
X15200298Y-9846500D02*
X15100298Y-9946500D01*
X15200298Y-9896500D02*
G75*
G02*
X15100298Y-9896500I-50000J0D01*
G01*
X15100298Y-9896500D02*
G75*
G02*
X15200298Y-9896500I50000J0D01*
G01*
X15282298Y-11789500D02*
X15382298Y-11889500D01*
X15382298Y-11789500D02*
X15282298Y-11889500D01*
X15382298Y-11839500D02*
G75*
G02*
X15282298Y-11839500I-50000J0D01*
G01*
X15282298Y-11839500D02*
G75*
G02*
X15382298Y-11839500I50000J0D01*
G01*
X15282298Y-12043500D02*
X15382298Y-12143500D01*
X15382298Y-12043500D02*
X15282298Y-12143500D01*
X15382298Y-12093500D02*
G75*
G02*
X15282298Y-12093500I-50000J0D01*
G01*
X15282298Y-12093500D02*
G75*
G02*
X15382298Y-12093500I50000J0D01*
G01*
X15350298Y-9846500D02*
X15450298Y-9946500D01*
X15450298Y-9846500D02*
X15350298Y-9946500D01*
X15450298Y-9896500D02*
G75*
G02*
X15350298Y-9896500I-50000J0D01*
G01*
X15350298Y-9896500D02*
G75*
G02*
X15450298Y-9896500I50000J0D01*
G01*
X15536298Y-11789500D02*
X15636298Y-11889500D01*
X15636298Y-11789500D02*
X15536298Y-11889500D01*
X15636298Y-11839500D02*
G75*
G02*
X15536298Y-11839500I-50000J0D01*
G01*
X15536298Y-11839500D02*
G75*
G02*
X15636298Y-11839500I50000J0D01*
G01*
X15536298Y-12043500D02*
X15636298Y-12143500D01*
X15636298Y-12043500D02*
X15536298Y-12143500D01*
X15636298Y-12093500D02*
G75*
G02*
X15536298Y-12093500I-50000J0D01*
G01*
X15536298Y-12093500D02*
G75*
G02*
X15636298Y-12093500I50000J0D01*
G01*
X15550298Y-9846500D02*
X15650298Y-9946500D01*
X15650298Y-9846500D02*
X15550298Y-9946500D01*
X15650298Y-9896500D02*
G75*
G02*
X15550298Y-9896500I-50000J0D01*
G01*
X15550298Y-9896500D02*
G75*
G02*
X15650298Y-9896500I50000J0D01*
G01*
X15790298Y-11789500D02*
X15890298Y-11889500D01*
X15890298Y-11789500D02*
X15790298Y-11889500D01*
X15890298Y-11839500D02*
G75*
G02*
X15790298Y-11839500I-50000J0D01*
G01*
X15790298Y-11839500D02*
G75*
G02*
X15890298Y-11839500I50000J0D01*
G01*
X15790298Y-12043500D02*
X15890298Y-12143500D01*
X15890298Y-12043500D02*
X15790298Y-12143500D01*
X15890298Y-12093500D02*
G75*
G02*
X15790298Y-12093500I-50000J0D01*
G01*
X15790298Y-12093500D02*
G75*
G02*
X15890298Y-12093500I50000J0D01*
G01*
X15800298Y-9846500D02*
X15900298Y-9946500D01*
X15900298Y-9846500D02*
X15800298Y-9946500D01*
X15900298Y-9896500D02*
G75*
G02*
X15800298Y-9896500I-50000J0D01*
G01*
X15800298Y-9896500D02*
G75*
G02*
X15900298Y-9896500I50000J0D01*
G01*
X16201298Y-12589500D02*
X16301298Y-12689500D01*
X16301298Y-12589500D02*
X16201298Y-12689500D01*
X16301298Y-12639500D02*
G75*
G02*
X16201298Y-12639500I-50000J0D01*
G01*
X16201298Y-12639500D02*
G75*
G02*
X16301298Y-12639500I50000J0D01*
G01*
X16201298Y-12843500D02*
X16301298Y-12943500D01*
X16301298Y-12843500D02*
X16201298Y-12943500D01*
X16301298Y-12893500D02*
G75*
G02*
X16201298Y-12893500I-50000J0D01*
G01*
X16201298Y-12893500D02*
G75*
G02*
X16301298Y-12893500I50000J0D01*
G01*
X16201298Y-13097500D02*
X16301298Y-13197500D01*
X16301298Y-13097500D02*
X16201298Y-13197500D01*
X16301298Y-13147500D02*
G75*
G02*
X16201298Y-13147500I-50000J0D01*
G01*
X16201298Y-13147500D02*
G75*
G02*
X16301298Y-13147500I50000J0D01*
G01*
X16201298Y-13351500D02*
X16301298Y-13451500D01*
X16301298Y-13351500D02*
X16201298Y-13451500D01*
X16301298Y-13401500D02*
G75*
G02*
X16201298Y-13401500I-50000J0D01*
G01*
X16201298Y-13401500D02*
G75*
G02*
X16301298Y-13401500I50000J0D01*
G01*
D13*
X5647000Y-5718000D02*
X5757000Y-5828000D01*
X5757000Y-5718000D02*
X5647000Y-5828000D01*
X5702000Y-5718000D02*
X5702000Y-5828000D01*
X5647000Y-5773000D02*
X5757000Y-5773000D01*
X5647000Y-6018000D02*
X5757000Y-6128000D01*
X5757000Y-6018000D02*
X5647000Y-6128000D01*
X5702000Y-6018000D02*
X5702000Y-6128000D01*
X5647000Y-6073000D02*
X5757000Y-6073000D01*
X5647000Y-6318000D02*
X5757000Y-6428000D01*
X5757000Y-6318000D02*
X5647000Y-6428000D01*
X5702000Y-6318000D02*
X5702000Y-6428000D01*
X5647000Y-6373000D02*
X5757000Y-6373000D01*
X5677000Y-5393000D02*
X5787000Y-5503000D01*
X5787000Y-5393000D02*
X5677000Y-5503000D01*
X5732000Y-5393000D02*
X5732000Y-5503000D01*
X5677000Y-5448000D02*
X5787000Y-5448000D01*
X5677000Y-6643000D02*
X5787000Y-6753000D01*
X5787000Y-6643000D02*
X5677000Y-6753000D01*
X5732000Y-6643000D02*
X5732000Y-6753000D01*
X5677000Y-6698000D02*
X5787000Y-6698000D01*
D14*
X6991500Y-11423500D02*
X7106500Y-11538500D01*
X7106500Y-11423500D02*
X6991500Y-11538500D01*
X7089659Y-11521659D02*
X7089659Y-11440341D01*
X7008341Y-11440341D01*
X7008341Y-11521659D01*
X7089659Y-11521659D01*
X7451500Y-11423500D02*
X7566500Y-11538500D01*
X7566500Y-11423500D02*
X7451500Y-11538500D01*
X7549659Y-11521659D02*
X7549659Y-11440341D01*
X7468341Y-11440341D01*
X7468341Y-11521659D01*
X7549659Y-11521659D01*
D12*
X6177000Y-7325000D02*
X6377000Y-7525000D01*
X6377000Y-7325000D02*
X6177000Y-7525000D01*
X6277000Y-7525000D02*
X6377000Y-7425000D01*
X6277000Y-7325000D01*
X6177000Y-7425000D01*
X6277000Y-7525000D01*
D11*
X6252000Y-7525000D02*
X6302000Y-7525000D01*
X6302000Y-7325000D02*
G75*
G02*
X6302000Y-7525000I0J-100000D01*
G01*
X6302000Y-7325000D02*
X6252000Y-7325000D01*
X6252000Y-7325000D02*
G75*
G03*
X6252000Y-7525000I0J-100000D01*
G01*
D12*
X6177000Y-8445000D02*
X6377000Y-8645000D01*
X6377000Y-8445000D02*
X6177000Y-8645000D01*
X6277000Y-8645000D02*
X6377000Y-8545000D01*
X6277000Y-8445000D01*
X6177000Y-8545000D01*
X6277000Y-8645000D01*
D11*
X6252000Y-8645000D02*
X6302000Y-8645000D01*
X6302000Y-8445000D02*
G75*
G02*
X6302000Y-8645000I0J-100000D01*
G01*
X6302000Y-8445000D02*
X6252000Y-8445000D01*
X6252000Y-8445000D02*
G75*
G03*
X6252000Y-8645000I0J-100000D01*
G01*
D12*
X6182000Y-9035000D02*
X6382000Y-9235000D01*
X6382000Y-9035000D02*
X6182000Y-9235000D01*
X6282000Y-9235000D02*
X6382000Y-9135000D01*
X6282000Y-9035000D01*
X6182000Y-9135000D01*
X6282000Y-9235000D01*
D11*
X6257000Y-9235000D02*
X6307000Y-9235000D01*
X6307000Y-9035000D02*
G75*
G02*
X6307000Y-9235000I0J-100000D01*
G01*
X6307000Y-9035000D02*
X6257000Y-9035000D01*
X6257000Y-9035000D02*
G75*
G03*
X6257000Y-9235000I0J-100000D01*
G01*
D12*
X6182000Y-10155000D02*
X6382000Y-10355000D01*
X6382000Y-10155000D02*
X6182000Y-10355000D01*
X6282000Y-10355000D02*
X6382000Y-10255000D01*
X6282000Y-10155000D01*
X6182000Y-10255000D01*
X6282000Y-10355000D01*
D11*
X6257000Y-10355000D02*
X6307000Y-10355000D01*
X6307000Y-10155000D02*
G75*
G02*
X6307000Y-10355000I0J-100000D01*
G01*
X6307000Y-10155000D02*
X6257000Y-10155000D01*
X6257000Y-10155000D02*
G75*
G03*
X6257000Y-10355000I0J-100000D01*
G01*
D12*
X5296277Y-14063484D02*
X5296277Y-13863484D01*
X5296277Y-13863484D02*
X5343896Y-13863484D01*
X5343896Y-13863484D02*
X5372467Y-13873008D01*
X5372467Y-13873008D02*
X5391515Y-13892055D01*
X5391515Y-13892055D02*
X5401039Y-13911103D01*
X5401039Y-13911103D02*
X5410563Y-13949198D01*
X5410563Y-13949198D02*
X5410563Y-13977769D01*
X5410563Y-13977769D02*
X5401039Y-14015865D01*
X5401039Y-14015865D02*
X5391515Y-14034912D01*
X5391515Y-14034912D02*
X5372467Y-14053960D01*
X5372467Y-14053960D02*
X5343896Y-14063484D01*
X5343896Y-14063484D02*
X5296277Y-14063484D01*
X5496277Y-14063484D02*
X5496277Y-13930150D01*
X5496277Y-13968246D02*
X5505801Y-13949198D01*
X5505801Y-13949198D02*
X5515324Y-13939674D01*
X5515324Y-13939674D02*
X5534372Y-13930150D01*
X5534372Y-13930150D02*
X5553420Y-13930150D01*
X5620086Y-14063484D02*
X5620086Y-13930150D01*
X5620086Y-13863484D02*
X5610562Y-13873008D01*
X5610562Y-13873008D02*
X5620086Y-13882531D01*
X5620086Y-13882531D02*
X5629610Y-13873008D01*
X5629610Y-13873008D02*
X5620086Y-13863484D01*
X5620086Y-13863484D02*
X5620086Y-13882531D01*
X5743896Y-14063484D02*
X5724848Y-14053960D01*
X5724848Y-14053960D02*
X5715324Y-14034912D01*
X5715324Y-14034912D02*
X5715324Y-13863484D01*
X5848658Y-14063484D02*
X5829610Y-14053960D01*
X5829610Y-14053960D02*
X5820086Y-14034912D01*
X5820086Y-14034912D02*
X5820086Y-13863484D01*
X6077229Y-14063484D02*
X6077229Y-13863484D01*
X6077229Y-13863484D02*
X6143896Y-14006341D01*
X6143896Y-14006341D02*
X6210562Y-13863484D01*
X6210562Y-13863484D02*
X6210562Y-14063484D01*
X6391515Y-14063484D02*
X6391515Y-13958722D01*
X6391515Y-13958722D02*
X6381991Y-13939674D01*
X6381991Y-13939674D02*
X6362943Y-13930150D01*
X6362943Y-13930150D02*
X6324848Y-13930150D01*
X6324848Y-13930150D02*
X6305801Y-13939674D01*
X6391515Y-14053960D02*
X6372467Y-14063484D01*
X6372467Y-14063484D02*
X6324848Y-14063484D01*
X6324848Y-14063484D02*
X6305801Y-14053960D01*
X6305801Y-14053960D02*
X6296277Y-14034912D01*
X6296277Y-14034912D02*
X6296277Y-14015865D01*
X6296277Y-14015865D02*
X6305801Y-13996817D01*
X6305801Y-13996817D02*
X6324848Y-13987293D01*
X6324848Y-13987293D02*
X6372467Y-13987293D01*
X6372467Y-13987293D02*
X6391515Y-13977769D01*
X6486753Y-13930150D02*
X6486753Y-14130150D01*
X6486753Y-13939674D02*
X6505801Y-13930150D01*
X6505801Y-13930150D02*
X6543896Y-13930150D01*
X6543896Y-13930150D02*
X6562943Y-13939674D01*
X6562943Y-13939674D02*
X6572467Y-13949198D01*
X6572467Y-13949198D02*
X6581991Y-13968246D01*
X6581991Y-13968246D02*
X6581991Y-14025388D01*
X6581991Y-14025388D02*
X6572467Y-14044436D01*
X6572467Y-14044436D02*
X6562943Y-14053960D01*
X6562943Y-14053960D02*
X6543896Y-14063484D01*
X6543896Y-14063484D02*
X6505801Y-14063484D01*
X6505801Y-14063484D02*
X6486753Y-14053960D01*
X6667705Y-14044436D02*
X6677229Y-14053960D01*
X6677229Y-14053960D02*
X6667705Y-14063484D01*
X6667705Y-14063484D02*
X6658182Y-14053960D01*
X6658182Y-14053960D02*
X6667705Y-14044436D01*
X6667705Y-14044436D02*
X6667705Y-14063484D01*
X6667705Y-13939674D02*
X6677229Y-13949198D01*
X6677229Y-13949198D02*
X6667705Y-13958722D01*
X6667705Y-13958722D02*
X6658182Y-13949198D01*
X6658182Y-13949198D02*
X6667705Y-13939674D01*
X6667705Y-13939674D02*
X6667705Y-13958722D01*
D11*
X5005500Y-14377000D02*
X5035500Y-14407000D01*
X5035500Y-14377000D02*
X5005500Y-14407000D01*
D12*
X5334372Y-14283484D02*
X5353420Y-14283484D01*
X5353420Y-14283484D02*
X5372467Y-14293008D01*
X5372467Y-14293008D02*
X5381991Y-14302531D01*
X5381991Y-14302531D02*
X5391515Y-14321579D01*
X5391515Y-14321579D02*
X5401039Y-14359674D01*
X5401039Y-14359674D02*
X5401039Y-14407293D01*
X5401039Y-14407293D02*
X5391515Y-14445388D01*
X5391515Y-14445388D02*
X5381991Y-14464436D01*
X5381991Y-14464436D02*
X5372467Y-14473960D01*
X5372467Y-14473960D02*
X5353420Y-14483484D01*
X5353420Y-14483484D02*
X5334372Y-14483484D01*
X5334372Y-14483484D02*
X5315324Y-14473960D01*
X5315324Y-14473960D02*
X5305801Y-14464436D01*
X5305801Y-14464436D02*
X5296277Y-14445388D01*
X5296277Y-14445388D02*
X5286753Y-14407293D01*
X5286753Y-14407293D02*
X5286753Y-14359674D01*
X5286753Y-14359674D02*
X5296277Y-14321579D01*
X5296277Y-14321579D02*
X5305801Y-14302531D01*
X5305801Y-14302531D02*
X5315324Y-14293008D01*
X5315324Y-14293008D02*
X5334372Y-14283484D01*
X5486753Y-14464436D02*
X5496277Y-14473960D01*
X5496277Y-14473960D02*
X5486753Y-14483484D01*
X5486753Y-14483484D02*
X5477229Y-14473960D01*
X5477229Y-14473960D02*
X5486753Y-14464436D01*
X5486753Y-14464436D02*
X5486753Y-14483484D01*
X5562944Y-14283484D02*
X5686753Y-14283484D01*
X5686753Y-14283484D02*
X5620086Y-14359674D01*
X5620086Y-14359674D02*
X5648658Y-14359674D01*
X5648658Y-14359674D02*
X5667705Y-14369198D01*
X5667705Y-14369198D02*
X5677229Y-14378722D01*
X5677229Y-14378722D02*
X5686753Y-14397769D01*
X5686753Y-14397769D02*
X5686753Y-14445388D01*
X5686753Y-14445388D02*
X5677229Y-14464436D01*
X5677229Y-14464436D02*
X5667705Y-14473960D01*
X5667705Y-14473960D02*
X5648658Y-14483484D01*
X5648658Y-14483484D02*
X5591515Y-14483484D01*
X5591515Y-14483484D02*
X5572467Y-14473960D01*
X5572467Y-14473960D02*
X5562944Y-14464436D01*
X5810562Y-14283484D02*
X5829610Y-14283484D01*
X5829610Y-14283484D02*
X5848658Y-14293008D01*
X5848658Y-14293008D02*
X5858182Y-14302531D01*
X5858182Y-14302531D02*
X5867705Y-14321579D01*
X5867705Y-14321579D02*
X5877229Y-14359674D01*
X5877229Y-14359674D02*
X5877229Y-14407293D01*
X5877229Y-14407293D02*
X5867705Y-14445388D01*
X5867705Y-14445388D02*
X5858182Y-14464436D01*
X5858182Y-14464436D02*
X5848658Y-14473960D01*
X5848658Y-14473960D02*
X5829610Y-14483484D01*
X5829610Y-14483484D02*
X5810562Y-14483484D01*
X5810562Y-14483484D02*
X5791515Y-14473960D01*
X5791515Y-14473960D02*
X5781991Y-14464436D01*
X5781991Y-14464436D02*
X5772467Y-14445388D01*
X5772467Y-14445388D02*
X5762943Y-14407293D01*
X5762943Y-14407293D02*
X5762943Y-14359674D01*
X5762943Y-14359674D02*
X5772467Y-14321579D01*
X5772467Y-14321579D02*
X5781991Y-14302531D01*
X5781991Y-14302531D02*
X5791515Y-14293008D01*
X5791515Y-14293008D02*
X5810562Y-14283484D01*
X6001039Y-14283484D02*
X6020086Y-14283484D01*
X6020086Y-14283484D02*
X6039134Y-14293008D01*
X6039134Y-14293008D02*
X6048658Y-14302531D01*
X6048658Y-14302531D02*
X6058182Y-14321579D01*
X6058182Y-14321579D02*
X6067705Y-14359674D01*
X6067705Y-14359674D02*
X6067705Y-14407293D01*
X6067705Y-14407293D02*
X6058182Y-14445388D01*
X6058182Y-14445388D02*
X6048658Y-14464436D01*
X6048658Y-14464436D02*
X6039134Y-14473960D01*
X6039134Y-14473960D02*
X6020086Y-14483484D01*
X6020086Y-14483484D02*
X6001039Y-14483484D01*
X6001039Y-14483484D02*
X5981991Y-14473960D01*
X5981991Y-14473960D02*
X5972467Y-14464436D01*
X5972467Y-14464436D02*
X5962943Y-14445388D01*
X5962943Y-14445388D02*
X5953420Y-14407293D01*
X5953420Y-14407293D02*
X5953420Y-14359674D01*
X5953420Y-14359674D02*
X5962943Y-14321579D01*
X5962943Y-14321579D02*
X5972467Y-14302531D01*
X5972467Y-14302531D02*
X5981991Y-14293008D01*
X5981991Y-14293008D02*
X6001039Y-14283484D01*
X6153420Y-14483484D02*
X6153420Y-14350150D01*
X6153420Y-14369198D02*
X6162943Y-14359674D01*
X6162943Y-14359674D02*
X6181991Y-14350150D01*
X6181991Y-14350150D02*
X6210563Y-14350150D01*
X6210563Y-14350150D02*
X6229610Y-14359674D01*
X6229610Y-14359674D02*
X6239134Y-14378722D01*
X6239134Y-14378722D02*
X6239134Y-14483484D01*
X6239134Y-14378722D02*
X6248658Y-14359674D01*
X6248658Y-14359674D02*
X6267705Y-14350150D01*
X6267705Y-14350150D02*
X6296277Y-14350150D01*
X6296277Y-14350150D02*
X6315324Y-14359674D01*
X6315324Y-14359674D02*
X6324848Y-14378722D01*
X6324848Y-14378722D02*
X6324848Y-14483484D01*
X6420086Y-14483484D02*
X6420086Y-14350150D01*
X6420086Y-14369198D02*
X6429610Y-14359674D01*
X6429610Y-14359674D02*
X6448658Y-14350150D01*
X6448658Y-14350150D02*
X6477229Y-14350150D01*
X6477229Y-14350150D02*
X6496277Y-14359674D01*
X6496277Y-14359674D02*
X6505801Y-14378722D01*
X6505801Y-14378722D02*
X6505801Y-14483484D01*
X6505801Y-14378722D02*
X6515324Y-14359674D01*
X6515324Y-14359674D02*
X6534372Y-14350150D01*
X6534372Y-14350150D02*
X6562943Y-14350150D01*
X6562943Y-14350150D02*
X6581991Y-14359674D01*
X6581991Y-14359674D02*
X6591515Y-14378722D01*
X6591515Y-14378722D02*
X6591515Y-14483484D01*
X6981991Y-14273960D02*
X6810563Y-14531103D01*
X7239134Y-14283484D02*
X7258182Y-14283484D01*
X7258182Y-14283484D02*
X7277229Y-14293008D01*
X7277229Y-14293008D02*
X7286753Y-14302531D01*
X7286753Y-14302531D02*
X7296277Y-14321579D01*
X7296277Y-14321579D02*
X7305801Y-14359674D01*
X7305801Y-14359674D02*
X7305801Y-14407293D01*
X7305801Y-14407293D02*
X7296277Y-14445388D01*
X7296277Y-14445388D02*
X7286753Y-14464436D01*
X7286753Y-14464436D02*
X7277229Y-14473960D01*
X7277229Y-14473960D02*
X7258182Y-14483484D01*
X7258182Y-14483484D02*
X7239134Y-14483484D01*
X7239134Y-14483484D02*
X7220086Y-14473960D01*
X7220086Y-14473960D02*
X7210563Y-14464436D01*
X7210563Y-14464436D02*
X7201039Y-14445388D01*
X7201039Y-14445388D02*
X7191515Y-14407293D01*
X7191515Y-14407293D02*
X7191515Y-14359674D01*
X7191515Y-14359674D02*
X7201039Y-14321579D01*
X7201039Y-14321579D02*
X7210563Y-14302531D01*
X7210563Y-14302531D02*
X7220086Y-14293008D01*
X7220086Y-14293008D02*
X7239134Y-14283484D01*
X7391515Y-14464436D02*
X7401039Y-14473960D01*
X7401039Y-14473960D02*
X7391515Y-14483484D01*
X7391515Y-14483484D02*
X7381991Y-14473960D01*
X7381991Y-14473960D02*
X7391515Y-14464436D01*
X7391515Y-14464436D02*
X7391515Y-14483484D01*
X7524848Y-14283484D02*
X7543896Y-14283484D01*
X7543896Y-14283484D02*
X7562944Y-14293008D01*
X7562944Y-14293008D02*
X7572467Y-14302531D01*
X7572467Y-14302531D02*
X7581991Y-14321579D01*
X7581991Y-14321579D02*
X7591515Y-14359674D01*
X7591515Y-14359674D02*
X7591515Y-14407293D01*
X7591515Y-14407293D02*
X7581991Y-14445388D01*
X7581991Y-14445388D02*
X7572467Y-14464436D01*
X7572467Y-14464436D02*
X7562944Y-14473960D01*
X7562944Y-14473960D02*
X7543896Y-14483484D01*
X7543896Y-14483484D02*
X7524848Y-14483484D01*
X7524848Y-14483484D02*
X7505801Y-14473960D01*
X7505801Y-14473960D02*
X7496277Y-14464436D01*
X7496277Y-14464436D02*
X7486753Y-14445388D01*
X7486753Y-14445388D02*
X7477229Y-14407293D01*
X7477229Y-14407293D02*
X7477229Y-14359674D01*
X7477229Y-14359674D02*
X7486753Y-14321579D01*
X7486753Y-14321579D02*
X7496277Y-14302531D01*
X7496277Y-14302531D02*
X7505801Y-14293008D01*
X7505801Y-14293008D02*
X7524848Y-14283484D01*
X7781991Y-14483484D02*
X7667706Y-14483484D01*
X7724848Y-14483484D02*
X7724848Y-14283484D01*
X7724848Y-14283484D02*
X7705801Y-14312055D01*
X7705801Y-14312055D02*
X7686753Y-14331103D01*
X7686753Y-14331103D02*
X7667706Y-14340627D01*
X7972467Y-14483484D02*
X7858182Y-14483484D01*
X7915325Y-14483484D02*
X7915325Y-14283484D01*
X7915325Y-14283484D02*
X7896277Y-14312055D01*
X7896277Y-14312055D02*
X7877229Y-14331103D01*
X7877229Y-14331103D02*
X7858182Y-14340627D01*
X8086753Y-14369198D02*
X8067706Y-14359674D01*
X8067706Y-14359674D02*
X8058182Y-14350150D01*
X8058182Y-14350150D02*
X8048658Y-14331103D01*
X8048658Y-14331103D02*
X8048658Y-14321579D01*
X8048658Y-14321579D02*
X8058182Y-14302531D01*
X8058182Y-14302531D02*
X8067706Y-14293008D01*
X8067706Y-14293008D02*
X8086753Y-14283484D01*
X8086753Y-14283484D02*
X8124848Y-14283484D01*
X8124848Y-14283484D02*
X8143896Y-14293008D01*
X8143896Y-14293008D02*
X8153420Y-14302531D01*
X8153420Y-14302531D02*
X8162944Y-14321579D01*
X8162944Y-14321579D02*
X8162944Y-14331103D01*
X8162944Y-14331103D02*
X8153420Y-14350150D01*
X8153420Y-14350150D02*
X8143896Y-14359674D01*
X8143896Y-14359674D02*
X8124848Y-14369198D01*
X8124848Y-14369198D02*
X8086753Y-14369198D01*
X8086753Y-14369198D02*
X8067706Y-14378722D01*
X8067706Y-14378722D02*
X8058182Y-14388246D01*
X8058182Y-14388246D02*
X8048658Y-14407293D01*
X8048658Y-14407293D02*
X8048658Y-14445388D01*
X8048658Y-14445388D02*
X8058182Y-14464436D01*
X8058182Y-14464436D02*
X8067706Y-14473960D01*
X8067706Y-14473960D02*
X8086753Y-14483484D01*
X8086753Y-14483484D02*
X8124848Y-14483484D01*
X8124848Y-14483484D02*
X8143896Y-14473960D01*
X8143896Y-14473960D02*
X8153420Y-14464436D01*
X8153420Y-14464436D02*
X8162944Y-14445388D01*
X8162944Y-14445388D02*
X8162944Y-14407293D01*
X8162944Y-14407293D02*
X8153420Y-14388246D01*
X8153420Y-14388246D02*
X8143896Y-14378722D01*
X8143896Y-14378722D02*
X8124848Y-14369198D01*
X8239134Y-14283484D02*
X8239134Y-14321579D01*
X8315325Y-14283484D02*
X8315325Y-14321579D01*
X8610563Y-14559674D02*
X8601039Y-14550150D01*
X8601039Y-14550150D02*
X8581991Y-14521579D01*
X8581991Y-14521579D02*
X8572468Y-14502531D01*
X8572468Y-14502531D02*
X8562944Y-14473960D01*
X8562944Y-14473960D02*
X8553420Y-14426341D01*
X8553420Y-14426341D02*
X8553420Y-14388246D01*
X8553420Y-14388246D02*
X8562944Y-14340627D01*
X8562944Y-14340627D02*
X8572468Y-14312055D01*
X8572468Y-14312055D02*
X8581991Y-14293008D01*
X8581991Y-14293008D02*
X8601039Y-14264436D01*
X8601039Y-14264436D02*
X8610563Y-14254912D01*
X8677230Y-14302531D02*
X8686753Y-14293008D01*
X8686753Y-14293008D02*
X8705801Y-14283484D01*
X8705801Y-14283484D02*
X8753420Y-14283484D01*
X8753420Y-14283484D02*
X8772468Y-14293008D01*
X8772468Y-14293008D02*
X8781991Y-14302531D01*
X8781991Y-14302531D02*
X8791515Y-14321579D01*
X8791515Y-14321579D02*
X8791515Y-14340627D01*
X8791515Y-14340627D02*
X8781991Y-14369198D01*
X8781991Y-14369198D02*
X8667706Y-14483484D01*
X8667706Y-14483484D02*
X8791515Y-14483484D01*
X8962944Y-14283484D02*
X8924849Y-14283484D01*
X8924849Y-14283484D02*
X8905801Y-14293008D01*
X8905801Y-14293008D02*
X8896277Y-14302531D01*
X8896277Y-14302531D02*
X8877230Y-14331103D01*
X8877230Y-14331103D02*
X8867706Y-14369198D01*
X8867706Y-14369198D02*
X8867706Y-14445388D01*
X8867706Y-14445388D02*
X8877230Y-14464436D01*
X8877230Y-14464436D02*
X8886753Y-14473960D01*
X8886753Y-14473960D02*
X8905801Y-14483484D01*
X8905801Y-14483484D02*
X8943896Y-14483484D01*
X8943896Y-14483484D02*
X8962944Y-14473960D01*
X8962944Y-14473960D02*
X8972468Y-14464436D01*
X8972468Y-14464436D02*
X8981991Y-14445388D01*
X8981991Y-14445388D02*
X8981991Y-14397769D01*
X8981991Y-14397769D02*
X8972468Y-14378722D01*
X8972468Y-14378722D02*
X8962944Y-14369198D01*
X8962944Y-14369198D02*
X8943896Y-14359674D01*
X8943896Y-14359674D02*
X8905801Y-14359674D01*
X8905801Y-14359674D02*
X8886753Y-14369198D01*
X8886753Y-14369198D02*
X8877230Y-14378722D01*
X8877230Y-14378722D02*
X8867706Y-14397769D01*
X9153420Y-14350150D02*
X9153420Y-14483484D01*
X9105801Y-14273960D02*
X9058182Y-14416817D01*
X9058182Y-14416817D02*
X9181991Y-14416817D01*
X9410563Y-14483484D02*
X9410563Y-14283484D01*
X9496277Y-14483484D02*
X9496277Y-14378722D01*
X9496277Y-14378722D02*
X9486753Y-14359674D01*
X9486753Y-14359674D02*
X9467706Y-14350150D01*
X9467706Y-14350150D02*
X9439134Y-14350150D01*
X9439134Y-14350150D02*
X9420087Y-14359674D01*
X9420087Y-14359674D02*
X9410563Y-14369198D01*
X9620087Y-14483484D02*
X9601039Y-14473960D01*
X9601039Y-14473960D02*
X9591515Y-14464436D01*
X9591515Y-14464436D02*
X9581992Y-14445388D01*
X9581992Y-14445388D02*
X9581992Y-14388246D01*
X9581992Y-14388246D02*
X9591515Y-14369198D01*
X9591515Y-14369198D02*
X9601039Y-14359674D01*
X9601039Y-14359674D02*
X9620087Y-14350150D01*
X9620087Y-14350150D02*
X9648658Y-14350150D01*
X9648658Y-14350150D02*
X9667706Y-14359674D01*
X9667706Y-14359674D02*
X9677230Y-14369198D01*
X9677230Y-14369198D02*
X9686753Y-14388246D01*
X9686753Y-14388246D02*
X9686753Y-14445388D01*
X9686753Y-14445388D02*
X9677230Y-14464436D01*
X9677230Y-14464436D02*
X9667706Y-14473960D01*
X9667706Y-14473960D02*
X9648658Y-14483484D01*
X9648658Y-14483484D02*
X9620087Y-14483484D01*
X9801039Y-14483484D02*
X9781992Y-14473960D01*
X9781992Y-14473960D02*
X9772468Y-14454912D01*
X9772468Y-14454912D02*
X9772468Y-14283484D01*
X9953420Y-14473960D02*
X9934373Y-14483484D01*
X9934373Y-14483484D02*
X9896277Y-14483484D01*
X9896277Y-14483484D02*
X9877230Y-14473960D01*
X9877230Y-14473960D02*
X9867706Y-14454912D01*
X9867706Y-14454912D02*
X9867706Y-14378722D01*
X9867706Y-14378722D02*
X9877230Y-14359674D01*
X9877230Y-14359674D02*
X9896277Y-14350150D01*
X9896277Y-14350150D02*
X9934373Y-14350150D01*
X9934373Y-14350150D02*
X9953420Y-14359674D01*
X9953420Y-14359674D02*
X9962944Y-14378722D01*
X9962944Y-14378722D02*
X9962944Y-14397769D01*
X9962944Y-14397769D02*
X9867706Y-14416817D01*
X10039134Y-14473960D02*
X10058182Y-14483484D01*
X10058182Y-14483484D02*
X10096277Y-14483484D01*
X10096277Y-14483484D02*
X10115325Y-14473960D01*
X10115325Y-14473960D02*
X10124849Y-14454912D01*
X10124849Y-14454912D02*
X10124849Y-14445388D01*
X10124849Y-14445388D02*
X10115325Y-14426341D01*
X10115325Y-14426341D02*
X10096277Y-14416817D01*
X10096277Y-14416817D02*
X10067706Y-14416817D01*
X10067706Y-14416817D02*
X10048658Y-14407293D01*
X10048658Y-14407293D02*
X10039134Y-14388246D01*
X10039134Y-14388246D02*
X10039134Y-14378722D01*
X10039134Y-14378722D02*
X10048658Y-14359674D01*
X10048658Y-14359674D02*
X10067706Y-14350150D01*
X10067706Y-14350150D02*
X10096277Y-14350150D01*
X10096277Y-14350150D02*
X10115325Y-14359674D01*
X10191515Y-14559674D02*
X10201039Y-14550150D01*
X10201039Y-14550150D02*
X10220087Y-14521579D01*
X10220087Y-14521579D02*
X10229611Y-14502531D01*
X10229611Y-14502531D02*
X10239134Y-14473960D01*
X10239134Y-14473960D02*
X10248658Y-14426341D01*
X10248658Y-14426341D02*
X10248658Y-14388246D01*
X10248658Y-14388246D02*
X10239134Y-14340627D01*
X10239134Y-14340627D02*
X10229611Y-14312055D01*
X10229611Y-14312055D02*
X10220087Y-14293008D01*
X10220087Y-14293008D02*
X10201039Y-14264436D01*
X10201039Y-14264436D02*
X10191515Y-14254912D01*
D11*
X5035500Y-14656000D02*
G75*
G02*
X5005500Y-14656000I-15000J0D01*
G01*
X5005500Y-14656000D02*
G75*
G02*
X5035500Y-14656000I15000J0D01*
G01*
D12*
X5334372Y-14547484D02*
X5353420Y-14547484D01*
X5353420Y-14547484D02*
X5372467Y-14557008D01*
X5372467Y-14557008D02*
X5381991Y-14566531D01*
X5381991Y-14566531D02*
X5391515Y-14585579D01*
X5391515Y-14585579D02*
X5401039Y-14623674D01*
X5401039Y-14623674D02*
X5401039Y-14671293D01*
X5401039Y-14671293D02*
X5391515Y-14709388D01*
X5391515Y-14709388D02*
X5381991Y-14728436D01*
X5381991Y-14728436D02*
X5372467Y-14737960D01*
X5372467Y-14737960D02*
X5353420Y-14747484D01*
X5353420Y-14747484D02*
X5334372Y-14747484D01*
X5334372Y-14747484D02*
X5315324Y-14737960D01*
X5315324Y-14737960D02*
X5305801Y-14728436D01*
X5305801Y-14728436D02*
X5296277Y-14709388D01*
X5296277Y-14709388D02*
X5286753Y-14671293D01*
X5286753Y-14671293D02*
X5286753Y-14623674D01*
X5286753Y-14623674D02*
X5296277Y-14585579D01*
X5296277Y-14585579D02*
X5305801Y-14566531D01*
X5305801Y-14566531D02*
X5315324Y-14557008D01*
X5315324Y-14557008D02*
X5334372Y-14547484D01*
X5486753Y-14728436D02*
X5496277Y-14737960D01*
X5496277Y-14737960D02*
X5486753Y-14747484D01*
X5486753Y-14747484D02*
X5477229Y-14737960D01*
X5477229Y-14737960D02*
X5486753Y-14728436D01*
X5486753Y-14728436D02*
X5486753Y-14747484D01*
X5562944Y-14547484D02*
X5686753Y-14547484D01*
X5686753Y-14547484D02*
X5620086Y-14623674D01*
X5620086Y-14623674D02*
X5648658Y-14623674D01*
X5648658Y-14623674D02*
X5667705Y-14633198D01*
X5667705Y-14633198D02*
X5677229Y-14642722D01*
X5677229Y-14642722D02*
X5686753Y-14661769D01*
X5686753Y-14661769D02*
X5686753Y-14709388D01*
X5686753Y-14709388D02*
X5677229Y-14728436D01*
X5677229Y-14728436D02*
X5667705Y-14737960D01*
X5667705Y-14737960D02*
X5648658Y-14747484D01*
X5648658Y-14747484D02*
X5591515Y-14747484D01*
X5591515Y-14747484D02*
X5572467Y-14737960D01*
X5572467Y-14737960D02*
X5562944Y-14728436D01*
X5810562Y-14547484D02*
X5829610Y-14547484D01*
X5829610Y-14547484D02*
X5848658Y-14557008D01*
X5848658Y-14557008D02*
X5858182Y-14566531D01*
X5858182Y-14566531D02*
X5867705Y-14585579D01*
X5867705Y-14585579D02*
X5877229Y-14623674D01*
X5877229Y-14623674D02*
X5877229Y-14671293D01*
X5877229Y-14671293D02*
X5867705Y-14709388D01*
X5867705Y-14709388D02*
X5858182Y-14728436D01*
X5858182Y-14728436D02*
X5848658Y-14737960D01*
X5848658Y-14737960D02*
X5829610Y-14747484D01*
X5829610Y-14747484D02*
X5810562Y-14747484D01*
X5810562Y-14747484D02*
X5791515Y-14737960D01*
X5791515Y-14737960D02*
X5781991Y-14728436D01*
X5781991Y-14728436D02*
X5772467Y-14709388D01*
X5772467Y-14709388D02*
X5762943Y-14671293D01*
X5762943Y-14671293D02*
X5762943Y-14623674D01*
X5762943Y-14623674D02*
X5772467Y-14585579D01*
X5772467Y-14585579D02*
X5781991Y-14566531D01*
X5781991Y-14566531D02*
X5791515Y-14557008D01*
X5791515Y-14557008D02*
X5810562Y-14547484D01*
X6001039Y-14547484D02*
X6020086Y-14547484D01*
X6020086Y-14547484D02*
X6039134Y-14557008D01*
X6039134Y-14557008D02*
X6048658Y-14566531D01*
X6048658Y-14566531D02*
X6058182Y-14585579D01*
X6058182Y-14585579D02*
X6067705Y-14623674D01*
X6067705Y-14623674D02*
X6067705Y-14671293D01*
X6067705Y-14671293D02*
X6058182Y-14709388D01*
X6058182Y-14709388D02*
X6048658Y-14728436D01*
X6048658Y-14728436D02*
X6039134Y-14737960D01*
X6039134Y-14737960D02*
X6020086Y-14747484D01*
X6020086Y-14747484D02*
X6001039Y-14747484D01*
X6001039Y-14747484D02*
X5981991Y-14737960D01*
X5981991Y-14737960D02*
X5972467Y-14728436D01*
X5972467Y-14728436D02*
X5962943Y-14709388D01*
X5962943Y-14709388D02*
X5953420Y-14671293D01*
X5953420Y-14671293D02*
X5953420Y-14623674D01*
X5953420Y-14623674D02*
X5962943Y-14585579D01*
X5962943Y-14585579D02*
X5972467Y-14566531D01*
X5972467Y-14566531D02*
X5981991Y-14557008D01*
X5981991Y-14557008D02*
X6001039Y-14547484D01*
X6153420Y-14747484D02*
X6153420Y-14614150D01*
X6153420Y-14633198D02*
X6162943Y-14623674D01*
X6162943Y-14623674D02*
X6181991Y-14614150D01*
X6181991Y-14614150D02*
X6210563Y-14614150D01*
X6210563Y-14614150D02*
X6229610Y-14623674D01*
X6229610Y-14623674D02*
X6239134Y-14642722D01*
X6239134Y-14642722D02*
X6239134Y-14747484D01*
X6239134Y-14642722D02*
X6248658Y-14623674D01*
X6248658Y-14623674D02*
X6267705Y-14614150D01*
X6267705Y-14614150D02*
X6296277Y-14614150D01*
X6296277Y-14614150D02*
X6315324Y-14623674D01*
X6315324Y-14623674D02*
X6324848Y-14642722D01*
X6324848Y-14642722D02*
X6324848Y-14747484D01*
X6420086Y-14747484D02*
X6420086Y-14614150D01*
X6420086Y-14633198D02*
X6429610Y-14623674D01*
X6429610Y-14623674D02*
X6448658Y-14614150D01*
X6448658Y-14614150D02*
X6477229Y-14614150D01*
X6477229Y-14614150D02*
X6496277Y-14623674D01*
X6496277Y-14623674D02*
X6505801Y-14642722D01*
X6505801Y-14642722D02*
X6505801Y-14747484D01*
X6505801Y-14642722D02*
X6515324Y-14623674D01*
X6515324Y-14623674D02*
X6534372Y-14614150D01*
X6534372Y-14614150D02*
X6562943Y-14614150D01*
X6562943Y-14614150D02*
X6581991Y-14623674D01*
X6581991Y-14623674D02*
X6591515Y-14642722D01*
X6591515Y-14642722D02*
X6591515Y-14747484D01*
X6981991Y-14537960D02*
X6810563Y-14795103D01*
X7239134Y-14547484D02*
X7258182Y-14547484D01*
X7258182Y-14547484D02*
X7277229Y-14557008D01*
X7277229Y-14557008D02*
X7286753Y-14566531D01*
X7286753Y-14566531D02*
X7296277Y-14585579D01*
X7296277Y-14585579D02*
X7305801Y-14623674D01*
X7305801Y-14623674D02*
X7305801Y-14671293D01*
X7305801Y-14671293D02*
X7296277Y-14709388D01*
X7296277Y-14709388D02*
X7286753Y-14728436D01*
X7286753Y-14728436D02*
X7277229Y-14737960D01*
X7277229Y-14737960D02*
X7258182Y-14747484D01*
X7258182Y-14747484D02*
X7239134Y-14747484D01*
X7239134Y-14747484D02*
X7220086Y-14737960D01*
X7220086Y-14737960D02*
X7210563Y-14728436D01*
X7210563Y-14728436D02*
X7201039Y-14709388D01*
X7201039Y-14709388D02*
X7191515Y-14671293D01*
X7191515Y-14671293D02*
X7191515Y-14623674D01*
X7191515Y-14623674D02*
X7201039Y-14585579D01*
X7201039Y-14585579D02*
X7210563Y-14566531D01*
X7210563Y-14566531D02*
X7220086Y-14557008D01*
X7220086Y-14557008D02*
X7239134Y-14547484D01*
X7391515Y-14728436D02*
X7401039Y-14737960D01*
X7401039Y-14737960D02*
X7391515Y-14747484D01*
X7391515Y-14747484D02*
X7381991Y-14737960D01*
X7381991Y-14737960D02*
X7391515Y-14728436D01*
X7391515Y-14728436D02*
X7391515Y-14747484D01*
X7524848Y-14547484D02*
X7543896Y-14547484D01*
X7543896Y-14547484D02*
X7562944Y-14557008D01*
X7562944Y-14557008D02*
X7572467Y-14566531D01*
X7572467Y-14566531D02*
X7581991Y-14585579D01*
X7581991Y-14585579D02*
X7591515Y-14623674D01*
X7591515Y-14623674D02*
X7591515Y-14671293D01*
X7591515Y-14671293D02*
X7581991Y-14709388D01*
X7581991Y-14709388D02*
X7572467Y-14728436D01*
X7572467Y-14728436D02*
X7562944Y-14737960D01*
X7562944Y-14737960D02*
X7543896Y-14747484D01*
X7543896Y-14747484D02*
X7524848Y-14747484D01*
X7524848Y-14747484D02*
X7505801Y-14737960D01*
X7505801Y-14737960D02*
X7496277Y-14728436D01*
X7496277Y-14728436D02*
X7486753Y-14709388D01*
X7486753Y-14709388D02*
X7477229Y-14671293D01*
X7477229Y-14671293D02*
X7477229Y-14623674D01*
X7477229Y-14623674D02*
X7486753Y-14585579D01*
X7486753Y-14585579D02*
X7496277Y-14566531D01*
X7496277Y-14566531D02*
X7505801Y-14557008D01*
X7505801Y-14557008D02*
X7524848Y-14547484D01*
X7781991Y-14747484D02*
X7667706Y-14747484D01*
X7724848Y-14747484D02*
X7724848Y-14547484D01*
X7724848Y-14547484D02*
X7705801Y-14576055D01*
X7705801Y-14576055D02*
X7686753Y-14595103D01*
X7686753Y-14595103D02*
X7667706Y-14604627D01*
X7972467Y-14747484D02*
X7858182Y-14747484D01*
X7915325Y-14747484D02*
X7915325Y-14547484D01*
X7915325Y-14547484D02*
X7896277Y-14576055D01*
X7896277Y-14576055D02*
X7877229Y-14595103D01*
X7877229Y-14595103D02*
X7858182Y-14604627D01*
X8086753Y-14633198D02*
X8067706Y-14623674D01*
X8067706Y-14623674D02*
X8058182Y-14614150D01*
X8058182Y-14614150D02*
X8048658Y-14595103D01*
X8048658Y-14595103D02*
X8048658Y-14585579D01*
X8048658Y-14585579D02*
X8058182Y-14566531D01*
X8058182Y-14566531D02*
X8067706Y-14557008D01*
X8067706Y-14557008D02*
X8086753Y-14547484D01*
X8086753Y-14547484D02*
X8124848Y-14547484D01*
X8124848Y-14547484D02*
X8143896Y-14557008D01*
X8143896Y-14557008D02*
X8153420Y-14566531D01*
X8153420Y-14566531D02*
X8162944Y-14585579D01*
X8162944Y-14585579D02*
X8162944Y-14595103D01*
X8162944Y-14595103D02*
X8153420Y-14614150D01*
X8153420Y-14614150D02*
X8143896Y-14623674D01*
X8143896Y-14623674D02*
X8124848Y-14633198D01*
X8124848Y-14633198D02*
X8086753Y-14633198D01*
X8086753Y-14633198D02*
X8067706Y-14642722D01*
X8067706Y-14642722D02*
X8058182Y-14652246D01*
X8058182Y-14652246D02*
X8048658Y-14671293D01*
X8048658Y-14671293D02*
X8048658Y-14709388D01*
X8048658Y-14709388D02*
X8058182Y-14728436D01*
X8058182Y-14728436D02*
X8067706Y-14737960D01*
X8067706Y-14737960D02*
X8086753Y-14747484D01*
X8086753Y-14747484D02*
X8124848Y-14747484D01*
X8124848Y-14747484D02*
X8143896Y-14737960D01*
X8143896Y-14737960D02*
X8153420Y-14728436D01*
X8153420Y-14728436D02*
X8162944Y-14709388D01*
X8162944Y-14709388D02*
X8162944Y-14671293D01*
X8162944Y-14671293D02*
X8153420Y-14652246D01*
X8153420Y-14652246D02*
X8143896Y-14642722D01*
X8143896Y-14642722D02*
X8124848Y-14633198D01*
X8239134Y-14547484D02*
X8239134Y-14585579D01*
X8315325Y-14547484D02*
X8315325Y-14585579D01*
X8610563Y-14823674D02*
X8601039Y-14814150D01*
X8601039Y-14814150D02*
X8581991Y-14785579D01*
X8581991Y-14785579D02*
X8572468Y-14766531D01*
X8572468Y-14766531D02*
X8562944Y-14737960D01*
X8562944Y-14737960D02*
X8553420Y-14690341D01*
X8553420Y-14690341D02*
X8553420Y-14652246D01*
X8553420Y-14652246D02*
X8562944Y-14604627D01*
X8562944Y-14604627D02*
X8572468Y-14576055D01*
X8572468Y-14576055D02*
X8581991Y-14557008D01*
X8581991Y-14557008D02*
X8601039Y-14528436D01*
X8601039Y-14528436D02*
X8610563Y-14518912D01*
X8772468Y-14547484D02*
X8734372Y-14547484D01*
X8734372Y-14547484D02*
X8715325Y-14557008D01*
X8715325Y-14557008D02*
X8705801Y-14566531D01*
X8705801Y-14566531D02*
X8686753Y-14595103D01*
X8686753Y-14595103D02*
X8677230Y-14633198D01*
X8677230Y-14633198D02*
X8677230Y-14709388D01*
X8677230Y-14709388D02*
X8686753Y-14728436D01*
X8686753Y-14728436D02*
X8696277Y-14737960D01*
X8696277Y-14737960D02*
X8715325Y-14747484D01*
X8715325Y-14747484D02*
X8753420Y-14747484D01*
X8753420Y-14747484D02*
X8772468Y-14737960D01*
X8772468Y-14737960D02*
X8781991Y-14728436D01*
X8781991Y-14728436D02*
X8791515Y-14709388D01*
X8791515Y-14709388D02*
X8791515Y-14661769D01*
X8791515Y-14661769D02*
X8781991Y-14642722D01*
X8781991Y-14642722D02*
X8772468Y-14633198D01*
X8772468Y-14633198D02*
X8753420Y-14623674D01*
X8753420Y-14623674D02*
X8715325Y-14623674D01*
X8715325Y-14623674D02*
X8696277Y-14633198D01*
X8696277Y-14633198D02*
X8686753Y-14642722D01*
X8686753Y-14642722D02*
X8677230Y-14661769D01*
X9029611Y-14747484D02*
X9029611Y-14547484D01*
X9115325Y-14747484D02*
X9115325Y-14642722D01*
X9115325Y-14642722D02*
X9105801Y-14623674D01*
X9105801Y-14623674D02*
X9086753Y-14614150D01*
X9086753Y-14614150D02*
X9058182Y-14614150D01*
X9058182Y-14614150D02*
X9039134Y-14623674D01*
X9039134Y-14623674D02*
X9029611Y-14633198D01*
X9239134Y-14747484D02*
X9220087Y-14737960D01*
X9220087Y-14737960D02*
X9210563Y-14728436D01*
X9210563Y-14728436D02*
X9201039Y-14709388D01*
X9201039Y-14709388D02*
X9201039Y-14652246D01*
X9201039Y-14652246D02*
X9210563Y-14633198D01*
X9210563Y-14633198D02*
X9220087Y-14623674D01*
X9220087Y-14623674D02*
X9239134Y-14614150D01*
X9239134Y-14614150D02*
X9267706Y-14614150D01*
X9267706Y-14614150D02*
X9286753Y-14623674D01*
X9286753Y-14623674D02*
X9296277Y-14633198D01*
X9296277Y-14633198D02*
X9305801Y-14652246D01*
X9305801Y-14652246D02*
X9305801Y-14709388D01*
X9305801Y-14709388D02*
X9296277Y-14728436D01*
X9296277Y-14728436D02*
X9286753Y-14737960D01*
X9286753Y-14737960D02*
X9267706Y-14747484D01*
X9267706Y-14747484D02*
X9239134Y-14747484D01*
X9420087Y-14747484D02*
X9401039Y-14737960D01*
X9401039Y-14737960D02*
X9391515Y-14718912D01*
X9391515Y-14718912D02*
X9391515Y-14547484D01*
X9572468Y-14737960D02*
X9553420Y-14747484D01*
X9553420Y-14747484D02*
X9515325Y-14747484D01*
X9515325Y-14747484D02*
X9496277Y-14737960D01*
X9496277Y-14737960D02*
X9486753Y-14718912D01*
X9486753Y-14718912D02*
X9486753Y-14642722D01*
X9486753Y-14642722D02*
X9496277Y-14623674D01*
X9496277Y-14623674D02*
X9515325Y-14614150D01*
X9515325Y-14614150D02*
X9553420Y-14614150D01*
X9553420Y-14614150D02*
X9572468Y-14623674D01*
X9572468Y-14623674D02*
X9581992Y-14642722D01*
X9581992Y-14642722D02*
X9581992Y-14661769D01*
X9581992Y-14661769D02*
X9486753Y-14680817D01*
X9658182Y-14737960D02*
X9677230Y-14747484D01*
X9677230Y-14747484D02*
X9715325Y-14747484D01*
X9715325Y-14747484D02*
X9734373Y-14737960D01*
X9734373Y-14737960D02*
X9743896Y-14718912D01*
X9743896Y-14718912D02*
X9743896Y-14709388D01*
X9743896Y-14709388D02*
X9734373Y-14690341D01*
X9734373Y-14690341D02*
X9715325Y-14680817D01*
X9715325Y-14680817D02*
X9686753Y-14680817D01*
X9686753Y-14680817D02*
X9667706Y-14671293D01*
X9667706Y-14671293D02*
X9658182Y-14652246D01*
X9658182Y-14652246D02*
X9658182Y-14642722D01*
X9658182Y-14642722D02*
X9667706Y-14623674D01*
X9667706Y-14623674D02*
X9686753Y-14614150D01*
X9686753Y-14614150D02*
X9715325Y-14614150D01*
X9715325Y-14614150D02*
X9734373Y-14623674D01*
X9810563Y-14823674D02*
X9820087Y-14814150D01*
X9820087Y-14814150D02*
X9839134Y-14785579D01*
X9839134Y-14785579D02*
X9848658Y-14766531D01*
X9848658Y-14766531D02*
X9858182Y-14737960D01*
X9858182Y-14737960D02*
X9867706Y-14690341D01*
X9867706Y-14690341D02*
X9867706Y-14652246D01*
X9867706Y-14652246D02*
X9858182Y-14604627D01*
X9858182Y-14604627D02*
X9848658Y-14576055D01*
X9848658Y-14576055D02*
X9839134Y-14557008D01*
X9839134Y-14557008D02*
X9820087Y-14528436D01*
X9820087Y-14528436D02*
X9810563Y-14518912D01*
D11*
X5005500Y-14890000D02*
X5005500Y-14950000D01*
X4975500Y-14920000D02*
X5035500Y-14920000D01*
D12*
X5334372Y-14811484D02*
X5353420Y-14811484D01*
X5353420Y-14811484D02*
X5372467Y-14821008D01*
X5372467Y-14821008D02*
X5381991Y-14830531D01*
X5381991Y-14830531D02*
X5391515Y-14849579D01*
X5391515Y-14849579D02*
X5401039Y-14887674D01*
X5401039Y-14887674D02*
X5401039Y-14935293D01*
X5401039Y-14935293D02*
X5391515Y-14973388D01*
X5391515Y-14973388D02*
X5381991Y-14992436D01*
X5381991Y-14992436D02*
X5372467Y-15001960D01*
X5372467Y-15001960D02*
X5353420Y-15011484D01*
X5353420Y-15011484D02*
X5334372Y-15011484D01*
X5334372Y-15011484D02*
X5315324Y-15001960D01*
X5315324Y-15001960D02*
X5305801Y-14992436D01*
X5305801Y-14992436D02*
X5296277Y-14973388D01*
X5296277Y-14973388D02*
X5286753Y-14935293D01*
X5286753Y-14935293D02*
X5286753Y-14887674D01*
X5286753Y-14887674D02*
X5296277Y-14849579D01*
X5296277Y-14849579D02*
X5305801Y-14830531D01*
X5305801Y-14830531D02*
X5315324Y-14821008D01*
X5315324Y-14821008D02*
X5334372Y-14811484D01*
X5486753Y-14992436D02*
X5496277Y-15001960D01*
X5496277Y-15001960D02*
X5486753Y-15011484D01*
X5486753Y-15011484D02*
X5477229Y-15001960D01*
X5477229Y-15001960D02*
X5486753Y-14992436D01*
X5486753Y-14992436D02*
X5486753Y-15011484D01*
X5667705Y-14811484D02*
X5629610Y-14811484D01*
X5629610Y-14811484D02*
X5610562Y-14821008D01*
X5610562Y-14821008D02*
X5601039Y-14830531D01*
X5601039Y-14830531D02*
X5581991Y-14859103D01*
X5581991Y-14859103D02*
X5572467Y-14897198D01*
X5572467Y-14897198D02*
X5572467Y-14973388D01*
X5572467Y-14973388D02*
X5581991Y-14992436D01*
X5581991Y-14992436D02*
X5591515Y-15001960D01*
X5591515Y-15001960D02*
X5610562Y-15011484D01*
X5610562Y-15011484D02*
X5648658Y-15011484D01*
X5648658Y-15011484D02*
X5667705Y-15001960D01*
X5667705Y-15001960D02*
X5677229Y-14992436D01*
X5677229Y-14992436D02*
X5686753Y-14973388D01*
X5686753Y-14973388D02*
X5686753Y-14925769D01*
X5686753Y-14925769D02*
X5677229Y-14906722D01*
X5677229Y-14906722D02*
X5667705Y-14897198D01*
X5667705Y-14897198D02*
X5648658Y-14887674D01*
X5648658Y-14887674D02*
X5610562Y-14887674D01*
X5610562Y-14887674D02*
X5591515Y-14897198D01*
X5591515Y-14897198D02*
X5581991Y-14906722D01*
X5581991Y-14906722D02*
X5572467Y-14925769D01*
X5810562Y-14811484D02*
X5829610Y-14811484D01*
X5829610Y-14811484D02*
X5848658Y-14821008D01*
X5848658Y-14821008D02*
X5858182Y-14830531D01*
X5858182Y-14830531D02*
X5867705Y-14849579D01*
X5867705Y-14849579D02*
X5877229Y-14887674D01*
X5877229Y-14887674D02*
X5877229Y-14935293D01*
X5877229Y-14935293D02*
X5867705Y-14973388D01*
X5867705Y-14973388D02*
X5858182Y-14992436D01*
X5858182Y-14992436D02*
X5848658Y-15001960D01*
X5848658Y-15001960D02*
X5829610Y-15011484D01*
X5829610Y-15011484D02*
X5810562Y-15011484D01*
X5810562Y-15011484D02*
X5791515Y-15001960D01*
X5791515Y-15001960D02*
X5781991Y-14992436D01*
X5781991Y-14992436D02*
X5772467Y-14973388D01*
X5772467Y-14973388D02*
X5762943Y-14935293D01*
X5762943Y-14935293D02*
X5762943Y-14887674D01*
X5762943Y-14887674D02*
X5772467Y-14849579D01*
X5772467Y-14849579D02*
X5781991Y-14830531D01*
X5781991Y-14830531D02*
X5791515Y-14821008D01*
X5791515Y-14821008D02*
X5810562Y-14811484D01*
X6001039Y-14811484D02*
X6020086Y-14811484D01*
X6020086Y-14811484D02*
X6039134Y-14821008D01*
X6039134Y-14821008D02*
X6048658Y-14830531D01*
X6048658Y-14830531D02*
X6058182Y-14849579D01*
X6058182Y-14849579D02*
X6067705Y-14887674D01*
X6067705Y-14887674D02*
X6067705Y-14935293D01*
X6067705Y-14935293D02*
X6058182Y-14973388D01*
X6058182Y-14973388D02*
X6048658Y-14992436D01*
X6048658Y-14992436D02*
X6039134Y-15001960D01*
X6039134Y-15001960D02*
X6020086Y-15011484D01*
X6020086Y-15011484D02*
X6001039Y-15011484D01*
X6001039Y-15011484D02*
X5981991Y-15001960D01*
X5981991Y-15001960D02*
X5972467Y-14992436D01*
X5972467Y-14992436D02*
X5962943Y-14973388D01*
X5962943Y-14973388D02*
X5953420Y-14935293D01*
X5953420Y-14935293D02*
X5953420Y-14887674D01*
X5953420Y-14887674D02*
X5962943Y-14849579D01*
X5962943Y-14849579D02*
X5972467Y-14830531D01*
X5972467Y-14830531D02*
X5981991Y-14821008D01*
X5981991Y-14821008D02*
X6001039Y-14811484D01*
X6153420Y-15011484D02*
X6153420Y-14878150D01*
X6153420Y-14897198D02*
X6162943Y-14887674D01*
X6162943Y-14887674D02*
X6181991Y-14878150D01*
X6181991Y-14878150D02*
X6210563Y-14878150D01*
X6210563Y-14878150D02*
X6229610Y-14887674D01*
X6229610Y-14887674D02*
X6239134Y-14906722D01*
X6239134Y-14906722D02*
X6239134Y-15011484D01*
X6239134Y-14906722D02*
X6248658Y-14887674D01*
X6248658Y-14887674D02*
X6267705Y-14878150D01*
X6267705Y-14878150D02*
X6296277Y-14878150D01*
X6296277Y-14878150D02*
X6315324Y-14887674D01*
X6315324Y-14887674D02*
X6324848Y-14906722D01*
X6324848Y-14906722D02*
X6324848Y-15011484D01*
X6420086Y-15011484D02*
X6420086Y-14878150D01*
X6420086Y-14897198D02*
X6429610Y-14887674D01*
X6429610Y-14887674D02*
X6448658Y-14878150D01*
X6448658Y-14878150D02*
X6477229Y-14878150D01*
X6477229Y-14878150D02*
X6496277Y-14887674D01*
X6496277Y-14887674D02*
X6505801Y-14906722D01*
X6505801Y-14906722D02*
X6505801Y-15011484D01*
X6505801Y-14906722D02*
X6515324Y-14887674D01*
X6515324Y-14887674D02*
X6534372Y-14878150D01*
X6534372Y-14878150D02*
X6562943Y-14878150D01*
X6562943Y-14878150D02*
X6581991Y-14887674D01*
X6581991Y-14887674D02*
X6591515Y-14906722D01*
X6591515Y-14906722D02*
X6591515Y-15011484D01*
X6981991Y-14801960D02*
X6810563Y-15059103D01*
X7239134Y-14811484D02*
X7258182Y-14811484D01*
X7258182Y-14811484D02*
X7277229Y-14821008D01*
X7277229Y-14821008D02*
X7286753Y-14830531D01*
X7286753Y-14830531D02*
X7296277Y-14849579D01*
X7296277Y-14849579D02*
X7305801Y-14887674D01*
X7305801Y-14887674D02*
X7305801Y-14935293D01*
X7305801Y-14935293D02*
X7296277Y-14973388D01*
X7296277Y-14973388D02*
X7286753Y-14992436D01*
X7286753Y-14992436D02*
X7277229Y-15001960D01*
X7277229Y-15001960D02*
X7258182Y-15011484D01*
X7258182Y-15011484D02*
X7239134Y-15011484D01*
X7239134Y-15011484D02*
X7220086Y-15001960D01*
X7220086Y-15001960D02*
X7210563Y-14992436D01*
X7210563Y-14992436D02*
X7201039Y-14973388D01*
X7201039Y-14973388D02*
X7191515Y-14935293D01*
X7191515Y-14935293D02*
X7191515Y-14887674D01*
X7191515Y-14887674D02*
X7201039Y-14849579D01*
X7201039Y-14849579D02*
X7210563Y-14830531D01*
X7210563Y-14830531D02*
X7220086Y-14821008D01*
X7220086Y-14821008D02*
X7239134Y-14811484D01*
X7391515Y-14992436D02*
X7401039Y-15001960D01*
X7401039Y-15001960D02*
X7391515Y-15011484D01*
X7391515Y-15011484D02*
X7381991Y-15001960D01*
X7381991Y-15001960D02*
X7391515Y-14992436D01*
X7391515Y-14992436D02*
X7391515Y-15011484D01*
X7524848Y-14811484D02*
X7543896Y-14811484D01*
X7543896Y-14811484D02*
X7562944Y-14821008D01*
X7562944Y-14821008D02*
X7572467Y-14830531D01*
X7572467Y-14830531D02*
X7581991Y-14849579D01*
X7581991Y-14849579D02*
X7591515Y-14887674D01*
X7591515Y-14887674D02*
X7591515Y-14935293D01*
X7591515Y-14935293D02*
X7581991Y-14973388D01*
X7581991Y-14973388D02*
X7572467Y-14992436D01*
X7572467Y-14992436D02*
X7562944Y-15001960D01*
X7562944Y-15001960D02*
X7543896Y-15011484D01*
X7543896Y-15011484D02*
X7524848Y-15011484D01*
X7524848Y-15011484D02*
X7505801Y-15001960D01*
X7505801Y-15001960D02*
X7496277Y-14992436D01*
X7496277Y-14992436D02*
X7486753Y-14973388D01*
X7486753Y-14973388D02*
X7477229Y-14935293D01*
X7477229Y-14935293D02*
X7477229Y-14887674D01*
X7477229Y-14887674D02*
X7486753Y-14849579D01*
X7486753Y-14849579D02*
X7496277Y-14830531D01*
X7496277Y-14830531D02*
X7505801Y-14821008D01*
X7505801Y-14821008D02*
X7524848Y-14811484D01*
X7667706Y-14830531D02*
X7677229Y-14821008D01*
X7677229Y-14821008D02*
X7696277Y-14811484D01*
X7696277Y-14811484D02*
X7743896Y-14811484D01*
X7743896Y-14811484D02*
X7762944Y-14821008D01*
X7762944Y-14821008D02*
X7772467Y-14830531D01*
X7772467Y-14830531D02*
X7781991Y-14849579D01*
X7781991Y-14849579D02*
X7781991Y-14868627D01*
X7781991Y-14868627D02*
X7772467Y-14897198D01*
X7772467Y-14897198D02*
X7658182Y-15011484D01*
X7658182Y-15011484D02*
X7781991Y-15011484D01*
X7848658Y-14811484D02*
X7972467Y-14811484D01*
X7972467Y-14811484D02*
X7905801Y-14887674D01*
X7905801Y-14887674D02*
X7934372Y-14887674D01*
X7934372Y-14887674D02*
X7953420Y-14897198D01*
X7953420Y-14897198D02*
X7962944Y-14906722D01*
X7962944Y-14906722D02*
X7972467Y-14925769D01*
X7972467Y-14925769D02*
X7972467Y-14973388D01*
X7972467Y-14973388D02*
X7962944Y-14992436D01*
X7962944Y-14992436D02*
X7953420Y-15001960D01*
X7953420Y-15001960D02*
X7934372Y-15011484D01*
X7934372Y-15011484D02*
X7877229Y-15011484D01*
X7877229Y-15011484D02*
X7858182Y-15001960D01*
X7858182Y-15001960D02*
X7848658Y-14992436D01*
X8143896Y-14811484D02*
X8105801Y-14811484D01*
X8105801Y-14811484D02*
X8086753Y-14821008D01*
X8086753Y-14821008D02*
X8077229Y-14830531D01*
X8077229Y-14830531D02*
X8058182Y-14859103D01*
X8058182Y-14859103D02*
X8048658Y-14897198D01*
X8048658Y-14897198D02*
X8048658Y-14973388D01*
X8048658Y-14973388D02*
X8058182Y-14992436D01*
X8058182Y-14992436D02*
X8067706Y-15001960D01*
X8067706Y-15001960D02*
X8086753Y-15011484D01*
X8086753Y-15011484D02*
X8124848Y-15011484D01*
X8124848Y-15011484D02*
X8143896Y-15001960D01*
X8143896Y-15001960D02*
X8153420Y-14992436D01*
X8153420Y-14992436D02*
X8162944Y-14973388D01*
X8162944Y-14973388D02*
X8162944Y-14925769D01*
X8162944Y-14925769D02*
X8153420Y-14906722D01*
X8153420Y-14906722D02*
X8143896Y-14897198D01*
X8143896Y-14897198D02*
X8124848Y-14887674D01*
X8124848Y-14887674D02*
X8086753Y-14887674D01*
X8086753Y-14887674D02*
X8067706Y-14897198D01*
X8067706Y-14897198D02*
X8058182Y-14906722D01*
X8058182Y-14906722D02*
X8048658Y-14925769D01*
X8239134Y-14811484D02*
X8239134Y-14849579D01*
X8315325Y-14811484D02*
X8315325Y-14849579D01*
X8610563Y-15087674D02*
X8601039Y-15078150D01*
X8601039Y-15078150D02*
X8581991Y-15049579D01*
X8581991Y-15049579D02*
X8572468Y-15030531D01*
X8572468Y-15030531D02*
X8562944Y-15001960D01*
X8562944Y-15001960D02*
X8553420Y-14954341D01*
X8553420Y-14954341D02*
X8553420Y-14916246D01*
X8553420Y-14916246D02*
X8562944Y-14868627D01*
X8562944Y-14868627D02*
X8572468Y-14840055D01*
X8572468Y-14840055D02*
X8581991Y-14821008D01*
X8581991Y-14821008D02*
X8601039Y-14792436D01*
X8601039Y-14792436D02*
X8610563Y-14782912D01*
X8667706Y-14811484D02*
X8801039Y-14811484D01*
X8801039Y-14811484D02*
X8715325Y-15011484D01*
X9029611Y-15011484D02*
X9029611Y-14811484D01*
X9115325Y-15011484D02*
X9115325Y-14906722D01*
X9115325Y-14906722D02*
X9105801Y-14887674D01*
X9105801Y-14887674D02*
X9086753Y-14878150D01*
X9086753Y-14878150D02*
X9058182Y-14878150D01*
X9058182Y-14878150D02*
X9039134Y-14887674D01*
X9039134Y-14887674D02*
X9029611Y-14897198D01*
X9239134Y-15011484D02*
X9220087Y-15001960D01*
X9220087Y-15001960D02*
X9210563Y-14992436D01*
X9210563Y-14992436D02*
X9201039Y-14973388D01*
X9201039Y-14973388D02*
X9201039Y-14916246D01*
X9201039Y-14916246D02*
X9210563Y-14897198D01*
X9210563Y-14897198D02*
X9220087Y-14887674D01*
X9220087Y-14887674D02*
X9239134Y-14878150D01*
X9239134Y-14878150D02*
X9267706Y-14878150D01*
X9267706Y-14878150D02*
X9286753Y-14887674D01*
X9286753Y-14887674D02*
X9296277Y-14897198D01*
X9296277Y-14897198D02*
X9305801Y-14916246D01*
X9305801Y-14916246D02*
X9305801Y-14973388D01*
X9305801Y-14973388D02*
X9296277Y-14992436D01*
X9296277Y-14992436D02*
X9286753Y-15001960D01*
X9286753Y-15001960D02*
X9267706Y-15011484D01*
X9267706Y-15011484D02*
X9239134Y-15011484D01*
X9420087Y-15011484D02*
X9401039Y-15001960D01*
X9401039Y-15001960D02*
X9391515Y-14982912D01*
X9391515Y-14982912D02*
X9391515Y-14811484D01*
X9572468Y-15001960D02*
X9553420Y-15011484D01*
X9553420Y-15011484D02*
X9515325Y-15011484D01*
X9515325Y-15011484D02*
X9496277Y-15001960D01*
X9496277Y-15001960D02*
X9486753Y-14982912D01*
X9486753Y-14982912D02*
X9486753Y-14906722D01*
X9486753Y-14906722D02*
X9496277Y-14887674D01*
X9496277Y-14887674D02*
X9515325Y-14878150D01*
X9515325Y-14878150D02*
X9553420Y-14878150D01*
X9553420Y-14878150D02*
X9572468Y-14887674D01*
X9572468Y-14887674D02*
X9581992Y-14906722D01*
X9581992Y-14906722D02*
X9581992Y-14925769D01*
X9581992Y-14925769D02*
X9486753Y-14944817D01*
X9658182Y-15001960D02*
X9677230Y-15011484D01*
X9677230Y-15011484D02*
X9715325Y-15011484D01*
X9715325Y-15011484D02*
X9734373Y-15001960D01*
X9734373Y-15001960D02*
X9743896Y-14982912D01*
X9743896Y-14982912D02*
X9743896Y-14973388D01*
X9743896Y-14973388D02*
X9734373Y-14954341D01*
X9734373Y-14954341D02*
X9715325Y-14944817D01*
X9715325Y-14944817D02*
X9686753Y-14944817D01*
X9686753Y-14944817D02*
X9667706Y-14935293D01*
X9667706Y-14935293D02*
X9658182Y-14916246D01*
X9658182Y-14916246D02*
X9658182Y-14906722D01*
X9658182Y-14906722D02*
X9667706Y-14887674D01*
X9667706Y-14887674D02*
X9686753Y-14878150D01*
X9686753Y-14878150D02*
X9715325Y-14878150D01*
X9715325Y-14878150D02*
X9734373Y-14887674D01*
X9810563Y-15087674D02*
X9820087Y-15078150D01*
X9820087Y-15078150D02*
X9839134Y-15049579D01*
X9839134Y-15049579D02*
X9848658Y-15030531D01*
X9848658Y-15030531D02*
X9858182Y-15001960D01*
X9858182Y-15001960D02*
X9867706Y-14954341D01*
X9867706Y-14954341D02*
X9867706Y-14916246D01*
X9867706Y-14916246D02*
X9858182Y-14868627D01*
X9858182Y-14868627D02*
X9848658Y-14840055D01*
X9848658Y-14840055D02*
X9839134Y-14821008D01*
X9839134Y-14821008D02*
X9820087Y-14792436D01*
X9820087Y-14792436D02*
X9810563Y-14782912D01*
D11*
X5025249Y-15208749D02*
X5025249Y-15159251D01*
X4975751Y-15159251D01*
X4975751Y-15208749D01*
X5025249Y-15208749D01*
D12*
X5334372Y-15075484D02*
X5353420Y-15075484D01*
X5353420Y-15075484D02*
X5372467Y-15085008D01*
X5372467Y-15085008D02*
X5381991Y-15094531D01*
X5381991Y-15094531D02*
X5391515Y-15113579D01*
X5391515Y-15113579D02*
X5401039Y-15151674D01*
X5401039Y-15151674D02*
X5401039Y-15199293D01*
X5401039Y-15199293D02*
X5391515Y-15237388D01*
X5391515Y-15237388D02*
X5381991Y-15256436D01*
X5381991Y-15256436D02*
X5372467Y-15265960D01*
X5372467Y-15265960D02*
X5353420Y-15275484D01*
X5353420Y-15275484D02*
X5334372Y-15275484D01*
X5334372Y-15275484D02*
X5315324Y-15265960D01*
X5315324Y-15265960D02*
X5305801Y-15256436D01*
X5305801Y-15256436D02*
X5296277Y-15237388D01*
X5296277Y-15237388D02*
X5286753Y-15199293D01*
X5286753Y-15199293D02*
X5286753Y-15151674D01*
X5286753Y-15151674D02*
X5296277Y-15113579D01*
X5296277Y-15113579D02*
X5305801Y-15094531D01*
X5305801Y-15094531D02*
X5315324Y-15085008D01*
X5315324Y-15085008D02*
X5334372Y-15075484D01*
X5486753Y-15256436D02*
X5496277Y-15265960D01*
X5496277Y-15265960D02*
X5486753Y-15275484D01*
X5486753Y-15275484D02*
X5477229Y-15265960D01*
X5477229Y-15265960D02*
X5486753Y-15256436D01*
X5486753Y-15256436D02*
X5486753Y-15275484D01*
X5562944Y-15075484D02*
X5696277Y-15075484D01*
X5696277Y-15075484D02*
X5610562Y-15275484D01*
X5810562Y-15075484D02*
X5829610Y-15075484D01*
X5829610Y-15075484D02*
X5848658Y-15085008D01*
X5848658Y-15085008D02*
X5858182Y-15094531D01*
X5858182Y-15094531D02*
X5867705Y-15113579D01*
X5867705Y-15113579D02*
X5877229Y-15151674D01*
X5877229Y-15151674D02*
X5877229Y-15199293D01*
X5877229Y-15199293D02*
X5867705Y-15237388D01*
X5867705Y-15237388D02*
X5858182Y-15256436D01*
X5858182Y-15256436D02*
X5848658Y-15265960D01*
X5848658Y-15265960D02*
X5829610Y-15275484D01*
X5829610Y-15275484D02*
X5810562Y-15275484D01*
X5810562Y-15275484D02*
X5791515Y-15265960D01*
X5791515Y-15265960D02*
X5781991Y-15256436D01*
X5781991Y-15256436D02*
X5772467Y-15237388D01*
X5772467Y-15237388D02*
X5762943Y-15199293D01*
X5762943Y-15199293D02*
X5762943Y-15151674D01*
X5762943Y-15151674D02*
X5772467Y-15113579D01*
X5772467Y-15113579D02*
X5781991Y-15094531D01*
X5781991Y-15094531D02*
X5791515Y-15085008D01*
X5791515Y-15085008D02*
X5810562Y-15075484D01*
X6001039Y-15075484D02*
X6020086Y-15075484D01*
X6020086Y-15075484D02*
X6039134Y-15085008D01*
X6039134Y-15085008D02*
X6048658Y-15094531D01*
X6048658Y-15094531D02*
X6058182Y-15113579D01*
X6058182Y-15113579D02*
X6067705Y-15151674D01*
X6067705Y-15151674D02*
X6067705Y-15199293D01*
X6067705Y-15199293D02*
X6058182Y-15237388D01*
X6058182Y-15237388D02*
X6048658Y-15256436D01*
X6048658Y-15256436D02*
X6039134Y-15265960D01*
X6039134Y-15265960D02*
X6020086Y-15275484D01*
X6020086Y-15275484D02*
X6001039Y-15275484D01*
X6001039Y-15275484D02*
X5981991Y-15265960D01*
X5981991Y-15265960D02*
X5972467Y-15256436D01*
X5972467Y-15256436D02*
X5962943Y-15237388D01*
X5962943Y-15237388D02*
X5953420Y-15199293D01*
X5953420Y-15199293D02*
X5953420Y-15151674D01*
X5953420Y-15151674D02*
X5962943Y-15113579D01*
X5962943Y-15113579D02*
X5972467Y-15094531D01*
X5972467Y-15094531D02*
X5981991Y-15085008D01*
X5981991Y-15085008D02*
X6001039Y-15075484D01*
X6153420Y-15275484D02*
X6153420Y-15142150D01*
X6153420Y-15161198D02*
X6162943Y-15151674D01*
X6162943Y-15151674D02*
X6181991Y-15142150D01*
X6181991Y-15142150D02*
X6210563Y-15142150D01*
X6210563Y-15142150D02*
X6229610Y-15151674D01*
X6229610Y-15151674D02*
X6239134Y-15170722D01*
X6239134Y-15170722D02*
X6239134Y-15275484D01*
X6239134Y-15170722D02*
X6248658Y-15151674D01*
X6248658Y-15151674D02*
X6267705Y-15142150D01*
X6267705Y-15142150D02*
X6296277Y-15142150D01*
X6296277Y-15142150D02*
X6315324Y-15151674D01*
X6315324Y-15151674D02*
X6324848Y-15170722D01*
X6324848Y-15170722D02*
X6324848Y-15275484D01*
X6420086Y-15275484D02*
X6420086Y-15142150D01*
X6420086Y-15161198D02*
X6429610Y-15151674D01*
X6429610Y-15151674D02*
X6448658Y-15142150D01*
X6448658Y-15142150D02*
X6477229Y-15142150D01*
X6477229Y-15142150D02*
X6496277Y-15151674D01*
X6496277Y-15151674D02*
X6505801Y-15170722D01*
X6505801Y-15170722D02*
X6505801Y-15275484D01*
X6505801Y-15170722D02*
X6515324Y-15151674D01*
X6515324Y-15151674D02*
X6534372Y-15142150D01*
X6534372Y-15142150D02*
X6562943Y-15142150D01*
X6562943Y-15142150D02*
X6581991Y-15151674D01*
X6581991Y-15151674D02*
X6591515Y-15170722D01*
X6591515Y-15170722D02*
X6591515Y-15275484D01*
X6981991Y-15065960D02*
X6810563Y-15323103D01*
X7239134Y-15075484D02*
X7258182Y-15075484D01*
X7258182Y-15075484D02*
X7277229Y-15085008D01*
X7277229Y-15085008D02*
X7286753Y-15094531D01*
X7286753Y-15094531D02*
X7296277Y-15113579D01*
X7296277Y-15113579D02*
X7305801Y-15151674D01*
X7305801Y-15151674D02*
X7305801Y-15199293D01*
X7305801Y-15199293D02*
X7296277Y-15237388D01*
X7296277Y-15237388D02*
X7286753Y-15256436D01*
X7286753Y-15256436D02*
X7277229Y-15265960D01*
X7277229Y-15265960D02*
X7258182Y-15275484D01*
X7258182Y-15275484D02*
X7239134Y-15275484D01*
X7239134Y-15275484D02*
X7220086Y-15265960D01*
X7220086Y-15265960D02*
X7210563Y-15256436D01*
X7210563Y-15256436D02*
X7201039Y-15237388D01*
X7201039Y-15237388D02*
X7191515Y-15199293D01*
X7191515Y-15199293D02*
X7191515Y-15151674D01*
X7191515Y-15151674D02*
X7201039Y-15113579D01*
X7201039Y-15113579D02*
X7210563Y-15094531D01*
X7210563Y-15094531D02*
X7220086Y-15085008D01*
X7220086Y-15085008D02*
X7239134Y-15075484D01*
X7391515Y-15256436D02*
X7401039Y-15265960D01*
X7401039Y-15265960D02*
X7391515Y-15275484D01*
X7391515Y-15275484D02*
X7381991Y-15265960D01*
X7381991Y-15265960D02*
X7391515Y-15256436D01*
X7391515Y-15256436D02*
X7391515Y-15275484D01*
X7524848Y-15075484D02*
X7543896Y-15075484D01*
X7543896Y-15075484D02*
X7562944Y-15085008D01*
X7562944Y-15085008D02*
X7572467Y-15094531D01*
X7572467Y-15094531D02*
X7581991Y-15113579D01*
X7581991Y-15113579D02*
X7591515Y-15151674D01*
X7591515Y-15151674D02*
X7591515Y-15199293D01*
X7591515Y-15199293D02*
X7581991Y-15237388D01*
X7581991Y-15237388D02*
X7572467Y-15256436D01*
X7572467Y-15256436D02*
X7562944Y-15265960D01*
X7562944Y-15265960D02*
X7543896Y-15275484D01*
X7543896Y-15275484D02*
X7524848Y-15275484D01*
X7524848Y-15275484D02*
X7505801Y-15265960D01*
X7505801Y-15265960D02*
X7496277Y-15256436D01*
X7496277Y-15256436D02*
X7486753Y-15237388D01*
X7486753Y-15237388D02*
X7477229Y-15199293D01*
X7477229Y-15199293D02*
X7477229Y-15151674D01*
X7477229Y-15151674D02*
X7486753Y-15113579D01*
X7486753Y-15113579D02*
X7496277Y-15094531D01*
X7496277Y-15094531D02*
X7505801Y-15085008D01*
X7505801Y-15085008D02*
X7524848Y-15075484D01*
X7667706Y-15094531D02*
X7677229Y-15085008D01*
X7677229Y-15085008D02*
X7696277Y-15075484D01*
X7696277Y-15075484D02*
X7743896Y-15075484D01*
X7743896Y-15075484D02*
X7762944Y-15085008D01*
X7762944Y-15085008D02*
X7772467Y-15094531D01*
X7772467Y-15094531D02*
X7781991Y-15113579D01*
X7781991Y-15113579D02*
X7781991Y-15132627D01*
X7781991Y-15132627D02*
X7772467Y-15161198D01*
X7772467Y-15161198D02*
X7658182Y-15275484D01*
X7658182Y-15275484D02*
X7781991Y-15275484D01*
X7848658Y-15075484D02*
X7981991Y-15075484D01*
X7981991Y-15075484D02*
X7896277Y-15275484D01*
X8143896Y-15075484D02*
X8105801Y-15075484D01*
X8105801Y-15075484D02*
X8086753Y-15085008D01*
X8086753Y-15085008D02*
X8077229Y-15094531D01*
X8077229Y-15094531D02*
X8058182Y-15123103D01*
X8058182Y-15123103D02*
X8048658Y-15161198D01*
X8048658Y-15161198D02*
X8048658Y-15237388D01*
X8048658Y-15237388D02*
X8058182Y-15256436D01*
X8058182Y-15256436D02*
X8067706Y-15265960D01*
X8067706Y-15265960D02*
X8086753Y-15275484D01*
X8086753Y-15275484D02*
X8124848Y-15275484D01*
X8124848Y-15275484D02*
X8143896Y-15265960D01*
X8143896Y-15265960D02*
X8153420Y-15256436D01*
X8153420Y-15256436D02*
X8162944Y-15237388D01*
X8162944Y-15237388D02*
X8162944Y-15189769D01*
X8162944Y-15189769D02*
X8153420Y-15170722D01*
X8153420Y-15170722D02*
X8143896Y-15161198D01*
X8143896Y-15161198D02*
X8124848Y-15151674D01*
X8124848Y-15151674D02*
X8086753Y-15151674D01*
X8086753Y-15151674D02*
X8067706Y-15161198D01*
X8067706Y-15161198D02*
X8058182Y-15170722D01*
X8058182Y-15170722D02*
X8048658Y-15189769D01*
X8239134Y-15075484D02*
X8239134Y-15113579D01*
X8315325Y-15075484D02*
X8315325Y-15113579D01*
X8610563Y-15351674D02*
X8601039Y-15342150D01*
X8601039Y-15342150D02*
X8581991Y-15313579D01*
X8581991Y-15313579D02*
X8572468Y-15294531D01*
X8572468Y-15294531D02*
X8562944Y-15265960D01*
X8562944Y-15265960D02*
X8553420Y-15218341D01*
X8553420Y-15218341D02*
X8553420Y-15180246D01*
X8553420Y-15180246D02*
X8562944Y-15132627D01*
X8562944Y-15132627D02*
X8572468Y-15104055D01*
X8572468Y-15104055D02*
X8581991Y-15085008D01*
X8581991Y-15085008D02*
X8601039Y-15056436D01*
X8601039Y-15056436D02*
X8610563Y-15046912D01*
X8724849Y-15075484D02*
X8743896Y-15075484D01*
X8743896Y-15075484D02*
X8762944Y-15085008D01*
X8762944Y-15085008D02*
X8772468Y-15094531D01*
X8772468Y-15094531D02*
X8781991Y-15113579D01*
X8781991Y-15113579D02*
X8791515Y-15151674D01*
X8791515Y-15151674D02*
X8791515Y-15199293D01*
X8791515Y-15199293D02*
X8781991Y-15237388D01*
X8781991Y-15237388D02*
X8772468Y-15256436D01*
X8772468Y-15256436D02*
X8762944Y-15265960D01*
X8762944Y-15265960D02*
X8743896Y-15275484D01*
X8743896Y-15275484D02*
X8724849Y-15275484D01*
X8724849Y-15275484D02*
X8705801Y-15265960D01*
X8705801Y-15265960D02*
X8696277Y-15256436D01*
X8696277Y-15256436D02*
X8686753Y-15237388D01*
X8686753Y-15237388D02*
X8677230Y-15199293D01*
X8677230Y-15199293D02*
X8677230Y-15151674D01*
X8677230Y-15151674D02*
X8686753Y-15113579D01*
X8686753Y-15113579D02*
X8696277Y-15094531D01*
X8696277Y-15094531D02*
X8705801Y-15085008D01*
X8705801Y-15085008D02*
X8724849Y-15075484D01*
X9029611Y-15275484D02*
X9029611Y-15075484D01*
X9115325Y-15275484D02*
X9115325Y-15170722D01*
X9115325Y-15170722D02*
X9105801Y-15151674D01*
X9105801Y-15151674D02*
X9086753Y-15142150D01*
X9086753Y-15142150D02*
X9058182Y-15142150D01*
X9058182Y-15142150D02*
X9039134Y-15151674D01*
X9039134Y-15151674D02*
X9029611Y-15161198D01*
X9239134Y-15275484D02*
X9220087Y-15265960D01*
X9220087Y-15265960D02*
X9210563Y-15256436D01*
X9210563Y-15256436D02*
X9201039Y-15237388D01*
X9201039Y-15237388D02*
X9201039Y-15180246D01*
X9201039Y-15180246D02*
X9210563Y-15161198D01*
X9210563Y-15161198D02*
X9220087Y-15151674D01*
X9220087Y-15151674D02*
X9239134Y-15142150D01*
X9239134Y-15142150D02*
X9267706Y-15142150D01*
X9267706Y-15142150D02*
X9286753Y-15151674D01*
X9286753Y-15151674D02*
X9296277Y-15161198D01*
X9296277Y-15161198D02*
X9305801Y-15180246D01*
X9305801Y-15180246D02*
X9305801Y-15237388D01*
X9305801Y-15237388D02*
X9296277Y-15256436D01*
X9296277Y-15256436D02*
X9286753Y-15265960D01*
X9286753Y-15265960D02*
X9267706Y-15275484D01*
X9267706Y-15275484D02*
X9239134Y-15275484D01*
X9420087Y-15275484D02*
X9401039Y-15265960D01*
X9401039Y-15265960D02*
X9391515Y-15246912D01*
X9391515Y-15246912D02*
X9391515Y-15075484D01*
X9572468Y-15265960D02*
X9553420Y-15275484D01*
X9553420Y-15275484D02*
X9515325Y-15275484D01*
X9515325Y-15275484D02*
X9496277Y-15265960D01*
X9496277Y-15265960D02*
X9486753Y-15246912D01*
X9486753Y-15246912D02*
X9486753Y-15170722D01*
X9486753Y-15170722D02*
X9496277Y-15151674D01*
X9496277Y-15151674D02*
X9515325Y-15142150D01*
X9515325Y-15142150D02*
X9553420Y-15142150D01*
X9553420Y-15142150D02*
X9572468Y-15151674D01*
X9572468Y-15151674D02*
X9581992Y-15170722D01*
X9581992Y-15170722D02*
X9581992Y-15189769D01*
X9581992Y-15189769D02*
X9486753Y-15208817D01*
X9658182Y-15265960D02*
X9677230Y-15275484D01*
X9677230Y-15275484D02*
X9715325Y-15275484D01*
X9715325Y-15275484D02*
X9734373Y-15265960D01*
X9734373Y-15265960D02*
X9743896Y-15246912D01*
X9743896Y-15246912D02*
X9743896Y-15237388D01*
X9743896Y-15237388D02*
X9734373Y-15218341D01*
X9734373Y-15218341D02*
X9715325Y-15208817D01*
X9715325Y-15208817D02*
X9686753Y-15208817D01*
X9686753Y-15208817D02*
X9667706Y-15199293D01*
X9667706Y-15199293D02*
X9658182Y-15180246D01*
X9658182Y-15180246D02*
X9658182Y-15170722D01*
X9658182Y-15170722D02*
X9667706Y-15151674D01*
X9667706Y-15151674D02*
X9686753Y-15142150D01*
X9686753Y-15142150D02*
X9715325Y-15142150D01*
X9715325Y-15142150D02*
X9734373Y-15151674D01*
X9981992Y-15199293D02*
X10134373Y-15199293D01*
X10058182Y-15275484D02*
X10058182Y-15123103D01*
X10467706Y-15142150D02*
X10467706Y-15275484D01*
X10420087Y-15065960D02*
X10372468Y-15208817D01*
X10372468Y-15208817D02*
X10496277Y-15208817D01*
X10715325Y-15265960D02*
X10734373Y-15275484D01*
X10734373Y-15275484D02*
X10772468Y-15275484D01*
X10772468Y-15275484D02*
X10791516Y-15265960D01*
X10791516Y-15265960D02*
X10801039Y-15246912D01*
X10801039Y-15246912D02*
X10801039Y-15237388D01*
X10801039Y-15237388D02*
X10791516Y-15218341D01*
X10791516Y-15218341D02*
X10772468Y-15208817D01*
X10772468Y-15208817D02*
X10743896Y-15208817D01*
X10743896Y-15208817D02*
X10724849Y-15199293D01*
X10724849Y-15199293D02*
X10715325Y-15180246D01*
X10715325Y-15180246D02*
X10715325Y-15170722D01*
X10715325Y-15170722D02*
X10724849Y-15151674D01*
X10724849Y-15151674D02*
X10743896Y-15142150D01*
X10743896Y-15142150D02*
X10772468Y-15142150D01*
X10772468Y-15142150D02*
X10791516Y-15151674D01*
X10915325Y-15275484D02*
X10896277Y-15265960D01*
X10896277Y-15265960D02*
X10886754Y-15246912D01*
X10886754Y-15246912D02*
X10886754Y-15075484D01*
X11020087Y-15275484D02*
X11001039Y-15265960D01*
X11001039Y-15265960D02*
X10991516Y-15256436D01*
X10991516Y-15256436D02*
X10981992Y-15237388D01*
X10981992Y-15237388D02*
X10981992Y-15180246D01*
X10981992Y-15180246D02*
X10991516Y-15161198D01*
X10991516Y-15161198D02*
X11001039Y-15151674D01*
X11001039Y-15151674D02*
X11020087Y-15142150D01*
X11020087Y-15142150D02*
X11048658Y-15142150D01*
X11048658Y-15142150D02*
X11067706Y-15151674D01*
X11067706Y-15151674D02*
X11077230Y-15161198D01*
X11077230Y-15161198D02*
X11086754Y-15180246D01*
X11086754Y-15180246D02*
X11086754Y-15237388D01*
X11086754Y-15237388D02*
X11077230Y-15256436D01*
X11077230Y-15256436D02*
X11067706Y-15265960D01*
X11067706Y-15265960D02*
X11048658Y-15275484D01*
X11048658Y-15275484D02*
X11020087Y-15275484D01*
X11143897Y-15142150D02*
X11220087Y-15142150D01*
X11172468Y-15075484D02*
X11172468Y-15246912D01*
X11172468Y-15246912D02*
X11181992Y-15265960D01*
X11181992Y-15265960D02*
X11201039Y-15275484D01*
X11201039Y-15275484D02*
X11220087Y-15275484D01*
X11277230Y-15265960D02*
X11296277Y-15275484D01*
X11296277Y-15275484D02*
X11334373Y-15275484D01*
X11334373Y-15275484D02*
X11353420Y-15265960D01*
X11353420Y-15265960D02*
X11362944Y-15246912D01*
X11362944Y-15246912D02*
X11362944Y-15237388D01*
X11362944Y-15237388D02*
X11353420Y-15218341D01*
X11353420Y-15218341D02*
X11334373Y-15208817D01*
X11334373Y-15208817D02*
X11305801Y-15208817D01*
X11305801Y-15208817D02*
X11286754Y-15199293D01*
X11286754Y-15199293D02*
X11277230Y-15180246D01*
X11277230Y-15180246D02*
X11277230Y-15170722D01*
X11277230Y-15170722D02*
X11286754Y-15151674D01*
X11286754Y-15151674D02*
X11305801Y-15142150D01*
X11305801Y-15142150D02*
X11334373Y-15142150D01*
X11334373Y-15142150D02*
X11353420Y-15151674D01*
X11429611Y-15351674D02*
X11439135Y-15342150D01*
X11439135Y-15342150D02*
X11458182Y-15313579D01*
X11458182Y-15313579D02*
X11467706Y-15294531D01*
X11467706Y-15294531D02*
X11477230Y-15265960D01*
X11477230Y-15265960D02*
X11486754Y-15218341D01*
X11486754Y-15218341D02*
X11486754Y-15180246D01*
X11486754Y-15180246D02*
X11477230Y-15132627D01*
X11477230Y-15132627D02*
X11467706Y-15104055D01*
X11467706Y-15104055D02*
X11458182Y-15085008D01*
X11458182Y-15085008D02*
X11439135Y-15056436D01*
X11439135Y-15056436D02*
X11429611Y-15046912D01*
D11*
X4995500Y-15488000D02*
X5035500Y-15448000D01*
X4995500Y-15408000D01*
X4955500Y-15448000D01*
X4995500Y-15488000D01*
D12*
X5334372Y-15339484D02*
X5353420Y-15339484D01*
X5353420Y-15339484D02*
X5372467Y-15349008D01*
X5372467Y-15349008D02*
X5381991Y-15358531D01*
X5381991Y-15358531D02*
X5391515Y-15377579D01*
X5391515Y-15377579D02*
X5401039Y-15415674D01*
X5401039Y-15415674D02*
X5401039Y-15463293D01*
X5401039Y-15463293D02*
X5391515Y-15501388D01*
X5391515Y-15501388D02*
X5381991Y-15520436D01*
X5381991Y-15520436D02*
X5372467Y-15529960D01*
X5372467Y-15529960D02*
X5353420Y-15539484D01*
X5353420Y-15539484D02*
X5334372Y-15539484D01*
X5334372Y-15539484D02*
X5315324Y-15529960D01*
X5315324Y-15529960D02*
X5305801Y-15520436D01*
X5305801Y-15520436D02*
X5296277Y-15501388D01*
X5296277Y-15501388D02*
X5286753Y-15463293D01*
X5286753Y-15463293D02*
X5286753Y-15415674D01*
X5286753Y-15415674D02*
X5296277Y-15377579D01*
X5296277Y-15377579D02*
X5305801Y-15358531D01*
X5305801Y-15358531D02*
X5315324Y-15349008D01*
X5315324Y-15349008D02*
X5334372Y-15339484D01*
X5486753Y-15520436D02*
X5496277Y-15529960D01*
X5496277Y-15529960D02*
X5486753Y-15539484D01*
X5486753Y-15539484D02*
X5477229Y-15529960D01*
X5477229Y-15529960D02*
X5486753Y-15520436D01*
X5486753Y-15520436D02*
X5486753Y-15539484D01*
X5610562Y-15425198D02*
X5591515Y-15415674D01*
X5591515Y-15415674D02*
X5581991Y-15406150D01*
X5581991Y-15406150D02*
X5572467Y-15387103D01*
X5572467Y-15387103D02*
X5572467Y-15377579D01*
X5572467Y-15377579D02*
X5581991Y-15358531D01*
X5581991Y-15358531D02*
X5591515Y-15349008D01*
X5591515Y-15349008D02*
X5610562Y-15339484D01*
X5610562Y-15339484D02*
X5648658Y-15339484D01*
X5648658Y-15339484D02*
X5667705Y-15349008D01*
X5667705Y-15349008D02*
X5677229Y-15358531D01*
X5677229Y-15358531D02*
X5686753Y-15377579D01*
X5686753Y-15377579D02*
X5686753Y-15387103D01*
X5686753Y-15387103D02*
X5677229Y-15406150D01*
X5677229Y-15406150D02*
X5667705Y-15415674D01*
X5667705Y-15415674D02*
X5648658Y-15425198D01*
X5648658Y-15425198D02*
X5610562Y-15425198D01*
X5610562Y-15425198D02*
X5591515Y-15434722D01*
X5591515Y-15434722D02*
X5581991Y-15444246D01*
X5581991Y-15444246D02*
X5572467Y-15463293D01*
X5572467Y-15463293D02*
X5572467Y-15501388D01*
X5572467Y-15501388D02*
X5581991Y-15520436D01*
X5581991Y-15520436D02*
X5591515Y-15529960D01*
X5591515Y-15529960D02*
X5610562Y-15539484D01*
X5610562Y-15539484D02*
X5648658Y-15539484D01*
X5648658Y-15539484D02*
X5667705Y-15529960D01*
X5667705Y-15529960D02*
X5677229Y-15520436D01*
X5677229Y-15520436D02*
X5686753Y-15501388D01*
X5686753Y-15501388D02*
X5686753Y-15463293D01*
X5686753Y-15463293D02*
X5677229Y-15444246D01*
X5677229Y-15444246D02*
X5667705Y-15434722D01*
X5667705Y-15434722D02*
X5648658Y-15425198D01*
X5810562Y-15339484D02*
X5829610Y-15339484D01*
X5829610Y-15339484D02*
X5848658Y-15349008D01*
X5848658Y-15349008D02*
X5858182Y-15358531D01*
X5858182Y-15358531D02*
X5867705Y-15377579D01*
X5867705Y-15377579D02*
X5877229Y-15415674D01*
X5877229Y-15415674D02*
X5877229Y-15463293D01*
X5877229Y-15463293D02*
X5867705Y-15501388D01*
X5867705Y-15501388D02*
X5858182Y-15520436D01*
X5858182Y-15520436D02*
X5848658Y-15529960D01*
X5848658Y-15529960D02*
X5829610Y-15539484D01*
X5829610Y-15539484D02*
X5810562Y-15539484D01*
X5810562Y-15539484D02*
X5791515Y-15529960D01*
X5791515Y-15529960D02*
X5781991Y-15520436D01*
X5781991Y-15520436D02*
X5772467Y-15501388D01*
X5772467Y-15501388D02*
X5762943Y-15463293D01*
X5762943Y-15463293D02*
X5762943Y-15415674D01*
X5762943Y-15415674D02*
X5772467Y-15377579D01*
X5772467Y-15377579D02*
X5781991Y-15358531D01*
X5781991Y-15358531D02*
X5791515Y-15349008D01*
X5791515Y-15349008D02*
X5810562Y-15339484D01*
X6001039Y-15339484D02*
X6020086Y-15339484D01*
X6020086Y-15339484D02*
X6039134Y-15349008D01*
X6039134Y-15349008D02*
X6048658Y-15358531D01*
X6048658Y-15358531D02*
X6058182Y-15377579D01*
X6058182Y-15377579D02*
X6067705Y-15415674D01*
X6067705Y-15415674D02*
X6067705Y-15463293D01*
X6067705Y-15463293D02*
X6058182Y-15501388D01*
X6058182Y-15501388D02*
X6048658Y-15520436D01*
X6048658Y-15520436D02*
X6039134Y-15529960D01*
X6039134Y-15529960D02*
X6020086Y-15539484D01*
X6020086Y-15539484D02*
X6001039Y-15539484D01*
X6001039Y-15539484D02*
X5981991Y-15529960D01*
X5981991Y-15529960D02*
X5972467Y-15520436D01*
X5972467Y-15520436D02*
X5962943Y-15501388D01*
X5962943Y-15501388D02*
X5953420Y-15463293D01*
X5953420Y-15463293D02*
X5953420Y-15415674D01*
X5953420Y-15415674D02*
X5962943Y-15377579D01*
X5962943Y-15377579D02*
X5972467Y-15358531D01*
X5972467Y-15358531D02*
X5981991Y-15349008D01*
X5981991Y-15349008D02*
X6001039Y-15339484D01*
X6153420Y-15539484D02*
X6153420Y-15406150D01*
X6153420Y-15425198D02*
X6162943Y-15415674D01*
X6162943Y-15415674D02*
X6181991Y-15406150D01*
X6181991Y-15406150D02*
X6210563Y-15406150D01*
X6210563Y-15406150D02*
X6229610Y-15415674D01*
X6229610Y-15415674D02*
X6239134Y-15434722D01*
X6239134Y-15434722D02*
X6239134Y-15539484D01*
X6239134Y-15434722D02*
X6248658Y-15415674D01*
X6248658Y-15415674D02*
X6267705Y-15406150D01*
X6267705Y-15406150D02*
X6296277Y-15406150D01*
X6296277Y-15406150D02*
X6315324Y-15415674D01*
X6315324Y-15415674D02*
X6324848Y-15434722D01*
X6324848Y-15434722D02*
X6324848Y-15539484D01*
X6420086Y-15539484D02*
X6420086Y-15406150D01*
X6420086Y-15425198D02*
X6429610Y-15415674D01*
X6429610Y-15415674D02*
X6448658Y-15406150D01*
X6448658Y-15406150D02*
X6477229Y-15406150D01*
X6477229Y-15406150D02*
X6496277Y-15415674D01*
X6496277Y-15415674D02*
X6505801Y-15434722D01*
X6505801Y-15434722D02*
X6505801Y-15539484D01*
X6505801Y-15434722D02*
X6515324Y-15415674D01*
X6515324Y-15415674D02*
X6534372Y-15406150D01*
X6534372Y-15406150D02*
X6562943Y-15406150D01*
X6562943Y-15406150D02*
X6581991Y-15415674D01*
X6581991Y-15415674D02*
X6591515Y-15434722D01*
X6591515Y-15434722D02*
X6591515Y-15539484D01*
X6981991Y-15329960D02*
X6810563Y-15587103D01*
X7239134Y-15339484D02*
X7258182Y-15339484D01*
X7258182Y-15339484D02*
X7277229Y-15349008D01*
X7277229Y-15349008D02*
X7286753Y-15358531D01*
X7286753Y-15358531D02*
X7296277Y-15377579D01*
X7296277Y-15377579D02*
X7305801Y-15415674D01*
X7305801Y-15415674D02*
X7305801Y-15463293D01*
X7305801Y-15463293D02*
X7296277Y-15501388D01*
X7296277Y-15501388D02*
X7286753Y-15520436D01*
X7286753Y-15520436D02*
X7277229Y-15529960D01*
X7277229Y-15529960D02*
X7258182Y-15539484D01*
X7258182Y-15539484D02*
X7239134Y-15539484D01*
X7239134Y-15539484D02*
X7220086Y-15529960D01*
X7220086Y-15529960D02*
X7210563Y-15520436D01*
X7210563Y-15520436D02*
X7201039Y-15501388D01*
X7201039Y-15501388D02*
X7191515Y-15463293D01*
X7191515Y-15463293D02*
X7191515Y-15415674D01*
X7191515Y-15415674D02*
X7201039Y-15377579D01*
X7201039Y-15377579D02*
X7210563Y-15358531D01*
X7210563Y-15358531D02*
X7220086Y-15349008D01*
X7220086Y-15349008D02*
X7239134Y-15339484D01*
X7391515Y-15520436D02*
X7401039Y-15529960D01*
X7401039Y-15529960D02*
X7391515Y-15539484D01*
X7391515Y-15539484D02*
X7381991Y-15529960D01*
X7381991Y-15529960D02*
X7391515Y-15520436D01*
X7391515Y-15520436D02*
X7391515Y-15539484D01*
X7524848Y-15339484D02*
X7543896Y-15339484D01*
X7543896Y-15339484D02*
X7562944Y-15349008D01*
X7562944Y-15349008D02*
X7572467Y-15358531D01*
X7572467Y-15358531D02*
X7581991Y-15377579D01*
X7581991Y-15377579D02*
X7591515Y-15415674D01*
X7591515Y-15415674D02*
X7591515Y-15463293D01*
X7591515Y-15463293D02*
X7581991Y-15501388D01*
X7581991Y-15501388D02*
X7572467Y-15520436D01*
X7572467Y-15520436D02*
X7562944Y-15529960D01*
X7562944Y-15529960D02*
X7543896Y-15539484D01*
X7543896Y-15539484D02*
X7524848Y-15539484D01*
X7524848Y-15539484D02*
X7505801Y-15529960D01*
X7505801Y-15529960D02*
X7496277Y-15520436D01*
X7496277Y-15520436D02*
X7486753Y-15501388D01*
X7486753Y-15501388D02*
X7477229Y-15463293D01*
X7477229Y-15463293D02*
X7477229Y-15415674D01*
X7477229Y-15415674D02*
X7486753Y-15377579D01*
X7486753Y-15377579D02*
X7496277Y-15358531D01*
X7496277Y-15358531D02*
X7505801Y-15349008D01*
X7505801Y-15349008D02*
X7524848Y-15339484D01*
X7658182Y-15339484D02*
X7781991Y-15339484D01*
X7781991Y-15339484D02*
X7715325Y-15415674D01*
X7715325Y-15415674D02*
X7743896Y-15415674D01*
X7743896Y-15415674D02*
X7762944Y-15425198D01*
X7762944Y-15425198D02*
X7772467Y-15434722D01*
X7772467Y-15434722D02*
X7781991Y-15453769D01*
X7781991Y-15453769D02*
X7781991Y-15501388D01*
X7781991Y-15501388D02*
X7772467Y-15520436D01*
X7772467Y-15520436D02*
X7762944Y-15529960D01*
X7762944Y-15529960D02*
X7743896Y-15539484D01*
X7743896Y-15539484D02*
X7686753Y-15539484D01*
X7686753Y-15539484D02*
X7667706Y-15529960D01*
X7667706Y-15529960D02*
X7658182Y-15520436D01*
X7972467Y-15539484D02*
X7858182Y-15539484D01*
X7915325Y-15539484D02*
X7915325Y-15339484D01*
X7915325Y-15339484D02*
X7896277Y-15368055D01*
X7896277Y-15368055D02*
X7877229Y-15387103D01*
X7877229Y-15387103D02*
X7858182Y-15396627D01*
X8153420Y-15339484D02*
X8058182Y-15339484D01*
X8058182Y-15339484D02*
X8048658Y-15434722D01*
X8048658Y-15434722D02*
X8058182Y-15425198D01*
X8058182Y-15425198D02*
X8077229Y-15415674D01*
X8077229Y-15415674D02*
X8124848Y-15415674D01*
X8124848Y-15415674D02*
X8143896Y-15425198D01*
X8143896Y-15425198D02*
X8153420Y-15434722D01*
X8153420Y-15434722D02*
X8162944Y-15453769D01*
X8162944Y-15453769D02*
X8162944Y-15501388D01*
X8162944Y-15501388D02*
X8153420Y-15520436D01*
X8153420Y-15520436D02*
X8143896Y-15529960D01*
X8143896Y-15529960D02*
X8124848Y-15539484D01*
X8124848Y-15539484D02*
X8077229Y-15539484D01*
X8077229Y-15539484D02*
X8058182Y-15529960D01*
X8058182Y-15529960D02*
X8048658Y-15520436D01*
X8239134Y-15339484D02*
X8239134Y-15377579D01*
X8315325Y-15339484D02*
X8315325Y-15377579D01*
X8610563Y-15615674D02*
X8601039Y-15606150D01*
X8601039Y-15606150D02*
X8581991Y-15577579D01*
X8581991Y-15577579D02*
X8572468Y-15558531D01*
X8572468Y-15558531D02*
X8562944Y-15529960D01*
X8562944Y-15529960D02*
X8553420Y-15482341D01*
X8553420Y-15482341D02*
X8553420Y-15444246D01*
X8553420Y-15444246D02*
X8562944Y-15396627D01*
X8562944Y-15396627D02*
X8572468Y-15368055D01*
X8572468Y-15368055D02*
X8581991Y-15349008D01*
X8581991Y-15349008D02*
X8601039Y-15320436D01*
X8601039Y-15320436D02*
X8610563Y-15310912D01*
X8724849Y-15339484D02*
X8743896Y-15339484D01*
X8743896Y-15339484D02*
X8762944Y-15349008D01*
X8762944Y-15349008D02*
X8772468Y-15358531D01*
X8772468Y-15358531D02*
X8781991Y-15377579D01*
X8781991Y-15377579D02*
X8791515Y-15415674D01*
X8791515Y-15415674D02*
X8791515Y-15463293D01*
X8791515Y-15463293D02*
X8781991Y-15501388D01*
X8781991Y-15501388D02*
X8772468Y-15520436D01*
X8772468Y-15520436D02*
X8762944Y-15529960D01*
X8762944Y-15529960D02*
X8743896Y-15539484D01*
X8743896Y-15539484D02*
X8724849Y-15539484D01*
X8724849Y-15539484D02*
X8705801Y-15529960D01*
X8705801Y-15529960D02*
X8696277Y-15520436D01*
X8696277Y-15520436D02*
X8686753Y-15501388D01*
X8686753Y-15501388D02*
X8677230Y-15463293D01*
X8677230Y-15463293D02*
X8677230Y-15415674D01*
X8677230Y-15415674D02*
X8686753Y-15377579D01*
X8686753Y-15377579D02*
X8696277Y-15358531D01*
X8696277Y-15358531D02*
X8705801Y-15349008D01*
X8705801Y-15349008D02*
X8724849Y-15339484D01*
X9029611Y-15539484D02*
X9029611Y-15339484D01*
X9115325Y-15539484D02*
X9115325Y-15434722D01*
X9115325Y-15434722D02*
X9105801Y-15415674D01*
X9105801Y-15415674D02*
X9086753Y-15406150D01*
X9086753Y-15406150D02*
X9058182Y-15406150D01*
X9058182Y-15406150D02*
X9039134Y-15415674D01*
X9039134Y-15415674D02*
X9029611Y-15425198D01*
X9239134Y-15539484D02*
X9220087Y-15529960D01*
X9220087Y-15529960D02*
X9210563Y-15520436D01*
X9210563Y-15520436D02*
X9201039Y-15501388D01*
X9201039Y-15501388D02*
X9201039Y-15444246D01*
X9201039Y-15444246D02*
X9210563Y-15425198D01*
X9210563Y-15425198D02*
X9220087Y-15415674D01*
X9220087Y-15415674D02*
X9239134Y-15406150D01*
X9239134Y-15406150D02*
X9267706Y-15406150D01*
X9267706Y-15406150D02*
X9286753Y-15415674D01*
X9286753Y-15415674D02*
X9296277Y-15425198D01*
X9296277Y-15425198D02*
X9305801Y-15444246D01*
X9305801Y-15444246D02*
X9305801Y-15501388D01*
X9305801Y-15501388D02*
X9296277Y-15520436D01*
X9296277Y-15520436D02*
X9286753Y-15529960D01*
X9286753Y-15529960D02*
X9267706Y-15539484D01*
X9267706Y-15539484D02*
X9239134Y-15539484D01*
X9420087Y-15539484D02*
X9401039Y-15529960D01*
X9401039Y-15529960D02*
X9391515Y-15510912D01*
X9391515Y-15510912D02*
X9391515Y-15339484D01*
X9572468Y-15529960D02*
X9553420Y-15539484D01*
X9553420Y-15539484D02*
X9515325Y-15539484D01*
X9515325Y-15539484D02*
X9496277Y-15529960D01*
X9496277Y-15529960D02*
X9486753Y-15510912D01*
X9486753Y-15510912D02*
X9486753Y-15434722D01*
X9486753Y-15434722D02*
X9496277Y-15415674D01*
X9496277Y-15415674D02*
X9515325Y-15406150D01*
X9515325Y-15406150D02*
X9553420Y-15406150D01*
X9553420Y-15406150D02*
X9572468Y-15415674D01*
X9572468Y-15415674D02*
X9581992Y-15434722D01*
X9581992Y-15434722D02*
X9581992Y-15453769D01*
X9581992Y-15453769D02*
X9486753Y-15472817D01*
X9658182Y-15529960D02*
X9677230Y-15539484D01*
X9677230Y-15539484D02*
X9715325Y-15539484D01*
X9715325Y-15539484D02*
X9734373Y-15529960D01*
X9734373Y-15529960D02*
X9743896Y-15510912D01*
X9743896Y-15510912D02*
X9743896Y-15501388D01*
X9743896Y-15501388D02*
X9734373Y-15482341D01*
X9734373Y-15482341D02*
X9715325Y-15472817D01*
X9715325Y-15472817D02*
X9686753Y-15472817D01*
X9686753Y-15472817D02*
X9667706Y-15463293D01*
X9667706Y-15463293D02*
X9658182Y-15444246D01*
X9658182Y-15444246D02*
X9658182Y-15434722D01*
X9658182Y-15434722D02*
X9667706Y-15415674D01*
X9667706Y-15415674D02*
X9686753Y-15406150D01*
X9686753Y-15406150D02*
X9715325Y-15406150D01*
X9715325Y-15406150D02*
X9734373Y-15415674D01*
X9981992Y-15463293D02*
X10134373Y-15463293D01*
X10058182Y-15539484D02*
X10058182Y-15387103D01*
X10372468Y-15358531D02*
X10381992Y-15349008D01*
X10381992Y-15349008D02*
X10401039Y-15339484D01*
X10401039Y-15339484D02*
X10448658Y-15339484D01*
X10448658Y-15339484D02*
X10467706Y-15349008D01*
X10467706Y-15349008D02*
X10477230Y-15358531D01*
X10477230Y-15358531D02*
X10486754Y-15377579D01*
X10486754Y-15377579D02*
X10486754Y-15396627D01*
X10486754Y-15396627D02*
X10477230Y-15425198D01*
X10477230Y-15425198D02*
X10362944Y-15539484D01*
X10362944Y-15539484D02*
X10486754Y-15539484D01*
X10715325Y-15529960D02*
X10734373Y-15539484D01*
X10734373Y-15539484D02*
X10772468Y-15539484D01*
X10772468Y-15539484D02*
X10791516Y-15529960D01*
X10791516Y-15529960D02*
X10801039Y-15510912D01*
X10801039Y-15510912D02*
X10801039Y-15501388D01*
X10801039Y-15501388D02*
X10791516Y-15482341D01*
X10791516Y-15482341D02*
X10772468Y-15472817D01*
X10772468Y-15472817D02*
X10743896Y-15472817D01*
X10743896Y-15472817D02*
X10724849Y-15463293D01*
X10724849Y-15463293D02*
X10715325Y-15444246D01*
X10715325Y-15444246D02*
X10715325Y-15434722D01*
X10715325Y-15434722D02*
X10724849Y-15415674D01*
X10724849Y-15415674D02*
X10743896Y-15406150D01*
X10743896Y-15406150D02*
X10772468Y-15406150D01*
X10772468Y-15406150D02*
X10791516Y-15415674D01*
X10915325Y-15539484D02*
X10896277Y-15529960D01*
X10896277Y-15529960D02*
X10886754Y-15510912D01*
X10886754Y-15510912D02*
X10886754Y-15339484D01*
X11020087Y-15539484D02*
X11001039Y-15529960D01*
X11001039Y-15529960D02*
X10991516Y-15520436D01*
X10991516Y-15520436D02*
X10981992Y-15501388D01*
X10981992Y-15501388D02*
X10981992Y-15444246D01*
X10981992Y-15444246D02*
X10991516Y-15425198D01*
X10991516Y-15425198D02*
X11001039Y-15415674D01*
X11001039Y-15415674D02*
X11020087Y-15406150D01*
X11020087Y-15406150D02*
X11048658Y-15406150D01*
X11048658Y-15406150D02*
X11067706Y-15415674D01*
X11067706Y-15415674D02*
X11077230Y-15425198D01*
X11077230Y-15425198D02*
X11086754Y-15444246D01*
X11086754Y-15444246D02*
X11086754Y-15501388D01*
X11086754Y-15501388D02*
X11077230Y-15520436D01*
X11077230Y-15520436D02*
X11067706Y-15529960D01*
X11067706Y-15529960D02*
X11048658Y-15539484D01*
X11048658Y-15539484D02*
X11020087Y-15539484D01*
X11143897Y-15406150D02*
X11220087Y-15406150D01*
X11172468Y-15339484D02*
X11172468Y-15510912D01*
X11172468Y-15510912D02*
X11181992Y-15529960D01*
X11181992Y-15529960D02*
X11201039Y-15539484D01*
X11201039Y-15539484D02*
X11220087Y-15539484D01*
X11277230Y-15529960D02*
X11296277Y-15539484D01*
X11296277Y-15539484D02*
X11334373Y-15539484D01*
X11334373Y-15539484D02*
X11353420Y-15529960D01*
X11353420Y-15529960D02*
X11362944Y-15510912D01*
X11362944Y-15510912D02*
X11362944Y-15501388D01*
X11362944Y-15501388D02*
X11353420Y-15482341D01*
X11353420Y-15482341D02*
X11334373Y-15472817D01*
X11334373Y-15472817D02*
X11305801Y-15472817D01*
X11305801Y-15472817D02*
X11286754Y-15463293D01*
X11286754Y-15463293D02*
X11277230Y-15444246D01*
X11277230Y-15444246D02*
X11277230Y-15434722D01*
X11277230Y-15434722D02*
X11286754Y-15415674D01*
X11286754Y-15415674D02*
X11305801Y-15406150D01*
X11305801Y-15406150D02*
X11334373Y-15406150D01*
X11334373Y-15406150D02*
X11353420Y-15415674D01*
X11429611Y-15615674D02*
X11439135Y-15606150D01*
X11439135Y-15606150D02*
X11458182Y-15577579D01*
X11458182Y-15577579D02*
X11467706Y-15558531D01*
X11467706Y-15558531D02*
X11477230Y-15529960D01*
X11477230Y-15529960D02*
X11486754Y-15482341D01*
X11486754Y-15482341D02*
X11486754Y-15444246D01*
X11486754Y-15444246D02*
X11477230Y-15396627D01*
X11477230Y-15396627D02*
X11467706Y-15368055D01*
X11467706Y-15368055D02*
X11458182Y-15349008D01*
X11458182Y-15349008D02*
X11439135Y-15320436D01*
X11439135Y-15320436D02*
X11429611Y-15310912D01*
D11*
X4935500Y-15662000D02*
X5035500Y-15762000D01*
X5035500Y-15662000D02*
X4935500Y-15762000D01*
X5035500Y-15712000D02*
G75*
G02*
X4935500Y-15712000I-50000J0D01*
G01*
X4935500Y-15712000D02*
G75*
G02*
X5035500Y-15712000I50000J0D01*
G01*
D12*
X5401039Y-15803484D02*
X5286753Y-15803484D01*
X5343896Y-15803484D02*
X5343896Y-15603484D01*
X5343896Y-15603484D02*
X5324848Y-15632055D01*
X5324848Y-15632055D02*
X5305801Y-15651103D01*
X5305801Y-15651103D02*
X5286753Y-15660627D01*
X5486753Y-15784436D02*
X5496277Y-15793960D01*
X5496277Y-15793960D02*
X5486753Y-15803484D01*
X5486753Y-15803484D02*
X5477229Y-15793960D01*
X5477229Y-15793960D02*
X5486753Y-15784436D01*
X5486753Y-15784436D02*
X5486753Y-15803484D01*
X5620086Y-15603484D02*
X5639134Y-15603484D01*
X5639134Y-15603484D02*
X5658182Y-15613008D01*
X5658182Y-15613008D02*
X5667705Y-15622531D01*
X5667705Y-15622531D02*
X5677229Y-15641579D01*
X5677229Y-15641579D02*
X5686753Y-15679674D01*
X5686753Y-15679674D02*
X5686753Y-15727293D01*
X5686753Y-15727293D02*
X5677229Y-15765388D01*
X5677229Y-15765388D02*
X5667705Y-15784436D01*
X5667705Y-15784436D02*
X5658182Y-15793960D01*
X5658182Y-15793960D02*
X5639134Y-15803484D01*
X5639134Y-15803484D02*
X5620086Y-15803484D01*
X5620086Y-15803484D02*
X5601039Y-15793960D01*
X5601039Y-15793960D02*
X5591515Y-15784436D01*
X5591515Y-15784436D02*
X5581991Y-15765388D01*
X5581991Y-15765388D02*
X5572467Y-15727293D01*
X5572467Y-15727293D02*
X5572467Y-15679674D01*
X5572467Y-15679674D02*
X5581991Y-15641579D01*
X5581991Y-15641579D02*
X5591515Y-15622531D01*
X5591515Y-15622531D02*
X5601039Y-15613008D01*
X5601039Y-15613008D02*
X5620086Y-15603484D01*
X5810562Y-15603484D02*
X5829610Y-15603484D01*
X5829610Y-15603484D02*
X5848658Y-15613008D01*
X5848658Y-15613008D02*
X5858182Y-15622531D01*
X5858182Y-15622531D02*
X5867705Y-15641579D01*
X5867705Y-15641579D02*
X5877229Y-15679674D01*
X5877229Y-15679674D02*
X5877229Y-15727293D01*
X5877229Y-15727293D02*
X5867705Y-15765388D01*
X5867705Y-15765388D02*
X5858182Y-15784436D01*
X5858182Y-15784436D02*
X5848658Y-15793960D01*
X5848658Y-15793960D02*
X5829610Y-15803484D01*
X5829610Y-15803484D02*
X5810562Y-15803484D01*
X5810562Y-15803484D02*
X5791515Y-15793960D01*
X5791515Y-15793960D02*
X5781991Y-15784436D01*
X5781991Y-15784436D02*
X5772467Y-15765388D01*
X5772467Y-15765388D02*
X5762943Y-15727293D01*
X5762943Y-15727293D02*
X5762943Y-15679674D01*
X5762943Y-15679674D02*
X5772467Y-15641579D01*
X5772467Y-15641579D02*
X5781991Y-15622531D01*
X5781991Y-15622531D02*
X5791515Y-15613008D01*
X5791515Y-15613008D02*
X5810562Y-15603484D01*
X6001039Y-15603484D02*
X6020086Y-15603484D01*
X6020086Y-15603484D02*
X6039134Y-15613008D01*
X6039134Y-15613008D02*
X6048658Y-15622531D01*
X6048658Y-15622531D02*
X6058182Y-15641579D01*
X6058182Y-15641579D02*
X6067705Y-15679674D01*
X6067705Y-15679674D02*
X6067705Y-15727293D01*
X6067705Y-15727293D02*
X6058182Y-15765388D01*
X6058182Y-15765388D02*
X6048658Y-15784436D01*
X6048658Y-15784436D02*
X6039134Y-15793960D01*
X6039134Y-15793960D02*
X6020086Y-15803484D01*
X6020086Y-15803484D02*
X6001039Y-15803484D01*
X6001039Y-15803484D02*
X5981991Y-15793960D01*
X5981991Y-15793960D02*
X5972467Y-15784436D01*
X5972467Y-15784436D02*
X5962943Y-15765388D01*
X5962943Y-15765388D02*
X5953420Y-15727293D01*
X5953420Y-15727293D02*
X5953420Y-15679674D01*
X5953420Y-15679674D02*
X5962943Y-15641579D01*
X5962943Y-15641579D02*
X5972467Y-15622531D01*
X5972467Y-15622531D02*
X5981991Y-15613008D01*
X5981991Y-15613008D02*
X6001039Y-15603484D01*
X6153420Y-15803484D02*
X6153420Y-15670150D01*
X6153420Y-15689198D02*
X6162943Y-15679674D01*
X6162943Y-15679674D02*
X6181991Y-15670150D01*
X6181991Y-15670150D02*
X6210563Y-15670150D01*
X6210563Y-15670150D02*
X6229610Y-15679674D01*
X6229610Y-15679674D02*
X6239134Y-15698722D01*
X6239134Y-15698722D02*
X6239134Y-15803484D01*
X6239134Y-15698722D02*
X6248658Y-15679674D01*
X6248658Y-15679674D02*
X6267705Y-15670150D01*
X6267705Y-15670150D02*
X6296277Y-15670150D01*
X6296277Y-15670150D02*
X6315324Y-15679674D01*
X6315324Y-15679674D02*
X6324848Y-15698722D01*
X6324848Y-15698722D02*
X6324848Y-15803484D01*
X6420086Y-15803484D02*
X6420086Y-15670150D01*
X6420086Y-15689198D02*
X6429610Y-15679674D01*
X6429610Y-15679674D02*
X6448658Y-15670150D01*
X6448658Y-15670150D02*
X6477229Y-15670150D01*
X6477229Y-15670150D02*
X6496277Y-15679674D01*
X6496277Y-15679674D02*
X6505801Y-15698722D01*
X6505801Y-15698722D02*
X6505801Y-15803484D01*
X6505801Y-15698722D02*
X6515324Y-15679674D01*
X6515324Y-15679674D02*
X6534372Y-15670150D01*
X6534372Y-15670150D02*
X6562943Y-15670150D01*
X6562943Y-15670150D02*
X6581991Y-15679674D01*
X6581991Y-15679674D02*
X6591515Y-15698722D01*
X6591515Y-15698722D02*
X6591515Y-15803484D01*
X6981991Y-15593960D02*
X6810563Y-15851103D01*
X7239134Y-15603484D02*
X7258182Y-15603484D01*
X7258182Y-15603484D02*
X7277229Y-15613008D01*
X7277229Y-15613008D02*
X7286753Y-15622531D01*
X7286753Y-15622531D02*
X7296277Y-15641579D01*
X7296277Y-15641579D02*
X7305801Y-15679674D01*
X7305801Y-15679674D02*
X7305801Y-15727293D01*
X7305801Y-15727293D02*
X7296277Y-15765388D01*
X7296277Y-15765388D02*
X7286753Y-15784436D01*
X7286753Y-15784436D02*
X7277229Y-15793960D01*
X7277229Y-15793960D02*
X7258182Y-15803484D01*
X7258182Y-15803484D02*
X7239134Y-15803484D01*
X7239134Y-15803484D02*
X7220086Y-15793960D01*
X7220086Y-15793960D02*
X7210563Y-15784436D01*
X7210563Y-15784436D02*
X7201039Y-15765388D01*
X7201039Y-15765388D02*
X7191515Y-15727293D01*
X7191515Y-15727293D02*
X7191515Y-15679674D01*
X7191515Y-15679674D02*
X7201039Y-15641579D01*
X7201039Y-15641579D02*
X7210563Y-15622531D01*
X7210563Y-15622531D02*
X7220086Y-15613008D01*
X7220086Y-15613008D02*
X7239134Y-15603484D01*
X7391515Y-15784436D02*
X7401039Y-15793960D01*
X7401039Y-15793960D02*
X7391515Y-15803484D01*
X7391515Y-15803484D02*
X7381991Y-15793960D01*
X7381991Y-15793960D02*
X7391515Y-15784436D01*
X7391515Y-15784436D02*
X7391515Y-15803484D01*
X7524848Y-15603484D02*
X7543896Y-15603484D01*
X7543896Y-15603484D02*
X7562944Y-15613008D01*
X7562944Y-15613008D02*
X7572467Y-15622531D01*
X7572467Y-15622531D02*
X7581991Y-15641579D01*
X7581991Y-15641579D02*
X7591515Y-15679674D01*
X7591515Y-15679674D02*
X7591515Y-15727293D01*
X7591515Y-15727293D02*
X7581991Y-15765388D01*
X7581991Y-15765388D02*
X7572467Y-15784436D01*
X7572467Y-15784436D02*
X7562944Y-15793960D01*
X7562944Y-15793960D02*
X7543896Y-15803484D01*
X7543896Y-15803484D02*
X7524848Y-15803484D01*
X7524848Y-15803484D02*
X7505801Y-15793960D01*
X7505801Y-15793960D02*
X7496277Y-15784436D01*
X7496277Y-15784436D02*
X7486753Y-15765388D01*
X7486753Y-15765388D02*
X7477229Y-15727293D01*
X7477229Y-15727293D02*
X7477229Y-15679674D01*
X7477229Y-15679674D02*
X7486753Y-15641579D01*
X7486753Y-15641579D02*
X7496277Y-15622531D01*
X7496277Y-15622531D02*
X7505801Y-15613008D01*
X7505801Y-15613008D02*
X7524848Y-15603484D01*
X7658182Y-15603484D02*
X7781991Y-15603484D01*
X7781991Y-15603484D02*
X7715325Y-15679674D01*
X7715325Y-15679674D02*
X7743896Y-15679674D01*
X7743896Y-15679674D02*
X7762944Y-15689198D01*
X7762944Y-15689198D02*
X7772467Y-15698722D01*
X7772467Y-15698722D02*
X7781991Y-15717769D01*
X7781991Y-15717769D02*
X7781991Y-15765388D01*
X7781991Y-15765388D02*
X7772467Y-15784436D01*
X7772467Y-15784436D02*
X7762944Y-15793960D01*
X7762944Y-15793960D02*
X7743896Y-15803484D01*
X7743896Y-15803484D02*
X7686753Y-15803484D01*
X7686753Y-15803484D02*
X7667706Y-15793960D01*
X7667706Y-15793960D02*
X7658182Y-15784436D01*
X7877229Y-15803484D02*
X7915325Y-15803484D01*
X7915325Y-15803484D02*
X7934372Y-15793960D01*
X7934372Y-15793960D02*
X7943896Y-15784436D01*
X7943896Y-15784436D02*
X7962944Y-15755865D01*
X7962944Y-15755865D02*
X7972467Y-15717769D01*
X7972467Y-15717769D02*
X7972467Y-15641579D01*
X7972467Y-15641579D02*
X7962944Y-15622531D01*
X7962944Y-15622531D02*
X7953420Y-15613008D01*
X7953420Y-15613008D02*
X7934372Y-15603484D01*
X7934372Y-15603484D02*
X7896277Y-15603484D01*
X7896277Y-15603484D02*
X7877229Y-15613008D01*
X7877229Y-15613008D02*
X7867706Y-15622531D01*
X7867706Y-15622531D02*
X7858182Y-15641579D01*
X7858182Y-15641579D02*
X7858182Y-15689198D01*
X7858182Y-15689198D02*
X7867706Y-15708246D01*
X7867706Y-15708246D02*
X7877229Y-15717769D01*
X7877229Y-15717769D02*
X7896277Y-15727293D01*
X7896277Y-15727293D02*
X7934372Y-15727293D01*
X7934372Y-15727293D02*
X7953420Y-15717769D01*
X7953420Y-15717769D02*
X7962944Y-15708246D01*
X7962944Y-15708246D02*
X7972467Y-15689198D01*
X8143896Y-15670150D02*
X8143896Y-15803484D01*
X8096277Y-15593960D02*
X8048658Y-15736817D01*
X8048658Y-15736817D02*
X8172467Y-15736817D01*
X8239134Y-15603484D02*
X8239134Y-15641579D01*
X8315325Y-15603484D02*
X8315325Y-15641579D01*
X8610563Y-15879674D02*
X8601039Y-15870150D01*
X8601039Y-15870150D02*
X8581991Y-15841579D01*
X8581991Y-15841579D02*
X8572468Y-15822531D01*
X8572468Y-15822531D02*
X8562944Y-15793960D01*
X8562944Y-15793960D02*
X8553420Y-15746341D01*
X8553420Y-15746341D02*
X8553420Y-15708246D01*
X8553420Y-15708246D02*
X8562944Y-15660627D01*
X8562944Y-15660627D02*
X8572468Y-15632055D01*
X8572468Y-15632055D02*
X8581991Y-15613008D01*
X8581991Y-15613008D02*
X8601039Y-15584436D01*
X8601039Y-15584436D02*
X8610563Y-15574912D01*
X8772468Y-15670150D02*
X8772468Y-15803484D01*
X8724849Y-15593960D02*
X8677230Y-15736817D01*
X8677230Y-15736817D02*
X8801039Y-15736817D01*
X8867706Y-15622531D02*
X8877230Y-15613008D01*
X8877230Y-15613008D02*
X8896277Y-15603484D01*
X8896277Y-15603484D02*
X8943896Y-15603484D01*
X8943896Y-15603484D02*
X8962944Y-15613008D01*
X8962944Y-15613008D02*
X8972468Y-15622531D01*
X8972468Y-15622531D02*
X8981991Y-15641579D01*
X8981991Y-15641579D02*
X8981991Y-15660627D01*
X8981991Y-15660627D02*
X8972468Y-15689198D01*
X8972468Y-15689198D02*
X8858182Y-15803484D01*
X8858182Y-15803484D02*
X8981991Y-15803484D01*
X9220087Y-15803484D02*
X9220087Y-15603484D01*
X9305801Y-15803484D02*
X9305801Y-15698722D01*
X9305801Y-15698722D02*
X9296277Y-15679674D01*
X9296277Y-15679674D02*
X9277230Y-15670150D01*
X9277230Y-15670150D02*
X9248658Y-15670150D01*
X9248658Y-15670150D02*
X9229611Y-15679674D01*
X9229611Y-15679674D02*
X9220087Y-15689198D01*
X9429611Y-15803484D02*
X9410563Y-15793960D01*
X9410563Y-15793960D02*
X9401039Y-15784436D01*
X9401039Y-15784436D02*
X9391515Y-15765388D01*
X9391515Y-15765388D02*
X9391515Y-15708246D01*
X9391515Y-15708246D02*
X9401039Y-15689198D01*
X9401039Y-15689198D02*
X9410563Y-15679674D01*
X9410563Y-15679674D02*
X9429611Y-15670150D01*
X9429611Y-15670150D02*
X9458182Y-15670150D01*
X9458182Y-15670150D02*
X9477230Y-15679674D01*
X9477230Y-15679674D02*
X9486753Y-15689198D01*
X9486753Y-15689198D02*
X9496277Y-15708246D01*
X9496277Y-15708246D02*
X9496277Y-15765388D01*
X9496277Y-15765388D02*
X9486753Y-15784436D01*
X9486753Y-15784436D02*
X9477230Y-15793960D01*
X9477230Y-15793960D02*
X9458182Y-15803484D01*
X9458182Y-15803484D02*
X9429611Y-15803484D01*
X9610563Y-15803484D02*
X9591515Y-15793960D01*
X9591515Y-15793960D02*
X9581992Y-15774912D01*
X9581992Y-15774912D02*
X9581992Y-15603484D01*
X9762944Y-15793960D02*
X9743896Y-15803484D01*
X9743896Y-15803484D02*
X9705801Y-15803484D01*
X9705801Y-15803484D02*
X9686753Y-15793960D01*
X9686753Y-15793960D02*
X9677230Y-15774912D01*
X9677230Y-15774912D02*
X9677230Y-15698722D01*
X9677230Y-15698722D02*
X9686753Y-15679674D01*
X9686753Y-15679674D02*
X9705801Y-15670150D01*
X9705801Y-15670150D02*
X9743896Y-15670150D01*
X9743896Y-15670150D02*
X9762944Y-15679674D01*
X9762944Y-15679674D02*
X9772468Y-15698722D01*
X9772468Y-15698722D02*
X9772468Y-15717769D01*
X9772468Y-15717769D02*
X9677230Y-15736817D01*
X9848658Y-15793960D02*
X9867706Y-15803484D01*
X9867706Y-15803484D02*
X9905801Y-15803484D01*
X9905801Y-15803484D02*
X9924849Y-15793960D01*
X9924849Y-15793960D02*
X9934373Y-15774912D01*
X9934373Y-15774912D02*
X9934373Y-15765388D01*
X9934373Y-15765388D02*
X9924849Y-15746341D01*
X9924849Y-15746341D02*
X9905801Y-15736817D01*
X9905801Y-15736817D02*
X9877230Y-15736817D01*
X9877230Y-15736817D02*
X9858182Y-15727293D01*
X9858182Y-15727293D02*
X9848658Y-15708246D01*
X9848658Y-15708246D02*
X9848658Y-15698722D01*
X9848658Y-15698722D02*
X9858182Y-15679674D01*
X9858182Y-15679674D02*
X9877230Y-15670150D01*
X9877230Y-15670150D02*
X9905801Y-15670150D01*
X9905801Y-15670150D02*
X9924849Y-15679674D01*
X10001039Y-15879674D02*
X10010563Y-15870150D01*
X10010563Y-15870150D02*
X10029611Y-15841579D01*
X10029611Y-15841579D02*
X10039134Y-15822531D01*
X10039134Y-15822531D02*
X10048658Y-15793960D01*
X10048658Y-15793960D02*
X10058182Y-15746341D01*
X10058182Y-15746341D02*
X10058182Y-15708246D01*
X10058182Y-15708246D02*
X10048658Y-15660627D01*
X10048658Y-15660627D02*
X10039134Y-15632055D01*
X10039134Y-15632055D02*
X10029611Y-15613008D01*
X10029611Y-15613008D02*
X10010563Y-15584436D01*
X10010563Y-15584436D02*
X10001039Y-15574912D01*
D13*
X4925500Y-15921000D02*
X5035500Y-16031000D01*
X5035500Y-15921000D02*
X4925500Y-16031000D01*
X4980500Y-15921000D02*
X4980500Y-16031000D01*
X4925500Y-15976000D02*
X5035500Y-15976000D01*
D12*
X5401039Y-16067484D02*
X5286753Y-16067484D01*
X5343896Y-16067484D02*
X5343896Y-15867484D01*
X5343896Y-15867484D02*
X5324848Y-15896055D01*
X5324848Y-15896055D02*
X5305801Y-15915103D01*
X5305801Y-15915103D02*
X5286753Y-15924627D01*
X5486753Y-16048436D02*
X5496277Y-16057960D01*
X5496277Y-16057960D02*
X5486753Y-16067484D01*
X5486753Y-16067484D02*
X5477229Y-16057960D01*
X5477229Y-16057960D02*
X5486753Y-16048436D01*
X5486753Y-16048436D02*
X5486753Y-16067484D01*
X5686753Y-16067484D02*
X5572467Y-16067484D01*
X5629610Y-16067484D02*
X5629610Y-15867484D01*
X5629610Y-15867484D02*
X5610562Y-15896055D01*
X5610562Y-15896055D02*
X5591515Y-15915103D01*
X5591515Y-15915103D02*
X5572467Y-15924627D01*
X5810562Y-15867484D02*
X5829610Y-15867484D01*
X5829610Y-15867484D02*
X5848658Y-15877008D01*
X5848658Y-15877008D02*
X5858182Y-15886531D01*
X5858182Y-15886531D02*
X5867705Y-15905579D01*
X5867705Y-15905579D02*
X5877229Y-15943674D01*
X5877229Y-15943674D02*
X5877229Y-15991293D01*
X5877229Y-15991293D02*
X5867705Y-16029388D01*
X5867705Y-16029388D02*
X5858182Y-16048436D01*
X5858182Y-16048436D02*
X5848658Y-16057960D01*
X5848658Y-16057960D02*
X5829610Y-16067484D01*
X5829610Y-16067484D02*
X5810562Y-16067484D01*
X5810562Y-16067484D02*
X5791515Y-16057960D01*
X5791515Y-16057960D02*
X5781991Y-16048436D01*
X5781991Y-16048436D02*
X5772467Y-16029388D01*
X5772467Y-16029388D02*
X5762943Y-15991293D01*
X5762943Y-15991293D02*
X5762943Y-15943674D01*
X5762943Y-15943674D02*
X5772467Y-15905579D01*
X5772467Y-15905579D02*
X5781991Y-15886531D01*
X5781991Y-15886531D02*
X5791515Y-15877008D01*
X5791515Y-15877008D02*
X5810562Y-15867484D01*
X6001039Y-15867484D02*
X6020086Y-15867484D01*
X6020086Y-15867484D02*
X6039134Y-15877008D01*
X6039134Y-15877008D02*
X6048658Y-15886531D01*
X6048658Y-15886531D02*
X6058182Y-15905579D01*
X6058182Y-15905579D02*
X6067705Y-15943674D01*
X6067705Y-15943674D02*
X6067705Y-15991293D01*
X6067705Y-15991293D02*
X6058182Y-16029388D01*
X6058182Y-16029388D02*
X6048658Y-16048436D01*
X6048658Y-16048436D02*
X6039134Y-16057960D01*
X6039134Y-16057960D02*
X6020086Y-16067484D01*
X6020086Y-16067484D02*
X6001039Y-16067484D01*
X6001039Y-16067484D02*
X5981991Y-16057960D01*
X5981991Y-16057960D02*
X5972467Y-16048436D01*
X5972467Y-16048436D02*
X5962943Y-16029388D01*
X5962943Y-16029388D02*
X5953420Y-15991293D01*
X5953420Y-15991293D02*
X5953420Y-15943674D01*
X5953420Y-15943674D02*
X5962943Y-15905579D01*
X5962943Y-15905579D02*
X5972467Y-15886531D01*
X5972467Y-15886531D02*
X5981991Y-15877008D01*
X5981991Y-15877008D02*
X6001039Y-15867484D01*
X6153420Y-16067484D02*
X6153420Y-15934150D01*
X6153420Y-15953198D02*
X6162943Y-15943674D01*
X6162943Y-15943674D02*
X6181991Y-15934150D01*
X6181991Y-15934150D02*
X6210563Y-15934150D01*
X6210563Y-15934150D02*
X6229610Y-15943674D01*
X6229610Y-15943674D02*
X6239134Y-15962722D01*
X6239134Y-15962722D02*
X6239134Y-16067484D01*
X6239134Y-15962722D02*
X6248658Y-15943674D01*
X6248658Y-15943674D02*
X6267705Y-15934150D01*
X6267705Y-15934150D02*
X6296277Y-15934150D01*
X6296277Y-15934150D02*
X6315324Y-15943674D01*
X6315324Y-15943674D02*
X6324848Y-15962722D01*
X6324848Y-15962722D02*
X6324848Y-16067484D01*
X6420086Y-16067484D02*
X6420086Y-15934150D01*
X6420086Y-15953198D02*
X6429610Y-15943674D01*
X6429610Y-15943674D02*
X6448658Y-15934150D01*
X6448658Y-15934150D02*
X6477229Y-15934150D01*
X6477229Y-15934150D02*
X6496277Y-15943674D01*
X6496277Y-15943674D02*
X6505801Y-15962722D01*
X6505801Y-15962722D02*
X6505801Y-16067484D01*
X6505801Y-15962722D02*
X6515324Y-15943674D01*
X6515324Y-15943674D02*
X6534372Y-15934150D01*
X6534372Y-15934150D02*
X6562943Y-15934150D01*
X6562943Y-15934150D02*
X6581991Y-15943674D01*
X6581991Y-15943674D02*
X6591515Y-15962722D01*
X6591515Y-15962722D02*
X6591515Y-16067484D01*
X6981991Y-15857960D02*
X6810563Y-16115103D01*
X7239134Y-15867484D02*
X7258182Y-15867484D01*
X7258182Y-15867484D02*
X7277229Y-15877008D01*
X7277229Y-15877008D02*
X7286753Y-15886531D01*
X7286753Y-15886531D02*
X7296277Y-15905579D01*
X7296277Y-15905579D02*
X7305801Y-15943674D01*
X7305801Y-15943674D02*
X7305801Y-15991293D01*
X7305801Y-15991293D02*
X7296277Y-16029388D01*
X7296277Y-16029388D02*
X7286753Y-16048436D01*
X7286753Y-16048436D02*
X7277229Y-16057960D01*
X7277229Y-16057960D02*
X7258182Y-16067484D01*
X7258182Y-16067484D02*
X7239134Y-16067484D01*
X7239134Y-16067484D02*
X7220086Y-16057960D01*
X7220086Y-16057960D02*
X7210563Y-16048436D01*
X7210563Y-16048436D02*
X7201039Y-16029388D01*
X7201039Y-16029388D02*
X7191515Y-15991293D01*
X7191515Y-15991293D02*
X7191515Y-15943674D01*
X7191515Y-15943674D02*
X7201039Y-15905579D01*
X7201039Y-15905579D02*
X7210563Y-15886531D01*
X7210563Y-15886531D02*
X7220086Y-15877008D01*
X7220086Y-15877008D02*
X7239134Y-15867484D01*
X7391515Y-16048436D02*
X7401039Y-16057960D01*
X7401039Y-16057960D02*
X7391515Y-16067484D01*
X7391515Y-16067484D02*
X7381991Y-16057960D01*
X7381991Y-16057960D02*
X7391515Y-16048436D01*
X7391515Y-16048436D02*
X7391515Y-16067484D01*
X7524848Y-15867484D02*
X7543896Y-15867484D01*
X7543896Y-15867484D02*
X7562944Y-15877008D01*
X7562944Y-15877008D02*
X7572467Y-15886531D01*
X7572467Y-15886531D02*
X7581991Y-15905579D01*
X7581991Y-15905579D02*
X7591515Y-15943674D01*
X7591515Y-15943674D02*
X7591515Y-15991293D01*
X7591515Y-15991293D02*
X7581991Y-16029388D01*
X7581991Y-16029388D02*
X7572467Y-16048436D01*
X7572467Y-16048436D02*
X7562944Y-16057960D01*
X7562944Y-16057960D02*
X7543896Y-16067484D01*
X7543896Y-16067484D02*
X7524848Y-16067484D01*
X7524848Y-16067484D02*
X7505801Y-16057960D01*
X7505801Y-16057960D02*
X7496277Y-16048436D01*
X7496277Y-16048436D02*
X7486753Y-16029388D01*
X7486753Y-16029388D02*
X7477229Y-15991293D01*
X7477229Y-15991293D02*
X7477229Y-15943674D01*
X7477229Y-15943674D02*
X7486753Y-15905579D01*
X7486753Y-15905579D02*
X7496277Y-15886531D01*
X7496277Y-15886531D02*
X7505801Y-15877008D01*
X7505801Y-15877008D02*
X7524848Y-15867484D01*
X7762944Y-15934150D02*
X7762944Y-16067484D01*
X7715325Y-15857960D02*
X7667706Y-16000817D01*
X7667706Y-16000817D02*
X7791515Y-16000817D01*
X7848658Y-15867484D02*
X7972467Y-15867484D01*
X7972467Y-15867484D02*
X7905801Y-15943674D01*
X7905801Y-15943674D02*
X7934372Y-15943674D01*
X7934372Y-15943674D02*
X7953420Y-15953198D01*
X7953420Y-15953198D02*
X7962944Y-15962722D01*
X7962944Y-15962722D02*
X7972467Y-15981769D01*
X7972467Y-15981769D02*
X7972467Y-16029388D01*
X7972467Y-16029388D02*
X7962944Y-16048436D01*
X7962944Y-16048436D02*
X7953420Y-16057960D01*
X7953420Y-16057960D02*
X7934372Y-16067484D01*
X7934372Y-16067484D02*
X7877229Y-16067484D01*
X7877229Y-16067484D02*
X7858182Y-16057960D01*
X7858182Y-16057960D02*
X7848658Y-16048436D01*
X8039134Y-15867484D02*
X8162944Y-15867484D01*
X8162944Y-15867484D02*
X8096277Y-15943674D01*
X8096277Y-15943674D02*
X8124848Y-15943674D01*
X8124848Y-15943674D02*
X8143896Y-15953198D01*
X8143896Y-15953198D02*
X8153420Y-15962722D01*
X8153420Y-15962722D02*
X8162944Y-15981769D01*
X8162944Y-15981769D02*
X8162944Y-16029388D01*
X8162944Y-16029388D02*
X8153420Y-16048436D01*
X8153420Y-16048436D02*
X8143896Y-16057960D01*
X8143896Y-16057960D02*
X8124848Y-16067484D01*
X8124848Y-16067484D02*
X8067706Y-16067484D01*
X8067706Y-16067484D02*
X8048658Y-16057960D01*
X8048658Y-16057960D02*
X8039134Y-16048436D01*
X8239134Y-15867484D02*
X8239134Y-15905579D01*
X8315325Y-15867484D02*
X8315325Y-15905579D01*
X8610563Y-16143674D02*
X8601039Y-16134150D01*
X8601039Y-16134150D02*
X8581991Y-16105579D01*
X8581991Y-16105579D02*
X8572468Y-16086531D01*
X8572468Y-16086531D02*
X8562944Y-16057960D01*
X8562944Y-16057960D02*
X8553420Y-16010341D01*
X8553420Y-16010341D02*
X8553420Y-15972246D01*
X8553420Y-15972246D02*
X8562944Y-15924627D01*
X8562944Y-15924627D02*
X8572468Y-15896055D01*
X8572468Y-15896055D02*
X8581991Y-15877008D01*
X8581991Y-15877008D02*
X8601039Y-15848436D01*
X8601039Y-15848436D02*
X8610563Y-15838912D01*
X8781991Y-15867484D02*
X8686753Y-15867484D01*
X8686753Y-15867484D02*
X8677230Y-15962722D01*
X8677230Y-15962722D02*
X8686753Y-15953198D01*
X8686753Y-15953198D02*
X8705801Y-15943674D01*
X8705801Y-15943674D02*
X8753420Y-15943674D01*
X8753420Y-15943674D02*
X8772468Y-15953198D01*
X8772468Y-15953198D02*
X8781991Y-15962722D01*
X8781991Y-15962722D02*
X8791515Y-15981769D01*
X8791515Y-15981769D02*
X8791515Y-16029388D01*
X8791515Y-16029388D02*
X8781991Y-16048436D01*
X8781991Y-16048436D02*
X8772468Y-16057960D01*
X8772468Y-16057960D02*
X8753420Y-16067484D01*
X8753420Y-16067484D02*
X8705801Y-16067484D01*
X8705801Y-16067484D02*
X8686753Y-16057960D01*
X8686753Y-16057960D02*
X8677230Y-16048436D01*
X9029611Y-16067484D02*
X9029611Y-15867484D01*
X9115325Y-16067484D02*
X9115325Y-15962722D01*
X9115325Y-15962722D02*
X9105801Y-15943674D01*
X9105801Y-15943674D02*
X9086753Y-15934150D01*
X9086753Y-15934150D02*
X9058182Y-15934150D01*
X9058182Y-15934150D02*
X9039134Y-15943674D01*
X9039134Y-15943674D02*
X9029611Y-15953198D01*
X9239134Y-16067484D02*
X9220087Y-16057960D01*
X9220087Y-16057960D02*
X9210563Y-16048436D01*
X9210563Y-16048436D02*
X9201039Y-16029388D01*
X9201039Y-16029388D02*
X9201039Y-15972246D01*
X9201039Y-15972246D02*
X9210563Y-15953198D01*
X9210563Y-15953198D02*
X9220087Y-15943674D01*
X9220087Y-15943674D02*
X9239134Y-15934150D01*
X9239134Y-15934150D02*
X9267706Y-15934150D01*
X9267706Y-15934150D02*
X9286753Y-15943674D01*
X9286753Y-15943674D02*
X9296277Y-15953198D01*
X9296277Y-15953198D02*
X9305801Y-15972246D01*
X9305801Y-15972246D02*
X9305801Y-16029388D01*
X9305801Y-16029388D02*
X9296277Y-16048436D01*
X9296277Y-16048436D02*
X9286753Y-16057960D01*
X9286753Y-16057960D02*
X9267706Y-16067484D01*
X9267706Y-16067484D02*
X9239134Y-16067484D01*
X9420087Y-16067484D02*
X9401039Y-16057960D01*
X9401039Y-16057960D02*
X9391515Y-16038912D01*
X9391515Y-16038912D02*
X9391515Y-15867484D01*
X9572468Y-16057960D02*
X9553420Y-16067484D01*
X9553420Y-16067484D02*
X9515325Y-16067484D01*
X9515325Y-16067484D02*
X9496277Y-16057960D01*
X9496277Y-16057960D02*
X9486753Y-16038912D01*
X9486753Y-16038912D02*
X9486753Y-15962722D01*
X9486753Y-15962722D02*
X9496277Y-15943674D01*
X9496277Y-15943674D02*
X9515325Y-15934150D01*
X9515325Y-15934150D02*
X9553420Y-15934150D01*
X9553420Y-15934150D02*
X9572468Y-15943674D01*
X9572468Y-15943674D02*
X9581992Y-15962722D01*
X9581992Y-15962722D02*
X9581992Y-15981769D01*
X9581992Y-15981769D02*
X9486753Y-16000817D01*
X9658182Y-16057960D02*
X9677230Y-16067484D01*
X9677230Y-16067484D02*
X9715325Y-16067484D01*
X9715325Y-16067484D02*
X9734373Y-16057960D01*
X9734373Y-16057960D02*
X9743896Y-16038912D01*
X9743896Y-16038912D02*
X9743896Y-16029388D01*
X9743896Y-16029388D02*
X9734373Y-16010341D01*
X9734373Y-16010341D02*
X9715325Y-16000817D01*
X9715325Y-16000817D02*
X9686753Y-16000817D01*
X9686753Y-16000817D02*
X9667706Y-15991293D01*
X9667706Y-15991293D02*
X9658182Y-15972246D01*
X9658182Y-15972246D02*
X9658182Y-15962722D01*
X9658182Y-15962722D02*
X9667706Y-15943674D01*
X9667706Y-15943674D02*
X9686753Y-15934150D01*
X9686753Y-15934150D02*
X9715325Y-15934150D01*
X9715325Y-15934150D02*
X9734373Y-15943674D01*
X9810563Y-16143674D02*
X9820087Y-16134150D01*
X9820087Y-16134150D02*
X9839134Y-16105579D01*
X9839134Y-16105579D02*
X9848658Y-16086531D01*
X9848658Y-16086531D02*
X9858182Y-16057960D01*
X9858182Y-16057960D02*
X9867706Y-16010341D01*
X9867706Y-16010341D02*
X9867706Y-15972246D01*
X9867706Y-15972246D02*
X9858182Y-15924627D01*
X9858182Y-15924627D02*
X9848658Y-15896055D01*
X9848658Y-15896055D02*
X9839134Y-15877008D01*
X9839134Y-15877008D02*
X9820087Y-15848436D01*
X9820087Y-15848436D02*
X9810563Y-15838912D01*
D14*
X4920500Y-16182500D02*
X5035500Y-16297500D01*
X5035500Y-16182500D02*
X4920500Y-16297500D01*
X5018659Y-16280659D02*
X5018659Y-16199341D01*
X4937341Y-16199341D01*
X4937341Y-16280659D01*
X5018659Y-16280659D01*
D12*
X5401039Y-16331484D02*
X5286753Y-16331484D01*
X5343896Y-16331484D02*
X5343896Y-16131484D01*
X5343896Y-16131484D02*
X5324848Y-16160055D01*
X5324848Y-16160055D02*
X5305801Y-16179103D01*
X5305801Y-16179103D02*
X5286753Y-16188627D01*
X5486753Y-16312436D02*
X5496277Y-16321960D01*
X5496277Y-16321960D02*
X5486753Y-16331484D01*
X5486753Y-16331484D02*
X5477229Y-16321960D01*
X5477229Y-16321960D02*
X5486753Y-16312436D01*
X5486753Y-16312436D02*
X5486753Y-16331484D01*
X5686753Y-16331484D02*
X5572467Y-16331484D01*
X5629610Y-16331484D02*
X5629610Y-16131484D01*
X5629610Y-16131484D02*
X5610562Y-16160055D01*
X5610562Y-16160055D02*
X5591515Y-16179103D01*
X5591515Y-16179103D02*
X5572467Y-16188627D01*
X5867705Y-16131484D02*
X5772467Y-16131484D01*
X5772467Y-16131484D02*
X5762943Y-16226722D01*
X5762943Y-16226722D02*
X5772467Y-16217198D01*
X5772467Y-16217198D02*
X5791515Y-16207674D01*
X5791515Y-16207674D02*
X5839134Y-16207674D01*
X5839134Y-16207674D02*
X5858182Y-16217198D01*
X5858182Y-16217198D02*
X5867705Y-16226722D01*
X5867705Y-16226722D02*
X5877229Y-16245769D01*
X5877229Y-16245769D02*
X5877229Y-16293388D01*
X5877229Y-16293388D02*
X5867705Y-16312436D01*
X5867705Y-16312436D02*
X5858182Y-16321960D01*
X5858182Y-16321960D02*
X5839134Y-16331484D01*
X5839134Y-16331484D02*
X5791515Y-16331484D01*
X5791515Y-16331484D02*
X5772467Y-16321960D01*
X5772467Y-16321960D02*
X5762943Y-16312436D01*
X6001039Y-16131484D02*
X6020086Y-16131484D01*
X6020086Y-16131484D02*
X6039134Y-16141008D01*
X6039134Y-16141008D02*
X6048658Y-16150531D01*
X6048658Y-16150531D02*
X6058182Y-16169579D01*
X6058182Y-16169579D02*
X6067705Y-16207674D01*
X6067705Y-16207674D02*
X6067705Y-16255293D01*
X6067705Y-16255293D02*
X6058182Y-16293388D01*
X6058182Y-16293388D02*
X6048658Y-16312436D01*
X6048658Y-16312436D02*
X6039134Y-16321960D01*
X6039134Y-16321960D02*
X6020086Y-16331484D01*
X6020086Y-16331484D02*
X6001039Y-16331484D01*
X6001039Y-16331484D02*
X5981991Y-16321960D01*
X5981991Y-16321960D02*
X5972467Y-16312436D01*
X5972467Y-16312436D02*
X5962943Y-16293388D01*
X5962943Y-16293388D02*
X5953420Y-16255293D01*
X5953420Y-16255293D02*
X5953420Y-16207674D01*
X5953420Y-16207674D02*
X5962943Y-16169579D01*
X5962943Y-16169579D02*
X5972467Y-16150531D01*
X5972467Y-16150531D02*
X5981991Y-16141008D01*
X5981991Y-16141008D02*
X6001039Y-16131484D01*
X6153420Y-16331484D02*
X6153420Y-16198150D01*
X6153420Y-16217198D02*
X6162943Y-16207674D01*
X6162943Y-16207674D02*
X6181991Y-16198150D01*
X6181991Y-16198150D02*
X6210563Y-16198150D01*
X6210563Y-16198150D02*
X6229610Y-16207674D01*
X6229610Y-16207674D02*
X6239134Y-16226722D01*
X6239134Y-16226722D02*
X6239134Y-16331484D01*
X6239134Y-16226722D02*
X6248658Y-16207674D01*
X6248658Y-16207674D02*
X6267705Y-16198150D01*
X6267705Y-16198150D02*
X6296277Y-16198150D01*
X6296277Y-16198150D02*
X6315324Y-16207674D01*
X6315324Y-16207674D02*
X6324848Y-16226722D01*
X6324848Y-16226722D02*
X6324848Y-16331484D01*
X6420086Y-16331484D02*
X6420086Y-16198150D01*
X6420086Y-16217198D02*
X6429610Y-16207674D01*
X6429610Y-16207674D02*
X6448658Y-16198150D01*
X6448658Y-16198150D02*
X6477229Y-16198150D01*
X6477229Y-16198150D02*
X6496277Y-16207674D01*
X6496277Y-16207674D02*
X6505801Y-16226722D01*
X6505801Y-16226722D02*
X6505801Y-16331484D01*
X6505801Y-16226722D02*
X6515324Y-16207674D01*
X6515324Y-16207674D02*
X6534372Y-16198150D01*
X6534372Y-16198150D02*
X6562943Y-16198150D01*
X6562943Y-16198150D02*
X6581991Y-16207674D01*
X6581991Y-16207674D02*
X6591515Y-16226722D01*
X6591515Y-16226722D02*
X6591515Y-16331484D01*
X6981991Y-16121960D02*
X6810563Y-16379103D01*
X7239134Y-16131484D02*
X7258182Y-16131484D01*
X7258182Y-16131484D02*
X7277229Y-16141008D01*
X7277229Y-16141008D02*
X7286753Y-16150531D01*
X7286753Y-16150531D02*
X7296277Y-16169579D01*
X7296277Y-16169579D02*
X7305801Y-16207674D01*
X7305801Y-16207674D02*
X7305801Y-16255293D01*
X7305801Y-16255293D02*
X7296277Y-16293388D01*
X7296277Y-16293388D02*
X7286753Y-16312436D01*
X7286753Y-16312436D02*
X7277229Y-16321960D01*
X7277229Y-16321960D02*
X7258182Y-16331484D01*
X7258182Y-16331484D02*
X7239134Y-16331484D01*
X7239134Y-16331484D02*
X7220086Y-16321960D01*
X7220086Y-16321960D02*
X7210563Y-16312436D01*
X7210563Y-16312436D02*
X7201039Y-16293388D01*
X7201039Y-16293388D02*
X7191515Y-16255293D01*
X7191515Y-16255293D02*
X7191515Y-16207674D01*
X7191515Y-16207674D02*
X7201039Y-16169579D01*
X7201039Y-16169579D02*
X7210563Y-16150531D01*
X7210563Y-16150531D02*
X7220086Y-16141008D01*
X7220086Y-16141008D02*
X7239134Y-16131484D01*
X7391515Y-16312436D02*
X7401039Y-16321960D01*
X7401039Y-16321960D02*
X7391515Y-16331484D01*
X7391515Y-16331484D02*
X7381991Y-16321960D01*
X7381991Y-16321960D02*
X7391515Y-16312436D01*
X7391515Y-16312436D02*
X7391515Y-16331484D01*
X7524848Y-16131484D02*
X7543896Y-16131484D01*
X7543896Y-16131484D02*
X7562944Y-16141008D01*
X7562944Y-16141008D02*
X7572467Y-16150531D01*
X7572467Y-16150531D02*
X7581991Y-16169579D01*
X7581991Y-16169579D02*
X7591515Y-16207674D01*
X7591515Y-16207674D02*
X7591515Y-16255293D01*
X7591515Y-16255293D02*
X7581991Y-16293388D01*
X7581991Y-16293388D02*
X7572467Y-16312436D01*
X7572467Y-16312436D02*
X7562944Y-16321960D01*
X7562944Y-16321960D02*
X7543896Y-16331484D01*
X7543896Y-16331484D02*
X7524848Y-16331484D01*
X7524848Y-16331484D02*
X7505801Y-16321960D01*
X7505801Y-16321960D02*
X7496277Y-16312436D01*
X7496277Y-16312436D02*
X7486753Y-16293388D01*
X7486753Y-16293388D02*
X7477229Y-16255293D01*
X7477229Y-16255293D02*
X7477229Y-16207674D01*
X7477229Y-16207674D02*
X7486753Y-16169579D01*
X7486753Y-16169579D02*
X7496277Y-16150531D01*
X7496277Y-16150531D02*
X7505801Y-16141008D01*
X7505801Y-16141008D02*
X7524848Y-16131484D01*
X7762944Y-16198150D02*
X7762944Y-16331484D01*
X7715325Y-16121960D02*
X7667706Y-16264817D01*
X7667706Y-16264817D02*
X7791515Y-16264817D01*
X7962944Y-16131484D02*
X7867706Y-16131484D01*
X7867706Y-16131484D02*
X7858182Y-16226722D01*
X7858182Y-16226722D02*
X7867706Y-16217198D01*
X7867706Y-16217198D02*
X7886753Y-16207674D01*
X7886753Y-16207674D02*
X7934372Y-16207674D01*
X7934372Y-16207674D02*
X7953420Y-16217198D01*
X7953420Y-16217198D02*
X7962944Y-16226722D01*
X7962944Y-16226722D02*
X7972467Y-16245769D01*
X7972467Y-16245769D02*
X7972467Y-16293388D01*
X7972467Y-16293388D02*
X7962944Y-16312436D01*
X7962944Y-16312436D02*
X7953420Y-16321960D01*
X7953420Y-16321960D02*
X7934372Y-16331484D01*
X7934372Y-16331484D02*
X7886753Y-16331484D01*
X7886753Y-16331484D02*
X7867706Y-16321960D01*
X7867706Y-16321960D02*
X7858182Y-16312436D01*
X8039134Y-16131484D02*
X8162944Y-16131484D01*
X8162944Y-16131484D02*
X8096277Y-16207674D01*
X8096277Y-16207674D02*
X8124848Y-16207674D01*
X8124848Y-16207674D02*
X8143896Y-16217198D01*
X8143896Y-16217198D02*
X8153420Y-16226722D01*
X8153420Y-16226722D02*
X8162944Y-16245769D01*
X8162944Y-16245769D02*
X8162944Y-16293388D01*
X8162944Y-16293388D02*
X8153420Y-16312436D01*
X8153420Y-16312436D02*
X8143896Y-16321960D01*
X8143896Y-16321960D02*
X8124848Y-16331484D01*
X8124848Y-16331484D02*
X8067706Y-16331484D01*
X8067706Y-16331484D02*
X8048658Y-16321960D01*
X8048658Y-16321960D02*
X8039134Y-16312436D01*
X8239134Y-16131484D02*
X8239134Y-16169579D01*
X8315325Y-16131484D02*
X8315325Y-16169579D01*
X8610563Y-16407674D02*
X8601039Y-16398150D01*
X8601039Y-16398150D02*
X8581991Y-16369579D01*
X8581991Y-16369579D02*
X8572468Y-16350531D01*
X8572468Y-16350531D02*
X8562944Y-16321960D01*
X8562944Y-16321960D02*
X8553420Y-16274341D01*
X8553420Y-16274341D02*
X8553420Y-16236246D01*
X8553420Y-16236246D02*
X8562944Y-16188627D01*
X8562944Y-16188627D02*
X8572468Y-16160055D01*
X8572468Y-16160055D02*
X8581991Y-16141008D01*
X8581991Y-16141008D02*
X8601039Y-16112436D01*
X8601039Y-16112436D02*
X8610563Y-16102912D01*
X8677230Y-16150531D02*
X8686753Y-16141008D01*
X8686753Y-16141008D02*
X8705801Y-16131484D01*
X8705801Y-16131484D02*
X8753420Y-16131484D01*
X8753420Y-16131484D02*
X8772468Y-16141008D01*
X8772468Y-16141008D02*
X8781991Y-16150531D01*
X8781991Y-16150531D02*
X8791515Y-16169579D01*
X8791515Y-16169579D02*
X8791515Y-16188627D01*
X8791515Y-16188627D02*
X8781991Y-16217198D01*
X8781991Y-16217198D02*
X8667706Y-16331484D01*
X8667706Y-16331484D02*
X8791515Y-16331484D01*
X9029611Y-16331484D02*
X9029611Y-16131484D01*
X9115325Y-16331484D02*
X9115325Y-16226722D01*
X9115325Y-16226722D02*
X9105801Y-16207674D01*
X9105801Y-16207674D02*
X9086753Y-16198150D01*
X9086753Y-16198150D02*
X9058182Y-16198150D01*
X9058182Y-16198150D02*
X9039134Y-16207674D01*
X9039134Y-16207674D02*
X9029611Y-16217198D01*
X9239134Y-16331484D02*
X9220087Y-16321960D01*
X9220087Y-16321960D02*
X9210563Y-16312436D01*
X9210563Y-16312436D02*
X9201039Y-16293388D01*
X9201039Y-16293388D02*
X9201039Y-16236246D01*
X9201039Y-16236246D02*
X9210563Y-16217198D01*
X9210563Y-16217198D02*
X9220087Y-16207674D01*
X9220087Y-16207674D02*
X9239134Y-16198150D01*
X9239134Y-16198150D02*
X9267706Y-16198150D01*
X9267706Y-16198150D02*
X9286753Y-16207674D01*
X9286753Y-16207674D02*
X9296277Y-16217198D01*
X9296277Y-16217198D02*
X9305801Y-16236246D01*
X9305801Y-16236246D02*
X9305801Y-16293388D01*
X9305801Y-16293388D02*
X9296277Y-16312436D01*
X9296277Y-16312436D02*
X9286753Y-16321960D01*
X9286753Y-16321960D02*
X9267706Y-16331484D01*
X9267706Y-16331484D02*
X9239134Y-16331484D01*
X9420087Y-16331484D02*
X9401039Y-16321960D01*
X9401039Y-16321960D02*
X9391515Y-16302912D01*
X9391515Y-16302912D02*
X9391515Y-16131484D01*
X9572468Y-16321960D02*
X9553420Y-16331484D01*
X9553420Y-16331484D02*
X9515325Y-16331484D01*
X9515325Y-16331484D02*
X9496277Y-16321960D01*
X9496277Y-16321960D02*
X9486753Y-16302912D01*
X9486753Y-16302912D02*
X9486753Y-16226722D01*
X9486753Y-16226722D02*
X9496277Y-16207674D01*
X9496277Y-16207674D02*
X9515325Y-16198150D01*
X9515325Y-16198150D02*
X9553420Y-16198150D01*
X9553420Y-16198150D02*
X9572468Y-16207674D01*
X9572468Y-16207674D02*
X9581992Y-16226722D01*
X9581992Y-16226722D02*
X9581992Y-16245769D01*
X9581992Y-16245769D02*
X9486753Y-16264817D01*
X9658182Y-16321960D02*
X9677230Y-16331484D01*
X9677230Y-16331484D02*
X9715325Y-16331484D01*
X9715325Y-16331484D02*
X9734373Y-16321960D01*
X9734373Y-16321960D02*
X9743896Y-16302912D01*
X9743896Y-16302912D02*
X9743896Y-16293388D01*
X9743896Y-16293388D02*
X9734373Y-16274341D01*
X9734373Y-16274341D02*
X9715325Y-16264817D01*
X9715325Y-16264817D02*
X9686753Y-16264817D01*
X9686753Y-16264817D02*
X9667706Y-16255293D01*
X9667706Y-16255293D02*
X9658182Y-16236246D01*
X9658182Y-16236246D02*
X9658182Y-16226722D01*
X9658182Y-16226722D02*
X9667706Y-16207674D01*
X9667706Y-16207674D02*
X9686753Y-16198150D01*
X9686753Y-16198150D02*
X9715325Y-16198150D01*
X9715325Y-16198150D02*
X9734373Y-16207674D01*
X9810563Y-16407674D02*
X9820087Y-16398150D01*
X9820087Y-16398150D02*
X9839134Y-16369579D01*
X9839134Y-16369579D02*
X9848658Y-16350531D01*
X9848658Y-16350531D02*
X9858182Y-16321960D01*
X9858182Y-16321960D02*
X9867706Y-16274341D01*
X9867706Y-16274341D02*
X9867706Y-16236246D01*
X9867706Y-16236246D02*
X9858182Y-16188627D01*
X9858182Y-16188627D02*
X9848658Y-16160055D01*
X9848658Y-16160055D02*
X9839134Y-16141008D01*
X9839134Y-16141008D02*
X9820087Y-16112436D01*
X9820087Y-16112436D02*
X9810563Y-16102912D01*
X4835500Y-16404000D02*
X5035500Y-16604000D01*
X5035500Y-16404000D02*
X4835500Y-16604000D01*
X4935500Y-16604000D02*
X5035500Y-16504000D01*
X4935500Y-16404000D01*
X4835500Y-16504000D01*
X4935500Y-16604000D01*
X5286753Y-16414531D02*
X5296277Y-16405008D01*
X5296277Y-16405008D02*
X5315324Y-16395484D01*
X5315324Y-16395484D02*
X5362944Y-16395484D01*
X5362944Y-16395484D02*
X5381991Y-16405008D01*
X5381991Y-16405008D02*
X5391515Y-16414531D01*
X5391515Y-16414531D02*
X5401039Y-16433579D01*
X5401039Y-16433579D02*
X5401039Y-16452627D01*
X5401039Y-16452627D02*
X5391515Y-16481198D01*
X5391515Y-16481198D02*
X5277229Y-16595484D01*
X5277229Y-16595484D02*
X5401039Y-16595484D01*
X5486753Y-16576436D02*
X5496277Y-16585960D01*
X5496277Y-16585960D02*
X5486753Y-16595484D01*
X5486753Y-16595484D02*
X5477229Y-16585960D01*
X5477229Y-16585960D02*
X5486753Y-16576436D01*
X5486753Y-16576436D02*
X5486753Y-16595484D01*
X5620086Y-16395484D02*
X5639134Y-16395484D01*
X5639134Y-16395484D02*
X5658182Y-16405008D01*
X5658182Y-16405008D02*
X5667705Y-16414531D01*
X5667705Y-16414531D02*
X5677229Y-16433579D01*
X5677229Y-16433579D02*
X5686753Y-16471674D01*
X5686753Y-16471674D02*
X5686753Y-16519293D01*
X5686753Y-16519293D02*
X5677229Y-16557388D01*
X5677229Y-16557388D02*
X5667705Y-16576436D01*
X5667705Y-16576436D02*
X5658182Y-16585960D01*
X5658182Y-16585960D02*
X5639134Y-16595484D01*
X5639134Y-16595484D02*
X5620086Y-16595484D01*
X5620086Y-16595484D02*
X5601039Y-16585960D01*
X5601039Y-16585960D02*
X5591515Y-16576436D01*
X5591515Y-16576436D02*
X5581991Y-16557388D01*
X5581991Y-16557388D02*
X5572467Y-16519293D01*
X5572467Y-16519293D02*
X5572467Y-16471674D01*
X5572467Y-16471674D02*
X5581991Y-16433579D01*
X5581991Y-16433579D02*
X5591515Y-16414531D01*
X5591515Y-16414531D02*
X5601039Y-16405008D01*
X5601039Y-16405008D02*
X5620086Y-16395484D01*
X5810562Y-16395484D02*
X5829610Y-16395484D01*
X5829610Y-16395484D02*
X5848658Y-16405008D01*
X5848658Y-16405008D02*
X5858182Y-16414531D01*
X5858182Y-16414531D02*
X5867705Y-16433579D01*
X5867705Y-16433579D02*
X5877229Y-16471674D01*
X5877229Y-16471674D02*
X5877229Y-16519293D01*
X5877229Y-16519293D02*
X5867705Y-16557388D01*
X5867705Y-16557388D02*
X5858182Y-16576436D01*
X5858182Y-16576436D02*
X5848658Y-16585960D01*
X5848658Y-16585960D02*
X5829610Y-16595484D01*
X5829610Y-16595484D02*
X5810562Y-16595484D01*
X5810562Y-16595484D02*
X5791515Y-16585960D01*
X5791515Y-16585960D02*
X5781991Y-16576436D01*
X5781991Y-16576436D02*
X5772467Y-16557388D01*
X5772467Y-16557388D02*
X5762943Y-16519293D01*
X5762943Y-16519293D02*
X5762943Y-16471674D01*
X5762943Y-16471674D02*
X5772467Y-16433579D01*
X5772467Y-16433579D02*
X5781991Y-16414531D01*
X5781991Y-16414531D02*
X5791515Y-16405008D01*
X5791515Y-16405008D02*
X5810562Y-16395484D01*
X6001039Y-16395484D02*
X6020086Y-16395484D01*
X6020086Y-16395484D02*
X6039134Y-16405008D01*
X6039134Y-16405008D02*
X6048658Y-16414531D01*
X6048658Y-16414531D02*
X6058182Y-16433579D01*
X6058182Y-16433579D02*
X6067705Y-16471674D01*
X6067705Y-16471674D02*
X6067705Y-16519293D01*
X6067705Y-16519293D02*
X6058182Y-16557388D01*
X6058182Y-16557388D02*
X6048658Y-16576436D01*
X6048658Y-16576436D02*
X6039134Y-16585960D01*
X6039134Y-16585960D02*
X6020086Y-16595484D01*
X6020086Y-16595484D02*
X6001039Y-16595484D01*
X6001039Y-16595484D02*
X5981991Y-16585960D01*
X5981991Y-16585960D02*
X5972467Y-16576436D01*
X5972467Y-16576436D02*
X5962943Y-16557388D01*
X5962943Y-16557388D02*
X5953420Y-16519293D01*
X5953420Y-16519293D02*
X5953420Y-16471674D01*
X5953420Y-16471674D02*
X5962943Y-16433579D01*
X5962943Y-16433579D02*
X5972467Y-16414531D01*
X5972467Y-16414531D02*
X5981991Y-16405008D01*
X5981991Y-16405008D02*
X6001039Y-16395484D01*
X6153420Y-16595484D02*
X6153420Y-16462150D01*
X6153420Y-16481198D02*
X6162943Y-16471674D01*
X6162943Y-16471674D02*
X6181991Y-16462150D01*
X6181991Y-16462150D02*
X6210563Y-16462150D01*
X6210563Y-16462150D02*
X6229610Y-16471674D01*
X6229610Y-16471674D02*
X6239134Y-16490722D01*
X6239134Y-16490722D02*
X6239134Y-16595484D01*
X6239134Y-16490722D02*
X6248658Y-16471674D01*
X6248658Y-16471674D02*
X6267705Y-16462150D01*
X6267705Y-16462150D02*
X6296277Y-16462150D01*
X6296277Y-16462150D02*
X6315324Y-16471674D01*
X6315324Y-16471674D02*
X6324848Y-16490722D01*
X6324848Y-16490722D02*
X6324848Y-16595484D01*
X6420086Y-16595484D02*
X6420086Y-16462150D01*
X6420086Y-16481198D02*
X6429610Y-16471674D01*
X6429610Y-16471674D02*
X6448658Y-16462150D01*
X6448658Y-16462150D02*
X6477229Y-16462150D01*
X6477229Y-16462150D02*
X6496277Y-16471674D01*
X6496277Y-16471674D02*
X6505801Y-16490722D01*
X6505801Y-16490722D02*
X6505801Y-16595484D01*
X6505801Y-16490722D02*
X6515324Y-16471674D01*
X6515324Y-16471674D02*
X6534372Y-16462150D01*
X6534372Y-16462150D02*
X6562943Y-16462150D01*
X6562943Y-16462150D02*
X6581991Y-16471674D01*
X6581991Y-16471674D02*
X6591515Y-16490722D01*
X6591515Y-16490722D02*
X6591515Y-16595484D01*
X6981991Y-16385960D02*
X6810563Y-16643103D01*
X7239134Y-16395484D02*
X7258182Y-16395484D01*
X7258182Y-16395484D02*
X7277229Y-16405008D01*
X7277229Y-16405008D02*
X7286753Y-16414531D01*
X7286753Y-16414531D02*
X7296277Y-16433579D01*
X7296277Y-16433579D02*
X7305801Y-16471674D01*
X7305801Y-16471674D02*
X7305801Y-16519293D01*
X7305801Y-16519293D02*
X7296277Y-16557388D01*
X7296277Y-16557388D02*
X7286753Y-16576436D01*
X7286753Y-16576436D02*
X7277229Y-16585960D01*
X7277229Y-16585960D02*
X7258182Y-16595484D01*
X7258182Y-16595484D02*
X7239134Y-16595484D01*
X7239134Y-16595484D02*
X7220086Y-16585960D01*
X7220086Y-16585960D02*
X7210563Y-16576436D01*
X7210563Y-16576436D02*
X7201039Y-16557388D01*
X7201039Y-16557388D02*
X7191515Y-16519293D01*
X7191515Y-16519293D02*
X7191515Y-16471674D01*
X7191515Y-16471674D02*
X7201039Y-16433579D01*
X7201039Y-16433579D02*
X7210563Y-16414531D01*
X7210563Y-16414531D02*
X7220086Y-16405008D01*
X7220086Y-16405008D02*
X7239134Y-16395484D01*
X7391515Y-16576436D02*
X7401039Y-16585960D01*
X7401039Y-16585960D02*
X7391515Y-16595484D01*
X7391515Y-16595484D02*
X7381991Y-16585960D01*
X7381991Y-16585960D02*
X7391515Y-16576436D01*
X7391515Y-16576436D02*
X7391515Y-16595484D01*
X7524848Y-16395484D02*
X7543896Y-16395484D01*
X7543896Y-16395484D02*
X7562944Y-16405008D01*
X7562944Y-16405008D02*
X7572467Y-16414531D01*
X7572467Y-16414531D02*
X7581991Y-16433579D01*
X7581991Y-16433579D02*
X7591515Y-16471674D01*
X7591515Y-16471674D02*
X7591515Y-16519293D01*
X7591515Y-16519293D02*
X7581991Y-16557388D01*
X7581991Y-16557388D02*
X7572467Y-16576436D01*
X7572467Y-16576436D02*
X7562944Y-16585960D01*
X7562944Y-16585960D02*
X7543896Y-16595484D01*
X7543896Y-16595484D02*
X7524848Y-16595484D01*
X7524848Y-16595484D02*
X7505801Y-16585960D01*
X7505801Y-16585960D02*
X7496277Y-16576436D01*
X7496277Y-16576436D02*
X7486753Y-16557388D01*
X7486753Y-16557388D02*
X7477229Y-16519293D01*
X7477229Y-16519293D02*
X7477229Y-16471674D01*
X7477229Y-16471674D02*
X7486753Y-16433579D01*
X7486753Y-16433579D02*
X7496277Y-16414531D01*
X7496277Y-16414531D02*
X7505801Y-16405008D01*
X7505801Y-16405008D02*
X7524848Y-16395484D01*
X7658182Y-16395484D02*
X7791515Y-16395484D01*
X7791515Y-16395484D02*
X7705801Y-16595484D01*
X7896277Y-16481198D02*
X7877229Y-16471674D01*
X7877229Y-16471674D02*
X7867706Y-16462150D01*
X7867706Y-16462150D02*
X7858182Y-16443103D01*
X7858182Y-16443103D02*
X7858182Y-16433579D01*
X7858182Y-16433579D02*
X7867706Y-16414531D01*
X7867706Y-16414531D02*
X7877229Y-16405008D01*
X7877229Y-16405008D02*
X7896277Y-16395484D01*
X7896277Y-16395484D02*
X7934372Y-16395484D01*
X7934372Y-16395484D02*
X7953420Y-16405008D01*
X7953420Y-16405008D02*
X7962944Y-16414531D01*
X7962944Y-16414531D02*
X7972467Y-16433579D01*
X7972467Y-16433579D02*
X7972467Y-16443103D01*
X7972467Y-16443103D02*
X7962944Y-16462150D01*
X7962944Y-16462150D02*
X7953420Y-16471674D01*
X7953420Y-16471674D02*
X7934372Y-16481198D01*
X7934372Y-16481198D02*
X7896277Y-16481198D01*
X7896277Y-16481198D02*
X7877229Y-16490722D01*
X7877229Y-16490722D02*
X7867706Y-16500246D01*
X7867706Y-16500246D02*
X7858182Y-16519293D01*
X7858182Y-16519293D02*
X7858182Y-16557388D01*
X7858182Y-16557388D02*
X7867706Y-16576436D01*
X7867706Y-16576436D02*
X7877229Y-16585960D01*
X7877229Y-16585960D02*
X7896277Y-16595484D01*
X7896277Y-16595484D02*
X7934372Y-16595484D01*
X7934372Y-16595484D02*
X7953420Y-16585960D01*
X7953420Y-16585960D02*
X7962944Y-16576436D01*
X7962944Y-16576436D02*
X7972467Y-16557388D01*
X7972467Y-16557388D02*
X7972467Y-16519293D01*
X7972467Y-16519293D02*
X7962944Y-16500246D01*
X7962944Y-16500246D02*
X7953420Y-16490722D01*
X7953420Y-16490722D02*
X7934372Y-16481198D01*
X8039134Y-16395484D02*
X8172467Y-16395484D01*
X8172467Y-16395484D02*
X8086753Y-16595484D01*
X8239134Y-16395484D02*
X8239134Y-16433579D01*
X8315325Y-16395484D02*
X8315325Y-16433579D01*
X8610563Y-16671674D02*
X8601039Y-16662150D01*
X8601039Y-16662150D02*
X8581991Y-16633579D01*
X8581991Y-16633579D02*
X8572468Y-16614531D01*
X8572468Y-16614531D02*
X8562944Y-16585960D01*
X8562944Y-16585960D02*
X8553420Y-16538341D01*
X8553420Y-16538341D02*
X8553420Y-16500246D01*
X8553420Y-16500246D02*
X8562944Y-16452627D01*
X8562944Y-16452627D02*
X8572468Y-16424055D01*
X8572468Y-16424055D02*
X8581991Y-16405008D01*
X8581991Y-16405008D02*
X8601039Y-16376436D01*
X8601039Y-16376436D02*
X8610563Y-16366912D01*
X8724849Y-16395484D02*
X8743896Y-16395484D01*
X8743896Y-16395484D02*
X8762944Y-16405008D01*
X8762944Y-16405008D02*
X8772468Y-16414531D01*
X8772468Y-16414531D02*
X8781991Y-16433579D01*
X8781991Y-16433579D02*
X8791515Y-16471674D01*
X8791515Y-16471674D02*
X8791515Y-16519293D01*
X8791515Y-16519293D02*
X8781991Y-16557388D01*
X8781991Y-16557388D02*
X8772468Y-16576436D01*
X8772468Y-16576436D02*
X8762944Y-16585960D01*
X8762944Y-16585960D02*
X8743896Y-16595484D01*
X8743896Y-16595484D02*
X8724849Y-16595484D01*
X8724849Y-16595484D02*
X8705801Y-16585960D01*
X8705801Y-16585960D02*
X8696277Y-16576436D01*
X8696277Y-16576436D02*
X8686753Y-16557388D01*
X8686753Y-16557388D02*
X8677230Y-16519293D01*
X8677230Y-16519293D02*
X8677230Y-16471674D01*
X8677230Y-16471674D02*
X8686753Y-16433579D01*
X8686753Y-16433579D02*
X8696277Y-16414531D01*
X8696277Y-16414531D02*
X8705801Y-16405008D01*
X8705801Y-16405008D02*
X8724849Y-16395484D01*
X9029611Y-16595484D02*
X9029611Y-16395484D01*
X9115325Y-16595484D02*
X9115325Y-16490722D01*
X9115325Y-16490722D02*
X9105801Y-16471674D01*
X9105801Y-16471674D02*
X9086753Y-16462150D01*
X9086753Y-16462150D02*
X9058182Y-16462150D01*
X9058182Y-16462150D02*
X9039134Y-16471674D01*
X9039134Y-16471674D02*
X9029611Y-16481198D01*
X9239134Y-16595484D02*
X9220087Y-16585960D01*
X9220087Y-16585960D02*
X9210563Y-16576436D01*
X9210563Y-16576436D02*
X9201039Y-16557388D01*
X9201039Y-16557388D02*
X9201039Y-16500246D01*
X9201039Y-16500246D02*
X9210563Y-16481198D01*
X9210563Y-16481198D02*
X9220087Y-16471674D01*
X9220087Y-16471674D02*
X9239134Y-16462150D01*
X9239134Y-16462150D02*
X9267706Y-16462150D01*
X9267706Y-16462150D02*
X9286753Y-16471674D01*
X9286753Y-16471674D02*
X9296277Y-16481198D01*
X9296277Y-16481198D02*
X9305801Y-16500246D01*
X9305801Y-16500246D02*
X9305801Y-16557388D01*
X9305801Y-16557388D02*
X9296277Y-16576436D01*
X9296277Y-16576436D02*
X9286753Y-16585960D01*
X9286753Y-16585960D02*
X9267706Y-16595484D01*
X9267706Y-16595484D02*
X9239134Y-16595484D01*
X9420087Y-16595484D02*
X9401039Y-16585960D01*
X9401039Y-16585960D02*
X9391515Y-16566912D01*
X9391515Y-16566912D02*
X9391515Y-16395484D01*
X9572468Y-16585960D02*
X9553420Y-16595484D01*
X9553420Y-16595484D02*
X9515325Y-16595484D01*
X9515325Y-16595484D02*
X9496277Y-16585960D01*
X9496277Y-16585960D02*
X9486753Y-16566912D01*
X9486753Y-16566912D02*
X9486753Y-16490722D01*
X9486753Y-16490722D02*
X9496277Y-16471674D01*
X9496277Y-16471674D02*
X9515325Y-16462150D01*
X9515325Y-16462150D02*
X9553420Y-16462150D01*
X9553420Y-16462150D02*
X9572468Y-16471674D01*
X9572468Y-16471674D02*
X9581992Y-16490722D01*
X9581992Y-16490722D02*
X9581992Y-16509769D01*
X9581992Y-16509769D02*
X9486753Y-16528817D01*
X9658182Y-16585960D02*
X9677230Y-16595484D01*
X9677230Y-16595484D02*
X9715325Y-16595484D01*
X9715325Y-16595484D02*
X9734373Y-16585960D01*
X9734373Y-16585960D02*
X9743896Y-16566912D01*
X9743896Y-16566912D02*
X9743896Y-16557388D01*
X9743896Y-16557388D02*
X9734373Y-16538341D01*
X9734373Y-16538341D02*
X9715325Y-16528817D01*
X9715325Y-16528817D02*
X9686753Y-16528817D01*
X9686753Y-16528817D02*
X9667706Y-16519293D01*
X9667706Y-16519293D02*
X9658182Y-16500246D01*
X9658182Y-16500246D02*
X9658182Y-16490722D01*
X9658182Y-16490722D02*
X9667706Y-16471674D01*
X9667706Y-16471674D02*
X9686753Y-16462150D01*
X9686753Y-16462150D02*
X9715325Y-16462150D01*
X9715325Y-16462150D02*
X9734373Y-16471674D01*
X9981992Y-16519293D02*
X10134373Y-16519293D01*
X10058182Y-16595484D02*
X10058182Y-16443103D01*
X10467706Y-16462150D02*
X10467706Y-16595484D01*
X10420087Y-16385960D02*
X10372468Y-16528817D01*
X10372468Y-16528817D02*
X10496277Y-16528817D01*
X10715325Y-16585960D02*
X10734373Y-16595484D01*
X10734373Y-16595484D02*
X10772468Y-16595484D01*
X10772468Y-16595484D02*
X10791516Y-16585960D01*
X10791516Y-16585960D02*
X10801039Y-16566912D01*
X10801039Y-16566912D02*
X10801039Y-16557388D01*
X10801039Y-16557388D02*
X10791516Y-16538341D01*
X10791516Y-16538341D02*
X10772468Y-16528817D01*
X10772468Y-16528817D02*
X10743896Y-16528817D01*
X10743896Y-16528817D02*
X10724849Y-16519293D01*
X10724849Y-16519293D02*
X10715325Y-16500246D01*
X10715325Y-16500246D02*
X10715325Y-16490722D01*
X10715325Y-16490722D02*
X10724849Y-16471674D01*
X10724849Y-16471674D02*
X10743896Y-16462150D01*
X10743896Y-16462150D02*
X10772468Y-16462150D01*
X10772468Y-16462150D02*
X10791516Y-16471674D01*
X10915325Y-16595484D02*
X10896277Y-16585960D01*
X10896277Y-16585960D02*
X10886754Y-16566912D01*
X10886754Y-16566912D02*
X10886754Y-16395484D01*
X11020087Y-16595484D02*
X11001039Y-16585960D01*
X11001039Y-16585960D02*
X10991516Y-16576436D01*
X10991516Y-16576436D02*
X10981992Y-16557388D01*
X10981992Y-16557388D02*
X10981992Y-16500246D01*
X10981992Y-16500246D02*
X10991516Y-16481198D01*
X10991516Y-16481198D02*
X11001039Y-16471674D01*
X11001039Y-16471674D02*
X11020087Y-16462150D01*
X11020087Y-16462150D02*
X11048658Y-16462150D01*
X11048658Y-16462150D02*
X11067706Y-16471674D01*
X11067706Y-16471674D02*
X11077230Y-16481198D01*
X11077230Y-16481198D02*
X11086754Y-16500246D01*
X11086754Y-16500246D02*
X11086754Y-16557388D01*
X11086754Y-16557388D02*
X11077230Y-16576436D01*
X11077230Y-16576436D02*
X11067706Y-16585960D01*
X11067706Y-16585960D02*
X11048658Y-16595484D01*
X11048658Y-16595484D02*
X11020087Y-16595484D01*
X11143897Y-16462150D02*
X11220087Y-16462150D01*
X11172468Y-16395484D02*
X11172468Y-16566912D01*
X11172468Y-16566912D02*
X11181992Y-16585960D01*
X11181992Y-16585960D02*
X11201039Y-16595484D01*
X11201039Y-16595484D02*
X11220087Y-16595484D01*
X11277230Y-16585960D02*
X11296277Y-16595484D01*
X11296277Y-16595484D02*
X11334373Y-16595484D01*
X11334373Y-16595484D02*
X11353420Y-16585960D01*
X11353420Y-16585960D02*
X11362944Y-16566912D01*
X11362944Y-16566912D02*
X11362944Y-16557388D01*
X11362944Y-16557388D02*
X11353420Y-16538341D01*
X11353420Y-16538341D02*
X11334373Y-16528817D01*
X11334373Y-16528817D02*
X11305801Y-16528817D01*
X11305801Y-16528817D02*
X11286754Y-16519293D01*
X11286754Y-16519293D02*
X11277230Y-16500246D01*
X11277230Y-16500246D02*
X11277230Y-16490722D01*
X11277230Y-16490722D02*
X11286754Y-16471674D01*
X11286754Y-16471674D02*
X11305801Y-16462150D01*
X11305801Y-16462150D02*
X11334373Y-16462150D01*
X11334373Y-16462150D02*
X11353420Y-16471674D01*
X11429611Y-16671674D02*
X11439135Y-16662150D01*
X11439135Y-16662150D02*
X11458182Y-16633579D01*
X11458182Y-16633579D02*
X11467706Y-16614531D01*
X11467706Y-16614531D02*
X11477230Y-16585960D01*
X11477230Y-16585960D02*
X11486754Y-16538341D01*
X11486754Y-16538341D02*
X11486754Y-16500246D01*
X11486754Y-16500246D02*
X11477230Y-16452627D01*
X11477230Y-16452627D02*
X11467706Y-16424055D01*
X11467706Y-16424055D02*
X11458182Y-16405008D01*
X11458182Y-16405008D02*
X11439135Y-16376436D01*
X11439135Y-16376436D02*
X11429611Y-16366912D01*
M02*
