M48
; DRILL file {KiCad 9.0.7-1.fc42} date 2026-04-01T23:48:07+0530
; FORMAT={-:-/ absolute / metric / decimal}
; #@! TF.CreationDate,2026-04-01T23:48:07+05:30
; #@! TF.GenerationSoftware,Kicad,Pcbnew,9.0.7-1.fc42
; #@! TF.FileFunction,Plated,1,2,PTH
FMAT,2
METRIC
; #@! TA.AperFunction,Plated,PTH,ViaDrill
T1C0.300
; #@! TA.AperFunction,Plated,PTH,ComponentDrill
T2C0.300
; #@! TA.AperFunction,Plated,PTH,ComponentDrill
T3C0.600
; #@! TA.AperFunction,Plated,PTH,ComponentDrill
T4C0.700
; #@! TA.AperFunction,Plated,PTH,ComponentDrill
T5C0.800
; #@! TA.AperFunction,Plated,PTH,ComponentDrill
T6C1.000
; #@! TA.AperFunction,Plated,PTH,ComponentDrill
T7C1.100
; #@! TA.AperFunction,Plated,PTH,ComponentDrill
T8C1.150
; #@! TA.AperFunction,Plated,PTH,ComponentDrill
T9C2.000
%
G90
G05
T1
X54.25Y-50.32
X54.4Y-69.33
X55.375Y-114.468
X55.58Y-89.68
X55.675Y-128.775
X55.732Y-121.1
X55.75Y-103.69
X55.8Y-86.31
X55.87Y-123.1
X55.9Y-107.23
X57.02Y-79.79
X57.21Y-96.88
X57.7Y-131.75
X58.42Y-118.64
X58.85Y-105.7
X58.85Y-126.95
X59.87Y-113.65
X62.15Y-113.02
X62.361Y-62.675
X62.361Y-62.675
X62.46Y-69.55
X62.46Y-80.21
X62.5Y-128.825
X62.61Y-96.92
X63.34Y-116.76
X65.06Y-51.16
X66.81Y-102.22
X67.0Y-55.6
X69.64Y-62.03
X70.88Y-88.31
X71.12Y-126.74
X71.33Y-120.05
X72.797Y-76.42
X73.06Y-91.297
X73.58Y-77.68
X73.63Y-80.1
X73.64Y-97.69
X73.66Y-92.68
X74.28Y-103.63
X74.75Y-124.01
X75.54Y-60.4
X76.37Y-60.6
X77.67Y-89.72
X79.1Y-49.28
X80.43Y-57.27
X81.03Y-63.41
X81.404Y-82.915
X81.404Y-101.965
X81.404Y-121.015
X83.39Y-69.53
X84.28Y-69.21
X84.84Y-68.3
X86.25Y-88.98
X86.52Y-51.177
X86.95Y-47.62
X88.96Y-52.915
X90.523Y-60.934
X90.934Y-59.674
X91.0Y-58.76
X91.075Y-135.8
X91.43Y-55.24
X91.98Y-112.94
X92.53Y-57.14
X93.52Y-44.68
X93.57Y-50.25
X93.62Y-52.69
X93.689Y-59.643
X93.84Y-63.52
X94.388Y-58.23
X95.45Y-58.53
X96.01Y-44.68
X96.231Y-59.446
X96.646Y-54.954
X97.01Y-54.46
X97.229Y-60.145
X97.23Y-72.66
X97.388Y-58.43
X97.526Y-62.348
X97.57Y-67.81
X98.16Y-89.57
X98.17Y-58.6
X98.29Y-44.67
X98.36Y-63.97
X98.542Y-66.627
X98.56Y-50.24
X99.027Y-60.305
X99.225Y-58.7
X99.41Y-66.68
X99.43Y-72.36
X99.677Y-58.041
X100.454Y-82.915
X100.454Y-101.965
X100.58Y-53.14
X101.842Y-52.962
X102.48Y-59.89
X102.56Y-58.39
X103.12Y-50.72
X103.76Y-61.645
X104.37Y-49.4
X104.375Y-135.8
X104.5Y-45.5
X104.87Y-55.94
X104.949Y-61.303
X106.75Y-89.62
X111.43Y-51.52
X112.13Y-112.94
X112.98Y-67.65
X115.49Y-90.69
X116.625Y-135.35
X117.77Y-68.05
X119.35Y-133.0
X121.65Y-72.94
X121.85Y-63.41
X122.47Y-47.7
X122.59Y-48.88
X122.74Y-49.68
X122.76Y-50.32
X124.01Y-51.21
X124.37Y-68.2
X127.75Y-73.19
X128.94Y-76.77
X129.53Y-96.09
X129.84Y-115.06
X130.225Y-128.6
X133.96Y-73.4
X137.65Y-123.7
X137.99Y-87.87
X138.19Y-95.13
X138.25Y-112.725
X138.41Y-104.58
X139.25Y-71.28
X188.51Y-105.26
X188.97Y-109.19
X189.03Y-115.5
X189.05Y-97.7
X189.08Y-112.4
X189.18Y-101.71
X189.3Y-83.39
X189.32Y-87.21
X189.42Y-78.35
X189.47Y-90.22
X189.54Y-117.83
X189.61Y-93.78
X191.25Y-116.07
X191.44Y-102.9
X192.24Y-77.28
X193.6Y-92.13
X193.65Y-94.74
X194.59Y-96.36
X195.09Y-103.56
X195.122Y-102.62
X195.27Y-96.98
X195.54Y-118.39
X195.911Y-101.428
X196.09Y-81.27
X196.09Y-85.17
X196.27Y-97.031
X196.614Y-102.396
X197.08Y-77.7
X198.37Y-103.66
X198.43Y-97.43
X199.52Y-105.93
X200.287Y-100.32
X200.321Y-101.196
X200.37Y-108.8
X200.39Y-104.45
X200.48Y-102.39
X200.66Y-106.01
X201.19Y-77.55
X202.47Y-108.79
X202.735Y-110.66
X202.96Y-97.35
X203.22Y-100.13
X203.98Y-81.32
X204.03Y-83.13
X204.09Y-104.21
X204.21Y-100.46
X204.23Y-107.862
X204.94Y-87.96
X205.2Y-110.91
X206.04Y-104.37
X208.0Y-84.86
X209.51Y-94.03
X209.63Y-109.26
X209.82Y-113.79
X209.82Y-117.08
X209.88Y-100.83
X210.28Y-88.65
T2
X61.85Y-108.26
X61.85Y-109.46
X61.85Y-110.66
X63.25Y-108.26
X63.25Y-109.46
X63.25Y-110.66
T3
X67.675Y-53.7
X68.925Y-53.7
X70.175Y-53.7
X101.86Y-71.705
X101.86Y-72.955
X191.655Y-112.61
X191.655Y-113.86
T6
X55.27Y-77.35
X55.27Y-79.85
X55.27Y-82.35
X55.32Y-94.45
X55.32Y-96.95
X55.32Y-99.45
X61.71Y-131.3
X64.25Y-131.3
X66.79Y-131.3
X69.33Y-131.3
X69.77Y-77.35
X69.77Y-82.35
X69.82Y-94.45
X69.82Y-99.45
X110.17Y-53.91
X110.17Y-56.45
X110.17Y-58.99
X110.17Y-61.53
X111.07Y-47.92
X112.71Y-53.91
X112.71Y-56.45
X112.71Y-58.99
X112.71Y-61.53
X113.61Y-47.92
X116.15Y-47.92
X118.69Y-47.92
X191.7Y-79.26
X191.7Y-81.8
X191.7Y-84.34
X191.7Y-86.88
X195.71Y-114.31
X195.81Y-92.34
X195.81Y-94.88
X198.21Y-114.31
X198.35Y-92.34
X198.35Y-94.88
X200.21Y-114.31
X200.89Y-92.34
X200.89Y-94.88
X202.71Y-114.31
X203.43Y-92.34
X203.43Y-94.88
T7
X57.02Y-57.73
X57.02Y-60.73
X57.02Y-63.73
X57.32Y-54.48
X57.32Y-66.98
T8
X70.49Y-114.81
X75.09Y-114.81
T4
G00X91.72Y-44.633
M15
G01X91.72Y-43.932
M16
G05
G00X91.72Y-48.962
M15
G01X91.72Y-47.962
M16
G05
G00X100.36Y-44.633
M15
G01X100.36Y-43.932
M16
G05
G00X100.36Y-48.962
M15
G01X100.36Y-47.962
M16
G05
T5
G00X193.41Y-115.76
M15
G01X193.41Y-117.16
M16
G05
G00X205.01Y-115.76
M15
G01X205.01Y-117.16
M16
G05
T9
G00X62.52Y-74.25
M15
G01X63.02Y-74.25
M16
G05
G00X62.52Y-85.45
M15
G01X63.02Y-85.45
M16
G05
G00X62.57Y-91.35
M15
G01X63.07Y-91.35
M16
G05
G00X62.57Y-102.55
M15
G01X63.07Y-102.55
M16
G05
M30
