%TF.GenerationSoftware,KiCad,Pcbnew,9.0.8-1.fc43*%
%TF.CreationDate,2026-04-06T14:28:34+05:30*%
%TF.ProjectId,macropad,6d616372-6f70-4616-942e-6b696361645f,rev?*%
%TF.SameCoordinates,Original*%
%TF.FileFunction,Legend,Top*%
%TF.FilePolarity,Positive*%
%FSLAX46Y46*%
G04 Gerber Fmt 4.6, Leading zero omitted, Abs format (unit mm)*
G04 Created by KiCad (PCBNEW 9.0.8-1.fc43) date 2026-04-06 14:28:34*
%MOMM*%
%LPD*%
G01*
G04 APERTURE LIST*
%ADD10C,0.150000*%
%ADD11C,0.120000*%
%ADD12C,0.254000*%
%ADD13C,0.100000*%
%ADD14C,0.200000*%
%ADD15C,0.127000*%
G04 APERTURE END LIST*
D10*
X76307142Y-79214819D02*
X75973809Y-78738628D01*
X75735714Y-79214819D02*
X75735714Y-78214819D01*
X75735714Y-78214819D02*
X76116666Y-78214819D01*
X76116666Y-78214819D02*
X76211904Y-78262438D01*
X76211904Y-78262438D02*
X76259523Y-78310057D01*
X76259523Y-78310057D02*
X76307142Y-78405295D01*
X76307142Y-78405295D02*
X76307142Y-78548152D01*
X76307142Y-78548152D02*
X76259523Y-78643390D01*
X76259523Y-78643390D02*
X76211904Y-78691009D01*
X76211904Y-78691009D02*
X76116666Y-78738628D01*
X76116666Y-78738628D02*
X75735714Y-78738628D01*
X77259523Y-79214819D02*
X76688095Y-79214819D01*
X76973809Y-79214819D02*
X76973809Y-78214819D01*
X76973809Y-78214819D02*
X76878571Y-78357676D01*
X76878571Y-78357676D02*
X76783333Y-78452914D01*
X76783333Y-78452914D02*
X76688095Y-78500533D01*
X78116666Y-78548152D02*
X78116666Y-79214819D01*
X77878571Y-78167200D02*
X77640476Y-78881485D01*
X77640476Y-78881485D02*
X78259523Y-78881485D01*
X91414819Y-52652857D02*
X90938628Y-52986190D01*
X91414819Y-53224285D02*
X90414819Y-53224285D01*
X90414819Y-53224285D02*
X90414819Y-52843333D01*
X90414819Y-52843333D02*
X90462438Y-52748095D01*
X90462438Y-52748095D02*
X90510057Y-52700476D01*
X90510057Y-52700476D02*
X90605295Y-52652857D01*
X90605295Y-52652857D02*
X90748152Y-52652857D01*
X90748152Y-52652857D02*
X90843390Y-52700476D01*
X90843390Y-52700476D02*
X90891009Y-52748095D01*
X90891009Y-52748095D02*
X90938628Y-52843333D01*
X90938628Y-52843333D02*
X90938628Y-53224285D01*
X90510057Y-52271904D02*
X90462438Y-52224285D01*
X90462438Y-52224285D02*
X90414819Y-52129047D01*
X90414819Y-52129047D02*
X90414819Y-51890952D01*
X90414819Y-51890952D02*
X90462438Y-51795714D01*
X90462438Y-51795714D02*
X90510057Y-51748095D01*
X90510057Y-51748095D02*
X90605295Y-51700476D01*
X90605295Y-51700476D02*
X90700533Y-51700476D01*
X90700533Y-51700476D02*
X90843390Y-51748095D01*
X90843390Y-51748095D02*
X91414819Y-52319523D01*
X91414819Y-52319523D02*
X91414819Y-51700476D01*
X90748152Y-50843333D02*
X91414819Y-50843333D01*
X90367200Y-51081428D02*
X91081485Y-51319523D01*
X91081485Y-51319523D02*
X91081485Y-50700476D01*
X68446666Y-55074819D02*
X68446666Y-55789104D01*
X68446666Y-55789104D02*
X68399047Y-55931961D01*
X68399047Y-55931961D02*
X68303809Y-56027200D01*
X68303809Y-56027200D02*
X68160952Y-56074819D01*
X68160952Y-56074819D02*
X68065714Y-56074819D01*
X69351428Y-55074819D02*
X69160952Y-55074819D01*
X69160952Y-55074819D02*
X69065714Y-55122438D01*
X69065714Y-55122438D02*
X69018095Y-55170057D01*
X69018095Y-55170057D02*
X68922857Y-55312914D01*
X68922857Y-55312914D02*
X68875238Y-55503390D01*
X68875238Y-55503390D02*
X68875238Y-55884342D01*
X68875238Y-55884342D02*
X68922857Y-55979580D01*
X68922857Y-55979580D02*
X68970476Y-56027200D01*
X68970476Y-56027200D02*
X69065714Y-56074819D01*
X69065714Y-56074819D02*
X69256190Y-56074819D01*
X69256190Y-56074819D02*
X69351428Y-56027200D01*
X69351428Y-56027200D02*
X69399047Y-55979580D01*
X69399047Y-55979580D02*
X69446666Y-55884342D01*
X69446666Y-55884342D02*
X69446666Y-55646247D01*
X69446666Y-55646247D02*
X69399047Y-55551009D01*
X69399047Y-55551009D02*
X69351428Y-55503390D01*
X69351428Y-55503390D02*
X69256190Y-55455771D01*
X69256190Y-55455771D02*
X69065714Y-55455771D01*
X69065714Y-55455771D02*
X68970476Y-55503390D01*
X68970476Y-55503390D02*
X68922857Y-55551009D01*
X68922857Y-55551009D02*
X68875238Y-55646247D01*
X105619580Y-72386666D02*
X105667200Y-72434285D01*
X105667200Y-72434285D02*
X105714819Y-72577142D01*
X105714819Y-72577142D02*
X105714819Y-72672380D01*
X105714819Y-72672380D02*
X105667200Y-72815237D01*
X105667200Y-72815237D02*
X105571961Y-72910475D01*
X105571961Y-72910475D02*
X105476723Y-72958094D01*
X105476723Y-72958094D02*
X105286247Y-73005713D01*
X105286247Y-73005713D02*
X105143390Y-73005713D01*
X105143390Y-73005713D02*
X104952914Y-72958094D01*
X104952914Y-72958094D02*
X104857676Y-72910475D01*
X104857676Y-72910475D02*
X104762438Y-72815237D01*
X104762438Y-72815237D02*
X104714819Y-72672380D01*
X104714819Y-72672380D02*
X104714819Y-72577142D01*
X104714819Y-72577142D02*
X104762438Y-72434285D01*
X104762438Y-72434285D02*
X104810057Y-72386666D01*
X105714819Y-71910475D02*
X105714819Y-71719999D01*
X105714819Y-71719999D02*
X105667200Y-71624761D01*
X105667200Y-71624761D02*
X105619580Y-71577142D01*
X105619580Y-71577142D02*
X105476723Y-71481904D01*
X105476723Y-71481904D02*
X105286247Y-71434285D01*
X105286247Y-71434285D02*
X104905295Y-71434285D01*
X104905295Y-71434285D02*
X104810057Y-71481904D01*
X104810057Y-71481904D02*
X104762438Y-71529523D01*
X104762438Y-71529523D02*
X104714819Y-71624761D01*
X104714819Y-71624761D02*
X104714819Y-71815237D01*
X104714819Y-71815237D02*
X104762438Y-71910475D01*
X104762438Y-71910475D02*
X104810057Y-71958094D01*
X104810057Y-71958094D02*
X104905295Y-72005713D01*
X104905295Y-72005713D02*
X105143390Y-72005713D01*
X105143390Y-72005713D02*
X105238628Y-71958094D01*
X105238628Y-71958094D02*
X105286247Y-71910475D01*
X105286247Y-71910475D02*
X105333866Y-71815237D01*
X105333866Y-71815237D02*
X105333866Y-71624761D01*
X105333866Y-71624761D02*
X105286247Y-71529523D01*
X105286247Y-71529523D02*
X105238628Y-71481904D01*
X105238628Y-71481904D02*
X105143390Y-71434285D01*
X148669580Y-109022857D02*
X148717200Y-109070476D01*
X148717200Y-109070476D02*
X148764819Y-109213333D01*
X148764819Y-109213333D02*
X148764819Y-109308571D01*
X148764819Y-109308571D02*
X148717200Y-109451428D01*
X148717200Y-109451428D02*
X148621961Y-109546666D01*
X148621961Y-109546666D02*
X148526723Y-109594285D01*
X148526723Y-109594285D02*
X148336247Y-109641904D01*
X148336247Y-109641904D02*
X148193390Y-109641904D01*
X148193390Y-109641904D02*
X148002914Y-109594285D01*
X148002914Y-109594285D02*
X147907676Y-109546666D01*
X147907676Y-109546666D02*
X147812438Y-109451428D01*
X147812438Y-109451428D02*
X147764819Y-109308571D01*
X147764819Y-109308571D02*
X147764819Y-109213333D01*
X147764819Y-109213333D02*
X147812438Y-109070476D01*
X147812438Y-109070476D02*
X147860057Y-109022857D01*
X147860057Y-108641904D02*
X147812438Y-108594285D01*
X147812438Y-108594285D02*
X147764819Y-108499047D01*
X147764819Y-108499047D02*
X147764819Y-108260952D01*
X147764819Y-108260952D02*
X147812438Y-108165714D01*
X147812438Y-108165714D02*
X147860057Y-108118095D01*
X147860057Y-108118095D02*
X147955295Y-108070476D01*
X147955295Y-108070476D02*
X148050533Y-108070476D01*
X148050533Y-108070476D02*
X148193390Y-108118095D01*
X148193390Y-108118095D02*
X148764819Y-108689523D01*
X148764819Y-108689523D02*
X148764819Y-108070476D01*
X147764819Y-107451428D02*
X147764819Y-107356190D01*
X147764819Y-107356190D02*
X147812438Y-107260952D01*
X147812438Y-107260952D02*
X147860057Y-107213333D01*
X147860057Y-107213333D02*
X147955295Y-107165714D01*
X147955295Y-107165714D02*
X148145771Y-107118095D01*
X148145771Y-107118095D02*
X148383866Y-107118095D01*
X148383866Y-107118095D02*
X148574342Y-107165714D01*
X148574342Y-107165714D02*
X148669580Y-107213333D01*
X148669580Y-107213333D02*
X148717200Y-107260952D01*
X148717200Y-107260952D02*
X148764819Y-107356190D01*
X148764819Y-107356190D02*
X148764819Y-107451428D01*
X148764819Y-107451428D02*
X148717200Y-107546666D01*
X148717200Y-107546666D02*
X148669580Y-107594285D01*
X148669580Y-107594285D02*
X148574342Y-107641904D01*
X148574342Y-107641904D02*
X148383866Y-107689523D01*
X148383866Y-107689523D02*
X148145771Y-107689523D01*
X148145771Y-107689523D02*
X147955295Y-107641904D01*
X147955295Y-107641904D02*
X147860057Y-107594285D01*
X147860057Y-107594285D02*
X147812438Y-107546666D01*
X147812438Y-107546666D02*
X147764819Y-107451428D01*
X52733333Y-121704819D02*
X52400000Y-121228628D01*
X52161905Y-121704819D02*
X52161905Y-120704819D01*
X52161905Y-120704819D02*
X52542857Y-120704819D01*
X52542857Y-120704819D02*
X52638095Y-120752438D01*
X52638095Y-120752438D02*
X52685714Y-120800057D01*
X52685714Y-120800057D02*
X52733333Y-120895295D01*
X52733333Y-120895295D02*
X52733333Y-121038152D01*
X52733333Y-121038152D02*
X52685714Y-121133390D01*
X52685714Y-121133390D02*
X52638095Y-121181009D01*
X52638095Y-121181009D02*
X52542857Y-121228628D01*
X52542857Y-121228628D02*
X52161905Y-121228628D01*
X53685714Y-121704819D02*
X53114286Y-121704819D01*
X53400000Y-121704819D02*
X53400000Y-120704819D01*
X53400000Y-120704819D02*
X53304762Y-120847676D01*
X53304762Y-120847676D02*
X53209524Y-120942914D01*
X53209524Y-120942914D02*
X53114286Y-120990533D01*
X157782618Y-125884080D02*
X157734999Y-125931700D01*
X157734999Y-125931700D02*
X157592142Y-125979319D01*
X157592142Y-125979319D02*
X157496904Y-125979319D01*
X157496904Y-125979319D02*
X157354047Y-125931700D01*
X157354047Y-125931700D02*
X157258809Y-125836461D01*
X157258809Y-125836461D02*
X157211190Y-125741223D01*
X157211190Y-125741223D02*
X157163571Y-125550747D01*
X157163571Y-125550747D02*
X157163571Y-125407890D01*
X157163571Y-125407890D02*
X157211190Y-125217414D01*
X157211190Y-125217414D02*
X157258809Y-125122176D01*
X157258809Y-125122176D02*
X157354047Y-125026938D01*
X157354047Y-125026938D02*
X157496904Y-124979319D01*
X157496904Y-124979319D02*
X157592142Y-124979319D01*
X157592142Y-124979319D02*
X157734999Y-125026938D01*
X157734999Y-125026938D02*
X157782618Y-125074557D01*
X158163571Y-125074557D02*
X158211190Y-125026938D01*
X158211190Y-125026938D02*
X158306428Y-124979319D01*
X158306428Y-124979319D02*
X158544523Y-124979319D01*
X158544523Y-124979319D02*
X158639761Y-125026938D01*
X158639761Y-125026938D02*
X158687380Y-125074557D01*
X158687380Y-125074557D02*
X158734999Y-125169795D01*
X158734999Y-125169795D02*
X158734999Y-125265033D01*
X158734999Y-125265033D02*
X158687380Y-125407890D01*
X158687380Y-125407890D02*
X158115952Y-125979319D01*
X158115952Y-125979319D02*
X158734999Y-125979319D01*
X159068333Y-124979319D02*
X159687380Y-124979319D01*
X159687380Y-124979319D02*
X159354047Y-125360271D01*
X159354047Y-125360271D02*
X159496904Y-125360271D01*
X159496904Y-125360271D02*
X159592142Y-125407890D01*
X159592142Y-125407890D02*
X159639761Y-125455509D01*
X159639761Y-125455509D02*
X159687380Y-125550747D01*
X159687380Y-125550747D02*
X159687380Y-125788842D01*
X159687380Y-125788842D02*
X159639761Y-125884080D01*
X159639761Y-125884080D02*
X159592142Y-125931700D01*
X159592142Y-125931700D02*
X159496904Y-125979319D01*
X159496904Y-125979319D02*
X159211190Y-125979319D01*
X159211190Y-125979319D02*
X159115952Y-125931700D01*
X159115952Y-125931700D02*
X159068333Y-125884080D01*
X109408095Y-50364819D02*
X109408095Y-51174342D01*
X109408095Y-51174342D02*
X109455714Y-51269580D01*
X109455714Y-51269580D02*
X109503333Y-51317200D01*
X109503333Y-51317200D02*
X109598571Y-51364819D01*
X109598571Y-51364819D02*
X109789047Y-51364819D01*
X109789047Y-51364819D02*
X109884285Y-51317200D01*
X109884285Y-51317200D02*
X109931904Y-51269580D01*
X109931904Y-51269580D02*
X109979523Y-51174342D01*
X109979523Y-51174342D02*
X109979523Y-50364819D01*
X110360476Y-50364819D02*
X110979523Y-50364819D01*
X110979523Y-50364819D02*
X110646190Y-50745771D01*
X110646190Y-50745771D02*
X110789047Y-50745771D01*
X110789047Y-50745771D02*
X110884285Y-50793390D01*
X110884285Y-50793390D02*
X110931904Y-50841009D01*
X110931904Y-50841009D02*
X110979523Y-50936247D01*
X110979523Y-50936247D02*
X110979523Y-51174342D01*
X110979523Y-51174342D02*
X110931904Y-51269580D01*
X110931904Y-51269580D02*
X110884285Y-51317200D01*
X110884285Y-51317200D02*
X110789047Y-51364819D01*
X110789047Y-51364819D02*
X110503333Y-51364819D01*
X110503333Y-51364819D02*
X110408095Y-51317200D01*
X110408095Y-51317200D02*
X110360476Y-51269580D01*
X163399580Y-113032857D02*
X163447200Y-113080476D01*
X163447200Y-113080476D02*
X163494819Y-113223333D01*
X163494819Y-113223333D02*
X163494819Y-113318571D01*
X163494819Y-113318571D02*
X163447200Y-113461428D01*
X163447200Y-113461428D02*
X163351961Y-113556666D01*
X163351961Y-113556666D02*
X163256723Y-113604285D01*
X163256723Y-113604285D02*
X163066247Y-113651904D01*
X163066247Y-113651904D02*
X162923390Y-113651904D01*
X162923390Y-113651904D02*
X162732914Y-113604285D01*
X162732914Y-113604285D02*
X162637676Y-113556666D01*
X162637676Y-113556666D02*
X162542438Y-113461428D01*
X162542438Y-113461428D02*
X162494819Y-113318571D01*
X162494819Y-113318571D02*
X162494819Y-113223333D01*
X162494819Y-113223333D02*
X162542438Y-113080476D01*
X162542438Y-113080476D02*
X162590057Y-113032857D01*
X163494819Y-112080476D02*
X163494819Y-112651904D01*
X163494819Y-112366190D02*
X162494819Y-112366190D01*
X162494819Y-112366190D02*
X162637676Y-112461428D01*
X162637676Y-112461428D02*
X162732914Y-112556666D01*
X162732914Y-112556666D02*
X162780533Y-112651904D01*
X162590057Y-111699523D02*
X162542438Y-111651904D01*
X162542438Y-111651904D02*
X162494819Y-111556666D01*
X162494819Y-111556666D02*
X162494819Y-111318571D01*
X162494819Y-111318571D02*
X162542438Y-111223333D01*
X162542438Y-111223333D02*
X162590057Y-111175714D01*
X162590057Y-111175714D02*
X162685295Y-111128095D01*
X162685295Y-111128095D02*
X162780533Y-111128095D01*
X162780533Y-111128095D02*
X162923390Y-111175714D01*
X162923390Y-111175714D02*
X163494819Y-111747142D01*
X163494819Y-111747142D02*
X163494819Y-111128095D01*
X87084819Y-63672857D02*
X86608628Y-64006190D01*
X87084819Y-64244285D02*
X86084819Y-64244285D01*
X86084819Y-64244285D02*
X86084819Y-63863333D01*
X86084819Y-63863333D02*
X86132438Y-63768095D01*
X86132438Y-63768095D02*
X86180057Y-63720476D01*
X86180057Y-63720476D02*
X86275295Y-63672857D01*
X86275295Y-63672857D02*
X86418152Y-63672857D01*
X86418152Y-63672857D02*
X86513390Y-63720476D01*
X86513390Y-63720476D02*
X86561009Y-63768095D01*
X86561009Y-63768095D02*
X86608628Y-63863333D01*
X86608628Y-63863333D02*
X86608628Y-64244285D01*
X87084819Y-62720476D02*
X87084819Y-63291904D01*
X87084819Y-63006190D02*
X86084819Y-63006190D01*
X86084819Y-63006190D02*
X86227676Y-63101428D01*
X86227676Y-63101428D02*
X86322914Y-63196666D01*
X86322914Y-63196666D02*
X86370533Y-63291904D01*
X86180057Y-62339523D02*
X86132438Y-62291904D01*
X86132438Y-62291904D02*
X86084819Y-62196666D01*
X86084819Y-62196666D02*
X86084819Y-61958571D01*
X86084819Y-61958571D02*
X86132438Y-61863333D01*
X86132438Y-61863333D02*
X86180057Y-61815714D01*
X86180057Y-61815714D02*
X86275295Y-61768095D01*
X86275295Y-61768095D02*
X86370533Y-61768095D01*
X86370533Y-61768095D02*
X86513390Y-61815714D01*
X86513390Y-61815714D02*
X87084819Y-62387142D01*
X87084819Y-62387142D02*
X87084819Y-61768095D01*
X95706666Y-50042319D02*
X95706666Y-50756604D01*
X95706666Y-50756604D02*
X95659047Y-50899461D01*
X95659047Y-50899461D02*
X95563809Y-50994700D01*
X95563809Y-50994700D02*
X95420952Y-51042319D01*
X95420952Y-51042319D02*
X95325714Y-51042319D01*
X96135238Y-50137557D02*
X96182857Y-50089938D01*
X96182857Y-50089938D02*
X96278095Y-50042319D01*
X96278095Y-50042319D02*
X96516190Y-50042319D01*
X96516190Y-50042319D02*
X96611428Y-50089938D01*
X96611428Y-50089938D02*
X96659047Y-50137557D01*
X96659047Y-50137557D02*
X96706666Y-50232795D01*
X96706666Y-50232795D02*
X96706666Y-50328033D01*
X96706666Y-50328033D02*
X96659047Y-50470890D01*
X96659047Y-50470890D02*
X96087619Y-51042319D01*
X96087619Y-51042319D02*
X96706666Y-51042319D01*
X64064819Y-123258094D02*
X63064819Y-123258094D01*
X63064819Y-123258094D02*
X63064819Y-123019999D01*
X63064819Y-123019999D02*
X63112438Y-122877142D01*
X63112438Y-122877142D02*
X63207676Y-122781904D01*
X63207676Y-122781904D02*
X63302914Y-122734285D01*
X63302914Y-122734285D02*
X63493390Y-122686666D01*
X63493390Y-122686666D02*
X63636247Y-122686666D01*
X63636247Y-122686666D02*
X63826723Y-122734285D01*
X63826723Y-122734285D02*
X63921961Y-122781904D01*
X63921961Y-122781904D02*
X64017200Y-122877142D01*
X64017200Y-122877142D02*
X64064819Y-123019999D01*
X64064819Y-123019999D02*
X64064819Y-123258094D01*
X63160057Y-122305713D02*
X63112438Y-122258094D01*
X63112438Y-122258094D02*
X63064819Y-122162856D01*
X63064819Y-122162856D02*
X63064819Y-121924761D01*
X63064819Y-121924761D02*
X63112438Y-121829523D01*
X63112438Y-121829523D02*
X63160057Y-121781904D01*
X63160057Y-121781904D02*
X63255295Y-121734285D01*
X63255295Y-121734285D02*
X63350533Y-121734285D01*
X63350533Y-121734285D02*
X63493390Y-121781904D01*
X63493390Y-121781904D02*
X64064819Y-122353332D01*
X64064819Y-122353332D02*
X64064819Y-121734285D01*
X96043809Y-76628628D02*
X96043809Y-77104819D01*
X95710476Y-76104819D02*
X96043809Y-76628628D01*
X96043809Y-76628628D02*
X96377142Y-76104819D01*
X97234285Y-77104819D02*
X96662857Y-77104819D01*
X96948571Y-77104819D02*
X96948571Y-76104819D01*
X96948571Y-76104819D02*
X96853333Y-76247676D01*
X96853333Y-76247676D02*
X96758095Y-76342914D01*
X96758095Y-76342914D02*
X96662857Y-76390533D01*
X70169819Y-126951666D02*
X69693628Y-127284999D01*
X70169819Y-127523094D02*
X69169819Y-127523094D01*
X69169819Y-127523094D02*
X69169819Y-127142142D01*
X69169819Y-127142142D02*
X69217438Y-127046904D01*
X69217438Y-127046904D02*
X69265057Y-126999285D01*
X69265057Y-126999285D02*
X69360295Y-126951666D01*
X69360295Y-126951666D02*
X69503152Y-126951666D01*
X69503152Y-126951666D02*
X69598390Y-126999285D01*
X69598390Y-126999285D02*
X69646009Y-127046904D01*
X69646009Y-127046904D02*
X69693628Y-127142142D01*
X69693628Y-127142142D02*
X69693628Y-127523094D01*
X70169819Y-126475475D02*
X70169819Y-126284999D01*
X70169819Y-126284999D02*
X70122200Y-126189761D01*
X70122200Y-126189761D02*
X70074580Y-126142142D01*
X70074580Y-126142142D02*
X69931723Y-126046904D01*
X69931723Y-126046904D02*
X69741247Y-125999285D01*
X69741247Y-125999285D02*
X69360295Y-125999285D01*
X69360295Y-125999285D02*
X69265057Y-126046904D01*
X69265057Y-126046904D02*
X69217438Y-126094523D01*
X69217438Y-126094523D02*
X69169819Y-126189761D01*
X69169819Y-126189761D02*
X69169819Y-126380237D01*
X69169819Y-126380237D02*
X69217438Y-126475475D01*
X69217438Y-126475475D02*
X69265057Y-126523094D01*
X69265057Y-126523094D02*
X69360295Y-126570713D01*
X69360295Y-126570713D02*
X69598390Y-126570713D01*
X69598390Y-126570713D02*
X69693628Y-126523094D01*
X69693628Y-126523094D02*
X69741247Y-126475475D01*
X69741247Y-126475475D02*
X69788866Y-126380237D01*
X69788866Y-126380237D02*
X69788866Y-126189761D01*
X69788866Y-126189761D02*
X69741247Y-126094523D01*
X69741247Y-126094523D02*
X69693628Y-126046904D01*
X69693628Y-126046904D02*
X69598390Y-125999285D01*
X72617142Y-48189580D02*
X72569523Y-48237200D01*
X72569523Y-48237200D02*
X72426666Y-48284819D01*
X72426666Y-48284819D02*
X72331428Y-48284819D01*
X72331428Y-48284819D02*
X72188571Y-48237200D01*
X72188571Y-48237200D02*
X72093333Y-48141961D01*
X72093333Y-48141961D02*
X72045714Y-48046723D01*
X72045714Y-48046723D02*
X71998095Y-47856247D01*
X71998095Y-47856247D02*
X71998095Y-47713390D01*
X71998095Y-47713390D02*
X72045714Y-47522914D01*
X72045714Y-47522914D02*
X72093333Y-47427676D01*
X72093333Y-47427676D02*
X72188571Y-47332438D01*
X72188571Y-47332438D02*
X72331428Y-47284819D01*
X72331428Y-47284819D02*
X72426666Y-47284819D01*
X72426666Y-47284819D02*
X72569523Y-47332438D01*
X72569523Y-47332438D02*
X72617142Y-47380057D01*
X72950476Y-47284819D02*
X73569523Y-47284819D01*
X73569523Y-47284819D02*
X73236190Y-47665771D01*
X73236190Y-47665771D02*
X73379047Y-47665771D01*
X73379047Y-47665771D02*
X73474285Y-47713390D01*
X73474285Y-47713390D02*
X73521904Y-47761009D01*
X73521904Y-47761009D02*
X73569523Y-47856247D01*
X73569523Y-47856247D02*
X73569523Y-48094342D01*
X73569523Y-48094342D02*
X73521904Y-48189580D01*
X73521904Y-48189580D02*
X73474285Y-48237200D01*
X73474285Y-48237200D02*
X73379047Y-48284819D01*
X73379047Y-48284819D02*
X73093333Y-48284819D01*
X73093333Y-48284819D02*
X72998095Y-48237200D01*
X72998095Y-48237200D02*
X72950476Y-48189580D01*
X74188571Y-47284819D02*
X74283809Y-47284819D01*
X74283809Y-47284819D02*
X74379047Y-47332438D01*
X74379047Y-47332438D02*
X74426666Y-47380057D01*
X74426666Y-47380057D02*
X74474285Y-47475295D01*
X74474285Y-47475295D02*
X74521904Y-47665771D01*
X74521904Y-47665771D02*
X74521904Y-47903866D01*
X74521904Y-47903866D02*
X74474285Y-48094342D01*
X74474285Y-48094342D02*
X74426666Y-48189580D01*
X74426666Y-48189580D02*
X74379047Y-48237200D01*
X74379047Y-48237200D02*
X74283809Y-48284819D01*
X74283809Y-48284819D02*
X74188571Y-48284819D01*
X74188571Y-48284819D02*
X74093333Y-48237200D01*
X74093333Y-48237200D02*
X74045714Y-48189580D01*
X74045714Y-48189580D02*
X73998095Y-48094342D01*
X73998095Y-48094342D02*
X73950476Y-47903866D01*
X73950476Y-47903866D02*
X73950476Y-47665771D01*
X73950476Y-47665771D02*
X73998095Y-47475295D01*
X73998095Y-47475295D02*
X74045714Y-47380057D01*
X74045714Y-47380057D02*
X74093333Y-47332438D01*
X74093333Y-47332438D02*
X74188571Y-47284819D01*
X76477142Y-97094819D02*
X76143809Y-96618628D01*
X75905714Y-97094819D02*
X75905714Y-96094819D01*
X75905714Y-96094819D02*
X76286666Y-96094819D01*
X76286666Y-96094819D02*
X76381904Y-96142438D01*
X76381904Y-96142438D02*
X76429523Y-96190057D01*
X76429523Y-96190057D02*
X76477142Y-96285295D01*
X76477142Y-96285295D02*
X76477142Y-96428152D01*
X76477142Y-96428152D02*
X76429523Y-96523390D01*
X76429523Y-96523390D02*
X76381904Y-96571009D01*
X76381904Y-96571009D02*
X76286666Y-96618628D01*
X76286666Y-96618628D02*
X75905714Y-96618628D01*
X76858095Y-96190057D02*
X76905714Y-96142438D01*
X76905714Y-96142438D02*
X77000952Y-96094819D01*
X77000952Y-96094819D02*
X77239047Y-96094819D01*
X77239047Y-96094819D02*
X77334285Y-96142438D01*
X77334285Y-96142438D02*
X77381904Y-96190057D01*
X77381904Y-96190057D02*
X77429523Y-96285295D01*
X77429523Y-96285295D02*
X77429523Y-96380533D01*
X77429523Y-96380533D02*
X77381904Y-96523390D01*
X77381904Y-96523390D02*
X76810476Y-97094819D01*
X76810476Y-97094819D02*
X77429523Y-97094819D01*
X78048571Y-96094819D02*
X78143809Y-96094819D01*
X78143809Y-96094819D02*
X78239047Y-96142438D01*
X78239047Y-96142438D02*
X78286666Y-96190057D01*
X78286666Y-96190057D02*
X78334285Y-96285295D01*
X78334285Y-96285295D02*
X78381904Y-96475771D01*
X78381904Y-96475771D02*
X78381904Y-96713866D01*
X78381904Y-96713866D02*
X78334285Y-96904342D01*
X78334285Y-96904342D02*
X78286666Y-96999580D01*
X78286666Y-96999580D02*
X78239047Y-97047200D01*
X78239047Y-97047200D02*
X78143809Y-97094819D01*
X78143809Y-97094819D02*
X78048571Y-97094819D01*
X78048571Y-97094819D02*
X77953333Y-97047200D01*
X77953333Y-97047200D02*
X77905714Y-96999580D01*
X77905714Y-96999580D02*
X77858095Y-96904342D01*
X77858095Y-96904342D02*
X77810476Y-96713866D01*
X77810476Y-96713866D02*
X77810476Y-96475771D01*
X77810476Y-96475771D02*
X77858095Y-96285295D01*
X77858095Y-96285295D02*
X77905714Y-96190057D01*
X77905714Y-96190057D02*
X77953333Y-96142438D01*
X77953333Y-96142438D02*
X78048571Y-96094819D01*
X84994819Y-52702857D02*
X84518628Y-53036190D01*
X84994819Y-53274285D02*
X83994819Y-53274285D01*
X83994819Y-53274285D02*
X83994819Y-52893333D01*
X83994819Y-52893333D02*
X84042438Y-52798095D01*
X84042438Y-52798095D02*
X84090057Y-52750476D01*
X84090057Y-52750476D02*
X84185295Y-52702857D01*
X84185295Y-52702857D02*
X84328152Y-52702857D01*
X84328152Y-52702857D02*
X84423390Y-52750476D01*
X84423390Y-52750476D02*
X84471009Y-52798095D01*
X84471009Y-52798095D02*
X84518628Y-52893333D01*
X84518628Y-52893333D02*
X84518628Y-53274285D01*
X84090057Y-52321904D02*
X84042438Y-52274285D01*
X84042438Y-52274285D02*
X83994819Y-52179047D01*
X83994819Y-52179047D02*
X83994819Y-51940952D01*
X83994819Y-51940952D02*
X84042438Y-51845714D01*
X84042438Y-51845714D02*
X84090057Y-51798095D01*
X84090057Y-51798095D02*
X84185295Y-51750476D01*
X84185295Y-51750476D02*
X84280533Y-51750476D01*
X84280533Y-51750476D02*
X84423390Y-51798095D01*
X84423390Y-51798095D02*
X84994819Y-52369523D01*
X84994819Y-52369523D02*
X84994819Y-51750476D01*
X83994819Y-51417142D02*
X83994819Y-50798095D01*
X83994819Y-50798095D02*
X84375771Y-51131428D01*
X84375771Y-51131428D02*
X84375771Y-50988571D01*
X84375771Y-50988571D02*
X84423390Y-50893333D01*
X84423390Y-50893333D02*
X84471009Y-50845714D01*
X84471009Y-50845714D02*
X84566247Y-50798095D01*
X84566247Y-50798095D02*
X84804342Y-50798095D01*
X84804342Y-50798095D02*
X84899580Y-50845714D01*
X84899580Y-50845714D02*
X84947200Y-50893333D01*
X84947200Y-50893333D02*
X84994819Y-50988571D01*
X84994819Y-50988571D02*
X84994819Y-51274285D01*
X84994819Y-51274285D02*
X84947200Y-51369523D01*
X84947200Y-51369523D02*
X84899580Y-51417142D01*
X59254819Y-63828094D02*
X60064342Y-63828094D01*
X60064342Y-63828094D02*
X60159580Y-63780475D01*
X60159580Y-63780475D02*
X60207200Y-63732856D01*
X60207200Y-63732856D02*
X60254819Y-63637618D01*
X60254819Y-63637618D02*
X60254819Y-63447142D01*
X60254819Y-63447142D02*
X60207200Y-63351904D01*
X60207200Y-63351904D02*
X60159580Y-63304285D01*
X60159580Y-63304285D02*
X60064342Y-63256666D01*
X60064342Y-63256666D02*
X59254819Y-63256666D01*
X60254819Y-62256666D02*
X60254819Y-62828094D01*
X60254819Y-62542380D02*
X59254819Y-62542380D01*
X59254819Y-62542380D02*
X59397676Y-62637618D01*
X59397676Y-62637618D02*
X59492914Y-62732856D01*
X59492914Y-62732856D02*
X59540533Y-62828094D01*
X59254819Y-61637618D02*
X59254819Y-61542380D01*
X59254819Y-61542380D02*
X59302438Y-61447142D01*
X59302438Y-61447142D02*
X59350057Y-61399523D01*
X59350057Y-61399523D02*
X59445295Y-61351904D01*
X59445295Y-61351904D02*
X59635771Y-61304285D01*
X59635771Y-61304285D02*
X59873866Y-61304285D01*
X59873866Y-61304285D02*
X60064342Y-61351904D01*
X60064342Y-61351904D02*
X60159580Y-61399523D01*
X60159580Y-61399523D02*
X60207200Y-61447142D01*
X60207200Y-61447142D02*
X60254819Y-61542380D01*
X60254819Y-61542380D02*
X60254819Y-61637618D01*
X60254819Y-61637618D02*
X60207200Y-61732856D01*
X60207200Y-61732856D02*
X60159580Y-61780475D01*
X60159580Y-61780475D02*
X60064342Y-61828094D01*
X60064342Y-61828094D02*
X59873866Y-61875713D01*
X59873866Y-61875713D02*
X59635771Y-61875713D01*
X59635771Y-61875713D02*
X59445295Y-61828094D01*
X59445295Y-61828094D02*
X59350057Y-61780475D01*
X59350057Y-61780475D02*
X59302438Y-61732856D01*
X59302438Y-61732856D02*
X59254819Y-61637618D01*
X161566666Y-94204819D02*
X161566666Y-94919104D01*
X161566666Y-94919104D02*
X161519047Y-95061961D01*
X161519047Y-95061961D02*
X161423809Y-95157200D01*
X161423809Y-95157200D02*
X161280952Y-95204819D01*
X161280952Y-95204819D02*
X161185714Y-95204819D01*
X162090476Y-95204819D02*
X162280952Y-95204819D01*
X162280952Y-95204819D02*
X162376190Y-95157200D01*
X162376190Y-95157200D02*
X162423809Y-95109580D01*
X162423809Y-95109580D02*
X162519047Y-94966723D01*
X162519047Y-94966723D02*
X162566666Y-94776247D01*
X162566666Y-94776247D02*
X162566666Y-94395295D01*
X162566666Y-94395295D02*
X162519047Y-94300057D01*
X162519047Y-94300057D02*
X162471428Y-94252438D01*
X162471428Y-94252438D02*
X162376190Y-94204819D01*
X162376190Y-94204819D02*
X162185714Y-94204819D01*
X162185714Y-94204819D02*
X162090476Y-94252438D01*
X162090476Y-94252438D02*
X162042857Y-94300057D01*
X162042857Y-94300057D02*
X161995238Y-94395295D01*
X161995238Y-94395295D02*
X161995238Y-94633390D01*
X161995238Y-94633390D02*
X162042857Y-94728628D01*
X162042857Y-94728628D02*
X162090476Y-94776247D01*
X162090476Y-94776247D02*
X162185714Y-94823866D01*
X162185714Y-94823866D02*
X162376190Y-94823866D01*
X162376190Y-94823866D02*
X162471428Y-94776247D01*
X162471428Y-94776247D02*
X162519047Y-94728628D01*
X162519047Y-94728628D02*
X162566666Y-94633390D01*
X94623333Y-53714819D02*
X94290000Y-53238628D01*
X94051905Y-53714819D02*
X94051905Y-52714819D01*
X94051905Y-52714819D02*
X94432857Y-52714819D01*
X94432857Y-52714819D02*
X94528095Y-52762438D01*
X94528095Y-52762438D02*
X94575714Y-52810057D01*
X94575714Y-52810057D02*
X94623333Y-52905295D01*
X94623333Y-52905295D02*
X94623333Y-53048152D01*
X94623333Y-53048152D02*
X94575714Y-53143390D01*
X94575714Y-53143390D02*
X94528095Y-53191009D01*
X94528095Y-53191009D02*
X94432857Y-53238628D01*
X94432857Y-53238628D02*
X94051905Y-53238628D01*
X95004286Y-52810057D02*
X95051905Y-52762438D01*
X95051905Y-52762438D02*
X95147143Y-52714819D01*
X95147143Y-52714819D02*
X95385238Y-52714819D01*
X95385238Y-52714819D02*
X95480476Y-52762438D01*
X95480476Y-52762438D02*
X95528095Y-52810057D01*
X95528095Y-52810057D02*
X95575714Y-52905295D01*
X95575714Y-52905295D02*
X95575714Y-53000533D01*
X95575714Y-53000533D02*
X95528095Y-53143390D01*
X95528095Y-53143390D02*
X94956667Y-53714819D01*
X94956667Y-53714819D02*
X95575714Y-53714819D01*
X145369580Y-111352857D02*
X145417200Y-111400476D01*
X145417200Y-111400476D02*
X145464819Y-111543333D01*
X145464819Y-111543333D02*
X145464819Y-111638571D01*
X145464819Y-111638571D02*
X145417200Y-111781428D01*
X145417200Y-111781428D02*
X145321961Y-111876666D01*
X145321961Y-111876666D02*
X145226723Y-111924285D01*
X145226723Y-111924285D02*
X145036247Y-111971904D01*
X145036247Y-111971904D02*
X144893390Y-111971904D01*
X144893390Y-111971904D02*
X144702914Y-111924285D01*
X144702914Y-111924285D02*
X144607676Y-111876666D01*
X144607676Y-111876666D02*
X144512438Y-111781428D01*
X144512438Y-111781428D02*
X144464819Y-111638571D01*
X144464819Y-111638571D02*
X144464819Y-111543333D01*
X144464819Y-111543333D02*
X144512438Y-111400476D01*
X144512438Y-111400476D02*
X144560057Y-111352857D01*
X145464819Y-110400476D02*
X145464819Y-110971904D01*
X145464819Y-110686190D02*
X144464819Y-110686190D01*
X144464819Y-110686190D02*
X144607676Y-110781428D01*
X144607676Y-110781428D02*
X144702914Y-110876666D01*
X144702914Y-110876666D02*
X144750533Y-110971904D01*
X144464819Y-109495714D02*
X144464819Y-109971904D01*
X144464819Y-109971904D02*
X144941009Y-110019523D01*
X144941009Y-110019523D02*
X144893390Y-109971904D01*
X144893390Y-109971904D02*
X144845771Y-109876666D01*
X144845771Y-109876666D02*
X144845771Y-109638571D01*
X144845771Y-109638571D02*
X144893390Y-109543333D01*
X144893390Y-109543333D02*
X144941009Y-109495714D01*
X144941009Y-109495714D02*
X145036247Y-109448095D01*
X145036247Y-109448095D02*
X145274342Y-109448095D01*
X145274342Y-109448095D02*
X145369580Y-109495714D01*
X145369580Y-109495714D02*
X145417200Y-109543333D01*
X145417200Y-109543333D02*
X145464819Y-109638571D01*
X145464819Y-109638571D02*
X145464819Y-109876666D01*
X145464819Y-109876666D02*
X145417200Y-109971904D01*
X145417200Y-109971904D02*
X145369580Y-110019523D01*
X106944819Y-59232857D02*
X106468628Y-59566190D01*
X106944819Y-59804285D02*
X105944819Y-59804285D01*
X105944819Y-59804285D02*
X105944819Y-59423333D01*
X105944819Y-59423333D02*
X105992438Y-59328095D01*
X105992438Y-59328095D02*
X106040057Y-59280476D01*
X106040057Y-59280476D02*
X106135295Y-59232857D01*
X106135295Y-59232857D02*
X106278152Y-59232857D01*
X106278152Y-59232857D02*
X106373390Y-59280476D01*
X106373390Y-59280476D02*
X106421009Y-59328095D01*
X106421009Y-59328095D02*
X106468628Y-59423333D01*
X106468628Y-59423333D02*
X106468628Y-59804285D01*
X106944819Y-58280476D02*
X106944819Y-58851904D01*
X106944819Y-58566190D02*
X105944819Y-58566190D01*
X105944819Y-58566190D02*
X106087676Y-58661428D01*
X106087676Y-58661428D02*
X106182914Y-58756666D01*
X106182914Y-58756666D02*
X106230533Y-58851904D01*
X106944819Y-57328095D02*
X106944819Y-57899523D01*
X106944819Y-57613809D02*
X105944819Y-57613809D01*
X105944819Y-57613809D02*
X106087676Y-57709047D01*
X106087676Y-57709047D02*
X106182914Y-57804285D01*
X106182914Y-57804285D02*
X106230533Y-57899523D01*
X56310476Y-90157200D02*
X56453333Y-90204819D01*
X56453333Y-90204819D02*
X56691428Y-90204819D01*
X56691428Y-90204819D02*
X56786666Y-90157200D01*
X56786666Y-90157200D02*
X56834285Y-90109580D01*
X56834285Y-90109580D02*
X56881904Y-90014342D01*
X56881904Y-90014342D02*
X56881904Y-89919104D01*
X56881904Y-89919104D02*
X56834285Y-89823866D01*
X56834285Y-89823866D02*
X56786666Y-89776247D01*
X56786666Y-89776247D02*
X56691428Y-89728628D01*
X56691428Y-89728628D02*
X56500952Y-89681009D01*
X56500952Y-89681009D02*
X56405714Y-89633390D01*
X56405714Y-89633390D02*
X56358095Y-89585771D01*
X56358095Y-89585771D02*
X56310476Y-89490533D01*
X56310476Y-89490533D02*
X56310476Y-89395295D01*
X56310476Y-89395295D02*
X56358095Y-89300057D01*
X56358095Y-89300057D02*
X56405714Y-89252438D01*
X56405714Y-89252438D02*
X56500952Y-89204819D01*
X56500952Y-89204819D02*
X56739047Y-89204819D01*
X56739047Y-89204819D02*
X56881904Y-89252438D01*
X57215238Y-89204819D02*
X57453333Y-90204819D01*
X57453333Y-90204819D02*
X57643809Y-89490533D01*
X57643809Y-89490533D02*
X57834285Y-90204819D01*
X57834285Y-90204819D02*
X58072381Y-89204819D01*
X58977142Y-90204819D02*
X58405714Y-90204819D01*
X58691428Y-90204819D02*
X58691428Y-89204819D01*
X58691428Y-89204819D02*
X58596190Y-89347676D01*
X58596190Y-89347676D02*
X58500952Y-89442914D01*
X58500952Y-89442914D02*
X58405714Y-89490533D01*
X59310476Y-89204819D02*
X59929523Y-89204819D01*
X59929523Y-89204819D02*
X59596190Y-89585771D01*
X59596190Y-89585771D02*
X59739047Y-89585771D01*
X59739047Y-89585771D02*
X59834285Y-89633390D01*
X59834285Y-89633390D02*
X59881904Y-89681009D01*
X59881904Y-89681009D02*
X59929523Y-89776247D01*
X59929523Y-89776247D02*
X59929523Y-90014342D01*
X59929523Y-90014342D02*
X59881904Y-90109580D01*
X59881904Y-90109580D02*
X59834285Y-90157200D01*
X59834285Y-90157200D02*
X59739047Y-90204819D01*
X59739047Y-90204819D02*
X59453333Y-90204819D01*
X59453333Y-90204819D02*
X59358095Y-90157200D01*
X59358095Y-90157200D02*
X59310476Y-90109580D01*
X61607142Y-66919580D02*
X61559523Y-66967200D01*
X61559523Y-66967200D02*
X61416666Y-67014819D01*
X61416666Y-67014819D02*
X61321428Y-67014819D01*
X61321428Y-67014819D02*
X61178571Y-66967200D01*
X61178571Y-66967200D02*
X61083333Y-66871961D01*
X61083333Y-66871961D02*
X61035714Y-66776723D01*
X61035714Y-66776723D02*
X60988095Y-66586247D01*
X60988095Y-66586247D02*
X60988095Y-66443390D01*
X60988095Y-66443390D02*
X61035714Y-66252914D01*
X61035714Y-66252914D02*
X61083333Y-66157676D01*
X61083333Y-66157676D02*
X61178571Y-66062438D01*
X61178571Y-66062438D02*
X61321428Y-66014819D01*
X61321428Y-66014819D02*
X61416666Y-66014819D01*
X61416666Y-66014819D02*
X61559523Y-66062438D01*
X61559523Y-66062438D02*
X61607142Y-66110057D01*
X61940476Y-66014819D02*
X62559523Y-66014819D01*
X62559523Y-66014819D02*
X62226190Y-66395771D01*
X62226190Y-66395771D02*
X62369047Y-66395771D01*
X62369047Y-66395771D02*
X62464285Y-66443390D01*
X62464285Y-66443390D02*
X62511904Y-66491009D01*
X62511904Y-66491009D02*
X62559523Y-66586247D01*
X62559523Y-66586247D02*
X62559523Y-66824342D01*
X62559523Y-66824342D02*
X62511904Y-66919580D01*
X62511904Y-66919580D02*
X62464285Y-66967200D01*
X62464285Y-66967200D02*
X62369047Y-67014819D01*
X62369047Y-67014819D02*
X62083333Y-67014819D01*
X62083333Y-67014819D02*
X61988095Y-66967200D01*
X61988095Y-66967200D02*
X61940476Y-66919580D01*
X63511904Y-67014819D02*
X62940476Y-67014819D01*
X63226190Y-67014819D02*
X63226190Y-66014819D01*
X63226190Y-66014819D02*
X63130952Y-66157676D01*
X63130952Y-66157676D02*
X63035714Y-66252914D01*
X63035714Y-66252914D02*
X62940476Y-66300533D01*
X103023333Y-53899580D02*
X102975714Y-53947200D01*
X102975714Y-53947200D02*
X102832857Y-53994819D01*
X102832857Y-53994819D02*
X102737619Y-53994819D01*
X102737619Y-53994819D02*
X102594762Y-53947200D01*
X102594762Y-53947200D02*
X102499524Y-53851961D01*
X102499524Y-53851961D02*
X102451905Y-53756723D01*
X102451905Y-53756723D02*
X102404286Y-53566247D01*
X102404286Y-53566247D02*
X102404286Y-53423390D01*
X102404286Y-53423390D02*
X102451905Y-53232914D01*
X102451905Y-53232914D02*
X102499524Y-53137676D01*
X102499524Y-53137676D02*
X102594762Y-53042438D01*
X102594762Y-53042438D02*
X102737619Y-52994819D01*
X102737619Y-52994819D02*
X102832857Y-52994819D01*
X102832857Y-52994819D02*
X102975714Y-53042438D01*
X102975714Y-53042438D02*
X103023333Y-53090057D01*
X103404286Y-53090057D02*
X103451905Y-53042438D01*
X103451905Y-53042438D02*
X103547143Y-52994819D01*
X103547143Y-52994819D02*
X103785238Y-52994819D01*
X103785238Y-52994819D02*
X103880476Y-53042438D01*
X103880476Y-53042438D02*
X103928095Y-53090057D01*
X103928095Y-53090057D02*
X103975714Y-53185295D01*
X103975714Y-53185295D02*
X103975714Y-53280533D01*
X103975714Y-53280533D02*
X103928095Y-53423390D01*
X103928095Y-53423390D02*
X103356667Y-53994819D01*
X103356667Y-53994819D02*
X103975714Y-53994819D01*
X72997142Y-50139580D02*
X72949523Y-50187200D01*
X72949523Y-50187200D02*
X72806666Y-50234819D01*
X72806666Y-50234819D02*
X72711428Y-50234819D01*
X72711428Y-50234819D02*
X72568571Y-50187200D01*
X72568571Y-50187200D02*
X72473333Y-50091961D01*
X72473333Y-50091961D02*
X72425714Y-49996723D01*
X72425714Y-49996723D02*
X72378095Y-49806247D01*
X72378095Y-49806247D02*
X72378095Y-49663390D01*
X72378095Y-49663390D02*
X72425714Y-49472914D01*
X72425714Y-49472914D02*
X72473333Y-49377676D01*
X72473333Y-49377676D02*
X72568571Y-49282438D01*
X72568571Y-49282438D02*
X72711428Y-49234819D01*
X72711428Y-49234819D02*
X72806666Y-49234819D01*
X72806666Y-49234819D02*
X72949523Y-49282438D01*
X72949523Y-49282438D02*
X72997142Y-49330057D01*
X73378095Y-49330057D02*
X73425714Y-49282438D01*
X73425714Y-49282438D02*
X73520952Y-49234819D01*
X73520952Y-49234819D02*
X73759047Y-49234819D01*
X73759047Y-49234819D02*
X73854285Y-49282438D01*
X73854285Y-49282438D02*
X73901904Y-49330057D01*
X73901904Y-49330057D02*
X73949523Y-49425295D01*
X73949523Y-49425295D02*
X73949523Y-49520533D01*
X73949523Y-49520533D02*
X73901904Y-49663390D01*
X73901904Y-49663390D02*
X73330476Y-50234819D01*
X73330476Y-50234819D02*
X73949523Y-50234819D01*
X74425714Y-50234819D02*
X74616190Y-50234819D01*
X74616190Y-50234819D02*
X74711428Y-50187200D01*
X74711428Y-50187200D02*
X74759047Y-50139580D01*
X74759047Y-50139580D02*
X74854285Y-49996723D01*
X74854285Y-49996723D02*
X74901904Y-49806247D01*
X74901904Y-49806247D02*
X74901904Y-49425295D01*
X74901904Y-49425295D02*
X74854285Y-49330057D01*
X74854285Y-49330057D02*
X74806666Y-49282438D01*
X74806666Y-49282438D02*
X74711428Y-49234819D01*
X74711428Y-49234819D02*
X74520952Y-49234819D01*
X74520952Y-49234819D02*
X74425714Y-49282438D01*
X74425714Y-49282438D02*
X74378095Y-49330057D01*
X74378095Y-49330057D02*
X74330476Y-49425295D01*
X74330476Y-49425295D02*
X74330476Y-49663390D01*
X74330476Y-49663390D02*
X74378095Y-49758628D01*
X74378095Y-49758628D02*
X74425714Y-49806247D01*
X74425714Y-49806247D02*
X74520952Y-49853866D01*
X74520952Y-49853866D02*
X74711428Y-49853866D01*
X74711428Y-49853866D02*
X74806666Y-49806247D01*
X74806666Y-49806247D02*
X74854285Y-49758628D01*
X74854285Y-49758628D02*
X74901904Y-49663390D01*
X162899580Y-105592857D02*
X162947200Y-105640476D01*
X162947200Y-105640476D02*
X162994819Y-105783333D01*
X162994819Y-105783333D02*
X162994819Y-105878571D01*
X162994819Y-105878571D02*
X162947200Y-106021428D01*
X162947200Y-106021428D02*
X162851961Y-106116666D01*
X162851961Y-106116666D02*
X162756723Y-106164285D01*
X162756723Y-106164285D02*
X162566247Y-106211904D01*
X162566247Y-106211904D02*
X162423390Y-106211904D01*
X162423390Y-106211904D02*
X162232914Y-106164285D01*
X162232914Y-106164285D02*
X162137676Y-106116666D01*
X162137676Y-106116666D02*
X162042438Y-106021428D01*
X162042438Y-106021428D02*
X161994819Y-105878571D01*
X161994819Y-105878571D02*
X161994819Y-105783333D01*
X161994819Y-105783333D02*
X162042438Y-105640476D01*
X162042438Y-105640476D02*
X162090057Y-105592857D01*
X162994819Y-104640476D02*
X162994819Y-105211904D01*
X162994819Y-104926190D02*
X161994819Y-104926190D01*
X161994819Y-104926190D02*
X162137676Y-105021428D01*
X162137676Y-105021428D02*
X162232914Y-105116666D01*
X162232914Y-105116666D02*
X162280533Y-105211904D01*
X162328152Y-103783333D02*
X162994819Y-103783333D01*
X161947200Y-104021428D02*
X162661485Y-104259523D01*
X162661485Y-104259523D02*
X162661485Y-103640476D01*
X92227142Y-75259580D02*
X92179523Y-75307200D01*
X92179523Y-75307200D02*
X92036666Y-75354819D01*
X92036666Y-75354819D02*
X91941428Y-75354819D01*
X91941428Y-75354819D02*
X91798571Y-75307200D01*
X91798571Y-75307200D02*
X91703333Y-75211961D01*
X91703333Y-75211961D02*
X91655714Y-75116723D01*
X91655714Y-75116723D02*
X91608095Y-74926247D01*
X91608095Y-74926247D02*
X91608095Y-74783390D01*
X91608095Y-74783390D02*
X91655714Y-74592914D01*
X91655714Y-74592914D02*
X91703333Y-74497676D01*
X91703333Y-74497676D02*
X91798571Y-74402438D01*
X91798571Y-74402438D02*
X91941428Y-74354819D01*
X91941428Y-74354819D02*
X92036666Y-74354819D01*
X92036666Y-74354819D02*
X92179523Y-74402438D01*
X92179523Y-74402438D02*
X92227142Y-74450057D01*
X93179523Y-75354819D02*
X92608095Y-75354819D01*
X92893809Y-75354819D02*
X92893809Y-74354819D01*
X92893809Y-74354819D02*
X92798571Y-74497676D01*
X92798571Y-74497676D02*
X92703333Y-74592914D01*
X92703333Y-74592914D02*
X92608095Y-74640533D01*
X93512857Y-74354819D02*
X94179523Y-74354819D01*
X94179523Y-74354819D02*
X93750952Y-75354819D01*
X150365118Y-133744580D02*
X150317499Y-133792200D01*
X150317499Y-133792200D02*
X150174642Y-133839819D01*
X150174642Y-133839819D02*
X150079404Y-133839819D01*
X150079404Y-133839819D02*
X149936547Y-133792200D01*
X149936547Y-133792200D02*
X149841309Y-133696961D01*
X149841309Y-133696961D02*
X149793690Y-133601723D01*
X149793690Y-133601723D02*
X149746071Y-133411247D01*
X149746071Y-133411247D02*
X149746071Y-133268390D01*
X149746071Y-133268390D02*
X149793690Y-133077914D01*
X149793690Y-133077914D02*
X149841309Y-132982676D01*
X149841309Y-132982676D02*
X149936547Y-132887438D01*
X149936547Y-132887438D02*
X150079404Y-132839819D01*
X150079404Y-132839819D02*
X150174642Y-132839819D01*
X150174642Y-132839819D02*
X150317499Y-132887438D01*
X150317499Y-132887438D02*
X150365118Y-132935057D01*
X150746071Y-132935057D02*
X150793690Y-132887438D01*
X150793690Y-132887438D02*
X150888928Y-132839819D01*
X150888928Y-132839819D02*
X151127023Y-132839819D01*
X151127023Y-132839819D02*
X151222261Y-132887438D01*
X151222261Y-132887438D02*
X151269880Y-132935057D01*
X151269880Y-132935057D02*
X151317499Y-133030295D01*
X151317499Y-133030295D02*
X151317499Y-133125533D01*
X151317499Y-133125533D02*
X151269880Y-133268390D01*
X151269880Y-133268390D02*
X150698452Y-133839819D01*
X150698452Y-133839819D02*
X151317499Y-133839819D01*
X152269880Y-133839819D02*
X151698452Y-133839819D01*
X151984166Y-133839819D02*
X151984166Y-132839819D01*
X151984166Y-132839819D02*
X151888928Y-132982676D01*
X151888928Y-132982676D02*
X151793690Y-133077914D01*
X151793690Y-133077914D02*
X151698452Y-133125533D01*
X53964819Y-114298094D02*
X52964819Y-114298094D01*
X52964819Y-114298094D02*
X52964819Y-114059999D01*
X52964819Y-114059999D02*
X53012438Y-113917142D01*
X53012438Y-113917142D02*
X53107676Y-113821904D01*
X53107676Y-113821904D02*
X53202914Y-113774285D01*
X53202914Y-113774285D02*
X53393390Y-113726666D01*
X53393390Y-113726666D02*
X53536247Y-113726666D01*
X53536247Y-113726666D02*
X53726723Y-113774285D01*
X53726723Y-113774285D02*
X53821961Y-113821904D01*
X53821961Y-113821904D02*
X53917200Y-113917142D01*
X53917200Y-113917142D02*
X53964819Y-114059999D01*
X53964819Y-114059999D02*
X53964819Y-114298094D01*
X52964819Y-113393332D02*
X52964819Y-112774285D01*
X52964819Y-112774285D02*
X53345771Y-113107618D01*
X53345771Y-113107618D02*
X53345771Y-112964761D01*
X53345771Y-112964761D02*
X53393390Y-112869523D01*
X53393390Y-112869523D02*
X53441009Y-112821904D01*
X53441009Y-112821904D02*
X53536247Y-112774285D01*
X53536247Y-112774285D02*
X53774342Y-112774285D01*
X53774342Y-112774285D02*
X53869580Y-112821904D01*
X53869580Y-112821904D02*
X53917200Y-112869523D01*
X53917200Y-112869523D02*
X53964819Y-112964761D01*
X53964819Y-112964761D02*
X53964819Y-113250475D01*
X53964819Y-113250475D02*
X53917200Y-113345713D01*
X53917200Y-113345713D02*
X53869580Y-113393332D01*
X54887200Y-62669523D02*
X54934819Y-62526666D01*
X54934819Y-62526666D02*
X54934819Y-62288571D01*
X54934819Y-62288571D02*
X54887200Y-62193333D01*
X54887200Y-62193333D02*
X54839580Y-62145714D01*
X54839580Y-62145714D02*
X54744342Y-62098095D01*
X54744342Y-62098095D02*
X54649104Y-62098095D01*
X54649104Y-62098095D02*
X54553866Y-62145714D01*
X54553866Y-62145714D02*
X54506247Y-62193333D01*
X54506247Y-62193333D02*
X54458628Y-62288571D01*
X54458628Y-62288571D02*
X54411009Y-62479047D01*
X54411009Y-62479047D02*
X54363390Y-62574285D01*
X54363390Y-62574285D02*
X54315771Y-62621904D01*
X54315771Y-62621904D02*
X54220533Y-62669523D01*
X54220533Y-62669523D02*
X54125295Y-62669523D01*
X54125295Y-62669523D02*
X54030057Y-62621904D01*
X54030057Y-62621904D02*
X53982438Y-62574285D01*
X53982438Y-62574285D02*
X53934819Y-62479047D01*
X53934819Y-62479047D02*
X53934819Y-62240952D01*
X53934819Y-62240952D02*
X53982438Y-62098095D01*
X53934819Y-61764761D02*
X54934819Y-61526666D01*
X54934819Y-61526666D02*
X54220533Y-61336190D01*
X54220533Y-61336190D02*
X54934819Y-61145714D01*
X54934819Y-61145714D02*
X53934819Y-60907619D01*
X54934819Y-60002857D02*
X54934819Y-60574285D01*
X54934819Y-60288571D02*
X53934819Y-60288571D01*
X53934819Y-60288571D02*
X54077676Y-60383809D01*
X54077676Y-60383809D02*
X54172914Y-60479047D01*
X54172914Y-60479047D02*
X54220533Y-60574285D01*
X53934819Y-59383809D02*
X53934819Y-59288571D01*
X53934819Y-59288571D02*
X53982438Y-59193333D01*
X53982438Y-59193333D02*
X54030057Y-59145714D01*
X54030057Y-59145714D02*
X54125295Y-59098095D01*
X54125295Y-59098095D02*
X54315771Y-59050476D01*
X54315771Y-59050476D02*
X54553866Y-59050476D01*
X54553866Y-59050476D02*
X54744342Y-59098095D01*
X54744342Y-59098095D02*
X54839580Y-59145714D01*
X54839580Y-59145714D02*
X54887200Y-59193333D01*
X54887200Y-59193333D02*
X54934819Y-59288571D01*
X54934819Y-59288571D02*
X54934819Y-59383809D01*
X54934819Y-59383809D02*
X54887200Y-59479047D01*
X54887200Y-59479047D02*
X54839580Y-59526666D01*
X54839580Y-59526666D02*
X54744342Y-59574285D01*
X54744342Y-59574285D02*
X54553866Y-59621904D01*
X54553866Y-59621904D02*
X54315771Y-59621904D01*
X54315771Y-59621904D02*
X54125295Y-59574285D01*
X54125295Y-59574285D02*
X54030057Y-59526666D01*
X54030057Y-59526666D02*
X53982438Y-59479047D01*
X53982438Y-59479047D02*
X53934819Y-59383809D01*
X61409580Y-49372857D02*
X61457200Y-49420476D01*
X61457200Y-49420476D02*
X61504819Y-49563333D01*
X61504819Y-49563333D02*
X61504819Y-49658571D01*
X61504819Y-49658571D02*
X61457200Y-49801428D01*
X61457200Y-49801428D02*
X61361961Y-49896666D01*
X61361961Y-49896666D02*
X61266723Y-49944285D01*
X61266723Y-49944285D02*
X61076247Y-49991904D01*
X61076247Y-49991904D02*
X60933390Y-49991904D01*
X60933390Y-49991904D02*
X60742914Y-49944285D01*
X60742914Y-49944285D02*
X60647676Y-49896666D01*
X60647676Y-49896666D02*
X60552438Y-49801428D01*
X60552438Y-49801428D02*
X60504819Y-49658571D01*
X60504819Y-49658571D02*
X60504819Y-49563333D01*
X60504819Y-49563333D02*
X60552438Y-49420476D01*
X60552438Y-49420476D02*
X60600057Y-49372857D01*
X60600057Y-48991904D02*
X60552438Y-48944285D01*
X60552438Y-48944285D02*
X60504819Y-48849047D01*
X60504819Y-48849047D02*
X60504819Y-48610952D01*
X60504819Y-48610952D02*
X60552438Y-48515714D01*
X60552438Y-48515714D02*
X60600057Y-48468095D01*
X60600057Y-48468095D02*
X60695295Y-48420476D01*
X60695295Y-48420476D02*
X60790533Y-48420476D01*
X60790533Y-48420476D02*
X60933390Y-48468095D01*
X60933390Y-48468095D02*
X61504819Y-49039523D01*
X61504819Y-49039523D02*
X61504819Y-48420476D01*
X60933390Y-47849047D02*
X60885771Y-47944285D01*
X60885771Y-47944285D02*
X60838152Y-47991904D01*
X60838152Y-47991904D02*
X60742914Y-48039523D01*
X60742914Y-48039523D02*
X60695295Y-48039523D01*
X60695295Y-48039523D02*
X60600057Y-47991904D01*
X60600057Y-47991904D02*
X60552438Y-47944285D01*
X60552438Y-47944285D02*
X60504819Y-47849047D01*
X60504819Y-47849047D02*
X60504819Y-47658571D01*
X60504819Y-47658571D02*
X60552438Y-47563333D01*
X60552438Y-47563333D02*
X60600057Y-47515714D01*
X60600057Y-47515714D02*
X60695295Y-47468095D01*
X60695295Y-47468095D02*
X60742914Y-47468095D01*
X60742914Y-47468095D02*
X60838152Y-47515714D01*
X60838152Y-47515714D02*
X60885771Y-47563333D01*
X60885771Y-47563333D02*
X60933390Y-47658571D01*
X60933390Y-47658571D02*
X60933390Y-47849047D01*
X60933390Y-47849047D02*
X60981009Y-47944285D01*
X60981009Y-47944285D02*
X61028628Y-47991904D01*
X61028628Y-47991904D02*
X61123866Y-48039523D01*
X61123866Y-48039523D02*
X61314342Y-48039523D01*
X61314342Y-48039523D02*
X61409580Y-47991904D01*
X61409580Y-47991904D02*
X61457200Y-47944285D01*
X61457200Y-47944285D02*
X61504819Y-47849047D01*
X61504819Y-47849047D02*
X61504819Y-47658571D01*
X61504819Y-47658571D02*
X61457200Y-47563333D01*
X61457200Y-47563333D02*
X61409580Y-47515714D01*
X61409580Y-47515714D02*
X61314342Y-47468095D01*
X61314342Y-47468095D02*
X61123866Y-47468095D01*
X61123866Y-47468095D02*
X61028628Y-47515714D01*
X61028628Y-47515714D02*
X60981009Y-47563333D01*
X60981009Y-47563333D02*
X60933390Y-47658571D01*
X64244761Y-115210057D02*
X64149523Y-115162438D01*
X64149523Y-115162438D02*
X64054285Y-115067200D01*
X64054285Y-115067200D02*
X63911428Y-114924342D01*
X63911428Y-114924342D02*
X63816190Y-114876723D01*
X63816190Y-114876723D02*
X63720952Y-114876723D01*
X63768571Y-115114819D02*
X63673333Y-115067200D01*
X63673333Y-115067200D02*
X63578095Y-114971961D01*
X63578095Y-114971961D02*
X63530476Y-114781485D01*
X63530476Y-114781485D02*
X63530476Y-114448152D01*
X63530476Y-114448152D02*
X63578095Y-114257676D01*
X63578095Y-114257676D02*
X63673333Y-114162438D01*
X63673333Y-114162438D02*
X63768571Y-114114819D01*
X63768571Y-114114819D02*
X63959047Y-114114819D01*
X63959047Y-114114819D02*
X64054285Y-114162438D01*
X64054285Y-114162438D02*
X64149523Y-114257676D01*
X64149523Y-114257676D02*
X64197142Y-114448152D01*
X64197142Y-114448152D02*
X64197142Y-114781485D01*
X64197142Y-114781485D02*
X64149523Y-114971961D01*
X64149523Y-114971961D02*
X64054285Y-115067200D01*
X64054285Y-115067200D02*
X63959047Y-115114819D01*
X63959047Y-115114819D02*
X63768571Y-115114819D01*
X65149523Y-115114819D02*
X64578095Y-115114819D01*
X64863809Y-115114819D02*
X64863809Y-114114819D01*
X64863809Y-114114819D02*
X64768571Y-114257676D01*
X64768571Y-114257676D02*
X64673333Y-114352914D01*
X64673333Y-114352914D02*
X64578095Y-114400533D01*
X72196666Y-111644819D02*
X72196666Y-112359104D01*
X72196666Y-112359104D02*
X72149047Y-112501961D01*
X72149047Y-112501961D02*
X72053809Y-112597200D01*
X72053809Y-112597200D02*
X71910952Y-112644819D01*
X71910952Y-112644819D02*
X71815714Y-112644819D01*
X72815714Y-112073390D02*
X72720476Y-112025771D01*
X72720476Y-112025771D02*
X72672857Y-111978152D01*
X72672857Y-111978152D02*
X72625238Y-111882914D01*
X72625238Y-111882914D02*
X72625238Y-111835295D01*
X72625238Y-111835295D02*
X72672857Y-111740057D01*
X72672857Y-111740057D02*
X72720476Y-111692438D01*
X72720476Y-111692438D02*
X72815714Y-111644819D01*
X72815714Y-111644819D02*
X73006190Y-111644819D01*
X73006190Y-111644819D02*
X73101428Y-111692438D01*
X73101428Y-111692438D02*
X73149047Y-111740057D01*
X73149047Y-111740057D02*
X73196666Y-111835295D01*
X73196666Y-111835295D02*
X73196666Y-111882914D01*
X73196666Y-111882914D02*
X73149047Y-111978152D01*
X73149047Y-111978152D02*
X73101428Y-112025771D01*
X73101428Y-112025771D02*
X73006190Y-112073390D01*
X73006190Y-112073390D02*
X72815714Y-112073390D01*
X72815714Y-112073390D02*
X72720476Y-112121009D01*
X72720476Y-112121009D02*
X72672857Y-112168628D01*
X72672857Y-112168628D02*
X72625238Y-112263866D01*
X72625238Y-112263866D02*
X72625238Y-112454342D01*
X72625238Y-112454342D02*
X72672857Y-112549580D01*
X72672857Y-112549580D02*
X72720476Y-112597200D01*
X72720476Y-112597200D02*
X72815714Y-112644819D01*
X72815714Y-112644819D02*
X73006190Y-112644819D01*
X73006190Y-112644819D02*
X73101428Y-112597200D01*
X73101428Y-112597200D02*
X73149047Y-112549580D01*
X73149047Y-112549580D02*
X73196666Y-112454342D01*
X73196666Y-112454342D02*
X73196666Y-112263866D01*
X73196666Y-112263866D02*
X73149047Y-112168628D01*
X73149047Y-112168628D02*
X73101428Y-112121009D01*
X73101428Y-112121009D02*
X73006190Y-112073390D01*
X101584819Y-74733333D02*
X102299104Y-74733333D01*
X102299104Y-74733333D02*
X102441961Y-74780952D01*
X102441961Y-74780952D02*
X102537200Y-74876190D01*
X102537200Y-74876190D02*
X102584819Y-75019047D01*
X102584819Y-75019047D02*
X102584819Y-75114285D01*
X101584819Y-74352380D02*
X101584819Y-73733333D01*
X101584819Y-73733333D02*
X101965771Y-74066666D01*
X101965771Y-74066666D02*
X101965771Y-73923809D01*
X101965771Y-73923809D02*
X102013390Y-73828571D01*
X102013390Y-73828571D02*
X102061009Y-73780952D01*
X102061009Y-73780952D02*
X102156247Y-73733333D01*
X102156247Y-73733333D02*
X102394342Y-73733333D01*
X102394342Y-73733333D02*
X102489580Y-73780952D01*
X102489580Y-73780952D02*
X102537200Y-73828571D01*
X102537200Y-73828571D02*
X102584819Y-73923809D01*
X102584819Y-73923809D02*
X102584819Y-74209523D01*
X102584819Y-74209523D02*
X102537200Y-74304761D01*
X102537200Y-74304761D02*
X102489580Y-74352380D01*
X148677142Y-103009580D02*
X148629523Y-103057200D01*
X148629523Y-103057200D02*
X148486666Y-103104819D01*
X148486666Y-103104819D02*
X148391428Y-103104819D01*
X148391428Y-103104819D02*
X148248571Y-103057200D01*
X148248571Y-103057200D02*
X148153333Y-102961961D01*
X148153333Y-102961961D02*
X148105714Y-102866723D01*
X148105714Y-102866723D02*
X148058095Y-102676247D01*
X148058095Y-102676247D02*
X148058095Y-102533390D01*
X148058095Y-102533390D02*
X148105714Y-102342914D01*
X148105714Y-102342914D02*
X148153333Y-102247676D01*
X148153333Y-102247676D02*
X148248571Y-102152438D01*
X148248571Y-102152438D02*
X148391428Y-102104819D01*
X148391428Y-102104819D02*
X148486666Y-102104819D01*
X148486666Y-102104819D02*
X148629523Y-102152438D01*
X148629523Y-102152438D02*
X148677142Y-102200057D01*
X149629523Y-103104819D02*
X149058095Y-103104819D01*
X149343809Y-103104819D02*
X149343809Y-102104819D01*
X149343809Y-102104819D02*
X149248571Y-102247676D01*
X149248571Y-102247676D02*
X149153333Y-102342914D01*
X149153333Y-102342914D02*
X149058095Y-102390533D01*
X150105714Y-103104819D02*
X150296190Y-103104819D01*
X150296190Y-103104819D02*
X150391428Y-103057200D01*
X150391428Y-103057200D02*
X150439047Y-103009580D01*
X150439047Y-103009580D02*
X150534285Y-102866723D01*
X150534285Y-102866723D02*
X150581904Y-102676247D01*
X150581904Y-102676247D02*
X150581904Y-102295295D01*
X150581904Y-102295295D02*
X150534285Y-102200057D01*
X150534285Y-102200057D02*
X150486666Y-102152438D01*
X150486666Y-102152438D02*
X150391428Y-102104819D01*
X150391428Y-102104819D02*
X150200952Y-102104819D01*
X150200952Y-102104819D02*
X150105714Y-102152438D01*
X150105714Y-102152438D02*
X150058095Y-102200057D01*
X150058095Y-102200057D02*
X150010476Y-102295295D01*
X150010476Y-102295295D02*
X150010476Y-102533390D01*
X150010476Y-102533390D02*
X150058095Y-102628628D01*
X150058095Y-102628628D02*
X150105714Y-102676247D01*
X150105714Y-102676247D02*
X150200952Y-102723866D01*
X150200952Y-102723866D02*
X150391428Y-102723866D01*
X150391428Y-102723866D02*
X150486666Y-102676247D01*
X150486666Y-102676247D02*
X150534285Y-102628628D01*
X150534285Y-102628628D02*
X150581904Y-102533390D01*
X91443333Y-71619580D02*
X91395714Y-71667200D01*
X91395714Y-71667200D02*
X91252857Y-71714819D01*
X91252857Y-71714819D02*
X91157619Y-71714819D01*
X91157619Y-71714819D02*
X91014762Y-71667200D01*
X91014762Y-71667200D02*
X90919524Y-71571961D01*
X90919524Y-71571961D02*
X90871905Y-71476723D01*
X90871905Y-71476723D02*
X90824286Y-71286247D01*
X90824286Y-71286247D02*
X90824286Y-71143390D01*
X90824286Y-71143390D02*
X90871905Y-70952914D01*
X90871905Y-70952914D02*
X90919524Y-70857676D01*
X90919524Y-70857676D02*
X91014762Y-70762438D01*
X91014762Y-70762438D02*
X91157619Y-70714819D01*
X91157619Y-70714819D02*
X91252857Y-70714819D01*
X91252857Y-70714819D02*
X91395714Y-70762438D01*
X91395714Y-70762438D02*
X91443333Y-70810057D01*
X92014762Y-71143390D02*
X91919524Y-71095771D01*
X91919524Y-71095771D02*
X91871905Y-71048152D01*
X91871905Y-71048152D02*
X91824286Y-70952914D01*
X91824286Y-70952914D02*
X91824286Y-70905295D01*
X91824286Y-70905295D02*
X91871905Y-70810057D01*
X91871905Y-70810057D02*
X91919524Y-70762438D01*
X91919524Y-70762438D02*
X92014762Y-70714819D01*
X92014762Y-70714819D02*
X92205238Y-70714819D01*
X92205238Y-70714819D02*
X92300476Y-70762438D01*
X92300476Y-70762438D02*
X92348095Y-70810057D01*
X92348095Y-70810057D02*
X92395714Y-70905295D01*
X92395714Y-70905295D02*
X92395714Y-70952914D01*
X92395714Y-70952914D02*
X92348095Y-71048152D01*
X92348095Y-71048152D02*
X92300476Y-71095771D01*
X92300476Y-71095771D02*
X92205238Y-71143390D01*
X92205238Y-71143390D02*
X92014762Y-71143390D01*
X92014762Y-71143390D02*
X91919524Y-71191009D01*
X91919524Y-71191009D02*
X91871905Y-71238628D01*
X91871905Y-71238628D02*
X91824286Y-71333866D01*
X91824286Y-71333866D02*
X91824286Y-71524342D01*
X91824286Y-71524342D02*
X91871905Y-71619580D01*
X91871905Y-71619580D02*
X91919524Y-71667200D01*
X91919524Y-71667200D02*
X92014762Y-71714819D01*
X92014762Y-71714819D02*
X92205238Y-71714819D01*
X92205238Y-71714819D02*
X92300476Y-71667200D01*
X92300476Y-71667200D02*
X92348095Y-71619580D01*
X92348095Y-71619580D02*
X92395714Y-71524342D01*
X92395714Y-71524342D02*
X92395714Y-71333866D01*
X92395714Y-71333866D02*
X92348095Y-71238628D01*
X92348095Y-71238628D02*
X92300476Y-71191009D01*
X92300476Y-71191009D02*
X92205238Y-71143390D01*
X99157142Y-75999580D02*
X99109523Y-76047200D01*
X99109523Y-76047200D02*
X98966666Y-76094819D01*
X98966666Y-76094819D02*
X98871428Y-76094819D01*
X98871428Y-76094819D02*
X98728571Y-76047200D01*
X98728571Y-76047200D02*
X98633333Y-75951961D01*
X98633333Y-75951961D02*
X98585714Y-75856723D01*
X98585714Y-75856723D02*
X98538095Y-75666247D01*
X98538095Y-75666247D02*
X98538095Y-75523390D01*
X98538095Y-75523390D02*
X98585714Y-75332914D01*
X98585714Y-75332914D02*
X98633333Y-75237676D01*
X98633333Y-75237676D02*
X98728571Y-75142438D01*
X98728571Y-75142438D02*
X98871428Y-75094819D01*
X98871428Y-75094819D02*
X98966666Y-75094819D01*
X98966666Y-75094819D02*
X99109523Y-75142438D01*
X99109523Y-75142438D02*
X99157142Y-75190057D01*
X100109523Y-76094819D02*
X99538095Y-76094819D01*
X99823809Y-76094819D02*
X99823809Y-75094819D01*
X99823809Y-75094819D02*
X99728571Y-75237676D01*
X99728571Y-75237676D02*
X99633333Y-75332914D01*
X99633333Y-75332914D02*
X99538095Y-75380533D01*
X100680952Y-75523390D02*
X100585714Y-75475771D01*
X100585714Y-75475771D02*
X100538095Y-75428152D01*
X100538095Y-75428152D02*
X100490476Y-75332914D01*
X100490476Y-75332914D02*
X100490476Y-75285295D01*
X100490476Y-75285295D02*
X100538095Y-75190057D01*
X100538095Y-75190057D02*
X100585714Y-75142438D01*
X100585714Y-75142438D02*
X100680952Y-75094819D01*
X100680952Y-75094819D02*
X100871428Y-75094819D01*
X100871428Y-75094819D02*
X100966666Y-75142438D01*
X100966666Y-75142438D02*
X101014285Y-75190057D01*
X101014285Y-75190057D02*
X101061904Y-75285295D01*
X101061904Y-75285295D02*
X101061904Y-75332914D01*
X101061904Y-75332914D02*
X101014285Y-75428152D01*
X101014285Y-75428152D02*
X100966666Y-75475771D01*
X100966666Y-75475771D02*
X100871428Y-75523390D01*
X100871428Y-75523390D02*
X100680952Y-75523390D01*
X100680952Y-75523390D02*
X100585714Y-75571009D01*
X100585714Y-75571009D02*
X100538095Y-75618628D01*
X100538095Y-75618628D02*
X100490476Y-75713866D01*
X100490476Y-75713866D02*
X100490476Y-75904342D01*
X100490476Y-75904342D02*
X100538095Y-75999580D01*
X100538095Y-75999580D02*
X100585714Y-76047200D01*
X100585714Y-76047200D02*
X100680952Y-76094819D01*
X100680952Y-76094819D02*
X100871428Y-76094819D01*
X100871428Y-76094819D02*
X100966666Y-76047200D01*
X100966666Y-76047200D02*
X101014285Y-75999580D01*
X101014285Y-75999580D02*
X101061904Y-75904342D01*
X101061904Y-75904342D02*
X101061904Y-75713866D01*
X101061904Y-75713866D02*
X101014285Y-75618628D01*
X101014285Y-75618628D02*
X100966666Y-75571009D01*
X100966666Y-75571009D02*
X100871428Y-75523390D01*
X154214819Y-111071904D02*
X155024342Y-111071904D01*
X155024342Y-111071904D02*
X155119580Y-111024285D01*
X155119580Y-111024285D02*
X155167200Y-110976666D01*
X155167200Y-110976666D02*
X155214819Y-110881428D01*
X155214819Y-110881428D02*
X155214819Y-110690952D01*
X155214819Y-110690952D02*
X155167200Y-110595714D01*
X155167200Y-110595714D02*
X155119580Y-110548095D01*
X155119580Y-110548095D02*
X155024342Y-110500476D01*
X155024342Y-110500476D02*
X154214819Y-110500476D01*
X154548152Y-109595714D02*
X155214819Y-109595714D01*
X154167200Y-109833809D02*
X154881485Y-110071904D01*
X154881485Y-110071904D02*
X154881485Y-109452857D01*
X63208095Y-112474819D02*
X63208095Y-113284342D01*
X63208095Y-113284342D02*
X63255714Y-113379580D01*
X63255714Y-113379580D02*
X63303333Y-113427200D01*
X63303333Y-113427200D02*
X63398571Y-113474819D01*
X63398571Y-113474819D02*
X63589047Y-113474819D01*
X63589047Y-113474819D02*
X63684285Y-113427200D01*
X63684285Y-113427200D02*
X63731904Y-113379580D01*
X63731904Y-113379580D02*
X63779523Y-113284342D01*
X63779523Y-113284342D02*
X63779523Y-112474819D01*
X64684285Y-112474819D02*
X64493809Y-112474819D01*
X64493809Y-112474819D02*
X64398571Y-112522438D01*
X64398571Y-112522438D02*
X64350952Y-112570057D01*
X64350952Y-112570057D02*
X64255714Y-112712914D01*
X64255714Y-112712914D02*
X64208095Y-112903390D01*
X64208095Y-112903390D02*
X64208095Y-113284342D01*
X64208095Y-113284342D02*
X64255714Y-113379580D01*
X64255714Y-113379580D02*
X64303333Y-113427200D01*
X64303333Y-113427200D02*
X64398571Y-113474819D01*
X64398571Y-113474819D02*
X64589047Y-113474819D01*
X64589047Y-113474819D02*
X64684285Y-113427200D01*
X64684285Y-113427200D02*
X64731904Y-113379580D01*
X64731904Y-113379580D02*
X64779523Y-113284342D01*
X64779523Y-113284342D02*
X64779523Y-113046247D01*
X64779523Y-113046247D02*
X64731904Y-112951009D01*
X64731904Y-112951009D02*
X64684285Y-112903390D01*
X64684285Y-112903390D02*
X64589047Y-112855771D01*
X64589047Y-112855771D02*
X64398571Y-112855771D01*
X64398571Y-112855771D02*
X64303333Y-112903390D01*
X64303333Y-112903390D02*
X64255714Y-112951009D01*
X64255714Y-112951009D02*
X64208095Y-113046247D01*
X56920476Y-72907200D02*
X57063333Y-72954819D01*
X57063333Y-72954819D02*
X57301428Y-72954819D01*
X57301428Y-72954819D02*
X57396666Y-72907200D01*
X57396666Y-72907200D02*
X57444285Y-72859580D01*
X57444285Y-72859580D02*
X57491904Y-72764342D01*
X57491904Y-72764342D02*
X57491904Y-72669104D01*
X57491904Y-72669104D02*
X57444285Y-72573866D01*
X57444285Y-72573866D02*
X57396666Y-72526247D01*
X57396666Y-72526247D02*
X57301428Y-72478628D01*
X57301428Y-72478628D02*
X57110952Y-72431009D01*
X57110952Y-72431009D02*
X57015714Y-72383390D01*
X57015714Y-72383390D02*
X56968095Y-72335771D01*
X56968095Y-72335771D02*
X56920476Y-72240533D01*
X56920476Y-72240533D02*
X56920476Y-72145295D01*
X56920476Y-72145295D02*
X56968095Y-72050057D01*
X56968095Y-72050057D02*
X57015714Y-72002438D01*
X57015714Y-72002438D02*
X57110952Y-71954819D01*
X57110952Y-71954819D02*
X57349047Y-71954819D01*
X57349047Y-71954819D02*
X57491904Y-72002438D01*
X57825238Y-71954819D02*
X58063333Y-72954819D01*
X58063333Y-72954819D02*
X58253809Y-72240533D01*
X58253809Y-72240533D02*
X58444285Y-72954819D01*
X58444285Y-72954819D02*
X58682381Y-71954819D01*
X59587142Y-72954819D02*
X59015714Y-72954819D01*
X59301428Y-72954819D02*
X59301428Y-71954819D01*
X59301428Y-71954819D02*
X59206190Y-72097676D01*
X59206190Y-72097676D02*
X59110952Y-72192914D01*
X59110952Y-72192914D02*
X59015714Y-72240533D01*
X59968095Y-72050057D02*
X60015714Y-72002438D01*
X60015714Y-72002438D02*
X60110952Y-71954819D01*
X60110952Y-71954819D02*
X60349047Y-71954819D01*
X60349047Y-71954819D02*
X60444285Y-72002438D01*
X60444285Y-72002438D02*
X60491904Y-72050057D01*
X60491904Y-72050057D02*
X60539523Y-72145295D01*
X60539523Y-72145295D02*
X60539523Y-72240533D01*
X60539523Y-72240533D02*
X60491904Y-72383390D01*
X60491904Y-72383390D02*
X59920476Y-72954819D01*
X59920476Y-72954819D02*
X60539523Y-72954819D01*
X64277142Y-120369580D02*
X64229523Y-120417200D01*
X64229523Y-120417200D02*
X64086666Y-120464819D01*
X64086666Y-120464819D02*
X63991428Y-120464819D01*
X63991428Y-120464819D02*
X63848571Y-120417200D01*
X63848571Y-120417200D02*
X63753333Y-120321961D01*
X63753333Y-120321961D02*
X63705714Y-120226723D01*
X63705714Y-120226723D02*
X63658095Y-120036247D01*
X63658095Y-120036247D02*
X63658095Y-119893390D01*
X63658095Y-119893390D02*
X63705714Y-119702914D01*
X63705714Y-119702914D02*
X63753333Y-119607676D01*
X63753333Y-119607676D02*
X63848571Y-119512438D01*
X63848571Y-119512438D02*
X63991428Y-119464819D01*
X63991428Y-119464819D02*
X64086666Y-119464819D01*
X64086666Y-119464819D02*
X64229523Y-119512438D01*
X64229523Y-119512438D02*
X64277142Y-119560057D01*
X64658095Y-119560057D02*
X64705714Y-119512438D01*
X64705714Y-119512438D02*
X64800952Y-119464819D01*
X64800952Y-119464819D02*
X65039047Y-119464819D01*
X65039047Y-119464819D02*
X65134285Y-119512438D01*
X65134285Y-119512438D02*
X65181904Y-119560057D01*
X65181904Y-119560057D02*
X65229523Y-119655295D01*
X65229523Y-119655295D02*
X65229523Y-119750533D01*
X65229523Y-119750533D02*
X65181904Y-119893390D01*
X65181904Y-119893390D02*
X64610476Y-120464819D01*
X64610476Y-120464819D02*
X65229523Y-120464819D01*
X66134285Y-119464819D02*
X65658095Y-119464819D01*
X65658095Y-119464819D02*
X65610476Y-119941009D01*
X65610476Y-119941009D02*
X65658095Y-119893390D01*
X65658095Y-119893390D02*
X65753333Y-119845771D01*
X65753333Y-119845771D02*
X65991428Y-119845771D01*
X65991428Y-119845771D02*
X66086666Y-119893390D01*
X66086666Y-119893390D02*
X66134285Y-119941009D01*
X66134285Y-119941009D02*
X66181904Y-120036247D01*
X66181904Y-120036247D02*
X66181904Y-120274342D01*
X66181904Y-120274342D02*
X66134285Y-120369580D01*
X66134285Y-120369580D02*
X66086666Y-120417200D01*
X66086666Y-120417200D02*
X65991428Y-120464819D01*
X65991428Y-120464819D02*
X65753333Y-120464819D01*
X65753333Y-120464819D02*
X65658095Y-120417200D01*
X65658095Y-120417200D02*
X65610476Y-120369580D01*
X76487142Y-81724819D02*
X76153809Y-81248628D01*
X75915714Y-81724819D02*
X75915714Y-80724819D01*
X75915714Y-80724819D02*
X76296666Y-80724819D01*
X76296666Y-80724819D02*
X76391904Y-80772438D01*
X76391904Y-80772438D02*
X76439523Y-80820057D01*
X76439523Y-80820057D02*
X76487142Y-80915295D01*
X76487142Y-80915295D02*
X76487142Y-81058152D01*
X76487142Y-81058152D02*
X76439523Y-81153390D01*
X76439523Y-81153390D02*
X76391904Y-81201009D01*
X76391904Y-81201009D02*
X76296666Y-81248628D01*
X76296666Y-81248628D02*
X75915714Y-81248628D01*
X77439523Y-81724819D02*
X76868095Y-81724819D01*
X77153809Y-81724819D02*
X77153809Y-80724819D01*
X77153809Y-80724819D02*
X77058571Y-80867676D01*
X77058571Y-80867676D02*
X76963333Y-80962914D01*
X76963333Y-80962914D02*
X76868095Y-81010533D01*
X77772857Y-80724819D02*
X78439523Y-80724819D01*
X78439523Y-80724819D02*
X78010952Y-81724819D01*
X155549879Y-131630180D02*
X155549879Y-130820657D01*
X155549879Y-130820657D02*
X155502260Y-130725419D01*
X155502260Y-130725419D02*
X155454641Y-130677800D01*
X155454641Y-130677800D02*
X155359403Y-130630180D01*
X155359403Y-130630180D02*
X155168927Y-130630180D01*
X155168927Y-130630180D02*
X155073689Y-130677800D01*
X155073689Y-130677800D02*
X155026070Y-130725419D01*
X155026070Y-130725419D02*
X154978451Y-130820657D01*
X154978451Y-130820657D02*
X154978451Y-131630180D01*
X153978451Y-130630180D02*
X154549879Y-130630180D01*
X154264165Y-130630180D02*
X154264165Y-131630180D01*
X154264165Y-131630180D02*
X154359403Y-131487323D01*
X154359403Y-131487323D02*
X154454641Y-131392085D01*
X154454641Y-131392085D02*
X154549879Y-131344466D01*
X61897142Y-59729580D02*
X61849523Y-59777200D01*
X61849523Y-59777200D02*
X61706666Y-59824819D01*
X61706666Y-59824819D02*
X61611428Y-59824819D01*
X61611428Y-59824819D02*
X61468571Y-59777200D01*
X61468571Y-59777200D02*
X61373333Y-59681961D01*
X61373333Y-59681961D02*
X61325714Y-59586723D01*
X61325714Y-59586723D02*
X61278095Y-59396247D01*
X61278095Y-59396247D02*
X61278095Y-59253390D01*
X61278095Y-59253390D02*
X61325714Y-59062914D01*
X61325714Y-59062914D02*
X61373333Y-58967676D01*
X61373333Y-58967676D02*
X61468571Y-58872438D01*
X61468571Y-58872438D02*
X61611428Y-58824819D01*
X61611428Y-58824819D02*
X61706666Y-58824819D01*
X61706666Y-58824819D02*
X61849523Y-58872438D01*
X61849523Y-58872438D02*
X61897142Y-58920057D01*
X62278095Y-58920057D02*
X62325714Y-58872438D01*
X62325714Y-58872438D02*
X62420952Y-58824819D01*
X62420952Y-58824819D02*
X62659047Y-58824819D01*
X62659047Y-58824819D02*
X62754285Y-58872438D01*
X62754285Y-58872438D02*
X62801904Y-58920057D01*
X62801904Y-58920057D02*
X62849523Y-59015295D01*
X62849523Y-59015295D02*
X62849523Y-59110533D01*
X62849523Y-59110533D02*
X62801904Y-59253390D01*
X62801904Y-59253390D02*
X62230476Y-59824819D01*
X62230476Y-59824819D02*
X62849523Y-59824819D01*
X63182857Y-58824819D02*
X63849523Y-58824819D01*
X63849523Y-58824819D02*
X63420952Y-59824819D01*
X76527142Y-94834819D02*
X76193809Y-94358628D01*
X75955714Y-94834819D02*
X75955714Y-93834819D01*
X75955714Y-93834819D02*
X76336666Y-93834819D01*
X76336666Y-93834819D02*
X76431904Y-93882438D01*
X76431904Y-93882438D02*
X76479523Y-93930057D01*
X76479523Y-93930057D02*
X76527142Y-94025295D01*
X76527142Y-94025295D02*
X76527142Y-94168152D01*
X76527142Y-94168152D02*
X76479523Y-94263390D01*
X76479523Y-94263390D02*
X76431904Y-94311009D01*
X76431904Y-94311009D02*
X76336666Y-94358628D01*
X76336666Y-94358628D02*
X75955714Y-94358628D01*
X77479523Y-94834819D02*
X76908095Y-94834819D01*
X77193809Y-94834819D02*
X77193809Y-93834819D01*
X77193809Y-93834819D02*
X77098571Y-93977676D01*
X77098571Y-93977676D02*
X77003333Y-94072914D01*
X77003333Y-94072914D02*
X76908095Y-94120533D01*
X78050952Y-94263390D02*
X77955714Y-94215771D01*
X77955714Y-94215771D02*
X77908095Y-94168152D01*
X77908095Y-94168152D02*
X77860476Y-94072914D01*
X77860476Y-94072914D02*
X77860476Y-94025295D01*
X77860476Y-94025295D02*
X77908095Y-93930057D01*
X77908095Y-93930057D02*
X77955714Y-93882438D01*
X77955714Y-93882438D02*
X78050952Y-93834819D01*
X78050952Y-93834819D02*
X78241428Y-93834819D01*
X78241428Y-93834819D02*
X78336666Y-93882438D01*
X78336666Y-93882438D02*
X78384285Y-93930057D01*
X78384285Y-93930057D02*
X78431904Y-94025295D01*
X78431904Y-94025295D02*
X78431904Y-94072914D01*
X78431904Y-94072914D02*
X78384285Y-94168152D01*
X78384285Y-94168152D02*
X78336666Y-94215771D01*
X78336666Y-94215771D02*
X78241428Y-94263390D01*
X78241428Y-94263390D02*
X78050952Y-94263390D01*
X78050952Y-94263390D02*
X77955714Y-94311009D01*
X77955714Y-94311009D02*
X77908095Y-94358628D01*
X77908095Y-94358628D02*
X77860476Y-94453866D01*
X77860476Y-94453866D02*
X77860476Y-94644342D01*
X77860476Y-94644342D02*
X77908095Y-94739580D01*
X77908095Y-94739580D02*
X77955714Y-94787200D01*
X77955714Y-94787200D02*
X78050952Y-94834819D01*
X78050952Y-94834819D02*
X78241428Y-94834819D01*
X78241428Y-94834819D02*
X78336666Y-94787200D01*
X78336666Y-94787200D02*
X78384285Y-94739580D01*
X78384285Y-94739580D02*
X78431904Y-94644342D01*
X78431904Y-94644342D02*
X78431904Y-94453866D01*
X78431904Y-94453866D02*
X78384285Y-94358628D01*
X78384285Y-94358628D02*
X78336666Y-94311009D01*
X78336666Y-94311009D02*
X78241428Y-94263390D01*
X160857795Y-119156904D02*
X161667318Y-119156904D01*
X161667318Y-119156904D02*
X161762556Y-119109285D01*
X161762556Y-119109285D02*
X161810176Y-119061666D01*
X161810176Y-119061666D02*
X161857795Y-118966428D01*
X161857795Y-118966428D02*
X161857795Y-118775952D01*
X161857795Y-118775952D02*
X161810176Y-118680714D01*
X161810176Y-118680714D02*
X161762556Y-118633095D01*
X161762556Y-118633095D02*
X161667318Y-118585476D01*
X161667318Y-118585476D02*
X160857795Y-118585476D01*
X160857795Y-117633095D02*
X160857795Y-118109285D01*
X160857795Y-118109285D02*
X161333985Y-118156904D01*
X161333985Y-118156904D02*
X161286366Y-118109285D01*
X161286366Y-118109285D02*
X161238747Y-118014047D01*
X161238747Y-118014047D02*
X161238747Y-117775952D01*
X161238747Y-117775952D02*
X161286366Y-117680714D01*
X161286366Y-117680714D02*
X161333985Y-117633095D01*
X161333985Y-117633095D02*
X161429223Y-117585476D01*
X161429223Y-117585476D02*
X161667318Y-117585476D01*
X161667318Y-117585476D02*
X161762556Y-117633095D01*
X161762556Y-117633095D02*
X161810176Y-117680714D01*
X161810176Y-117680714D02*
X161857795Y-117775952D01*
X161857795Y-117775952D02*
X161857795Y-118014047D01*
X161857795Y-118014047D02*
X161810176Y-118109285D01*
X161810176Y-118109285D02*
X161762556Y-118156904D01*
X65653096Y-48144820D02*
X65653096Y-48954343D01*
X65653096Y-48954343D02*
X65700715Y-49049581D01*
X65700715Y-49049581D02*
X65748334Y-49097201D01*
X65748334Y-49097201D02*
X65843572Y-49144820D01*
X65843572Y-49144820D02*
X66034048Y-49144820D01*
X66034048Y-49144820D02*
X66129286Y-49097201D01*
X66129286Y-49097201D02*
X66176905Y-49049581D01*
X66176905Y-49049581D02*
X66224524Y-48954343D01*
X66224524Y-48954343D02*
X66224524Y-48144820D01*
X66748334Y-49144820D02*
X66938810Y-49144820D01*
X66938810Y-49144820D02*
X67034048Y-49097201D01*
X67034048Y-49097201D02*
X67081667Y-49049581D01*
X67081667Y-49049581D02*
X67176905Y-48906724D01*
X67176905Y-48906724D02*
X67224524Y-48716248D01*
X67224524Y-48716248D02*
X67224524Y-48335296D01*
X67224524Y-48335296D02*
X67176905Y-48240058D01*
X67176905Y-48240058D02*
X67129286Y-48192439D01*
X67129286Y-48192439D02*
X67034048Y-48144820D01*
X67034048Y-48144820D02*
X66843572Y-48144820D01*
X66843572Y-48144820D02*
X66748334Y-48192439D01*
X66748334Y-48192439D02*
X66700715Y-48240058D01*
X66700715Y-48240058D02*
X66653096Y-48335296D01*
X66653096Y-48335296D02*
X66653096Y-48573391D01*
X66653096Y-48573391D02*
X66700715Y-48668629D01*
X66700715Y-48668629D02*
X66748334Y-48716248D01*
X66748334Y-48716248D02*
X66843572Y-48763867D01*
X66843572Y-48763867D02*
X67034048Y-48763867D01*
X67034048Y-48763867D02*
X67129286Y-48716248D01*
X67129286Y-48716248D02*
X67176905Y-48668629D01*
X67176905Y-48668629D02*
X67224524Y-48573391D01*
X150397142Y-128659580D02*
X150349523Y-128707200D01*
X150349523Y-128707200D02*
X150206666Y-128754819D01*
X150206666Y-128754819D02*
X150111428Y-128754819D01*
X150111428Y-128754819D02*
X149968571Y-128707200D01*
X149968571Y-128707200D02*
X149873333Y-128611961D01*
X149873333Y-128611961D02*
X149825714Y-128516723D01*
X149825714Y-128516723D02*
X149778095Y-128326247D01*
X149778095Y-128326247D02*
X149778095Y-128183390D01*
X149778095Y-128183390D02*
X149825714Y-127992914D01*
X149825714Y-127992914D02*
X149873333Y-127897676D01*
X149873333Y-127897676D02*
X149968571Y-127802438D01*
X149968571Y-127802438D02*
X150111428Y-127754819D01*
X150111428Y-127754819D02*
X150206666Y-127754819D01*
X150206666Y-127754819D02*
X150349523Y-127802438D01*
X150349523Y-127802438D02*
X150397142Y-127850057D01*
X151349523Y-128754819D02*
X150778095Y-128754819D01*
X151063809Y-128754819D02*
X151063809Y-127754819D01*
X151063809Y-127754819D02*
X150968571Y-127897676D01*
X150968571Y-127897676D02*
X150873333Y-127992914D01*
X150873333Y-127992914D02*
X150778095Y-128040533D01*
X152206666Y-127754819D02*
X152016190Y-127754819D01*
X152016190Y-127754819D02*
X151920952Y-127802438D01*
X151920952Y-127802438D02*
X151873333Y-127850057D01*
X151873333Y-127850057D02*
X151778095Y-127992914D01*
X151778095Y-127992914D02*
X151730476Y-128183390D01*
X151730476Y-128183390D02*
X151730476Y-128564342D01*
X151730476Y-128564342D02*
X151778095Y-128659580D01*
X151778095Y-128659580D02*
X151825714Y-128707200D01*
X151825714Y-128707200D02*
X151920952Y-128754819D01*
X151920952Y-128754819D02*
X152111428Y-128754819D01*
X152111428Y-128754819D02*
X152206666Y-128707200D01*
X152206666Y-128707200D02*
X152254285Y-128659580D01*
X152254285Y-128659580D02*
X152301904Y-128564342D01*
X152301904Y-128564342D02*
X152301904Y-128326247D01*
X152301904Y-128326247D02*
X152254285Y-128231009D01*
X152254285Y-128231009D02*
X152206666Y-128183390D01*
X152206666Y-128183390D02*
X152111428Y-128135771D01*
X152111428Y-128135771D02*
X151920952Y-128135771D01*
X151920952Y-128135771D02*
X151825714Y-128183390D01*
X151825714Y-128183390D02*
X151778095Y-128231009D01*
X151778095Y-128231009D02*
X151730476Y-128326247D01*
X57864819Y-118876666D02*
X57388628Y-119209999D01*
X57864819Y-119448094D02*
X56864819Y-119448094D01*
X56864819Y-119448094D02*
X56864819Y-119067142D01*
X56864819Y-119067142D02*
X56912438Y-118971904D01*
X56912438Y-118971904D02*
X56960057Y-118924285D01*
X56960057Y-118924285D02*
X57055295Y-118876666D01*
X57055295Y-118876666D02*
X57198152Y-118876666D01*
X57198152Y-118876666D02*
X57293390Y-118924285D01*
X57293390Y-118924285D02*
X57341009Y-118971904D01*
X57341009Y-118971904D02*
X57388628Y-119067142D01*
X57388628Y-119067142D02*
X57388628Y-119448094D01*
X57198152Y-118019523D02*
X57864819Y-118019523D01*
X56817200Y-118257618D02*
X57531485Y-118495713D01*
X57531485Y-118495713D02*
X57531485Y-117876666D01*
X164609580Y-115666666D02*
X164657200Y-115714285D01*
X164657200Y-115714285D02*
X164704819Y-115857142D01*
X164704819Y-115857142D02*
X164704819Y-115952380D01*
X164704819Y-115952380D02*
X164657200Y-116095237D01*
X164657200Y-116095237D02*
X164561961Y-116190475D01*
X164561961Y-116190475D02*
X164466723Y-116238094D01*
X164466723Y-116238094D02*
X164276247Y-116285713D01*
X164276247Y-116285713D02*
X164133390Y-116285713D01*
X164133390Y-116285713D02*
X163942914Y-116238094D01*
X163942914Y-116238094D02*
X163847676Y-116190475D01*
X163847676Y-116190475D02*
X163752438Y-116095237D01*
X163752438Y-116095237D02*
X163704819Y-115952380D01*
X163704819Y-115952380D02*
X163704819Y-115857142D01*
X163704819Y-115857142D02*
X163752438Y-115714285D01*
X163752438Y-115714285D02*
X163800057Y-115666666D01*
X163704819Y-115333332D02*
X163704819Y-114666666D01*
X163704819Y-114666666D02*
X164704819Y-115095237D01*
X159997142Y-102749580D02*
X159949523Y-102797200D01*
X159949523Y-102797200D02*
X159806666Y-102844819D01*
X159806666Y-102844819D02*
X159711428Y-102844819D01*
X159711428Y-102844819D02*
X159568571Y-102797200D01*
X159568571Y-102797200D02*
X159473333Y-102701961D01*
X159473333Y-102701961D02*
X159425714Y-102606723D01*
X159425714Y-102606723D02*
X159378095Y-102416247D01*
X159378095Y-102416247D02*
X159378095Y-102273390D01*
X159378095Y-102273390D02*
X159425714Y-102082914D01*
X159425714Y-102082914D02*
X159473333Y-101987676D01*
X159473333Y-101987676D02*
X159568571Y-101892438D01*
X159568571Y-101892438D02*
X159711428Y-101844819D01*
X159711428Y-101844819D02*
X159806666Y-101844819D01*
X159806666Y-101844819D02*
X159949523Y-101892438D01*
X159949523Y-101892438D02*
X159997142Y-101940057D01*
X160378095Y-101940057D02*
X160425714Y-101892438D01*
X160425714Y-101892438D02*
X160520952Y-101844819D01*
X160520952Y-101844819D02*
X160759047Y-101844819D01*
X160759047Y-101844819D02*
X160854285Y-101892438D01*
X160854285Y-101892438D02*
X160901904Y-101940057D01*
X160901904Y-101940057D02*
X160949523Y-102035295D01*
X160949523Y-102035295D02*
X160949523Y-102130533D01*
X160949523Y-102130533D02*
X160901904Y-102273390D01*
X160901904Y-102273390D02*
X160330476Y-102844819D01*
X160330476Y-102844819D02*
X160949523Y-102844819D01*
X161330476Y-101940057D02*
X161378095Y-101892438D01*
X161378095Y-101892438D02*
X161473333Y-101844819D01*
X161473333Y-101844819D02*
X161711428Y-101844819D01*
X161711428Y-101844819D02*
X161806666Y-101892438D01*
X161806666Y-101892438D02*
X161854285Y-101940057D01*
X161854285Y-101940057D02*
X161901904Y-102035295D01*
X161901904Y-102035295D02*
X161901904Y-102130533D01*
X161901904Y-102130533D02*
X161854285Y-102273390D01*
X161854285Y-102273390D02*
X161282857Y-102844819D01*
X161282857Y-102844819D02*
X161901904Y-102844819D01*
X164924819Y-108386666D02*
X164448628Y-108719999D01*
X164924819Y-108958094D02*
X163924819Y-108958094D01*
X163924819Y-108958094D02*
X163924819Y-108577142D01*
X163924819Y-108577142D02*
X163972438Y-108481904D01*
X163972438Y-108481904D02*
X164020057Y-108434285D01*
X164020057Y-108434285D02*
X164115295Y-108386666D01*
X164115295Y-108386666D02*
X164258152Y-108386666D01*
X164258152Y-108386666D02*
X164353390Y-108434285D01*
X164353390Y-108434285D02*
X164401009Y-108481904D01*
X164401009Y-108481904D02*
X164448628Y-108577142D01*
X164448628Y-108577142D02*
X164448628Y-108958094D01*
X163924819Y-108053332D02*
X163924819Y-107434285D01*
X163924819Y-107434285D02*
X164305771Y-107767618D01*
X164305771Y-107767618D02*
X164305771Y-107624761D01*
X164305771Y-107624761D02*
X164353390Y-107529523D01*
X164353390Y-107529523D02*
X164401009Y-107481904D01*
X164401009Y-107481904D02*
X164496247Y-107434285D01*
X164496247Y-107434285D02*
X164734342Y-107434285D01*
X164734342Y-107434285D02*
X164829580Y-107481904D01*
X164829580Y-107481904D02*
X164877200Y-107529523D01*
X164877200Y-107529523D02*
X164924819Y-107624761D01*
X164924819Y-107624761D02*
X164924819Y-107910475D01*
X164924819Y-107910475D02*
X164877200Y-108005713D01*
X164877200Y-108005713D02*
X164829580Y-108053332D01*
X157387142Y-134149580D02*
X157339523Y-134197200D01*
X157339523Y-134197200D02*
X157196666Y-134244819D01*
X157196666Y-134244819D02*
X157101428Y-134244819D01*
X157101428Y-134244819D02*
X156958571Y-134197200D01*
X156958571Y-134197200D02*
X156863333Y-134101961D01*
X156863333Y-134101961D02*
X156815714Y-134006723D01*
X156815714Y-134006723D02*
X156768095Y-133816247D01*
X156768095Y-133816247D02*
X156768095Y-133673390D01*
X156768095Y-133673390D02*
X156815714Y-133482914D01*
X156815714Y-133482914D02*
X156863333Y-133387676D01*
X156863333Y-133387676D02*
X156958571Y-133292438D01*
X156958571Y-133292438D02*
X157101428Y-133244819D01*
X157101428Y-133244819D02*
X157196666Y-133244819D01*
X157196666Y-133244819D02*
X157339523Y-133292438D01*
X157339523Y-133292438D02*
X157387142Y-133340057D01*
X158339523Y-134244819D02*
X157768095Y-134244819D01*
X158053809Y-134244819D02*
X158053809Y-133244819D01*
X158053809Y-133244819D02*
X157958571Y-133387676D01*
X157958571Y-133387676D02*
X157863333Y-133482914D01*
X157863333Y-133482914D02*
X157768095Y-133530533D01*
X158672857Y-133244819D02*
X159291904Y-133244819D01*
X159291904Y-133244819D02*
X158958571Y-133625771D01*
X158958571Y-133625771D02*
X159101428Y-133625771D01*
X159101428Y-133625771D02*
X159196666Y-133673390D01*
X159196666Y-133673390D02*
X159244285Y-133721009D01*
X159244285Y-133721009D02*
X159291904Y-133816247D01*
X159291904Y-133816247D02*
X159291904Y-134054342D01*
X159291904Y-134054342D02*
X159244285Y-134149580D01*
X159244285Y-134149580D02*
X159196666Y-134197200D01*
X159196666Y-134197200D02*
X159101428Y-134244819D01*
X159101428Y-134244819D02*
X158815714Y-134244819D01*
X158815714Y-134244819D02*
X158720476Y-134197200D01*
X158720476Y-134197200D02*
X158672857Y-134149580D01*
X89113333Y-69679580D02*
X89065714Y-69727200D01*
X89065714Y-69727200D02*
X88922857Y-69774819D01*
X88922857Y-69774819D02*
X88827619Y-69774819D01*
X88827619Y-69774819D02*
X88684762Y-69727200D01*
X88684762Y-69727200D02*
X88589524Y-69631961D01*
X88589524Y-69631961D02*
X88541905Y-69536723D01*
X88541905Y-69536723D02*
X88494286Y-69346247D01*
X88494286Y-69346247D02*
X88494286Y-69203390D01*
X88494286Y-69203390D02*
X88541905Y-69012914D01*
X88541905Y-69012914D02*
X88589524Y-68917676D01*
X88589524Y-68917676D02*
X88684762Y-68822438D01*
X88684762Y-68822438D02*
X88827619Y-68774819D01*
X88827619Y-68774819D02*
X88922857Y-68774819D01*
X88922857Y-68774819D02*
X89065714Y-68822438D01*
X89065714Y-68822438D02*
X89113333Y-68870057D01*
X90018095Y-68774819D02*
X89541905Y-68774819D01*
X89541905Y-68774819D02*
X89494286Y-69251009D01*
X89494286Y-69251009D02*
X89541905Y-69203390D01*
X89541905Y-69203390D02*
X89637143Y-69155771D01*
X89637143Y-69155771D02*
X89875238Y-69155771D01*
X89875238Y-69155771D02*
X89970476Y-69203390D01*
X89970476Y-69203390D02*
X90018095Y-69251009D01*
X90018095Y-69251009D02*
X90065714Y-69346247D01*
X90065714Y-69346247D02*
X90065714Y-69584342D01*
X90065714Y-69584342D02*
X90018095Y-69679580D01*
X90018095Y-69679580D02*
X89970476Y-69727200D01*
X89970476Y-69727200D02*
X89875238Y-69774819D01*
X89875238Y-69774819D02*
X89637143Y-69774819D01*
X89637143Y-69774819D02*
X89541905Y-69727200D01*
X89541905Y-69727200D02*
X89494286Y-69679580D01*
X54084819Y-118258094D02*
X53084819Y-118258094D01*
X53084819Y-118258094D02*
X53084819Y-118019999D01*
X53084819Y-118019999D02*
X53132438Y-117877142D01*
X53132438Y-117877142D02*
X53227676Y-117781904D01*
X53227676Y-117781904D02*
X53322914Y-117734285D01*
X53322914Y-117734285D02*
X53513390Y-117686666D01*
X53513390Y-117686666D02*
X53656247Y-117686666D01*
X53656247Y-117686666D02*
X53846723Y-117734285D01*
X53846723Y-117734285D02*
X53941961Y-117781904D01*
X53941961Y-117781904D02*
X54037200Y-117877142D01*
X54037200Y-117877142D02*
X54084819Y-118019999D01*
X54084819Y-118019999D02*
X54084819Y-118258094D01*
X54084819Y-116734285D02*
X54084819Y-117305713D01*
X54084819Y-117019999D02*
X53084819Y-117019999D01*
X53084819Y-117019999D02*
X53227676Y-117115237D01*
X53227676Y-117115237D02*
X53322914Y-117210475D01*
X53322914Y-117210475D02*
X53370533Y-117305713D01*
X76457142Y-99304819D02*
X76123809Y-98828628D01*
X75885714Y-99304819D02*
X75885714Y-98304819D01*
X75885714Y-98304819D02*
X76266666Y-98304819D01*
X76266666Y-98304819D02*
X76361904Y-98352438D01*
X76361904Y-98352438D02*
X76409523Y-98400057D01*
X76409523Y-98400057D02*
X76457142Y-98495295D01*
X76457142Y-98495295D02*
X76457142Y-98638152D01*
X76457142Y-98638152D02*
X76409523Y-98733390D01*
X76409523Y-98733390D02*
X76361904Y-98781009D01*
X76361904Y-98781009D02*
X76266666Y-98828628D01*
X76266666Y-98828628D02*
X75885714Y-98828628D01*
X77409523Y-99304819D02*
X76838095Y-99304819D01*
X77123809Y-99304819D02*
X77123809Y-98304819D01*
X77123809Y-98304819D02*
X77028571Y-98447676D01*
X77028571Y-98447676D02*
X76933333Y-98542914D01*
X76933333Y-98542914D02*
X76838095Y-98590533D01*
X77885714Y-99304819D02*
X78076190Y-99304819D01*
X78076190Y-99304819D02*
X78171428Y-99257200D01*
X78171428Y-99257200D02*
X78219047Y-99209580D01*
X78219047Y-99209580D02*
X78314285Y-99066723D01*
X78314285Y-99066723D02*
X78361904Y-98876247D01*
X78361904Y-98876247D02*
X78361904Y-98495295D01*
X78361904Y-98495295D02*
X78314285Y-98400057D01*
X78314285Y-98400057D02*
X78266666Y-98352438D01*
X78266666Y-98352438D02*
X78171428Y-98304819D01*
X78171428Y-98304819D02*
X77980952Y-98304819D01*
X77980952Y-98304819D02*
X77885714Y-98352438D01*
X77885714Y-98352438D02*
X77838095Y-98400057D01*
X77838095Y-98400057D02*
X77790476Y-98495295D01*
X77790476Y-98495295D02*
X77790476Y-98733390D01*
X77790476Y-98733390D02*
X77838095Y-98828628D01*
X77838095Y-98828628D02*
X77885714Y-98876247D01*
X77885714Y-98876247D02*
X77980952Y-98923866D01*
X77980952Y-98923866D02*
X78171428Y-98923866D01*
X78171428Y-98923866D02*
X78266666Y-98876247D01*
X78266666Y-98876247D02*
X78314285Y-98828628D01*
X78314285Y-98828628D02*
X78361904Y-98733390D01*
X108144819Y-48253333D02*
X108859104Y-48253333D01*
X108859104Y-48253333D02*
X109001961Y-48300952D01*
X109001961Y-48300952D02*
X109097200Y-48396190D01*
X109097200Y-48396190D02*
X109144819Y-48539047D01*
X109144819Y-48539047D02*
X109144819Y-48634285D01*
X109144819Y-47253333D02*
X109144819Y-47824761D01*
X109144819Y-47539047D02*
X108144819Y-47539047D01*
X108144819Y-47539047D02*
X108287676Y-47634285D01*
X108287676Y-47634285D02*
X108382914Y-47729523D01*
X108382914Y-47729523D02*
X108430533Y-47824761D01*
X74372142Y-117629580D02*
X74324523Y-117677200D01*
X74324523Y-117677200D02*
X74181666Y-117724819D01*
X74181666Y-117724819D02*
X74086428Y-117724819D01*
X74086428Y-117724819D02*
X73943571Y-117677200D01*
X73943571Y-117677200D02*
X73848333Y-117581961D01*
X73848333Y-117581961D02*
X73800714Y-117486723D01*
X73800714Y-117486723D02*
X73753095Y-117296247D01*
X73753095Y-117296247D02*
X73753095Y-117153390D01*
X73753095Y-117153390D02*
X73800714Y-116962914D01*
X73800714Y-116962914D02*
X73848333Y-116867676D01*
X73848333Y-116867676D02*
X73943571Y-116772438D01*
X73943571Y-116772438D02*
X74086428Y-116724819D01*
X74086428Y-116724819D02*
X74181666Y-116724819D01*
X74181666Y-116724819D02*
X74324523Y-116772438D01*
X74324523Y-116772438D02*
X74372142Y-116820057D01*
X74753095Y-116820057D02*
X74800714Y-116772438D01*
X74800714Y-116772438D02*
X74895952Y-116724819D01*
X74895952Y-116724819D02*
X75134047Y-116724819D01*
X75134047Y-116724819D02*
X75229285Y-116772438D01*
X75229285Y-116772438D02*
X75276904Y-116820057D01*
X75276904Y-116820057D02*
X75324523Y-116915295D01*
X75324523Y-116915295D02*
X75324523Y-117010533D01*
X75324523Y-117010533D02*
X75276904Y-117153390D01*
X75276904Y-117153390D02*
X74705476Y-117724819D01*
X74705476Y-117724819D02*
X75324523Y-117724819D01*
X76181666Y-116724819D02*
X75991190Y-116724819D01*
X75991190Y-116724819D02*
X75895952Y-116772438D01*
X75895952Y-116772438D02*
X75848333Y-116820057D01*
X75848333Y-116820057D02*
X75753095Y-116962914D01*
X75753095Y-116962914D02*
X75705476Y-117153390D01*
X75705476Y-117153390D02*
X75705476Y-117534342D01*
X75705476Y-117534342D02*
X75753095Y-117629580D01*
X75753095Y-117629580D02*
X75800714Y-117677200D01*
X75800714Y-117677200D02*
X75895952Y-117724819D01*
X75895952Y-117724819D02*
X76086428Y-117724819D01*
X76086428Y-117724819D02*
X76181666Y-117677200D01*
X76181666Y-117677200D02*
X76229285Y-117629580D01*
X76229285Y-117629580D02*
X76276904Y-117534342D01*
X76276904Y-117534342D02*
X76276904Y-117296247D01*
X76276904Y-117296247D02*
X76229285Y-117201009D01*
X76229285Y-117201009D02*
X76181666Y-117153390D01*
X76181666Y-117153390D02*
X76086428Y-117105771D01*
X76086428Y-117105771D02*
X75895952Y-117105771D01*
X75895952Y-117105771D02*
X75800714Y-117153390D01*
X75800714Y-117153390D02*
X75753095Y-117201009D01*
X75753095Y-117201009D02*
X75705476Y-117296247D01*
X87353333Y-56949580D02*
X87305714Y-56997200D01*
X87305714Y-56997200D02*
X87162857Y-57044819D01*
X87162857Y-57044819D02*
X87067619Y-57044819D01*
X87067619Y-57044819D02*
X86924762Y-56997200D01*
X86924762Y-56997200D02*
X86829524Y-56901961D01*
X86829524Y-56901961D02*
X86781905Y-56806723D01*
X86781905Y-56806723D02*
X86734286Y-56616247D01*
X86734286Y-56616247D02*
X86734286Y-56473390D01*
X86734286Y-56473390D02*
X86781905Y-56282914D01*
X86781905Y-56282914D02*
X86829524Y-56187676D01*
X86829524Y-56187676D02*
X86924762Y-56092438D01*
X86924762Y-56092438D02*
X87067619Y-56044819D01*
X87067619Y-56044819D02*
X87162857Y-56044819D01*
X87162857Y-56044819D02*
X87305714Y-56092438D01*
X87305714Y-56092438D02*
X87353333Y-56140057D01*
X88210476Y-56378152D02*
X88210476Y-57044819D01*
X87972381Y-55997200D02*
X87734286Y-56711485D01*
X87734286Y-56711485D02*
X88353333Y-56711485D01*
X75944819Y-62786666D02*
X75944819Y-63262856D01*
X75944819Y-63262856D02*
X74944819Y-63262856D01*
X75944819Y-61929523D02*
X75944819Y-62500951D01*
X75944819Y-62215237D02*
X74944819Y-62215237D01*
X74944819Y-62215237D02*
X75087676Y-62310475D01*
X75087676Y-62310475D02*
X75182914Y-62405713D01*
X75182914Y-62405713D02*
X75230533Y-62500951D01*
X146927142Y-118474580D02*
X146879523Y-118522200D01*
X146879523Y-118522200D02*
X146736666Y-118569819D01*
X146736666Y-118569819D02*
X146641428Y-118569819D01*
X146641428Y-118569819D02*
X146498571Y-118522200D01*
X146498571Y-118522200D02*
X146403333Y-118426961D01*
X146403333Y-118426961D02*
X146355714Y-118331723D01*
X146355714Y-118331723D02*
X146308095Y-118141247D01*
X146308095Y-118141247D02*
X146308095Y-117998390D01*
X146308095Y-117998390D02*
X146355714Y-117807914D01*
X146355714Y-117807914D02*
X146403333Y-117712676D01*
X146403333Y-117712676D02*
X146498571Y-117617438D01*
X146498571Y-117617438D02*
X146641428Y-117569819D01*
X146641428Y-117569819D02*
X146736666Y-117569819D01*
X146736666Y-117569819D02*
X146879523Y-117617438D01*
X146879523Y-117617438D02*
X146927142Y-117665057D01*
X147879523Y-118569819D02*
X147308095Y-118569819D01*
X147593809Y-118569819D02*
X147593809Y-117569819D01*
X147593809Y-117569819D02*
X147498571Y-117712676D01*
X147498571Y-117712676D02*
X147403333Y-117807914D01*
X147403333Y-117807914D02*
X147308095Y-117855533D01*
X148498571Y-117569819D02*
X148593809Y-117569819D01*
X148593809Y-117569819D02*
X148689047Y-117617438D01*
X148689047Y-117617438D02*
X148736666Y-117665057D01*
X148736666Y-117665057D02*
X148784285Y-117760295D01*
X148784285Y-117760295D02*
X148831904Y-117950771D01*
X148831904Y-117950771D02*
X148831904Y-118188866D01*
X148831904Y-118188866D02*
X148784285Y-118379342D01*
X148784285Y-118379342D02*
X148736666Y-118474580D01*
X148736666Y-118474580D02*
X148689047Y-118522200D01*
X148689047Y-118522200D02*
X148593809Y-118569819D01*
X148593809Y-118569819D02*
X148498571Y-118569819D01*
X148498571Y-118569819D02*
X148403333Y-118522200D01*
X148403333Y-118522200D02*
X148355714Y-118474580D01*
X148355714Y-118474580D02*
X148308095Y-118379342D01*
X148308095Y-118379342D02*
X148260476Y-118188866D01*
X148260476Y-118188866D02*
X148260476Y-117950771D01*
X148260476Y-117950771D02*
X148308095Y-117760295D01*
X148308095Y-117760295D02*
X148355714Y-117665057D01*
X148355714Y-117665057D02*
X148403333Y-117617438D01*
X148403333Y-117617438D02*
X148498571Y-117569819D01*
X83894819Y-48432857D02*
X83418628Y-48766190D01*
X83894819Y-49004285D02*
X82894819Y-49004285D01*
X82894819Y-49004285D02*
X82894819Y-48623333D01*
X82894819Y-48623333D02*
X82942438Y-48528095D01*
X82942438Y-48528095D02*
X82990057Y-48480476D01*
X82990057Y-48480476D02*
X83085295Y-48432857D01*
X83085295Y-48432857D02*
X83228152Y-48432857D01*
X83228152Y-48432857D02*
X83323390Y-48480476D01*
X83323390Y-48480476D02*
X83371009Y-48528095D01*
X83371009Y-48528095D02*
X83418628Y-48623333D01*
X83418628Y-48623333D02*
X83418628Y-49004285D01*
X83894819Y-47480476D02*
X83894819Y-48051904D01*
X83894819Y-47766190D02*
X82894819Y-47766190D01*
X82894819Y-47766190D02*
X83037676Y-47861428D01*
X83037676Y-47861428D02*
X83132914Y-47956666D01*
X83132914Y-47956666D02*
X83180533Y-48051904D01*
X82894819Y-46623333D02*
X82894819Y-46813809D01*
X82894819Y-46813809D02*
X82942438Y-46909047D01*
X82942438Y-46909047D02*
X82990057Y-46956666D01*
X82990057Y-46956666D02*
X83132914Y-47051904D01*
X83132914Y-47051904D02*
X83323390Y-47099523D01*
X83323390Y-47099523D02*
X83704342Y-47099523D01*
X83704342Y-47099523D02*
X83799580Y-47051904D01*
X83799580Y-47051904D02*
X83847200Y-47004285D01*
X83847200Y-47004285D02*
X83894819Y-46909047D01*
X83894819Y-46909047D02*
X83894819Y-46718571D01*
X83894819Y-46718571D02*
X83847200Y-46623333D01*
X83847200Y-46623333D02*
X83799580Y-46575714D01*
X83799580Y-46575714D02*
X83704342Y-46528095D01*
X83704342Y-46528095D02*
X83466247Y-46528095D01*
X83466247Y-46528095D02*
X83371009Y-46575714D01*
X83371009Y-46575714D02*
X83323390Y-46623333D01*
X83323390Y-46623333D02*
X83275771Y-46718571D01*
X83275771Y-46718571D02*
X83275771Y-46909047D01*
X83275771Y-46909047D02*
X83323390Y-47004285D01*
X83323390Y-47004285D02*
X83371009Y-47051904D01*
X83371009Y-47051904D02*
X83466247Y-47099523D01*
X76237142Y-76884819D02*
X75903809Y-76408628D01*
X75665714Y-76884819D02*
X75665714Y-75884819D01*
X75665714Y-75884819D02*
X76046666Y-75884819D01*
X76046666Y-75884819D02*
X76141904Y-75932438D01*
X76141904Y-75932438D02*
X76189523Y-75980057D01*
X76189523Y-75980057D02*
X76237142Y-76075295D01*
X76237142Y-76075295D02*
X76237142Y-76218152D01*
X76237142Y-76218152D02*
X76189523Y-76313390D01*
X76189523Y-76313390D02*
X76141904Y-76361009D01*
X76141904Y-76361009D02*
X76046666Y-76408628D01*
X76046666Y-76408628D02*
X75665714Y-76408628D01*
X77189523Y-76884819D02*
X76618095Y-76884819D01*
X76903809Y-76884819D02*
X76903809Y-75884819D01*
X76903809Y-75884819D02*
X76808571Y-76027676D01*
X76808571Y-76027676D02*
X76713333Y-76122914D01*
X76713333Y-76122914D02*
X76618095Y-76170533D01*
X77522857Y-75884819D02*
X78141904Y-75884819D01*
X78141904Y-75884819D02*
X77808571Y-76265771D01*
X77808571Y-76265771D02*
X77951428Y-76265771D01*
X77951428Y-76265771D02*
X78046666Y-76313390D01*
X78046666Y-76313390D02*
X78094285Y-76361009D01*
X78094285Y-76361009D02*
X78141904Y-76456247D01*
X78141904Y-76456247D02*
X78141904Y-76694342D01*
X78141904Y-76694342D02*
X78094285Y-76789580D01*
X78094285Y-76789580D02*
X78046666Y-76837200D01*
X78046666Y-76837200D02*
X77951428Y-76884819D01*
X77951428Y-76884819D02*
X77665714Y-76884819D01*
X77665714Y-76884819D02*
X77570476Y-76837200D01*
X77570476Y-76837200D02*
X77522857Y-76789580D01*
X55207142Y-124939580D02*
X55159523Y-124987200D01*
X55159523Y-124987200D02*
X55016666Y-125034819D01*
X55016666Y-125034819D02*
X54921428Y-125034819D01*
X54921428Y-125034819D02*
X54778571Y-124987200D01*
X54778571Y-124987200D02*
X54683333Y-124891961D01*
X54683333Y-124891961D02*
X54635714Y-124796723D01*
X54635714Y-124796723D02*
X54588095Y-124606247D01*
X54588095Y-124606247D02*
X54588095Y-124463390D01*
X54588095Y-124463390D02*
X54635714Y-124272914D01*
X54635714Y-124272914D02*
X54683333Y-124177676D01*
X54683333Y-124177676D02*
X54778571Y-124082438D01*
X54778571Y-124082438D02*
X54921428Y-124034819D01*
X54921428Y-124034819D02*
X55016666Y-124034819D01*
X55016666Y-124034819D02*
X55159523Y-124082438D01*
X55159523Y-124082438D02*
X55207142Y-124130057D01*
X55588095Y-124130057D02*
X55635714Y-124082438D01*
X55635714Y-124082438D02*
X55730952Y-124034819D01*
X55730952Y-124034819D02*
X55969047Y-124034819D01*
X55969047Y-124034819D02*
X56064285Y-124082438D01*
X56064285Y-124082438D02*
X56111904Y-124130057D01*
X56111904Y-124130057D02*
X56159523Y-124225295D01*
X56159523Y-124225295D02*
X56159523Y-124320533D01*
X56159523Y-124320533D02*
X56111904Y-124463390D01*
X56111904Y-124463390D02*
X55540476Y-125034819D01*
X55540476Y-125034819D02*
X56159523Y-125034819D01*
X57016666Y-124368152D02*
X57016666Y-125034819D01*
X56778571Y-123987200D02*
X56540476Y-124701485D01*
X56540476Y-124701485D02*
X57159523Y-124701485D01*
X56104819Y-110656666D02*
X55628628Y-110989999D01*
X56104819Y-111228094D02*
X55104819Y-111228094D01*
X55104819Y-111228094D02*
X55104819Y-110847142D01*
X55104819Y-110847142D02*
X55152438Y-110751904D01*
X55152438Y-110751904D02*
X55200057Y-110704285D01*
X55200057Y-110704285D02*
X55295295Y-110656666D01*
X55295295Y-110656666D02*
X55438152Y-110656666D01*
X55438152Y-110656666D02*
X55533390Y-110704285D01*
X55533390Y-110704285D02*
X55581009Y-110751904D01*
X55581009Y-110751904D02*
X55628628Y-110847142D01*
X55628628Y-110847142D02*
X55628628Y-111228094D01*
X55104819Y-110323332D02*
X55104819Y-109656666D01*
X55104819Y-109656666D02*
X56104819Y-110085237D01*
X66567142Y-117104819D02*
X66233809Y-116628628D01*
X65995714Y-117104819D02*
X65995714Y-116104819D01*
X65995714Y-116104819D02*
X66376666Y-116104819D01*
X66376666Y-116104819D02*
X66471904Y-116152438D01*
X66471904Y-116152438D02*
X66519523Y-116200057D01*
X66519523Y-116200057D02*
X66567142Y-116295295D01*
X66567142Y-116295295D02*
X66567142Y-116438152D01*
X66567142Y-116438152D02*
X66519523Y-116533390D01*
X66519523Y-116533390D02*
X66471904Y-116581009D01*
X66471904Y-116581009D02*
X66376666Y-116628628D01*
X66376666Y-116628628D02*
X65995714Y-116628628D01*
X67519523Y-117104819D02*
X66948095Y-117104819D01*
X67233809Y-117104819D02*
X67233809Y-116104819D01*
X67233809Y-116104819D02*
X67138571Y-116247676D01*
X67138571Y-116247676D02*
X67043333Y-116342914D01*
X67043333Y-116342914D02*
X66948095Y-116390533D01*
X68138571Y-116104819D02*
X68233809Y-116104819D01*
X68233809Y-116104819D02*
X68329047Y-116152438D01*
X68329047Y-116152438D02*
X68376666Y-116200057D01*
X68376666Y-116200057D02*
X68424285Y-116295295D01*
X68424285Y-116295295D02*
X68471904Y-116485771D01*
X68471904Y-116485771D02*
X68471904Y-116723866D01*
X68471904Y-116723866D02*
X68424285Y-116914342D01*
X68424285Y-116914342D02*
X68376666Y-117009580D01*
X68376666Y-117009580D02*
X68329047Y-117057200D01*
X68329047Y-117057200D02*
X68233809Y-117104819D01*
X68233809Y-117104819D02*
X68138571Y-117104819D01*
X68138571Y-117104819D02*
X68043333Y-117057200D01*
X68043333Y-117057200D02*
X67995714Y-117009580D01*
X67995714Y-117009580D02*
X67948095Y-116914342D01*
X67948095Y-116914342D02*
X67900476Y-116723866D01*
X67900476Y-116723866D02*
X67900476Y-116485771D01*
X67900476Y-116485771D02*
X67948095Y-116295295D01*
X67948095Y-116295295D02*
X67995714Y-116200057D01*
X67995714Y-116200057D02*
X68043333Y-116152438D01*
X68043333Y-116152438D02*
X68138571Y-116104819D01*
X77900057Y-124045238D02*
X77852438Y-124140476D01*
X77852438Y-124140476D02*
X77757200Y-124235714D01*
X77757200Y-124235714D02*
X77614342Y-124378571D01*
X77614342Y-124378571D02*
X77566723Y-124473809D01*
X77566723Y-124473809D02*
X77566723Y-124569047D01*
X77804819Y-124521428D02*
X77757200Y-124616666D01*
X77757200Y-124616666D02*
X77661961Y-124711904D01*
X77661961Y-124711904D02*
X77471485Y-124759523D01*
X77471485Y-124759523D02*
X77138152Y-124759523D01*
X77138152Y-124759523D02*
X76947676Y-124711904D01*
X76947676Y-124711904D02*
X76852438Y-124616666D01*
X76852438Y-124616666D02*
X76804819Y-124521428D01*
X76804819Y-124521428D02*
X76804819Y-124330952D01*
X76804819Y-124330952D02*
X76852438Y-124235714D01*
X76852438Y-124235714D02*
X76947676Y-124140476D01*
X76947676Y-124140476D02*
X77138152Y-124092857D01*
X77138152Y-124092857D02*
X77471485Y-124092857D01*
X77471485Y-124092857D02*
X77661961Y-124140476D01*
X77661961Y-124140476D02*
X77757200Y-124235714D01*
X77757200Y-124235714D02*
X77804819Y-124330952D01*
X77804819Y-124330952D02*
X77804819Y-124521428D01*
X76900057Y-123711904D02*
X76852438Y-123664285D01*
X76852438Y-123664285D02*
X76804819Y-123569047D01*
X76804819Y-123569047D02*
X76804819Y-123330952D01*
X76804819Y-123330952D02*
X76852438Y-123235714D01*
X76852438Y-123235714D02*
X76900057Y-123188095D01*
X76900057Y-123188095D02*
X76995295Y-123140476D01*
X76995295Y-123140476D02*
X77090533Y-123140476D01*
X77090533Y-123140476D02*
X77233390Y-123188095D01*
X77233390Y-123188095D02*
X77804819Y-123759523D01*
X77804819Y-123759523D02*
X77804819Y-123140476D01*
X71164819Y-131633333D02*
X71879104Y-131633333D01*
X71879104Y-131633333D02*
X72021961Y-131680952D01*
X72021961Y-131680952D02*
X72117200Y-131776190D01*
X72117200Y-131776190D02*
X72164819Y-131919047D01*
X72164819Y-131919047D02*
X72164819Y-132014285D01*
X71498152Y-130728571D02*
X72164819Y-130728571D01*
X71117200Y-130966666D02*
X71831485Y-131204761D01*
X71831485Y-131204761D02*
X71831485Y-130585714D01*
X145121604Y-114191190D02*
X145597795Y-114191190D01*
X144597795Y-114524523D02*
X145121604Y-114191190D01*
X145121604Y-114191190D02*
X144597795Y-113857857D01*
X144693033Y-113572142D02*
X144645414Y-113524523D01*
X144645414Y-113524523D02*
X144597795Y-113429285D01*
X144597795Y-113429285D02*
X144597795Y-113191190D01*
X144597795Y-113191190D02*
X144645414Y-113095952D01*
X144645414Y-113095952D02*
X144693033Y-113048333D01*
X144693033Y-113048333D02*
X144788271Y-113000714D01*
X144788271Y-113000714D02*
X144883509Y-113000714D01*
X144883509Y-113000714D02*
X145026366Y-113048333D01*
X145026366Y-113048333D02*
X145597795Y-113619761D01*
X145597795Y-113619761D02*
X145597795Y-113000714D01*
X69434819Y-109656666D02*
X68958628Y-109989999D01*
X69434819Y-110228094D02*
X68434819Y-110228094D01*
X68434819Y-110228094D02*
X68434819Y-109847142D01*
X68434819Y-109847142D02*
X68482438Y-109751904D01*
X68482438Y-109751904D02*
X68530057Y-109704285D01*
X68530057Y-109704285D02*
X68625295Y-109656666D01*
X68625295Y-109656666D02*
X68768152Y-109656666D01*
X68768152Y-109656666D02*
X68863390Y-109704285D01*
X68863390Y-109704285D02*
X68911009Y-109751904D01*
X68911009Y-109751904D02*
X68958628Y-109847142D01*
X68958628Y-109847142D02*
X68958628Y-110228094D01*
X68863390Y-109085237D02*
X68815771Y-109180475D01*
X68815771Y-109180475D02*
X68768152Y-109228094D01*
X68768152Y-109228094D02*
X68672914Y-109275713D01*
X68672914Y-109275713D02*
X68625295Y-109275713D01*
X68625295Y-109275713D02*
X68530057Y-109228094D01*
X68530057Y-109228094D02*
X68482438Y-109180475D01*
X68482438Y-109180475D02*
X68434819Y-109085237D01*
X68434819Y-109085237D02*
X68434819Y-108894761D01*
X68434819Y-108894761D02*
X68482438Y-108799523D01*
X68482438Y-108799523D02*
X68530057Y-108751904D01*
X68530057Y-108751904D02*
X68625295Y-108704285D01*
X68625295Y-108704285D02*
X68672914Y-108704285D01*
X68672914Y-108704285D02*
X68768152Y-108751904D01*
X68768152Y-108751904D02*
X68815771Y-108799523D01*
X68815771Y-108799523D02*
X68863390Y-108894761D01*
X68863390Y-108894761D02*
X68863390Y-109085237D01*
X68863390Y-109085237D02*
X68911009Y-109180475D01*
X68911009Y-109180475D02*
X68958628Y-109228094D01*
X68958628Y-109228094D02*
X69053866Y-109275713D01*
X69053866Y-109275713D02*
X69244342Y-109275713D01*
X69244342Y-109275713D02*
X69339580Y-109228094D01*
X69339580Y-109228094D02*
X69387200Y-109180475D01*
X69387200Y-109180475D02*
X69434819Y-109085237D01*
X69434819Y-109085237D02*
X69434819Y-108894761D01*
X69434819Y-108894761D02*
X69387200Y-108799523D01*
X69387200Y-108799523D02*
X69339580Y-108751904D01*
X69339580Y-108751904D02*
X69244342Y-108704285D01*
X69244342Y-108704285D02*
X69053866Y-108704285D01*
X69053866Y-108704285D02*
X68958628Y-108751904D01*
X68958628Y-108751904D02*
X68911009Y-108799523D01*
X68911009Y-108799523D02*
X68863390Y-108894761D01*
X85513333Y-59529580D02*
X85465714Y-59577200D01*
X85465714Y-59577200D02*
X85322857Y-59624819D01*
X85322857Y-59624819D02*
X85227619Y-59624819D01*
X85227619Y-59624819D02*
X85084762Y-59577200D01*
X85084762Y-59577200D02*
X84989524Y-59481961D01*
X84989524Y-59481961D02*
X84941905Y-59386723D01*
X84941905Y-59386723D02*
X84894286Y-59196247D01*
X84894286Y-59196247D02*
X84894286Y-59053390D01*
X84894286Y-59053390D02*
X84941905Y-58862914D01*
X84941905Y-58862914D02*
X84989524Y-58767676D01*
X84989524Y-58767676D02*
X85084762Y-58672438D01*
X85084762Y-58672438D02*
X85227619Y-58624819D01*
X85227619Y-58624819D02*
X85322857Y-58624819D01*
X85322857Y-58624819D02*
X85465714Y-58672438D01*
X85465714Y-58672438D02*
X85513333Y-58720057D01*
X86465714Y-59624819D02*
X85894286Y-59624819D01*
X86180000Y-59624819D02*
X86180000Y-58624819D01*
X86180000Y-58624819D02*
X86084762Y-58767676D01*
X86084762Y-58767676D02*
X85989524Y-58862914D01*
X85989524Y-58862914D02*
X85894286Y-58910533D01*
X94024819Y-62001904D02*
X94834342Y-62001904D01*
X94834342Y-62001904D02*
X94929580Y-61954285D01*
X94929580Y-61954285D02*
X94977200Y-61906666D01*
X94977200Y-61906666D02*
X95024819Y-61811428D01*
X95024819Y-61811428D02*
X95024819Y-61620952D01*
X95024819Y-61620952D02*
X94977200Y-61525714D01*
X94977200Y-61525714D02*
X94929580Y-61478095D01*
X94929580Y-61478095D02*
X94834342Y-61430476D01*
X94834342Y-61430476D02*
X94024819Y-61430476D01*
X94120057Y-61001904D02*
X94072438Y-60954285D01*
X94072438Y-60954285D02*
X94024819Y-60859047D01*
X94024819Y-60859047D02*
X94024819Y-60620952D01*
X94024819Y-60620952D02*
X94072438Y-60525714D01*
X94072438Y-60525714D02*
X94120057Y-60478095D01*
X94120057Y-60478095D02*
X94215295Y-60430476D01*
X94215295Y-60430476D02*
X94310533Y-60430476D01*
X94310533Y-60430476D02*
X94453390Y-60478095D01*
X94453390Y-60478095D02*
X95024819Y-61049523D01*
X95024819Y-61049523D02*
X95024819Y-60430476D01*
X86987142Y-47324819D02*
X86653809Y-46848628D01*
X86415714Y-47324819D02*
X86415714Y-46324819D01*
X86415714Y-46324819D02*
X86796666Y-46324819D01*
X86796666Y-46324819D02*
X86891904Y-46372438D01*
X86891904Y-46372438D02*
X86939523Y-46420057D01*
X86939523Y-46420057D02*
X86987142Y-46515295D01*
X86987142Y-46515295D02*
X86987142Y-46658152D01*
X86987142Y-46658152D02*
X86939523Y-46753390D01*
X86939523Y-46753390D02*
X86891904Y-46801009D01*
X86891904Y-46801009D02*
X86796666Y-46848628D01*
X86796666Y-46848628D02*
X86415714Y-46848628D01*
X87939523Y-47324819D02*
X87368095Y-47324819D01*
X87653809Y-47324819D02*
X87653809Y-46324819D01*
X87653809Y-46324819D02*
X87558571Y-46467676D01*
X87558571Y-46467676D02*
X87463333Y-46562914D01*
X87463333Y-46562914D02*
X87368095Y-46610533D01*
X88844285Y-46324819D02*
X88368095Y-46324819D01*
X88368095Y-46324819D02*
X88320476Y-46801009D01*
X88320476Y-46801009D02*
X88368095Y-46753390D01*
X88368095Y-46753390D02*
X88463333Y-46705771D01*
X88463333Y-46705771D02*
X88701428Y-46705771D01*
X88701428Y-46705771D02*
X88796666Y-46753390D01*
X88796666Y-46753390D02*
X88844285Y-46801009D01*
X88844285Y-46801009D02*
X88891904Y-46896247D01*
X88891904Y-46896247D02*
X88891904Y-47134342D01*
X88891904Y-47134342D02*
X88844285Y-47229580D01*
X88844285Y-47229580D02*
X88796666Y-47277200D01*
X88796666Y-47277200D02*
X88701428Y-47324819D01*
X88701428Y-47324819D02*
X88463333Y-47324819D01*
X88463333Y-47324819D02*
X88368095Y-47277200D01*
X88368095Y-47277200D02*
X88320476Y-47229580D01*
X65214819Y-123861904D02*
X66024342Y-123861904D01*
X66024342Y-123861904D02*
X66119580Y-123814285D01*
X66119580Y-123814285D02*
X66167200Y-123766666D01*
X66167200Y-123766666D02*
X66214819Y-123671428D01*
X66214819Y-123671428D02*
X66214819Y-123480952D01*
X66214819Y-123480952D02*
X66167200Y-123385714D01*
X66167200Y-123385714D02*
X66119580Y-123338095D01*
X66119580Y-123338095D02*
X66024342Y-123290476D01*
X66024342Y-123290476D02*
X65214819Y-123290476D01*
X65214819Y-122909523D02*
X65214819Y-122242857D01*
X65214819Y-122242857D02*
X66214819Y-122671428D01*
X95452142Y-69609819D02*
X95118809Y-69133628D01*
X94880714Y-69609819D02*
X94880714Y-68609819D01*
X94880714Y-68609819D02*
X95261666Y-68609819D01*
X95261666Y-68609819D02*
X95356904Y-68657438D01*
X95356904Y-68657438D02*
X95404523Y-68705057D01*
X95404523Y-68705057D02*
X95452142Y-68800295D01*
X95452142Y-68800295D02*
X95452142Y-68943152D01*
X95452142Y-68943152D02*
X95404523Y-69038390D01*
X95404523Y-69038390D02*
X95356904Y-69086009D01*
X95356904Y-69086009D02*
X95261666Y-69133628D01*
X95261666Y-69133628D02*
X94880714Y-69133628D01*
X95833095Y-68705057D02*
X95880714Y-68657438D01*
X95880714Y-68657438D02*
X95975952Y-68609819D01*
X95975952Y-68609819D02*
X96214047Y-68609819D01*
X96214047Y-68609819D02*
X96309285Y-68657438D01*
X96309285Y-68657438D02*
X96356904Y-68705057D01*
X96356904Y-68705057D02*
X96404523Y-68800295D01*
X96404523Y-68800295D02*
X96404523Y-68895533D01*
X96404523Y-68895533D02*
X96356904Y-69038390D01*
X96356904Y-69038390D02*
X95785476Y-69609819D01*
X95785476Y-69609819D02*
X96404523Y-69609819D01*
X97356904Y-69609819D02*
X96785476Y-69609819D01*
X97071190Y-69609819D02*
X97071190Y-68609819D01*
X97071190Y-68609819D02*
X96975952Y-68752676D01*
X96975952Y-68752676D02*
X96880714Y-68847914D01*
X96880714Y-68847914D02*
X96785476Y-68895533D01*
X163026666Y-123164819D02*
X163026666Y-123879104D01*
X163026666Y-123879104D02*
X162979047Y-124021961D01*
X162979047Y-124021961D02*
X162883809Y-124117200D01*
X162883809Y-124117200D02*
X162740952Y-124164819D01*
X162740952Y-124164819D02*
X162645714Y-124164819D01*
X163979047Y-123164819D02*
X163502857Y-123164819D01*
X163502857Y-123164819D02*
X163455238Y-123641009D01*
X163455238Y-123641009D02*
X163502857Y-123593390D01*
X163502857Y-123593390D02*
X163598095Y-123545771D01*
X163598095Y-123545771D02*
X163836190Y-123545771D01*
X163836190Y-123545771D02*
X163931428Y-123593390D01*
X163931428Y-123593390D02*
X163979047Y-123641009D01*
X163979047Y-123641009D02*
X164026666Y-123736247D01*
X164026666Y-123736247D02*
X164026666Y-123974342D01*
X164026666Y-123974342D02*
X163979047Y-124069580D01*
X163979047Y-124069580D02*
X163931428Y-124117200D01*
X163931428Y-124117200D02*
X163836190Y-124164819D01*
X163836190Y-124164819D02*
X163598095Y-124164819D01*
X163598095Y-124164819D02*
X163502857Y-124117200D01*
X163502857Y-124117200D02*
X163455238Y-124069580D01*
X148644819Y-105836666D02*
X148168628Y-106169999D01*
X148644819Y-106408094D02*
X147644819Y-106408094D01*
X147644819Y-106408094D02*
X147644819Y-106027142D01*
X147644819Y-106027142D02*
X147692438Y-105931904D01*
X147692438Y-105931904D02*
X147740057Y-105884285D01*
X147740057Y-105884285D02*
X147835295Y-105836666D01*
X147835295Y-105836666D02*
X147978152Y-105836666D01*
X147978152Y-105836666D02*
X148073390Y-105884285D01*
X148073390Y-105884285D02*
X148121009Y-105931904D01*
X148121009Y-105931904D02*
X148168628Y-106027142D01*
X148168628Y-106027142D02*
X148168628Y-106408094D01*
X147644819Y-104931904D02*
X147644819Y-105408094D01*
X147644819Y-105408094D02*
X148121009Y-105455713D01*
X148121009Y-105455713D02*
X148073390Y-105408094D01*
X148073390Y-105408094D02*
X148025771Y-105312856D01*
X148025771Y-105312856D02*
X148025771Y-105074761D01*
X148025771Y-105074761D02*
X148073390Y-104979523D01*
X148073390Y-104979523D02*
X148121009Y-104931904D01*
X148121009Y-104931904D02*
X148216247Y-104884285D01*
X148216247Y-104884285D02*
X148454342Y-104884285D01*
X148454342Y-104884285D02*
X148549580Y-104931904D01*
X148549580Y-104931904D02*
X148597200Y-104979523D01*
X148597200Y-104979523D02*
X148644819Y-105074761D01*
X148644819Y-105074761D02*
X148644819Y-105312856D01*
X148644819Y-105312856D02*
X148597200Y-105408094D01*
X148597200Y-105408094D02*
X148549580Y-105455713D01*
X101058333Y-68549580D02*
X101010714Y-68597200D01*
X101010714Y-68597200D02*
X100867857Y-68644819D01*
X100867857Y-68644819D02*
X100772619Y-68644819D01*
X100772619Y-68644819D02*
X100629762Y-68597200D01*
X100629762Y-68597200D02*
X100534524Y-68501961D01*
X100534524Y-68501961D02*
X100486905Y-68406723D01*
X100486905Y-68406723D02*
X100439286Y-68216247D01*
X100439286Y-68216247D02*
X100439286Y-68073390D01*
X100439286Y-68073390D02*
X100486905Y-67882914D01*
X100486905Y-67882914D02*
X100534524Y-67787676D01*
X100534524Y-67787676D02*
X100629762Y-67692438D01*
X100629762Y-67692438D02*
X100772619Y-67644819D01*
X100772619Y-67644819D02*
X100867857Y-67644819D01*
X100867857Y-67644819D02*
X101010714Y-67692438D01*
X101010714Y-67692438D02*
X101058333Y-67740057D01*
X101915476Y-67644819D02*
X101725000Y-67644819D01*
X101725000Y-67644819D02*
X101629762Y-67692438D01*
X101629762Y-67692438D02*
X101582143Y-67740057D01*
X101582143Y-67740057D02*
X101486905Y-67882914D01*
X101486905Y-67882914D02*
X101439286Y-68073390D01*
X101439286Y-68073390D02*
X101439286Y-68454342D01*
X101439286Y-68454342D02*
X101486905Y-68549580D01*
X101486905Y-68549580D02*
X101534524Y-68597200D01*
X101534524Y-68597200D02*
X101629762Y-68644819D01*
X101629762Y-68644819D02*
X101820238Y-68644819D01*
X101820238Y-68644819D02*
X101915476Y-68597200D01*
X101915476Y-68597200D02*
X101963095Y-68549580D01*
X101963095Y-68549580D02*
X102010714Y-68454342D01*
X102010714Y-68454342D02*
X102010714Y-68216247D01*
X102010714Y-68216247D02*
X101963095Y-68121009D01*
X101963095Y-68121009D02*
X101915476Y-68073390D01*
X101915476Y-68073390D02*
X101820238Y-68025771D01*
X101820238Y-68025771D02*
X101629762Y-68025771D01*
X101629762Y-68025771D02*
X101534524Y-68073390D01*
X101534524Y-68073390D02*
X101486905Y-68121009D01*
X101486905Y-68121009D02*
X101439286Y-68216247D01*
X155546309Y-104629819D02*
X155212976Y-104153628D01*
X154974881Y-104629819D02*
X154974881Y-103629819D01*
X154974881Y-103629819D02*
X155355833Y-103629819D01*
X155355833Y-103629819D02*
X155451071Y-103677438D01*
X155451071Y-103677438D02*
X155498690Y-103725057D01*
X155498690Y-103725057D02*
X155546309Y-103820295D01*
X155546309Y-103820295D02*
X155546309Y-103963152D01*
X155546309Y-103963152D02*
X155498690Y-104058390D01*
X155498690Y-104058390D02*
X155451071Y-104106009D01*
X155451071Y-104106009D02*
X155355833Y-104153628D01*
X155355833Y-104153628D02*
X154974881Y-104153628D01*
X156403452Y-103629819D02*
X156212976Y-103629819D01*
X156212976Y-103629819D02*
X156117738Y-103677438D01*
X156117738Y-103677438D02*
X156070119Y-103725057D01*
X156070119Y-103725057D02*
X155974881Y-103867914D01*
X155974881Y-103867914D02*
X155927262Y-104058390D01*
X155927262Y-104058390D02*
X155927262Y-104439342D01*
X155927262Y-104439342D02*
X155974881Y-104534580D01*
X155974881Y-104534580D02*
X156022500Y-104582200D01*
X156022500Y-104582200D02*
X156117738Y-104629819D01*
X156117738Y-104629819D02*
X156308214Y-104629819D01*
X156308214Y-104629819D02*
X156403452Y-104582200D01*
X156403452Y-104582200D02*
X156451071Y-104534580D01*
X156451071Y-104534580D02*
X156498690Y-104439342D01*
X156498690Y-104439342D02*
X156498690Y-104201247D01*
X156498690Y-104201247D02*
X156451071Y-104106009D01*
X156451071Y-104106009D02*
X156403452Y-104058390D01*
X156403452Y-104058390D02*
X156308214Y-104010771D01*
X156308214Y-104010771D02*
X156117738Y-104010771D01*
X156117738Y-104010771D02*
X156022500Y-104058390D01*
X156022500Y-104058390D02*
X155974881Y-104106009D01*
X155974881Y-104106009D02*
X155927262Y-104201247D01*
X118599580Y-55016666D02*
X118647200Y-55064285D01*
X118647200Y-55064285D02*
X118694819Y-55207142D01*
X118694819Y-55207142D02*
X118694819Y-55302380D01*
X118694819Y-55302380D02*
X118647200Y-55445237D01*
X118647200Y-55445237D02*
X118551961Y-55540475D01*
X118551961Y-55540475D02*
X118456723Y-55588094D01*
X118456723Y-55588094D02*
X118266247Y-55635713D01*
X118266247Y-55635713D02*
X118123390Y-55635713D01*
X118123390Y-55635713D02*
X117932914Y-55588094D01*
X117932914Y-55588094D02*
X117837676Y-55540475D01*
X117837676Y-55540475D02*
X117742438Y-55445237D01*
X117742438Y-55445237D02*
X117694819Y-55302380D01*
X117694819Y-55302380D02*
X117694819Y-55207142D01*
X117694819Y-55207142D02*
X117742438Y-55064285D01*
X117742438Y-55064285D02*
X117790057Y-55016666D01*
X117694819Y-54683332D02*
X117694819Y-54064285D01*
X117694819Y-54064285D02*
X118075771Y-54397618D01*
X118075771Y-54397618D02*
X118075771Y-54254761D01*
X118075771Y-54254761D02*
X118123390Y-54159523D01*
X118123390Y-54159523D02*
X118171009Y-54111904D01*
X118171009Y-54111904D02*
X118266247Y-54064285D01*
X118266247Y-54064285D02*
X118504342Y-54064285D01*
X118504342Y-54064285D02*
X118599580Y-54111904D01*
X118599580Y-54111904D02*
X118647200Y-54159523D01*
X118647200Y-54159523D02*
X118694819Y-54254761D01*
X118694819Y-54254761D02*
X118694819Y-54540475D01*
X118694819Y-54540475D02*
X118647200Y-54635713D01*
X118647200Y-54635713D02*
X118599580Y-54683332D01*
X163574819Y-100619523D02*
X164289104Y-100619523D01*
X164289104Y-100619523D02*
X164431961Y-100667142D01*
X164431961Y-100667142D02*
X164527200Y-100762380D01*
X164527200Y-100762380D02*
X164574819Y-100905237D01*
X164574819Y-100905237D02*
X164574819Y-101000475D01*
X164574819Y-99619523D02*
X164574819Y-100190951D01*
X164574819Y-99905237D02*
X163574819Y-99905237D01*
X163574819Y-99905237D02*
X163717676Y-100000475D01*
X163717676Y-100000475D02*
X163812914Y-100095713D01*
X163812914Y-100095713D02*
X163860533Y-100190951D01*
X163574819Y-99000475D02*
X163574819Y-98905237D01*
X163574819Y-98905237D02*
X163622438Y-98809999D01*
X163622438Y-98809999D02*
X163670057Y-98762380D01*
X163670057Y-98762380D02*
X163765295Y-98714761D01*
X163765295Y-98714761D02*
X163955771Y-98667142D01*
X163955771Y-98667142D02*
X164193866Y-98667142D01*
X164193866Y-98667142D02*
X164384342Y-98714761D01*
X164384342Y-98714761D02*
X164479580Y-98762380D01*
X164479580Y-98762380D02*
X164527200Y-98809999D01*
X164527200Y-98809999D02*
X164574819Y-98905237D01*
X164574819Y-98905237D02*
X164574819Y-99000475D01*
X164574819Y-99000475D02*
X164527200Y-99095713D01*
X164527200Y-99095713D02*
X164479580Y-99143332D01*
X164479580Y-99143332D02*
X164384342Y-99190951D01*
X164384342Y-99190951D02*
X164193866Y-99238570D01*
X164193866Y-99238570D02*
X163955771Y-99238570D01*
X163955771Y-99238570D02*
X163765295Y-99190951D01*
X163765295Y-99190951D02*
X163670057Y-99143332D01*
X163670057Y-99143332D02*
X163622438Y-99095713D01*
X163622438Y-99095713D02*
X163574819Y-99000475D01*
D11*
%TO.C,R14*%
X73532936Y-78035000D02*
X73987064Y-78035000D01*
X73532936Y-79505000D02*
X73987064Y-79505000D01*
%TO.C,R24*%
X88437500Y-52327258D02*
X88437500Y-51852742D01*
X89482500Y-52327258D02*
X89482500Y-51852742D01*
%TO.C,C9*%
X103200000Y-72300580D02*
X103200000Y-72019420D01*
X104220000Y-72300580D02*
X104220000Y-72019420D01*
%TO.C,C20*%
X149602976Y-110010580D02*
X149602976Y-109729420D01*
X150622976Y-110010580D02*
X150622976Y-109729420D01*
%TO.C,R1*%
X56077064Y-120415000D02*
X55622936Y-120415000D01*
X56077064Y-121885000D02*
X55622936Y-121885000D01*
%TO.C,C23*%
X158686728Y-123109500D02*
X158164224Y-123109500D01*
X158686728Y-124579500D02*
X158164224Y-124579500D01*
%TO.C,U3*%
X108570000Y-51810000D02*
X108570000Y-51810000D01*
X108900000Y-52386000D02*
X108900000Y-52386000D01*
X108900000Y-52386000D02*
X114234000Y-52386000D01*
X108900000Y-63054000D02*
X108900000Y-52386000D01*
X108900000Y-63054000D02*
X108900000Y-63054000D01*
X114234000Y-52386000D02*
X114234000Y-63054000D01*
X114234000Y-63054000D02*
X108900000Y-63054000D01*
X108370000Y-53910000D02*
X108034000Y-54150000D01*
X108034000Y-53670000D01*
X108370000Y-53910000D01*
G36*
X108370000Y-53910000D02*
G01*
X108034000Y-54150000D01*
X108034000Y-53670000D01*
X108370000Y-53910000D01*
G37*
%TO.C,C12*%
X160152976Y-115635580D02*
X160152976Y-115354420D01*
X161172976Y-115635580D02*
X161172976Y-115354420D01*
D10*
%TO.C,SW2*%
X81964320Y-98505444D02*
X81964320Y-97505444D01*
X81964320Y-111505444D02*
X81964320Y-110505444D01*
X81964320Y-111505444D02*
X82964320Y-111505444D01*
X82964320Y-97505444D02*
X81964320Y-97505444D01*
X94964320Y-111505444D02*
X95964320Y-111505444D01*
X95964320Y-97505444D02*
X94964320Y-97505444D01*
X95964320Y-97505444D02*
X95964320Y-98505444D01*
X95964320Y-110505444D02*
X95964320Y-111505444D01*
D11*
%TO.C,R12*%
X87715000Y-62652936D02*
X87715000Y-63107064D01*
X89185000Y-62652936D02*
X89185000Y-63107064D01*
D12*
%TO.C,J2*%
X91670000Y-41683000D02*
X91670000Y-43153000D01*
X91670000Y-45412000D02*
X91670000Y-47232500D01*
X100610000Y-41683000D02*
X91670000Y-41683000D01*
X100610000Y-41683000D02*
X100610000Y-43190000D01*
X100610000Y-45375000D02*
X100610000Y-47270000D01*
D11*
%TO.C,Y1*%
X94660000Y-71700000D02*
X94660000Y-75820000D01*
X98080000Y-71700000D02*
X94660000Y-71700000D01*
%TO.C,R9*%
X67762500Y-126547742D02*
X67762500Y-127022258D01*
X68807500Y-126547742D02*
X68807500Y-127022258D01*
D10*
%TO.C,SW7*%
X120064320Y-79455444D02*
X120064320Y-78455444D01*
X120064320Y-92455444D02*
X120064320Y-91455444D01*
X120064320Y-92455444D02*
X121064320Y-92455444D01*
X121064320Y-78455444D02*
X120064320Y-78455444D01*
X133064320Y-92455444D02*
X134064320Y-92455444D01*
X134064320Y-78455444D02*
X133064320Y-78455444D01*
X134064320Y-78455444D02*
X134064320Y-79455444D01*
X134064320Y-91455444D02*
X134064320Y-92455444D01*
D11*
%TO.C,C30*%
X70174420Y-47230000D02*
X70455580Y-47230000D01*
X70174420Y-48250000D02*
X70455580Y-48250000D01*
%TO.C,R20*%
X73412936Y-95895000D02*
X73867064Y-95895000D01*
X73412936Y-97365000D02*
X73867064Y-97365000D01*
D10*
%TO.C,SW6*%
X101014320Y-117555444D02*
X101014320Y-116555444D01*
X101014320Y-130555444D02*
X101014320Y-129555444D01*
X101014320Y-130555444D02*
X102014320Y-130555444D01*
X102014320Y-116555444D02*
X101014320Y-116555444D01*
X114014320Y-130555444D02*
X115014320Y-130555444D01*
X115014320Y-116555444D02*
X114014320Y-116555444D01*
X115014320Y-116555444D02*
X115014320Y-117555444D01*
X115014320Y-129555444D02*
X115014320Y-130555444D01*
%TO.C,SW3*%
X81964320Y-117555444D02*
X81964320Y-116555444D01*
X81964320Y-130555444D02*
X81964320Y-129555444D01*
X81964320Y-130555444D02*
X82964320Y-130555444D01*
X82964320Y-116555444D02*
X81964320Y-116555444D01*
X94964320Y-130555444D02*
X95964320Y-130555444D01*
X95964320Y-116555444D02*
X94964320Y-116555444D01*
X95964320Y-116555444D02*
X95964320Y-117555444D01*
X95964320Y-129555444D02*
X95964320Y-130555444D01*
D11*
%TO.C,R23*%
X85785000Y-52317064D02*
X85785000Y-51862936D01*
X87255000Y-52317064D02*
X87255000Y-51862936D01*
%TO.C,U10*%
D13*
X60861181Y-61775000D02*
X63851181Y-61775000D01*
X63851181Y-63585000D01*
X60861181Y-63585000D01*
X60861181Y-61775000D01*
X61173542Y-61625000D02*
G75*
G02*
X61128820Y-61625000I-22361J0D01*
G01*
X61128820Y-61625000D02*
G75*
G02*
X61173542Y-61625000I22361J0D01*
G01*
D11*
%TO.C,R2*%
X94092742Y-54177500D02*
X94567258Y-54177500D01*
X94092742Y-55222500D02*
X94567258Y-55222500D01*
%TO.C,C15*%
X147492396Y-110195000D02*
X147773556Y-110195000D01*
X147492396Y-111215000D02*
X147773556Y-111215000D01*
%TO.C,R11*%
X104035000Y-58957064D02*
X104035000Y-58502936D01*
X105505000Y-58957064D02*
X105505000Y-58502936D01*
%TO.C,SW13*%
X55020000Y-92850000D02*
X55620000Y-92850000D01*
X55320000Y-93150000D02*
X55020000Y-92850000D01*
X55620000Y-92850000D02*
X55320000Y-93150000D01*
X56120000Y-90650000D02*
X56120000Y-93150000D01*
X56120000Y-103250000D02*
X56120000Y-100450000D01*
X60920000Y-90650000D02*
X56120000Y-90650000D01*
X61020000Y-103250000D02*
X56120000Y-103250000D01*
X62320000Y-96950000D02*
X63320000Y-96950000D01*
X62820000Y-96450000D02*
X62820000Y-97450000D01*
X64620000Y-90650000D02*
X69520000Y-90650000D01*
X69520000Y-90650000D02*
X69520000Y-93250000D01*
X69520000Y-95650000D02*
X69520000Y-98250000D01*
X69520000Y-100650000D02*
X69520000Y-103250000D01*
X69520000Y-103250000D02*
X64620000Y-103250000D01*
X65820000Y-96950000D02*
G75*
G02*
X59820000Y-96950000I-3000000J0D01*
G01*
X59820000Y-96950000D02*
G75*
G02*
X65820000Y-96950000I3000000J0D01*
G01*
%TO.C,C31*%
X62511252Y-64145000D02*
X61988748Y-64145000D01*
X62511252Y-65615000D02*
X61988748Y-65615000D01*
%TO.C,C2*%
X102439420Y-54490000D02*
X102720580Y-54490000D01*
X102439420Y-55510000D02*
X102720580Y-55510000D01*
%TO.C,C29*%
X70174420Y-49230000D02*
X70455580Y-49230000D01*
X70174420Y-50250000D02*
X70455580Y-50250000D01*
%TO.C,C14*%
X160472976Y-105415580D02*
X160472976Y-105134420D01*
X161492976Y-105415580D02*
X161492976Y-105134420D01*
%TO.C,C17*%
X93010000Y-72209420D02*
X93010000Y-72490580D01*
X94030000Y-72209420D02*
X94030000Y-72490580D01*
D10*
%TO.C,SW9*%
X120064320Y-117555444D02*
X120064320Y-116555444D01*
X120064320Y-130555444D02*
X120064320Y-129555444D01*
X120064320Y-130555444D02*
X121064320Y-130555444D01*
X121064320Y-116555444D02*
X120064320Y-116555444D01*
X133064320Y-130555444D02*
X134064320Y-130555444D01*
X134064320Y-116555444D02*
X133064320Y-116555444D01*
X134064320Y-116555444D02*
X134064320Y-117555444D01*
X134064320Y-129555444D02*
X134064320Y-130555444D01*
D11*
%TO.C,C21*%
X151148556Y-131445000D02*
X150867396Y-131445000D01*
X151148556Y-132465000D02*
X150867396Y-132465000D01*
%TO.C,D3*%
X54415000Y-111845000D02*
X54415000Y-114530000D01*
X56335000Y-111845000D02*
X54415000Y-111845000D01*
X56335000Y-114530000D02*
X56335000Y-111845000D01*
%TO.C,C28*%
X62305000Y-48428748D02*
X62305000Y-48951252D01*
X63775000Y-48428748D02*
X63775000Y-48951252D01*
%TO.C,Q1*%
X60097500Y-113040000D02*
X61917500Y-113040000D01*
X60097500Y-113090000D02*
X60097500Y-113040000D01*
X60097500Y-114990000D02*
X60097500Y-114210000D01*
X60097500Y-116160000D02*
X60097500Y-116110000D01*
X61917500Y-113040000D02*
X61917500Y-114040000D01*
X61917500Y-115160000D02*
X61917500Y-116160000D01*
X61917500Y-116160000D02*
X60097500Y-116160000D01*
X59797500Y-114550000D02*
X59317500Y-114550000D01*
X59557500Y-114220000D01*
X59797500Y-114550000D01*
G36*
X59797500Y-114550000D02*
G01*
X59317500Y-114550000D01*
X59557500Y-114220000D01*
X59797500Y-114550000D01*
G37*
%TO.C,C19*%
X152393556Y-102105000D02*
X152112396Y-102105000D01*
X152393556Y-103125000D02*
X152112396Y-103125000D01*
%TO.C,C8*%
X92640580Y-69080000D02*
X92359420Y-69080000D01*
X92640580Y-70100000D02*
X92359420Y-70100000D01*
%TO.C,C18*%
X98760000Y-73265580D02*
X98760000Y-72984420D01*
X99780000Y-73265580D02*
X99780000Y-72984420D01*
%TO.C,U4*%
X152812976Y-106395000D02*
X153262976Y-106395000D01*
X152812976Y-106845000D02*
X152812976Y-106395000D01*
X152812976Y-113615000D02*
X152812976Y-113165000D01*
X153262976Y-113615000D02*
X152812976Y-113615000D01*
X159582976Y-106395000D02*
X160032976Y-106395000D01*
X160032976Y-106395000D02*
X160032976Y-106845000D01*
X160032976Y-113165000D02*
X160032976Y-113615000D01*
X160032976Y-113615000D02*
X159582976Y-113615000D01*
X153262976Y-114255000D02*
X152792976Y-114595000D01*
X152792976Y-113915000D01*
X153262976Y-114255000D01*
G36*
X153262976Y-114255000D02*
G01*
X152792976Y-114595000D01*
X152792976Y-113915000D01*
X153262976Y-114255000D01*
G37*
%TO.C,U6*%
X60490000Y-106900000D02*
X64610000Y-106900000D01*
X60490000Y-106995000D02*
X60490000Y-106900000D01*
X60490000Y-112020000D02*
X60490000Y-111925000D01*
X64610000Y-106900000D02*
X64610000Y-106995000D01*
X64610000Y-111925000D02*
X64610000Y-112020000D01*
X64610000Y-112020000D02*
X60490000Y-112020000D01*
X65390000Y-112260000D02*
X64910000Y-112260000D01*
X65150000Y-111930000D01*
X65390000Y-112260000D01*
G36*
X65390000Y-112260000D02*
G01*
X64910000Y-112260000D01*
X65150000Y-111930000D01*
X65390000Y-112260000D01*
G37*
%TO.C,SW12*%
X54970000Y-75750000D02*
X55570000Y-75750000D01*
X55270000Y-76050000D02*
X54970000Y-75750000D01*
X55570000Y-75750000D02*
X55270000Y-76050000D01*
X56070000Y-73550000D02*
X56070000Y-76050000D01*
X56070000Y-86150000D02*
X56070000Y-83350000D01*
X60870000Y-73550000D02*
X56070000Y-73550000D01*
X60970000Y-86150000D02*
X56070000Y-86150000D01*
X62270000Y-79850000D02*
X63270000Y-79850000D01*
X62770000Y-79350000D02*
X62770000Y-80350000D01*
X64570000Y-73550000D02*
X69470000Y-73550000D01*
X69470000Y-73550000D02*
X69470000Y-76150000D01*
X69470000Y-78550000D02*
X69470000Y-81150000D01*
X69470000Y-83550000D02*
X69470000Y-86150000D01*
X69470000Y-86150000D02*
X64570000Y-86150000D01*
X65770000Y-79850000D02*
G75*
G02*
X59770000Y-79850000I-3000000J0D01*
G01*
X59770000Y-79850000D02*
G75*
G02*
X65770000Y-79850000I3000000J0D01*
G01*
D10*
%TO.C,SW5*%
X101014320Y-98505444D02*
X101014320Y-97505444D01*
X101014320Y-111505444D02*
X101014320Y-110505444D01*
X101014320Y-111505444D02*
X102014320Y-111505444D01*
X102014320Y-97505444D02*
X101014320Y-97505444D01*
X114014320Y-111505444D02*
X115014320Y-111505444D01*
X115014320Y-97505444D02*
X114014320Y-97505444D01*
X115014320Y-97505444D02*
X115014320Y-98505444D01*
X115014320Y-110505444D02*
X115014320Y-111505444D01*
D11*
%TO.C,C25*%
X68200580Y-119450000D02*
X67919420Y-119450000D01*
X68200580Y-120470000D02*
X67919420Y-120470000D01*
%TO.C,R17*%
X73552936Y-80565000D02*
X74007064Y-80565000D01*
X73552936Y-82035000D02*
X74007064Y-82035000D01*
D14*
%TO.C,U1*%
X155187974Y-129535001D02*
X154412972Y-129535001D01*
X156412976Y-132634999D02*
X154437976Y-132634999D01*
D11*
%TO.C,C27*%
X62680580Y-60260000D02*
X62399420Y-60260000D01*
X62680580Y-61280000D02*
X62399420Y-61280000D01*
%TO.C,R18*%
X73382936Y-93715000D02*
X73837064Y-93715000D01*
X73382936Y-95185000D02*
X73837064Y-95185000D01*
%TO.C,U5*%
X149258976Y-117125000D02*
X149258976Y-117125000D01*
X149258976Y-117125000D02*
X159926976Y-117125000D01*
X149258976Y-122459000D02*
X149258976Y-117125000D01*
X159926976Y-117125000D02*
X159926976Y-117125000D01*
X159926976Y-117125000D02*
X159926976Y-122459000D01*
X159926976Y-122459000D02*
X149258976Y-122459000D01*
X160502976Y-116795000D02*
X160502976Y-116795000D01*
X158402976Y-116595000D02*
X158162976Y-116259000D01*
X158642976Y-116259000D01*
X158402976Y-116595000D01*
G36*
X158402976Y-116595000D02*
G01*
X158162976Y-116259000D01*
X158642976Y-116259000D01*
X158402976Y-116595000D01*
G37*
D10*
%TO.C,SW1*%
X81964320Y-79455444D02*
X81964320Y-78455444D01*
X81964320Y-92455444D02*
X81964320Y-91455444D01*
X81964320Y-92455444D02*
X82964320Y-92455444D01*
X82964320Y-78455444D02*
X81964320Y-78455444D01*
X94964320Y-92455444D02*
X95964320Y-92455444D01*
X95964320Y-78455444D02*
X94964320Y-78455444D01*
X95964320Y-78455444D02*
X95964320Y-79455444D01*
X95964320Y-91455444D02*
X95964320Y-92455444D01*
D14*
%TO.C,U9*%
X64790000Y-47140002D02*
X66765000Y-47140002D01*
X66015002Y-50240000D02*
X66790004Y-50240000D01*
D11*
%TO.C,C16*%
X151098556Y-129635000D02*
X150817396Y-129635000D01*
X151098556Y-130655000D02*
X150817396Y-130655000D01*
%TO.C,R4*%
X56852500Y-115762742D02*
X56852500Y-116237258D01*
X57897500Y-115762742D02*
X57897500Y-116237258D01*
%TO.C,C7*%
X161817976Y-115846252D02*
X161817976Y-115323748D01*
X163287976Y-115846252D02*
X163287976Y-115323748D01*
%TO.C,C22*%
X160232976Y-100085580D02*
X160232976Y-99804420D01*
X161252976Y-100085580D02*
X161252976Y-99804420D01*
%TO.C,R3*%
X162087976Y-108569564D02*
X162087976Y-108115436D01*
X163557976Y-108569564D02*
X163557976Y-108115436D01*
D10*
%TO.C,SW4*%
X101014320Y-79455444D02*
X101014320Y-78455444D01*
X101014320Y-92455444D02*
X101014320Y-91455444D01*
X101014320Y-92455444D02*
X102014320Y-92455444D01*
X102014320Y-78455444D02*
X101014320Y-78455444D01*
X114014320Y-92455444D02*
X115014320Y-92455444D01*
X115014320Y-78455444D02*
X114014320Y-78455444D01*
X115014320Y-78455444D02*
X115014320Y-79455444D01*
X115014320Y-91455444D02*
X115014320Y-92455444D01*
D11*
%TO.C,C13*%
X157367976Y-130803748D02*
X157367976Y-131326252D01*
X158837976Y-130803748D02*
X158837976Y-131326252D01*
%TO.C,C5*%
X89530580Y-67280000D02*
X89249420Y-67280000D01*
X89530580Y-68300000D02*
X89249420Y-68300000D01*
%TO.C,D1*%
X54445000Y-116075000D02*
X54445000Y-118760000D01*
X56365000Y-116075000D02*
X54445000Y-116075000D01*
X56365000Y-118760000D02*
X56365000Y-116075000D01*
%TO.C,R19*%
X73402936Y-98085000D02*
X73857064Y-98085000D01*
X73402936Y-99555000D02*
X73857064Y-99555000D01*
%TO.C,J1*%
X109690000Y-49300000D02*
X109690000Y-47920000D01*
X111070000Y-49300000D02*
X109690000Y-49300000D01*
X112340000Y-46540000D02*
X120070000Y-46540000D01*
X112340000Y-49300000D02*
X112340000Y-46540000D01*
X112340000Y-49300000D02*
X120070000Y-49300000D01*
X120070000Y-49300000D02*
X120070000Y-46540000D01*
%TO.C,C26*%
X74753748Y-118215000D02*
X75276252Y-118215000D01*
X74753748Y-119685000D02*
X75276252Y-119685000D01*
%TO.C,R22*%
X151260234Y-113642500D02*
X150785718Y-113642500D01*
X151260234Y-114687500D02*
X150785718Y-114687500D01*
%TO.C,C4*%
X90340580Y-56020000D02*
X90059420Y-56020000D01*
X90340580Y-57040000D02*
X90059420Y-57040000D01*
%TO.C,L1*%
X64200000Y-57130000D02*
X67400000Y-57130000D01*
X64200000Y-67730000D02*
X64200000Y-57130000D01*
X67400000Y-67730000D02*
X64200000Y-67730000D01*
X71600000Y-57130000D02*
X74800000Y-57130000D01*
X74800000Y-57130000D02*
X74800000Y-67730000D01*
X74800000Y-67730000D02*
X71600000Y-67730000D01*
%TO.C,C10*%
X147753556Y-116175000D02*
X147472396Y-116175000D01*
X147753556Y-117195000D02*
X147472396Y-117195000D01*
%TO.C,R16*%
X84457500Y-48117258D02*
X84457500Y-47642742D01*
X85502500Y-48117258D02*
X85502500Y-47642742D01*
%TO.C,R13*%
X73482936Y-75685000D02*
X73937064Y-75685000D01*
X73482936Y-77155000D02*
X73937064Y-77155000D01*
%TO.C,C24*%
X55990580Y-122640000D02*
X55709420Y-122640000D01*
X55990580Y-123660000D02*
X55709420Y-123660000D01*
%TO.C,R7*%
X56852500Y-111515242D02*
X56852500Y-111989758D01*
X57897500Y-111515242D02*
X57897500Y-111989758D01*
%TO.C,R10*%
X68222742Y-117437500D02*
X68697258Y-117437500D01*
X68222742Y-118482500D02*
X68697258Y-118482500D01*
D15*
%TO.C,Q2*%
X73435000Y-121930000D02*
X73435000Y-126430000D01*
X76465000Y-121930000D02*
X76465000Y-126430000D01*
D14*
X77050000Y-121680000D02*
G75*
G02*
X76850000Y-121680000I-100000J0D01*
G01*
X76850000Y-121680000D02*
G75*
G02*
X77050000Y-121680000I100000J0D01*
G01*
D11*
%TO.C,J4*%
X60330000Y-129920000D02*
X60330000Y-132680000D01*
X68060000Y-129920000D02*
X60330000Y-129920000D01*
X68060000Y-129920000D02*
X68060000Y-132680000D01*
X68060000Y-132680000D02*
X60330000Y-132680000D01*
X69330000Y-129920000D02*
X70710000Y-129920000D01*
X70710000Y-129920000D02*
X70710000Y-131300000D01*
%TO.C,Y2*%
X145882976Y-115775000D02*
X149302976Y-115775000D01*
X149302976Y-115775000D02*
X149302976Y-111655000D01*
%TO.C,R8*%
X66982500Y-109717258D02*
X66982500Y-109242742D01*
X68027500Y-109717258D02*
X68027500Y-109242742D01*
%TO.C,C1*%
X88631252Y-58445000D02*
X88108748Y-58445000D01*
X88631252Y-59915000D02*
X88108748Y-59915000D01*
%TO.C,U2*%
X93010000Y-57625000D02*
X93460000Y-57625000D01*
X93010000Y-58075000D02*
X93010000Y-57625000D01*
X93010000Y-64845000D02*
X93010000Y-64395000D01*
X93460000Y-64845000D02*
X93010000Y-64845000D01*
X99780000Y-57625000D02*
X100230000Y-57625000D01*
X100230000Y-57625000D02*
X100230000Y-58075000D01*
X100230000Y-64395000D02*
X100230000Y-64845000D01*
X100230000Y-64845000D02*
X99780000Y-64845000D01*
X93460000Y-65485000D02*
X92990000Y-65825000D01*
X92990000Y-65145000D01*
X93460000Y-65485000D01*
G36*
X93460000Y-65485000D02*
G01*
X92990000Y-65825000D01*
X92990000Y-65145000D01*
X93460000Y-65485000D01*
G37*
%TO.C,R15*%
X87232742Y-47917500D02*
X87707258Y-47917500D01*
X87232742Y-48962500D02*
X87707258Y-48962500D01*
%TO.C,U7*%
X66725000Y-122187500D02*
X66775000Y-122187500D01*
X66725000Y-124007500D02*
X66725000Y-122187500D01*
X66775000Y-124007500D02*
X66725000Y-124007500D01*
X69795000Y-122187500D02*
X69845000Y-122187500D01*
X69845000Y-122187500D02*
X69845000Y-124007500D01*
X69845000Y-124007500D02*
X69795000Y-124007500D01*
X66775000Y-124547500D02*
X66445000Y-124787500D01*
X66445000Y-124307500D01*
X66775000Y-124547500D01*
G36*
X66775000Y-124547500D02*
G01*
X66445000Y-124787500D01*
X66445000Y-124307500D01*
X66775000Y-124547500D01*
G37*
%TO.C,R21*%
X95857742Y-70062500D02*
X96332258Y-70062500D01*
X95857742Y-71107500D02*
X96332258Y-71107500D01*
%TO.C,J5*%
X161242976Y-125125000D02*
X162512976Y-125125000D01*
X161242976Y-126395000D02*
X161242976Y-125125000D01*
X163590334Y-128505000D02*
X163902976Y-128505000D01*
X163590334Y-129365000D02*
X163902976Y-129365000D01*
X163590334Y-131045000D02*
X163902976Y-131045000D01*
X163590334Y-131905000D02*
X163902976Y-131905000D01*
X163590334Y-133585000D02*
X163902976Y-133585000D01*
X163590334Y-134445000D02*
X163902976Y-134445000D01*
X163672976Y-125965000D02*
X163902976Y-125965000D01*
X163672976Y-126825000D02*
X163902976Y-126825000D01*
X163902976Y-127665000D02*
X166662976Y-127665000D01*
X163902976Y-130205000D02*
X166662976Y-130205000D01*
X163902976Y-132745000D02*
X166662976Y-132745000D01*
X166662976Y-128505000D02*
X172662976Y-128505000D01*
X166662976Y-131045000D02*
X172662976Y-131045000D01*
X166662976Y-133585000D02*
X172662976Y-133585000D01*
X172662976Y-128505000D02*
X172662976Y-129365000D01*
X172662976Y-129365000D02*
X166662976Y-129365000D01*
X172662976Y-131045000D02*
X172662976Y-131905000D01*
X172662976Y-131905000D02*
X166662976Y-131905000D01*
X172662976Y-133585000D02*
X172662976Y-134445000D01*
X172662976Y-134445000D02*
X166662976Y-134445000D01*
X163902976Y-125015000D02*
X166662976Y-125015000D01*
X166662976Y-135395000D01*
X163902976Y-135395000D01*
X163902976Y-125015000D01*
X166662976Y-125965000D02*
X172662976Y-125965000D01*
X172662976Y-126825000D01*
X166662976Y-126825000D01*
X166662976Y-125965000D01*
G36*
X166662976Y-125965000D02*
G01*
X172662976Y-125965000D01*
X172662976Y-126825000D01*
X166662976Y-126825000D01*
X166662976Y-125965000D01*
G37*
%TO.C,R5*%
X149247976Y-106552064D02*
X149247976Y-106097936D01*
X150717976Y-106552064D02*
X150717976Y-106097936D01*
%TO.C,C6*%
X101084420Y-69110000D02*
X101365580Y-69110000D01*
X101084420Y-70130000D02*
X101365580Y-70130000D01*
%TO.C,C11*%
X152168556Y-115415000D02*
X151887396Y-115415000D01*
X152168556Y-116435000D02*
X151887396Y-116435000D01*
%TO.C,R6*%
X155950234Y-102222500D02*
X155475718Y-102222500D01*
X155950234Y-103267500D02*
X155475718Y-103267500D01*
D10*
%TO.C,SW8*%
X120064320Y-98505444D02*
X120064320Y-97505444D01*
X120064320Y-111505444D02*
X120064320Y-110505444D01*
X120064320Y-111505444D02*
X121064320Y-111505444D01*
X121064320Y-97505444D02*
X120064320Y-97505444D01*
X133064320Y-111505444D02*
X134064320Y-111505444D01*
X134064320Y-97505444D02*
X133064320Y-97505444D01*
X134064320Y-97505444D02*
X134064320Y-98505444D01*
X134064320Y-110505444D02*
X134064320Y-111505444D01*
D11*
%TO.C,C3*%
X115825000Y-54588748D02*
X115825000Y-55111252D01*
X117295000Y-54588748D02*
X117295000Y-55111252D01*
%TD*%
M02*
