%TF.GenerationSoftware,KiCad,Pcbnew,9.0.7-1.fc42*%
%TF.CreationDate,2026-04-01T23:45:43+05:30*%
%TF.ProjectId,macropad,6d616372-6f70-4616-942e-6b696361645f,rev?*%
%TF.SameCoordinates,Original*%
%TF.FileFunction,Legend,Top*%
%TF.FilePolarity,Positive*%
%FSLAX46Y46*%
G04 Gerber Fmt 4.6, Leading zero omitted, Abs format (unit mm)*
G04 Created by KiCad (PCBNEW 9.0.7-1.fc42) date 2026-04-01 23:45:43*
%MOMM*%
%LPD*%
G01*
G04 APERTURE LIST*
%ADD10C,0.150000*%
%ADD11C,0.100000*%
%ADD12C,0.120000*%
%ADD13C,0.254000*%
%ADD14C,0.200000*%
%ADD15C,0.127000*%
G04 APERTURE END LIST*
D10*
X73117142Y-77574819D02*
X72783809Y-77098628D01*
X72545714Y-77574819D02*
X72545714Y-76574819D01*
X72545714Y-76574819D02*
X72926666Y-76574819D01*
X72926666Y-76574819D02*
X73021904Y-76622438D01*
X73021904Y-76622438D02*
X73069523Y-76670057D01*
X73069523Y-76670057D02*
X73117142Y-76765295D01*
X73117142Y-76765295D02*
X73117142Y-76908152D01*
X73117142Y-76908152D02*
X73069523Y-77003390D01*
X73069523Y-77003390D02*
X73021904Y-77051009D01*
X73021904Y-77051009D02*
X72926666Y-77098628D01*
X72926666Y-77098628D02*
X72545714Y-77098628D01*
X74069523Y-77574819D02*
X73498095Y-77574819D01*
X73783809Y-77574819D02*
X73783809Y-76574819D01*
X73783809Y-76574819D02*
X73688571Y-76717676D01*
X73688571Y-76717676D02*
X73593333Y-76812914D01*
X73593333Y-76812914D02*
X73498095Y-76860533D01*
X74926666Y-76908152D02*
X74926666Y-77574819D01*
X74688571Y-76527200D02*
X74450476Y-77241485D01*
X74450476Y-77241485D02*
X75069523Y-77241485D01*
X87984819Y-52732857D02*
X87508628Y-53066190D01*
X87984819Y-53304285D02*
X86984819Y-53304285D01*
X86984819Y-53304285D02*
X86984819Y-52923333D01*
X86984819Y-52923333D02*
X87032438Y-52828095D01*
X87032438Y-52828095D02*
X87080057Y-52780476D01*
X87080057Y-52780476D02*
X87175295Y-52732857D01*
X87175295Y-52732857D02*
X87318152Y-52732857D01*
X87318152Y-52732857D02*
X87413390Y-52780476D01*
X87413390Y-52780476D02*
X87461009Y-52828095D01*
X87461009Y-52828095D02*
X87508628Y-52923333D01*
X87508628Y-52923333D02*
X87508628Y-53304285D01*
X87080057Y-52351904D02*
X87032438Y-52304285D01*
X87032438Y-52304285D02*
X86984819Y-52209047D01*
X86984819Y-52209047D02*
X86984819Y-51970952D01*
X86984819Y-51970952D02*
X87032438Y-51875714D01*
X87032438Y-51875714D02*
X87080057Y-51828095D01*
X87080057Y-51828095D02*
X87175295Y-51780476D01*
X87175295Y-51780476D02*
X87270533Y-51780476D01*
X87270533Y-51780476D02*
X87413390Y-51828095D01*
X87413390Y-51828095D02*
X87984819Y-52399523D01*
X87984819Y-52399523D02*
X87984819Y-51780476D01*
X87318152Y-50923333D02*
X87984819Y-50923333D01*
X86937200Y-51161428D02*
X87651485Y-51399523D01*
X87651485Y-51399523D02*
X87651485Y-50780476D01*
X68591667Y-56554820D02*
X68591667Y-57269105D01*
X68591667Y-57269105D02*
X68544048Y-57411962D01*
X68544048Y-57411962D02*
X68448810Y-57507201D01*
X68448810Y-57507201D02*
X68305953Y-57554820D01*
X68305953Y-57554820D02*
X68210715Y-57554820D01*
X69496429Y-56554820D02*
X69305953Y-56554820D01*
X69305953Y-56554820D02*
X69210715Y-56602439D01*
X69210715Y-56602439D02*
X69163096Y-56650058D01*
X69163096Y-56650058D02*
X69067858Y-56792915D01*
X69067858Y-56792915D02*
X69020239Y-56983391D01*
X69020239Y-56983391D02*
X69020239Y-57364343D01*
X69020239Y-57364343D02*
X69067858Y-57459581D01*
X69067858Y-57459581D02*
X69115477Y-57507201D01*
X69115477Y-57507201D02*
X69210715Y-57554820D01*
X69210715Y-57554820D02*
X69401191Y-57554820D01*
X69401191Y-57554820D02*
X69496429Y-57507201D01*
X69496429Y-57507201D02*
X69544048Y-57459581D01*
X69544048Y-57459581D02*
X69591667Y-57364343D01*
X69591667Y-57364343D02*
X69591667Y-57126248D01*
X69591667Y-57126248D02*
X69544048Y-57031010D01*
X69544048Y-57031010D02*
X69496429Y-56983391D01*
X69496429Y-56983391D02*
X69401191Y-56935772D01*
X69401191Y-56935772D02*
X69210715Y-56935772D01*
X69210715Y-56935772D02*
X69115477Y-56983391D01*
X69115477Y-56983391D02*
X69067858Y-57031010D01*
X69067858Y-57031010D02*
X69020239Y-57126248D01*
X102639580Y-72326666D02*
X102687200Y-72374285D01*
X102687200Y-72374285D02*
X102734819Y-72517142D01*
X102734819Y-72517142D02*
X102734819Y-72612380D01*
X102734819Y-72612380D02*
X102687200Y-72755237D01*
X102687200Y-72755237D02*
X102591961Y-72850475D01*
X102591961Y-72850475D02*
X102496723Y-72898094D01*
X102496723Y-72898094D02*
X102306247Y-72945713D01*
X102306247Y-72945713D02*
X102163390Y-72945713D01*
X102163390Y-72945713D02*
X101972914Y-72898094D01*
X101972914Y-72898094D02*
X101877676Y-72850475D01*
X101877676Y-72850475D02*
X101782438Y-72755237D01*
X101782438Y-72755237D02*
X101734819Y-72612380D01*
X101734819Y-72612380D02*
X101734819Y-72517142D01*
X101734819Y-72517142D02*
X101782438Y-72374285D01*
X101782438Y-72374285D02*
X101830057Y-72326666D01*
X102734819Y-71850475D02*
X102734819Y-71659999D01*
X102734819Y-71659999D02*
X102687200Y-71564761D01*
X102687200Y-71564761D02*
X102639580Y-71517142D01*
X102639580Y-71517142D02*
X102496723Y-71421904D01*
X102496723Y-71421904D02*
X102306247Y-71374285D01*
X102306247Y-71374285D02*
X101925295Y-71374285D01*
X101925295Y-71374285D02*
X101830057Y-71421904D01*
X101830057Y-71421904D02*
X101782438Y-71469523D01*
X101782438Y-71469523D02*
X101734819Y-71564761D01*
X101734819Y-71564761D02*
X101734819Y-71755237D01*
X101734819Y-71755237D02*
X101782438Y-71850475D01*
X101782438Y-71850475D02*
X101830057Y-71898094D01*
X101830057Y-71898094D02*
X101925295Y-71945713D01*
X101925295Y-71945713D02*
X102163390Y-71945713D01*
X102163390Y-71945713D02*
X102258628Y-71898094D01*
X102258628Y-71898094D02*
X102306247Y-71850475D01*
X102306247Y-71850475D02*
X102353866Y-71755237D01*
X102353866Y-71755237D02*
X102353866Y-71564761D01*
X102353866Y-71564761D02*
X102306247Y-71469523D01*
X102306247Y-71469523D02*
X102258628Y-71421904D01*
X102258628Y-71421904D02*
X102163390Y-71374285D01*
X205889580Y-104047857D02*
X205937200Y-104095476D01*
X205937200Y-104095476D02*
X205984819Y-104238333D01*
X205984819Y-104238333D02*
X205984819Y-104333571D01*
X205984819Y-104333571D02*
X205937200Y-104476428D01*
X205937200Y-104476428D02*
X205841961Y-104571666D01*
X205841961Y-104571666D02*
X205746723Y-104619285D01*
X205746723Y-104619285D02*
X205556247Y-104666904D01*
X205556247Y-104666904D02*
X205413390Y-104666904D01*
X205413390Y-104666904D02*
X205222914Y-104619285D01*
X205222914Y-104619285D02*
X205127676Y-104571666D01*
X205127676Y-104571666D02*
X205032438Y-104476428D01*
X205032438Y-104476428D02*
X204984819Y-104333571D01*
X204984819Y-104333571D02*
X204984819Y-104238333D01*
X204984819Y-104238333D02*
X205032438Y-104095476D01*
X205032438Y-104095476D02*
X205080057Y-104047857D01*
X205080057Y-103666904D02*
X205032438Y-103619285D01*
X205032438Y-103619285D02*
X204984819Y-103524047D01*
X204984819Y-103524047D02*
X204984819Y-103285952D01*
X204984819Y-103285952D02*
X205032438Y-103190714D01*
X205032438Y-103190714D02*
X205080057Y-103143095D01*
X205080057Y-103143095D02*
X205175295Y-103095476D01*
X205175295Y-103095476D02*
X205270533Y-103095476D01*
X205270533Y-103095476D02*
X205413390Y-103143095D01*
X205413390Y-103143095D02*
X205984819Y-103714523D01*
X205984819Y-103714523D02*
X205984819Y-103095476D01*
X204984819Y-102476428D02*
X204984819Y-102381190D01*
X204984819Y-102381190D02*
X205032438Y-102285952D01*
X205032438Y-102285952D02*
X205080057Y-102238333D01*
X205080057Y-102238333D02*
X205175295Y-102190714D01*
X205175295Y-102190714D02*
X205365771Y-102143095D01*
X205365771Y-102143095D02*
X205603866Y-102143095D01*
X205603866Y-102143095D02*
X205794342Y-102190714D01*
X205794342Y-102190714D02*
X205889580Y-102238333D01*
X205889580Y-102238333D02*
X205937200Y-102285952D01*
X205937200Y-102285952D02*
X205984819Y-102381190D01*
X205984819Y-102381190D02*
X205984819Y-102476428D01*
X205984819Y-102476428D02*
X205937200Y-102571666D01*
X205937200Y-102571666D02*
X205889580Y-102619285D01*
X205889580Y-102619285D02*
X205794342Y-102666904D01*
X205794342Y-102666904D02*
X205603866Y-102714523D01*
X205603866Y-102714523D02*
X205365771Y-102714523D01*
X205365771Y-102714523D02*
X205175295Y-102666904D01*
X205175295Y-102666904D02*
X205080057Y-102619285D01*
X205080057Y-102619285D02*
X205032438Y-102571666D01*
X205032438Y-102571666D02*
X204984819Y-102476428D01*
X56478333Y-123204819D02*
X56145000Y-122728628D01*
X55906905Y-123204819D02*
X55906905Y-122204819D01*
X55906905Y-122204819D02*
X56287857Y-122204819D01*
X56287857Y-122204819D02*
X56383095Y-122252438D01*
X56383095Y-122252438D02*
X56430714Y-122300057D01*
X56430714Y-122300057D02*
X56478333Y-122395295D01*
X56478333Y-122395295D02*
X56478333Y-122538152D01*
X56478333Y-122538152D02*
X56430714Y-122633390D01*
X56430714Y-122633390D02*
X56383095Y-122681009D01*
X56383095Y-122681009D02*
X56287857Y-122728628D01*
X56287857Y-122728628D02*
X55906905Y-122728628D01*
X57430714Y-123204819D02*
X56859286Y-123204819D01*
X57145000Y-123204819D02*
X57145000Y-122204819D01*
X57145000Y-122204819D02*
X57049762Y-122347676D01*
X57049762Y-122347676D02*
X56954524Y-122442914D01*
X56954524Y-122442914D02*
X56859286Y-122490533D01*
X195144642Y-88110080D02*
X195097023Y-88157700D01*
X195097023Y-88157700D02*
X194954166Y-88205319D01*
X194954166Y-88205319D02*
X194858928Y-88205319D01*
X194858928Y-88205319D02*
X194716071Y-88157700D01*
X194716071Y-88157700D02*
X194620833Y-88062461D01*
X194620833Y-88062461D02*
X194573214Y-87967223D01*
X194573214Y-87967223D02*
X194525595Y-87776747D01*
X194525595Y-87776747D02*
X194525595Y-87633890D01*
X194525595Y-87633890D02*
X194573214Y-87443414D01*
X194573214Y-87443414D02*
X194620833Y-87348176D01*
X194620833Y-87348176D02*
X194716071Y-87252938D01*
X194716071Y-87252938D02*
X194858928Y-87205319D01*
X194858928Y-87205319D02*
X194954166Y-87205319D01*
X194954166Y-87205319D02*
X195097023Y-87252938D01*
X195097023Y-87252938D02*
X195144642Y-87300557D01*
X195525595Y-87300557D02*
X195573214Y-87252938D01*
X195573214Y-87252938D02*
X195668452Y-87205319D01*
X195668452Y-87205319D02*
X195906547Y-87205319D01*
X195906547Y-87205319D02*
X196001785Y-87252938D01*
X196001785Y-87252938D02*
X196049404Y-87300557D01*
X196049404Y-87300557D02*
X196097023Y-87395795D01*
X196097023Y-87395795D02*
X196097023Y-87491033D01*
X196097023Y-87491033D02*
X196049404Y-87633890D01*
X196049404Y-87633890D02*
X195477976Y-88205319D01*
X195477976Y-88205319D02*
X196097023Y-88205319D01*
X196430357Y-87205319D02*
X197049404Y-87205319D01*
X197049404Y-87205319D02*
X196716071Y-87586271D01*
X196716071Y-87586271D02*
X196858928Y-87586271D01*
X196858928Y-87586271D02*
X196954166Y-87633890D01*
X196954166Y-87633890D02*
X197001785Y-87681509D01*
X197001785Y-87681509D02*
X197049404Y-87776747D01*
X197049404Y-87776747D02*
X197049404Y-88014842D01*
X197049404Y-88014842D02*
X197001785Y-88110080D01*
X197001785Y-88110080D02*
X196954166Y-88157700D01*
X196954166Y-88157700D02*
X196858928Y-88205319D01*
X196858928Y-88205319D02*
X196573214Y-88205319D01*
X196573214Y-88205319D02*
X196477976Y-88157700D01*
X196477976Y-88157700D02*
X196430357Y-88110080D01*
X109408095Y-50364819D02*
X109408095Y-51174342D01*
X109408095Y-51174342D02*
X109455714Y-51269580D01*
X109455714Y-51269580D02*
X109503333Y-51317200D01*
X109503333Y-51317200D02*
X109598571Y-51364819D01*
X109598571Y-51364819D02*
X109789047Y-51364819D01*
X109789047Y-51364819D02*
X109884285Y-51317200D01*
X109884285Y-51317200D02*
X109931904Y-51269580D01*
X109931904Y-51269580D02*
X109979523Y-51174342D01*
X109979523Y-51174342D02*
X109979523Y-50364819D01*
X110360476Y-50364819D02*
X110979523Y-50364819D01*
X110979523Y-50364819D02*
X110646190Y-50745771D01*
X110646190Y-50745771D02*
X110789047Y-50745771D01*
X110789047Y-50745771D02*
X110884285Y-50793390D01*
X110884285Y-50793390D02*
X110931904Y-50841009D01*
X110931904Y-50841009D02*
X110979523Y-50936247D01*
X110979523Y-50936247D02*
X110979523Y-51174342D01*
X110979523Y-51174342D02*
X110931904Y-51269580D01*
X110931904Y-51269580D02*
X110884285Y-51317200D01*
X110884285Y-51317200D02*
X110789047Y-51364819D01*
X110789047Y-51364819D02*
X110503333Y-51364819D01*
X110503333Y-51364819D02*
X110408095Y-51317200D01*
X110408095Y-51317200D02*
X110360476Y-51269580D01*
X195339580Y-98422857D02*
X195387200Y-98470476D01*
X195387200Y-98470476D02*
X195434819Y-98613333D01*
X195434819Y-98613333D02*
X195434819Y-98708571D01*
X195434819Y-98708571D02*
X195387200Y-98851428D01*
X195387200Y-98851428D02*
X195291961Y-98946666D01*
X195291961Y-98946666D02*
X195196723Y-98994285D01*
X195196723Y-98994285D02*
X195006247Y-99041904D01*
X195006247Y-99041904D02*
X194863390Y-99041904D01*
X194863390Y-99041904D02*
X194672914Y-98994285D01*
X194672914Y-98994285D02*
X194577676Y-98946666D01*
X194577676Y-98946666D02*
X194482438Y-98851428D01*
X194482438Y-98851428D02*
X194434819Y-98708571D01*
X194434819Y-98708571D02*
X194434819Y-98613333D01*
X194434819Y-98613333D02*
X194482438Y-98470476D01*
X194482438Y-98470476D02*
X194530057Y-98422857D01*
X195434819Y-97470476D02*
X195434819Y-98041904D01*
X195434819Y-97756190D02*
X194434819Y-97756190D01*
X194434819Y-97756190D02*
X194577676Y-97851428D01*
X194577676Y-97851428D02*
X194672914Y-97946666D01*
X194672914Y-97946666D02*
X194720533Y-98041904D01*
X194530057Y-97089523D02*
X194482438Y-97041904D01*
X194482438Y-97041904D02*
X194434819Y-96946666D01*
X194434819Y-96946666D02*
X194434819Y-96708571D01*
X194434819Y-96708571D02*
X194482438Y-96613333D01*
X194482438Y-96613333D02*
X194530057Y-96565714D01*
X194530057Y-96565714D02*
X194625295Y-96518095D01*
X194625295Y-96518095D02*
X194720533Y-96518095D01*
X194720533Y-96518095D02*
X194863390Y-96565714D01*
X194863390Y-96565714D02*
X195434819Y-97137142D01*
X195434819Y-97137142D02*
X195434819Y-96518095D01*
X90554819Y-63522857D02*
X90078628Y-63856190D01*
X90554819Y-64094285D02*
X89554819Y-64094285D01*
X89554819Y-64094285D02*
X89554819Y-63713333D01*
X89554819Y-63713333D02*
X89602438Y-63618095D01*
X89602438Y-63618095D02*
X89650057Y-63570476D01*
X89650057Y-63570476D02*
X89745295Y-63522857D01*
X89745295Y-63522857D02*
X89888152Y-63522857D01*
X89888152Y-63522857D02*
X89983390Y-63570476D01*
X89983390Y-63570476D02*
X90031009Y-63618095D01*
X90031009Y-63618095D02*
X90078628Y-63713333D01*
X90078628Y-63713333D02*
X90078628Y-64094285D01*
X90554819Y-62570476D02*
X90554819Y-63141904D01*
X90554819Y-62856190D02*
X89554819Y-62856190D01*
X89554819Y-62856190D02*
X89697676Y-62951428D01*
X89697676Y-62951428D02*
X89792914Y-63046666D01*
X89792914Y-63046666D02*
X89840533Y-63141904D01*
X89650057Y-62189523D02*
X89602438Y-62141904D01*
X89602438Y-62141904D02*
X89554819Y-62046666D01*
X89554819Y-62046666D02*
X89554819Y-61808571D01*
X89554819Y-61808571D02*
X89602438Y-61713333D01*
X89602438Y-61713333D02*
X89650057Y-61665714D01*
X89650057Y-61665714D02*
X89745295Y-61618095D01*
X89745295Y-61618095D02*
X89840533Y-61618095D01*
X89840533Y-61618095D02*
X89983390Y-61665714D01*
X89983390Y-61665714D02*
X90554819Y-62237142D01*
X90554819Y-62237142D02*
X90554819Y-61618095D01*
X95706666Y-50042319D02*
X95706666Y-50756604D01*
X95706666Y-50756604D02*
X95659047Y-50899461D01*
X95659047Y-50899461D02*
X95563809Y-50994700D01*
X95563809Y-50994700D02*
X95420952Y-51042319D01*
X95420952Y-51042319D02*
X95325714Y-51042319D01*
X96135238Y-50137557D02*
X96182857Y-50089938D01*
X96182857Y-50089938D02*
X96278095Y-50042319D01*
X96278095Y-50042319D02*
X96516190Y-50042319D01*
X96516190Y-50042319D02*
X96611428Y-50089938D01*
X96611428Y-50089938D02*
X96659047Y-50137557D01*
X96659047Y-50137557D02*
X96706666Y-50232795D01*
X96706666Y-50232795D02*
X96706666Y-50328033D01*
X96706666Y-50328033D02*
X96659047Y-50470890D01*
X96659047Y-50470890D02*
X96087619Y-51042319D01*
X96087619Y-51042319D02*
X96706666Y-51042319D01*
X64079819Y-122238094D02*
X63079819Y-122238094D01*
X63079819Y-122238094D02*
X63079819Y-121999999D01*
X63079819Y-121999999D02*
X63127438Y-121857142D01*
X63127438Y-121857142D02*
X63222676Y-121761904D01*
X63222676Y-121761904D02*
X63317914Y-121714285D01*
X63317914Y-121714285D02*
X63508390Y-121666666D01*
X63508390Y-121666666D02*
X63651247Y-121666666D01*
X63651247Y-121666666D02*
X63841723Y-121714285D01*
X63841723Y-121714285D02*
X63936961Y-121761904D01*
X63936961Y-121761904D02*
X64032200Y-121857142D01*
X64032200Y-121857142D02*
X64079819Y-121999999D01*
X64079819Y-121999999D02*
X64079819Y-122238094D01*
X63175057Y-121285713D02*
X63127438Y-121238094D01*
X63127438Y-121238094D02*
X63079819Y-121142856D01*
X63079819Y-121142856D02*
X63079819Y-120904761D01*
X63079819Y-120904761D02*
X63127438Y-120809523D01*
X63127438Y-120809523D02*
X63175057Y-120761904D01*
X63175057Y-120761904D02*
X63270295Y-120714285D01*
X63270295Y-120714285D02*
X63365533Y-120714285D01*
X63365533Y-120714285D02*
X63508390Y-120761904D01*
X63508390Y-120761904D02*
X64079819Y-121333332D01*
X64079819Y-121333332D02*
X64079819Y-120714285D01*
X98798628Y-74236190D02*
X99274819Y-74236190D01*
X98274819Y-74569523D02*
X98798628Y-74236190D01*
X98798628Y-74236190D02*
X98274819Y-73902857D01*
X99274819Y-73045714D02*
X99274819Y-73617142D01*
X99274819Y-73331428D02*
X98274819Y-73331428D01*
X98274819Y-73331428D02*
X98417676Y-73426666D01*
X98417676Y-73426666D02*
X98512914Y-73521904D01*
X98512914Y-73521904D02*
X98560533Y-73617142D01*
X70169819Y-126951666D02*
X69693628Y-127284999D01*
X70169819Y-127523094D02*
X69169819Y-127523094D01*
X69169819Y-127523094D02*
X69169819Y-127142142D01*
X69169819Y-127142142D02*
X69217438Y-127046904D01*
X69217438Y-127046904D02*
X69265057Y-126999285D01*
X69265057Y-126999285D02*
X69360295Y-126951666D01*
X69360295Y-126951666D02*
X69503152Y-126951666D01*
X69503152Y-126951666D02*
X69598390Y-126999285D01*
X69598390Y-126999285D02*
X69646009Y-127046904D01*
X69646009Y-127046904D02*
X69693628Y-127142142D01*
X69693628Y-127142142D02*
X69693628Y-127523094D01*
X70169819Y-126475475D02*
X70169819Y-126284999D01*
X70169819Y-126284999D02*
X70122200Y-126189761D01*
X70122200Y-126189761D02*
X70074580Y-126142142D01*
X70074580Y-126142142D02*
X69931723Y-126046904D01*
X69931723Y-126046904D02*
X69741247Y-125999285D01*
X69741247Y-125999285D02*
X69360295Y-125999285D01*
X69360295Y-125999285D02*
X69265057Y-126046904D01*
X69265057Y-126046904D02*
X69217438Y-126094523D01*
X69217438Y-126094523D02*
X69169819Y-126189761D01*
X69169819Y-126189761D02*
X69169819Y-126380237D01*
X69169819Y-126380237D02*
X69217438Y-126475475D01*
X69217438Y-126475475D02*
X69265057Y-126523094D01*
X69265057Y-126523094D02*
X69360295Y-126570713D01*
X69360295Y-126570713D02*
X69598390Y-126570713D01*
X69598390Y-126570713D02*
X69693628Y-126523094D01*
X69693628Y-126523094D02*
X69741247Y-126475475D01*
X69741247Y-126475475D02*
X69788866Y-126380237D01*
X69788866Y-126380237D02*
X69788866Y-126189761D01*
X69788866Y-126189761D02*
X69741247Y-126094523D01*
X69741247Y-126094523D02*
X69693628Y-126046904D01*
X69693628Y-126046904D02*
X69598390Y-125999285D01*
X69672142Y-46669580D02*
X69624523Y-46717200D01*
X69624523Y-46717200D02*
X69481666Y-46764819D01*
X69481666Y-46764819D02*
X69386428Y-46764819D01*
X69386428Y-46764819D02*
X69243571Y-46717200D01*
X69243571Y-46717200D02*
X69148333Y-46621961D01*
X69148333Y-46621961D02*
X69100714Y-46526723D01*
X69100714Y-46526723D02*
X69053095Y-46336247D01*
X69053095Y-46336247D02*
X69053095Y-46193390D01*
X69053095Y-46193390D02*
X69100714Y-46002914D01*
X69100714Y-46002914D02*
X69148333Y-45907676D01*
X69148333Y-45907676D02*
X69243571Y-45812438D01*
X69243571Y-45812438D02*
X69386428Y-45764819D01*
X69386428Y-45764819D02*
X69481666Y-45764819D01*
X69481666Y-45764819D02*
X69624523Y-45812438D01*
X69624523Y-45812438D02*
X69672142Y-45860057D01*
X70005476Y-45764819D02*
X70624523Y-45764819D01*
X70624523Y-45764819D02*
X70291190Y-46145771D01*
X70291190Y-46145771D02*
X70434047Y-46145771D01*
X70434047Y-46145771D02*
X70529285Y-46193390D01*
X70529285Y-46193390D02*
X70576904Y-46241009D01*
X70576904Y-46241009D02*
X70624523Y-46336247D01*
X70624523Y-46336247D02*
X70624523Y-46574342D01*
X70624523Y-46574342D02*
X70576904Y-46669580D01*
X70576904Y-46669580D02*
X70529285Y-46717200D01*
X70529285Y-46717200D02*
X70434047Y-46764819D01*
X70434047Y-46764819D02*
X70148333Y-46764819D01*
X70148333Y-46764819D02*
X70053095Y-46717200D01*
X70053095Y-46717200D02*
X70005476Y-46669580D01*
X71243571Y-45764819D02*
X71338809Y-45764819D01*
X71338809Y-45764819D02*
X71434047Y-45812438D01*
X71434047Y-45812438D02*
X71481666Y-45860057D01*
X71481666Y-45860057D02*
X71529285Y-45955295D01*
X71529285Y-45955295D02*
X71576904Y-46145771D01*
X71576904Y-46145771D02*
X71576904Y-46383866D01*
X71576904Y-46383866D02*
X71529285Y-46574342D01*
X71529285Y-46574342D02*
X71481666Y-46669580D01*
X71481666Y-46669580D02*
X71434047Y-46717200D01*
X71434047Y-46717200D02*
X71338809Y-46764819D01*
X71338809Y-46764819D02*
X71243571Y-46764819D01*
X71243571Y-46764819D02*
X71148333Y-46717200D01*
X71148333Y-46717200D02*
X71100714Y-46669580D01*
X71100714Y-46669580D02*
X71053095Y-46574342D01*
X71053095Y-46574342D02*
X71005476Y-46383866D01*
X71005476Y-46383866D02*
X71005476Y-46145771D01*
X71005476Y-46145771D02*
X71053095Y-45955295D01*
X71053095Y-45955295D02*
X71100714Y-45860057D01*
X71100714Y-45860057D02*
X71148333Y-45812438D01*
X71148333Y-45812438D02*
X71243571Y-45764819D01*
X72997142Y-95434819D02*
X72663809Y-94958628D01*
X72425714Y-95434819D02*
X72425714Y-94434819D01*
X72425714Y-94434819D02*
X72806666Y-94434819D01*
X72806666Y-94434819D02*
X72901904Y-94482438D01*
X72901904Y-94482438D02*
X72949523Y-94530057D01*
X72949523Y-94530057D02*
X72997142Y-94625295D01*
X72997142Y-94625295D02*
X72997142Y-94768152D01*
X72997142Y-94768152D02*
X72949523Y-94863390D01*
X72949523Y-94863390D02*
X72901904Y-94911009D01*
X72901904Y-94911009D02*
X72806666Y-94958628D01*
X72806666Y-94958628D02*
X72425714Y-94958628D01*
X73378095Y-94530057D02*
X73425714Y-94482438D01*
X73425714Y-94482438D02*
X73520952Y-94434819D01*
X73520952Y-94434819D02*
X73759047Y-94434819D01*
X73759047Y-94434819D02*
X73854285Y-94482438D01*
X73854285Y-94482438D02*
X73901904Y-94530057D01*
X73901904Y-94530057D02*
X73949523Y-94625295D01*
X73949523Y-94625295D02*
X73949523Y-94720533D01*
X73949523Y-94720533D02*
X73901904Y-94863390D01*
X73901904Y-94863390D02*
X73330476Y-95434819D01*
X73330476Y-95434819D02*
X73949523Y-95434819D01*
X74568571Y-94434819D02*
X74663809Y-94434819D01*
X74663809Y-94434819D02*
X74759047Y-94482438D01*
X74759047Y-94482438D02*
X74806666Y-94530057D01*
X74806666Y-94530057D02*
X74854285Y-94625295D01*
X74854285Y-94625295D02*
X74901904Y-94815771D01*
X74901904Y-94815771D02*
X74901904Y-95053866D01*
X74901904Y-95053866D02*
X74854285Y-95244342D01*
X74854285Y-95244342D02*
X74806666Y-95339580D01*
X74806666Y-95339580D02*
X74759047Y-95387200D01*
X74759047Y-95387200D02*
X74663809Y-95434819D01*
X74663809Y-95434819D02*
X74568571Y-95434819D01*
X74568571Y-95434819D02*
X74473333Y-95387200D01*
X74473333Y-95387200D02*
X74425714Y-95339580D01*
X74425714Y-95339580D02*
X74378095Y-95244342D01*
X74378095Y-95244342D02*
X74330476Y-95053866D01*
X74330476Y-95053866D02*
X74330476Y-94815771D01*
X74330476Y-94815771D02*
X74378095Y-94625295D01*
X74378095Y-94625295D02*
X74425714Y-94530057D01*
X74425714Y-94530057D02*
X74473333Y-94482438D01*
X74473333Y-94482438D02*
X74568571Y-94434819D01*
X85324819Y-52732857D02*
X84848628Y-53066190D01*
X85324819Y-53304285D02*
X84324819Y-53304285D01*
X84324819Y-53304285D02*
X84324819Y-52923333D01*
X84324819Y-52923333D02*
X84372438Y-52828095D01*
X84372438Y-52828095D02*
X84420057Y-52780476D01*
X84420057Y-52780476D02*
X84515295Y-52732857D01*
X84515295Y-52732857D02*
X84658152Y-52732857D01*
X84658152Y-52732857D02*
X84753390Y-52780476D01*
X84753390Y-52780476D02*
X84801009Y-52828095D01*
X84801009Y-52828095D02*
X84848628Y-52923333D01*
X84848628Y-52923333D02*
X84848628Y-53304285D01*
X84420057Y-52351904D02*
X84372438Y-52304285D01*
X84372438Y-52304285D02*
X84324819Y-52209047D01*
X84324819Y-52209047D02*
X84324819Y-51970952D01*
X84324819Y-51970952D02*
X84372438Y-51875714D01*
X84372438Y-51875714D02*
X84420057Y-51828095D01*
X84420057Y-51828095D02*
X84515295Y-51780476D01*
X84515295Y-51780476D02*
X84610533Y-51780476D01*
X84610533Y-51780476D02*
X84753390Y-51828095D01*
X84753390Y-51828095D02*
X85324819Y-52399523D01*
X85324819Y-52399523D02*
X85324819Y-51780476D01*
X84324819Y-51447142D02*
X84324819Y-50828095D01*
X84324819Y-50828095D02*
X84705771Y-51161428D01*
X84705771Y-51161428D02*
X84705771Y-51018571D01*
X84705771Y-51018571D02*
X84753390Y-50923333D01*
X84753390Y-50923333D02*
X84801009Y-50875714D01*
X84801009Y-50875714D02*
X84896247Y-50828095D01*
X84896247Y-50828095D02*
X85134342Y-50828095D01*
X85134342Y-50828095D02*
X85229580Y-50875714D01*
X85229580Y-50875714D02*
X85277200Y-50923333D01*
X85277200Y-50923333D02*
X85324819Y-51018571D01*
X85324819Y-51018571D02*
X85324819Y-51304285D01*
X85324819Y-51304285D02*
X85277200Y-51399523D01*
X85277200Y-51399523D02*
X85229580Y-51447142D01*
D11*
X61093086Y-56332419D02*
X61093086Y-57141942D01*
X61093086Y-57141942D02*
X61140705Y-57237180D01*
X61140705Y-57237180D02*
X61188324Y-57284800D01*
X61188324Y-57284800D02*
X61283562Y-57332419D01*
X61283562Y-57332419D02*
X61474038Y-57332419D01*
X61474038Y-57332419D02*
X61569276Y-57284800D01*
X61569276Y-57284800D02*
X61616895Y-57237180D01*
X61616895Y-57237180D02*
X61664514Y-57141942D01*
X61664514Y-57141942D02*
X61664514Y-56332419D01*
X62664514Y-57332419D02*
X62093086Y-57332419D01*
X62378800Y-57332419D02*
X62378800Y-56332419D01*
X62378800Y-56332419D02*
X62283562Y-56475276D01*
X62283562Y-56475276D02*
X62188324Y-56570514D01*
X62188324Y-56570514D02*
X62093086Y-56618133D01*
X63283562Y-56332419D02*
X63378800Y-56332419D01*
X63378800Y-56332419D02*
X63474038Y-56380038D01*
X63474038Y-56380038D02*
X63521657Y-56427657D01*
X63521657Y-56427657D02*
X63569276Y-56522895D01*
X63569276Y-56522895D02*
X63616895Y-56713371D01*
X63616895Y-56713371D02*
X63616895Y-56951466D01*
X63616895Y-56951466D02*
X63569276Y-57141942D01*
X63569276Y-57141942D02*
X63521657Y-57237180D01*
X63521657Y-57237180D02*
X63474038Y-57284800D01*
X63474038Y-57284800D02*
X63378800Y-57332419D01*
X63378800Y-57332419D02*
X63283562Y-57332419D01*
X63283562Y-57332419D02*
X63188324Y-57284800D01*
X63188324Y-57284800D02*
X63140705Y-57237180D01*
X63140705Y-57237180D02*
X63093086Y-57141942D01*
X63093086Y-57141942D02*
X63045467Y-56951466D01*
X63045467Y-56951466D02*
X63045467Y-56713371D01*
X63045467Y-56713371D02*
X63093086Y-56522895D01*
X63093086Y-56522895D02*
X63140705Y-56427657D01*
X63140705Y-56427657D02*
X63188324Y-56380038D01*
X63188324Y-56380038D02*
X63283562Y-56332419D01*
X233651666Y-120817419D02*
X233651666Y-121531704D01*
X233651666Y-121531704D02*
X233604047Y-121674561D01*
X233604047Y-121674561D02*
X233508809Y-121769800D01*
X233508809Y-121769800D02*
X233365952Y-121817419D01*
X233365952Y-121817419D02*
X233270714Y-121817419D01*
X234175476Y-121817419D02*
X234365952Y-121817419D01*
X234365952Y-121817419D02*
X234461190Y-121769800D01*
X234461190Y-121769800D02*
X234508809Y-121722180D01*
X234508809Y-121722180D02*
X234604047Y-121579323D01*
X234604047Y-121579323D02*
X234651666Y-121388847D01*
X234651666Y-121388847D02*
X234651666Y-121007895D01*
X234651666Y-121007895D02*
X234604047Y-120912657D01*
X234604047Y-120912657D02*
X234556428Y-120865038D01*
X234556428Y-120865038D02*
X234461190Y-120817419D01*
X234461190Y-120817419D02*
X234270714Y-120817419D01*
X234270714Y-120817419D02*
X234175476Y-120865038D01*
X234175476Y-120865038D02*
X234127857Y-120912657D01*
X234127857Y-120912657D02*
X234080238Y-121007895D01*
X234080238Y-121007895D02*
X234080238Y-121245990D01*
X234080238Y-121245990D02*
X234127857Y-121341228D01*
X234127857Y-121341228D02*
X234175476Y-121388847D01*
X234175476Y-121388847D02*
X234270714Y-121436466D01*
X234270714Y-121436466D02*
X234461190Y-121436466D01*
X234461190Y-121436466D02*
X234556428Y-121388847D01*
X234556428Y-121388847D02*
X234604047Y-121341228D01*
X234604047Y-121341228D02*
X234651666Y-121245990D01*
D10*
X94163333Y-53724819D02*
X93830000Y-53248628D01*
X93591905Y-53724819D02*
X93591905Y-52724819D01*
X93591905Y-52724819D02*
X93972857Y-52724819D01*
X93972857Y-52724819D02*
X94068095Y-52772438D01*
X94068095Y-52772438D02*
X94115714Y-52820057D01*
X94115714Y-52820057D02*
X94163333Y-52915295D01*
X94163333Y-52915295D02*
X94163333Y-53058152D01*
X94163333Y-53058152D02*
X94115714Y-53153390D01*
X94115714Y-53153390D02*
X94068095Y-53201009D01*
X94068095Y-53201009D02*
X93972857Y-53248628D01*
X93972857Y-53248628D02*
X93591905Y-53248628D01*
X94544286Y-52820057D02*
X94591905Y-52772438D01*
X94591905Y-52772438D02*
X94687143Y-52724819D01*
X94687143Y-52724819D02*
X94925238Y-52724819D01*
X94925238Y-52724819D02*
X95020476Y-52772438D01*
X95020476Y-52772438D02*
X95068095Y-52820057D01*
X95068095Y-52820057D02*
X95115714Y-52915295D01*
X95115714Y-52915295D02*
X95115714Y-53010533D01*
X95115714Y-53010533D02*
X95068095Y-53153390D01*
X95068095Y-53153390D02*
X94496667Y-53724819D01*
X94496667Y-53724819D02*
X95115714Y-53724819D01*
X205937142Y-104359580D02*
X205889523Y-104407200D01*
X205889523Y-104407200D02*
X205746666Y-104454819D01*
X205746666Y-104454819D02*
X205651428Y-104454819D01*
X205651428Y-104454819D02*
X205508571Y-104407200D01*
X205508571Y-104407200D02*
X205413333Y-104311961D01*
X205413333Y-104311961D02*
X205365714Y-104216723D01*
X205365714Y-104216723D02*
X205318095Y-104026247D01*
X205318095Y-104026247D02*
X205318095Y-103883390D01*
X205318095Y-103883390D02*
X205365714Y-103692914D01*
X205365714Y-103692914D02*
X205413333Y-103597676D01*
X205413333Y-103597676D02*
X205508571Y-103502438D01*
X205508571Y-103502438D02*
X205651428Y-103454819D01*
X205651428Y-103454819D02*
X205746666Y-103454819D01*
X205746666Y-103454819D02*
X205889523Y-103502438D01*
X205889523Y-103502438D02*
X205937142Y-103550057D01*
X206889523Y-104454819D02*
X206318095Y-104454819D01*
X206603809Y-104454819D02*
X206603809Y-103454819D01*
X206603809Y-103454819D02*
X206508571Y-103597676D01*
X206508571Y-103597676D02*
X206413333Y-103692914D01*
X206413333Y-103692914D02*
X206318095Y-103740533D01*
X207794285Y-103454819D02*
X207318095Y-103454819D01*
X207318095Y-103454819D02*
X207270476Y-103931009D01*
X207270476Y-103931009D02*
X207318095Y-103883390D01*
X207318095Y-103883390D02*
X207413333Y-103835771D01*
X207413333Y-103835771D02*
X207651428Y-103835771D01*
X207651428Y-103835771D02*
X207746666Y-103883390D01*
X207746666Y-103883390D02*
X207794285Y-103931009D01*
X207794285Y-103931009D02*
X207841904Y-104026247D01*
X207841904Y-104026247D02*
X207841904Y-104264342D01*
X207841904Y-104264342D02*
X207794285Y-104359580D01*
X207794285Y-104359580D02*
X207746666Y-104407200D01*
X207746666Y-104407200D02*
X207651428Y-104454819D01*
X207651428Y-104454819D02*
X207413333Y-104454819D01*
X207413333Y-104454819D02*
X207318095Y-104407200D01*
X207318095Y-104407200D02*
X207270476Y-104359580D01*
X103574819Y-59372857D02*
X103098628Y-59706190D01*
X103574819Y-59944285D02*
X102574819Y-59944285D01*
X102574819Y-59944285D02*
X102574819Y-59563333D01*
X102574819Y-59563333D02*
X102622438Y-59468095D01*
X102622438Y-59468095D02*
X102670057Y-59420476D01*
X102670057Y-59420476D02*
X102765295Y-59372857D01*
X102765295Y-59372857D02*
X102908152Y-59372857D01*
X102908152Y-59372857D02*
X103003390Y-59420476D01*
X103003390Y-59420476D02*
X103051009Y-59468095D01*
X103051009Y-59468095D02*
X103098628Y-59563333D01*
X103098628Y-59563333D02*
X103098628Y-59944285D01*
X103574819Y-58420476D02*
X103574819Y-58991904D01*
X103574819Y-58706190D02*
X102574819Y-58706190D01*
X102574819Y-58706190D02*
X102717676Y-58801428D01*
X102717676Y-58801428D02*
X102812914Y-58896666D01*
X102812914Y-58896666D02*
X102860533Y-58991904D01*
X103574819Y-57468095D02*
X103574819Y-58039523D01*
X103574819Y-57753809D02*
X102574819Y-57753809D01*
X102574819Y-57753809D02*
X102717676Y-57849047D01*
X102717676Y-57849047D02*
X102812914Y-57944285D01*
X102812914Y-57944285D02*
X102860533Y-58039523D01*
X56310476Y-90157200D02*
X56453333Y-90204819D01*
X56453333Y-90204819D02*
X56691428Y-90204819D01*
X56691428Y-90204819D02*
X56786666Y-90157200D01*
X56786666Y-90157200D02*
X56834285Y-90109580D01*
X56834285Y-90109580D02*
X56881904Y-90014342D01*
X56881904Y-90014342D02*
X56881904Y-89919104D01*
X56881904Y-89919104D02*
X56834285Y-89823866D01*
X56834285Y-89823866D02*
X56786666Y-89776247D01*
X56786666Y-89776247D02*
X56691428Y-89728628D01*
X56691428Y-89728628D02*
X56500952Y-89681009D01*
X56500952Y-89681009D02*
X56405714Y-89633390D01*
X56405714Y-89633390D02*
X56358095Y-89585771D01*
X56358095Y-89585771D02*
X56310476Y-89490533D01*
X56310476Y-89490533D02*
X56310476Y-89395295D01*
X56310476Y-89395295D02*
X56358095Y-89300057D01*
X56358095Y-89300057D02*
X56405714Y-89252438D01*
X56405714Y-89252438D02*
X56500952Y-89204819D01*
X56500952Y-89204819D02*
X56739047Y-89204819D01*
X56739047Y-89204819D02*
X56881904Y-89252438D01*
X57215238Y-89204819D02*
X57453333Y-90204819D01*
X57453333Y-90204819D02*
X57643809Y-89490533D01*
X57643809Y-89490533D02*
X57834285Y-90204819D01*
X57834285Y-90204819D02*
X58072381Y-89204819D01*
X58977142Y-90204819D02*
X58405714Y-90204819D01*
X58691428Y-90204819D02*
X58691428Y-89204819D01*
X58691428Y-89204819D02*
X58596190Y-89347676D01*
X58596190Y-89347676D02*
X58500952Y-89442914D01*
X58500952Y-89442914D02*
X58405714Y-89490533D01*
X59310476Y-89204819D02*
X59929523Y-89204819D01*
X59929523Y-89204819D02*
X59596190Y-89585771D01*
X59596190Y-89585771D02*
X59739047Y-89585771D01*
X59739047Y-89585771D02*
X59834285Y-89633390D01*
X59834285Y-89633390D02*
X59881904Y-89681009D01*
X59881904Y-89681009D02*
X59929523Y-89776247D01*
X59929523Y-89776247D02*
X59929523Y-90014342D01*
X59929523Y-90014342D02*
X59881904Y-90109580D01*
X59881904Y-90109580D02*
X59834285Y-90157200D01*
X59834285Y-90157200D02*
X59739047Y-90204819D01*
X59739047Y-90204819D02*
X59453333Y-90204819D01*
X59453333Y-90204819D02*
X59358095Y-90157200D01*
X59358095Y-90157200D02*
X59310476Y-90109580D01*
X61607142Y-66919580D02*
X61559523Y-66967200D01*
X61559523Y-66967200D02*
X61416666Y-67014819D01*
X61416666Y-67014819D02*
X61321428Y-67014819D01*
X61321428Y-67014819D02*
X61178571Y-66967200D01*
X61178571Y-66967200D02*
X61083333Y-66871961D01*
X61083333Y-66871961D02*
X61035714Y-66776723D01*
X61035714Y-66776723D02*
X60988095Y-66586247D01*
X60988095Y-66586247D02*
X60988095Y-66443390D01*
X60988095Y-66443390D02*
X61035714Y-66252914D01*
X61035714Y-66252914D02*
X61083333Y-66157676D01*
X61083333Y-66157676D02*
X61178571Y-66062438D01*
X61178571Y-66062438D02*
X61321428Y-66014819D01*
X61321428Y-66014819D02*
X61416666Y-66014819D01*
X61416666Y-66014819D02*
X61559523Y-66062438D01*
X61559523Y-66062438D02*
X61607142Y-66110057D01*
X61940476Y-66014819D02*
X62559523Y-66014819D01*
X62559523Y-66014819D02*
X62226190Y-66395771D01*
X62226190Y-66395771D02*
X62369047Y-66395771D01*
X62369047Y-66395771D02*
X62464285Y-66443390D01*
X62464285Y-66443390D02*
X62511904Y-66491009D01*
X62511904Y-66491009D02*
X62559523Y-66586247D01*
X62559523Y-66586247D02*
X62559523Y-66824342D01*
X62559523Y-66824342D02*
X62511904Y-66919580D01*
X62511904Y-66919580D02*
X62464285Y-66967200D01*
X62464285Y-66967200D02*
X62369047Y-67014819D01*
X62369047Y-67014819D02*
X62083333Y-67014819D01*
X62083333Y-67014819D02*
X61988095Y-66967200D01*
X61988095Y-66967200D02*
X61940476Y-66919580D01*
X63511904Y-67014819D02*
X62940476Y-67014819D01*
X63226190Y-67014819D02*
X63226190Y-66014819D01*
X63226190Y-66014819D02*
X63130952Y-66157676D01*
X63130952Y-66157676D02*
X63035714Y-66252914D01*
X63035714Y-66252914D02*
X62940476Y-66300533D01*
X102413333Y-53929580D02*
X102365714Y-53977200D01*
X102365714Y-53977200D02*
X102222857Y-54024819D01*
X102222857Y-54024819D02*
X102127619Y-54024819D01*
X102127619Y-54024819D02*
X101984762Y-53977200D01*
X101984762Y-53977200D02*
X101889524Y-53881961D01*
X101889524Y-53881961D02*
X101841905Y-53786723D01*
X101841905Y-53786723D02*
X101794286Y-53596247D01*
X101794286Y-53596247D02*
X101794286Y-53453390D01*
X101794286Y-53453390D02*
X101841905Y-53262914D01*
X101841905Y-53262914D02*
X101889524Y-53167676D01*
X101889524Y-53167676D02*
X101984762Y-53072438D01*
X101984762Y-53072438D02*
X102127619Y-53024819D01*
X102127619Y-53024819D02*
X102222857Y-53024819D01*
X102222857Y-53024819D02*
X102365714Y-53072438D01*
X102365714Y-53072438D02*
X102413333Y-53120057D01*
X102794286Y-53120057D02*
X102841905Y-53072438D01*
X102841905Y-53072438D02*
X102937143Y-53024819D01*
X102937143Y-53024819D02*
X103175238Y-53024819D01*
X103175238Y-53024819D02*
X103270476Y-53072438D01*
X103270476Y-53072438D02*
X103318095Y-53120057D01*
X103318095Y-53120057D02*
X103365714Y-53215295D01*
X103365714Y-53215295D02*
X103365714Y-53310533D01*
X103365714Y-53310533D02*
X103318095Y-53453390D01*
X103318095Y-53453390D02*
X102746667Y-54024819D01*
X102746667Y-54024819D02*
X103365714Y-54024819D01*
X69672142Y-48669580D02*
X69624523Y-48717200D01*
X69624523Y-48717200D02*
X69481666Y-48764819D01*
X69481666Y-48764819D02*
X69386428Y-48764819D01*
X69386428Y-48764819D02*
X69243571Y-48717200D01*
X69243571Y-48717200D02*
X69148333Y-48621961D01*
X69148333Y-48621961D02*
X69100714Y-48526723D01*
X69100714Y-48526723D02*
X69053095Y-48336247D01*
X69053095Y-48336247D02*
X69053095Y-48193390D01*
X69053095Y-48193390D02*
X69100714Y-48002914D01*
X69100714Y-48002914D02*
X69148333Y-47907676D01*
X69148333Y-47907676D02*
X69243571Y-47812438D01*
X69243571Y-47812438D02*
X69386428Y-47764819D01*
X69386428Y-47764819D02*
X69481666Y-47764819D01*
X69481666Y-47764819D02*
X69624523Y-47812438D01*
X69624523Y-47812438D02*
X69672142Y-47860057D01*
X70053095Y-47860057D02*
X70100714Y-47812438D01*
X70100714Y-47812438D02*
X70195952Y-47764819D01*
X70195952Y-47764819D02*
X70434047Y-47764819D01*
X70434047Y-47764819D02*
X70529285Y-47812438D01*
X70529285Y-47812438D02*
X70576904Y-47860057D01*
X70576904Y-47860057D02*
X70624523Y-47955295D01*
X70624523Y-47955295D02*
X70624523Y-48050533D01*
X70624523Y-48050533D02*
X70576904Y-48193390D01*
X70576904Y-48193390D02*
X70005476Y-48764819D01*
X70005476Y-48764819D02*
X70624523Y-48764819D01*
X71100714Y-48764819D02*
X71291190Y-48764819D01*
X71291190Y-48764819D02*
X71386428Y-48717200D01*
X71386428Y-48717200D02*
X71434047Y-48669580D01*
X71434047Y-48669580D02*
X71529285Y-48526723D01*
X71529285Y-48526723D02*
X71576904Y-48336247D01*
X71576904Y-48336247D02*
X71576904Y-47955295D01*
X71576904Y-47955295D02*
X71529285Y-47860057D01*
X71529285Y-47860057D02*
X71481666Y-47812438D01*
X71481666Y-47812438D02*
X71386428Y-47764819D01*
X71386428Y-47764819D02*
X71195952Y-47764819D01*
X71195952Y-47764819D02*
X71100714Y-47812438D01*
X71100714Y-47812438D02*
X71053095Y-47860057D01*
X71053095Y-47860057D02*
X71005476Y-47955295D01*
X71005476Y-47955295D02*
X71005476Y-48193390D01*
X71005476Y-48193390D02*
X71053095Y-48288628D01*
X71053095Y-48288628D02*
X71100714Y-48336247D01*
X71100714Y-48336247D02*
X71195952Y-48383866D01*
X71195952Y-48383866D02*
X71386428Y-48383866D01*
X71386428Y-48383866D02*
X71481666Y-48336247D01*
X71481666Y-48336247D02*
X71529285Y-48288628D01*
X71529285Y-48288628D02*
X71576904Y-48193390D01*
X195019580Y-108642857D02*
X195067200Y-108690476D01*
X195067200Y-108690476D02*
X195114819Y-108833333D01*
X195114819Y-108833333D02*
X195114819Y-108928571D01*
X195114819Y-108928571D02*
X195067200Y-109071428D01*
X195067200Y-109071428D02*
X194971961Y-109166666D01*
X194971961Y-109166666D02*
X194876723Y-109214285D01*
X194876723Y-109214285D02*
X194686247Y-109261904D01*
X194686247Y-109261904D02*
X194543390Y-109261904D01*
X194543390Y-109261904D02*
X194352914Y-109214285D01*
X194352914Y-109214285D02*
X194257676Y-109166666D01*
X194257676Y-109166666D02*
X194162438Y-109071428D01*
X194162438Y-109071428D02*
X194114819Y-108928571D01*
X194114819Y-108928571D02*
X194114819Y-108833333D01*
X194114819Y-108833333D02*
X194162438Y-108690476D01*
X194162438Y-108690476D02*
X194210057Y-108642857D01*
X195114819Y-107690476D02*
X195114819Y-108261904D01*
X195114819Y-107976190D02*
X194114819Y-107976190D01*
X194114819Y-107976190D02*
X194257676Y-108071428D01*
X194257676Y-108071428D02*
X194352914Y-108166666D01*
X194352914Y-108166666D02*
X194400533Y-108261904D01*
X194448152Y-106833333D02*
X195114819Y-106833333D01*
X194067200Y-107071428D02*
X194781485Y-107309523D01*
X194781485Y-107309523D02*
X194781485Y-106690476D01*
X95309580Y-72992857D02*
X95357200Y-73040476D01*
X95357200Y-73040476D02*
X95404819Y-73183333D01*
X95404819Y-73183333D02*
X95404819Y-73278571D01*
X95404819Y-73278571D02*
X95357200Y-73421428D01*
X95357200Y-73421428D02*
X95261961Y-73516666D01*
X95261961Y-73516666D02*
X95166723Y-73564285D01*
X95166723Y-73564285D02*
X94976247Y-73611904D01*
X94976247Y-73611904D02*
X94833390Y-73611904D01*
X94833390Y-73611904D02*
X94642914Y-73564285D01*
X94642914Y-73564285D02*
X94547676Y-73516666D01*
X94547676Y-73516666D02*
X94452438Y-73421428D01*
X94452438Y-73421428D02*
X94404819Y-73278571D01*
X94404819Y-73278571D02*
X94404819Y-73183333D01*
X94404819Y-73183333D02*
X94452438Y-73040476D01*
X94452438Y-73040476D02*
X94500057Y-72992857D01*
X95404819Y-72040476D02*
X95404819Y-72611904D01*
X95404819Y-72326190D02*
X94404819Y-72326190D01*
X94404819Y-72326190D02*
X94547676Y-72421428D01*
X94547676Y-72421428D02*
X94642914Y-72516666D01*
X94642914Y-72516666D02*
X94690533Y-72611904D01*
X94404819Y-71707142D02*
X94404819Y-71040476D01*
X94404819Y-71040476D02*
X95404819Y-71469047D01*
X202562142Y-80249580D02*
X202514523Y-80297200D01*
X202514523Y-80297200D02*
X202371666Y-80344819D01*
X202371666Y-80344819D02*
X202276428Y-80344819D01*
X202276428Y-80344819D02*
X202133571Y-80297200D01*
X202133571Y-80297200D02*
X202038333Y-80201961D01*
X202038333Y-80201961D02*
X201990714Y-80106723D01*
X201990714Y-80106723D02*
X201943095Y-79916247D01*
X201943095Y-79916247D02*
X201943095Y-79773390D01*
X201943095Y-79773390D02*
X201990714Y-79582914D01*
X201990714Y-79582914D02*
X202038333Y-79487676D01*
X202038333Y-79487676D02*
X202133571Y-79392438D01*
X202133571Y-79392438D02*
X202276428Y-79344819D01*
X202276428Y-79344819D02*
X202371666Y-79344819D01*
X202371666Y-79344819D02*
X202514523Y-79392438D01*
X202514523Y-79392438D02*
X202562142Y-79440057D01*
X202943095Y-79440057D02*
X202990714Y-79392438D01*
X202990714Y-79392438D02*
X203085952Y-79344819D01*
X203085952Y-79344819D02*
X203324047Y-79344819D01*
X203324047Y-79344819D02*
X203419285Y-79392438D01*
X203419285Y-79392438D02*
X203466904Y-79440057D01*
X203466904Y-79440057D02*
X203514523Y-79535295D01*
X203514523Y-79535295D02*
X203514523Y-79630533D01*
X203514523Y-79630533D02*
X203466904Y-79773390D01*
X203466904Y-79773390D02*
X202895476Y-80344819D01*
X202895476Y-80344819D02*
X203514523Y-80344819D01*
X204466904Y-80344819D02*
X203895476Y-80344819D01*
X204181190Y-80344819D02*
X204181190Y-79344819D01*
X204181190Y-79344819D02*
X204085952Y-79487676D01*
X204085952Y-79487676D02*
X203990714Y-79582914D01*
X203990714Y-79582914D02*
X203895476Y-79630533D01*
X57479819Y-112943094D02*
X56479819Y-112943094D01*
X56479819Y-112943094D02*
X56479819Y-112704999D01*
X56479819Y-112704999D02*
X56527438Y-112562142D01*
X56527438Y-112562142D02*
X56622676Y-112466904D01*
X56622676Y-112466904D02*
X56717914Y-112419285D01*
X56717914Y-112419285D02*
X56908390Y-112371666D01*
X56908390Y-112371666D02*
X57051247Y-112371666D01*
X57051247Y-112371666D02*
X57241723Y-112419285D01*
X57241723Y-112419285D02*
X57336961Y-112466904D01*
X57336961Y-112466904D02*
X57432200Y-112562142D01*
X57432200Y-112562142D02*
X57479819Y-112704999D01*
X57479819Y-112704999D02*
X57479819Y-112943094D01*
X56479819Y-112038332D02*
X56479819Y-111419285D01*
X56479819Y-111419285D02*
X56860771Y-111752618D01*
X56860771Y-111752618D02*
X56860771Y-111609761D01*
X56860771Y-111609761D02*
X56908390Y-111514523D01*
X56908390Y-111514523D02*
X56956009Y-111466904D01*
X56956009Y-111466904D02*
X57051247Y-111419285D01*
X57051247Y-111419285D02*
X57289342Y-111419285D01*
X57289342Y-111419285D02*
X57384580Y-111466904D01*
X57384580Y-111466904D02*
X57432200Y-111514523D01*
X57432200Y-111514523D02*
X57479819Y-111609761D01*
X57479819Y-111609761D02*
X57479819Y-111895475D01*
X57479819Y-111895475D02*
X57432200Y-111990713D01*
X57432200Y-111990713D02*
X57384580Y-112038332D01*
D11*
X59729800Y-62039523D02*
X59777419Y-61896666D01*
X59777419Y-61896666D02*
X59777419Y-61658571D01*
X59777419Y-61658571D02*
X59729800Y-61563333D01*
X59729800Y-61563333D02*
X59682180Y-61515714D01*
X59682180Y-61515714D02*
X59586942Y-61468095D01*
X59586942Y-61468095D02*
X59491704Y-61468095D01*
X59491704Y-61468095D02*
X59396466Y-61515714D01*
X59396466Y-61515714D02*
X59348847Y-61563333D01*
X59348847Y-61563333D02*
X59301228Y-61658571D01*
X59301228Y-61658571D02*
X59253609Y-61849047D01*
X59253609Y-61849047D02*
X59205990Y-61944285D01*
X59205990Y-61944285D02*
X59158371Y-61991904D01*
X59158371Y-61991904D02*
X59063133Y-62039523D01*
X59063133Y-62039523D02*
X58967895Y-62039523D01*
X58967895Y-62039523D02*
X58872657Y-61991904D01*
X58872657Y-61991904D02*
X58825038Y-61944285D01*
X58825038Y-61944285D02*
X58777419Y-61849047D01*
X58777419Y-61849047D02*
X58777419Y-61610952D01*
X58777419Y-61610952D02*
X58825038Y-61468095D01*
X58777419Y-61134761D02*
X59777419Y-60896666D01*
X59777419Y-60896666D02*
X59063133Y-60706190D01*
X59063133Y-60706190D02*
X59777419Y-60515714D01*
X59777419Y-60515714D02*
X58777419Y-60277619D01*
X59777419Y-59372857D02*
X59777419Y-59944285D01*
X59777419Y-59658571D02*
X58777419Y-59658571D01*
X58777419Y-59658571D02*
X58920276Y-59753809D01*
X58920276Y-59753809D02*
X59015514Y-59849047D01*
X59015514Y-59849047D02*
X59063133Y-59944285D01*
X58777419Y-58753809D02*
X58777419Y-58658571D01*
X58777419Y-58658571D02*
X58825038Y-58563333D01*
X58825038Y-58563333D02*
X58872657Y-58515714D01*
X58872657Y-58515714D02*
X58967895Y-58468095D01*
X58967895Y-58468095D02*
X59158371Y-58420476D01*
X59158371Y-58420476D02*
X59396466Y-58420476D01*
X59396466Y-58420476D02*
X59586942Y-58468095D01*
X59586942Y-58468095D02*
X59682180Y-58515714D01*
X59682180Y-58515714D02*
X59729800Y-58563333D01*
X59729800Y-58563333D02*
X59777419Y-58658571D01*
X59777419Y-58658571D02*
X59777419Y-58753809D01*
X59777419Y-58753809D02*
X59729800Y-58849047D01*
X59729800Y-58849047D02*
X59682180Y-58896666D01*
X59682180Y-58896666D02*
X59586942Y-58944285D01*
X59586942Y-58944285D02*
X59396466Y-58991904D01*
X59396466Y-58991904D02*
X59158371Y-58991904D01*
X59158371Y-58991904D02*
X58967895Y-58944285D01*
X58967895Y-58944285D02*
X58872657Y-58896666D01*
X58872657Y-58896666D02*
X58825038Y-58849047D01*
X58825038Y-58849047D02*
X58777419Y-58753809D01*
D10*
X65079580Y-49332857D02*
X65127200Y-49380476D01*
X65127200Y-49380476D02*
X65174819Y-49523333D01*
X65174819Y-49523333D02*
X65174819Y-49618571D01*
X65174819Y-49618571D02*
X65127200Y-49761428D01*
X65127200Y-49761428D02*
X65031961Y-49856666D01*
X65031961Y-49856666D02*
X64936723Y-49904285D01*
X64936723Y-49904285D02*
X64746247Y-49951904D01*
X64746247Y-49951904D02*
X64603390Y-49951904D01*
X64603390Y-49951904D02*
X64412914Y-49904285D01*
X64412914Y-49904285D02*
X64317676Y-49856666D01*
X64317676Y-49856666D02*
X64222438Y-49761428D01*
X64222438Y-49761428D02*
X64174819Y-49618571D01*
X64174819Y-49618571D02*
X64174819Y-49523333D01*
X64174819Y-49523333D02*
X64222438Y-49380476D01*
X64222438Y-49380476D02*
X64270057Y-49332857D01*
X64270057Y-48951904D02*
X64222438Y-48904285D01*
X64222438Y-48904285D02*
X64174819Y-48809047D01*
X64174819Y-48809047D02*
X64174819Y-48570952D01*
X64174819Y-48570952D02*
X64222438Y-48475714D01*
X64222438Y-48475714D02*
X64270057Y-48428095D01*
X64270057Y-48428095D02*
X64365295Y-48380476D01*
X64365295Y-48380476D02*
X64460533Y-48380476D01*
X64460533Y-48380476D02*
X64603390Y-48428095D01*
X64603390Y-48428095D02*
X65174819Y-48999523D01*
X65174819Y-48999523D02*
X65174819Y-48380476D01*
X64603390Y-47809047D02*
X64555771Y-47904285D01*
X64555771Y-47904285D02*
X64508152Y-47951904D01*
X64508152Y-47951904D02*
X64412914Y-47999523D01*
X64412914Y-47999523D02*
X64365295Y-47999523D01*
X64365295Y-47999523D02*
X64270057Y-47951904D01*
X64270057Y-47951904D02*
X64222438Y-47904285D01*
X64222438Y-47904285D02*
X64174819Y-47809047D01*
X64174819Y-47809047D02*
X64174819Y-47618571D01*
X64174819Y-47618571D02*
X64222438Y-47523333D01*
X64222438Y-47523333D02*
X64270057Y-47475714D01*
X64270057Y-47475714D02*
X64365295Y-47428095D01*
X64365295Y-47428095D02*
X64412914Y-47428095D01*
X64412914Y-47428095D02*
X64508152Y-47475714D01*
X64508152Y-47475714D02*
X64555771Y-47523333D01*
X64555771Y-47523333D02*
X64603390Y-47618571D01*
X64603390Y-47618571D02*
X64603390Y-47809047D01*
X64603390Y-47809047D02*
X64651009Y-47904285D01*
X64651009Y-47904285D02*
X64698628Y-47951904D01*
X64698628Y-47951904D02*
X64793866Y-47999523D01*
X64793866Y-47999523D02*
X64984342Y-47999523D01*
X64984342Y-47999523D02*
X65079580Y-47951904D01*
X65079580Y-47951904D02*
X65127200Y-47904285D01*
X65127200Y-47904285D02*
X65174819Y-47809047D01*
X65174819Y-47809047D02*
X65174819Y-47618571D01*
X65174819Y-47618571D02*
X65127200Y-47523333D01*
X65127200Y-47523333D02*
X65079580Y-47475714D01*
X65079580Y-47475714D02*
X64984342Y-47428095D01*
X64984342Y-47428095D02*
X64793866Y-47428095D01*
X64793866Y-47428095D02*
X64698628Y-47475714D01*
X64698628Y-47475714D02*
X64651009Y-47523333D01*
X64651009Y-47523333D02*
X64603390Y-47618571D01*
X60912261Y-112750057D02*
X60817023Y-112702438D01*
X60817023Y-112702438D02*
X60721785Y-112607200D01*
X60721785Y-112607200D02*
X60578928Y-112464342D01*
X60578928Y-112464342D02*
X60483690Y-112416723D01*
X60483690Y-112416723D02*
X60388452Y-112416723D01*
X60436071Y-112654819D02*
X60340833Y-112607200D01*
X60340833Y-112607200D02*
X60245595Y-112511961D01*
X60245595Y-112511961D02*
X60197976Y-112321485D01*
X60197976Y-112321485D02*
X60197976Y-111988152D01*
X60197976Y-111988152D02*
X60245595Y-111797676D01*
X60245595Y-111797676D02*
X60340833Y-111702438D01*
X60340833Y-111702438D02*
X60436071Y-111654819D01*
X60436071Y-111654819D02*
X60626547Y-111654819D01*
X60626547Y-111654819D02*
X60721785Y-111702438D01*
X60721785Y-111702438D02*
X60817023Y-111797676D01*
X60817023Y-111797676D02*
X60864642Y-111988152D01*
X60864642Y-111988152D02*
X60864642Y-112321485D01*
X60864642Y-112321485D02*
X60817023Y-112511961D01*
X60817023Y-112511961D02*
X60721785Y-112607200D01*
X60721785Y-112607200D02*
X60626547Y-112654819D01*
X60626547Y-112654819D02*
X60436071Y-112654819D01*
X61817023Y-112654819D02*
X61245595Y-112654819D01*
X61531309Y-112654819D02*
X61531309Y-111654819D01*
X61531309Y-111654819D02*
X61436071Y-111797676D01*
X61436071Y-111797676D02*
X61340833Y-111892914D01*
X61340833Y-111892914D02*
X61245595Y-111940533D01*
X72456666Y-116544819D02*
X72456666Y-117259104D01*
X72456666Y-117259104D02*
X72409047Y-117401961D01*
X72409047Y-117401961D02*
X72313809Y-117497200D01*
X72313809Y-117497200D02*
X72170952Y-117544819D01*
X72170952Y-117544819D02*
X72075714Y-117544819D01*
X73075714Y-116973390D02*
X72980476Y-116925771D01*
X72980476Y-116925771D02*
X72932857Y-116878152D01*
X72932857Y-116878152D02*
X72885238Y-116782914D01*
X72885238Y-116782914D02*
X72885238Y-116735295D01*
X72885238Y-116735295D02*
X72932857Y-116640057D01*
X72932857Y-116640057D02*
X72980476Y-116592438D01*
X72980476Y-116592438D02*
X73075714Y-116544819D01*
X73075714Y-116544819D02*
X73266190Y-116544819D01*
X73266190Y-116544819D02*
X73361428Y-116592438D01*
X73361428Y-116592438D02*
X73409047Y-116640057D01*
X73409047Y-116640057D02*
X73456666Y-116735295D01*
X73456666Y-116735295D02*
X73456666Y-116782914D01*
X73456666Y-116782914D02*
X73409047Y-116878152D01*
X73409047Y-116878152D02*
X73361428Y-116925771D01*
X73361428Y-116925771D02*
X73266190Y-116973390D01*
X73266190Y-116973390D02*
X73075714Y-116973390D01*
X73075714Y-116973390D02*
X72980476Y-117021009D01*
X72980476Y-117021009D02*
X72932857Y-117068628D01*
X72932857Y-117068628D02*
X72885238Y-117163866D01*
X72885238Y-117163866D02*
X72885238Y-117354342D01*
X72885238Y-117354342D02*
X72932857Y-117449580D01*
X72932857Y-117449580D02*
X72980476Y-117497200D01*
X72980476Y-117497200D02*
X73075714Y-117544819D01*
X73075714Y-117544819D02*
X73266190Y-117544819D01*
X73266190Y-117544819D02*
X73361428Y-117497200D01*
X73361428Y-117497200D02*
X73409047Y-117449580D01*
X73409047Y-117449580D02*
X73456666Y-117354342D01*
X73456666Y-117354342D02*
X73456666Y-117163866D01*
X73456666Y-117163866D02*
X73409047Y-117068628D01*
X73409047Y-117068628D02*
X73361428Y-117021009D01*
X73361428Y-117021009D02*
X73266190Y-116973390D01*
X104714819Y-72658333D02*
X105429104Y-72658333D01*
X105429104Y-72658333D02*
X105571961Y-72705952D01*
X105571961Y-72705952D02*
X105667200Y-72801190D01*
X105667200Y-72801190D02*
X105714819Y-72944047D01*
X105714819Y-72944047D02*
X105714819Y-73039285D01*
X104714819Y-72277380D02*
X104714819Y-71658333D01*
X104714819Y-71658333D02*
X105095771Y-71991666D01*
X105095771Y-71991666D02*
X105095771Y-71848809D01*
X105095771Y-71848809D02*
X105143390Y-71753571D01*
X105143390Y-71753571D02*
X105191009Y-71705952D01*
X105191009Y-71705952D02*
X105286247Y-71658333D01*
X105286247Y-71658333D02*
X105524342Y-71658333D01*
X105524342Y-71658333D02*
X105619580Y-71705952D01*
X105619580Y-71705952D02*
X105667200Y-71753571D01*
X105667200Y-71753571D02*
X105714819Y-71848809D01*
X105714819Y-71848809D02*
X105714819Y-72134523D01*
X105714819Y-72134523D02*
X105667200Y-72229761D01*
X105667200Y-72229761D02*
X105619580Y-72277380D01*
X201317142Y-109589580D02*
X201269523Y-109637200D01*
X201269523Y-109637200D02*
X201126666Y-109684819D01*
X201126666Y-109684819D02*
X201031428Y-109684819D01*
X201031428Y-109684819D02*
X200888571Y-109637200D01*
X200888571Y-109637200D02*
X200793333Y-109541961D01*
X200793333Y-109541961D02*
X200745714Y-109446723D01*
X200745714Y-109446723D02*
X200698095Y-109256247D01*
X200698095Y-109256247D02*
X200698095Y-109113390D01*
X200698095Y-109113390D02*
X200745714Y-108922914D01*
X200745714Y-108922914D02*
X200793333Y-108827676D01*
X200793333Y-108827676D02*
X200888571Y-108732438D01*
X200888571Y-108732438D02*
X201031428Y-108684819D01*
X201031428Y-108684819D02*
X201126666Y-108684819D01*
X201126666Y-108684819D02*
X201269523Y-108732438D01*
X201269523Y-108732438D02*
X201317142Y-108780057D01*
X202269523Y-109684819D02*
X201698095Y-109684819D01*
X201983809Y-109684819D02*
X201983809Y-108684819D01*
X201983809Y-108684819D02*
X201888571Y-108827676D01*
X201888571Y-108827676D02*
X201793333Y-108922914D01*
X201793333Y-108922914D02*
X201698095Y-108970533D01*
X202745714Y-109684819D02*
X202936190Y-109684819D01*
X202936190Y-109684819D02*
X203031428Y-109637200D01*
X203031428Y-109637200D02*
X203079047Y-109589580D01*
X203079047Y-109589580D02*
X203174285Y-109446723D01*
X203174285Y-109446723D02*
X203221904Y-109256247D01*
X203221904Y-109256247D02*
X203221904Y-108875295D01*
X203221904Y-108875295D02*
X203174285Y-108780057D01*
X203174285Y-108780057D02*
X203126666Y-108732438D01*
X203126666Y-108732438D02*
X203031428Y-108684819D01*
X203031428Y-108684819D02*
X202840952Y-108684819D01*
X202840952Y-108684819D02*
X202745714Y-108732438D01*
X202745714Y-108732438D02*
X202698095Y-108780057D01*
X202698095Y-108780057D02*
X202650476Y-108875295D01*
X202650476Y-108875295D02*
X202650476Y-109113390D01*
X202650476Y-109113390D02*
X202698095Y-109208628D01*
X202698095Y-109208628D02*
X202745714Y-109256247D01*
X202745714Y-109256247D02*
X202840952Y-109303866D01*
X202840952Y-109303866D02*
X203031428Y-109303866D01*
X203031428Y-109303866D02*
X203126666Y-109256247D01*
X203126666Y-109256247D02*
X203174285Y-109208628D01*
X203174285Y-109208628D02*
X203221904Y-109113390D01*
X92333333Y-71379580D02*
X92285714Y-71427200D01*
X92285714Y-71427200D02*
X92142857Y-71474819D01*
X92142857Y-71474819D02*
X92047619Y-71474819D01*
X92047619Y-71474819D02*
X91904762Y-71427200D01*
X91904762Y-71427200D02*
X91809524Y-71331961D01*
X91809524Y-71331961D02*
X91761905Y-71236723D01*
X91761905Y-71236723D02*
X91714286Y-71046247D01*
X91714286Y-71046247D02*
X91714286Y-70903390D01*
X91714286Y-70903390D02*
X91761905Y-70712914D01*
X91761905Y-70712914D02*
X91809524Y-70617676D01*
X91809524Y-70617676D02*
X91904762Y-70522438D01*
X91904762Y-70522438D02*
X92047619Y-70474819D01*
X92047619Y-70474819D02*
X92142857Y-70474819D01*
X92142857Y-70474819D02*
X92285714Y-70522438D01*
X92285714Y-70522438D02*
X92333333Y-70570057D01*
X92904762Y-70903390D02*
X92809524Y-70855771D01*
X92809524Y-70855771D02*
X92761905Y-70808152D01*
X92761905Y-70808152D02*
X92714286Y-70712914D01*
X92714286Y-70712914D02*
X92714286Y-70665295D01*
X92714286Y-70665295D02*
X92761905Y-70570057D01*
X92761905Y-70570057D02*
X92809524Y-70522438D01*
X92809524Y-70522438D02*
X92904762Y-70474819D01*
X92904762Y-70474819D02*
X93095238Y-70474819D01*
X93095238Y-70474819D02*
X93190476Y-70522438D01*
X93190476Y-70522438D02*
X93238095Y-70570057D01*
X93238095Y-70570057D02*
X93285714Y-70665295D01*
X93285714Y-70665295D02*
X93285714Y-70712914D01*
X93285714Y-70712914D02*
X93238095Y-70808152D01*
X93238095Y-70808152D02*
X93190476Y-70855771D01*
X93190476Y-70855771D02*
X93095238Y-70903390D01*
X93095238Y-70903390D02*
X92904762Y-70903390D01*
X92904762Y-70903390D02*
X92809524Y-70951009D01*
X92809524Y-70951009D02*
X92761905Y-70998628D01*
X92761905Y-70998628D02*
X92714286Y-71093866D01*
X92714286Y-71093866D02*
X92714286Y-71284342D01*
X92714286Y-71284342D02*
X92761905Y-71379580D01*
X92761905Y-71379580D02*
X92809524Y-71427200D01*
X92809524Y-71427200D02*
X92904762Y-71474819D01*
X92904762Y-71474819D02*
X93095238Y-71474819D01*
X93095238Y-71474819D02*
X93190476Y-71427200D01*
X93190476Y-71427200D02*
X93238095Y-71379580D01*
X93238095Y-71379580D02*
X93285714Y-71284342D01*
X93285714Y-71284342D02*
X93285714Y-71093866D01*
X93285714Y-71093866D02*
X93238095Y-70998628D01*
X93238095Y-70998628D02*
X93190476Y-70951009D01*
X93190476Y-70951009D02*
X93095238Y-70903390D01*
X98199580Y-73767857D02*
X98247200Y-73815476D01*
X98247200Y-73815476D02*
X98294819Y-73958333D01*
X98294819Y-73958333D02*
X98294819Y-74053571D01*
X98294819Y-74053571D02*
X98247200Y-74196428D01*
X98247200Y-74196428D02*
X98151961Y-74291666D01*
X98151961Y-74291666D02*
X98056723Y-74339285D01*
X98056723Y-74339285D02*
X97866247Y-74386904D01*
X97866247Y-74386904D02*
X97723390Y-74386904D01*
X97723390Y-74386904D02*
X97532914Y-74339285D01*
X97532914Y-74339285D02*
X97437676Y-74291666D01*
X97437676Y-74291666D02*
X97342438Y-74196428D01*
X97342438Y-74196428D02*
X97294819Y-74053571D01*
X97294819Y-74053571D02*
X97294819Y-73958333D01*
X97294819Y-73958333D02*
X97342438Y-73815476D01*
X97342438Y-73815476D02*
X97390057Y-73767857D01*
X98294819Y-72815476D02*
X98294819Y-73386904D01*
X98294819Y-73101190D02*
X97294819Y-73101190D01*
X97294819Y-73101190D02*
X97437676Y-73196428D01*
X97437676Y-73196428D02*
X97532914Y-73291666D01*
X97532914Y-73291666D02*
X97580533Y-73386904D01*
X97723390Y-72244047D02*
X97675771Y-72339285D01*
X97675771Y-72339285D02*
X97628152Y-72386904D01*
X97628152Y-72386904D02*
X97532914Y-72434523D01*
X97532914Y-72434523D02*
X97485295Y-72434523D01*
X97485295Y-72434523D02*
X97390057Y-72386904D01*
X97390057Y-72386904D02*
X97342438Y-72339285D01*
X97342438Y-72339285D02*
X97294819Y-72244047D01*
X97294819Y-72244047D02*
X97294819Y-72053571D01*
X97294819Y-72053571D02*
X97342438Y-71958333D01*
X97342438Y-71958333D02*
X97390057Y-71910714D01*
X97390057Y-71910714D02*
X97485295Y-71863095D01*
X97485295Y-71863095D02*
X97532914Y-71863095D01*
X97532914Y-71863095D02*
X97628152Y-71910714D01*
X97628152Y-71910714D02*
X97675771Y-71958333D01*
X97675771Y-71958333D02*
X97723390Y-72053571D01*
X97723390Y-72053571D02*
X97723390Y-72244047D01*
X97723390Y-72244047D02*
X97771009Y-72339285D01*
X97771009Y-72339285D02*
X97818628Y-72386904D01*
X97818628Y-72386904D02*
X97913866Y-72434523D01*
X97913866Y-72434523D02*
X98104342Y-72434523D01*
X98104342Y-72434523D02*
X98199580Y-72386904D01*
X98199580Y-72386904D02*
X98247200Y-72339285D01*
X98247200Y-72339285D02*
X98294819Y-72244047D01*
X98294819Y-72244047D02*
X98294819Y-72053571D01*
X98294819Y-72053571D02*
X98247200Y-71958333D01*
X98247200Y-71958333D02*
X98199580Y-71910714D01*
X98199580Y-71910714D02*
X98104342Y-71863095D01*
X98104342Y-71863095D02*
X97913866Y-71863095D01*
X97913866Y-71863095D02*
X97818628Y-71910714D01*
X97818628Y-71910714D02*
X97771009Y-71958333D01*
X97771009Y-71958333D02*
X97723390Y-72053571D01*
X203094819Y-104031904D02*
X203904342Y-104031904D01*
X203904342Y-104031904D02*
X203999580Y-103984285D01*
X203999580Y-103984285D02*
X204047200Y-103936666D01*
X204047200Y-103936666D02*
X204094819Y-103841428D01*
X204094819Y-103841428D02*
X204094819Y-103650952D01*
X204094819Y-103650952D02*
X204047200Y-103555714D01*
X204047200Y-103555714D02*
X203999580Y-103508095D01*
X203999580Y-103508095D02*
X203904342Y-103460476D01*
X203904342Y-103460476D02*
X203094819Y-103460476D01*
X203428152Y-102555714D02*
X204094819Y-102555714D01*
X203047200Y-102793809D02*
X203761485Y-103031904D01*
X203761485Y-103031904D02*
X203761485Y-102412857D01*
X61788095Y-112314819D02*
X61788095Y-113124342D01*
X61788095Y-113124342D02*
X61835714Y-113219580D01*
X61835714Y-113219580D02*
X61883333Y-113267200D01*
X61883333Y-113267200D02*
X61978571Y-113314819D01*
X61978571Y-113314819D02*
X62169047Y-113314819D01*
X62169047Y-113314819D02*
X62264285Y-113267200D01*
X62264285Y-113267200D02*
X62311904Y-113219580D01*
X62311904Y-113219580D02*
X62359523Y-113124342D01*
X62359523Y-113124342D02*
X62359523Y-112314819D01*
X63264285Y-112314819D02*
X63073809Y-112314819D01*
X63073809Y-112314819D02*
X62978571Y-112362438D01*
X62978571Y-112362438D02*
X62930952Y-112410057D01*
X62930952Y-112410057D02*
X62835714Y-112552914D01*
X62835714Y-112552914D02*
X62788095Y-112743390D01*
X62788095Y-112743390D02*
X62788095Y-113124342D01*
X62788095Y-113124342D02*
X62835714Y-113219580D01*
X62835714Y-113219580D02*
X62883333Y-113267200D01*
X62883333Y-113267200D02*
X62978571Y-113314819D01*
X62978571Y-113314819D02*
X63169047Y-113314819D01*
X63169047Y-113314819D02*
X63264285Y-113267200D01*
X63264285Y-113267200D02*
X63311904Y-113219580D01*
X63311904Y-113219580D02*
X63359523Y-113124342D01*
X63359523Y-113124342D02*
X63359523Y-112886247D01*
X63359523Y-112886247D02*
X63311904Y-112791009D01*
X63311904Y-112791009D02*
X63264285Y-112743390D01*
X63264285Y-112743390D02*
X63169047Y-112695771D01*
X63169047Y-112695771D02*
X62978571Y-112695771D01*
X62978571Y-112695771D02*
X62883333Y-112743390D01*
X62883333Y-112743390D02*
X62835714Y-112791009D01*
X62835714Y-112791009D02*
X62788095Y-112886247D01*
X56260476Y-73057200D02*
X56403333Y-73104819D01*
X56403333Y-73104819D02*
X56641428Y-73104819D01*
X56641428Y-73104819D02*
X56736666Y-73057200D01*
X56736666Y-73057200D02*
X56784285Y-73009580D01*
X56784285Y-73009580D02*
X56831904Y-72914342D01*
X56831904Y-72914342D02*
X56831904Y-72819104D01*
X56831904Y-72819104D02*
X56784285Y-72723866D01*
X56784285Y-72723866D02*
X56736666Y-72676247D01*
X56736666Y-72676247D02*
X56641428Y-72628628D01*
X56641428Y-72628628D02*
X56450952Y-72581009D01*
X56450952Y-72581009D02*
X56355714Y-72533390D01*
X56355714Y-72533390D02*
X56308095Y-72485771D01*
X56308095Y-72485771D02*
X56260476Y-72390533D01*
X56260476Y-72390533D02*
X56260476Y-72295295D01*
X56260476Y-72295295D02*
X56308095Y-72200057D01*
X56308095Y-72200057D02*
X56355714Y-72152438D01*
X56355714Y-72152438D02*
X56450952Y-72104819D01*
X56450952Y-72104819D02*
X56689047Y-72104819D01*
X56689047Y-72104819D02*
X56831904Y-72152438D01*
X57165238Y-72104819D02*
X57403333Y-73104819D01*
X57403333Y-73104819D02*
X57593809Y-72390533D01*
X57593809Y-72390533D02*
X57784285Y-73104819D01*
X57784285Y-73104819D02*
X58022381Y-72104819D01*
X58927142Y-73104819D02*
X58355714Y-73104819D01*
X58641428Y-73104819D02*
X58641428Y-72104819D01*
X58641428Y-72104819D02*
X58546190Y-72247676D01*
X58546190Y-72247676D02*
X58450952Y-72342914D01*
X58450952Y-72342914D02*
X58355714Y-72390533D01*
X59308095Y-72200057D02*
X59355714Y-72152438D01*
X59355714Y-72152438D02*
X59450952Y-72104819D01*
X59450952Y-72104819D02*
X59689047Y-72104819D01*
X59689047Y-72104819D02*
X59784285Y-72152438D01*
X59784285Y-72152438D02*
X59831904Y-72200057D01*
X59831904Y-72200057D02*
X59879523Y-72295295D01*
X59879523Y-72295295D02*
X59879523Y-72390533D01*
X59879523Y-72390533D02*
X59831904Y-72533390D01*
X59831904Y-72533390D02*
X59260476Y-73104819D01*
X59260476Y-73104819D02*
X59879523Y-73104819D01*
X67417142Y-121749580D02*
X67369523Y-121797200D01*
X67369523Y-121797200D02*
X67226666Y-121844819D01*
X67226666Y-121844819D02*
X67131428Y-121844819D01*
X67131428Y-121844819D02*
X66988571Y-121797200D01*
X66988571Y-121797200D02*
X66893333Y-121701961D01*
X66893333Y-121701961D02*
X66845714Y-121606723D01*
X66845714Y-121606723D02*
X66798095Y-121416247D01*
X66798095Y-121416247D02*
X66798095Y-121273390D01*
X66798095Y-121273390D02*
X66845714Y-121082914D01*
X66845714Y-121082914D02*
X66893333Y-120987676D01*
X66893333Y-120987676D02*
X66988571Y-120892438D01*
X66988571Y-120892438D02*
X67131428Y-120844819D01*
X67131428Y-120844819D02*
X67226666Y-120844819D01*
X67226666Y-120844819D02*
X67369523Y-120892438D01*
X67369523Y-120892438D02*
X67417142Y-120940057D01*
X67798095Y-120940057D02*
X67845714Y-120892438D01*
X67845714Y-120892438D02*
X67940952Y-120844819D01*
X67940952Y-120844819D02*
X68179047Y-120844819D01*
X68179047Y-120844819D02*
X68274285Y-120892438D01*
X68274285Y-120892438D02*
X68321904Y-120940057D01*
X68321904Y-120940057D02*
X68369523Y-121035295D01*
X68369523Y-121035295D02*
X68369523Y-121130533D01*
X68369523Y-121130533D02*
X68321904Y-121273390D01*
X68321904Y-121273390D02*
X67750476Y-121844819D01*
X67750476Y-121844819D02*
X68369523Y-121844819D01*
X69274285Y-120844819D02*
X68798095Y-120844819D01*
X68798095Y-120844819D02*
X68750476Y-121321009D01*
X68750476Y-121321009D02*
X68798095Y-121273390D01*
X68798095Y-121273390D02*
X68893333Y-121225771D01*
X68893333Y-121225771D02*
X69131428Y-121225771D01*
X69131428Y-121225771D02*
X69226666Y-121273390D01*
X69226666Y-121273390D02*
X69274285Y-121321009D01*
X69274285Y-121321009D02*
X69321904Y-121416247D01*
X69321904Y-121416247D02*
X69321904Y-121654342D01*
X69321904Y-121654342D02*
X69274285Y-121749580D01*
X69274285Y-121749580D02*
X69226666Y-121797200D01*
X69226666Y-121797200D02*
X69131428Y-121844819D01*
X69131428Y-121844819D02*
X68893333Y-121844819D01*
X68893333Y-121844819D02*
X68798095Y-121797200D01*
X68798095Y-121797200D02*
X68750476Y-121749580D01*
X73137142Y-80104819D02*
X72803809Y-79628628D01*
X72565714Y-80104819D02*
X72565714Y-79104819D01*
X72565714Y-79104819D02*
X72946666Y-79104819D01*
X72946666Y-79104819D02*
X73041904Y-79152438D01*
X73041904Y-79152438D02*
X73089523Y-79200057D01*
X73089523Y-79200057D02*
X73137142Y-79295295D01*
X73137142Y-79295295D02*
X73137142Y-79438152D01*
X73137142Y-79438152D02*
X73089523Y-79533390D01*
X73089523Y-79533390D02*
X73041904Y-79581009D01*
X73041904Y-79581009D02*
X72946666Y-79628628D01*
X72946666Y-79628628D02*
X72565714Y-79628628D01*
X74089523Y-80104819D02*
X73518095Y-80104819D01*
X73803809Y-80104819D02*
X73803809Y-79104819D01*
X73803809Y-79104819D02*
X73708571Y-79247676D01*
X73708571Y-79247676D02*
X73613333Y-79342914D01*
X73613333Y-79342914D02*
X73518095Y-79390533D01*
X74422857Y-79104819D02*
X75089523Y-79104819D01*
X75089523Y-79104819D02*
X74660952Y-80104819D01*
X198663096Y-81644819D02*
X198663096Y-82454342D01*
X198663096Y-82454342D02*
X198710715Y-82549580D01*
X198710715Y-82549580D02*
X198758334Y-82597200D01*
X198758334Y-82597200D02*
X198853572Y-82644819D01*
X198853572Y-82644819D02*
X199044048Y-82644819D01*
X199044048Y-82644819D02*
X199139286Y-82597200D01*
X199139286Y-82597200D02*
X199186905Y-82549580D01*
X199186905Y-82549580D02*
X199234524Y-82454342D01*
X199234524Y-82454342D02*
X199234524Y-81644819D01*
X200234524Y-82644819D02*
X199663096Y-82644819D01*
X199948810Y-82644819D02*
X199948810Y-81644819D01*
X199948810Y-81644819D02*
X199853572Y-81787676D01*
X199853572Y-81787676D02*
X199758334Y-81882914D01*
X199758334Y-81882914D02*
X199663096Y-81930533D01*
X193254915Y-79800019D02*
X193254915Y-78800019D01*
X193254915Y-78800019D02*
X193493010Y-78800019D01*
X193493010Y-78800019D02*
X193635867Y-78847638D01*
X193635867Y-78847638D02*
X193731105Y-78942876D01*
X193731105Y-78942876D02*
X193778724Y-79038114D01*
X193778724Y-79038114D02*
X193826343Y-79228590D01*
X193826343Y-79228590D02*
X193826343Y-79371447D01*
X193826343Y-79371447D02*
X193778724Y-79561923D01*
X193778724Y-79561923D02*
X193731105Y-79657161D01*
X193731105Y-79657161D02*
X193635867Y-79752400D01*
X193635867Y-79752400D02*
X193493010Y-79800019D01*
X193493010Y-79800019D02*
X193254915Y-79800019D01*
X194635867Y-79752400D02*
X194540629Y-79800019D01*
X194540629Y-79800019D02*
X194350153Y-79800019D01*
X194350153Y-79800019D02*
X194254915Y-79752400D01*
X194254915Y-79752400D02*
X194207296Y-79657161D01*
X194207296Y-79657161D02*
X194207296Y-79276209D01*
X194207296Y-79276209D02*
X194254915Y-79180971D01*
X194254915Y-79180971D02*
X194350153Y-79133352D01*
X194350153Y-79133352D02*
X194540629Y-79133352D01*
X194540629Y-79133352D02*
X194635867Y-79180971D01*
X194635867Y-79180971D02*
X194683486Y-79276209D01*
X194683486Y-79276209D02*
X194683486Y-79371447D01*
X194683486Y-79371447D02*
X194207296Y-79466685D01*
X195064439Y-79752400D02*
X195159677Y-79800019D01*
X195159677Y-79800019D02*
X195350153Y-79800019D01*
X195350153Y-79800019D02*
X195445391Y-79752400D01*
X195445391Y-79752400D02*
X195493010Y-79657161D01*
X195493010Y-79657161D02*
X195493010Y-79609542D01*
X195493010Y-79609542D02*
X195445391Y-79514304D01*
X195445391Y-79514304D02*
X195350153Y-79466685D01*
X195350153Y-79466685D02*
X195207296Y-79466685D01*
X195207296Y-79466685D02*
X195112058Y-79419066D01*
X195112058Y-79419066D02*
X195064439Y-79323828D01*
X195064439Y-79323828D02*
X195064439Y-79276209D01*
X195064439Y-79276209D02*
X195112058Y-79180971D01*
X195112058Y-79180971D02*
X195207296Y-79133352D01*
X195207296Y-79133352D02*
X195350153Y-79133352D01*
X195350153Y-79133352D02*
X195445391Y-79180971D01*
X195921582Y-79800019D02*
X195921582Y-79133352D01*
X195921582Y-78800019D02*
X195873963Y-78847638D01*
X195873963Y-78847638D02*
X195921582Y-78895257D01*
X195921582Y-78895257D02*
X195969201Y-78847638D01*
X195969201Y-78847638D02*
X195921582Y-78800019D01*
X195921582Y-78800019D02*
X195921582Y-78895257D01*
X196826343Y-79133352D02*
X196826343Y-79942876D01*
X196826343Y-79942876D02*
X196778724Y-80038114D01*
X196778724Y-80038114D02*
X196731105Y-80085733D01*
X196731105Y-80085733D02*
X196635867Y-80133352D01*
X196635867Y-80133352D02*
X196493010Y-80133352D01*
X196493010Y-80133352D02*
X196397772Y-80085733D01*
X196826343Y-79752400D02*
X196731105Y-79800019D01*
X196731105Y-79800019D02*
X196540629Y-79800019D01*
X196540629Y-79800019D02*
X196445391Y-79752400D01*
X196445391Y-79752400D02*
X196397772Y-79704780D01*
X196397772Y-79704780D02*
X196350153Y-79609542D01*
X196350153Y-79609542D02*
X196350153Y-79323828D01*
X196350153Y-79323828D02*
X196397772Y-79228590D01*
X196397772Y-79228590D02*
X196445391Y-79180971D01*
X196445391Y-79180971D02*
X196540629Y-79133352D01*
X196540629Y-79133352D02*
X196731105Y-79133352D01*
X196731105Y-79133352D02*
X196826343Y-79180971D01*
X197302534Y-79133352D02*
X197302534Y-79800019D01*
X197302534Y-79228590D02*
X197350153Y-79180971D01*
X197350153Y-79180971D02*
X197445391Y-79133352D01*
X197445391Y-79133352D02*
X197588248Y-79133352D01*
X197588248Y-79133352D02*
X197683486Y-79180971D01*
X197683486Y-79180971D02*
X197731105Y-79276209D01*
X197731105Y-79276209D02*
X197731105Y-79800019D01*
X198635867Y-79800019D02*
X198635867Y-79276209D01*
X198635867Y-79276209D02*
X198588248Y-79180971D01*
X198588248Y-79180971D02*
X198493010Y-79133352D01*
X198493010Y-79133352D02*
X198302534Y-79133352D01*
X198302534Y-79133352D02*
X198207296Y-79180971D01*
X198635867Y-79752400D02*
X198540629Y-79800019D01*
X198540629Y-79800019D02*
X198302534Y-79800019D01*
X198302534Y-79800019D02*
X198207296Y-79752400D01*
X198207296Y-79752400D02*
X198159677Y-79657161D01*
X198159677Y-79657161D02*
X198159677Y-79561923D01*
X198159677Y-79561923D02*
X198207296Y-79466685D01*
X198207296Y-79466685D02*
X198302534Y-79419066D01*
X198302534Y-79419066D02*
X198540629Y-79419066D01*
X198540629Y-79419066D02*
X198635867Y-79371447D01*
X198969201Y-79133352D02*
X199350153Y-79133352D01*
X199112058Y-78800019D02*
X199112058Y-79657161D01*
X199112058Y-79657161D02*
X199159677Y-79752400D01*
X199159677Y-79752400D02*
X199254915Y-79800019D01*
X199254915Y-79800019D02*
X199350153Y-79800019D01*
X199826344Y-79800019D02*
X199731106Y-79752400D01*
X199731106Y-79752400D02*
X199683487Y-79704780D01*
X199683487Y-79704780D02*
X199635868Y-79609542D01*
X199635868Y-79609542D02*
X199635868Y-79323828D01*
X199635868Y-79323828D02*
X199683487Y-79228590D01*
X199683487Y-79228590D02*
X199731106Y-79180971D01*
X199731106Y-79180971D02*
X199826344Y-79133352D01*
X199826344Y-79133352D02*
X199969201Y-79133352D01*
X199969201Y-79133352D02*
X200064439Y-79180971D01*
X200064439Y-79180971D02*
X200112058Y-79228590D01*
X200112058Y-79228590D02*
X200159677Y-79323828D01*
X200159677Y-79323828D02*
X200159677Y-79609542D01*
X200159677Y-79609542D02*
X200112058Y-79704780D01*
X200112058Y-79704780D02*
X200064439Y-79752400D01*
X200064439Y-79752400D02*
X199969201Y-79800019D01*
X199969201Y-79800019D02*
X199826344Y-79800019D01*
X200588249Y-79800019D02*
X200588249Y-79133352D01*
X200588249Y-79323828D02*
X200635868Y-79228590D01*
X200635868Y-79228590D02*
X200683487Y-79180971D01*
X200683487Y-79180971D02*
X200778725Y-79133352D01*
X200778725Y-79133352D02*
X200873963Y-79133352D01*
X201254916Y-79800019D02*
X201445392Y-79800019D01*
X201445392Y-79800019D02*
X201540630Y-79752400D01*
X201540630Y-79752400D02*
X201588249Y-79704780D01*
X201588249Y-79704780D02*
X201683487Y-79561923D01*
X201683487Y-79561923D02*
X201731106Y-79371447D01*
X201731106Y-79371447D02*
X201731106Y-78990495D01*
X201731106Y-78990495D02*
X201683487Y-78895257D01*
X201683487Y-78895257D02*
X201635868Y-78847638D01*
X201635868Y-78847638D02*
X201540630Y-78800019D01*
X201540630Y-78800019D02*
X201350154Y-78800019D01*
X201350154Y-78800019D02*
X201254916Y-78847638D01*
X201254916Y-78847638D02*
X201207297Y-78895257D01*
X201207297Y-78895257D02*
X201159678Y-78990495D01*
X201159678Y-78990495D02*
X201159678Y-79228590D01*
X201159678Y-79228590D02*
X201207297Y-79323828D01*
X201207297Y-79323828D02*
X201254916Y-79371447D01*
X201254916Y-79371447D02*
X201350154Y-79419066D01*
X201350154Y-79419066D02*
X201540630Y-79419066D01*
X201540630Y-79419066D02*
X201635868Y-79371447D01*
X201635868Y-79371447D02*
X201683487Y-79323828D01*
X201683487Y-79323828D02*
X201731106Y-79228590D01*
X61897142Y-62559580D02*
X61849523Y-62607200D01*
X61849523Y-62607200D02*
X61706666Y-62654819D01*
X61706666Y-62654819D02*
X61611428Y-62654819D01*
X61611428Y-62654819D02*
X61468571Y-62607200D01*
X61468571Y-62607200D02*
X61373333Y-62511961D01*
X61373333Y-62511961D02*
X61325714Y-62416723D01*
X61325714Y-62416723D02*
X61278095Y-62226247D01*
X61278095Y-62226247D02*
X61278095Y-62083390D01*
X61278095Y-62083390D02*
X61325714Y-61892914D01*
X61325714Y-61892914D02*
X61373333Y-61797676D01*
X61373333Y-61797676D02*
X61468571Y-61702438D01*
X61468571Y-61702438D02*
X61611428Y-61654819D01*
X61611428Y-61654819D02*
X61706666Y-61654819D01*
X61706666Y-61654819D02*
X61849523Y-61702438D01*
X61849523Y-61702438D02*
X61897142Y-61750057D01*
X62278095Y-61750057D02*
X62325714Y-61702438D01*
X62325714Y-61702438D02*
X62420952Y-61654819D01*
X62420952Y-61654819D02*
X62659047Y-61654819D01*
X62659047Y-61654819D02*
X62754285Y-61702438D01*
X62754285Y-61702438D02*
X62801904Y-61750057D01*
X62801904Y-61750057D02*
X62849523Y-61845295D01*
X62849523Y-61845295D02*
X62849523Y-61940533D01*
X62849523Y-61940533D02*
X62801904Y-62083390D01*
X62801904Y-62083390D02*
X62230476Y-62654819D01*
X62230476Y-62654819D02*
X62849523Y-62654819D01*
X63182857Y-61654819D02*
X63849523Y-61654819D01*
X63849523Y-61654819D02*
X63420952Y-62654819D01*
X72967142Y-93254819D02*
X72633809Y-92778628D01*
X72395714Y-93254819D02*
X72395714Y-92254819D01*
X72395714Y-92254819D02*
X72776666Y-92254819D01*
X72776666Y-92254819D02*
X72871904Y-92302438D01*
X72871904Y-92302438D02*
X72919523Y-92350057D01*
X72919523Y-92350057D02*
X72967142Y-92445295D01*
X72967142Y-92445295D02*
X72967142Y-92588152D01*
X72967142Y-92588152D02*
X72919523Y-92683390D01*
X72919523Y-92683390D02*
X72871904Y-92731009D01*
X72871904Y-92731009D02*
X72776666Y-92778628D01*
X72776666Y-92778628D02*
X72395714Y-92778628D01*
X73919523Y-93254819D02*
X73348095Y-93254819D01*
X73633809Y-93254819D02*
X73633809Y-92254819D01*
X73633809Y-92254819D02*
X73538571Y-92397676D01*
X73538571Y-92397676D02*
X73443333Y-92492914D01*
X73443333Y-92492914D02*
X73348095Y-92540533D01*
X74490952Y-92683390D02*
X74395714Y-92635771D01*
X74395714Y-92635771D02*
X74348095Y-92588152D01*
X74348095Y-92588152D02*
X74300476Y-92492914D01*
X74300476Y-92492914D02*
X74300476Y-92445295D01*
X74300476Y-92445295D02*
X74348095Y-92350057D01*
X74348095Y-92350057D02*
X74395714Y-92302438D01*
X74395714Y-92302438D02*
X74490952Y-92254819D01*
X74490952Y-92254819D02*
X74681428Y-92254819D01*
X74681428Y-92254819D02*
X74776666Y-92302438D01*
X74776666Y-92302438D02*
X74824285Y-92350057D01*
X74824285Y-92350057D02*
X74871904Y-92445295D01*
X74871904Y-92445295D02*
X74871904Y-92492914D01*
X74871904Y-92492914D02*
X74824285Y-92588152D01*
X74824285Y-92588152D02*
X74776666Y-92635771D01*
X74776666Y-92635771D02*
X74681428Y-92683390D01*
X74681428Y-92683390D02*
X74490952Y-92683390D01*
X74490952Y-92683390D02*
X74395714Y-92731009D01*
X74395714Y-92731009D02*
X74348095Y-92778628D01*
X74348095Y-92778628D02*
X74300476Y-92873866D01*
X74300476Y-92873866D02*
X74300476Y-93064342D01*
X74300476Y-93064342D02*
X74348095Y-93159580D01*
X74348095Y-93159580D02*
X74395714Y-93207200D01*
X74395714Y-93207200D02*
X74490952Y-93254819D01*
X74490952Y-93254819D02*
X74681428Y-93254819D01*
X74681428Y-93254819D02*
X74776666Y-93207200D01*
X74776666Y-93207200D02*
X74824285Y-93159580D01*
X74824285Y-93159580D02*
X74871904Y-93064342D01*
X74871904Y-93064342D02*
X74871904Y-92873866D01*
X74871904Y-92873866D02*
X74824285Y-92778628D01*
X74824285Y-92778628D02*
X74776666Y-92731009D01*
X74776666Y-92731009D02*
X74681428Y-92683390D01*
X192264819Y-95641904D02*
X193074342Y-95641904D01*
X193074342Y-95641904D02*
X193169580Y-95594285D01*
X193169580Y-95594285D02*
X193217200Y-95546666D01*
X193217200Y-95546666D02*
X193264819Y-95451428D01*
X193264819Y-95451428D02*
X193264819Y-95260952D01*
X193264819Y-95260952D02*
X193217200Y-95165714D01*
X193217200Y-95165714D02*
X193169580Y-95118095D01*
X193169580Y-95118095D02*
X193074342Y-95070476D01*
X193074342Y-95070476D02*
X192264819Y-95070476D01*
X192264819Y-94118095D02*
X192264819Y-94594285D01*
X192264819Y-94594285D02*
X192741009Y-94641904D01*
X192741009Y-94641904D02*
X192693390Y-94594285D01*
X192693390Y-94594285D02*
X192645771Y-94499047D01*
X192645771Y-94499047D02*
X192645771Y-94260952D01*
X192645771Y-94260952D02*
X192693390Y-94165714D01*
X192693390Y-94165714D02*
X192741009Y-94118095D01*
X192741009Y-94118095D02*
X192836247Y-94070476D01*
X192836247Y-94070476D02*
X193074342Y-94070476D01*
X193074342Y-94070476D02*
X193169580Y-94118095D01*
X193169580Y-94118095D02*
X193217200Y-94165714D01*
X193217200Y-94165714D02*
X193264819Y-94260952D01*
X193264819Y-94260952D02*
X193264819Y-94499047D01*
X193264819Y-94499047D02*
X193217200Y-94594285D01*
X193217200Y-94594285D02*
X193169580Y-94641904D01*
X65653096Y-48144820D02*
X65653096Y-48954343D01*
X65653096Y-48954343D02*
X65700715Y-49049581D01*
X65700715Y-49049581D02*
X65748334Y-49097201D01*
X65748334Y-49097201D02*
X65843572Y-49144820D01*
X65843572Y-49144820D02*
X66034048Y-49144820D01*
X66034048Y-49144820D02*
X66129286Y-49097201D01*
X66129286Y-49097201D02*
X66176905Y-49049581D01*
X66176905Y-49049581D02*
X66224524Y-48954343D01*
X66224524Y-48954343D02*
X66224524Y-48144820D01*
X66748334Y-49144820D02*
X66938810Y-49144820D01*
X66938810Y-49144820D02*
X67034048Y-49097201D01*
X67034048Y-49097201D02*
X67081667Y-49049581D01*
X67081667Y-49049581D02*
X67176905Y-48906724D01*
X67176905Y-48906724D02*
X67224524Y-48716248D01*
X67224524Y-48716248D02*
X67224524Y-48335296D01*
X67224524Y-48335296D02*
X67176905Y-48240058D01*
X67176905Y-48240058D02*
X67129286Y-48192439D01*
X67129286Y-48192439D02*
X67034048Y-48144820D01*
X67034048Y-48144820D02*
X66843572Y-48144820D01*
X66843572Y-48144820D02*
X66748334Y-48192439D01*
X66748334Y-48192439D02*
X66700715Y-48240058D01*
X66700715Y-48240058D02*
X66653096Y-48335296D01*
X66653096Y-48335296D02*
X66653096Y-48573391D01*
X66653096Y-48573391D02*
X66700715Y-48668629D01*
X66700715Y-48668629D02*
X66748334Y-48716248D01*
X66748334Y-48716248D02*
X66843572Y-48763867D01*
X66843572Y-48763867D02*
X67034048Y-48763867D01*
X67034048Y-48763867D02*
X67129286Y-48716248D01*
X67129286Y-48716248D02*
X67176905Y-48668629D01*
X67176905Y-48668629D02*
X67224524Y-48573391D01*
X60244915Y-46300020D02*
X60244915Y-45300020D01*
X60244915Y-45300020D02*
X60483010Y-45300020D01*
X60483010Y-45300020D02*
X60625867Y-45347639D01*
X60625867Y-45347639D02*
X60721105Y-45442877D01*
X60721105Y-45442877D02*
X60768724Y-45538115D01*
X60768724Y-45538115D02*
X60816343Y-45728591D01*
X60816343Y-45728591D02*
X60816343Y-45871448D01*
X60816343Y-45871448D02*
X60768724Y-46061924D01*
X60768724Y-46061924D02*
X60721105Y-46157162D01*
X60721105Y-46157162D02*
X60625867Y-46252401D01*
X60625867Y-46252401D02*
X60483010Y-46300020D01*
X60483010Y-46300020D02*
X60244915Y-46300020D01*
X61625867Y-46252401D02*
X61530629Y-46300020D01*
X61530629Y-46300020D02*
X61340153Y-46300020D01*
X61340153Y-46300020D02*
X61244915Y-46252401D01*
X61244915Y-46252401D02*
X61197296Y-46157162D01*
X61197296Y-46157162D02*
X61197296Y-45776210D01*
X61197296Y-45776210D02*
X61244915Y-45680972D01*
X61244915Y-45680972D02*
X61340153Y-45633353D01*
X61340153Y-45633353D02*
X61530629Y-45633353D01*
X61530629Y-45633353D02*
X61625867Y-45680972D01*
X61625867Y-45680972D02*
X61673486Y-45776210D01*
X61673486Y-45776210D02*
X61673486Y-45871448D01*
X61673486Y-45871448D02*
X61197296Y-45966686D01*
X62054439Y-46252401D02*
X62149677Y-46300020D01*
X62149677Y-46300020D02*
X62340153Y-46300020D01*
X62340153Y-46300020D02*
X62435391Y-46252401D01*
X62435391Y-46252401D02*
X62483010Y-46157162D01*
X62483010Y-46157162D02*
X62483010Y-46109543D01*
X62483010Y-46109543D02*
X62435391Y-46014305D01*
X62435391Y-46014305D02*
X62340153Y-45966686D01*
X62340153Y-45966686D02*
X62197296Y-45966686D01*
X62197296Y-45966686D02*
X62102058Y-45919067D01*
X62102058Y-45919067D02*
X62054439Y-45823829D01*
X62054439Y-45823829D02*
X62054439Y-45776210D01*
X62054439Y-45776210D02*
X62102058Y-45680972D01*
X62102058Y-45680972D02*
X62197296Y-45633353D01*
X62197296Y-45633353D02*
X62340153Y-45633353D01*
X62340153Y-45633353D02*
X62435391Y-45680972D01*
X62911582Y-46300020D02*
X62911582Y-45633353D01*
X62911582Y-45300020D02*
X62863963Y-45347639D01*
X62863963Y-45347639D02*
X62911582Y-45395258D01*
X62911582Y-45395258D02*
X62959201Y-45347639D01*
X62959201Y-45347639D02*
X62911582Y-45300020D01*
X62911582Y-45300020D02*
X62911582Y-45395258D01*
X63816343Y-45633353D02*
X63816343Y-46442877D01*
X63816343Y-46442877D02*
X63768724Y-46538115D01*
X63768724Y-46538115D02*
X63721105Y-46585734D01*
X63721105Y-46585734D02*
X63625867Y-46633353D01*
X63625867Y-46633353D02*
X63483010Y-46633353D01*
X63483010Y-46633353D02*
X63387772Y-46585734D01*
X63816343Y-46252401D02*
X63721105Y-46300020D01*
X63721105Y-46300020D02*
X63530629Y-46300020D01*
X63530629Y-46300020D02*
X63435391Y-46252401D01*
X63435391Y-46252401D02*
X63387772Y-46204781D01*
X63387772Y-46204781D02*
X63340153Y-46109543D01*
X63340153Y-46109543D02*
X63340153Y-45823829D01*
X63340153Y-45823829D02*
X63387772Y-45728591D01*
X63387772Y-45728591D02*
X63435391Y-45680972D01*
X63435391Y-45680972D02*
X63530629Y-45633353D01*
X63530629Y-45633353D02*
X63721105Y-45633353D01*
X63721105Y-45633353D02*
X63816343Y-45680972D01*
X64292534Y-45633353D02*
X64292534Y-46300020D01*
X64292534Y-45728591D02*
X64340153Y-45680972D01*
X64340153Y-45680972D02*
X64435391Y-45633353D01*
X64435391Y-45633353D02*
X64578248Y-45633353D01*
X64578248Y-45633353D02*
X64673486Y-45680972D01*
X64673486Y-45680972D02*
X64721105Y-45776210D01*
X64721105Y-45776210D02*
X64721105Y-46300020D01*
X65625867Y-46300020D02*
X65625867Y-45776210D01*
X65625867Y-45776210D02*
X65578248Y-45680972D01*
X65578248Y-45680972D02*
X65483010Y-45633353D01*
X65483010Y-45633353D02*
X65292534Y-45633353D01*
X65292534Y-45633353D02*
X65197296Y-45680972D01*
X65625867Y-46252401D02*
X65530629Y-46300020D01*
X65530629Y-46300020D02*
X65292534Y-46300020D01*
X65292534Y-46300020D02*
X65197296Y-46252401D01*
X65197296Y-46252401D02*
X65149677Y-46157162D01*
X65149677Y-46157162D02*
X65149677Y-46061924D01*
X65149677Y-46061924D02*
X65197296Y-45966686D01*
X65197296Y-45966686D02*
X65292534Y-45919067D01*
X65292534Y-45919067D02*
X65530629Y-45919067D01*
X65530629Y-45919067D02*
X65625867Y-45871448D01*
X65959201Y-45633353D02*
X66340153Y-45633353D01*
X66102058Y-45300020D02*
X66102058Y-46157162D01*
X66102058Y-46157162D02*
X66149677Y-46252401D01*
X66149677Y-46252401D02*
X66244915Y-46300020D01*
X66244915Y-46300020D02*
X66340153Y-46300020D01*
X66816344Y-46300020D02*
X66721106Y-46252401D01*
X66721106Y-46252401D02*
X66673487Y-46204781D01*
X66673487Y-46204781D02*
X66625868Y-46109543D01*
X66625868Y-46109543D02*
X66625868Y-45823829D01*
X66625868Y-45823829D02*
X66673487Y-45728591D01*
X66673487Y-45728591D02*
X66721106Y-45680972D01*
X66721106Y-45680972D02*
X66816344Y-45633353D01*
X66816344Y-45633353D02*
X66959201Y-45633353D01*
X66959201Y-45633353D02*
X67054439Y-45680972D01*
X67054439Y-45680972D02*
X67102058Y-45728591D01*
X67102058Y-45728591D02*
X67149677Y-45823829D01*
X67149677Y-45823829D02*
X67149677Y-46109543D01*
X67149677Y-46109543D02*
X67102058Y-46204781D01*
X67102058Y-46204781D02*
X67054439Y-46252401D01*
X67054439Y-46252401D02*
X66959201Y-46300020D01*
X66959201Y-46300020D02*
X66816344Y-46300020D01*
X67578249Y-46300020D02*
X67578249Y-45633353D01*
X67578249Y-45823829D02*
X67625868Y-45728591D01*
X67625868Y-45728591D02*
X67673487Y-45680972D01*
X67673487Y-45680972D02*
X67768725Y-45633353D01*
X67768725Y-45633353D02*
X67863963Y-45633353D01*
X68244916Y-46300020D02*
X68435392Y-46300020D01*
X68435392Y-46300020D02*
X68530630Y-46252401D01*
X68530630Y-46252401D02*
X68578249Y-46204781D01*
X68578249Y-46204781D02*
X68673487Y-46061924D01*
X68673487Y-46061924D02*
X68721106Y-45871448D01*
X68721106Y-45871448D02*
X68721106Y-45490496D01*
X68721106Y-45490496D02*
X68673487Y-45395258D01*
X68673487Y-45395258D02*
X68625868Y-45347639D01*
X68625868Y-45347639D02*
X68530630Y-45300020D01*
X68530630Y-45300020D02*
X68340154Y-45300020D01*
X68340154Y-45300020D02*
X68244916Y-45347639D01*
X68244916Y-45347639D02*
X68197297Y-45395258D01*
X68197297Y-45395258D02*
X68149678Y-45490496D01*
X68149678Y-45490496D02*
X68149678Y-45728591D01*
X68149678Y-45728591D02*
X68197297Y-45823829D01*
X68197297Y-45823829D02*
X68244916Y-45871448D01*
X68244916Y-45871448D02*
X68340154Y-45919067D01*
X68340154Y-45919067D02*
X68530630Y-45919067D01*
X68530630Y-45919067D02*
X68625868Y-45871448D01*
X68625868Y-45871448D02*
X68673487Y-45823829D01*
X68673487Y-45823829D02*
X68721106Y-45728591D01*
X202612142Y-82059580D02*
X202564523Y-82107200D01*
X202564523Y-82107200D02*
X202421666Y-82154819D01*
X202421666Y-82154819D02*
X202326428Y-82154819D01*
X202326428Y-82154819D02*
X202183571Y-82107200D01*
X202183571Y-82107200D02*
X202088333Y-82011961D01*
X202088333Y-82011961D02*
X202040714Y-81916723D01*
X202040714Y-81916723D02*
X201993095Y-81726247D01*
X201993095Y-81726247D02*
X201993095Y-81583390D01*
X201993095Y-81583390D02*
X202040714Y-81392914D01*
X202040714Y-81392914D02*
X202088333Y-81297676D01*
X202088333Y-81297676D02*
X202183571Y-81202438D01*
X202183571Y-81202438D02*
X202326428Y-81154819D01*
X202326428Y-81154819D02*
X202421666Y-81154819D01*
X202421666Y-81154819D02*
X202564523Y-81202438D01*
X202564523Y-81202438D02*
X202612142Y-81250057D01*
X203564523Y-82154819D02*
X202993095Y-82154819D01*
X203278809Y-82154819D02*
X203278809Y-81154819D01*
X203278809Y-81154819D02*
X203183571Y-81297676D01*
X203183571Y-81297676D02*
X203088333Y-81392914D01*
X203088333Y-81392914D02*
X202993095Y-81440533D01*
X204421666Y-81154819D02*
X204231190Y-81154819D01*
X204231190Y-81154819D02*
X204135952Y-81202438D01*
X204135952Y-81202438D02*
X204088333Y-81250057D01*
X204088333Y-81250057D02*
X203993095Y-81392914D01*
X203993095Y-81392914D02*
X203945476Y-81583390D01*
X203945476Y-81583390D02*
X203945476Y-81964342D01*
X203945476Y-81964342D02*
X203993095Y-82059580D01*
X203993095Y-82059580D02*
X204040714Y-82107200D01*
X204040714Y-82107200D02*
X204135952Y-82154819D01*
X204135952Y-82154819D02*
X204326428Y-82154819D01*
X204326428Y-82154819D02*
X204421666Y-82107200D01*
X204421666Y-82107200D02*
X204469285Y-82059580D01*
X204469285Y-82059580D02*
X204516904Y-81964342D01*
X204516904Y-81964342D02*
X204516904Y-81726247D01*
X204516904Y-81726247D02*
X204469285Y-81631009D01*
X204469285Y-81631009D02*
X204421666Y-81583390D01*
X204421666Y-81583390D02*
X204326428Y-81535771D01*
X204326428Y-81535771D02*
X204135952Y-81535771D01*
X204135952Y-81535771D02*
X204040714Y-81583390D01*
X204040714Y-81583390D02*
X203993095Y-81631009D01*
X203993095Y-81631009D02*
X203945476Y-81726247D01*
X59259819Y-116166666D02*
X58783628Y-116499999D01*
X59259819Y-116738094D02*
X58259819Y-116738094D01*
X58259819Y-116738094D02*
X58259819Y-116357142D01*
X58259819Y-116357142D02*
X58307438Y-116261904D01*
X58307438Y-116261904D02*
X58355057Y-116214285D01*
X58355057Y-116214285D02*
X58450295Y-116166666D01*
X58450295Y-116166666D02*
X58593152Y-116166666D01*
X58593152Y-116166666D02*
X58688390Y-116214285D01*
X58688390Y-116214285D02*
X58736009Y-116261904D01*
X58736009Y-116261904D02*
X58783628Y-116357142D01*
X58783628Y-116357142D02*
X58783628Y-116738094D01*
X58593152Y-115309523D02*
X59259819Y-115309523D01*
X58212200Y-115547618D02*
X58926485Y-115785713D01*
X58926485Y-115785713D02*
X58926485Y-115166666D01*
X193699580Y-97856666D02*
X193747200Y-97904285D01*
X193747200Y-97904285D02*
X193794819Y-98047142D01*
X193794819Y-98047142D02*
X193794819Y-98142380D01*
X193794819Y-98142380D02*
X193747200Y-98285237D01*
X193747200Y-98285237D02*
X193651961Y-98380475D01*
X193651961Y-98380475D02*
X193556723Y-98428094D01*
X193556723Y-98428094D02*
X193366247Y-98475713D01*
X193366247Y-98475713D02*
X193223390Y-98475713D01*
X193223390Y-98475713D02*
X193032914Y-98428094D01*
X193032914Y-98428094D02*
X192937676Y-98380475D01*
X192937676Y-98380475D02*
X192842438Y-98285237D01*
X192842438Y-98285237D02*
X192794819Y-98142380D01*
X192794819Y-98142380D02*
X192794819Y-98047142D01*
X192794819Y-98047142D02*
X192842438Y-97904285D01*
X192842438Y-97904285D02*
X192890057Y-97856666D01*
X192794819Y-97523332D02*
X192794819Y-96856666D01*
X192794819Y-96856666D02*
X193794819Y-97285237D01*
X195259580Y-113972857D02*
X195307200Y-114020476D01*
X195307200Y-114020476D02*
X195354819Y-114163333D01*
X195354819Y-114163333D02*
X195354819Y-114258571D01*
X195354819Y-114258571D02*
X195307200Y-114401428D01*
X195307200Y-114401428D02*
X195211961Y-114496666D01*
X195211961Y-114496666D02*
X195116723Y-114544285D01*
X195116723Y-114544285D02*
X194926247Y-114591904D01*
X194926247Y-114591904D02*
X194783390Y-114591904D01*
X194783390Y-114591904D02*
X194592914Y-114544285D01*
X194592914Y-114544285D02*
X194497676Y-114496666D01*
X194497676Y-114496666D02*
X194402438Y-114401428D01*
X194402438Y-114401428D02*
X194354819Y-114258571D01*
X194354819Y-114258571D02*
X194354819Y-114163333D01*
X194354819Y-114163333D02*
X194402438Y-114020476D01*
X194402438Y-114020476D02*
X194450057Y-113972857D01*
X194450057Y-113591904D02*
X194402438Y-113544285D01*
X194402438Y-113544285D02*
X194354819Y-113449047D01*
X194354819Y-113449047D02*
X194354819Y-113210952D01*
X194354819Y-113210952D02*
X194402438Y-113115714D01*
X194402438Y-113115714D02*
X194450057Y-113068095D01*
X194450057Y-113068095D02*
X194545295Y-113020476D01*
X194545295Y-113020476D02*
X194640533Y-113020476D01*
X194640533Y-113020476D02*
X194783390Y-113068095D01*
X194783390Y-113068095D02*
X195354819Y-113639523D01*
X195354819Y-113639523D02*
X195354819Y-113020476D01*
X194450057Y-112639523D02*
X194402438Y-112591904D01*
X194402438Y-112591904D02*
X194354819Y-112496666D01*
X194354819Y-112496666D02*
X194354819Y-112258571D01*
X194354819Y-112258571D02*
X194402438Y-112163333D01*
X194402438Y-112163333D02*
X194450057Y-112115714D01*
X194450057Y-112115714D02*
X194545295Y-112068095D01*
X194545295Y-112068095D02*
X194640533Y-112068095D01*
X194640533Y-112068095D02*
X194783390Y-112115714D01*
X194783390Y-112115714D02*
X195354819Y-112687142D01*
X195354819Y-112687142D02*
X195354819Y-112068095D01*
X193494819Y-105099166D02*
X193018628Y-105432499D01*
X193494819Y-105670594D02*
X192494819Y-105670594D01*
X192494819Y-105670594D02*
X192494819Y-105289642D01*
X192494819Y-105289642D02*
X192542438Y-105194404D01*
X192542438Y-105194404D02*
X192590057Y-105146785D01*
X192590057Y-105146785D02*
X192685295Y-105099166D01*
X192685295Y-105099166D02*
X192828152Y-105099166D01*
X192828152Y-105099166D02*
X192923390Y-105146785D01*
X192923390Y-105146785D02*
X192971009Y-105194404D01*
X192971009Y-105194404D02*
X193018628Y-105289642D01*
X193018628Y-105289642D02*
X193018628Y-105670594D01*
X192494819Y-104765832D02*
X192494819Y-104146785D01*
X192494819Y-104146785D02*
X192875771Y-104480118D01*
X192875771Y-104480118D02*
X192875771Y-104337261D01*
X192875771Y-104337261D02*
X192923390Y-104242023D01*
X192923390Y-104242023D02*
X192971009Y-104194404D01*
X192971009Y-104194404D02*
X193066247Y-104146785D01*
X193066247Y-104146785D02*
X193304342Y-104146785D01*
X193304342Y-104146785D02*
X193399580Y-104194404D01*
X193399580Y-104194404D02*
X193447200Y-104242023D01*
X193447200Y-104242023D02*
X193494819Y-104337261D01*
X193494819Y-104337261D02*
X193494819Y-104622975D01*
X193494819Y-104622975D02*
X193447200Y-104718213D01*
X193447200Y-104718213D02*
X193399580Y-104765832D01*
X194789580Y-82852857D02*
X194837200Y-82900476D01*
X194837200Y-82900476D02*
X194884819Y-83043333D01*
X194884819Y-83043333D02*
X194884819Y-83138571D01*
X194884819Y-83138571D02*
X194837200Y-83281428D01*
X194837200Y-83281428D02*
X194741961Y-83376666D01*
X194741961Y-83376666D02*
X194646723Y-83424285D01*
X194646723Y-83424285D02*
X194456247Y-83471904D01*
X194456247Y-83471904D02*
X194313390Y-83471904D01*
X194313390Y-83471904D02*
X194122914Y-83424285D01*
X194122914Y-83424285D02*
X194027676Y-83376666D01*
X194027676Y-83376666D02*
X193932438Y-83281428D01*
X193932438Y-83281428D02*
X193884819Y-83138571D01*
X193884819Y-83138571D02*
X193884819Y-83043333D01*
X193884819Y-83043333D02*
X193932438Y-82900476D01*
X193932438Y-82900476D02*
X193980057Y-82852857D01*
X194884819Y-81900476D02*
X194884819Y-82471904D01*
X194884819Y-82186190D02*
X193884819Y-82186190D01*
X193884819Y-82186190D02*
X194027676Y-82281428D01*
X194027676Y-82281428D02*
X194122914Y-82376666D01*
X194122914Y-82376666D02*
X194170533Y-82471904D01*
X193884819Y-81567142D02*
X193884819Y-80948095D01*
X193884819Y-80948095D02*
X194265771Y-81281428D01*
X194265771Y-81281428D02*
X194265771Y-81138571D01*
X194265771Y-81138571D02*
X194313390Y-81043333D01*
X194313390Y-81043333D02*
X194361009Y-80995714D01*
X194361009Y-80995714D02*
X194456247Y-80948095D01*
X194456247Y-80948095D02*
X194694342Y-80948095D01*
X194694342Y-80948095D02*
X194789580Y-80995714D01*
X194789580Y-80995714D02*
X194837200Y-81043333D01*
X194837200Y-81043333D02*
X194884819Y-81138571D01*
X194884819Y-81138571D02*
X194884819Y-81424285D01*
X194884819Y-81424285D02*
X194837200Y-81519523D01*
X194837200Y-81519523D02*
X194789580Y-81567142D01*
X89223333Y-69579580D02*
X89175714Y-69627200D01*
X89175714Y-69627200D02*
X89032857Y-69674819D01*
X89032857Y-69674819D02*
X88937619Y-69674819D01*
X88937619Y-69674819D02*
X88794762Y-69627200D01*
X88794762Y-69627200D02*
X88699524Y-69531961D01*
X88699524Y-69531961D02*
X88651905Y-69436723D01*
X88651905Y-69436723D02*
X88604286Y-69246247D01*
X88604286Y-69246247D02*
X88604286Y-69103390D01*
X88604286Y-69103390D02*
X88651905Y-68912914D01*
X88651905Y-68912914D02*
X88699524Y-68817676D01*
X88699524Y-68817676D02*
X88794762Y-68722438D01*
X88794762Y-68722438D02*
X88937619Y-68674819D01*
X88937619Y-68674819D02*
X89032857Y-68674819D01*
X89032857Y-68674819D02*
X89175714Y-68722438D01*
X89175714Y-68722438D02*
X89223333Y-68770057D01*
X90128095Y-68674819D02*
X89651905Y-68674819D01*
X89651905Y-68674819D02*
X89604286Y-69151009D01*
X89604286Y-69151009D02*
X89651905Y-69103390D01*
X89651905Y-69103390D02*
X89747143Y-69055771D01*
X89747143Y-69055771D02*
X89985238Y-69055771D01*
X89985238Y-69055771D02*
X90080476Y-69103390D01*
X90080476Y-69103390D02*
X90128095Y-69151009D01*
X90128095Y-69151009D02*
X90175714Y-69246247D01*
X90175714Y-69246247D02*
X90175714Y-69484342D01*
X90175714Y-69484342D02*
X90128095Y-69579580D01*
X90128095Y-69579580D02*
X90080476Y-69627200D01*
X90080476Y-69627200D02*
X89985238Y-69674819D01*
X89985238Y-69674819D02*
X89747143Y-69674819D01*
X89747143Y-69674819D02*
X89651905Y-69627200D01*
X89651905Y-69627200D02*
X89604286Y-69579580D01*
X57509819Y-118498094D02*
X56509819Y-118498094D01*
X56509819Y-118498094D02*
X56509819Y-118259999D01*
X56509819Y-118259999D02*
X56557438Y-118117142D01*
X56557438Y-118117142D02*
X56652676Y-118021904D01*
X56652676Y-118021904D02*
X56747914Y-117974285D01*
X56747914Y-117974285D02*
X56938390Y-117926666D01*
X56938390Y-117926666D02*
X57081247Y-117926666D01*
X57081247Y-117926666D02*
X57271723Y-117974285D01*
X57271723Y-117974285D02*
X57366961Y-118021904D01*
X57366961Y-118021904D02*
X57462200Y-118117142D01*
X57462200Y-118117142D02*
X57509819Y-118259999D01*
X57509819Y-118259999D02*
X57509819Y-118498094D01*
X57509819Y-116974285D02*
X57509819Y-117545713D01*
X57509819Y-117259999D02*
X56509819Y-117259999D01*
X56509819Y-117259999D02*
X56652676Y-117355237D01*
X56652676Y-117355237D02*
X56747914Y-117450475D01*
X56747914Y-117450475D02*
X56795533Y-117545713D01*
X72987142Y-97624819D02*
X72653809Y-97148628D01*
X72415714Y-97624819D02*
X72415714Y-96624819D01*
X72415714Y-96624819D02*
X72796666Y-96624819D01*
X72796666Y-96624819D02*
X72891904Y-96672438D01*
X72891904Y-96672438D02*
X72939523Y-96720057D01*
X72939523Y-96720057D02*
X72987142Y-96815295D01*
X72987142Y-96815295D02*
X72987142Y-96958152D01*
X72987142Y-96958152D02*
X72939523Y-97053390D01*
X72939523Y-97053390D02*
X72891904Y-97101009D01*
X72891904Y-97101009D02*
X72796666Y-97148628D01*
X72796666Y-97148628D02*
X72415714Y-97148628D01*
X73939523Y-97624819D02*
X73368095Y-97624819D01*
X73653809Y-97624819D02*
X73653809Y-96624819D01*
X73653809Y-96624819D02*
X73558571Y-96767676D01*
X73558571Y-96767676D02*
X73463333Y-96862914D01*
X73463333Y-96862914D02*
X73368095Y-96910533D01*
X74415714Y-97624819D02*
X74606190Y-97624819D01*
X74606190Y-97624819D02*
X74701428Y-97577200D01*
X74701428Y-97577200D02*
X74749047Y-97529580D01*
X74749047Y-97529580D02*
X74844285Y-97386723D01*
X74844285Y-97386723D02*
X74891904Y-97196247D01*
X74891904Y-97196247D02*
X74891904Y-96815295D01*
X74891904Y-96815295D02*
X74844285Y-96720057D01*
X74844285Y-96720057D02*
X74796666Y-96672438D01*
X74796666Y-96672438D02*
X74701428Y-96624819D01*
X74701428Y-96624819D02*
X74510952Y-96624819D01*
X74510952Y-96624819D02*
X74415714Y-96672438D01*
X74415714Y-96672438D02*
X74368095Y-96720057D01*
X74368095Y-96720057D02*
X74320476Y-96815295D01*
X74320476Y-96815295D02*
X74320476Y-97053390D01*
X74320476Y-97053390D02*
X74368095Y-97148628D01*
X74368095Y-97148628D02*
X74415714Y-97196247D01*
X74415714Y-97196247D02*
X74510952Y-97243866D01*
X74510952Y-97243866D02*
X74701428Y-97243866D01*
X74701428Y-97243866D02*
X74796666Y-97196247D01*
X74796666Y-97196247D02*
X74844285Y-97148628D01*
X74844285Y-97148628D02*
X74891904Y-97053390D01*
X108144819Y-48253333D02*
X108859104Y-48253333D01*
X108859104Y-48253333D02*
X109001961Y-48300952D01*
X109001961Y-48300952D02*
X109097200Y-48396190D01*
X109097200Y-48396190D02*
X109144819Y-48539047D01*
X109144819Y-48539047D02*
X109144819Y-48634285D01*
X109144819Y-47253333D02*
X109144819Y-47824761D01*
X109144819Y-47539047D02*
X108144819Y-47539047D01*
X108144819Y-47539047D02*
X108287676Y-47634285D01*
X108287676Y-47634285D02*
X108382914Y-47729523D01*
X108382914Y-47729523D02*
X108430533Y-47824761D01*
X74372142Y-117629580D02*
X74324523Y-117677200D01*
X74324523Y-117677200D02*
X74181666Y-117724819D01*
X74181666Y-117724819D02*
X74086428Y-117724819D01*
X74086428Y-117724819D02*
X73943571Y-117677200D01*
X73943571Y-117677200D02*
X73848333Y-117581961D01*
X73848333Y-117581961D02*
X73800714Y-117486723D01*
X73800714Y-117486723D02*
X73753095Y-117296247D01*
X73753095Y-117296247D02*
X73753095Y-117153390D01*
X73753095Y-117153390D02*
X73800714Y-116962914D01*
X73800714Y-116962914D02*
X73848333Y-116867676D01*
X73848333Y-116867676D02*
X73943571Y-116772438D01*
X73943571Y-116772438D02*
X74086428Y-116724819D01*
X74086428Y-116724819D02*
X74181666Y-116724819D01*
X74181666Y-116724819D02*
X74324523Y-116772438D01*
X74324523Y-116772438D02*
X74372142Y-116820057D01*
X74753095Y-116820057D02*
X74800714Y-116772438D01*
X74800714Y-116772438D02*
X74895952Y-116724819D01*
X74895952Y-116724819D02*
X75134047Y-116724819D01*
X75134047Y-116724819D02*
X75229285Y-116772438D01*
X75229285Y-116772438D02*
X75276904Y-116820057D01*
X75276904Y-116820057D02*
X75324523Y-116915295D01*
X75324523Y-116915295D02*
X75324523Y-117010533D01*
X75324523Y-117010533D02*
X75276904Y-117153390D01*
X75276904Y-117153390D02*
X74705476Y-117724819D01*
X74705476Y-117724819D02*
X75324523Y-117724819D01*
X76181666Y-116724819D02*
X75991190Y-116724819D01*
X75991190Y-116724819D02*
X75895952Y-116772438D01*
X75895952Y-116772438D02*
X75848333Y-116820057D01*
X75848333Y-116820057D02*
X75753095Y-116962914D01*
X75753095Y-116962914D02*
X75705476Y-117153390D01*
X75705476Y-117153390D02*
X75705476Y-117534342D01*
X75705476Y-117534342D02*
X75753095Y-117629580D01*
X75753095Y-117629580D02*
X75800714Y-117677200D01*
X75800714Y-117677200D02*
X75895952Y-117724819D01*
X75895952Y-117724819D02*
X76086428Y-117724819D01*
X76086428Y-117724819D02*
X76181666Y-117677200D01*
X76181666Y-117677200D02*
X76229285Y-117629580D01*
X76229285Y-117629580D02*
X76276904Y-117534342D01*
X76276904Y-117534342D02*
X76276904Y-117296247D01*
X76276904Y-117296247D02*
X76229285Y-117201009D01*
X76229285Y-117201009D02*
X76181666Y-117153390D01*
X76181666Y-117153390D02*
X76086428Y-117105771D01*
X76086428Y-117105771D02*
X75895952Y-117105771D01*
X75895952Y-117105771D02*
X75800714Y-117153390D01*
X75800714Y-117153390D02*
X75753095Y-117201009D01*
X75753095Y-117201009D02*
X75705476Y-117296247D01*
X202547142Y-98134819D02*
X202213809Y-97658628D01*
X201975714Y-98134819D02*
X201975714Y-97134819D01*
X201975714Y-97134819D02*
X202356666Y-97134819D01*
X202356666Y-97134819D02*
X202451904Y-97182438D01*
X202451904Y-97182438D02*
X202499523Y-97230057D01*
X202499523Y-97230057D02*
X202547142Y-97325295D01*
X202547142Y-97325295D02*
X202547142Y-97468152D01*
X202547142Y-97468152D02*
X202499523Y-97563390D01*
X202499523Y-97563390D02*
X202451904Y-97611009D01*
X202451904Y-97611009D02*
X202356666Y-97658628D01*
X202356666Y-97658628D02*
X201975714Y-97658628D01*
X202928095Y-97230057D02*
X202975714Y-97182438D01*
X202975714Y-97182438D02*
X203070952Y-97134819D01*
X203070952Y-97134819D02*
X203309047Y-97134819D01*
X203309047Y-97134819D02*
X203404285Y-97182438D01*
X203404285Y-97182438D02*
X203451904Y-97230057D01*
X203451904Y-97230057D02*
X203499523Y-97325295D01*
X203499523Y-97325295D02*
X203499523Y-97420533D01*
X203499523Y-97420533D02*
X203451904Y-97563390D01*
X203451904Y-97563390D02*
X202880476Y-98134819D01*
X202880476Y-98134819D02*
X203499523Y-98134819D01*
X203880476Y-97230057D02*
X203928095Y-97182438D01*
X203928095Y-97182438D02*
X204023333Y-97134819D01*
X204023333Y-97134819D02*
X204261428Y-97134819D01*
X204261428Y-97134819D02*
X204356666Y-97182438D01*
X204356666Y-97182438D02*
X204404285Y-97230057D01*
X204404285Y-97230057D02*
X204451904Y-97325295D01*
X204451904Y-97325295D02*
X204451904Y-97420533D01*
X204451904Y-97420533D02*
X204404285Y-97563390D01*
X204404285Y-97563390D02*
X203832857Y-98134819D01*
X203832857Y-98134819D02*
X204451904Y-98134819D01*
X90033333Y-58319580D02*
X89985714Y-58367200D01*
X89985714Y-58367200D02*
X89842857Y-58414819D01*
X89842857Y-58414819D02*
X89747619Y-58414819D01*
X89747619Y-58414819D02*
X89604762Y-58367200D01*
X89604762Y-58367200D02*
X89509524Y-58271961D01*
X89509524Y-58271961D02*
X89461905Y-58176723D01*
X89461905Y-58176723D02*
X89414286Y-57986247D01*
X89414286Y-57986247D02*
X89414286Y-57843390D01*
X89414286Y-57843390D02*
X89461905Y-57652914D01*
X89461905Y-57652914D02*
X89509524Y-57557676D01*
X89509524Y-57557676D02*
X89604762Y-57462438D01*
X89604762Y-57462438D02*
X89747619Y-57414819D01*
X89747619Y-57414819D02*
X89842857Y-57414819D01*
X89842857Y-57414819D02*
X89985714Y-57462438D01*
X89985714Y-57462438D02*
X90033333Y-57510057D01*
X90890476Y-57748152D02*
X90890476Y-58414819D01*
X90652381Y-57367200D02*
X90414286Y-58081485D01*
X90414286Y-58081485D02*
X91033333Y-58081485D01*
X76304819Y-62596666D02*
X76304819Y-63072856D01*
X76304819Y-63072856D02*
X75304819Y-63072856D01*
X76304819Y-61739523D02*
X76304819Y-62310951D01*
X76304819Y-62025237D02*
X75304819Y-62025237D01*
X75304819Y-62025237D02*
X75447676Y-62120475D01*
X75447676Y-62120475D02*
X75542914Y-62215713D01*
X75542914Y-62215713D02*
X75590533Y-62310951D01*
X205957142Y-95519580D02*
X205909523Y-95567200D01*
X205909523Y-95567200D02*
X205766666Y-95614819D01*
X205766666Y-95614819D02*
X205671428Y-95614819D01*
X205671428Y-95614819D02*
X205528571Y-95567200D01*
X205528571Y-95567200D02*
X205433333Y-95471961D01*
X205433333Y-95471961D02*
X205385714Y-95376723D01*
X205385714Y-95376723D02*
X205338095Y-95186247D01*
X205338095Y-95186247D02*
X205338095Y-95043390D01*
X205338095Y-95043390D02*
X205385714Y-94852914D01*
X205385714Y-94852914D02*
X205433333Y-94757676D01*
X205433333Y-94757676D02*
X205528571Y-94662438D01*
X205528571Y-94662438D02*
X205671428Y-94614819D01*
X205671428Y-94614819D02*
X205766666Y-94614819D01*
X205766666Y-94614819D02*
X205909523Y-94662438D01*
X205909523Y-94662438D02*
X205957142Y-94710057D01*
X206909523Y-95614819D02*
X206338095Y-95614819D01*
X206623809Y-95614819D02*
X206623809Y-94614819D01*
X206623809Y-94614819D02*
X206528571Y-94757676D01*
X206528571Y-94757676D02*
X206433333Y-94852914D01*
X206433333Y-94852914D02*
X206338095Y-94900533D01*
X207528571Y-94614819D02*
X207623809Y-94614819D01*
X207623809Y-94614819D02*
X207719047Y-94662438D01*
X207719047Y-94662438D02*
X207766666Y-94710057D01*
X207766666Y-94710057D02*
X207814285Y-94805295D01*
X207814285Y-94805295D02*
X207861904Y-94995771D01*
X207861904Y-94995771D02*
X207861904Y-95233866D01*
X207861904Y-95233866D02*
X207814285Y-95424342D01*
X207814285Y-95424342D02*
X207766666Y-95519580D01*
X207766666Y-95519580D02*
X207719047Y-95567200D01*
X207719047Y-95567200D02*
X207623809Y-95614819D01*
X207623809Y-95614819D02*
X207528571Y-95614819D01*
X207528571Y-95614819D02*
X207433333Y-95567200D01*
X207433333Y-95567200D02*
X207385714Y-95519580D01*
X207385714Y-95519580D02*
X207338095Y-95424342D01*
X207338095Y-95424342D02*
X207290476Y-95233866D01*
X207290476Y-95233866D02*
X207290476Y-94995771D01*
X207290476Y-94995771D02*
X207338095Y-94805295D01*
X207338095Y-94805295D02*
X207385714Y-94710057D01*
X207385714Y-94710057D02*
X207433333Y-94662438D01*
X207433333Y-94662438D02*
X207528571Y-94614819D01*
X83427142Y-47084819D02*
X83093809Y-46608628D01*
X82855714Y-47084819D02*
X82855714Y-46084819D01*
X82855714Y-46084819D02*
X83236666Y-46084819D01*
X83236666Y-46084819D02*
X83331904Y-46132438D01*
X83331904Y-46132438D02*
X83379523Y-46180057D01*
X83379523Y-46180057D02*
X83427142Y-46275295D01*
X83427142Y-46275295D02*
X83427142Y-46418152D01*
X83427142Y-46418152D02*
X83379523Y-46513390D01*
X83379523Y-46513390D02*
X83331904Y-46561009D01*
X83331904Y-46561009D02*
X83236666Y-46608628D01*
X83236666Y-46608628D02*
X82855714Y-46608628D01*
X84379523Y-47084819D02*
X83808095Y-47084819D01*
X84093809Y-47084819D02*
X84093809Y-46084819D01*
X84093809Y-46084819D02*
X83998571Y-46227676D01*
X83998571Y-46227676D02*
X83903333Y-46322914D01*
X83903333Y-46322914D02*
X83808095Y-46370533D01*
X85236666Y-46084819D02*
X85046190Y-46084819D01*
X85046190Y-46084819D02*
X84950952Y-46132438D01*
X84950952Y-46132438D02*
X84903333Y-46180057D01*
X84903333Y-46180057D02*
X84808095Y-46322914D01*
X84808095Y-46322914D02*
X84760476Y-46513390D01*
X84760476Y-46513390D02*
X84760476Y-46894342D01*
X84760476Y-46894342D02*
X84808095Y-46989580D01*
X84808095Y-46989580D02*
X84855714Y-47037200D01*
X84855714Y-47037200D02*
X84950952Y-47084819D01*
X84950952Y-47084819D02*
X85141428Y-47084819D01*
X85141428Y-47084819D02*
X85236666Y-47037200D01*
X85236666Y-47037200D02*
X85284285Y-46989580D01*
X85284285Y-46989580D02*
X85331904Y-46894342D01*
X85331904Y-46894342D02*
X85331904Y-46656247D01*
X85331904Y-46656247D02*
X85284285Y-46561009D01*
X85284285Y-46561009D02*
X85236666Y-46513390D01*
X85236666Y-46513390D02*
X85141428Y-46465771D01*
X85141428Y-46465771D02*
X84950952Y-46465771D01*
X84950952Y-46465771D02*
X84855714Y-46513390D01*
X84855714Y-46513390D02*
X84808095Y-46561009D01*
X84808095Y-46561009D02*
X84760476Y-46656247D01*
X73067142Y-75224819D02*
X72733809Y-74748628D01*
X72495714Y-75224819D02*
X72495714Y-74224819D01*
X72495714Y-74224819D02*
X72876666Y-74224819D01*
X72876666Y-74224819D02*
X72971904Y-74272438D01*
X72971904Y-74272438D02*
X73019523Y-74320057D01*
X73019523Y-74320057D02*
X73067142Y-74415295D01*
X73067142Y-74415295D02*
X73067142Y-74558152D01*
X73067142Y-74558152D02*
X73019523Y-74653390D01*
X73019523Y-74653390D02*
X72971904Y-74701009D01*
X72971904Y-74701009D02*
X72876666Y-74748628D01*
X72876666Y-74748628D02*
X72495714Y-74748628D01*
X74019523Y-75224819D02*
X73448095Y-75224819D01*
X73733809Y-75224819D02*
X73733809Y-74224819D01*
X73733809Y-74224819D02*
X73638571Y-74367676D01*
X73638571Y-74367676D02*
X73543333Y-74462914D01*
X73543333Y-74462914D02*
X73448095Y-74510533D01*
X74352857Y-74224819D02*
X74971904Y-74224819D01*
X74971904Y-74224819D02*
X74638571Y-74605771D01*
X74638571Y-74605771D02*
X74781428Y-74605771D01*
X74781428Y-74605771D02*
X74876666Y-74653390D01*
X74876666Y-74653390D02*
X74924285Y-74701009D01*
X74924285Y-74701009D02*
X74971904Y-74796247D01*
X74971904Y-74796247D02*
X74971904Y-75034342D01*
X74971904Y-75034342D02*
X74924285Y-75129580D01*
X74924285Y-75129580D02*
X74876666Y-75177200D01*
X74876666Y-75177200D02*
X74781428Y-75224819D01*
X74781428Y-75224819D02*
X74495714Y-75224819D01*
X74495714Y-75224819D02*
X74400476Y-75177200D01*
X74400476Y-75177200D02*
X74352857Y-75129580D01*
X56002142Y-124889580D02*
X55954523Y-124937200D01*
X55954523Y-124937200D02*
X55811666Y-124984819D01*
X55811666Y-124984819D02*
X55716428Y-124984819D01*
X55716428Y-124984819D02*
X55573571Y-124937200D01*
X55573571Y-124937200D02*
X55478333Y-124841961D01*
X55478333Y-124841961D02*
X55430714Y-124746723D01*
X55430714Y-124746723D02*
X55383095Y-124556247D01*
X55383095Y-124556247D02*
X55383095Y-124413390D01*
X55383095Y-124413390D02*
X55430714Y-124222914D01*
X55430714Y-124222914D02*
X55478333Y-124127676D01*
X55478333Y-124127676D02*
X55573571Y-124032438D01*
X55573571Y-124032438D02*
X55716428Y-123984819D01*
X55716428Y-123984819D02*
X55811666Y-123984819D01*
X55811666Y-123984819D02*
X55954523Y-124032438D01*
X55954523Y-124032438D02*
X56002142Y-124080057D01*
X56383095Y-124080057D02*
X56430714Y-124032438D01*
X56430714Y-124032438D02*
X56525952Y-123984819D01*
X56525952Y-123984819D02*
X56764047Y-123984819D01*
X56764047Y-123984819D02*
X56859285Y-124032438D01*
X56859285Y-124032438D02*
X56906904Y-124080057D01*
X56906904Y-124080057D02*
X56954523Y-124175295D01*
X56954523Y-124175295D02*
X56954523Y-124270533D01*
X56954523Y-124270533D02*
X56906904Y-124413390D01*
X56906904Y-124413390D02*
X56335476Y-124984819D01*
X56335476Y-124984819D02*
X56954523Y-124984819D01*
X57811666Y-124318152D02*
X57811666Y-124984819D01*
X57573571Y-123937200D02*
X57335476Y-124651485D01*
X57335476Y-124651485D02*
X57954523Y-124651485D01*
X59259819Y-111919166D02*
X58783628Y-112252499D01*
X59259819Y-112490594D02*
X58259819Y-112490594D01*
X58259819Y-112490594D02*
X58259819Y-112109642D01*
X58259819Y-112109642D02*
X58307438Y-112014404D01*
X58307438Y-112014404D02*
X58355057Y-111966785D01*
X58355057Y-111966785D02*
X58450295Y-111919166D01*
X58450295Y-111919166D02*
X58593152Y-111919166D01*
X58593152Y-111919166D02*
X58688390Y-111966785D01*
X58688390Y-111966785D02*
X58736009Y-112014404D01*
X58736009Y-112014404D02*
X58783628Y-112109642D01*
X58783628Y-112109642D02*
X58783628Y-112490594D01*
X58259819Y-111585832D02*
X58259819Y-110919166D01*
X58259819Y-110919166D02*
X59259819Y-111347737D01*
X67817142Y-116984819D02*
X67483809Y-116508628D01*
X67245714Y-116984819D02*
X67245714Y-115984819D01*
X67245714Y-115984819D02*
X67626666Y-115984819D01*
X67626666Y-115984819D02*
X67721904Y-116032438D01*
X67721904Y-116032438D02*
X67769523Y-116080057D01*
X67769523Y-116080057D02*
X67817142Y-116175295D01*
X67817142Y-116175295D02*
X67817142Y-116318152D01*
X67817142Y-116318152D02*
X67769523Y-116413390D01*
X67769523Y-116413390D02*
X67721904Y-116461009D01*
X67721904Y-116461009D02*
X67626666Y-116508628D01*
X67626666Y-116508628D02*
X67245714Y-116508628D01*
X68769523Y-116984819D02*
X68198095Y-116984819D01*
X68483809Y-116984819D02*
X68483809Y-115984819D01*
X68483809Y-115984819D02*
X68388571Y-116127676D01*
X68388571Y-116127676D02*
X68293333Y-116222914D01*
X68293333Y-116222914D02*
X68198095Y-116270533D01*
X69388571Y-115984819D02*
X69483809Y-115984819D01*
X69483809Y-115984819D02*
X69579047Y-116032438D01*
X69579047Y-116032438D02*
X69626666Y-116080057D01*
X69626666Y-116080057D02*
X69674285Y-116175295D01*
X69674285Y-116175295D02*
X69721904Y-116365771D01*
X69721904Y-116365771D02*
X69721904Y-116603866D01*
X69721904Y-116603866D02*
X69674285Y-116794342D01*
X69674285Y-116794342D02*
X69626666Y-116889580D01*
X69626666Y-116889580D02*
X69579047Y-116937200D01*
X69579047Y-116937200D02*
X69483809Y-116984819D01*
X69483809Y-116984819D02*
X69388571Y-116984819D01*
X69388571Y-116984819D02*
X69293333Y-116937200D01*
X69293333Y-116937200D02*
X69245714Y-116889580D01*
X69245714Y-116889580D02*
X69198095Y-116794342D01*
X69198095Y-116794342D02*
X69150476Y-116603866D01*
X69150476Y-116603866D02*
X69150476Y-116365771D01*
X69150476Y-116365771D02*
X69198095Y-116175295D01*
X69198095Y-116175295D02*
X69245714Y-116080057D01*
X69245714Y-116080057D02*
X69293333Y-116032438D01*
X69293333Y-116032438D02*
X69388571Y-115984819D01*
X77827057Y-123640238D02*
X77779438Y-123735476D01*
X77779438Y-123735476D02*
X77684200Y-123830714D01*
X77684200Y-123830714D02*
X77541342Y-123973571D01*
X77541342Y-123973571D02*
X77493723Y-124068809D01*
X77493723Y-124068809D02*
X77493723Y-124164047D01*
X77731819Y-124116428D02*
X77684200Y-124211666D01*
X77684200Y-124211666D02*
X77588961Y-124306904D01*
X77588961Y-124306904D02*
X77398485Y-124354523D01*
X77398485Y-124354523D02*
X77065152Y-124354523D01*
X77065152Y-124354523D02*
X76874676Y-124306904D01*
X76874676Y-124306904D02*
X76779438Y-124211666D01*
X76779438Y-124211666D02*
X76731819Y-124116428D01*
X76731819Y-124116428D02*
X76731819Y-123925952D01*
X76731819Y-123925952D02*
X76779438Y-123830714D01*
X76779438Y-123830714D02*
X76874676Y-123735476D01*
X76874676Y-123735476D02*
X77065152Y-123687857D01*
X77065152Y-123687857D02*
X77398485Y-123687857D01*
X77398485Y-123687857D02*
X77588961Y-123735476D01*
X77588961Y-123735476D02*
X77684200Y-123830714D01*
X77684200Y-123830714D02*
X77731819Y-123925952D01*
X77731819Y-123925952D02*
X77731819Y-124116428D01*
X76827057Y-123306904D02*
X76779438Y-123259285D01*
X76779438Y-123259285D02*
X76731819Y-123164047D01*
X76731819Y-123164047D02*
X76731819Y-122925952D01*
X76731819Y-122925952D02*
X76779438Y-122830714D01*
X76779438Y-122830714D02*
X76827057Y-122783095D01*
X76827057Y-122783095D02*
X76922295Y-122735476D01*
X76922295Y-122735476D02*
X77017533Y-122735476D01*
X77017533Y-122735476D02*
X77160390Y-122783095D01*
X77160390Y-122783095D02*
X77731819Y-123354523D01*
X77731819Y-123354523D02*
X77731819Y-122735476D01*
X71164819Y-131633333D02*
X71879104Y-131633333D01*
X71879104Y-131633333D02*
X72021961Y-131680952D01*
X72021961Y-131680952D02*
X72117200Y-131776190D01*
X72117200Y-131776190D02*
X72164819Y-131919047D01*
X72164819Y-131919047D02*
X72164819Y-132014285D01*
X71498152Y-130728571D02*
X72164819Y-130728571D01*
X71117200Y-130966666D02*
X71831485Y-131204761D01*
X71831485Y-131204761D02*
X71831485Y-130585714D01*
X209048628Y-100036190D02*
X209524819Y-100036190D01*
X208524819Y-100369523D02*
X209048628Y-100036190D01*
X209048628Y-100036190D02*
X208524819Y-99702857D01*
X208620057Y-99417142D02*
X208572438Y-99369523D01*
X208572438Y-99369523D02*
X208524819Y-99274285D01*
X208524819Y-99274285D02*
X208524819Y-99036190D01*
X208524819Y-99036190D02*
X208572438Y-98940952D01*
X208572438Y-98940952D02*
X208620057Y-98893333D01*
X208620057Y-98893333D02*
X208715295Y-98845714D01*
X208715295Y-98845714D02*
X208810533Y-98845714D01*
X208810533Y-98845714D02*
X208953390Y-98893333D01*
X208953390Y-98893333D02*
X209524819Y-99464761D01*
X209524819Y-99464761D02*
X209524819Y-98845714D01*
X66529819Y-109646666D02*
X66053628Y-109979999D01*
X66529819Y-110218094D02*
X65529819Y-110218094D01*
X65529819Y-110218094D02*
X65529819Y-109837142D01*
X65529819Y-109837142D02*
X65577438Y-109741904D01*
X65577438Y-109741904D02*
X65625057Y-109694285D01*
X65625057Y-109694285D02*
X65720295Y-109646666D01*
X65720295Y-109646666D02*
X65863152Y-109646666D01*
X65863152Y-109646666D02*
X65958390Y-109694285D01*
X65958390Y-109694285D02*
X66006009Y-109741904D01*
X66006009Y-109741904D02*
X66053628Y-109837142D01*
X66053628Y-109837142D02*
X66053628Y-110218094D01*
X65958390Y-109075237D02*
X65910771Y-109170475D01*
X65910771Y-109170475D02*
X65863152Y-109218094D01*
X65863152Y-109218094D02*
X65767914Y-109265713D01*
X65767914Y-109265713D02*
X65720295Y-109265713D01*
X65720295Y-109265713D02*
X65625057Y-109218094D01*
X65625057Y-109218094D02*
X65577438Y-109170475D01*
X65577438Y-109170475D02*
X65529819Y-109075237D01*
X65529819Y-109075237D02*
X65529819Y-108884761D01*
X65529819Y-108884761D02*
X65577438Y-108789523D01*
X65577438Y-108789523D02*
X65625057Y-108741904D01*
X65625057Y-108741904D02*
X65720295Y-108694285D01*
X65720295Y-108694285D02*
X65767914Y-108694285D01*
X65767914Y-108694285D02*
X65863152Y-108741904D01*
X65863152Y-108741904D02*
X65910771Y-108789523D01*
X65910771Y-108789523D02*
X65958390Y-108884761D01*
X65958390Y-108884761D02*
X65958390Y-109075237D01*
X65958390Y-109075237D02*
X66006009Y-109170475D01*
X66006009Y-109170475D02*
X66053628Y-109218094D01*
X66053628Y-109218094D02*
X66148866Y-109265713D01*
X66148866Y-109265713D02*
X66339342Y-109265713D01*
X66339342Y-109265713D02*
X66434580Y-109218094D01*
X66434580Y-109218094D02*
X66482200Y-109170475D01*
X66482200Y-109170475D02*
X66529819Y-109075237D01*
X66529819Y-109075237D02*
X66529819Y-108884761D01*
X66529819Y-108884761D02*
X66482200Y-108789523D01*
X66482200Y-108789523D02*
X66434580Y-108741904D01*
X66434580Y-108741904D02*
X66339342Y-108694285D01*
X66339342Y-108694285D02*
X66148866Y-108694285D01*
X66148866Y-108694285D02*
X66053628Y-108741904D01*
X66053628Y-108741904D02*
X66006009Y-108789523D01*
X66006009Y-108789523D02*
X65958390Y-108884761D01*
X88203333Y-61219580D02*
X88155714Y-61267200D01*
X88155714Y-61267200D02*
X88012857Y-61314819D01*
X88012857Y-61314819D02*
X87917619Y-61314819D01*
X87917619Y-61314819D02*
X87774762Y-61267200D01*
X87774762Y-61267200D02*
X87679524Y-61171961D01*
X87679524Y-61171961D02*
X87631905Y-61076723D01*
X87631905Y-61076723D02*
X87584286Y-60886247D01*
X87584286Y-60886247D02*
X87584286Y-60743390D01*
X87584286Y-60743390D02*
X87631905Y-60552914D01*
X87631905Y-60552914D02*
X87679524Y-60457676D01*
X87679524Y-60457676D02*
X87774762Y-60362438D01*
X87774762Y-60362438D02*
X87917619Y-60314819D01*
X87917619Y-60314819D02*
X88012857Y-60314819D01*
X88012857Y-60314819D02*
X88155714Y-60362438D01*
X88155714Y-60362438D02*
X88203333Y-60410057D01*
X89155714Y-61314819D02*
X88584286Y-61314819D01*
X88870000Y-61314819D02*
X88870000Y-60314819D01*
X88870000Y-60314819D02*
X88774762Y-60457676D01*
X88774762Y-60457676D02*
X88679524Y-60552914D01*
X88679524Y-60552914D02*
X88584286Y-60600533D01*
X90224819Y-61996904D02*
X91034342Y-61996904D01*
X91034342Y-61996904D02*
X91129580Y-61949285D01*
X91129580Y-61949285D02*
X91177200Y-61901666D01*
X91177200Y-61901666D02*
X91224819Y-61806428D01*
X91224819Y-61806428D02*
X91224819Y-61615952D01*
X91224819Y-61615952D02*
X91177200Y-61520714D01*
X91177200Y-61520714D02*
X91129580Y-61473095D01*
X91129580Y-61473095D02*
X91034342Y-61425476D01*
X91034342Y-61425476D02*
X90224819Y-61425476D01*
X90320057Y-60996904D02*
X90272438Y-60949285D01*
X90272438Y-60949285D02*
X90224819Y-60854047D01*
X90224819Y-60854047D02*
X90224819Y-60615952D01*
X90224819Y-60615952D02*
X90272438Y-60520714D01*
X90272438Y-60520714D02*
X90320057Y-60473095D01*
X90320057Y-60473095D02*
X90415295Y-60425476D01*
X90415295Y-60425476D02*
X90510533Y-60425476D01*
X90510533Y-60425476D02*
X90653390Y-60473095D01*
X90653390Y-60473095D02*
X91224819Y-61044523D01*
X91224819Y-61044523D02*
X91224819Y-60425476D01*
X87027142Y-48494819D02*
X86693809Y-48018628D01*
X86455714Y-48494819D02*
X86455714Y-47494819D01*
X86455714Y-47494819D02*
X86836666Y-47494819D01*
X86836666Y-47494819D02*
X86931904Y-47542438D01*
X86931904Y-47542438D02*
X86979523Y-47590057D01*
X86979523Y-47590057D02*
X87027142Y-47685295D01*
X87027142Y-47685295D02*
X87027142Y-47828152D01*
X87027142Y-47828152D02*
X86979523Y-47923390D01*
X86979523Y-47923390D02*
X86931904Y-47971009D01*
X86931904Y-47971009D02*
X86836666Y-48018628D01*
X86836666Y-48018628D02*
X86455714Y-48018628D01*
X87979523Y-48494819D02*
X87408095Y-48494819D01*
X87693809Y-48494819D02*
X87693809Y-47494819D01*
X87693809Y-47494819D02*
X87598571Y-47637676D01*
X87598571Y-47637676D02*
X87503333Y-47732914D01*
X87503333Y-47732914D02*
X87408095Y-47780533D01*
X88884285Y-47494819D02*
X88408095Y-47494819D01*
X88408095Y-47494819D02*
X88360476Y-47971009D01*
X88360476Y-47971009D02*
X88408095Y-47923390D01*
X88408095Y-47923390D02*
X88503333Y-47875771D01*
X88503333Y-47875771D02*
X88741428Y-47875771D01*
X88741428Y-47875771D02*
X88836666Y-47923390D01*
X88836666Y-47923390D02*
X88884285Y-47971009D01*
X88884285Y-47971009D02*
X88931904Y-48066247D01*
X88931904Y-48066247D02*
X88931904Y-48304342D01*
X88931904Y-48304342D02*
X88884285Y-48399580D01*
X88884285Y-48399580D02*
X88836666Y-48447200D01*
X88836666Y-48447200D02*
X88741428Y-48494819D01*
X88741428Y-48494819D02*
X88503333Y-48494819D01*
X88503333Y-48494819D02*
X88408095Y-48447200D01*
X88408095Y-48447200D02*
X88360476Y-48399580D01*
X65339819Y-123859404D02*
X66149342Y-123859404D01*
X66149342Y-123859404D02*
X66244580Y-123811785D01*
X66244580Y-123811785D02*
X66292200Y-123764166D01*
X66292200Y-123764166D02*
X66339819Y-123668928D01*
X66339819Y-123668928D02*
X66339819Y-123478452D01*
X66339819Y-123478452D02*
X66292200Y-123383214D01*
X66292200Y-123383214D02*
X66244580Y-123335595D01*
X66244580Y-123335595D02*
X66149342Y-123287976D01*
X66149342Y-123287976D02*
X65339819Y-123287976D01*
X65339819Y-122907023D02*
X65339819Y-122240357D01*
X65339819Y-122240357D02*
X66339819Y-122668928D01*
X95452142Y-69609819D02*
X95118809Y-69133628D01*
X94880714Y-69609819D02*
X94880714Y-68609819D01*
X94880714Y-68609819D02*
X95261666Y-68609819D01*
X95261666Y-68609819D02*
X95356904Y-68657438D01*
X95356904Y-68657438D02*
X95404523Y-68705057D01*
X95404523Y-68705057D02*
X95452142Y-68800295D01*
X95452142Y-68800295D02*
X95452142Y-68943152D01*
X95452142Y-68943152D02*
X95404523Y-69038390D01*
X95404523Y-69038390D02*
X95356904Y-69086009D01*
X95356904Y-69086009D02*
X95261666Y-69133628D01*
X95261666Y-69133628D02*
X94880714Y-69133628D01*
X95833095Y-68705057D02*
X95880714Y-68657438D01*
X95880714Y-68657438D02*
X95975952Y-68609819D01*
X95975952Y-68609819D02*
X96214047Y-68609819D01*
X96214047Y-68609819D02*
X96309285Y-68657438D01*
X96309285Y-68657438D02*
X96356904Y-68705057D01*
X96356904Y-68705057D02*
X96404523Y-68800295D01*
X96404523Y-68800295D02*
X96404523Y-68895533D01*
X96404523Y-68895533D02*
X96356904Y-69038390D01*
X96356904Y-69038390D02*
X95785476Y-69609819D01*
X95785476Y-69609819D02*
X96404523Y-69609819D01*
X97356904Y-69609819D02*
X96785476Y-69609819D01*
X97071190Y-69609819D02*
X97071190Y-68609819D01*
X97071190Y-68609819D02*
X96975952Y-68752676D01*
X96975952Y-68752676D02*
X96880714Y-68847914D01*
X96880714Y-68847914D02*
X96785476Y-68895533D01*
X186981666Y-88604819D02*
X186981666Y-89319104D01*
X186981666Y-89319104D02*
X186934047Y-89461961D01*
X186934047Y-89461961D02*
X186838809Y-89557200D01*
X186838809Y-89557200D02*
X186695952Y-89604819D01*
X186695952Y-89604819D02*
X186600714Y-89604819D01*
X187934047Y-88604819D02*
X187457857Y-88604819D01*
X187457857Y-88604819D02*
X187410238Y-89081009D01*
X187410238Y-89081009D02*
X187457857Y-89033390D01*
X187457857Y-89033390D02*
X187553095Y-88985771D01*
X187553095Y-88985771D02*
X187791190Y-88985771D01*
X187791190Y-88985771D02*
X187886428Y-89033390D01*
X187886428Y-89033390D02*
X187934047Y-89081009D01*
X187934047Y-89081009D02*
X187981666Y-89176247D01*
X187981666Y-89176247D02*
X187981666Y-89414342D01*
X187981666Y-89414342D02*
X187934047Y-89509580D01*
X187934047Y-89509580D02*
X187886428Y-89557200D01*
X187886428Y-89557200D02*
X187791190Y-89604819D01*
X187791190Y-89604819D02*
X187553095Y-89604819D01*
X187553095Y-89604819D02*
X187457857Y-89557200D01*
X187457857Y-89557200D02*
X187410238Y-89509580D01*
X206334819Y-107116666D02*
X205858628Y-107449999D01*
X206334819Y-107688094D02*
X205334819Y-107688094D01*
X205334819Y-107688094D02*
X205334819Y-107307142D01*
X205334819Y-107307142D02*
X205382438Y-107211904D01*
X205382438Y-107211904D02*
X205430057Y-107164285D01*
X205430057Y-107164285D02*
X205525295Y-107116666D01*
X205525295Y-107116666D02*
X205668152Y-107116666D01*
X205668152Y-107116666D02*
X205763390Y-107164285D01*
X205763390Y-107164285D02*
X205811009Y-107211904D01*
X205811009Y-107211904D02*
X205858628Y-107307142D01*
X205858628Y-107307142D02*
X205858628Y-107688094D01*
X205334819Y-106211904D02*
X205334819Y-106688094D01*
X205334819Y-106688094D02*
X205811009Y-106735713D01*
X205811009Y-106735713D02*
X205763390Y-106688094D01*
X205763390Y-106688094D02*
X205715771Y-106592856D01*
X205715771Y-106592856D02*
X205715771Y-106354761D01*
X205715771Y-106354761D02*
X205763390Y-106259523D01*
X205763390Y-106259523D02*
X205811009Y-106211904D01*
X205811009Y-106211904D02*
X205906247Y-106164285D01*
X205906247Y-106164285D02*
X206144342Y-106164285D01*
X206144342Y-106164285D02*
X206239580Y-106211904D01*
X206239580Y-106211904D02*
X206287200Y-106259523D01*
X206287200Y-106259523D02*
X206334819Y-106354761D01*
X206334819Y-106354761D02*
X206334819Y-106592856D01*
X206334819Y-106592856D02*
X206287200Y-106688094D01*
X206287200Y-106688094D02*
X206239580Y-106735713D01*
X101058333Y-68549580D02*
X101010714Y-68597200D01*
X101010714Y-68597200D02*
X100867857Y-68644819D01*
X100867857Y-68644819D02*
X100772619Y-68644819D01*
X100772619Y-68644819D02*
X100629762Y-68597200D01*
X100629762Y-68597200D02*
X100534524Y-68501961D01*
X100534524Y-68501961D02*
X100486905Y-68406723D01*
X100486905Y-68406723D02*
X100439286Y-68216247D01*
X100439286Y-68216247D02*
X100439286Y-68073390D01*
X100439286Y-68073390D02*
X100486905Y-67882914D01*
X100486905Y-67882914D02*
X100534524Y-67787676D01*
X100534524Y-67787676D02*
X100629762Y-67692438D01*
X100629762Y-67692438D02*
X100772619Y-67644819D01*
X100772619Y-67644819D02*
X100867857Y-67644819D01*
X100867857Y-67644819D02*
X101010714Y-67692438D01*
X101010714Y-67692438D02*
X101058333Y-67740057D01*
X101915476Y-67644819D02*
X101725000Y-67644819D01*
X101725000Y-67644819D02*
X101629762Y-67692438D01*
X101629762Y-67692438D02*
X101582143Y-67740057D01*
X101582143Y-67740057D02*
X101486905Y-67882914D01*
X101486905Y-67882914D02*
X101439286Y-68073390D01*
X101439286Y-68073390D02*
X101439286Y-68454342D01*
X101439286Y-68454342D02*
X101486905Y-68549580D01*
X101486905Y-68549580D02*
X101534524Y-68597200D01*
X101534524Y-68597200D02*
X101629762Y-68644819D01*
X101629762Y-68644819D02*
X101820238Y-68644819D01*
X101820238Y-68644819D02*
X101915476Y-68597200D01*
X101915476Y-68597200D02*
X101963095Y-68549580D01*
X101963095Y-68549580D02*
X102010714Y-68454342D01*
X102010714Y-68454342D02*
X102010714Y-68216247D01*
X102010714Y-68216247D02*
X101963095Y-68121009D01*
X101963095Y-68121009D02*
X101915476Y-68073390D01*
X101915476Y-68073390D02*
X101820238Y-68025771D01*
X101820238Y-68025771D02*
X101629762Y-68025771D01*
X101629762Y-68025771D02*
X101534524Y-68073390D01*
X101534524Y-68073390D02*
X101486905Y-68121009D01*
X101486905Y-68121009D02*
X101439286Y-68216247D01*
X201542142Y-96279580D02*
X201494523Y-96327200D01*
X201494523Y-96327200D02*
X201351666Y-96374819D01*
X201351666Y-96374819D02*
X201256428Y-96374819D01*
X201256428Y-96374819D02*
X201113571Y-96327200D01*
X201113571Y-96327200D02*
X201018333Y-96231961D01*
X201018333Y-96231961D02*
X200970714Y-96136723D01*
X200970714Y-96136723D02*
X200923095Y-95946247D01*
X200923095Y-95946247D02*
X200923095Y-95803390D01*
X200923095Y-95803390D02*
X200970714Y-95612914D01*
X200970714Y-95612914D02*
X201018333Y-95517676D01*
X201018333Y-95517676D02*
X201113571Y-95422438D01*
X201113571Y-95422438D02*
X201256428Y-95374819D01*
X201256428Y-95374819D02*
X201351666Y-95374819D01*
X201351666Y-95374819D02*
X201494523Y-95422438D01*
X201494523Y-95422438D02*
X201542142Y-95470057D01*
X202494523Y-96374819D02*
X201923095Y-96374819D01*
X202208809Y-96374819D02*
X202208809Y-95374819D01*
X202208809Y-95374819D02*
X202113571Y-95517676D01*
X202113571Y-95517676D02*
X202018333Y-95612914D01*
X202018333Y-95612914D02*
X201923095Y-95660533D01*
X203446904Y-96374819D02*
X202875476Y-96374819D01*
X203161190Y-96374819D02*
X203161190Y-95374819D01*
X203161190Y-95374819D02*
X203065952Y-95517676D01*
X203065952Y-95517676D02*
X202970714Y-95612914D01*
X202970714Y-95612914D02*
X202875476Y-95660533D01*
X198333333Y-109554819D02*
X198000000Y-109078628D01*
X197761905Y-109554819D02*
X197761905Y-108554819D01*
X197761905Y-108554819D02*
X198142857Y-108554819D01*
X198142857Y-108554819D02*
X198238095Y-108602438D01*
X198238095Y-108602438D02*
X198285714Y-108650057D01*
X198285714Y-108650057D02*
X198333333Y-108745295D01*
X198333333Y-108745295D02*
X198333333Y-108888152D01*
X198333333Y-108888152D02*
X198285714Y-108983390D01*
X198285714Y-108983390D02*
X198238095Y-109031009D01*
X198238095Y-109031009D02*
X198142857Y-109078628D01*
X198142857Y-109078628D02*
X197761905Y-109078628D01*
X199190476Y-108554819D02*
X199000000Y-108554819D01*
X199000000Y-108554819D02*
X198904762Y-108602438D01*
X198904762Y-108602438D02*
X198857143Y-108650057D01*
X198857143Y-108650057D02*
X198761905Y-108792914D01*
X198761905Y-108792914D02*
X198714286Y-108983390D01*
X198714286Y-108983390D02*
X198714286Y-109364342D01*
X198714286Y-109364342D02*
X198761905Y-109459580D01*
X198761905Y-109459580D02*
X198809524Y-109507200D01*
X198809524Y-109507200D02*
X198904762Y-109554819D01*
X198904762Y-109554819D02*
X199095238Y-109554819D01*
X199095238Y-109554819D02*
X199190476Y-109507200D01*
X199190476Y-109507200D02*
X199238095Y-109459580D01*
X199238095Y-109459580D02*
X199285714Y-109364342D01*
X199285714Y-109364342D02*
X199285714Y-109126247D01*
X199285714Y-109126247D02*
X199238095Y-109031009D01*
X199238095Y-109031009D02*
X199190476Y-108983390D01*
X199190476Y-108983390D02*
X199095238Y-108935771D01*
X199095238Y-108935771D02*
X198904762Y-108935771D01*
X198904762Y-108935771D02*
X198809524Y-108983390D01*
X198809524Y-108983390D02*
X198761905Y-109031009D01*
X198761905Y-109031009D02*
X198714286Y-109126247D01*
X118599580Y-55016666D02*
X118647200Y-55064285D01*
X118647200Y-55064285D02*
X118694819Y-55207142D01*
X118694819Y-55207142D02*
X118694819Y-55302380D01*
X118694819Y-55302380D02*
X118647200Y-55445237D01*
X118647200Y-55445237D02*
X118551961Y-55540475D01*
X118551961Y-55540475D02*
X118456723Y-55588094D01*
X118456723Y-55588094D02*
X118266247Y-55635713D01*
X118266247Y-55635713D02*
X118123390Y-55635713D01*
X118123390Y-55635713D02*
X117932914Y-55588094D01*
X117932914Y-55588094D02*
X117837676Y-55540475D01*
X117837676Y-55540475D02*
X117742438Y-55445237D01*
X117742438Y-55445237D02*
X117694819Y-55302380D01*
X117694819Y-55302380D02*
X117694819Y-55207142D01*
X117694819Y-55207142D02*
X117742438Y-55064285D01*
X117742438Y-55064285D02*
X117790057Y-55016666D01*
X117694819Y-54683332D02*
X117694819Y-54064285D01*
X117694819Y-54064285D02*
X118075771Y-54397618D01*
X118075771Y-54397618D02*
X118075771Y-54254761D01*
X118075771Y-54254761D02*
X118123390Y-54159523D01*
X118123390Y-54159523D02*
X118171009Y-54111904D01*
X118171009Y-54111904D02*
X118266247Y-54064285D01*
X118266247Y-54064285D02*
X118504342Y-54064285D01*
X118504342Y-54064285D02*
X118599580Y-54111904D01*
X118599580Y-54111904D02*
X118647200Y-54159523D01*
X118647200Y-54159523D02*
X118694819Y-54254761D01*
X118694819Y-54254761D02*
X118694819Y-54540475D01*
X118694819Y-54540475D02*
X118647200Y-54635713D01*
X118647200Y-54635713D02*
X118599580Y-54683332D01*
D12*
%TO.C,R14*%
X73532936Y-78035000D02*
X73987064Y-78035000D01*
X73532936Y-79505000D02*
X73987064Y-79505000D01*
%TO.C,R24*%
X88437500Y-52327258D02*
X88437500Y-51852742D01*
X89482500Y-52327258D02*
X89482500Y-51852742D01*
%TO.C,C9*%
X103200000Y-72300580D02*
X103200000Y-72019420D01*
X104220000Y-72300580D02*
X104220000Y-72019420D01*
%TO.C,C20*%
X203590000Y-103264420D02*
X203590000Y-103545580D01*
X204610000Y-103264420D02*
X204610000Y-103545580D01*
%TO.C,R1*%
X56872064Y-120365000D02*
X56417936Y-120365000D01*
X56872064Y-121835000D02*
X56417936Y-121835000D01*
%TO.C,C23*%
X195526248Y-88695500D02*
X196048752Y-88695500D01*
X195526248Y-90165500D02*
X196048752Y-90165500D01*
%TO.C,U3*%
X108570000Y-51810000D02*
X108570000Y-51810000D01*
X108570000Y-51810000D02*
X137770000Y-51810000D01*
X108570000Y-67260000D02*
X108570000Y-51810000D01*
X108900000Y-52386000D02*
X108900000Y-52386000D01*
X108900000Y-52386000D02*
X114234000Y-52386000D01*
X108900000Y-63054000D02*
X108900000Y-52386000D01*
X108900000Y-63054000D02*
X108900000Y-63054000D01*
X114234000Y-52386000D02*
X114234000Y-63054000D01*
X114234000Y-63054000D02*
X108900000Y-63054000D01*
X137770000Y-51810000D02*
X137770000Y-67260000D01*
X137770000Y-67260000D02*
X108570000Y-67260000D01*
X108370000Y-53910000D02*
X108034000Y-54150000D01*
X108034000Y-53670000D01*
X108370000Y-53910000D01*
G36*
X108370000Y-53910000D02*
G01*
X108034000Y-54150000D01*
X108034000Y-53670000D01*
X108370000Y-53910000D01*
G37*
%TO.C,C12*%
X193040000Y-97639420D02*
X193040000Y-97920580D01*
X194060000Y-97639420D02*
X194060000Y-97920580D01*
D10*
%TO.C,SW2*%
X81964320Y-98505444D02*
X81964320Y-97505444D01*
X81964320Y-111505444D02*
X81964320Y-110505444D01*
X81964320Y-111505444D02*
X82964320Y-111505444D01*
X82964320Y-97505444D02*
X81964320Y-97505444D01*
X94964320Y-111505444D02*
X95964320Y-111505444D01*
X95964320Y-97505444D02*
X94964320Y-97505444D01*
X95964320Y-97505444D02*
X95964320Y-98505444D01*
X95964320Y-110505444D02*
X95964320Y-111505444D01*
D12*
%TO.C,R12*%
X87715000Y-62652936D02*
X87715000Y-63107064D01*
X89185000Y-62652936D02*
X89185000Y-63107064D01*
D13*
%TO.C,J2*%
X91670000Y-41683000D02*
X91670000Y-43153000D01*
X91670000Y-45412000D02*
X91670000Y-47232500D01*
X100610000Y-41683000D02*
X91670000Y-41683000D01*
X100610000Y-41683000D02*
X100610000Y-43190000D01*
X100610000Y-45375000D02*
X100610000Y-47270000D01*
D12*
%TO.C,Y1*%
X94660000Y-71700000D02*
X94660000Y-75820000D01*
X98080000Y-71700000D02*
X94660000Y-71700000D01*
%TO.C,R9*%
X67762500Y-126547742D02*
X67762500Y-127022258D01*
X68807500Y-126547742D02*
X68807500Y-127022258D01*
D10*
%TO.C,SW7*%
X120064320Y-79455444D02*
X120064320Y-78455444D01*
X120064320Y-92455444D02*
X120064320Y-91455444D01*
X120064320Y-92455444D02*
X121064320Y-92455444D01*
X121064320Y-78455444D02*
X120064320Y-78455444D01*
X133064320Y-92455444D02*
X134064320Y-92455444D01*
X134064320Y-78455444D02*
X133064320Y-78455444D01*
X134064320Y-78455444D02*
X134064320Y-79455444D01*
X134064320Y-91455444D02*
X134064320Y-92455444D01*
D12*
%TO.C,C30*%
X70174420Y-47230000D02*
X70455580Y-47230000D01*
X70174420Y-48250000D02*
X70455580Y-48250000D01*
%TO.C,R20*%
X73412936Y-95895000D02*
X73867064Y-95895000D01*
X73412936Y-97365000D02*
X73867064Y-97365000D01*
D10*
%TO.C,SW6*%
X101014320Y-117555444D02*
X101014320Y-116555444D01*
X101014320Y-130555444D02*
X101014320Y-129555444D01*
X101014320Y-130555444D02*
X102014320Y-130555444D01*
X102014320Y-116555444D02*
X101014320Y-116555444D01*
X114014320Y-130555444D02*
X115014320Y-130555444D01*
X115014320Y-116555444D02*
X114014320Y-116555444D01*
X115014320Y-116555444D02*
X115014320Y-117555444D01*
X115014320Y-129555444D02*
X115014320Y-130555444D01*
%TO.C,SW3*%
X81964320Y-117555444D02*
X81964320Y-116555444D01*
X81964320Y-130555444D02*
X81964320Y-129555444D01*
X81964320Y-130555444D02*
X82964320Y-130555444D01*
X82964320Y-116555444D02*
X81964320Y-116555444D01*
X94964320Y-130555444D02*
X95964320Y-130555444D01*
X95964320Y-116555444D02*
X94964320Y-116555444D01*
X95964320Y-116555444D02*
X95964320Y-117555444D01*
X95964320Y-129555444D02*
X95964320Y-130555444D01*
D12*
%TO.C,R23*%
X85785000Y-52317064D02*
X85785000Y-51862936D01*
X87255000Y-52317064D02*
X87255000Y-51862936D01*
%TO.C,U10*%
D11*
X60861181Y-61775000D02*
X63851181Y-61775000D01*
X63851181Y-63585000D01*
X60861181Y-63585000D01*
X60861181Y-61775000D01*
X61173542Y-61625000D02*
G75*
G02*
X61128820Y-61625000I-22361J0D01*
G01*
X61128820Y-61625000D02*
G75*
G02*
X61173542Y-61625000I22361J0D01*
G01*
D12*
%TO.C,R2*%
X94092742Y-54177500D02*
X94567258Y-54177500D01*
X94092742Y-55222500D02*
X94567258Y-55222500D01*
%TO.C,C15*%
X206720580Y-102060000D02*
X206439420Y-102060000D01*
X206720580Y-103080000D02*
X206439420Y-103080000D01*
%TO.C,R11*%
X104035000Y-58957064D02*
X104035000Y-58502936D01*
X105505000Y-58957064D02*
X105505000Y-58502936D01*
%TO.C,SW13*%
X55020000Y-92850000D02*
X55620000Y-92850000D01*
X55320000Y-93150000D02*
X55020000Y-92850000D01*
X55620000Y-92850000D02*
X55320000Y-93150000D01*
X56120000Y-90650000D02*
X56120000Y-93150000D01*
X56120000Y-103250000D02*
X56120000Y-100450000D01*
X60920000Y-90650000D02*
X56120000Y-90650000D01*
X61020000Y-103250000D02*
X56120000Y-103250000D01*
X62320000Y-96950000D02*
X63320000Y-96950000D01*
X62820000Y-96450000D02*
X62820000Y-97450000D01*
X64620000Y-90650000D02*
X69520000Y-90650000D01*
X69520000Y-90650000D02*
X69520000Y-93250000D01*
X69520000Y-95650000D02*
X69520000Y-98250000D01*
X69520000Y-100650000D02*
X69520000Y-103250000D01*
X69520000Y-103250000D02*
X64620000Y-103250000D01*
X65820000Y-96950000D02*
G75*
G02*
X59820000Y-96950000I-3000000J0D01*
G01*
X59820000Y-96950000D02*
G75*
G02*
X65820000Y-96950000I3000000J0D01*
G01*
%TO.C,C31*%
X62511252Y-64145000D02*
X61988748Y-64145000D01*
X62511252Y-65615000D02*
X61988748Y-65615000D01*
%TO.C,C2*%
X102439420Y-54490000D02*
X102720580Y-54490000D01*
X102439420Y-55510000D02*
X102720580Y-55510000D01*
%TO.C,C29*%
X70174420Y-49230000D02*
X70455580Y-49230000D01*
X70174420Y-50250000D02*
X70455580Y-50250000D01*
%TO.C,C14*%
X192720000Y-107859420D02*
X192720000Y-108140580D01*
X193740000Y-107859420D02*
X193740000Y-108140580D01*
%TO.C,C17*%
X93010000Y-72209420D02*
X93010000Y-72490580D01*
X94030000Y-72209420D02*
X94030000Y-72490580D01*
D10*
%TO.C,SW9*%
X120064320Y-117555444D02*
X120064320Y-116555444D01*
X120064320Y-130555444D02*
X120064320Y-129555444D01*
X120064320Y-130555444D02*
X121064320Y-130555444D01*
X121064320Y-116555444D02*
X120064320Y-116555444D01*
X133064320Y-130555444D02*
X134064320Y-130555444D01*
X134064320Y-116555444D02*
X133064320Y-116555444D01*
X134064320Y-116555444D02*
X134064320Y-117555444D01*
X134064320Y-129555444D02*
X134064320Y-130555444D01*
D12*
%TO.C,C21*%
X203064420Y-80810000D02*
X203345580Y-80810000D01*
X203064420Y-81830000D02*
X203345580Y-81830000D01*
%TO.C,D3*%
X54415000Y-111845000D02*
X54415000Y-114530000D01*
X56335000Y-111845000D02*
X54415000Y-111845000D01*
X56335000Y-114530000D02*
X56335000Y-111845000D01*
%TO.C,C28*%
X62305000Y-48428748D02*
X62305000Y-48951252D01*
X63775000Y-48428748D02*
X63775000Y-48951252D01*
%TO.C,Q1*%
X60097500Y-113040000D02*
X61917500Y-113040000D01*
X60097500Y-113090000D02*
X60097500Y-113040000D01*
X60097500Y-114990000D02*
X60097500Y-114210000D01*
X60097500Y-116160000D02*
X60097500Y-116110000D01*
X61917500Y-113040000D02*
X61917500Y-114040000D01*
X61917500Y-115160000D02*
X61917500Y-116160000D01*
X61917500Y-116160000D02*
X60097500Y-116160000D01*
X59797500Y-114550000D02*
X59317500Y-114550000D01*
X59557500Y-114220000D01*
X59797500Y-114550000D01*
G36*
X59797500Y-114550000D02*
G01*
X59317500Y-114550000D01*
X59557500Y-114220000D01*
X59797500Y-114550000D01*
G37*
%TO.C,C19*%
X201819420Y-110150000D02*
X202100580Y-110150000D01*
X201819420Y-111170000D02*
X202100580Y-111170000D01*
%TO.C,C8*%
X92640580Y-69080000D02*
X92359420Y-69080000D01*
X92640580Y-70100000D02*
X92359420Y-70100000D01*
%TO.C,C18*%
X98760000Y-73265580D02*
X98760000Y-72984420D01*
X99780000Y-73265580D02*
X99780000Y-72984420D01*
%TO.C,U4*%
X194180000Y-99660000D02*
X194630000Y-99660000D01*
X194180000Y-100110000D02*
X194180000Y-99660000D01*
X194180000Y-106880000D02*
X194180000Y-106430000D01*
X194630000Y-106880000D02*
X194180000Y-106880000D01*
X200950000Y-99660000D02*
X201400000Y-99660000D01*
X201400000Y-99660000D02*
X201400000Y-100110000D01*
X201400000Y-106430000D02*
X201400000Y-106880000D01*
X201400000Y-106880000D02*
X200950000Y-106880000D01*
X201420000Y-99360000D02*
X200950000Y-99020000D01*
X201420000Y-98680000D01*
X201420000Y-99360000D01*
G36*
X201420000Y-99360000D02*
G01*
X200950000Y-99020000D01*
X201420000Y-98680000D01*
X201420000Y-99360000D01*
G37*
%TO.C,U6*%
X60490000Y-106900000D02*
X64610000Y-106900000D01*
X60490000Y-106995000D02*
X60490000Y-106900000D01*
X60490000Y-112020000D02*
X60490000Y-111925000D01*
X64610000Y-106900000D02*
X64610000Y-106995000D01*
X64610000Y-111925000D02*
X64610000Y-112020000D01*
X64610000Y-112020000D02*
X60490000Y-112020000D01*
X65390000Y-112260000D02*
X64910000Y-112260000D01*
X65150000Y-111930000D01*
X65390000Y-112260000D01*
G36*
X65390000Y-112260000D02*
G01*
X64910000Y-112260000D01*
X65150000Y-111930000D01*
X65390000Y-112260000D01*
G37*
%TO.C,SW12*%
X54970000Y-75750000D02*
X55570000Y-75750000D01*
X55270000Y-76050000D02*
X54970000Y-75750000D01*
X55570000Y-75750000D02*
X55270000Y-76050000D01*
X56070000Y-73550000D02*
X56070000Y-76050000D01*
X56070000Y-86150000D02*
X56070000Y-83350000D01*
X60870000Y-73550000D02*
X56070000Y-73550000D01*
X60970000Y-86150000D02*
X56070000Y-86150000D01*
X62270000Y-79850000D02*
X63270000Y-79850000D01*
X62770000Y-79350000D02*
X62770000Y-80350000D01*
X64570000Y-73550000D02*
X69470000Y-73550000D01*
X69470000Y-73550000D02*
X69470000Y-76150000D01*
X69470000Y-78550000D02*
X69470000Y-81150000D01*
X69470000Y-83550000D02*
X69470000Y-86150000D01*
X69470000Y-86150000D02*
X64570000Y-86150000D01*
X65770000Y-79850000D02*
G75*
G02*
X59770000Y-79850000I-3000000J0D01*
G01*
X59770000Y-79850000D02*
G75*
G02*
X65770000Y-79850000I3000000J0D01*
G01*
D10*
%TO.C,SW5*%
X101014320Y-98505444D02*
X101014320Y-97505444D01*
X101014320Y-111505444D02*
X101014320Y-110505444D01*
X101014320Y-111505444D02*
X102014320Y-111505444D01*
X102014320Y-97505444D02*
X101014320Y-97505444D01*
X114014320Y-111505444D02*
X115014320Y-111505444D01*
X115014320Y-97505444D02*
X114014320Y-97505444D01*
X115014320Y-97505444D02*
X115014320Y-98505444D01*
X115014320Y-110505444D02*
X115014320Y-111505444D01*
D12*
%TO.C,C25*%
X68200580Y-119450000D02*
X67919420Y-119450000D01*
X68200580Y-120470000D02*
X67919420Y-120470000D01*
%TO.C,R17*%
X73552936Y-80565000D02*
X74007064Y-80565000D01*
X73552936Y-82035000D02*
X74007064Y-82035000D01*
D14*
%TO.C,U1*%
X197800000Y-80640001D02*
X199775000Y-80640001D01*
X199025002Y-83739999D02*
X199800004Y-83739999D01*
D12*
%TO.C,C27*%
X62680580Y-60260000D02*
X62399420Y-60260000D01*
X62680580Y-61280000D02*
X62399420Y-61280000D01*
%TO.C,R18*%
X73382936Y-93715000D02*
X73837064Y-93715000D01*
X73382936Y-95185000D02*
X73837064Y-95185000D01*
%TO.C,U5*%
X193710000Y-67280000D02*
X209160000Y-67280000D01*
X193710000Y-96480000D02*
X193710000Y-67280000D01*
X193710000Y-96480000D02*
X193710000Y-96480000D01*
X194286000Y-90816000D02*
X204954000Y-90816000D01*
X194286000Y-96150000D02*
X194286000Y-90816000D01*
X194286000Y-96150000D02*
X194286000Y-96150000D01*
X204954000Y-90816000D02*
X204954000Y-96150000D01*
X204954000Y-96150000D02*
X194286000Y-96150000D01*
X204954000Y-96150000D02*
X204954000Y-96150000D01*
X209160000Y-67280000D02*
X209160000Y-96480000D01*
X209160000Y-96480000D02*
X193710000Y-96480000D01*
X196050000Y-97016000D02*
X195570000Y-97016000D01*
X195810000Y-96680000D01*
X196050000Y-97016000D01*
G36*
X196050000Y-97016000D02*
G01*
X195570000Y-97016000D01*
X195810000Y-96680000D01*
X196050000Y-97016000D01*
G37*
D10*
%TO.C,SW1*%
X81964320Y-79455444D02*
X81964320Y-78455444D01*
X81964320Y-92455444D02*
X81964320Y-91455444D01*
X81964320Y-92455444D02*
X82964320Y-92455444D01*
X82964320Y-78455444D02*
X81964320Y-78455444D01*
X94964320Y-92455444D02*
X95964320Y-92455444D01*
X95964320Y-78455444D02*
X94964320Y-78455444D01*
X95964320Y-78455444D02*
X95964320Y-79455444D01*
X95964320Y-91455444D02*
X95964320Y-92455444D01*
D14*
%TO.C,U9*%
X64790000Y-47140002D02*
X66765000Y-47140002D01*
X66015002Y-50240000D02*
X66790004Y-50240000D01*
D12*
%TO.C,C16*%
X203114420Y-82620000D02*
X203395580Y-82620000D01*
X203114420Y-83640000D02*
X203395580Y-83640000D01*
%TO.C,R4*%
X56852500Y-115762742D02*
X56852500Y-116237258D01*
X57897500Y-115762742D02*
X57897500Y-116237258D01*
%TO.C,C7*%
X190925000Y-97428748D02*
X190925000Y-97951252D01*
X192395000Y-97428748D02*
X192395000Y-97951252D01*
%TO.C,C22*%
X192960000Y-113189420D02*
X192960000Y-113470580D01*
X193980000Y-113189420D02*
X193980000Y-113470580D01*
%TO.C,R3*%
X190655000Y-104705436D02*
X190655000Y-105159564D01*
X192125000Y-104705436D02*
X192125000Y-105159564D01*
D10*
%TO.C,SW4*%
X101014320Y-79455444D02*
X101014320Y-78455444D01*
X101014320Y-92455444D02*
X101014320Y-91455444D01*
X101014320Y-92455444D02*
X102014320Y-92455444D01*
X102014320Y-78455444D02*
X101014320Y-78455444D01*
X114014320Y-92455444D02*
X115014320Y-92455444D01*
X115014320Y-78455444D02*
X114014320Y-78455444D01*
X115014320Y-78455444D02*
X115014320Y-79455444D01*
X115014320Y-91455444D02*
X115014320Y-92455444D01*
D12*
%TO.C,C13*%
X195375000Y-82471252D02*
X195375000Y-81948748D01*
X196845000Y-82471252D02*
X196845000Y-81948748D01*
%TO.C,C5*%
X89530580Y-67280000D02*
X89249420Y-67280000D01*
X89530580Y-68300000D02*
X89249420Y-68300000D01*
%TO.C,D1*%
X54445000Y-116075000D02*
X54445000Y-118760000D01*
X56365000Y-116075000D02*
X54445000Y-116075000D01*
X56365000Y-118760000D02*
X56365000Y-116075000D01*
%TO.C,R19*%
X73402936Y-98085000D02*
X73857064Y-98085000D01*
X73402936Y-99555000D02*
X73857064Y-99555000D01*
%TO.C,J1*%
X109690000Y-49300000D02*
X109690000Y-47920000D01*
X111070000Y-49300000D02*
X109690000Y-49300000D01*
X112340000Y-46540000D02*
X120070000Y-46540000D01*
X112340000Y-49300000D02*
X112340000Y-46540000D01*
X112340000Y-49300000D02*
X120070000Y-49300000D01*
X120070000Y-49300000D02*
X120070000Y-46540000D01*
%TO.C,C26*%
X74753748Y-118215000D02*
X75276252Y-118215000D01*
X74753748Y-119685000D02*
X75276252Y-119685000D01*
%TO.C,R22*%
X202952742Y-98587500D02*
X203427258Y-98587500D01*
X202952742Y-99632500D02*
X203427258Y-99632500D01*
%TO.C,C4*%
X90340580Y-56020000D02*
X90059420Y-56020000D01*
X90340580Y-57040000D02*
X90059420Y-57040000D01*
%TO.C,L1*%
X64200000Y-57130000D02*
X67400000Y-57130000D01*
X64200000Y-67730000D02*
X64200000Y-57130000D01*
X67400000Y-67730000D02*
X64200000Y-67730000D01*
X71600000Y-57130000D02*
X74800000Y-57130000D01*
X74800000Y-57130000D02*
X74800000Y-67730000D01*
X74800000Y-67730000D02*
X71600000Y-67730000D01*
%TO.C,C10*%
X206459420Y-96080000D02*
X206740580Y-96080000D01*
X206459420Y-97100000D02*
X206740580Y-97100000D01*
%TO.C,R16*%
X83832742Y-47537500D02*
X84307258Y-47537500D01*
X83832742Y-48582500D02*
X84307258Y-48582500D01*
%TO.C,R13*%
X73482936Y-75685000D02*
X73937064Y-75685000D01*
X73482936Y-77155000D02*
X73937064Y-77155000D01*
%TO.C,C24*%
X56785580Y-122590000D02*
X56504420Y-122590000D01*
X56785580Y-123610000D02*
X56504420Y-123610000D01*
%TO.C,R7*%
X56852500Y-111515242D02*
X56852500Y-111989758D01*
X57897500Y-111515242D02*
X57897500Y-111989758D01*
%TO.C,R10*%
X68222742Y-117437500D02*
X68697258Y-117437500D01*
X68222742Y-118482500D02*
X68697258Y-118482500D01*
D15*
%TO.C,Q2*%
X73435000Y-121930000D02*
X73435000Y-126430000D01*
X76465000Y-121930000D02*
X76465000Y-126430000D01*
D14*
X76425000Y-119740000D02*
G75*
G02*
X76225000Y-119740000I-100000J0D01*
G01*
X76225000Y-119740000D02*
G75*
G02*
X76425000Y-119740000I100000J0D01*
G01*
D12*
%TO.C,J4*%
X60330000Y-129920000D02*
X60330000Y-132680000D01*
X68060000Y-129920000D02*
X60330000Y-129920000D01*
X68060000Y-129920000D02*
X68060000Y-132680000D01*
X68060000Y-132680000D02*
X60330000Y-132680000D01*
X69330000Y-129920000D02*
X70710000Y-129920000D01*
X70710000Y-129920000D02*
X70710000Y-131300000D01*
%TO.C,Y2*%
X204910000Y-97500000D02*
X204910000Y-101620000D01*
X208330000Y-97500000D02*
X204910000Y-97500000D01*
%TO.C,R8*%
X66982500Y-109717258D02*
X66982500Y-109242742D01*
X68027500Y-109717258D02*
X68027500Y-109242742D01*
%TO.C,C1*%
X88631252Y-58445000D02*
X88108748Y-58445000D01*
X88631252Y-59915000D02*
X88108748Y-59915000D01*
%TO.C,U2*%
X93010000Y-57625000D02*
X93460000Y-57625000D01*
X93010000Y-58075000D02*
X93010000Y-57625000D01*
X93010000Y-64845000D02*
X93010000Y-64395000D01*
X93460000Y-64845000D02*
X93010000Y-64845000D01*
X99780000Y-57625000D02*
X100230000Y-57625000D01*
X100230000Y-57625000D02*
X100230000Y-58075000D01*
X100230000Y-64395000D02*
X100230000Y-64845000D01*
X100230000Y-64845000D02*
X99780000Y-64845000D01*
X93460000Y-65485000D02*
X92990000Y-65825000D01*
X92990000Y-65145000D01*
X93460000Y-65485000D01*
G36*
X93460000Y-65485000D02*
G01*
X92990000Y-65825000D01*
X92990000Y-65145000D01*
X93460000Y-65485000D01*
G37*
%TO.C,R15*%
X87182742Y-48247500D02*
X87657258Y-48247500D01*
X87182742Y-49292500D02*
X87657258Y-49292500D01*
%TO.C,U7*%
X66725000Y-122187500D02*
X66775000Y-122187500D01*
X66725000Y-124007500D02*
X66725000Y-122187500D01*
X66775000Y-124007500D02*
X66725000Y-124007500D01*
X69795000Y-122187500D02*
X69845000Y-122187500D01*
X69845000Y-122187500D02*
X69845000Y-124007500D01*
X69845000Y-124007500D02*
X69795000Y-124007500D01*
X66775000Y-124547500D02*
X66445000Y-124787500D01*
X66445000Y-124307500D01*
X66775000Y-124547500D01*
G36*
X66775000Y-124547500D02*
G01*
X66445000Y-124787500D01*
X66445000Y-124307500D01*
X66775000Y-124547500D01*
G37*
%TO.C,R21*%
X95857742Y-70062500D02*
X96332258Y-70062500D01*
X95857742Y-71107500D02*
X96332258Y-71107500D01*
%TO.C,J5*%
X181550000Y-78830000D02*
X187550000Y-78830000D01*
X181550000Y-79690000D02*
X181550000Y-78830000D01*
X181550000Y-81370000D02*
X187550000Y-81370000D01*
X181550000Y-82230000D02*
X181550000Y-81370000D01*
X181550000Y-83910000D02*
X187550000Y-83910000D01*
X181550000Y-84770000D02*
X181550000Y-83910000D01*
X187550000Y-79690000D02*
X181550000Y-79690000D01*
X187550000Y-82230000D02*
X181550000Y-82230000D01*
X187550000Y-84770000D02*
X181550000Y-84770000D01*
X190310000Y-80530000D02*
X187550000Y-80530000D01*
X190310000Y-83070000D02*
X187550000Y-83070000D01*
X190310000Y-85610000D02*
X187550000Y-85610000D01*
X190540000Y-86450000D02*
X190310000Y-86450000D01*
X190540000Y-87310000D02*
X190310000Y-87310000D01*
X190622642Y-78830000D02*
X190310000Y-78830000D01*
X190622642Y-79690000D02*
X190310000Y-79690000D01*
X190622642Y-81370000D02*
X190310000Y-81370000D01*
X190622642Y-82230000D02*
X190310000Y-82230000D01*
X190622642Y-83910000D02*
X190310000Y-83910000D01*
X190622642Y-84770000D02*
X190310000Y-84770000D01*
X192970000Y-86880000D02*
X192970000Y-88150000D01*
X192970000Y-88150000D02*
X191700000Y-88150000D01*
X187550000Y-87310000D02*
X181550000Y-87310000D01*
X181550000Y-86450000D01*
X187550000Y-86450000D01*
X187550000Y-87310000D01*
G36*
X187550000Y-87310000D02*
G01*
X181550000Y-87310000D01*
X181550000Y-86450000D01*
X187550000Y-86450000D01*
X187550000Y-87310000D01*
G37*
X190310000Y-88260000D02*
X187550000Y-88260000D01*
X187550000Y-77880000D01*
X190310000Y-77880000D01*
X190310000Y-88260000D01*
%TO.C,R5*%
X203495000Y-106722936D02*
X203495000Y-107177064D01*
X204965000Y-106722936D02*
X204965000Y-107177064D01*
%TO.C,C6*%
X101084420Y-69110000D02*
X101365580Y-69110000D01*
X101084420Y-70130000D02*
X101365580Y-70130000D01*
%TO.C,C11*%
X202044420Y-96840000D02*
X202325580Y-96840000D01*
X202044420Y-97860000D02*
X202325580Y-97860000D01*
%TO.C,R6*%
X198262742Y-110007500D02*
X198737258Y-110007500D01*
X198262742Y-111052500D02*
X198737258Y-111052500D01*
D10*
%TO.C,SW8*%
X120064320Y-98505444D02*
X120064320Y-97505444D01*
X120064320Y-111505444D02*
X120064320Y-110505444D01*
X120064320Y-111505444D02*
X121064320Y-111505444D01*
X121064320Y-97505444D02*
X120064320Y-97505444D01*
X133064320Y-111505444D02*
X134064320Y-111505444D01*
X134064320Y-97505444D02*
X133064320Y-97505444D01*
X134064320Y-97505444D02*
X134064320Y-98505444D01*
X134064320Y-110505444D02*
X134064320Y-111505444D01*
D12*
%TO.C,C3*%
X115825000Y-54588748D02*
X115825000Y-55111252D01*
X117295000Y-54588748D02*
X117295000Y-55111252D01*
%TD*%
M02*
