%TF.GenerationSoftware,KiCad,Pcbnew,9.0.8-1.fc43*%
%TF.CreationDate,2026-04-08T18:07:31+05:30*%
%TF.ProjectId,macropad,6d616372-6f70-4616-942e-6b696361645f,rev?*%
%TF.SameCoordinates,Original*%
%TF.FileFunction,Soldermask,Top*%
%TF.FilePolarity,Negative*%
%FSLAX46Y46*%
G04 Gerber Fmt 4.6, Leading zero omitted, Abs format (unit mm)*
G04 Created by KiCad (PCBNEW 9.0.8-1.fc43) date 2026-04-08 18:07:31*
%MOMM*%
%LPD*%
G01*
G04 APERTURE LIST*
G04 Aperture macros list*
%AMRoundRect*
0 Rectangle with rounded corners*
0 $1 Rounding radius*
0 $2 $3 $4 $5 $6 $7 $8 $9 X,Y pos of 4 corners*
0 Add a 4 corners polygon primitive as box body*
4,1,4,$2,$3,$4,$5,$6,$7,$8,$9,$2,$3,0*
0 Add four circle primitives for the rounded corners*
1,1,$1+$1,$2,$3*
1,1,$1+$1,$4,$5*
1,1,$1+$1,$6,$7*
1,1,$1+$1,$8,$9*
0 Add four rect primitives between the rounded corners*
20,1,$1+$1,$2,$3,$4,$5,0*
20,1,$1+$1,$4,$5,$6,$7,0*
20,1,$1+$1,$6,$7,$8,$9,0*
20,1,$1+$1,$8,$9,$2,$3,0*%
G04 Aperture macros list end*
%ADD10RoundRect,0.250000X-0.262500X-0.450000X0.262500X-0.450000X0.262500X0.450000X-0.262500X0.450000X0*%
%ADD11RoundRect,0.200000X0.275000X-0.200000X0.275000X0.200000X-0.275000X0.200000X-0.275000X-0.200000X0*%
%ADD12RoundRect,0.225000X0.225000X0.475000X-0.225000X0.475000X-0.225000X-0.475000X0.225000X-0.475000X0*%
%ADD13O,0.900000X1.400000*%
%ADD14RoundRect,0.225000X0.250000X-0.225000X0.250000X0.225000X-0.250000X0.225000X-0.250000X-0.225000X0*%
%ADD15RoundRect,0.250000X0.262500X0.450000X-0.262500X0.450000X-0.262500X-0.450000X0.262500X-0.450000X0*%
%ADD16RoundRect,0.250000X0.250000X0.475000X-0.250000X0.475000X-0.250000X-0.475000X0.250000X-0.475000X0*%
%ADD17R,1.700000X1.700000*%
%ADD18C,1.700000*%
%ADD19C,1.701800*%
%ADD20C,3.000000*%
%ADD21C,3.987800*%
%ADD22RoundRect,0.250000X-0.450000X0.262500X-0.450000X-0.262500X0.450000X-0.262500X0.450000X0.262500X0*%
%ADD23C,0.100000*%
%ADD24R,0.250000X1.150000*%
%ADD25R,0.300000X1.150000*%
%ADD26O,1.200000X2.000000*%
%ADD27O,1.200000X1.800000*%
%ADD28RoundRect,0.272222X-1.422778X0.707778X-1.422778X-0.707778X1.422778X-0.707778X1.422778X0.707778X0*%
%ADD29RoundRect,0.250000X-0.350000X0.450000X-0.350000X-0.450000X0.350000X-0.450000X0.350000X0.450000X0*%
%ADD30RoundRect,0.200000X-0.275000X0.200000X-0.275000X-0.200000X0.275000X-0.200000X0.275000X0.200000X0*%
%ADD31RoundRect,0.225000X-0.225000X-0.250000X0.225000X-0.250000X0.225000X0.250000X-0.225000X0.250000X0*%
%ADD32RoundRect,0.250000X0.450000X-0.262500X0.450000X0.262500X-0.450000X0.262500X-0.450000X-0.262500X0*%
%ADD33RoundRect,0.052500X-0.347500X-0.122500X0.347500X-0.122500X0.347500X0.122500X-0.347500X0.122500X0*%
%ADD34RoundRect,0.120000X-0.280000X-0.580000X0.280000X-0.580000X0.280000X0.580000X-0.280000X0.580000X0*%
%ADD35C,1.000000*%
%ADD36RoundRect,0.225000X0.525000X1.125000X-0.525000X1.125000X-0.525000X-1.125000X0.525000X-1.125000X0*%
%ADD37RoundRect,0.200000X-0.200000X-0.275000X0.200000X-0.275000X0.200000X0.275000X-0.200000X0.275000X0*%
%ADD38R,2.000000X2.000000*%
%ADD39C,2.000000*%
%ADD40R,3.000000X2.500000*%
%ADD41RoundRect,0.225000X-0.250000X0.225000X-0.250000X-0.225000X0.250000X-0.225000X0.250000X0.225000X0*%
%ADD42RoundRect,0.225000X0.225000X0.250000X-0.225000X0.250000X-0.225000X-0.250000X0.225000X-0.250000X0*%
%ADD43RoundRect,0.243750X-0.456250X0.243750X-0.456250X-0.243750X0.456250X-0.243750X0.456250X0.243750X0*%
%ADD44RoundRect,0.250000X-0.475000X0.250000X-0.475000X-0.250000X0.475000X-0.250000X0.475000X0.250000X0*%
%ADD45RoundRect,0.150000X-0.512500X-0.150000X0.512500X-0.150000X0.512500X0.150000X-0.512500X0.150000X0*%
%ADD46RoundRect,0.250000X0.825000X0.825000X-0.825000X0.825000X-0.825000X-0.825000X0.825000X-0.825000X0*%
%ADD47C,2.150000*%
%ADD48RoundRect,0.225000X-0.475000X0.225000X-0.475000X-0.225000X0.475000X-0.225000X0.475000X0.225000X0*%
%ADD49O,1.400000X0.900000*%
%ADD50RoundRect,0.075000X0.075000X-0.662500X0.075000X0.662500X-0.075000X0.662500X-0.075000X-0.662500X0*%
%ADD51RoundRect,0.075000X0.662500X-0.075000X0.662500X0.075000X-0.662500X0.075000X-0.662500X-0.075000X0*%
%ADD52RoundRect,0.150000X0.825000X0.150000X-0.825000X0.150000X-0.825000X-0.150000X0.825000X-0.150000X0*%
%ADD53R,2.410000X3.300000*%
%ADD54C,0.500000*%
%ADD55R,1.000000X0.599999*%
%ADD56RoundRect,0.250000X0.475000X-0.250000X0.475000X0.250000X-0.475000X0.250000X-0.475000X-0.250000X0*%
%ADD57RoundRect,0.250000X-0.250000X-0.475000X0.250000X-0.475000X0.250000X0.475000X-0.250000X0.475000X0*%
%ADD58RoundRect,0.200000X0.200000X0.275000X-0.200000X0.275000X-0.200000X-0.275000X0.200000X-0.275000X0*%
%ADD59R,3.600000X2.700000*%
%ADD60RoundRect,0.075500X-0.226500X0.806500X-0.226500X-0.806500X0.226500X-0.806500X0.226500X0.806500X0*%
%ADD61RoundRect,0.250000X0.350000X-0.450000X0.350000X0.450000X-0.350000X0.450000X-0.350000X-0.450000X0*%
%ADD62RoundRect,0.150000X0.150000X-0.512500X0.150000X0.512500X-0.150000X0.512500X-0.150000X-0.512500X0*%
G04 APERTURE END LIST*
D10*
%TO.C,R14*%
X72847500Y-78770000D03*
X74672500Y-78770000D03*
%TD*%
D11*
%TO.C,R24*%
X88960000Y-52915000D03*
X88960000Y-51265000D03*
%TD*%
D12*
%TO.C,J6*%
X70175001Y-53700001D03*
D13*
X68925001Y-53700001D03*
X67675001Y-53700001D03*
%TD*%
D14*
%TO.C,C9*%
X103710000Y-72935000D03*
X103710000Y-71385000D03*
%TD*%
%TO.C,C20*%
X150112976Y-110645000D03*
X150112976Y-109095000D03*
%TD*%
D15*
%TO.C,R1*%
X56762500Y-121150000D03*
X54937500Y-121150000D03*
%TD*%
D16*
%TO.C,C23*%
X159375476Y-123844500D03*
X157475476Y-123844500D03*
%TD*%
D17*
%TO.C,U3*%
X110170000Y-53910000D03*
D18*
X112710000Y-53910000D03*
X110170000Y-56450000D03*
X112710000Y-56450000D03*
X110170000Y-58990000D03*
X112710000Y-58990000D03*
X110170000Y-61530000D03*
X112710000Y-61530000D03*
%TD*%
D14*
%TO.C,C12*%
X160662976Y-116270000D03*
X160662976Y-114720000D03*
%TD*%
D19*
%TO.C,SW2*%
X83884320Y-104505444D03*
D20*
X85154320Y-101965444D03*
D21*
X88964320Y-104505444D03*
D20*
X91504320Y-99425444D03*
D19*
X94044320Y-104505444D03*
%TD*%
D22*
%TO.C,R12*%
X88450000Y-61967500D03*
X88450000Y-63792500D03*
%TD*%
D23*
%TO.C,J2*%
X98930000Y-47970000D03*
X93150000Y-47970000D03*
D24*
X99365000Y-49037500D03*
X98565000Y-49037500D03*
D25*
X97290000Y-49037500D03*
X96290000Y-49037500D03*
X95790000Y-49037500D03*
X94790000Y-49037500D03*
D24*
X93515000Y-49037500D03*
X92714500Y-49037500D03*
X92964500Y-49037500D03*
X93765000Y-49037500D03*
D25*
X94290000Y-49037500D03*
X95290000Y-49037500D03*
X96790000Y-49037500D03*
X97790000Y-49037500D03*
D24*
X98315000Y-49037500D03*
X99115000Y-49037500D03*
D26*
X100360000Y-48462500D03*
D27*
X100360000Y-44282500D03*
D26*
X91720000Y-48462500D03*
D27*
X91720000Y-44282500D03*
%TD*%
D28*
%TO.C,D2*%
X61125000Y-118095000D03*
X61125000Y-124905000D03*
%TD*%
D29*
%TO.C,Y1*%
X95520000Y-72660000D03*
X95520000Y-74860000D03*
X97220000Y-74860000D03*
X97220000Y-72660000D03*
%TD*%
D30*
%TO.C,R9*%
X68285000Y-125960000D03*
X68285000Y-127610000D03*
%TD*%
D19*
%TO.C,SW7*%
X121984320Y-85455444D03*
D20*
X123254320Y-82915444D03*
D21*
X127064320Y-85455444D03*
D20*
X129604320Y-80375444D03*
D19*
X132144320Y-85455444D03*
%TD*%
D31*
%TO.C,C30*%
X69540000Y-47740000D03*
X71090000Y-47740000D03*
%TD*%
D10*
%TO.C,R20*%
X72727500Y-96630000D03*
X74552500Y-96630000D03*
%TD*%
D19*
%TO.C,SW6*%
X102934320Y-123555444D03*
D20*
X104204320Y-121015444D03*
D21*
X108014320Y-123555444D03*
D20*
X110554320Y-118475444D03*
D19*
X113094320Y-123555444D03*
%TD*%
%TO.C,SW3*%
X83884320Y-123555444D03*
D20*
X85154320Y-121015444D03*
D21*
X88964320Y-123555444D03*
D20*
X91504320Y-118475444D03*
D19*
X94044320Y-123555444D03*
%TD*%
D32*
%TO.C,R23*%
X86520000Y-53002500D03*
X86520000Y-51177500D03*
%TD*%
D33*
%TO.C,U10*%
X61361181Y-62025000D03*
X61361181Y-62675000D03*
X61361181Y-63325000D03*
X63361181Y-62025000D03*
X63361181Y-62675000D03*
X63361181Y-63325000D03*
D34*
X62361181Y-62675000D03*
%TD*%
D35*
%TO.C,J9*%
X157252976Y-96815000D03*
X152752976Y-96815000D03*
D18*
X158502976Y-98965000D03*
X156002976Y-98965000D03*
X154002976Y-98965000D03*
X151502976Y-98965000D03*
D36*
X160802976Y-96815000D03*
X149202976Y-96815000D03*
%TD*%
D37*
%TO.C,R2*%
X93505000Y-54700000D03*
X95155000Y-54700000D03*
%TD*%
D31*
%TO.C,C15*%
X146857976Y-110705000D03*
X148407976Y-110705000D03*
%TD*%
D32*
%TO.C,R11*%
X104770000Y-59642500D03*
X104770000Y-57817500D03*
%TD*%
D38*
%TO.C,SW13*%
X55320000Y-94450000D03*
D39*
X55320000Y-99450000D03*
X55320000Y-96950000D03*
D40*
X62820000Y-91350000D03*
X62820000Y-102550000D03*
D39*
X69820000Y-94450000D03*
X69820000Y-99450000D03*
%TD*%
D16*
%TO.C,C31*%
X63200000Y-64880000D03*
X61300000Y-64880000D03*
%TD*%
D31*
%TO.C,C2*%
X101805000Y-55000000D03*
X103355000Y-55000000D03*
%TD*%
%TO.C,C29*%
X69540000Y-49740000D03*
X71090000Y-49740000D03*
%TD*%
D14*
%TO.C,C14*%
X160982976Y-106050000D03*
X160982976Y-104500000D03*
%TD*%
D41*
%TO.C,C17*%
X93520000Y-71575000D03*
X93520000Y-73125000D03*
%TD*%
D19*
%TO.C,SW9*%
X121984320Y-123555444D03*
D20*
X123254320Y-121015444D03*
D21*
X127064320Y-123555444D03*
D20*
X129604320Y-118475444D03*
D19*
X132144320Y-123555444D03*
%TD*%
D42*
%TO.C,C21*%
X151782976Y-131955000D03*
X150232976Y-131955000D03*
%TD*%
D43*
%TO.C,D3*%
X55375000Y-112592500D03*
X55375000Y-114467500D03*
%TD*%
D39*
%TO.C,SW10*%
X57320000Y-66980000D03*
X57320000Y-54480000D03*
X57020000Y-63730000D03*
X57020000Y-60730000D03*
X57020000Y-57730000D03*
%TD*%
D44*
%TO.C,C28*%
X63040000Y-47740000D03*
X63040000Y-49640000D03*
%TD*%
D45*
%TO.C,Q1*%
X59870000Y-113650000D03*
X59870000Y-115550000D03*
X62145000Y-114600000D03*
%TD*%
D46*
%TO.C,J8*%
X75090000Y-114810000D03*
D47*
X70490000Y-114810000D03*
%TD*%
D48*
%TO.C,J3*%
X101860000Y-71705000D03*
D49*
X101860000Y-72955000D03*
%TD*%
D42*
%TO.C,C19*%
X153027976Y-102615000D03*
X151477976Y-102615000D03*
%TD*%
%TO.C,C8*%
X93275000Y-69590000D03*
X91725000Y-69590000D03*
%TD*%
D14*
%TO.C,C18*%
X99270000Y-73900000D03*
X99270000Y-72350000D03*
%TD*%
D50*
%TO.C,U4*%
X153672976Y-114167500D03*
X154172976Y-114167500D03*
X154672976Y-114167500D03*
X155172976Y-114167500D03*
X155672976Y-114167500D03*
X156172976Y-114167500D03*
X156672976Y-114167500D03*
X157172976Y-114167500D03*
X157672976Y-114167500D03*
X158172976Y-114167500D03*
X158672976Y-114167500D03*
X159172976Y-114167500D03*
D51*
X160585476Y-112755000D03*
X160585476Y-112255000D03*
X160585476Y-111755000D03*
X160585476Y-111255000D03*
X160585476Y-110755000D03*
X160585476Y-110255000D03*
X160585476Y-109755000D03*
X160585476Y-109255000D03*
X160585476Y-108755000D03*
X160585476Y-108255000D03*
X160585476Y-107755000D03*
X160585476Y-107255000D03*
D50*
X159172976Y-105842500D03*
X158672976Y-105842500D03*
X158172976Y-105842500D03*
X157672976Y-105842500D03*
X157172976Y-105842500D03*
X156672976Y-105842500D03*
X156172976Y-105842500D03*
X155672976Y-105842500D03*
X155172976Y-105842500D03*
X154672976Y-105842500D03*
X154172976Y-105842500D03*
X153672976Y-105842500D03*
D51*
X152260476Y-107255000D03*
X152260476Y-107755000D03*
X152260476Y-108255000D03*
X152260476Y-108755000D03*
X152260476Y-109255000D03*
X152260476Y-109755000D03*
X152260476Y-110255000D03*
X152260476Y-110755000D03*
X152260476Y-111255000D03*
X152260476Y-111755000D03*
X152260476Y-112255000D03*
X152260476Y-112755000D03*
%TD*%
D52*
%TO.C,U6*%
X65025000Y-111365000D03*
X65025000Y-110095000D03*
X65025000Y-108825000D03*
X65025000Y-107555000D03*
X60075000Y-107555000D03*
X60075000Y-108825000D03*
X60075000Y-110095000D03*
X60075000Y-111365000D03*
D53*
X62550000Y-109460000D03*
%TD*%
D38*
%TO.C,SW12*%
X55270000Y-77350000D03*
D39*
X55270000Y-82350000D03*
X55270000Y-79850000D03*
D40*
X62770000Y-74250000D03*
X62770000Y-85450000D03*
D39*
X69770000Y-77350000D03*
X69770000Y-82350000D03*
%TD*%
D19*
%TO.C,SW5*%
X102934320Y-104505444D03*
D20*
X104204320Y-101965444D03*
D21*
X108014320Y-104505444D03*
D20*
X110554320Y-99425444D03*
D19*
X113094320Y-104505444D03*
%TD*%
D54*
%TO.C,REF\u002A\u002A*%
X142840000Y-133770000D03*
X140340000Y-133770000D03*
X142840000Y-134620000D03*
X140340000Y-134620000D03*
X142840000Y-135470000D03*
X140340000Y-135470000D03*
X142840000Y-136320000D03*
X140340000Y-136320000D03*
X142840000Y-137170000D03*
X140340000Y-137170000D03*
%TD*%
D42*
%TO.C,C25*%
X68835000Y-119960000D03*
X67285000Y-119960000D03*
%TD*%
D54*
%TO.C,REF\u002A\u002A*%
X140330000Y-97450000D03*
X142830000Y-97450000D03*
X140330000Y-96600000D03*
X142830000Y-96600000D03*
X140330000Y-95750000D03*
X142830000Y-95750000D03*
X140330000Y-94900000D03*
X142830000Y-94900000D03*
X140330000Y-94050000D03*
X142830000Y-94050000D03*
%TD*%
D10*
%TO.C,R17*%
X72867500Y-81300000D03*
X74692500Y-81300000D03*
%TD*%
D55*
%TO.C,U1*%
X156162976Y-132035001D03*
X156162976Y-131085000D03*
X156162976Y-130135002D03*
X153412976Y-130135002D03*
X153412976Y-132035001D03*
%TD*%
D42*
%TO.C,C27*%
X63315000Y-60770000D03*
X61765000Y-60770000D03*
%TD*%
D10*
%TO.C,R18*%
X72697500Y-94450000D03*
X74522500Y-94450000D03*
%TD*%
D17*
%TO.C,U5*%
X158402976Y-118395000D03*
D18*
X158402976Y-120935000D03*
X155862976Y-118395000D03*
X155862976Y-120935000D03*
X153322976Y-118395000D03*
X153322976Y-120935000D03*
X150782976Y-118395000D03*
X150782976Y-120935000D03*
%TD*%
D19*
%TO.C,SW1*%
X83884320Y-85455444D03*
D20*
X85154320Y-82915444D03*
D21*
X88964320Y-85455444D03*
D20*
X91504320Y-80375444D03*
D19*
X94044320Y-85455444D03*
%TD*%
D55*
%TO.C,U9*%
X65040000Y-47740000D03*
X65040000Y-48690001D03*
X65040000Y-49639999D03*
X67790000Y-49639999D03*
X67790000Y-47740000D03*
%TD*%
D42*
%TO.C,C16*%
X151732976Y-130145000D03*
X150182976Y-130145000D03*
%TD*%
D30*
%TO.C,R4*%
X57375000Y-115175000D03*
X57375000Y-116825000D03*
%TD*%
D54*
%TO.C,REF\u002A\u002A*%
X140330000Y-129450000D03*
X142830000Y-129450000D03*
X140330000Y-128600000D03*
X142830000Y-128600000D03*
X140330000Y-127750000D03*
X142830000Y-127750000D03*
X140330000Y-126900000D03*
X142830000Y-126900000D03*
X140330000Y-126050000D03*
X142830000Y-126050000D03*
%TD*%
D56*
%TO.C,C7*%
X162552976Y-116535000D03*
X162552976Y-114635000D03*
%TD*%
D14*
%TO.C,C22*%
X160742976Y-100720000D03*
X160742976Y-99170000D03*
%TD*%
D32*
%TO.C,R3*%
X162822976Y-109255000D03*
X162822976Y-107430000D03*
%TD*%
D54*
%TO.C,REF\u002A\u002A*%
X140330000Y-113450000D03*
X142830000Y-113450000D03*
X140330000Y-112600000D03*
X142830000Y-112600000D03*
X140330000Y-111750000D03*
X142830000Y-111750000D03*
X140330000Y-110900000D03*
X142830000Y-110900000D03*
X140330000Y-110050000D03*
X142830000Y-110050000D03*
%TD*%
D19*
%TO.C,SW4*%
X102934320Y-85455444D03*
D20*
X104204320Y-82915444D03*
D21*
X108014320Y-85455444D03*
D20*
X110554320Y-80375444D03*
D19*
X113094320Y-85455444D03*
%TD*%
D54*
%TO.C,REF\u002A\u002A*%
X140330000Y-105450000D03*
X142830000Y-105450000D03*
X140330000Y-104600000D03*
X142830000Y-104600000D03*
X140330000Y-103750000D03*
X142830000Y-103750000D03*
X140330000Y-102900000D03*
X142830000Y-102900000D03*
X140330000Y-102050000D03*
X142830000Y-102050000D03*
%TD*%
D44*
%TO.C,C13*%
X158102976Y-130115000D03*
X158102976Y-132015000D03*
%TD*%
D42*
%TO.C,C5*%
X90165000Y-67790000D03*
X88615000Y-67790000D03*
%TD*%
D43*
%TO.C,D1*%
X55405000Y-116822500D03*
X55405000Y-118697500D03*
%TD*%
D10*
%TO.C,R19*%
X72717500Y-98820000D03*
X74542500Y-98820000D03*
%TD*%
D17*
%TO.C,J1*%
X111070000Y-47920000D03*
D18*
X113610000Y-47920000D03*
X116150000Y-47920000D03*
X118690000Y-47920000D03*
%TD*%
D57*
%TO.C,C26*%
X74065000Y-118950000D03*
X75965000Y-118950000D03*
%TD*%
D58*
%TO.C,R22*%
X151847976Y-114165000D03*
X150197976Y-114165000D03*
%TD*%
D42*
%TO.C,C4*%
X90975000Y-56530000D03*
X89425000Y-56530000D03*
%TD*%
D59*
%TO.C,L1*%
X69500000Y-58280000D03*
X69500000Y-66580000D03*
%TD*%
D42*
%TO.C,C10*%
X148387976Y-116685000D03*
X146837976Y-116685000D03*
%TD*%
D11*
%TO.C,R16*%
X84980000Y-48705000D03*
X84980000Y-47055000D03*
%TD*%
D10*
%TO.C,R13*%
X72797500Y-76420000D03*
X74622500Y-76420000D03*
%TD*%
D42*
%TO.C,C24*%
X56625000Y-123150000D03*
X55075000Y-123150000D03*
%TD*%
D30*
%TO.C,R7*%
X57375000Y-110927500D03*
X57375000Y-112577500D03*
%TD*%
D37*
%TO.C,R10*%
X67635000Y-117960000D03*
X69285000Y-117960000D03*
%TD*%
D60*
%TO.C,Q2*%
X75925000Y-121300000D03*
X75275000Y-121300000D03*
X74625000Y-121300000D03*
X73975000Y-121300000D03*
X73975000Y-127060000D03*
X74625000Y-127060000D03*
X75275000Y-127060000D03*
X75925000Y-127060000D03*
%TD*%
D54*
%TO.C,REF\u002A\u002A*%
X140330000Y-121450000D03*
X142830000Y-121450000D03*
X140330000Y-120600000D03*
X142830000Y-120600000D03*
X140330000Y-119750000D03*
X142830000Y-119750000D03*
X140330000Y-118900000D03*
X142830000Y-118900000D03*
X140330000Y-118050000D03*
X142830000Y-118050000D03*
%TD*%
D17*
%TO.C,J4*%
X69330000Y-131300000D03*
D18*
X66790000Y-131300000D03*
X64250000Y-131300000D03*
X61710000Y-131300000D03*
%TD*%
D61*
%TO.C,Y2*%
X148442976Y-114815000D03*
X148442976Y-112615000D03*
X146742976Y-112615000D03*
X146742976Y-114815000D03*
%TD*%
D11*
%TO.C,R8*%
X67505000Y-110305000D03*
X67505000Y-108655000D03*
%TD*%
D16*
%TO.C,C1*%
X89320000Y-59180000D03*
X87420000Y-59180000D03*
%TD*%
D50*
%TO.C,U2*%
X93870000Y-65397500D03*
X94370000Y-65397500D03*
X94870000Y-65397500D03*
X95370000Y-65397500D03*
X95870000Y-65397500D03*
X96370000Y-65397500D03*
X96870000Y-65397500D03*
X97370000Y-65397500D03*
X97870000Y-65397500D03*
X98370000Y-65397500D03*
X98870000Y-65397500D03*
X99370000Y-65397500D03*
D51*
X100782500Y-63985000D03*
X100782500Y-63485000D03*
X100782500Y-62985000D03*
X100782500Y-62485000D03*
X100782500Y-61985000D03*
X100782500Y-61485000D03*
X100782500Y-60985000D03*
X100782500Y-60485000D03*
X100782500Y-59985000D03*
X100782500Y-59485000D03*
X100782500Y-58985000D03*
X100782500Y-58485000D03*
D50*
X99370000Y-57072500D03*
X98870000Y-57072500D03*
X98370000Y-57072500D03*
X97870000Y-57072500D03*
X97370000Y-57072500D03*
X96870000Y-57072500D03*
X96370000Y-57072500D03*
X95870000Y-57072500D03*
X95370000Y-57072500D03*
X94870000Y-57072500D03*
X94370000Y-57072500D03*
X93870000Y-57072500D03*
D51*
X92457500Y-58485000D03*
X92457500Y-58985000D03*
X92457500Y-59485000D03*
X92457500Y-59985000D03*
X92457500Y-60485000D03*
X92457500Y-60985000D03*
X92457500Y-61485000D03*
X92457500Y-61985000D03*
X92457500Y-62485000D03*
X92457500Y-62985000D03*
X92457500Y-63485000D03*
X92457500Y-63985000D03*
%TD*%
D37*
%TO.C,R15*%
X86645000Y-48440000D03*
X88295000Y-48440000D03*
%TD*%
D62*
%TO.C,U7*%
X67335000Y-124235000D03*
X68285000Y-124235000D03*
X69235000Y-124235000D03*
X69235000Y-121960000D03*
X68285000Y-121960000D03*
X67335000Y-121960000D03*
%TD*%
D37*
%TO.C,R21*%
X95270000Y-70585000D03*
X96920000Y-70585000D03*
%TD*%
D17*
%TO.C,J5*%
X162512976Y-126395000D03*
D18*
X162512976Y-128935000D03*
X162512976Y-131475000D03*
X162512976Y-134015000D03*
%TD*%
D32*
%TO.C,R5*%
X149982976Y-107237500D03*
X149982976Y-105412500D03*
%TD*%
D31*
%TO.C,C6*%
X100450000Y-69620000D03*
X102000000Y-69620000D03*
%TD*%
D42*
%TO.C,C11*%
X152802976Y-115925000D03*
X151252976Y-115925000D03*
%TD*%
D58*
%TO.C,R6*%
X156537976Y-102745000D03*
X154887976Y-102745000D03*
%TD*%
D19*
%TO.C,SW8*%
X121984320Y-104505444D03*
D20*
X123254320Y-101965444D03*
D21*
X127064320Y-104505444D03*
D20*
X129604320Y-99425444D03*
D19*
X132144320Y-104505444D03*
%TD*%
D44*
%TO.C,C3*%
X116560000Y-53900000D03*
X116560000Y-55800000D03*
%TD*%
D48*
%TO.C,J10*%
X162557976Y-99415000D03*
D49*
X162557976Y-100665000D03*
%TD*%
M02*
