%TF.GenerationSoftware,KiCad,Pcbnew,9.0.8-1.fc43*%
%TF.CreationDate,2026-04-08T23:30:45+05:30*%
%TF.ProjectId,macropad,6d616372-6f70-4616-942e-6b696361645f,rev?*%
%TF.SameCoordinates,Original*%
%TF.FileFunction,Profile,NP*%
%FSLAX46Y46*%
G04 Gerber Fmt 4.6, Leading zero omitted, Abs format (unit mm)*
G04 Created by KiCad (PCBNEW 9.0.8-1.fc43) date 2026-04-08 23:30:45*
%MOMM*%
%LPD*%
G01*
G04 APERTURE LIST*
%TA.AperFunction,Profile*%
%ADD10C,0.050000*%
%TD*%
%TA.AperFunction,Profile*%
%ADD11C,0.100000*%
%TD*%
G04 APERTURE END LIST*
D10*
X50380000Y-42060000D02*
X140570000Y-42060000D01*
X50380000Y-137470000D02*
X50380000Y-42060000D01*
X50380000Y-137470000D02*
X140590000Y-137470000D01*
X56622641Y-46302641D02*
G75*
G02*
X52622641Y-46302641I-2000000J0D01*
G01*
X52622641Y-46302641D02*
G75*
G02*
X56622641Y-46302641I2000000J0D01*
G01*
X56622641Y-133237359D02*
G75*
G02*
X52622641Y-133237359I-2000000J0D01*
G01*
X52622641Y-133237359D02*
G75*
G02*
X56622641Y-133237359I2000000J0D01*
G01*
X138337359Y-46302641D02*
G75*
G02*
X134337359Y-46302641I-2000000J0D01*
G01*
X134337359Y-46302641D02*
G75*
G02*
X138337359Y-46302641I2000000J0D01*
G01*
X138337359Y-133237359D02*
G75*
G02*
X134337359Y-133237359I-2000000J0D01*
G01*
X134337359Y-133237359D02*
G75*
G02*
X138337359Y-133237359I2000000J0D01*
G01*
X140570000Y-42060000D02*
X140580000Y-93750000D01*
X140580000Y-97750000D02*
X140580000Y-101750000D01*
X140580000Y-105750000D02*
X140580000Y-109750000D01*
X140580000Y-113750000D02*
X140580000Y-117750000D01*
X140580000Y-121750000D02*
X140580000Y-125750000D01*
X140580000Y-129750000D02*
X140590000Y-133470000D01*
X142580000Y-93750000D02*
X166540000Y-93750000D01*
X142580000Y-97750000D02*
X142580000Y-101750000D01*
X142580000Y-105750000D02*
X142580000Y-109750000D01*
X142580000Y-113750000D02*
X142580000Y-117750000D01*
X142580000Y-121750000D02*
X142580000Y-125750000D01*
X142580000Y-129750000D02*
X142590000Y-133470000D01*
X142590000Y-137470000D02*
X166550000Y-137490000D01*
X148965617Y-133247359D02*
G75*
G02*
X144965617Y-133247359I-2000000J0D01*
G01*
X144965617Y-133247359D02*
G75*
G02*
X148965617Y-133247359I2000000J0D01*
G01*
X166540000Y-93750000D02*
X166550000Y-137490000D01*
D11*
%TO.C,REF\u002A\u002A*%
X140590000Y-137470000D02*
G75*
G02*
X142590000Y-137470000I1000000J0D01*
G01*
X142590000Y-133470000D02*
G75*
G02*
X140590000Y-133470000I-1000000J0D01*
G01*
X140580000Y-97750000D02*
G75*
G02*
X142580000Y-97750000I1000000J0D01*
G01*
X142580000Y-93750000D02*
G75*
G02*
X140580000Y-93750000I-1000000J0D01*
G01*
X140580000Y-129750000D02*
G75*
G02*
X142580000Y-129750000I1000000J0D01*
G01*
X142580000Y-125750000D02*
G75*
G02*
X140580000Y-125750000I-1000000J0D01*
G01*
X140580000Y-113750000D02*
G75*
G02*
X142580000Y-113750000I1000000J0D01*
G01*
X142580000Y-109750000D02*
G75*
G02*
X140580000Y-109750000I-1000000J0D01*
G01*
X140580000Y-105750000D02*
G75*
G02*
X142580000Y-105750000I1000000J0D01*
G01*
X142580000Y-101750000D02*
G75*
G02*
X140580000Y-101750000I-1000000J0D01*
G01*
X140580000Y-121750000D02*
G75*
G02*
X142580000Y-121750000I1000000J0D01*
G01*
X142580000Y-117750000D02*
G75*
G02*
X140580000Y-117750000I-1000000J0D01*
G01*
%TD*%
M02*
