%TF.GenerationSoftware,KiCad,Pcbnew,9.0.8-1.fc43*%
%TF.CreationDate,2026-04-08T23:30:45+05:30*%
%TF.ProjectId,macropad,6d616372-6f70-4616-942e-6b696361645f,rev?*%
%TF.SameCoordinates,Original*%
%TF.FileFunction,Soldermask,Bot*%
%TF.FilePolarity,Negative*%
%FSLAX46Y46*%
G04 Gerber Fmt 4.6, Leading zero omitted, Abs format (unit mm)*
G04 Created by KiCad (PCBNEW 9.0.8-1.fc43) date 2026-04-08 23:30:45*
%MOMM*%
%LPD*%
G01*
G04 APERTURE LIST*
G04 Aperture macros list*
%AMRoundRect*
0 Rectangle with rounded corners*
0 $1 Rounding radius*
0 $2 $3 $4 $5 $6 $7 $8 $9 X,Y pos of 4 corners*
0 Add a 4 corners polygon primitive as box body*
4,1,4,$2,$3,$4,$5,$6,$7,$8,$9,$2,$3,0*
0 Add four circle primitives for the rounded corners*
1,1,$1+$1,$2,$3*
1,1,$1+$1,$4,$5*
1,1,$1+$1,$6,$7*
1,1,$1+$1,$8,$9*
0 Add four rect primitives between the rounded corners*
20,1,$1+$1,$2,$3,$4,$5,0*
20,1,$1+$1,$4,$5,$6,$7,0*
20,1,$1+$1,$6,$7,$8,$9,0*
20,1,$1+$1,$8,$9,$2,$3,0*%
G04 Aperture macros list end*
%ADD10RoundRect,0.225000X0.225000X0.475000X-0.225000X0.475000X-0.225000X-0.475000X0.225000X-0.475000X0*%
%ADD11O,0.900000X1.400000*%
%ADD12R,1.700000X1.700000*%
%ADD13C,1.700000*%
%ADD14C,1.701800*%
%ADD15C,3.000000*%
%ADD16C,3.987800*%
%ADD17R,2.550000X2.500000*%
%ADD18C,0.100000*%
%ADD19O,1.200000X2.000000*%
%ADD20O,1.200000X1.800000*%
%ADD21C,1.000000*%
%ADD22RoundRect,0.225000X0.525000X1.125000X-0.525000X1.125000X-0.525000X-1.125000X0.525000X-1.125000X0*%
%ADD23R,2.000000X2.000000*%
%ADD24C,2.000000*%
%ADD25R,3.000000X2.500000*%
%ADD26RoundRect,0.250000X0.825000X0.825000X-0.825000X0.825000X-0.825000X-0.825000X0.825000X-0.825000X0*%
%ADD27C,2.150000*%
%ADD28RoundRect,0.225000X-0.475000X0.225000X-0.475000X-0.225000X0.475000X-0.225000X0.475000X0.225000X0*%
%ADD29O,1.400000X0.900000*%
%ADD30C,0.500000*%
G04 APERTURE END LIST*
D10*
%TO.C,J6*%
X70175001Y-53700001D03*
D11*
X68925001Y-53700001D03*
X67675001Y-53700001D03*
%TD*%
D12*
%TO.C,U3*%
X110170000Y-53910000D03*
D13*
X112710000Y-53910000D03*
X110170000Y-56450000D03*
X112710000Y-56450000D03*
X110170000Y-58990000D03*
X112710000Y-58990000D03*
X110170000Y-61530000D03*
X112710000Y-61530000D03*
%TD*%
D14*
%TO.C,SW2*%
X83884320Y-104505444D03*
D15*
X85154320Y-101965444D03*
D16*
X88964320Y-104505444D03*
D15*
X91504320Y-99425444D03*
D14*
X94044320Y-104505444D03*
D17*
X95254320Y-99425444D03*
X81404320Y-101965444D03*
%TD*%
D18*
%TO.C,J2*%
X98930000Y-47970000D03*
X93150000Y-47970000D03*
D19*
X100360000Y-48462500D03*
D20*
X100360000Y-44282500D03*
D19*
X91720000Y-48462500D03*
D20*
X91720000Y-44282500D03*
%TD*%
D14*
%TO.C,SW7*%
X121984320Y-85455444D03*
D15*
X123254320Y-82915444D03*
D16*
X127064320Y-85455444D03*
D15*
X129604320Y-80375444D03*
D14*
X132144320Y-85455444D03*
D17*
X133354320Y-80375444D03*
X119504320Y-82915444D03*
%TD*%
D14*
%TO.C,SW6*%
X102934320Y-123555444D03*
D15*
X104204320Y-121015444D03*
D16*
X108014320Y-123555444D03*
D15*
X110554320Y-118475444D03*
D14*
X113094320Y-123555444D03*
D17*
X114304320Y-118475444D03*
X100454320Y-121015444D03*
%TD*%
D14*
%TO.C,SW3*%
X83884320Y-123555444D03*
D15*
X85154320Y-121015444D03*
D16*
X88964320Y-123555444D03*
D15*
X91504320Y-118475444D03*
D14*
X94044320Y-123555444D03*
D17*
X95254320Y-118475444D03*
X81404320Y-121015444D03*
%TD*%
D21*
%TO.C,J9*%
X157252976Y-96815000D03*
X152752976Y-96815000D03*
D13*
X158502976Y-98965000D03*
X156002976Y-98965000D03*
X154002976Y-98965000D03*
X151502976Y-98965000D03*
D22*
X160802976Y-96815000D03*
X149202976Y-96815000D03*
%TD*%
D23*
%TO.C,SW13*%
X55320000Y-94450000D03*
D24*
X55320000Y-99450000D03*
X55320000Y-96950000D03*
D25*
X62820000Y-91350000D03*
X62820000Y-102550000D03*
D24*
X69820000Y-94450000D03*
X69820000Y-99450000D03*
%TD*%
D14*
%TO.C,SW9*%
X121984320Y-123555444D03*
D15*
X123254320Y-121015444D03*
D16*
X127064320Y-123555444D03*
D15*
X129604320Y-118475444D03*
D14*
X132144320Y-123555444D03*
D17*
X133354320Y-118475444D03*
X119504320Y-121015444D03*
%TD*%
D24*
%TO.C,SW10*%
X57320000Y-66980000D03*
X57320000Y-54480000D03*
X57020000Y-63730000D03*
X57020000Y-60730000D03*
X57020000Y-57730000D03*
%TD*%
D26*
%TO.C,J8*%
X75090000Y-114810000D03*
D27*
X70490000Y-114810000D03*
%TD*%
D28*
%TO.C,J3*%
X101860000Y-71705000D03*
D29*
X101860000Y-72955000D03*
%TD*%
D23*
%TO.C,SW12*%
X55270000Y-77350000D03*
D24*
X55270000Y-82350000D03*
X55270000Y-79850000D03*
D25*
X62770000Y-74250000D03*
X62770000Y-85450000D03*
D24*
X69770000Y-77350000D03*
X69770000Y-82350000D03*
%TD*%
D14*
%TO.C,SW5*%
X102934320Y-104505444D03*
D15*
X104204320Y-101965444D03*
D16*
X108014320Y-104505444D03*
D15*
X110554320Y-99425444D03*
D14*
X113094320Y-104505444D03*
D17*
X114304320Y-99425444D03*
X100454320Y-101965444D03*
%TD*%
D30*
%TO.C,REF\u002A\u002A*%
X142840000Y-133770000D03*
X140340000Y-133770000D03*
X142840000Y-134620000D03*
X140340000Y-134620000D03*
X142840000Y-135470000D03*
X140340000Y-135470000D03*
X142840000Y-136320000D03*
X140340000Y-136320000D03*
X142840000Y-137170000D03*
X140340000Y-137170000D03*
%TD*%
%TO.C,REF\u002A\u002A*%
X140330000Y-97450000D03*
X142830000Y-97450000D03*
X140330000Y-96600000D03*
X142830000Y-96600000D03*
X140330000Y-95750000D03*
X142830000Y-95750000D03*
X140330000Y-94900000D03*
X142830000Y-94900000D03*
X140330000Y-94050000D03*
X142830000Y-94050000D03*
%TD*%
D13*
%TO.C,U5*%
X150782976Y-120935000D03*
X150782976Y-118395000D03*
X153322976Y-120935000D03*
X153322976Y-118395000D03*
X155862976Y-120935000D03*
X155862976Y-118395000D03*
X158402976Y-120935000D03*
D12*
X158402976Y-118395000D03*
%TD*%
D14*
%TO.C,SW1*%
X83884320Y-85455444D03*
D15*
X85154320Y-82915444D03*
D16*
X88964320Y-85455444D03*
D15*
X91504320Y-80375444D03*
D14*
X94044320Y-85455444D03*
D17*
X95254320Y-80375444D03*
X81404320Y-82915444D03*
%TD*%
D30*
%TO.C,REF\u002A\u002A*%
X140330000Y-129450000D03*
X142830000Y-129450000D03*
X140330000Y-128600000D03*
X142830000Y-128600000D03*
X140330000Y-127750000D03*
X142830000Y-127750000D03*
X140330000Y-126900000D03*
X142830000Y-126900000D03*
X140330000Y-126050000D03*
X142830000Y-126050000D03*
%TD*%
%TO.C,REF\u002A\u002A*%
X140330000Y-113450000D03*
X142830000Y-113450000D03*
X140330000Y-112600000D03*
X142830000Y-112600000D03*
X140330000Y-111750000D03*
X142830000Y-111750000D03*
X140330000Y-110900000D03*
X142830000Y-110900000D03*
X140330000Y-110050000D03*
X142830000Y-110050000D03*
%TD*%
D14*
%TO.C,SW4*%
X102934320Y-85455444D03*
D15*
X104204320Y-82915444D03*
D16*
X108014320Y-85455444D03*
D15*
X110554320Y-80375444D03*
D14*
X113094320Y-85455444D03*
D17*
X114304320Y-80375444D03*
X100454320Y-82915444D03*
%TD*%
D30*
%TO.C,REF\u002A\u002A*%
X140330000Y-105450000D03*
X142830000Y-105450000D03*
X140330000Y-104600000D03*
X142830000Y-104600000D03*
X140330000Y-103750000D03*
X142830000Y-103750000D03*
X140330000Y-102900000D03*
X142830000Y-102900000D03*
X140330000Y-102050000D03*
X142830000Y-102050000D03*
%TD*%
D12*
%TO.C,J1*%
X111070000Y-47920000D03*
D13*
X113610000Y-47920000D03*
X116150000Y-47920000D03*
X118690000Y-47920000D03*
%TD*%
D30*
%TO.C,REF\u002A\u002A*%
X140330000Y-121450000D03*
X142830000Y-121450000D03*
X140330000Y-120600000D03*
X142830000Y-120600000D03*
X140330000Y-119750000D03*
X142830000Y-119750000D03*
X140330000Y-118900000D03*
X142830000Y-118900000D03*
X140330000Y-118050000D03*
X142830000Y-118050000D03*
%TD*%
D12*
%TO.C,J4*%
X69330000Y-131300000D03*
D13*
X66790000Y-131300000D03*
X64250000Y-131300000D03*
X61710000Y-131300000D03*
%TD*%
D12*
%TO.C,J5*%
X162512976Y-126395000D03*
D13*
X162512976Y-128935000D03*
X162512976Y-131475000D03*
X162512976Y-134015000D03*
%TD*%
D14*
%TO.C,SW8*%
X121984320Y-104505444D03*
D15*
X123254320Y-101965444D03*
D16*
X127064320Y-104505444D03*
D15*
X129604320Y-99425444D03*
D14*
X132144320Y-104505444D03*
D17*
X133354320Y-99425444D03*
X119504320Y-101965444D03*
%TD*%
D28*
%TO.C,J10*%
X162557976Y-99415000D03*
D29*
X162557976Y-100665000D03*
%TD*%
M02*
