M48
; DRILL file {KiCad 9.0.8-1.fc43} date 2026-04-06T14:28:54+0530
; FORMAT={-:-/ absolute / metric / decimal}
; #@! TF.CreationDate,2026-04-06T14:28:54+05:30
; #@! TF.GenerationSoftware,Kicad,Pcbnew,9.0.8-1.fc43
; #@! TF.FileFunction,NonPlated,1,2,NPTH
FMAT,2
METRIC
; #@! TA.AperFunction,NonPlated,NPTH,ComponentDrill
T1C0.500
; #@! TA.AperFunction,NonPlated,NPTH,ComponentDrill
T2C0.700
; #@! TA.AperFunction,NonPlated,NPTH,ComponentDrill
T3C1.000
; #@! TA.AperFunction,NonPlated,NPTH,ComponentDrill
T4C1.702
; #@! TA.AperFunction,NonPlated,NPTH,ComponentDrill
T5C3.000
; #@! TA.AperFunction,NonPlated,NPTH,ComponentDrill
T6C3.988
%
G90
G05
T1
X140.33Y-94.05
X140.33Y-94.9
X140.33Y-95.75
X140.33Y-96.6
X140.33Y-97.45
X140.33Y-102.05
X140.33Y-102.9
X140.33Y-103.75
X140.33Y-104.6
X140.33Y-105.45
X140.33Y-110.05
X140.33Y-110.9
X140.33Y-111.75
X140.33Y-112.6
X140.33Y-113.45
X140.33Y-118.05
X140.33Y-118.9
X140.33Y-119.75
X140.33Y-120.6
X140.33Y-121.45
X140.33Y-126.05
X140.33Y-126.9
X140.33Y-127.75
X140.33Y-128.6
X140.33Y-129.45
X140.34Y-133.77
X140.34Y-134.62
X140.34Y-135.47
X140.34Y-136.32
X140.34Y-137.17
X142.83Y-94.05
X142.83Y-94.9
X142.83Y-95.75
X142.83Y-96.6
X142.83Y-97.45
X142.83Y-102.05
X142.83Y-102.9
X142.83Y-103.75
X142.83Y-104.6
X142.83Y-105.45
X142.83Y-110.05
X142.83Y-110.9
X142.83Y-111.75
X142.83Y-112.6
X142.83Y-113.45
X142.83Y-118.05
X142.83Y-118.9
X142.83Y-119.75
X142.83Y-120.6
X142.83Y-121.45
X142.83Y-126.05
X142.83Y-126.9
X142.83Y-127.75
X142.83Y-128.6
X142.83Y-129.45
X142.84Y-133.77
X142.84Y-134.62
X142.84Y-135.47
X142.84Y-136.32
X142.84Y-137.17
T2
X93.15Y-47.97
X98.93Y-47.97
T3
X152.753Y-96.815
X157.253Y-96.815
T4
X83.884Y-85.455
X83.884Y-104.505
X83.884Y-123.555
X94.044Y-85.455
X94.044Y-104.505
X94.044Y-123.555
X102.934Y-85.455
X102.934Y-104.505
X102.934Y-123.555
X113.094Y-85.455
X113.094Y-104.505
X113.094Y-123.555
X121.984Y-85.455
X121.984Y-104.505
X121.984Y-123.555
X132.144Y-85.455
X132.144Y-104.505
X132.144Y-123.555
T5
X85.154Y-82.915
X85.154Y-101.965
X85.154Y-121.015
X91.504Y-80.375
X91.504Y-99.425
X91.504Y-118.475
X104.204Y-82.915
X104.204Y-101.965
X104.204Y-121.015
X110.554Y-80.375
X110.554Y-99.425
X110.554Y-118.475
X123.254Y-82.915
X123.254Y-101.965
X123.254Y-121.015
X129.604Y-80.375
X129.604Y-99.425
X129.604Y-118.475
T6
X88.964Y-85.455
X88.964Y-104.505
X88.964Y-123.555
X108.014Y-85.455
X108.014Y-104.505
X108.014Y-123.555
X127.064Y-85.455
X127.064Y-104.505
X127.064Y-123.555
M30
