M48
; DRILL file {KiCad 9.0.7-1.fc42} date 2026-04-01T23:48:07+0530
; FORMAT={-:-/ absolute / metric / decimal}
; #@! TF.CreationDate,2026-04-01T23:48:07+05:30
; #@! TF.GenerationSoftware,Kicad,Pcbnew,9.0.7-1.fc42
; #@! TF.FileFunction,NonPlated,1,2,NPTH
FMAT,2
METRIC
; #@! TA.AperFunction,NonPlated,NPTH,ComponentDrill
T1C0.700
; #@! TA.AperFunction,NonPlated,NPTH,ComponentDrill
T2C1.000
; #@! TA.AperFunction,NonPlated,NPTH,ComponentDrill
T3C1.702
; #@! TA.AperFunction,NonPlated,NPTH,ComponentDrill
T4C3.000
; #@! TA.AperFunction,NonPlated,NPTH,ComponentDrill
T5C3.988
%
G90
G05
T1
X93.15Y-47.97
X98.93Y-47.97
T2
X196.96Y-116.46
X201.46Y-116.46
T3
X83.884Y-85.455
X83.884Y-104.505
X83.884Y-123.555
X94.044Y-85.455
X94.044Y-104.505
X94.044Y-123.555
X102.934Y-85.455
X102.934Y-104.505
X102.934Y-123.555
X113.094Y-85.455
X113.094Y-104.505
X113.094Y-123.555
X121.984Y-85.455
X121.984Y-104.505
X121.984Y-123.555
X132.144Y-85.455
X132.144Y-104.505
X132.144Y-123.555
T4
X85.154Y-82.915
X85.154Y-101.965
X85.154Y-121.015
X91.504Y-80.375
X91.504Y-99.425
X91.504Y-118.475
X104.204Y-82.915
X104.204Y-101.965
X104.204Y-121.015
X110.554Y-80.375
X110.554Y-99.425
X110.554Y-118.475
X123.254Y-82.915
X123.254Y-101.965
X123.254Y-121.015
X129.604Y-80.375
X129.604Y-99.425
X129.604Y-118.475
T5
X88.964Y-85.455
X88.964Y-104.505
X88.964Y-123.555
X108.014Y-85.455
X108.014Y-104.505
X108.014Y-123.555
X127.064Y-85.455
X127.064Y-104.505
X127.064Y-123.555
M30
