M48
; DRILL file {KiCad 9.0.8-1.fc43} date 2026-04-08T23:30:47+0530
; FORMAT={-:-/ absolute / metric / decimal}
; #@! TF.CreationDate,2026-04-08T23:30:47+05:30
; #@! TF.GenerationSoftware,Kicad,Pcbnew,9.0.8-1.fc43
; #@! TF.FileFunction,Plated,1,2,PTH
FMAT,2
METRIC
; #@! TA.AperFunction,Plated,PTH,ViaDrill
T1C0.300
; #@! TA.AperFunction,Plated,PTH,ComponentDrill
T2C0.300
; #@! TA.AperFunction,Plated,PTH,ComponentDrill
T3C0.600
; #@! TA.AperFunction,Plated,PTH,ComponentDrill
T4C0.700
; #@! TA.AperFunction,Plated,PTH,ComponentDrill
T5C0.800
; #@! TA.AperFunction,Plated,PTH,ComponentDrill
T6C1.000
; #@! TA.AperFunction,Plated,PTH,ComponentDrill
T7C1.100
; #@! TA.AperFunction,Plated,PTH,ComponentDrill
T8C1.150
; #@! TA.AperFunction,Plated,PTH,ComponentDrill
T9C2.000
%
G90
G05
T1
X53.62Y-129.35
X53.69Y-124.73
X55.375Y-114.468
X55.76Y-70.08
X55.78Y-108.5
X56.03Y-104.2
X56.07Y-87.94
X56.81Y-128.31
X58.17Y-131.95
X58.42Y-118.64
X58.85Y-105.7
X59.87Y-113.65
X60.37Y-51.37
X60.98Y-128.1
X62.15Y-113.02
X62.16Y-43.82
X62.361Y-62.675
X62.46Y-69.55
X62.46Y-80.21
X62.61Y-96.92
X63.06Y-135.53
X63.34Y-116.76
X65.04Y-48.69
X65.06Y-51.16
X66.81Y-102.22
X68.33Y-62.99
X68.91Y-43.92
X70.58Y-88.11
X71.12Y-126.74
X71.25Y-70.71
X71.27Y-61.57
X71.33Y-120.05
X71.43Y-135.46
X72.01Y-105.86
X72.25Y-51.31
X72.797Y-76.42
X73.06Y-91.297
X73.58Y-77.68
X73.6Y-48.82
X73.63Y-80.1
X73.64Y-97.69
X73.66Y-92.68
X74.39Y-53.36
X74.63Y-108.89
X74.72Y-102.87
X74.75Y-124.01
X75.2Y-43.8
X75.54Y-60.4
X75.86Y-51.33
X76.26Y-60.89
X76.84Y-57.85
X77.22Y-69.98
X77.25Y-66.56
X77.3Y-63.35
X77.72Y-100.42
X77.72Y-111.55
X77.76Y-87.46
X77.76Y-91.96
X77.76Y-105.79
X77.77Y-48.68
X77.8Y-96.92
X78.83Y-53.26
X79.59Y-64.56
X79.61Y-67.67
X79.97Y-135.56
X80.66Y-51.33
X80.77Y-57.85
X81.404Y-82.915
X81.404Y-101.965
X81.404Y-121.015
X81.45Y-43.9
X81.85Y-62.9
X81.85Y-65.93
X83.39Y-69.53
X83.65Y-53.26
X84.28Y-69.21
X84.65Y-62.7
X84.7Y-114.19
X84.79Y-57.82
X84.84Y-68.3
X85.25Y-94.97
X86.05Y-127.59
X86.16Y-108.86
X86.51Y-89.58
X86.52Y-51.177
X87.11Y-43.9
X87.71Y-135.63
X88.96Y-52.915
X90.523Y-60.934
X90.934Y-59.674
X91.0Y-58.76
X91.49Y-108.73
X92.18Y-127.5
X92.53Y-57.14
X93.52Y-44.68
X93.62Y-52.69
X93.67Y-50.25
X93.689Y-59.643
X93.74Y-114.15
X93.78Y-94.92
X93.84Y-63.52
X93.86Y-89.61
X94.2Y-135.63
X94.388Y-58.23
X95.254Y-80.375
X95.254Y-99.425
X95.254Y-118.475
X95.45Y-58.53
X96.01Y-44.68
X96.231Y-59.446
X96.646Y-54.954
X97.229Y-60.145
X97.23Y-72.66
X97.526Y-62.32
X97.53Y-58.54
X97.57Y-67.81
X98.29Y-44.67
X98.36Y-63.97
X98.39Y-59.31
X98.45Y-50.24
X98.542Y-66.627
X99.027Y-60.305
X99.225Y-59.089
X99.41Y-66.68
X99.51Y-58.27
X100.454Y-101.965
X100.58Y-53.14
X101.842Y-52.962
X102.39Y-135.53
X102.48Y-59.89
X102.56Y-58.39
X103.04Y-45.13
X103.12Y-50.72
X103.76Y-61.645
X104.27Y-114.06
X104.37Y-49.4
X104.78Y-95.11
X104.87Y-55.94
X104.949Y-61.303
X105.27Y-127.86
X105.41Y-108.61
X106.26Y-89.66
X107.09Y-54.37
X107.23Y-56.18
X107.62Y-50.65
X107.85Y-71.18
X108.06Y-74.37
X108.39Y-43.9
X109.76Y-65.41
X110.7Y-108.44
X111.17Y-135.38
X111.23Y-127.7
X111.36Y-74.62
X112.72Y-89.66
X112.73Y-113.98
X113.34Y-69.67
X113.41Y-94.99
X114.304Y-80.375
X114.304Y-99.425
X114.304Y-118.475
X115.49Y-65.59
X115.75Y-44.11
X116.41Y-72.92
X116.42Y-59.22
X116.6Y-50.96
X118.38Y-62.46
X118.67Y-69.67
X119.62Y-54.78
X120.41Y-135.28
X120.84Y-59.14
X121.22Y-65.3
X121.84Y-44.89
X121.96Y-72.99
X122.12Y-50.93
X122.89Y-114.06
X123.44Y-95.14
X123.76Y-62.46
X124.13Y-89.63
X124.24Y-54.71
X124.43Y-108.32
X124.48Y-47.94
X124.55Y-69.53
X124.89Y-127.57
X126.11Y-59.14
X127.03Y-65.44
X127.05Y-44.78
X127.19Y-50.72
X127.34Y-73.03
X129.49Y-69.76
X129.81Y-108.36
X130.03Y-47.91
X130.06Y-127.57
X130.47Y-89.6
X130.68Y-135.14
X131.76Y-95.07
X132.03Y-113.66
X132.97Y-72.78
X133.255Y-118.475
X133.354Y-80.375
X133.354Y-99.425
X136.16Y-69.59
X138.24Y-72.89
X138.26Y-83.25
X138.26Y-91.14
X138.38Y-100.48
X138.42Y-109.28
X138.45Y-117.31
X138.52Y-125.16
X144.72Y-97.99
X144.81Y-104.76
X144.87Y-108.71
X144.94Y-116.35
X145.073Y-122.685
X145.18Y-128.22
X147.08Y-125.33
X149.01Y-127.76
X149.12Y-100.05
X149.31Y-103.61
X149.983Y-105.412
X150.113Y-109.095
X150.183Y-130.145
X150.198Y-114.165
X150.233Y-131.955
X150.62Y-135.74
X150.63Y-125.4
X151.253Y-115.925
X151.478Y-102.615
X151.743Y-104.485
X151.848Y-114.165
X152.77Y-127.79
X153.553Y-107.265
X153.733Y-110.885
X153.823Y-108.825
X153.843Y-104.475
X153.926Y-112.955
X154.503Y-112.075
X154.693Y-107.345
X155.783Y-115.844
X155.843Y-109.615
X156.53Y-135.74
X157.599Y-110.879
X157.943Y-116.244
X158.123Y-128.105
X158.123Y-132.005
X158.302Y-111.847
X158.943Y-116.295
X159.091Y-110.655
X159.123Y-109.715
X159.623Y-116.915
X160.563Y-118.535
X160.613Y-121.145
X160.84Y-135.72
X162.773Y-110.375
X163.21Y-103.06
X164.95Y-96.55
X165.033Y-111.565
X165.133Y-100.875
X165.15Y-105.1
X165.15Y-120.3
X165.163Y-115.575
X165.18Y-134.2
X165.27Y-124.58
X165.3Y-129.66
T2
X61.85Y-108.26
X61.85Y-109.46
X61.85Y-110.66
X63.25Y-108.26
X63.25Y-109.46
X63.25Y-110.66
T3
X67.675Y-53.7
X68.925Y-53.7
X70.175Y-53.7
X101.86Y-71.705
X101.86Y-72.955
X162.558Y-99.415
X162.558Y-100.665
T6
X55.27Y-77.35
X55.27Y-79.85
X55.27Y-82.35
X55.32Y-94.45
X55.32Y-96.95
X55.32Y-99.45
X61.71Y-131.3
X64.25Y-131.3
X66.79Y-131.3
X69.33Y-131.3
X69.77Y-77.35
X69.77Y-82.35
X69.82Y-94.45
X69.82Y-99.45
X110.17Y-53.91
X110.17Y-56.45
X110.17Y-58.99
X110.17Y-61.53
X111.07Y-47.92
X112.71Y-53.91
X112.71Y-56.45
X112.71Y-58.99
X112.71Y-61.53
X113.61Y-47.92
X116.15Y-47.92
X118.69Y-47.92
X150.783Y-118.395
X150.783Y-120.935
X151.503Y-98.965
X153.323Y-118.395
X153.323Y-120.935
X154.003Y-98.965
X155.863Y-118.395
X155.863Y-120.935
X156.003Y-98.965
X158.403Y-118.395
X158.403Y-120.935
X158.503Y-98.965
X162.513Y-126.395
X162.513Y-128.935
X162.513Y-131.475
X162.513Y-134.015
T7
X57.02Y-57.73
X57.02Y-60.73
X57.02Y-63.73
X57.32Y-54.48
X57.32Y-66.98
T8
X70.49Y-114.81
X75.09Y-114.81
T4
G00X91.72Y-44.633
M15
G01X91.72Y-43.932
M16
G05
G00X91.72Y-48.962
M15
G01X91.72Y-47.962
M16
G05
G00X100.36Y-44.633
M15
G01X100.36Y-43.932
M16
G05
G00X100.36Y-48.962
M15
G01X100.36Y-47.962
M16
G05
T5
G00X149.203Y-97.515
M15
G01X149.203Y-96.115
M16
G05
G00X160.803Y-97.515
M15
G01X160.803Y-96.115
M16
G05
T9
G00X62.52Y-74.25
M15
G01X63.02Y-74.25
M16
G05
G00X62.52Y-85.45
M15
G01X63.02Y-85.45
M16
G05
G00X62.57Y-91.35
M15
G01X63.07Y-91.35
M16
G05
G00X62.57Y-102.55
M15
G01X63.07Y-102.55
M16
G05
M30
