%TF.GenerationSoftware,KiCad,Pcbnew,9.0.8-1.fc43*%
%TF.CreationDate,2026-04-06T14:28:54+05:30*%
%TF.ProjectId,macropad,6d616372-6f70-4616-942e-6b696361645f,rev?*%
%TF.SameCoordinates,Original*%
%TF.FileFunction,Drillmap*%
%TF.FilePolarity,Positive*%
%FSLAX45Y45*%
G04 Gerber Fmt 4.5, Leading zero omitted, Abs format (unit mm)*
G04 Created by KiCad (PCBNEW 9.0.8-1.fc43) date 2026-04-06 14:28:54*
%MOMM*%
%LPD*%
G01*
G04 APERTURE LIST*
%ADD10C,0.050000*%
%ADD11C,0.100000*%
%ADD12C,0.200000*%
%ADD13C,0.170180*%
%ADD14C,0.300000*%
%ADD15C,0.398780*%
G04 APERTURE END LIST*
D10*
X5038000Y-4206000D02*
X14057000Y-4206000D01*
X5038000Y-13747000D02*
X5038000Y-4206000D01*
X5038000Y-13747000D02*
X14059000Y-13747000D01*
X5662264Y-4630264D02*
G75*
G02*
X5262264Y-4630264I-200000J0D01*
G01*
X5262264Y-4630264D02*
G75*
G02*
X5662264Y-4630264I200000J0D01*
G01*
X5662264Y-13323736D02*
G75*
G02*
X5262264Y-13323736I-200000J0D01*
G01*
X5262264Y-13323736D02*
G75*
G02*
X5662264Y-13323736I200000J0D01*
G01*
X13833736Y-4630264D02*
G75*
G02*
X13433736Y-4630264I-200000J0D01*
G01*
X13433736Y-4630264D02*
G75*
G02*
X13833736Y-4630264I200000J0D01*
G01*
X13833736Y-13323736D02*
G75*
G02*
X13433736Y-13323736I-200000J0D01*
G01*
X13433736Y-13323736D02*
G75*
G02*
X13833736Y-13323736I200000J0D01*
G01*
X14057000Y-4206000D02*
X14058000Y-9375000D01*
X14058000Y-9775000D02*
X14058000Y-10175000D01*
X14058000Y-10575000D02*
X14058000Y-10975000D01*
X14058000Y-11375000D02*
X14058000Y-11775000D01*
X14058000Y-12175000D02*
X14058000Y-12575000D01*
X14058000Y-12975000D02*
X14059000Y-13347000D01*
X14258000Y-9375000D02*
X16654000Y-9375000D01*
X14258000Y-9775000D02*
X14258000Y-10175000D01*
X14258000Y-10575000D02*
X14258000Y-10975000D01*
X14258000Y-11375000D02*
X14258000Y-11775000D01*
X14258000Y-12175000D02*
X14258000Y-12575000D01*
X14258000Y-12975000D02*
X14259000Y-13347000D01*
X14259000Y-13747000D02*
X16655000Y-13749000D01*
X14896562Y-13324736D02*
G75*
G02*
X14496562Y-13324736I-200000J0D01*
G01*
X14496562Y-13324736D02*
G75*
G02*
X14896562Y-13324736I200000J0D01*
G01*
X16654000Y-9375000D02*
X16655000Y-13749000D01*
D11*
X14059000Y-13747000D02*
G75*
G02*
X14259000Y-13747000I100000J0D01*
G01*
X14259000Y-13347000D02*
G75*
G02*
X14059000Y-13347000I-100000J0D01*
G01*
X14058000Y-9775000D02*
G75*
G02*
X14258000Y-9775000I100000J0D01*
G01*
X14258000Y-9375000D02*
G75*
G02*
X14058000Y-9375000I-100000J0D01*
G01*
X14058000Y-12975000D02*
G75*
G02*
X14258000Y-12975000I100000J0D01*
G01*
X14258000Y-12575000D02*
G75*
G02*
X14058000Y-12575000I-100000J0D01*
G01*
X14058000Y-11375000D02*
G75*
G02*
X14258000Y-11375000I100000J0D01*
G01*
X14258000Y-10975000D02*
G75*
G02*
X14058000Y-10975000I-100000J0D01*
G01*
X14058000Y-10575000D02*
G75*
G02*
X14258000Y-10575000I100000J0D01*
G01*
X14258000Y-10175000D02*
G75*
G02*
X14058000Y-10175000I-100000J0D01*
G01*
X14058000Y-12175000D02*
G75*
G02*
X14258000Y-12175000I100000J0D01*
G01*
X14258000Y-11775000D02*
G75*
G02*
X14058000Y-11775000I-100000J0D01*
G01*
D12*
D11*
X14008000Y-9380000D02*
X14058000Y-9430000D01*
X14058000Y-9380000D02*
X14008000Y-9430000D01*
X14008000Y-9465000D02*
X14058000Y-9515000D01*
X14058000Y-9465000D02*
X14008000Y-9515000D01*
X14008000Y-9550000D02*
X14058000Y-9600000D01*
X14058000Y-9550000D02*
X14008000Y-9600000D01*
X14008000Y-9635000D02*
X14058000Y-9685000D01*
X14058000Y-9635000D02*
X14008000Y-9685000D01*
X14008000Y-9720000D02*
X14058000Y-9770000D01*
X14058000Y-9720000D02*
X14008000Y-9770000D01*
X14008000Y-10180000D02*
X14058000Y-10230000D01*
X14058000Y-10180000D02*
X14008000Y-10230000D01*
X14008000Y-10265000D02*
X14058000Y-10315000D01*
X14058000Y-10265000D02*
X14008000Y-10315000D01*
X14008000Y-10350000D02*
X14058000Y-10400000D01*
X14058000Y-10350000D02*
X14008000Y-10400000D01*
X14008000Y-10435000D02*
X14058000Y-10485000D01*
X14058000Y-10435000D02*
X14008000Y-10485000D01*
X14008000Y-10520000D02*
X14058000Y-10570000D01*
X14058000Y-10520000D02*
X14008000Y-10570000D01*
X14008000Y-10980000D02*
X14058000Y-11030000D01*
X14058000Y-10980000D02*
X14008000Y-11030000D01*
X14008000Y-11065000D02*
X14058000Y-11115000D01*
X14058000Y-11065000D02*
X14008000Y-11115000D01*
X14008000Y-11150000D02*
X14058000Y-11200000D01*
X14058000Y-11150000D02*
X14008000Y-11200000D01*
X14008000Y-11235000D02*
X14058000Y-11285000D01*
X14058000Y-11235000D02*
X14008000Y-11285000D01*
X14008000Y-11320000D02*
X14058000Y-11370000D01*
X14058000Y-11320000D02*
X14008000Y-11370000D01*
X14008000Y-11780000D02*
X14058000Y-11830000D01*
X14058000Y-11780000D02*
X14008000Y-11830000D01*
X14008000Y-11865000D02*
X14058000Y-11915000D01*
X14058000Y-11865000D02*
X14008000Y-11915000D01*
X14008000Y-11950000D02*
X14058000Y-12000000D01*
X14058000Y-11950000D02*
X14008000Y-12000000D01*
X14008000Y-12035000D02*
X14058000Y-12085000D01*
X14058000Y-12035000D02*
X14008000Y-12085000D01*
X14008000Y-12120000D02*
X14058000Y-12170000D01*
X14058000Y-12120000D02*
X14008000Y-12170000D01*
X14008000Y-12580000D02*
X14058000Y-12630000D01*
X14058000Y-12580000D02*
X14008000Y-12630000D01*
X14008000Y-12665000D02*
X14058000Y-12715000D01*
X14058000Y-12665000D02*
X14008000Y-12715000D01*
X14008000Y-12750000D02*
X14058000Y-12800000D01*
X14058000Y-12750000D02*
X14008000Y-12800000D01*
X14008000Y-12835000D02*
X14058000Y-12885000D01*
X14058000Y-12835000D02*
X14008000Y-12885000D01*
X14008000Y-12920000D02*
X14058000Y-12970000D01*
X14058000Y-12920000D02*
X14008000Y-12970000D01*
X14009000Y-13352000D02*
X14059000Y-13402000D01*
X14059000Y-13352000D02*
X14009000Y-13402000D01*
X14009000Y-13437000D02*
X14059000Y-13487000D01*
X14059000Y-13437000D02*
X14009000Y-13487000D01*
X14009000Y-13522000D02*
X14059000Y-13572000D01*
X14059000Y-13522000D02*
X14009000Y-13572000D01*
X14009000Y-13607000D02*
X14059000Y-13657000D01*
X14059000Y-13607000D02*
X14009000Y-13657000D01*
X14009000Y-13692000D02*
X14059000Y-13742000D01*
X14059000Y-13692000D02*
X14009000Y-13742000D01*
X14258000Y-9380000D02*
X14308000Y-9430000D01*
X14308000Y-9380000D02*
X14258000Y-9430000D01*
X14258000Y-9465000D02*
X14308000Y-9515000D01*
X14308000Y-9465000D02*
X14258000Y-9515000D01*
X14258000Y-9550000D02*
X14308000Y-9600000D01*
X14308000Y-9550000D02*
X14258000Y-9600000D01*
X14258000Y-9635000D02*
X14308000Y-9685000D01*
X14308000Y-9635000D02*
X14258000Y-9685000D01*
X14258000Y-9720000D02*
X14308000Y-9770000D01*
X14308000Y-9720000D02*
X14258000Y-9770000D01*
X14258000Y-10180000D02*
X14308000Y-10230000D01*
X14308000Y-10180000D02*
X14258000Y-10230000D01*
X14258000Y-10265000D02*
X14308000Y-10315000D01*
X14308000Y-10265000D02*
X14258000Y-10315000D01*
X14258000Y-10350000D02*
X14308000Y-10400000D01*
X14308000Y-10350000D02*
X14258000Y-10400000D01*
X14258000Y-10435000D02*
X14308000Y-10485000D01*
X14308000Y-10435000D02*
X14258000Y-10485000D01*
X14258000Y-10520000D02*
X14308000Y-10570000D01*
X14308000Y-10520000D02*
X14258000Y-10570000D01*
X14258000Y-10980000D02*
X14308000Y-11030000D01*
X14308000Y-10980000D02*
X14258000Y-11030000D01*
X14258000Y-11065000D02*
X14308000Y-11115000D01*
X14308000Y-11065000D02*
X14258000Y-11115000D01*
X14258000Y-11150000D02*
X14308000Y-11200000D01*
X14308000Y-11150000D02*
X14258000Y-11200000D01*
X14258000Y-11235000D02*
X14308000Y-11285000D01*
X14308000Y-11235000D02*
X14258000Y-11285000D01*
X14258000Y-11320000D02*
X14308000Y-11370000D01*
X14308000Y-11320000D02*
X14258000Y-11370000D01*
X14258000Y-11780000D02*
X14308000Y-11830000D01*
X14308000Y-11780000D02*
X14258000Y-11830000D01*
X14258000Y-11865000D02*
X14308000Y-11915000D01*
X14308000Y-11865000D02*
X14258000Y-11915000D01*
X14258000Y-11950000D02*
X14308000Y-12000000D01*
X14308000Y-11950000D02*
X14258000Y-12000000D01*
X14258000Y-12035000D02*
X14308000Y-12085000D01*
X14308000Y-12035000D02*
X14258000Y-12085000D01*
X14258000Y-12120000D02*
X14308000Y-12170000D01*
X14308000Y-12120000D02*
X14258000Y-12170000D01*
X14258000Y-12580000D02*
X14308000Y-12630000D01*
X14308000Y-12580000D02*
X14258000Y-12630000D01*
X14258000Y-12665000D02*
X14308000Y-12715000D01*
X14308000Y-12665000D02*
X14258000Y-12715000D01*
X14258000Y-12750000D02*
X14308000Y-12800000D01*
X14308000Y-12750000D02*
X14258000Y-12800000D01*
X14258000Y-12835000D02*
X14308000Y-12885000D01*
X14308000Y-12835000D02*
X14258000Y-12885000D01*
X14258000Y-12920000D02*
X14308000Y-12970000D01*
X14308000Y-12920000D02*
X14258000Y-12970000D01*
X14259000Y-13352000D02*
X14309000Y-13402000D01*
X14309000Y-13352000D02*
X14259000Y-13402000D01*
X14259000Y-13437000D02*
X14309000Y-13487000D01*
X14309000Y-13437000D02*
X14259000Y-13487000D01*
X14259000Y-13522000D02*
X14309000Y-13572000D01*
X14309000Y-13522000D02*
X14259000Y-13572000D01*
X14259000Y-13607000D02*
X14309000Y-13657000D01*
X14309000Y-13607000D02*
X14259000Y-13657000D01*
X14259000Y-13692000D02*
X14309000Y-13742000D01*
X14309000Y-13692000D02*
X14259000Y-13742000D01*
X9350000Y-4797000D02*
G75*
G02*
X9280000Y-4797000I-35000J0D01*
G01*
X9280000Y-4797000D02*
G75*
G02*
X9350000Y-4797000I35000J0D01*
G01*
X9928000Y-4797000D02*
G75*
G02*
X9858000Y-4797000I-35000J0D01*
G01*
X9858000Y-4797000D02*
G75*
G02*
X9928000Y-4797000I35000J0D01*
G01*
X15275298Y-9631500D02*
X15275298Y-9731500D01*
X15225298Y-9681500D02*
X15325298Y-9681500D01*
X15725298Y-9631500D02*
X15725298Y-9731500D01*
X15675298Y-9681500D02*
X15775298Y-9681500D01*
D13*
X8448600Y-8605713D02*
X8448600Y-8485376D01*
X8328264Y-8485376D01*
X8328264Y-8605713D01*
X8448600Y-8605713D01*
X8448600Y-10510713D02*
X8448600Y-10390376D01*
X8328264Y-10390376D01*
X8328264Y-10510713D01*
X8448600Y-10510713D01*
X8448600Y-12415713D02*
X8448600Y-12295376D01*
X8328264Y-12295376D01*
X8328264Y-12415713D01*
X8448600Y-12415713D01*
X9464600Y-8605713D02*
X9464600Y-8485376D01*
X9344264Y-8485376D01*
X9344264Y-8605713D01*
X9464600Y-8605713D01*
X9464600Y-10510713D02*
X9464600Y-10390376D01*
X9344264Y-10390376D01*
X9344264Y-10510713D01*
X9464600Y-10510713D01*
X9464600Y-12415713D02*
X9464600Y-12295376D01*
X9344264Y-12295376D01*
X9344264Y-12415713D01*
X9464600Y-12415713D01*
X10353600Y-8605713D02*
X10353600Y-8485376D01*
X10233264Y-8485376D01*
X10233264Y-8605713D01*
X10353600Y-8605713D01*
X10353600Y-10510713D02*
X10353600Y-10390376D01*
X10233264Y-10390376D01*
X10233264Y-10510713D01*
X10353600Y-10510713D01*
X10353600Y-12415713D02*
X10353600Y-12295376D01*
X10233264Y-12295376D01*
X10233264Y-12415713D01*
X10353600Y-12415713D01*
X11369600Y-8605713D02*
X11369600Y-8485376D01*
X11249264Y-8485376D01*
X11249264Y-8605713D01*
X11369600Y-8605713D01*
X11369600Y-10510713D02*
X11369600Y-10390376D01*
X11249264Y-10390376D01*
X11249264Y-10510713D01*
X11369600Y-10510713D01*
X11369600Y-12415713D02*
X11369600Y-12295376D01*
X11249264Y-12295376D01*
X11249264Y-12415713D01*
X11369600Y-12415713D01*
X12258600Y-8605713D02*
X12258600Y-8485376D01*
X12138264Y-8485376D01*
X12138264Y-8605713D01*
X12258600Y-8605713D01*
X12258600Y-10510713D02*
X12258600Y-10390376D01*
X12138264Y-10390376D01*
X12138264Y-10510713D01*
X12258600Y-10510713D01*
X12258600Y-12415713D02*
X12258600Y-12295376D01*
X12138264Y-12295376D01*
X12138264Y-12415713D01*
X12258600Y-12415713D01*
X13274600Y-8605713D02*
X13274600Y-8485376D01*
X13154264Y-8485376D01*
X13154264Y-8605713D01*
X13274600Y-8605713D01*
X13274600Y-10510713D02*
X13274600Y-10390376D01*
X13154264Y-10390376D01*
X13154264Y-10510713D01*
X13274600Y-10510713D01*
X13274600Y-12415713D02*
X13274600Y-12295376D01*
X13154264Y-12295376D01*
X13154264Y-12415713D01*
X13274600Y-12415713D01*
D14*
X8515432Y-8441544D02*
X8665432Y-8291544D01*
X8515432Y-8141544D01*
X8365432Y-8291544D01*
X8515432Y-8441544D01*
X8515432Y-10346544D02*
X8665432Y-10196544D01*
X8515432Y-10046544D01*
X8365432Y-10196544D01*
X8515432Y-10346544D01*
X8515432Y-12251544D02*
X8665432Y-12101544D01*
X8515432Y-11951544D01*
X8365432Y-12101544D01*
X8515432Y-12251544D01*
X9150432Y-8187544D02*
X9300432Y-8037544D01*
X9150432Y-7887544D01*
X9000432Y-8037544D01*
X9150432Y-8187544D01*
X9150432Y-10092544D02*
X9300432Y-9942544D01*
X9150432Y-9792544D01*
X9000432Y-9942544D01*
X9150432Y-10092544D01*
X9150432Y-11997544D02*
X9300432Y-11847544D01*
X9150432Y-11697544D01*
X9000432Y-11847544D01*
X9150432Y-11997544D01*
X10420432Y-8441544D02*
X10570432Y-8291544D01*
X10420432Y-8141544D01*
X10270432Y-8291544D01*
X10420432Y-8441544D01*
X10420432Y-10346544D02*
X10570432Y-10196544D01*
X10420432Y-10046544D01*
X10270432Y-10196544D01*
X10420432Y-10346544D01*
X10420432Y-12251544D02*
X10570432Y-12101544D01*
X10420432Y-11951544D01*
X10270432Y-12101544D01*
X10420432Y-12251544D01*
X11055432Y-8187544D02*
X11205432Y-8037544D01*
X11055432Y-7887544D01*
X10905432Y-8037544D01*
X11055432Y-8187544D01*
X11055432Y-10092544D02*
X11205432Y-9942544D01*
X11055432Y-9792544D01*
X10905432Y-9942544D01*
X11055432Y-10092544D01*
X11055432Y-11997544D02*
X11205432Y-11847544D01*
X11055432Y-11697544D01*
X10905432Y-11847544D01*
X11055432Y-11997544D01*
X12325432Y-8441544D02*
X12475432Y-8291544D01*
X12325432Y-8141544D01*
X12175432Y-8291544D01*
X12325432Y-8441544D01*
X12325432Y-10346544D02*
X12475432Y-10196544D01*
X12325432Y-10046544D01*
X12175432Y-10196544D01*
X12325432Y-10346544D01*
X12325432Y-12251544D02*
X12475432Y-12101544D01*
X12325432Y-11951544D01*
X12175432Y-12101544D01*
X12325432Y-12251544D01*
X12960432Y-8187544D02*
X13110432Y-8037544D01*
X12960432Y-7887544D01*
X12810432Y-8037544D01*
X12960432Y-8187544D01*
X12960432Y-10092544D02*
X13110432Y-9942544D01*
X12960432Y-9792544D01*
X12810432Y-9942544D01*
X12960432Y-10092544D01*
X12960432Y-11997544D02*
X13110432Y-11847544D01*
X12960432Y-11697544D01*
X12810432Y-11847544D01*
X12960432Y-11997544D01*
D15*
X8697042Y-8346154D02*
X9095822Y-8744934D01*
X9095822Y-8346154D02*
X8697042Y-8744934D01*
X9095822Y-8545544D02*
G75*
G02*
X8697042Y-8545544I-199390J0D01*
G01*
X8697042Y-8545544D02*
G75*
G02*
X9095822Y-8545544I199390J0D01*
G01*
X8697042Y-10251154D02*
X9095822Y-10649934D01*
X9095822Y-10251154D02*
X8697042Y-10649934D01*
X9095822Y-10450544D02*
G75*
G02*
X8697042Y-10450544I-199390J0D01*
G01*
X8697042Y-10450544D02*
G75*
G02*
X9095822Y-10450544I199390J0D01*
G01*
X8697042Y-12156154D02*
X9095822Y-12554934D01*
X9095822Y-12156154D02*
X8697042Y-12554934D01*
X9095822Y-12355544D02*
G75*
G02*
X8697042Y-12355544I-199390J0D01*
G01*
X8697042Y-12355544D02*
G75*
G02*
X9095822Y-12355544I199390J0D01*
G01*
X10602042Y-8346154D02*
X11000822Y-8744934D01*
X11000822Y-8346154D02*
X10602042Y-8744934D01*
X11000822Y-8545544D02*
G75*
G02*
X10602042Y-8545544I-199390J0D01*
G01*
X10602042Y-8545544D02*
G75*
G02*
X11000822Y-8545544I199390J0D01*
G01*
X10602042Y-10251154D02*
X11000822Y-10649934D01*
X11000822Y-10251154D02*
X10602042Y-10649934D01*
X11000822Y-10450544D02*
G75*
G02*
X10602042Y-10450544I-199390J0D01*
G01*
X10602042Y-10450544D02*
G75*
G02*
X11000822Y-10450544I199390J0D01*
G01*
X10602042Y-12156154D02*
X11000822Y-12554934D01*
X11000822Y-12156154D02*
X10602042Y-12554934D01*
X11000822Y-12355544D02*
G75*
G02*
X10602042Y-12355544I-199390J0D01*
G01*
X10602042Y-12355544D02*
G75*
G02*
X11000822Y-12355544I199390J0D01*
G01*
X12507042Y-8346154D02*
X12905822Y-8744934D01*
X12905822Y-8346154D02*
X12507042Y-8744934D01*
X12905822Y-8545544D02*
G75*
G02*
X12507042Y-8545544I-199390J0D01*
G01*
X12507042Y-8545544D02*
G75*
G02*
X12905822Y-8545544I199390J0D01*
G01*
X12507042Y-10251154D02*
X12905822Y-10649934D01*
X12905822Y-10251154D02*
X12507042Y-10649934D01*
X12905822Y-10450544D02*
G75*
G02*
X12507042Y-10450544I-199390J0D01*
G01*
X12507042Y-10450544D02*
G75*
G02*
X12905822Y-10450544I199390J0D01*
G01*
X12507042Y-12156154D02*
X12905822Y-12554934D01*
X12905822Y-12156154D02*
X12507042Y-12554934D01*
X12905822Y-12355544D02*
G75*
G02*
X12507042Y-12355544I-199390J0D01*
G01*
X12507042Y-12355544D02*
G75*
G02*
X12905822Y-12355544I199390J0D01*
G01*
D12*
X5296277Y-14063484D02*
X5296277Y-13863484D01*
X5296277Y-13863484D02*
X5343896Y-13863484D01*
X5343896Y-13863484D02*
X5372467Y-13873008D01*
X5372467Y-13873008D02*
X5391515Y-13892055D01*
X5391515Y-13892055D02*
X5401039Y-13911103D01*
X5401039Y-13911103D02*
X5410563Y-13949198D01*
X5410563Y-13949198D02*
X5410563Y-13977769D01*
X5410563Y-13977769D02*
X5401039Y-14015865D01*
X5401039Y-14015865D02*
X5391515Y-14034912D01*
X5391515Y-14034912D02*
X5372467Y-14053960D01*
X5372467Y-14053960D02*
X5343896Y-14063484D01*
X5343896Y-14063484D02*
X5296277Y-14063484D01*
X5496277Y-14063484D02*
X5496277Y-13930150D01*
X5496277Y-13968246D02*
X5505801Y-13949198D01*
X5505801Y-13949198D02*
X5515324Y-13939674D01*
X5515324Y-13939674D02*
X5534372Y-13930150D01*
X5534372Y-13930150D02*
X5553420Y-13930150D01*
X5620086Y-14063484D02*
X5620086Y-13930150D01*
X5620086Y-13863484D02*
X5610562Y-13873008D01*
X5610562Y-13873008D02*
X5620086Y-13882531D01*
X5620086Y-13882531D02*
X5629610Y-13873008D01*
X5629610Y-13873008D02*
X5620086Y-13863484D01*
X5620086Y-13863484D02*
X5620086Y-13882531D01*
X5743896Y-14063484D02*
X5724848Y-14053960D01*
X5724848Y-14053960D02*
X5715324Y-14034912D01*
X5715324Y-14034912D02*
X5715324Y-13863484D01*
X5848658Y-14063484D02*
X5829610Y-14053960D01*
X5829610Y-14053960D02*
X5820086Y-14034912D01*
X5820086Y-14034912D02*
X5820086Y-13863484D01*
X6077229Y-14063484D02*
X6077229Y-13863484D01*
X6077229Y-13863484D02*
X6143896Y-14006341D01*
X6143896Y-14006341D02*
X6210562Y-13863484D01*
X6210562Y-13863484D02*
X6210562Y-14063484D01*
X6391515Y-14063484D02*
X6391515Y-13958722D01*
X6391515Y-13958722D02*
X6381991Y-13939674D01*
X6381991Y-13939674D02*
X6362943Y-13930150D01*
X6362943Y-13930150D02*
X6324848Y-13930150D01*
X6324848Y-13930150D02*
X6305801Y-13939674D01*
X6391515Y-14053960D02*
X6372467Y-14063484D01*
X6372467Y-14063484D02*
X6324848Y-14063484D01*
X6324848Y-14063484D02*
X6305801Y-14053960D01*
X6305801Y-14053960D02*
X6296277Y-14034912D01*
X6296277Y-14034912D02*
X6296277Y-14015865D01*
X6296277Y-14015865D02*
X6305801Y-13996817D01*
X6305801Y-13996817D02*
X6324848Y-13987293D01*
X6324848Y-13987293D02*
X6372467Y-13987293D01*
X6372467Y-13987293D02*
X6391515Y-13977769D01*
X6486753Y-13930150D02*
X6486753Y-14130150D01*
X6486753Y-13939674D02*
X6505801Y-13930150D01*
X6505801Y-13930150D02*
X6543896Y-13930150D01*
X6543896Y-13930150D02*
X6562943Y-13939674D01*
X6562943Y-13939674D02*
X6572467Y-13949198D01*
X6572467Y-13949198D02*
X6581991Y-13968246D01*
X6581991Y-13968246D02*
X6581991Y-14025388D01*
X6581991Y-14025388D02*
X6572467Y-14044436D01*
X6572467Y-14044436D02*
X6562943Y-14053960D01*
X6562943Y-14053960D02*
X6543896Y-14063484D01*
X6543896Y-14063484D02*
X6505801Y-14063484D01*
X6505801Y-14063484D02*
X6486753Y-14053960D01*
X6667705Y-14044436D02*
X6677229Y-14053960D01*
X6677229Y-14053960D02*
X6667705Y-14063484D01*
X6667705Y-14063484D02*
X6658182Y-14053960D01*
X6658182Y-14053960D02*
X6667705Y-14044436D01*
X6667705Y-14044436D02*
X6667705Y-14063484D01*
X6667705Y-13939674D02*
X6677229Y-13949198D01*
X6677229Y-13949198D02*
X6667705Y-13958722D01*
X6667705Y-13958722D02*
X6658182Y-13949198D01*
X6658182Y-13949198D02*
X6667705Y-13939674D01*
X6667705Y-13939674D02*
X6667705Y-13958722D01*
D11*
X4985500Y-14367000D02*
X5035500Y-14417000D01*
X5035500Y-14367000D02*
X4985500Y-14417000D01*
D12*
X5334372Y-14283484D02*
X5353420Y-14283484D01*
X5353420Y-14283484D02*
X5372467Y-14293008D01*
X5372467Y-14293008D02*
X5381991Y-14302531D01*
X5381991Y-14302531D02*
X5391515Y-14321579D01*
X5391515Y-14321579D02*
X5401039Y-14359674D01*
X5401039Y-14359674D02*
X5401039Y-14407293D01*
X5401039Y-14407293D02*
X5391515Y-14445388D01*
X5391515Y-14445388D02*
X5381991Y-14464436D01*
X5381991Y-14464436D02*
X5372467Y-14473960D01*
X5372467Y-14473960D02*
X5353420Y-14483484D01*
X5353420Y-14483484D02*
X5334372Y-14483484D01*
X5334372Y-14483484D02*
X5315324Y-14473960D01*
X5315324Y-14473960D02*
X5305801Y-14464436D01*
X5305801Y-14464436D02*
X5296277Y-14445388D01*
X5296277Y-14445388D02*
X5286753Y-14407293D01*
X5286753Y-14407293D02*
X5286753Y-14359674D01*
X5286753Y-14359674D02*
X5296277Y-14321579D01*
X5296277Y-14321579D02*
X5305801Y-14302531D01*
X5305801Y-14302531D02*
X5315324Y-14293008D01*
X5315324Y-14293008D02*
X5334372Y-14283484D01*
X5486753Y-14464436D02*
X5496277Y-14473960D01*
X5496277Y-14473960D02*
X5486753Y-14483484D01*
X5486753Y-14483484D02*
X5477229Y-14473960D01*
X5477229Y-14473960D02*
X5486753Y-14464436D01*
X5486753Y-14464436D02*
X5486753Y-14483484D01*
X5677229Y-14283484D02*
X5581991Y-14283484D01*
X5581991Y-14283484D02*
X5572467Y-14378722D01*
X5572467Y-14378722D02*
X5581991Y-14369198D01*
X5581991Y-14369198D02*
X5601039Y-14359674D01*
X5601039Y-14359674D02*
X5648658Y-14359674D01*
X5648658Y-14359674D02*
X5667705Y-14369198D01*
X5667705Y-14369198D02*
X5677229Y-14378722D01*
X5677229Y-14378722D02*
X5686753Y-14397769D01*
X5686753Y-14397769D02*
X5686753Y-14445388D01*
X5686753Y-14445388D02*
X5677229Y-14464436D01*
X5677229Y-14464436D02*
X5667705Y-14473960D01*
X5667705Y-14473960D02*
X5648658Y-14483484D01*
X5648658Y-14483484D02*
X5601039Y-14483484D01*
X5601039Y-14483484D02*
X5581991Y-14473960D01*
X5581991Y-14473960D02*
X5572467Y-14464436D01*
X5810562Y-14283484D02*
X5829610Y-14283484D01*
X5829610Y-14283484D02*
X5848658Y-14293008D01*
X5848658Y-14293008D02*
X5858182Y-14302531D01*
X5858182Y-14302531D02*
X5867705Y-14321579D01*
X5867705Y-14321579D02*
X5877229Y-14359674D01*
X5877229Y-14359674D02*
X5877229Y-14407293D01*
X5877229Y-14407293D02*
X5867705Y-14445388D01*
X5867705Y-14445388D02*
X5858182Y-14464436D01*
X5858182Y-14464436D02*
X5848658Y-14473960D01*
X5848658Y-14473960D02*
X5829610Y-14483484D01*
X5829610Y-14483484D02*
X5810562Y-14483484D01*
X5810562Y-14483484D02*
X5791515Y-14473960D01*
X5791515Y-14473960D02*
X5781991Y-14464436D01*
X5781991Y-14464436D02*
X5772467Y-14445388D01*
X5772467Y-14445388D02*
X5762943Y-14407293D01*
X5762943Y-14407293D02*
X5762943Y-14359674D01*
X5762943Y-14359674D02*
X5772467Y-14321579D01*
X5772467Y-14321579D02*
X5781991Y-14302531D01*
X5781991Y-14302531D02*
X5791515Y-14293008D01*
X5791515Y-14293008D02*
X5810562Y-14283484D01*
X6001039Y-14283484D02*
X6020086Y-14283484D01*
X6020086Y-14283484D02*
X6039134Y-14293008D01*
X6039134Y-14293008D02*
X6048658Y-14302531D01*
X6048658Y-14302531D02*
X6058182Y-14321579D01*
X6058182Y-14321579D02*
X6067705Y-14359674D01*
X6067705Y-14359674D02*
X6067705Y-14407293D01*
X6067705Y-14407293D02*
X6058182Y-14445388D01*
X6058182Y-14445388D02*
X6048658Y-14464436D01*
X6048658Y-14464436D02*
X6039134Y-14473960D01*
X6039134Y-14473960D02*
X6020086Y-14483484D01*
X6020086Y-14483484D02*
X6001039Y-14483484D01*
X6001039Y-14483484D02*
X5981991Y-14473960D01*
X5981991Y-14473960D02*
X5972467Y-14464436D01*
X5972467Y-14464436D02*
X5962943Y-14445388D01*
X5962943Y-14445388D02*
X5953420Y-14407293D01*
X5953420Y-14407293D02*
X5953420Y-14359674D01*
X5953420Y-14359674D02*
X5962943Y-14321579D01*
X5962943Y-14321579D02*
X5972467Y-14302531D01*
X5972467Y-14302531D02*
X5981991Y-14293008D01*
X5981991Y-14293008D02*
X6001039Y-14283484D01*
X6153420Y-14483484D02*
X6153420Y-14350150D01*
X6153420Y-14369198D02*
X6162943Y-14359674D01*
X6162943Y-14359674D02*
X6181991Y-14350150D01*
X6181991Y-14350150D02*
X6210563Y-14350150D01*
X6210563Y-14350150D02*
X6229610Y-14359674D01*
X6229610Y-14359674D02*
X6239134Y-14378722D01*
X6239134Y-14378722D02*
X6239134Y-14483484D01*
X6239134Y-14378722D02*
X6248658Y-14359674D01*
X6248658Y-14359674D02*
X6267705Y-14350150D01*
X6267705Y-14350150D02*
X6296277Y-14350150D01*
X6296277Y-14350150D02*
X6315324Y-14359674D01*
X6315324Y-14359674D02*
X6324848Y-14378722D01*
X6324848Y-14378722D02*
X6324848Y-14483484D01*
X6420086Y-14483484D02*
X6420086Y-14350150D01*
X6420086Y-14369198D02*
X6429610Y-14359674D01*
X6429610Y-14359674D02*
X6448658Y-14350150D01*
X6448658Y-14350150D02*
X6477229Y-14350150D01*
X6477229Y-14350150D02*
X6496277Y-14359674D01*
X6496277Y-14359674D02*
X6505801Y-14378722D01*
X6505801Y-14378722D02*
X6505801Y-14483484D01*
X6505801Y-14378722D02*
X6515324Y-14359674D01*
X6515324Y-14359674D02*
X6534372Y-14350150D01*
X6534372Y-14350150D02*
X6562943Y-14350150D01*
X6562943Y-14350150D02*
X6581991Y-14359674D01*
X6581991Y-14359674D02*
X6591515Y-14378722D01*
X6591515Y-14378722D02*
X6591515Y-14483484D01*
X6981991Y-14273960D02*
X6810563Y-14531103D01*
X7239134Y-14283484D02*
X7258182Y-14283484D01*
X7258182Y-14283484D02*
X7277229Y-14293008D01*
X7277229Y-14293008D02*
X7286753Y-14302531D01*
X7286753Y-14302531D02*
X7296277Y-14321579D01*
X7296277Y-14321579D02*
X7305801Y-14359674D01*
X7305801Y-14359674D02*
X7305801Y-14407293D01*
X7305801Y-14407293D02*
X7296277Y-14445388D01*
X7296277Y-14445388D02*
X7286753Y-14464436D01*
X7286753Y-14464436D02*
X7277229Y-14473960D01*
X7277229Y-14473960D02*
X7258182Y-14483484D01*
X7258182Y-14483484D02*
X7239134Y-14483484D01*
X7239134Y-14483484D02*
X7220086Y-14473960D01*
X7220086Y-14473960D02*
X7210563Y-14464436D01*
X7210563Y-14464436D02*
X7201039Y-14445388D01*
X7201039Y-14445388D02*
X7191515Y-14407293D01*
X7191515Y-14407293D02*
X7191515Y-14359674D01*
X7191515Y-14359674D02*
X7201039Y-14321579D01*
X7201039Y-14321579D02*
X7210563Y-14302531D01*
X7210563Y-14302531D02*
X7220086Y-14293008D01*
X7220086Y-14293008D02*
X7239134Y-14283484D01*
X7391515Y-14464436D02*
X7401039Y-14473960D01*
X7401039Y-14473960D02*
X7391515Y-14483484D01*
X7391515Y-14483484D02*
X7381991Y-14473960D01*
X7381991Y-14473960D02*
X7391515Y-14464436D01*
X7391515Y-14464436D02*
X7391515Y-14483484D01*
X7524848Y-14283484D02*
X7543896Y-14283484D01*
X7543896Y-14283484D02*
X7562944Y-14293008D01*
X7562944Y-14293008D02*
X7572467Y-14302531D01*
X7572467Y-14302531D02*
X7581991Y-14321579D01*
X7581991Y-14321579D02*
X7591515Y-14359674D01*
X7591515Y-14359674D02*
X7591515Y-14407293D01*
X7591515Y-14407293D02*
X7581991Y-14445388D01*
X7581991Y-14445388D02*
X7572467Y-14464436D01*
X7572467Y-14464436D02*
X7562944Y-14473960D01*
X7562944Y-14473960D02*
X7543896Y-14483484D01*
X7543896Y-14483484D02*
X7524848Y-14483484D01*
X7524848Y-14483484D02*
X7505801Y-14473960D01*
X7505801Y-14473960D02*
X7496277Y-14464436D01*
X7496277Y-14464436D02*
X7486753Y-14445388D01*
X7486753Y-14445388D02*
X7477229Y-14407293D01*
X7477229Y-14407293D02*
X7477229Y-14359674D01*
X7477229Y-14359674D02*
X7486753Y-14321579D01*
X7486753Y-14321579D02*
X7496277Y-14302531D01*
X7496277Y-14302531D02*
X7505801Y-14293008D01*
X7505801Y-14293008D02*
X7524848Y-14283484D01*
X7781991Y-14483484D02*
X7667706Y-14483484D01*
X7724848Y-14483484D02*
X7724848Y-14283484D01*
X7724848Y-14283484D02*
X7705801Y-14312055D01*
X7705801Y-14312055D02*
X7686753Y-14331103D01*
X7686753Y-14331103D02*
X7667706Y-14340627D01*
X7877229Y-14483484D02*
X7915325Y-14483484D01*
X7915325Y-14483484D02*
X7934372Y-14473960D01*
X7934372Y-14473960D02*
X7943896Y-14464436D01*
X7943896Y-14464436D02*
X7962944Y-14435865D01*
X7962944Y-14435865D02*
X7972467Y-14397769D01*
X7972467Y-14397769D02*
X7972467Y-14321579D01*
X7972467Y-14321579D02*
X7962944Y-14302531D01*
X7962944Y-14302531D02*
X7953420Y-14293008D01*
X7953420Y-14293008D02*
X7934372Y-14283484D01*
X7934372Y-14283484D02*
X7896277Y-14283484D01*
X7896277Y-14283484D02*
X7877229Y-14293008D01*
X7877229Y-14293008D02*
X7867706Y-14302531D01*
X7867706Y-14302531D02*
X7858182Y-14321579D01*
X7858182Y-14321579D02*
X7858182Y-14369198D01*
X7858182Y-14369198D02*
X7867706Y-14388246D01*
X7867706Y-14388246D02*
X7877229Y-14397769D01*
X7877229Y-14397769D02*
X7896277Y-14407293D01*
X7896277Y-14407293D02*
X7934372Y-14407293D01*
X7934372Y-14407293D02*
X7953420Y-14397769D01*
X7953420Y-14397769D02*
X7962944Y-14388246D01*
X7962944Y-14388246D02*
X7972467Y-14369198D01*
X8039134Y-14283484D02*
X8172467Y-14283484D01*
X8172467Y-14283484D02*
X8086753Y-14483484D01*
X8239134Y-14283484D02*
X8239134Y-14321579D01*
X8315325Y-14283484D02*
X8315325Y-14321579D01*
X8610563Y-14559674D02*
X8601039Y-14550150D01*
X8601039Y-14550150D02*
X8581991Y-14521579D01*
X8581991Y-14521579D02*
X8572468Y-14502531D01*
X8572468Y-14502531D02*
X8562944Y-14473960D01*
X8562944Y-14473960D02*
X8553420Y-14426341D01*
X8553420Y-14426341D02*
X8553420Y-14388246D01*
X8553420Y-14388246D02*
X8562944Y-14340627D01*
X8562944Y-14340627D02*
X8572468Y-14312055D01*
X8572468Y-14312055D02*
X8581991Y-14293008D01*
X8581991Y-14293008D02*
X8601039Y-14264436D01*
X8601039Y-14264436D02*
X8610563Y-14254912D01*
X8772468Y-14283484D02*
X8734372Y-14283484D01*
X8734372Y-14283484D02*
X8715325Y-14293008D01*
X8715325Y-14293008D02*
X8705801Y-14302531D01*
X8705801Y-14302531D02*
X8686753Y-14331103D01*
X8686753Y-14331103D02*
X8677230Y-14369198D01*
X8677230Y-14369198D02*
X8677230Y-14445388D01*
X8677230Y-14445388D02*
X8686753Y-14464436D01*
X8686753Y-14464436D02*
X8696277Y-14473960D01*
X8696277Y-14473960D02*
X8715325Y-14483484D01*
X8715325Y-14483484D02*
X8753420Y-14483484D01*
X8753420Y-14483484D02*
X8772468Y-14473960D01*
X8772468Y-14473960D02*
X8781991Y-14464436D01*
X8781991Y-14464436D02*
X8791515Y-14445388D01*
X8791515Y-14445388D02*
X8791515Y-14397769D01*
X8791515Y-14397769D02*
X8781991Y-14378722D01*
X8781991Y-14378722D02*
X8772468Y-14369198D01*
X8772468Y-14369198D02*
X8753420Y-14359674D01*
X8753420Y-14359674D02*
X8715325Y-14359674D01*
X8715325Y-14359674D02*
X8696277Y-14369198D01*
X8696277Y-14369198D02*
X8686753Y-14378722D01*
X8686753Y-14378722D02*
X8677230Y-14397769D01*
X8915325Y-14283484D02*
X8934372Y-14283484D01*
X8934372Y-14283484D02*
X8953420Y-14293008D01*
X8953420Y-14293008D02*
X8962944Y-14302531D01*
X8962944Y-14302531D02*
X8972468Y-14321579D01*
X8972468Y-14321579D02*
X8981991Y-14359674D01*
X8981991Y-14359674D02*
X8981991Y-14407293D01*
X8981991Y-14407293D02*
X8972468Y-14445388D01*
X8972468Y-14445388D02*
X8962944Y-14464436D01*
X8962944Y-14464436D02*
X8953420Y-14473960D01*
X8953420Y-14473960D02*
X8934372Y-14483484D01*
X8934372Y-14483484D02*
X8915325Y-14483484D01*
X8915325Y-14483484D02*
X8896277Y-14473960D01*
X8896277Y-14473960D02*
X8886753Y-14464436D01*
X8886753Y-14464436D02*
X8877230Y-14445388D01*
X8877230Y-14445388D02*
X8867706Y-14407293D01*
X8867706Y-14407293D02*
X8867706Y-14359674D01*
X8867706Y-14359674D02*
X8877230Y-14321579D01*
X8877230Y-14321579D02*
X8886753Y-14302531D01*
X8886753Y-14302531D02*
X8896277Y-14293008D01*
X8896277Y-14293008D02*
X8915325Y-14283484D01*
X9220087Y-14483484D02*
X9220087Y-14283484D01*
X9305801Y-14483484D02*
X9305801Y-14378722D01*
X9305801Y-14378722D02*
X9296277Y-14359674D01*
X9296277Y-14359674D02*
X9277230Y-14350150D01*
X9277230Y-14350150D02*
X9248658Y-14350150D01*
X9248658Y-14350150D02*
X9229611Y-14359674D01*
X9229611Y-14359674D02*
X9220087Y-14369198D01*
X9429611Y-14483484D02*
X9410563Y-14473960D01*
X9410563Y-14473960D02*
X9401039Y-14464436D01*
X9401039Y-14464436D02*
X9391515Y-14445388D01*
X9391515Y-14445388D02*
X9391515Y-14388246D01*
X9391515Y-14388246D02*
X9401039Y-14369198D01*
X9401039Y-14369198D02*
X9410563Y-14359674D01*
X9410563Y-14359674D02*
X9429611Y-14350150D01*
X9429611Y-14350150D02*
X9458182Y-14350150D01*
X9458182Y-14350150D02*
X9477230Y-14359674D01*
X9477230Y-14359674D02*
X9486753Y-14369198D01*
X9486753Y-14369198D02*
X9496277Y-14388246D01*
X9496277Y-14388246D02*
X9496277Y-14445388D01*
X9496277Y-14445388D02*
X9486753Y-14464436D01*
X9486753Y-14464436D02*
X9477230Y-14473960D01*
X9477230Y-14473960D02*
X9458182Y-14483484D01*
X9458182Y-14483484D02*
X9429611Y-14483484D01*
X9610563Y-14483484D02*
X9591515Y-14473960D01*
X9591515Y-14473960D02*
X9581992Y-14454912D01*
X9581992Y-14454912D02*
X9581992Y-14283484D01*
X9762944Y-14473960D02*
X9743896Y-14483484D01*
X9743896Y-14483484D02*
X9705801Y-14483484D01*
X9705801Y-14483484D02*
X9686753Y-14473960D01*
X9686753Y-14473960D02*
X9677230Y-14454912D01*
X9677230Y-14454912D02*
X9677230Y-14378722D01*
X9677230Y-14378722D02*
X9686753Y-14359674D01*
X9686753Y-14359674D02*
X9705801Y-14350150D01*
X9705801Y-14350150D02*
X9743896Y-14350150D01*
X9743896Y-14350150D02*
X9762944Y-14359674D01*
X9762944Y-14359674D02*
X9772468Y-14378722D01*
X9772468Y-14378722D02*
X9772468Y-14397769D01*
X9772468Y-14397769D02*
X9677230Y-14416817D01*
X9848658Y-14473960D02*
X9867706Y-14483484D01*
X9867706Y-14483484D02*
X9905801Y-14483484D01*
X9905801Y-14483484D02*
X9924849Y-14473960D01*
X9924849Y-14473960D02*
X9934373Y-14454912D01*
X9934373Y-14454912D02*
X9934373Y-14445388D01*
X9934373Y-14445388D02*
X9924849Y-14426341D01*
X9924849Y-14426341D02*
X9905801Y-14416817D01*
X9905801Y-14416817D02*
X9877230Y-14416817D01*
X9877230Y-14416817D02*
X9858182Y-14407293D01*
X9858182Y-14407293D02*
X9848658Y-14388246D01*
X9848658Y-14388246D02*
X9848658Y-14378722D01*
X9848658Y-14378722D02*
X9858182Y-14359674D01*
X9858182Y-14359674D02*
X9877230Y-14350150D01*
X9877230Y-14350150D02*
X9905801Y-14350150D01*
X9905801Y-14350150D02*
X9924849Y-14359674D01*
X10001039Y-14559674D02*
X10010563Y-14550150D01*
X10010563Y-14550150D02*
X10029611Y-14521579D01*
X10029611Y-14521579D02*
X10039134Y-14502531D01*
X10039134Y-14502531D02*
X10048658Y-14473960D01*
X10048658Y-14473960D02*
X10058182Y-14426341D01*
X10058182Y-14426341D02*
X10058182Y-14388246D01*
X10058182Y-14388246D02*
X10048658Y-14340627D01*
X10048658Y-14340627D02*
X10039134Y-14312055D01*
X10039134Y-14312055D02*
X10029611Y-14293008D01*
X10029611Y-14293008D02*
X10010563Y-14264436D01*
X10010563Y-14264436D02*
X10001039Y-14254912D01*
X10362944Y-14559674D02*
X10353420Y-14550150D01*
X10353420Y-14550150D02*
X10334373Y-14521579D01*
X10334373Y-14521579D02*
X10324849Y-14502531D01*
X10324849Y-14502531D02*
X10315325Y-14473960D01*
X10315325Y-14473960D02*
X10305801Y-14426341D01*
X10305801Y-14426341D02*
X10305801Y-14388246D01*
X10305801Y-14388246D02*
X10315325Y-14340627D01*
X10315325Y-14340627D02*
X10324849Y-14312055D01*
X10324849Y-14312055D02*
X10334373Y-14293008D01*
X10334373Y-14293008D02*
X10353420Y-14264436D01*
X10353420Y-14264436D02*
X10362944Y-14254912D01*
X10439134Y-14350150D02*
X10439134Y-14483484D01*
X10439134Y-14369198D02*
X10448658Y-14359674D01*
X10448658Y-14359674D02*
X10467706Y-14350150D01*
X10467706Y-14350150D02*
X10496277Y-14350150D01*
X10496277Y-14350150D02*
X10515325Y-14359674D01*
X10515325Y-14359674D02*
X10524849Y-14378722D01*
X10524849Y-14378722D02*
X10524849Y-14483484D01*
X10648658Y-14483484D02*
X10629611Y-14473960D01*
X10629611Y-14473960D02*
X10620087Y-14464436D01*
X10620087Y-14464436D02*
X10610563Y-14445388D01*
X10610563Y-14445388D02*
X10610563Y-14388246D01*
X10610563Y-14388246D02*
X10620087Y-14369198D01*
X10620087Y-14369198D02*
X10629611Y-14359674D01*
X10629611Y-14359674D02*
X10648658Y-14350150D01*
X10648658Y-14350150D02*
X10677230Y-14350150D01*
X10677230Y-14350150D02*
X10696277Y-14359674D01*
X10696277Y-14359674D02*
X10705801Y-14369198D01*
X10705801Y-14369198D02*
X10715325Y-14388246D01*
X10715325Y-14388246D02*
X10715325Y-14445388D01*
X10715325Y-14445388D02*
X10705801Y-14464436D01*
X10705801Y-14464436D02*
X10696277Y-14473960D01*
X10696277Y-14473960D02*
X10677230Y-14483484D01*
X10677230Y-14483484D02*
X10648658Y-14483484D01*
X10772468Y-14350150D02*
X10848658Y-14350150D01*
X10801039Y-14283484D02*
X10801039Y-14454912D01*
X10801039Y-14454912D02*
X10810563Y-14473960D01*
X10810563Y-14473960D02*
X10829611Y-14483484D01*
X10829611Y-14483484D02*
X10848658Y-14483484D01*
X11067706Y-14350150D02*
X11067706Y-14550150D01*
X11067706Y-14359674D02*
X11086754Y-14350150D01*
X11086754Y-14350150D02*
X11124849Y-14350150D01*
X11124849Y-14350150D02*
X11143896Y-14359674D01*
X11143896Y-14359674D02*
X11153420Y-14369198D01*
X11153420Y-14369198D02*
X11162944Y-14388246D01*
X11162944Y-14388246D02*
X11162944Y-14445388D01*
X11162944Y-14445388D02*
X11153420Y-14464436D01*
X11153420Y-14464436D02*
X11143896Y-14473960D01*
X11143896Y-14473960D02*
X11124849Y-14483484D01*
X11124849Y-14483484D02*
X11086754Y-14483484D01*
X11086754Y-14483484D02*
X11067706Y-14473960D01*
X11277230Y-14483484D02*
X11258182Y-14473960D01*
X11258182Y-14473960D02*
X11248658Y-14454912D01*
X11248658Y-14454912D02*
X11248658Y-14283484D01*
X11439134Y-14483484D02*
X11439134Y-14378722D01*
X11439134Y-14378722D02*
X11429611Y-14359674D01*
X11429611Y-14359674D02*
X11410563Y-14350150D01*
X11410563Y-14350150D02*
X11372468Y-14350150D01*
X11372468Y-14350150D02*
X11353420Y-14359674D01*
X11439134Y-14473960D02*
X11420087Y-14483484D01*
X11420087Y-14483484D02*
X11372468Y-14483484D01*
X11372468Y-14483484D02*
X11353420Y-14473960D01*
X11353420Y-14473960D02*
X11343896Y-14454912D01*
X11343896Y-14454912D02*
X11343896Y-14435865D01*
X11343896Y-14435865D02*
X11353420Y-14416817D01*
X11353420Y-14416817D02*
X11372468Y-14407293D01*
X11372468Y-14407293D02*
X11420087Y-14407293D01*
X11420087Y-14407293D02*
X11439134Y-14397769D01*
X11505801Y-14350150D02*
X11581992Y-14350150D01*
X11534373Y-14283484D02*
X11534373Y-14454912D01*
X11534373Y-14454912D02*
X11543896Y-14473960D01*
X11543896Y-14473960D02*
X11562944Y-14483484D01*
X11562944Y-14483484D02*
X11581992Y-14483484D01*
X11724849Y-14473960D02*
X11705801Y-14483484D01*
X11705801Y-14483484D02*
X11667706Y-14483484D01*
X11667706Y-14483484D02*
X11648658Y-14473960D01*
X11648658Y-14473960D02*
X11639134Y-14454912D01*
X11639134Y-14454912D02*
X11639134Y-14378722D01*
X11639134Y-14378722D02*
X11648658Y-14359674D01*
X11648658Y-14359674D02*
X11667706Y-14350150D01*
X11667706Y-14350150D02*
X11705801Y-14350150D01*
X11705801Y-14350150D02*
X11724849Y-14359674D01*
X11724849Y-14359674D02*
X11734373Y-14378722D01*
X11734373Y-14378722D02*
X11734373Y-14397769D01*
X11734373Y-14397769D02*
X11639134Y-14416817D01*
X11905801Y-14483484D02*
X11905801Y-14283484D01*
X11905801Y-14473960D02*
X11886754Y-14483484D01*
X11886754Y-14483484D02*
X11848658Y-14483484D01*
X11848658Y-14483484D02*
X11829611Y-14473960D01*
X11829611Y-14473960D02*
X11820087Y-14464436D01*
X11820087Y-14464436D02*
X11810563Y-14445388D01*
X11810563Y-14445388D02*
X11810563Y-14388246D01*
X11810563Y-14388246D02*
X11820087Y-14369198D01*
X11820087Y-14369198D02*
X11829611Y-14359674D01*
X11829611Y-14359674D02*
X11848658Y-14350150D01*
X11848658Y-14350150D02*
X11886754Y-14350150D01*
X11886754Y-14350150D02*
X11905801Y-14359674D01*
X11981992Y-14559674D02*
X11991515Y-14550150D01*
X11991515Y-14550150D02*
X12010563Y-14521579D01*
X12010563Y-14521579D02*
X12020087Y-14502531D01*
X12020087Y-14502531D02*
X12029611Y-14473960D01*
X12029611Y-14473960D02*
X12039134Y-14426341D01*
X12039134Y-14426341D02*
X12039134Y-14388246D01*
X12039134Y-14388246D02*
X12029611Y-14340627D01*
X12029611Y-14340627D02*
X12020087Y-14312055D01*
X12020087Y-14312055D02*
X12010563Y-14293008D01*
X12010563Y-14293008D02*
X11991515Y-14264436D01*
X11991515Y-14264436D02*
X11981992Y-14254912D01*
D11*
X5035500Y-14656000D02*
G75*
G02*
X4965500Y-14656000I-35000J0D01*
G01*
X4965500Y-14656000D02*
G75*
G02*
X5035500Y-14656000I35000J0D01*
G01*
D12*
X5334372Y-14547484D02*
X5353420Y-14547484D01*
X5353420Y-14547484D02*
X5372467Y-14557008D01*
X5372467Y-14557008D02*
X5381991Y-14566531D01*
X5381991Y-14566531D02*
X5391515Y-14585579D01*
X5391515Y-14585579D02*
X5401039Y-14623674D01*
X5401039Y-14623674D02*
X5401039Y-14671293D01*
X5401039Y-14671293D02*
X5391515Y-14709388D01*
X5391515Y-14709388D02*
X5381991Y-14728436D01*
X5381991Y-14728436D02*
X5372467Y-14737960D01*
X5372467Y-14737960D02*
X5353420Y-14747484D01*
X5353420Y-14747484D02*
X5334372Y-14747484D01*
X5334372Y-14747484D02*
X5315324Y-14737960D01*
X5315324Y-14737960D02*
X5305801Y-14728436D01*
X5305801Y-14728436D02*
X5296277Y-14709388D01*
X5296277Y-14709388D02*
X5286753Y-14671293D01*
X5286753Y-14671293D02*
X5286753Y-14623674D01*
X5286753Y-14623674D02*
X5296277Y-14585579D01*
X5296277Y-14585579D02*
X5305801Y-14566531D01*
X5305801Y-14566531D02*
X5315324Y-14557008D01*
X5315324Y-14557008D02*
X5334372Y-14547484D01*
X5486753Y-14728436D02*
X5496277Y-14737960D01*
X5496277Y-14737960D02*
X5486753Y-14747484D01*
X5486753Y-14747484D02*
X5477229Y-14737960D01*
X5477229Y-14737960D02*
X5486753Y-14728436D01*
X5486753Y-14728436D02*
X5486753Y-14747484D01*
X5562944Y-14547484D02*
X5696277Y-14547484D01*
X5696277Y-14547484D02*
X5610562Y-14747484D01*
X5810562Y-14547484D02*
X5829610Y-14547484D01*
X5829610Y-14547484D02*
X5848658Y-14557008D01*
X5848658Y-14557008D02*
X5858182Y-14566531D01*
X5858182Y-14566531D02*
X5867705Y-14585579D01*
X5867705Y-14585579D02*
X5877229Y-14623674D01*
X5877229Y-14623674D02*
X5877229Y-14671293D01*
X5877229Y-14671293D02*
X5867705Y-14709388D01*
X5867705Y-14709388D02*
X5858182Y-14728436D01*
X5858182Y-14728436D02*
X5848658Y-14737960D01*
X5848658Y-14737960D02*
X5829610Y-14747484D01*
X5829610Y-14747484D02*
X5810562Y-14747484D01*
X5810562Y-14747484D02*
X5791515Y-14737960D01*
X5791515Y-14737960D02*
X5781991Y-14728436D01*
X5781991Y-14728436D02*
X5772467Y-14709388D01*
X5772467Y-14709388D02*
X5762943Y-14671293D01*
X5762943Y-14671293D02*
X5762943Y-14623674D01*
X5762943Y-14623674D02*
X5772467Y-14585579D01*
X5772467Y-14585579D02*
X5781991Y-14566531D01*
X5781991Y-14566531D02*
X5791515Y-14557008D01*
X5791515Y-14557008D02*
X5810562Y-14547484D01*
X6001039Y-14547484D02*
X6020086Y-14547484D01*
X6020086Y-14547484D02*
X6039134Y-14557008D01*
X6039134Y-14557008D02*
X6048658Y-14566531D01*
X6048658Y-14566531D02*
X6058182Y-14585579D01*
X6058182Y-14585579D02*
X6067705Y-14623674D01*
X6067705Y-14623674D02*
X6067705Y-14671293D01*
X6067705Y-14671293D02*
X6058182Y-14709388D01*
X6058182Y-14709388D02*
X6048658Y-14728436D01*
X6048658Y-14728436D02*
X6039134Y-14737960D01*
X6039134Y-14737960D02*
X6020086Y-14747484D01*
X6020086Y-14747484D02*
X6001039Y-14747484D01*
X6001039Y-14747484D02*
X5981991Y-14737960D01*
X5981991Y-14737960D02*
X5972467Y-14728436D01*
X5972467Y-14728436D02*
X5962943Y-14709388D01*
X5962943Y-14709388D02*
X5953420Y-14671293D01*
X5953420Y-14671293D02*
X5953420Y-14623674D01*
X5953420Y-14623674D02*
X5962943Y-14585579D01*
X5962943Y-14585579D02*
X5972467Y-14566531D01*
X5972467Y-14566531D02*
X5981991Y-14557008D01*
X5981991Y-14557008D02*
X6001039Y-14547484D01*
X6153420Y-14747484D02*
X6153420Y-14614150D01*
X6153420Y-14633198D02*
X6162943Y-14623674D01*
X6162943Y-14623674D02*
X6181991Y-14614150D01*
X6181991Y-14614150D02*
X6210563Y-14614150D01*
X6210563Y-14614150D02*
X6229610Y-14623674D01*
X6229610Y-14623674D02*
X6239134Y-14642722D01*
X6239134Y-14642722D02*
X6239134Y-14747484D01*
X6239134Y-14642722D02*
X6248658Y-14623674D01*
X6248658Y-14623674D02*
X6267705Y-14614150D01*
X6267705Y-14614150D02*
X6296277Y-14614150D01*
X6296277Y-14614150D02*
X6315324Y-14623674D01*
X6315324Y-14623674D02*
X6324848Y-14642722D01*
X6324848Y-14642722D02*
X6324848Y-14747484D01*
X6420086Y-14747484D02*
X6420086Y-14614150D01*
X6420086Y-14633198D02*
X6429610Y-14623674D01*
X6429610Y-14623674D02*
X6448658Y-14614150D01*
X6448658Y-14614150D02*
X6477229Y-14614150D01*
X6477229Y-14614150D02*
X6496277Y-14623674D01*
X6496277Y-14623674D02*
X6505801Y-14642722D01*
X6505801Y-14642722D02*
X6505801Y-14747484D01*
X6505801Y-14642722D02*
X6515324Y-14623674D01*
X6515324Y-14623674D02*
X6534372Y-14614150D01*
X6534372Y-14614150D02*
X6562943Y-14614150D01*
X6562943Y-14614150D02*
X6581991Y-14623674D01*
X6581991Y-14623674D02*
X6591515Y-14642722D01*
X6591515Y-14642722D02*
X6591515Y-14747484D01*
X6981991Y-14537960D02*
X6810563Y-14795103D01*
X7239134Y-14547484D02*
X7258182Y-14547484D01*
X7258182Y-14547484D02*
X7277229Y-14557008D01*
X7277229Y-14557008D02*
X7286753Y-14566531D01*
X7286753Y-14566531D02*
X7296277Y-14585579D01*
X7296277Y-14585579D02*
X7305801Y-14623674D01*
X7305801Y-14623674D02*
X7305801Y-14671293D01*
X7305801Y-14671293D02*
X7296277Y-14709388D01*
X7296277Y-14709388D02*
X7286753Y-14728436D01*
X7286753Y-14728436D02*
X7277229Y-14737960D01*
X7277229Y-14737960D02*
X7258182Y-14747484D01*
X7258182Y-14747484D02*
X7239134Y-14747484D01*
X7239134Y-14747484D02*
X7220086Y-14737960D01*
X7220086Y-14737960D02*
X7210563Y-14728436D01*
X7210563Y-14728436D02*
X7201039Y-14709388D01*
X7201039Y-14709388D02*
X7191515Y-14671293D01*
X7191515Y-14671293D02*
X7191515Y-14623674D01*
X7191515Y-14623674D02*
X7201039Y-14585579D01*
X7201039Y-14585579D02*
X7210563Y-14566531D01*
X7210563Y-14566531D02*
X7220086Y-14557008D01*
X7220086Y-14557008D02*
X7239134Y-14547484D01*
X7391515Y-14728436D02*
X7401039Y-14737960D01*
X7401039Y-14737960D02*
X7391515Y-14747484D01*
X7391515Y-14747484D02*
X7381991Y-14737960D01*
X7381991Y-14737960D02*
X7391515Y-14728436D01*
X7391515Y-14728436D02*
X7391515Y-14747484D01*
X7524848Y-14547484D02*
X7543896Y-14547484D01*
X7543896Y-14547484D02*
X7562944Y-14557008D01*
X7562944Y-14557008D02*
X7572467Y-14566531D01*
X7572467Y-14566531D02*
X7581991Y-14585579D01*
X7581991Y-14585579D02*
X7591515Y-14623674D01*
X7591515Y-14623674D02*
X7591515Y-14671293D01*
X7591515Y-14671293D02*
X7581991Y-14709388D01*
X7581991Y-14709388D02*
X7572467Y-14728436D01*
X7572467Y-14728436D02*
X7562944Y-14737960D01*
X7562944Y-14737960D02*
X7543896Y-14747484D01*
X7543896Y-14747484D02*
X7524848Y-14747484D01*
X7524848Y-14747484D02*
X7505801Y-14737960D01*
X7505801Y-14737960D02*
X7496277Y-14728436D01*
X7496277Y-14728436D02*
X7486753Y-14709388D01*
X7486753Y-14709388D02*
X7477229Y-14671293D01*
X7477229Y-14671293D02*
X7477229Y-14623674D01*
X7477229Y-14623674D02*
X7486753Y-14585579D01*
X7486753Y-14585579D02*
X7496277Y-14566531D01*
X7496277Y-14566531D02*
X7505801Y-14557008D01*
X7505801Y-14557008D02*
X7524848Y-14547484D01*
X7667706Y-14566531D02*
X7677229Y-14557008D01*
X7677229Y-14557008D02*
X7696277Y-14547484D01*
X7696277Y-14547484D02*
X7743896Y-14547484D01*
X7743896Y-14547484D02*
X7762944Y-14557008D01*
X7762944Y-14557008D02*
X7772467Y-14566531D01*
X7772467Y-14566531D02*
X7781991Y-14585579D01*
X7781991Y-14585579D02*
X7781991Y-14604627D01*
X7781991Y-14604627D02*
X7772467Y-14633198D01*
X7772467Y-14633198D02*
X7658182Y-14747484D01*
X7658182Y-14747484D02*
X7781991Y-14747484D01*
X7848658Y-14547484D02*
X7981991Y-14547484D01*
X7981991Y-14547484D02*
X7896277Y-14747484D01*
X8143896Y-14547484D02*
X8105801Y-14547484D01*
X8105801Y-14547484D02*
X8086753Y-14557008D01*
X8086753Y-14557008D02*
X8077229Y-14566531D01*
X8077229Y-14566531D02*
X8058182Y-14595103D01*
X8058182Y-14595103D02*
X8048658Y-14633198D01*
X8048658Y-14633198D02*
X8048658Y-14709388D01*
X8048658Y-14709388D02*
X8058182Y-14728436D01*
X8058182Y-14728436D02*
X8067706Y-14737960D01*
X8067706Y-14737960D02*
X8086753Y-14747484D01*
X8086753Y-14747484D02*
X8124848Y-14747484D01*
X8124848Y-14747484D02*
X8143896Y-14737960D01*
X8143896Y-14737960D02*
X8153420Y-14728436D01*
X8153420Y-14728436D02*
X8162944Y-14709388D01*
X8162944Y-14709388D02*
X8162944Y-14661769D01*
X8162944Y-14661769D02*
X8153420Y-14642722D01*
X8153420Y-14642722D02*
X8143896Y-14633198D01*
X8143896Y-14633198D02*
X8124848Y-14623674D01*
X8124848Y-14623674D02*
X8086753Y-14623674D01*
X8086753Y-14623674D02*
X8067706Y-14633198D01*
X8067706Y-14633198D02*
X8058182Y-14642722D01*
X8058182Y-14642722D02*
X8048658Y-14661769D01*
X8239134Y-14547484D02*
X8239134Y-14585579D01*
X8315325Y-14547484D02*
X8315325Y-14585579D01*
X8610563Y-14823674D02*
X8601039Y-14814150D01*
X8601039Y-14814150D02*
X8581991Y-14785579D01*
X8581991Y-14785579D02*
X8572468Y-14766531D01*
X8572468Y-14766531D02*
X8562944Y-14737960D01*
X8562944Y-14737960D02*
X8553420Y-14690341D01*
X8553420Y-14690341D02*
X8553420Y-14652246D01*
X8553420Y-14652246D02*
X8562944Y-14604627D01*
X8562944Y-14604627D02*
X8572468Y-14576055D01*
X8572468Y-14576055D02*
X8581991Y-14557008D01*
X8581991Y-14557008D02*
X8601039Y-14528436D01*
X8601039Y-14528436D02*
X8610563Y-14518912D01*
X8677230Y-14566531D02*
X8686753Y-14557008D01*
X8686753Y-14557008D02*
X8705801Y-14547484D01*
X8705801Y-14547484D02*
X8753420Y-14547484D01*
X8753420Y-14547484D02*
X8772468Y-14557008D01*
X8772468Y-14557008D02*
X8781991Y-14566531D01*
X8781991Y-14566531D02*
X8791515Y-14585579D01*
X8791515Y-14585579D02*
X8791515Y-14604627D01*
X8791515Y-14604627D02*
X8781991Y-14633198D01*
X8781991Y-14633198D02*
X8667706Y-14747484D01*
X8667706Y-14747484D02*
X8791515Y-14747484D01*
X9029611Y-14747484D02*
X9029611Y-14547484D01*
X9115325Y-14747484D02*
X9115325Y-14642722D01*
X9115325Y-14642722D02*
X9105801Y-14623674D01*
X9105801Y-14623674D02*
X9086753Y-14614150D01*
X9086753Y-14614150D02*
X9058182Y-14614150D01*
X9058182Y-14614150D02*
X9039134Y-14623674D01*
X9039134Y-14623674D02*
X9029611Y-14633198D01*
X9239134Y-14747484D02*
X9220087Y-14737960D01*
X9220087Y-14737960D02*
X9210563Y-14728436D01*
X9210563Y-14728436D02*
X9201039Y-14709388D01*
X9201039Y-14709388D02*
X9201039Y-14652246D01*
X9201039Y-14652246D02*
X9210563Y-14633198D01*
X9210563Y-14633198D02*
X9220087Y-14623674D01*
X9220087Y-14623674D02*
X9239134Y-14614150D01*
X9239134Y-14614150D02*
X9267706Y-14614150D01*
X9267706Y-14614150D02*
X9286753Y-14623674D01*
X9286753Y-14623674D02*
X9296277Y-14633198D01*
X9296277Y-14633198D02*
X9305801Y-14652246D01*
X9305801Y-14652246D02*
X9305801Y-14709388D01*
X9305801Y-14709388D02*
X9296277Y-14728436D01*
X9296277Y-14728436D02*
X9286753Y-14737960D01*
X9286753Y-14737960D02*
X9267706Y-14747484D01*
X9267706Y-14747484D02*
X9239134Y-14747484D01*
X9420087Y-14747484D02*
X9401039Y-14737960D01*
X9401039Y-14737960D02*
X9391515Y-14718912D01*
X9391515Y-14718912D02*
X9391515Y-14547484D01*
X9572468Y-14737960D02*
X9553420Y-14747484D01*
X9553420Y-14747484D02*
X9515325Y-14747484D01*
X9515325Y-14747484D02*
X9496277Y-14737960D01*
X9496277Y-14737960D02*
X9486753Y-14718912D01*
X9486753Y-14718912D02*
X9486753Y-14642722D01*
X9486753Y-14642722D02*
X9496277Y-14623674D01*
X9496277Y-14623674D02*
X9515325Y-14614150D01*
X9515325Y-14614150D02*
X9553420Y-14614150D01*
X9553420Y-14614150D02*
X9572468Y-14623674D01*
X9572468Y-14623674D02*
X9581992Y-14642722D01*
X9581992Y-14642722D02*
X9581992Y-14661769D01*
X9581992Y-14661769D02*
X9486753Y-14680817D01*
X9658182Y-14737960D02*
X9677230Y-14747484D01*
X9677230Y-14747484D02*
X9715325Y-14747484D01*
X9715325Y-14747484D02*
X9734373Y-14737960D01*
X9734373Y-14737960D02*
X9743896Y-14718912D01*
X9743896Y-14718912D02*
X9743896Y-14709388D01*
X9743896Y-14709388D02*
X9734373Y-14690341D01*
X9734373Y-14690341D02*
X9715325Y-14680817D01*
X9715325Y-14680817D02*
X9686753Y-14680817D01*
X9686753Y-14680817D02*
X9667706Y-14671293D01*
X9667706Y-14671293D02*
X9658182Y-14652246D01*
X9658182Y-14652246D02*
X9658182Y-14642722D01*
X9658182Y-14642722D02*
X9667706Y-14623674D01*
X9667706Y-14623674D02*
X9686753Y-14614150D01*
X9686753Y-14614150D02*
X9715325Y-14614150D01*
X9715325Y-14614150D02*
X9734373Y-14623674D01*
X9810563Y-14823674D02*
X9820087Y-14814150D01*
X9820087Y-14814150D02*
X9839134Y-14785579D01*
X9839134Y-14785579D02*
X9848658Y-14766531D01*
X9848658Y-14766531D02*
X9858182Y-14737960D01*
X9858182Y-14737960D02*
X9867706Y-14690341D01*
X9867706Y-14690341D02*
X9867706Y-14652246D01*
X9867706Y-14652246D02*
X9858182Y-14604627D01*
X9858182Y-14604627D02*
X9848658Y-14576055D01*
X9848658Y-14576055D02*
X9839134Y-14557008D01*
X9839134Y-14557008D02*
X9820087Y-14528436D01*
X9820087Y-14528436D02*
X9810563Y-14518912D01*
X10172468Y-14823674D02*
X10162944Y-14814150D01*
X10162944Y-14814150D02*
X10143896Y-14785579D01*
X10143896Y-14785579D02*
X10134373Y-14766531D01*
X10134373Y-14766531D02*
X10124849Y-14737960D01*
X10124849Y-14737960D02*
X10115325Y-14690341D01*
X10115325Y-14690341D02*
X10115325Y-14652246D01*
X10115325Y-14652246D02*
X10124849Y-14604627D01*
X10124849Y-14604627D02*
X10134373Y-14576055D01*
X10134373Y-14576055D02*
X10143896Y-14557008D01*
X10143896Y-14557008D02*
X10162944Y-14528436D01*
X10162944Y-14528436D02*
X10172468Y-14518912D01*
X10248658Y-14614150D02*
X10248658Y-14747484D01*
X10248658Y-14633198D02*
X10258182Y-14623674D01*
X10258182Y-14623674D02*
X10277230Y-14614150D01*
X10277230Y-14614150D02*
X10305801Y-14614150D01*
X10305801Y-14614150D02*
X10324849Y-14623674D01*
X10324849Y-14623674D02*
X10334373Y-14642722D01*
X10334373Y-14642722D02*
X10334373Y-14747484D01*
X10458182Y-14747484D02*
X10439134Y-14737960D01*
X10439134Y-14737960D02*
X10429611Y-14728436D01*
X10429611Y-14728436D02*
X10420087Y-14709388D01*
X10420087Y-14709388D02*
X10420087Y-14652246D01*
X10420087Y-14652246D02*
X10429611Y-14633198D01*
X10429611Y-14633198D02*
X10439134Y-14623674D01*
X10439134Y-14623674D02*
X10458182Y-14614150D01*
X10458182Y-14614150D02*
X10486754Y-14614150D01*
X10486754Y-14614150D02*
X10505801Y-14623674D01*
X10505801Y-14623674D02*
X10515325Y-14633198D01*
X10515325Y-14633198D02*
X10524849Y-14652246D01*
X10524849Y-14652246D02*
X10524849Y-14709388D01*
X10524849Y-14709388D02*
X10515325Y-14728436D01*
X10515325Y-14728436D02*
X10505801Y-14737960D01*
X10505801Y-14737960D02*
X10486754Y-14747484D01*
X10486754Y-14747484D02*
X10458182Y-14747484D01*
X10581992Y-14614150D02*
X10658182Y-14614150D01*
X10610563Y-14547484D02*
X10610563Y-14718912D01*
X10610563Y-14718912D02*
X10620087Y-14737960D01*
X10620087Y-14737960D02*
X10639134Y-14747484D01*
X10639134Y-14747484D02*
X10658182Y-14747484D01*
X10877230Y-14614150D02*
X10877230Y-14814150D01*
X10877230Y-14623674D02*
X10896277Y-14614150D01*
X10896277Y-14614150D02*
X10934373Y-14614150D01*
X10934373Y-14614150D02*
X10953420Y-14623674D01*
X10953420Y-14623674D02*
X10962944Y-14633198D01*
X10962944Y-14633198D02*
X10972468Y-14652246D01*
X10972468Y-14652246D02*
X10972468Y-14709388D01*
X10972468Y-14709388D02*
X10962944Y-14728436D01*
X10962944Y-14728436D02*
X10953420Y-14737960D01*
X10953420Y-14737960D02*
X10934373Y-14747484D01*
X10934373Y-14747484D02*
X10896277Y-14747484D01*
X10896277Y-14747484D02*
X10877230Y-14737960D01*
X11086754Y-14747484D02*
X11067706Y-14737960D01*
X11067706Y-14737960D02*
X11058182Y-14718912D01*
X11058182Y-14718912D02*
X11058182Y-14547484D01*
X11248658Y-14747484D02*
X11248658Y-14642722D01*
X11248658Y-14642722D02*
X11239134Y-14623674D01*
X11239134Y-14623674D02*
X11220087Y-14614150D01*
X11220087Y-14614150D02*
X11181992Y-14614150D01*
X11181992Y-14614150D02*
X11162944Y-14623674D01*
X11248658Y-14737960D02*
X11229611Y-14747484D01*
X11229611Y-14747484D02*
X11181992Y-14747484D01*
X11181992Y-14747484D02*
X11162944Y-14737960D01*
X11162944Y-14737960D02*
X11153420Y-14718912D01*
X11153420Y-14718912D02*
X11153420Y-14699865D01*
X11153420Y-14699865D02*
X11162944Y-14680817D01*
X11162944Y-14680817D02*
X11181992Y-14671293D01*
X11181992Y-14671293D02*
X11229611Y-14671293D01*
X11229611Y-14671293D02*
X11248658Y-14661769D01*
X11315325Y-14614150D02*
X11391515Y-14614150D01*
X11343896Y-14547484D02*
X11343896Y-14718912D01*
X11343896Y-14718912D02*
X11353420Y-14737960D01*
X11353420Y-14737960D02*
X11372468Y-14747484D01*
X11372468Y-14747484D02*
X11391515Y-14747484D01*
X11534373Y-14737960D02*
X11515325Y-14747484D01*
X11515325Y-14747484D02*
X11477230Y-14747484D01*
X11477230Y-14747484D02*
X11458182Y-14737960D01*
X11458182Y-14737960D02*
X11448658Y-14718912D01*
X11448658Y-14718912D02*
X11448658Y-14642722D01*
X11448658Y-14642722D02*
X11458182Y-14623674D01*
X11458182Y-14623674D02*
X11477230Y-14614150D01*
X11477230Y-14614150D02*
X11515325Y-14614150D01*
X11515325Y-14614150D02*
X11534373Y-14623674D01*
X11534373Y-14623674D02*
X11543896Y-14642722D01*
X11543896Y-14642722D02*
X11543896Y-14661769D01*
X11543896Y-14661769D02*
X11448658Y-14680817D01*
X11715325Y-14747484D02*
X11715325Y-14547484D01*
X11715325Y-14737960D02*
X11696277Y-14747484D01*
X11696277Y-14747484D02*
X11658182Y-14747484D01*
X11658182Y-14747484D02*
X11639134Y-14737960D01*
X11639134Y-14737960D02*
X11629611Y-14728436D01*
X11629611Y-14728436D02*
X11620087Y-14709388D01*
X11620087Y-14709388D02*
X11620087Y-14652246D01*
X11620087Y-14652246D02*
X11629611Y-14633198D01*
X11629611Y-14633198D02*
X11639134Y-14623674D01*
X11639134Y-14623674D02*
X11658182Y-14614150D01*
X11658182Y-14614150D02*
X11696277Y-14614150D01*
X11696277Y-14614150D02*
X11715325Y-14623674D01*
X11791515Y-14823674D02*
X11801039Y-14814150D01*
X11801039Y-14814150D02*
X11820087Y-14785579D01*
X11820087Y-14785579D02*
X11829611Y-14766531D01*
X11829611Y-14766531D02*
X11839134Y-14737960D01*
X11839134Y-14737960D02*
X11848658Y-14690341D01*
X11848658Y-14690341D02*
X11848658Y-14652246D01*
X11848658Y-14652246D02*
X11839134Y-14604627D01*
X11839134Y-14604627D02*
X11829611Y-14576055D01*
X11829611Y-14576055D02*
X11820087Y-14557008D01*
X11820087Y-14557008D02*
X11801039Y-14528436D01*
X11801039Y-14528436D02*
X11791515Y-14518912D01*
D11*
X4985500Y-14870000D02*
X4985500Y-14970000D01*
X4935500Y-14920000D02*
X5035500Y-14920000D01*
D12*
X5401039Y-15011484D02*
X5286753Y-15011484D01*
X5343896Y-15011484D02*
X5343896Y-14811484D01*
X5343896Y-14811484D02*
X5324848Y-14840055D01*
X5324848Y-14840055D02*
X5305801Y-14859103D01*
X5305801Y-14859103D02*
X5286753Y-14868627D01*
X5486753Y-14992436D02*
X5496277Y-15001960D01*
X5496277Y-15001960D02*
X5486753Y-15011484D01*
X5486753Y-15011484D02*
X5477229Y-15001960D01*
X5477229Y-15001960D02*
X5486753Y-14992436D01*
X5486753Y-14992436D02*
X5486753Y-15011484D01*
X5620086Y-14811484D02*
X5639134Y-14811484D01*
X5639134Y-14811484D02*
X5658182Y-14821008D01*
X5658182Y-14821008D02*
X5667705Y-14830531D01*
X5667705Y-14830531D02*
X5677229Y-14849579D01*
X5677229Y-14849579D02*
X5686753Y-14887674D01*
X5686753Y-14887674D02*
X5686753Y-14935293D01*
X5686753Y-14935293D02*
X5677229Y-14973388D01*
X5677229Y-14973388D02*
X5667705Y-14992436D01*
X5667705Y-14992436D02*
X5658182Y-15001960D01*
X5658182Y-15001960D02*
X5639134Y-15011484D01*
X5639134Y-15011484D02*
X5620086Y-15011484D01*
X5620086Y-15011484D02*
X5601039Y-15001960D01*
X5601039Y-15001960D02*
X5591515Y-14992436D01*
X5591515Y-14992436D02*
X5581991Y-14973388D01*
X5581991Y-14973388D02*
X5572467Y-14935293D01*
X5572467Y-14935293D02*
X5572467Y-14887674D01*
X5572467Y-14887674D02*
X5581991Y-14849579D01*
X5581991Y-14849579D02*
X5591515Y-14830531D01*
X5591515Y-14830531D02*
X5601039Y-14821008D01*
X5601039Y-14821008D02*
X5620086Y-14811484D01*
X5810562Y-14811484D02*
X5829610Y-14811484D01*
X5829610Y-14811484D02*
X5848658Y-14821008D01*
X5848658Y-14821008D02*
X5858182Y-14830531D01*
X5858182Y-14830531D02*
X5867705Y-14849579D01*
X5867705Y-14849579D02*
X5877229Y-14887674D01*
X5877229Y-14887674D02*
X5877229Y-14935293D01*
X5877229Y-14935293D02*
X5867705Y-14973388D01*
X5867705Y-14973388D02*
X5858182Y-14992436D01*
X5858182Y-14992436D02*
X5848658Y-15001960D01*
X5848658Y-15001960D02*
X5829610Y-15011484D01*
X5829610Y-15011484D02*
X5810562Y-15011484D01*
X5810562Y-15011484D02*
X5791515Y-15001960D01*
X5791515Y-15001960D02*
X5781991Y-14992436D01*
X5781991Y-14992436D02*
X5772467Y-14973388D01*
X5772467Y-14973388D02*
X5762943Y-14935293D01*
X5762943Y-14935293D02*
X5762943Y-14887674D01*
X5762943Y-14887674D02*
X5772467Y-14849579D01*
X5772467Y-14849579D02*
X5781991Y-14830531D01*
X5781991Y-14830531D02*
X5791515Y-14821008D01*
X5791515Y-14821008D02*
X5810562Y-14811484D01*
X6001039Y-14811484D02*
X6020086Y-14811484D01*
X6020086Y-14811484D02*
X6039134Y-14821008D01*
X6039134Y-14821008D02*
X6048658Y-14830531D01*
X6048658Y-14830531D02*
X6058182Y-14849579D01*
X6058182Y-14849579D02*
X6067705Y-14887674D01*
X6067705Y-14887674D02*
X6067705Y-14935293D01*
X6067705Y-14935293D02*
X6058182Y-14973388D01*
X6058182Y-14973388D02*
X6048658Y-14992436D01*
X6048658Y-14992436D02*
X6039134Y-15001960D01*
X6039134Y-15001960D02*
X6020086Y-15011484D01*
X6020086Y-15011484D02*
X6001039Y-15011484D01*
X6001039Y-15011484D02*
X5981991Y-15001960D01*
X5981991Y-15001960D02*
X5972467Y-14992436D01*
X5972467Y-14992436D02*
X5962943Y-14973388D01*
X5962943Y-14973388D02*
X5953420Y-14935293D01*
X5953420Y-14935293D02*
X5953420Y-14887674D01*
X5953420Y-14887674D02*
X5962943Y-14849579D01*
X5962943Y-14849579D02*
X5972467Y-14830531D01*
X5972467Y-14830531D02*
X5981991Y-14821008D01*
X5981991Y-14821008D02*
X6001039Y-14811484D01*
X6153420Y-15011484D02*
X6153420Y-14878150D01*
X6153420Y-14897198D02*
X6162943Y-14887674D01*
X6162943Y-14887674D02*
X6181991Y-14878150D01*
X6181991Y-14878150D02*
X6210563Y-14878150D01*
X6210563Y-14878150D02*
X6229610Y-14887674D01*
X6229610Y-14887674D02*
X6239134Y-14906722D01*
X6239134Y-14906722D02*
X6239134Y-15011484D01*
X6239134Y-14906722D02*
X6248658Y-14887674D01*
X6248658Y-14887674D02*
X6267705Y-14878150D01*
X6267705Y-14878150D02*
X6296277Y-14878150D01*
X6296277Y-14878150D02*
X6315324Y-14887674D01*
X6315324Y-14887674D02*
X6324848Y-14906722D01*
X6324848Y-14906722D02*
X6324848Y-15011484D01*
X6420086Y-15011484D02*
X6420086Y-14878150D01*
X6420086Y-14897198D02*
X6429610Y-14887674D01*
X6429610Y-14887674D02*
X6448658Y-14878150D01*
X6448658Y-14878150D02*
X6477229Y-14878150D01*
X6477229Y-14878150D02*
X6496277Y-14887674D01*
X6496277Y-14887674D02*
X6505801Y-14906722D01*
X6505801Y-14906722D02*
X6505801Y-15011484D01*
X6505801Y-14906722D02*
X6515324Y-14887674D01*
X6515324Y-14887674D02*
X6534372Y-14878150D01*
X6534372Y-14878150D02*
X6562943Y-14878150D01*
X6562943Y-14878150D02*
X6581991Y-14887674D01*
X6581991Y-14887674D02*
X6591515Y-14906722D01*
X6591515Y-14906722D02*
X6591515Y-15011484D01*
X6981991Y-14801960D02*
X6810563Y-15059103D01*
X7239134Y-14811484D02*
X7258182Y-14811484D01*
X7258182Y-14811484D02*
X7277229Y-14821008D01*
X7277229Y-14821008D02*
X7286753Y-14830531D01*
X7286753Y-14830531D02*
X7296277Y-14849579D01*
X7296277Y-14849579D02*
X7305801Y-14887674D01*
X7305801Y-14887674D02*
X7305801Y-14935293D01*
X7305801Y-14935293D02*
X7296277Y-14973388D01*
X7296277Y-14973388D02*
X7286753Y-14992436D01*
X7286753Y-14992436D02*
X7277229Y-15001960D01*
X7277229Y-15001960D02*
X7258182Y-15011484D01*
X7258182Y-15011484D02*
X7239134Y-15011484D01*
X7239134Y-15011484D02*
X7220086Y-15001960D01*
X7220086Y-15001960D02*
X7210563Y-14992436D01*
X7210563Y-14992436D02*
X7201039Y-14973388D01*
X7201039Y-14973388D02*
X7191515Y-14935293D01*
X7191515Y-14935293D02*
X7191515Y-14887674D01*
X7191515Y-14887674D02*
X7201039Y-14849579D01*
X7201039Y-14849579D02*
X7210563Y-14830531D01*
X7210563Y-14830531D02*
X7220086Y-14821008D01*
X7220086Y-14821008D02*
X7239134Y-14811484D01*
X7391515Y-14992436D02*
X7401039Y-15001960D01*
X7401039Y-15001960D02*
X7391515Y-15011484D01*
X7391515Y-15011484D02*
X7381991Y-15001960D01*
X7381991Y-15001960D02*
X7391515Y-14992436D01*
X7391515Y-14992436D02*
X7391515Y-15011484D01*
X7524848Y-14811484D02*
X7543896Y-14811484D01*
X7543896Y-14811484D02*
X7562944Y-14821008D01*
X7562944Y-14821008D02*
X7572467Y-14830531D01*
X7572467Y-14830531D02*
X7581991Y-14849579D01*
X7581991Y-14849579D02*
X7591515Y-14887674D01*
X7591515Y-14887674D02*
X7591515Y-14935293D01*
X7591515Y-14935293D02*
X7581991Y-14973388D01*
X7581991Y-14973388D02*
X7572467Y-14992436D01*
X7572467Y-14992436D02*
X7562944Y-15001960D01*
X7562944Y-15001960D02*
X7543896Y-15011484D01*
X7543896Y-15011484D02*
X7524848Y-15011484D01*
X7524848Y-15011484D02*
X7505801Y-15001960D01*
X7505801Y-15001960D02*
X7496277Y-14992436D01*
X7496277Y-14992436D02*
X7486753Y-14973388D01*
X7486753Y-14973388D02*
X7477229Y-14935293D01*
X7477229Y-14935293D02*
X7477229Y-14887674D01*
X7477229Y-14887674D02*
X7486753Y-14849579D01*
X7486753Y-14849579D02*
X7496277Y-14830531D01*
X7496277Y-14830531D02*
X7505801Y-14821008D01*
X7505801Y-14821008D02*
X7524848Y-14811484D01*
X7658182Y-14811484D02*
X7781991Y-14811484D01*
X7781991Y-14811484D02*
X7715325Y-14887674D01*
X7715325Y-14887674D02*
X7743896Y-14887674D01*
X7743896Y-14887674D02*
X7762944Y-14897198D01*
X7762944Y-14897198D02*
X7772467Y-14906722D01*
X7772467Y-14906722D02*
X7781991Y-14925769D01*
X7781991Y-14925769D02*
X7781991Y-14973388D01*
X7781991Y-14973388D02*
X7772467Y-14992436D01*
X7772467Y-14992436D02*
X7762944Y-15001960D01*
X7762944Y-15001960D02*
X7743896Y-15011484D01*
X7743896Y-15011484D02*
X7686753Y-15011484D01*
X7686753Y-15011484D02*
X7667706Y-15001960D01*
X7667706Y-15001960D02*
X7658182Y-14992436D01*
X7877229Y-15011484D02*
X7915325Y-15011484D01*
X7915325Y-15011484D02*
X7934372Y-15001960D01*
X7934372Y-15001960D02*
X7943896Y-14992436D01*
X7943896Y-14992436D02*
X7962944Y-14963865D01*
X7962944Y-14963865D02*
X7972467Y-14925769D01*
X7972467Y-14925769D02*
X7972467Y-14849579D01*
X7972467Y-14849579D02*
X7962944Y-14830531D01*
X7962944Y-14830531D02*
X7953420Y-14821008D01*
X7953420Y-14821008D02*
X7934372Y-14811484D01*
X7934372Y-14811484D02*
X7896277Y-14811484D01*
X7896277Y-14811484D02*
X7877229Y-14821008D01*
X7877229Y-14821008D02*
X7867706Y-14830531D01*
X7867706Y-14830531D02*
X7858182Y-14849579D01*
X7858182Y-14849579D02*
X7858182Y-14897198D01*
X7858182Y-14897198D02*
X7867706Y-14916246D01*
X7867706Y-14916246D02*
X7877229Y-14925769D01*
X7877229Y-14925769D02*
X7896277Y-14935293D01*
X7896277Y-14935293D02*
X7934372Y-14935293D01*
X7934372Y-14935293D02*
X7953420Y-14925769D01*
X7953420Y-14925769D02*
X7962944Y-14916246D01*
X7962944Y-14916246D02*
X7972467Y-14897198D01*
X8143896Y-14878150D02*
X8143896Y-15011484D01*
X8096277Y-14801960D02*
X8048658Y-14944817D01*
X8048658Y-14944817D02*
X8172467Y-14944817D01*
X8239134Y-14811484D02*
X8239134Y-14849579D01*
X8315325Y-14811484D02*
X8315325Y-14849579D01*
X8610563Y-15087674D02*
X8601039Y-15078150D01*
X8601039Y-15078150D02*
X8581991Y-15049579D01*
X8581991Y-15049579D02*
X8572468Y-15030531D01*
X8572468Y-15030531D02*
X8562944Y-15001960D01*
X8562944Y-15001960D02*
X8553420Y-14954341D01*
X8553420Y-14954341D02*
X8553420Y-14916246D01*
X8553420Y-14916246D02*
X8562944Y-14868627D01*
X8562944Y-14868627D02*
X8572468Y-14840055D01*
X8572468Y-14840055D02*
X8581991Y-14821008D01*
X8581991Y-14821008D02*
X8601039Y-14792436D01*
X8601039Y-14792436D02*
X8610563Y-14782912D01*
X8677230Y-14830531D02*
X8686753Y-14821008D01*
X8686753Y-14821008D02*
X8705801Y-14811484D01*
X8705801Y-14811484D02*
X8753420Y-14811484D01*
X8753420Y-14811484D02*
X8772468Y-14821008D01*
X8772468Y-14821008D02*
X8781991Y-14830531D01*
X8781991Y-14830531D02*
X8791515Y-14849579D01*
X8791515Y-14849579D02*
X8791515Y-14868627D01*
X8791515Y-14868627D02*
X8781991Y-14897198D01*
X8781991Y-14897198D02*
X8667706Y-15011484D01*
X8667706Y-15011484D02*
X8791515Y-15011484D01*
X9029611Y-15011484D02*
X9029611Y-14811484D01*
X9115325Y-15011484D02*
X9115325Y-14906722D01*
X9115325Y-14906722D02*
X9105801Y-14887674D01*
X9105801Y-14887674D02*
X9086753Y-14878150D01*
X9086753Y-14878150D02*
X9058182Y-14878150D01*
X9058182Y-14878150D02*
X9039134Y-14887674D01*
X9039134Y-14887674D02*
X9029611Y-14897198D01*
X9239134Y-15011484D02*
X9220087Y-15001960D01*
X9220087Y-15001960D02*
X9210563Y-14992436D01*
X9210563Y-14992436D02*
X9201039Y-14973388D01*
X9201039Y-14973388D02*
X9201039Y-14916246D01*
X9201039Y-14916246D02*
X9210563Y-14897198D01*
X9210563Y-14897198D02*
X9220087Y-14887674D01*
X9220087Y-14887674D02*
X9239134Y-14878150D01*
X9239134Y-14878150D02*
X9267706Y-14878150D01*
X9267706Y-14878150D02*
X9286753Y-14887674D01*
X9286753Y-14887674D02*
X9296277Y-14897198D01*
X9296277Y-14897198D02*
X9305801Y-14916246D01*
X9305801Y-14916246D02*
X9305801Y-14973388D01*
X9305801Y-14973388D02*
X9296277Y-14992436D01*
X9296277Y-14992436D02*
X9286753Y-15001960D01*
X9286753Y-15001960D02*
X9267706Y-15011484D01*
X9267706Y-15011484D02*
X9239134Y-15011484D01*
X9420087Y-15011484D02*
X9401039Y-15001960D01*
X9401039Y-15001960D02*
X9391515Y-14982912D01*
X9391515Y-14982912D02*
X9391515Y-14811484D01*
X9572468Y-15001960D02*
X9553420Y-15011484D01*
X9553420Y-15011484D02*
X9515325Y-15011484D01*
X9515325Y-15011484D02*
X9496277Y-15001960D01*
X9496277Y-15001960D02*
X9486753Y-14982912D01*
X9486753Y-14982912D02*
X9486753Y-14906722D01*
X9486753Y-14906722D02*
X9496277Y-14887674D01*
X9496277Y-14887674D02*
X9515325Y-14878150D01*
X9515325Y-14878150D02*
X9553420Y-14878150D01*
X9553420Y-14878150D02*
X9572468Y-14887674D01*
X9572468Y-14887674D02*
X9581992Y-14906722D01*
X9581992Y-14906722D02*
X9581992Y-14925769D01*
X9581992Y-14925769D02*
X9486753Y-14944817D01*
X9658182Y-15001960D02*
X9677230Y-15011484D01*
X9677230Y-15011484D02*
X9715325Y-15011484D01*
X9715325Y-15011484D02*
X9734373Y-15001960D01*
X9734373Y-15001960D02*
X9743896Y-14982912D01*
X9743896Y-14982912D02*
X9743896Y-14973388D01*
X9743896Y-14973388D02*
X9734373Y-14954341D01*
X9734373Y-14954341D02*
X9715325Y-14944817D01*
X9715325Y-14944817D02*
X9686753Y-14944817D01*
X9686753Y-14944817D02*
X9667706Y-14935293D01*
X9667706Y-14935293D02*
X9658182Y-14916246D01*
X9658182Y-14916246D02*
X9658182Y-14906722D01*
X9658182Y-14906722D02*
X9667706Y-14887674D01*
X9667706Y-14887674D02*
X9686753Y-14878150D01*
X9686753Y-14878150D02*
X9715325Y-14878150D01*
X9715325Y-14878150D02*
X9734373Y-14887674D01*
X9810563Y-15087674D02*
X9820087Y-15078150D01*
X9820087Y-15078150D02*
X9839134Y-15049579D01*
X9839134Y-15049579D02*
X9848658Y-15030531D01*
X9848658Y-15030531D02*
X9858182Y-15001960D01*
X9858182Y-15001960D02*
X9867706Y-14954341D01*
X9867706Y-14954341D02*
X9867706Y-14916246D01*
X9867706Y-14916246D02*
X9858182Y-14868627D01*
X9858182Y-14868627D02*
X9848658Y-14840055D01*
X9848658Y-14840055D02*
X9839134Y-14821008D01*
X9839134Y-14821008D02*
X9820087Y-14792436D01*
X9820087Y-14792436D02*
X9810563Y-14782912D01*
X10172468Y-15087674D02*
X10162944Y-15078150D01*
X10162944Y-15078150D02*
X10143896Y-15049579D01*
X10143896Y-15049579D02*
X10134373Y-15030531D01*
X10134373Y-15030531D02*
X10124849Y-15001960D01*
X10124849Y-15001960D02*
X10115325Y-14954341D01*
X10115325Y-14954341D02*
X10115325Y-14916246D01*
X10115325Y-14916246D02*
X10124849Y-14868627D01*
X10124849Y-14868627D02*
X10134373Y-14840055D01*
X10134373Y-14840055D02*
X10143896Y-14821008D01*
X10143896Y-14821008D02*
X10162944Y-14792436D01*
X10162944Y-14792436D02*
X10172468Y-14782912D01*
X10248658Y-14878150D02*
X10248658Y-15011484D01*
X10248658Y-14897198D02*
X10258182Y-14887674D01*
X10258182Y-14887674D02*
X10277230Y-14878150D01*
X10277230Y-14878150D02*
X10305801Y-14878150D01*
X10305801Y-14878150D02*
X10324849Y-14887674D01*
X10324849Y-14887674D02*
X10334373Y-14906722D01*
X10334373Y-14906722D02*
X10334373Y-15011484D01*
X10458182Y-15011484D02*
X10439134Y-15001960D01*
X10439134Y-15001960D02*
X10429611Y-14992436D01*
X10429611Y-14992436D02*
X10420087Y-14973388D01*
X10420087Y-14973388D02*
X10420087Y-14916246D01*
X10420087Y-14916246D02*
X10429611Y-14897198D01*
X10429611Y-14897198D02*
X10439134Y-14887674D01*
X10439134Y-14887674D02*
X10458182Y-14878150D01*
X10458182Y-14878150D02*
X10486754Y-14878150D01*
X10486754Y-14878150D02*
X10505801Y-14887674D01*
X10505801Y-14887674D02*
X10515325Y-14897198D01*
X10515325Y-14897198D02*
X10524849Y-14916246D01*
X10524849Y-14916246D02*
X10524849Y-14973388D01*
X10524849Y-14973388D02*
X10515325Y-14992436D01*
X10515325Y-14992436D02*
X10505801Y-15001960D01*
X10505801Y-15001960D02*
X10486754Y-15011484D01*
X10486754Y-15011484D02*
X10458182Y-15011484D01*
X10581992Y-14878150D02*
X10658182Y-14878150D01*
X10610563Y-14811484D02*
X10610563Y-14982912D01*
X10610563Y-14982912D02*
X10620087Y-15001960D01*
X10620087Y-15001960D02*
X10639134Y-15011484D01*
X10639134Y-15011484D02*
X10658182Y-15011484D01*
X10877230Y-14878150D02*
X10877230Y-15078150D01*
X10877230Y-14887674D02*
X10896277Y-14878150D01*
X10896277Y-14878150D02*
X10934373Y-14878150D01*
X10934373Y-14878150D02*
X10953420Y-14887674D01*
X10953420Y-14887674D02*
X10962944Y-14897198D01*
X10962944Y-14897198D02*
X10972468Y-14916246D01*
X10972468Y-14916246D02*
X10972468Y-14973388D01*
X10972468Y-14973388D02*
X10962944Y-14992436D01*
X10962944Y-14992436D02*
X10953420Y-15001960D01*
X10953420Y-15001960D02*
X10934373Y-15011484D01*
X10934373Y-15011484D02*
X10896277Y-15011484D01*
X10896277Y-15011484D02*
X10877230Y-15001960D01*
X11086754Y-15011484D02*
X11067706Y-15001960D01*
X11067706Y-15001960D02*
X11058182Y-14982912D01*
X11058182Y-14982912D02*
X11058182Y-14811484D01*
X11248658Y-15011484D02*
X11248658Y-14906722D01*
X11248658Y-14906722D02*
X11239134Y-14887674D01*
X11239134Y-14887674D02*
X11220087Y-14878150D01*
X11220087Y-14878150D02*
X11181992Y-14878150D01*
X11181992Y-14878150D02*
X11162944Y-14887674D01*
X11248658Y-15001960D02*
X11229611Y-15011484D01*
X11229611Y-15011484D02*
X11181992Y-15011484D01*
X11181992Y-15011484D02*
X11162944Y-15001960D01*
X11162944Y-15001960D02*
X11153420Y-14982912D01*
X11153420Y-14982912D02*
X11153420Y-14963865D01*
X11153420Y-14963865D02*
X11162944Y-14944817D01*
X11162944Y-14944817D02*
X11181992Y-14935293D01*
X11181992Y-14935293D02*
X11229611Y-14935293D01*
X11229611Y-14935293D02*
X11248658Y-14925769D01*
X11315325Y-14878150D02*
X11391515Y-14878150D01*
X11343896Y-14811484D02*
X11343896Y-14982912D01*
X11343896Y-14982912D02*
X11353420Y-15001960D01*
X11353420Y-15001960D02*
X11372468Y-15011484D01*
X11372468Y-15011484D02*
X11391515Y-15011484D01*
X11534373Y-15001960D02*
X11515325Y-15011484D01*
X11515325Y-15011484D02*
X11477230Y-15011484D01*
X11477230Y-15011484D02*
X11458182Y-15001960D01*
X11458182Y-15001960D02*
X11448658Y-14982912D01*
X11448658Y-14982912D02*
X11448658Y-14906722D01*
X11448658Y-14906722D02*
X11458182Y-14887674D01*
X11458182Y-14887674D02*
X11477230Y-14878150D01*
X11477230Y-14878150D02*
X11515325Y-14878150D01*
X11515325Y-14878150D02*
X11534373Y-14887674D01*
X11534373Y-14887674D02*
X11543896Y-14906722D01*
X11543896Y-14906722D02*
X11543896Y-14925769D01*
X11543896Y-14925769D02*
X11448658Y-14944817D01*
X11715325Y-15011484D02*
X11715325Y-14811484D01*
X11715325Y-15001960D02*
X11696277Y-15011484D01*
X11696277Y-15011484D02*
X11658182Y-15011484D01*
X11658182Y-15011484D02*
X11639134Y-15001960D01*
X11639134Y-15001960D02*
X11629611Y-14992436D01*
X11629611Y-14992436D02*
X11620087Y-14973388D01*
X11620087Y-14973388D02*
X11620087Y-14916246D01*
X11620087Y-14916246D02*
X11629611Y-14897198D01*
X11629611Y-14897198D02*
X11639134Y-14887674D01*
X11639134Y-14887674D02*
X11658182Y-14878150D01*
X11658182Y-14878150D02*
X11696277Y-14878150D01*
X11696277Y-14878150D02*
X11715325Y-14887674D01*
X11791515Y-15087674D02*
X11801039Y-15078150D01*
X11801039Y-15078150D02*
X11820087Y-15049579D01*
X11820087Y-15049579D02*
X11829611Y-15030531D01*
X11829611Y-15030531D02*
X11839134Y-15001960D01*
X11839134Y-15001960D02*
X11848658Y-14954341D01*
X11848658Y-14954341D02*
X11848658Y-14916246D01*
X11848658Y-14916246D02*
X11839134Y-14868627D01*
X11839134Y-14868627D02*
X11829611Y-14840055D01*
X11829611Y-14840055D02*
X11820087Y-14821008D01*
X11820087Y-14821008D02*
X11801039Y-14792436D01*
X11801039Y-14792436D02*
X11791515Y-14782912D01*
D13*
X5010578Y-15244168D02*
X5010578Y-15123832D01*
X4890242Y-15123832D01*
X4890242Y-15244168D01*
X5010578Y-15244168D01*
D12*
X5401039Y-15275484D02*
X5286753Y-15275484D01*
X5343896Y-15275484D02*
X5343896Y-15075484D01*
X5343896Y-15075484D02*
X5324848Y-15104055D01*
X5324848Y-15104055D02*
X5305801Y-15123103D01*
X5305801Y-15123103D02*
X5286753Y-15132627D01*
X5486753Y-15256436D02*
X5496277Y-15265960D01*
X5496277Y-15265960D02*
X5486753Y-15275484D01*
X5486753Y-15275484D02*
X5477229Y-15265960D01*
X5477229Y-15265960D02*
X5486753Y-15256436D01*
X5486753Y-15256436D02*
X5486753Y-15275484D01*
X5562944Y-15075484D02*
X5696277Y-15075484D01*
X5696277Y-15075484D02*
X5610562Y-15275484D01*
X5810562Y-15075484D02*
X5829610Y-15075484D01*
X5829610Y-15075484D02*
X5848658Y-15085008D01*
X5848658Y-15085008D02*
X5858182Y-15094531D01*
X5858182Y-15094531D02*
X5867705Y-15113579D01*
X5867705Y-15113579D02*
X5877229Y-15151674D01*
X5877229Y-15151674D02*
X5877229Y-15199293D01*
X5877229Y-15199293D02*
X5867705Y-15237388D01*
X5867705Y-15237388D02*
X5858182Y-15256436D01*
X5858182Y-15256436D02*
X5848658Y-15265960D01*
X5848658Y-15265960D02*
X5829610Y-15275484D01*
X5829610Y-15275484D02*
X5810562Y-15275484D01*
X5810562Y-15275484D02*
X5791515Y-15265960D01*
X5791515Y-15265960D02*
X5781991Y-15256436D01*
X5781991Y-15256436D02*
X5772467Y-15237388D01*
X5772467Y-15237388D02*
X5762943Y-15199293D01*
X5762943Y-15199293D02*
X5762943Y-15151674D01*
X5762943Y-15151674D02*
X5772467Y-15113579D01*
X5772467Y-15113579D02*
X5781991Y-15094531D01*
X5781991Y-15094531D02*
X5791515Y-15085008D01*
X5791515Y-15085008D02*
X5810562Y-15075484D01*
X5953420Y-15094531D02*
X5962943Y-15085008D01*
X5962943Y-15085008D02*
X5981991Y-15075484D01*
X5981991Y-15075484D02*
X6029610Y-15075484D01*
X6029610Y-15075484D02*
X6048658Y-15085008D01*
X6048658Y-15085008D02*
X6058182Y-15094531D01*
X6058182Y-15094531D02*
X6067705Y-15113579D01*
X6067705Y-15113579D02*
X6067705Y-15132627D01*
X6067705Y-15132627D02*
X6058182Y-15161198D01*
X6058182Y-15161198D02*
X5943896Y-15275484D01*
X5943896Y-15275484D02*
X6067705Y-15275484D01*
X6153420Y-15275484D02*
X6153420Y-15142150D01*
X6153420Y-15161198D02*
X6162943Y-15151674D01*
X6162943Y-15151674D02*
X6181991Y-15142150D01*
X6181991Y-15142150D02*
X6210563Y-15142150D01*
X6210563Y-15142150D02*
X6229610Y-15151674D01*
X6229610Y-15151674D02*
X6239134Y-15170722D01*
X6239134Y-15170722D02*
X6239134Y-15275484D01*
X6239134Y-15170722D02*
X6248658Y-15151674D01*
X6248658Y-15151674D02*
X6267705Y-15142150D01*
X6267705Y-15142150D02*
X6296277Y-15142150D01*
X6296277Y-15142150D02*
X6315324Y-15151674D01*
X6315324Y-15151674D02*
X6324848Y-15170722D01*
X6324848Y-15170722D02*
X6324848Y-15275484D01*
X6420086Y-15275484D02*
X6420086Y-15142150D01*
X6420086Y-15161198D02*
X6429610Y-15151674D01*
X6429610Y-15151674D02*
X6448658Y-15142150D01*
X6448658Y-15142150D02*
X6477229Y-15142150D01*
X6477229Y-15142150D02*
X6496277Y-15151674D01*
X6496277Y-15151674D02*
X6505801Y-15170722D01*
X6505801Y-15170722D02*
X6505801Y-15275484D01*
X6505801Y-15170722D02*
X6515324Y-15151674D01*
X6515324Y-15151674D02*
X6534372Y-15142150D01*
X6534372Y-15142150D02*
X6562943Y-15142150D01*
X6562943Y-15142150D02*
X6581991Y-15151674D01*
X6581991Y-15151674D02*
X6591515Y-15170722D01*
X6591515Y-15170722D02*
X6591515Y-15275484D01*
X6981991Y-15065960D02*
X6810563Y-15323103D01*
X7239134Y-15075484D02*
X7258182Y-15075484D01*
X7258182Y-15075484D02*
X7277229Y-15085008D01*
X7277229Y-15085008D02*
X7286753Y-15094531D01*
X7286753Y-15094531D02*
X7296277Y-15113579D01*
X7296277Y-15113579D02*
X7305801Y-15151674D01*
X7305801Y-15151674D02*
X7305801Y-15199293D01*
X7305801Y-15199293D02*
X7296277Y-15237388D01*
X7296277Y-15237388D02*
X7286753Y-15256436D01*
X7286753Y-15256436D02*
X7277229Y-15265960D01*
X7277229Y-15265960D02*
X7258182Y-15275484D01*
X7258182Y-15275484D02*
X7239134Y-15275484D01*
X7239134Y-15275484D02*
X7220086Y-15265960D01*
X7220086Y-15265960D02*
X7210563Y-15256436D01*
X7210563Y-15256436D02*
X7201039Y-15237388D01*
X7201039Y-15237388D02*
X7191515Y-15199293D01*
X7191515Y-15199293D02*
X7191515Y-15151674D01*
X7191515Y-15151674D02*
X7201039Y-15113579D01*
X7201039Y-15113579D02*
X7210563Y-15094531D01*
X7210563Y-15094531D02*
X7220086Y-15085008D01*
X7220086Y-15085008D02*
X7239134Y-15075484D01*
X7391515Y-15256436D02*
X7401039Y-15265960D01*
X7401039Y-15265960D02*
X7391515Y-15275484D01*
X7391515Y-15275484D02*
X7381991Y-15265960D01*
X7381991Y-15265960D02*
X7391515Y-15256436D01*
X7391515Y-15256436D02*
X7391515Y-15275484D01*
X7524848Y-15075484D02*
X7543896Y-15075484D01*
X7543896Y-15075484D02*
X7562944Y-15085008D01*
X7562944Y-15085008D02*
X7572467Y-15094531D01*
X7572467Y-15094531D02*
X7581991Y-15113579D01*
X7581991Y-15113579D02*
X7591515Y-15151674D01*
X7591515Y-15151674D02*
X7591515Y-15199293D01*
X7591515Y-15199293D02*
X7581991Y-15237388D01*
X7581991Y-15237388D02*
X7572467Y-15256436D01*
X7572467Y-15256436D02*
X7562944Y-15265960D01*
X7562944Y-15265960D02*
X7543896Y-15275484D01*
X7543896Y-15275484D02*
X7524848Y-15275484D01*
X7524848Y-15275484D02*
X7505801Y-15265960D01*
X7505801Y-15265960D02*
X7496277Y-15256436D01*
X7496277Y-15256436D02*
X7486753Y-15237388D01*
X7486753Y-15237388D02*
X7477229Y-15199293D01*
X7477229Y-15199293D02*
X7477229Y-15151674D01*
X7477229Y-15151674D02*
X7486753Y-15113579D01*
X7486753Y-15113579D02*
X7496277Y-15094531D01*
X7496277Y-15094531D02*
X7505801Y-15085008D01*
X7505801Y-15085008D02*
X7524848Y-15075484D01*
X7762944Y-15075484D02*
X7724848Y-15075484D01*
X7724848Y-15075484D02*
X7705801Y-15085008D01*
X7705801Y-15085008D02*
X7696277Y-15094531D01*
X7696277Y-15094531D02*
X7677229Y-15123103D01*
X7677229Y-15123103D02*
X7667706Y-15161198D01*
X7667706Y-15161198D02*
X7667706Y-15237388D01*
X7667706Y-15237388D02*
X7677229Y-15256436D01*
X7677229Y-15256436D02*
X7686753Y-15265960D01*
X7686753Y-15265960D02*
X7705801Y-15275484D01*
X7705801Y-15275484D02*
X7743896Y-15275484D01*
X7743896Y-15275484D02*
X7762944Y-15265960D01*
X7762944Y-15265960D02*
X7772467Y-15256436D01*
X7772467Y-15256436D02*
X7781991Y-15237388D01*
X7781991Y-15237388D02*
X7781991Y-15189769D01*
X7781991Y-15189769D02*
X7772467Y-15170722D01*
X7772467Y-15170722D02*
X7762944Y-15161198D01*
X7762944Y-15161198D02*
X7743896Y-15151674D01*
X7743896Y-15151674D02*
X7705801Y-15151674D01*
X7705801Y-15151674D02*
X7686753Y-15161198D01*
X7686753Y-15161198D02*
X7677229Y-15170722D01*
X7677229Y-15170722D02*
X7667706Y-15189769D01*
X7848658Y-15075484D02*
X7981991Y-15075484D01*
X7981991Y-15075484D02*
X7896277Y-15275484D01*
X8096277Y-15075484D02*
X8115325Y-15075484D01*
X8115325Y-15075484D02*
X8134372Y-15085008D01*
X8134372Y-15085008D02*
X8143896Y-15094531D01*
X8143896Y-15094531D02*
X8153420Y-15113579D01*
X8153420Y-15113579D02*
X8162944Y-15151674D01*
X8162944Y-15151674D02*
X8162944Y-15199293D01*
X8162944Y-15199293D02*
X8153420Y-15237388D01*
X8153420Y-15237388D02*
X8143896Y-15256436D01*
X8143896Y-15256436D02*
X8134372Y-15265960D01*
X8134372Y-15265960D02*
X8115325Y-15275484D01*
X8115325Y-15275484D02*
X8096277Y-15275484D01*
X8096277Y-15275484D02*
X8077229Y-15265960D01*
X8077229Y-15265960D02*
X8067706Y-15256436D01*
X8067706Y-15256436D02*
X8058182Y-15237388D01*
X8058182Y-15237388D02*
X8048658Y-15199293D01*
X8048658Y-15199293D02*
X8048658Y-15151674D01*
X8048658Y-15151674D02*
X8058182Y-15113579D01*
X8058182Y-15113579D02*
X8067706Y-15094531D01*
X8067706Y-15094531D02*
X8077229Y-15085008D01*
X8077229Y-15085008D02*
X8096277Y-15075484D01*
X8239134Y-15075484D02*
X8239134Y-15113579D01*
X8315325Y-15075484D02*
X8315325Y-15113579D01*
X8610563Y-15351674D02*
X8601039Y-15342150D01*
X8601039Y-15342150D02*
X8581991Y-15313579D01*
X8581991Y-15313579D02*
X8572468Y-15294531D01*
X8572468Y-15294531D02*
X8562944Y-15265960D01*
X8562944Y-15265960D02*
X8553420Y-15218341D01*
X8553420Y-15218341D02*
X8553420Y-15180246D01*
X8553420Y-15180246D02*
X8562944Y-15132627D01*
X8562944Y-15132627D02*
X8572468Y-15104055D01*
X8572468Y-15104055D02*
X8581991Y-15085008D01*
X8581991Y-15085008D02*
X8601039Y-15056436D01*
X8601039Y-15056436D02*
X8610563Y-15046912D01*
X8791515Y-15275484D02*
X8677230Y-15275484D01*
X8734372Y-15275484D02*
X8734372Y-15075484D01*
X8734372Y-15075484D02*
X8715325Y-15104055D01*
X8715325Y-15104055D02*
X8696277Y-15123103D01*
X8696277Y-15123103D02*
X8677230Y-15132627D01*
X8905801Y-15161198D02*
X8886753Y-15151674D01*
X8886753Y-15151674D02*
X8877230Y-15142150D01*
X8877230Y-15142150D02*
X8867706Y-15123103D01*
X8867706Y-15123103D02*
X8867706Y-15113579D01*
X8867706Y-15113579D02*
X8877230Y-15094531D01*
X8877230Y-15094531D02*
X8886753Y-15085008D01*
X8886753Y-15085008D02*
X8905801Y-15075484D01*
X8905801Y-15075484D02*
X8943896Y-15075484D01*
X8943896Y-15075484D02*
X8962944Y-15085008D01*
X8962944Y-15085008D02*
X8972468Y-15094531D01*
X8972468Y-15094531D02*
X8981991Y-15113579D01*
X8981991Y-15113579D02*
X8981991Y-15123103D01*
X8981991Y-15123103D02*
X8972468Y-15142150D01*
X8972468Y-15142150D02*
X8962944Y-15151674D01*
X8962944Y-15151674D02*
X8943896Y-15161198D01*
X8943896Y-15161198D02*
X8905801Y-15161198D01*
X8905801Y-15161198D02*
X8886753Y-15170722D01*
X8886753Y-15170722D02*
X8877230Y-15180246D01*
X8877230Y-15180246D02*
X8867706Y-15199293D01*
X8867706Y-15199293D02*
X8867706Y-15237388D01*
X8867706Y-15237388D02*
X8877230Y-15256436D01*
X8877230Y-15256436D02*
X8886753Y-15265960D01*
X8886753Y-15265960D02*
X8905801Y-15275484D01*
X8905801Y-15275484D02*
X8943896Y-15275484D01*
X8943896Y-15275484D02*
X8962944Y-15265960D01*
X8962944Y-15265960D02*
X8972468Y-15256436D01*
X8972468Y-15256436D02*
X8981991Y-15237388D01*
X8981991Y-15237388D02*
X8981991Y-15199293D01*
X8981991Y-15199293D02*
X8972468Y-15180246D01*
X8972468Y-15180246D02*
X8962944Y-15170722D01*
X8962944Y-15170722D02*
X8943896Y-15161198D01*
X9220087Y-15275484D02*
X9220087Y-15075484D01*
X9305801Y-15275484D02*
X9305801Y-15170722D01*
X9305801Y-15170722D02*
X9296277Y-15151674D01*
X9296277Y-15151674D02*
X9277230Y-15142150D01*
X9277230Y-15142150D02*
X9248658Y-15142150D01*
X9248658Y-15142150D02*
X9229611Y-15151674D01*
X9229611Y-15151674D02*
X9220087Y-15161198D01*
X9429611Y-15275484D02*
X9410563Y-15265960D01*
X9410563Y-15265960D02*
X9401039Y-15256436D01*
X9401039Y-15256436D02*
X9391515Y-15237388D01*
X9391515Y-15237388D02*
X9391515Y-15180246D01*
X9391515Y-15180246D02*
X9401039Y-15161198D01*
X9401039Y-15161198D02*
X9410563Y-15151674D01*
X9410563Y-15151674D02*
X9429611Y-15142150D01*
X9429611Y-15142150D02*
X9458182Y-15142150D01*
X9458182Y-15142150D02*
X9477230Y-15151674D01*
X9477230Y-15151674D02*
X9486753Y-15161198D01*
X9486753Y-15161198D02*
X9496277Y-15180246D01*
X9496277Y-15180246D02*
X9496277Y-15237388D01*
X9496277Y-15237388D02*
X9486753Y-15256436D01*
X9486753Y-15256436D02*
X9477230Y-15265960D01*
X9477230Y-15265960D02*
X9458182Y-15275484D01*
X9458182Y-15275484D02*
X9429611Y-15275484D01*
X9610563Y-15275484D02*
X9591515Y-15265960D01*
X9591515Y-15265960D02*
X9581992Y-15246912D01*
X9581992Y-15246912D02*
X9581992Y-15075484D01*
X9762944Y-15265960D02*
X9743896Y-15275484D01*
X9743896Y-15275484D02*
X9705801Y-15275484D01*
X9705801Y-15275484D02*
X9686753Y-15265960D01*
X9686753Y-15265960D02*
X9677230Y-15246912D01*
X9677230Y-15246912D02*
X9677230Y-15170722D01*
X9677230Y-15170722D02*
X9686753Y-15151674D01*
X9686753Y-15151674D02*
X9705801Y-15142150D01*
X9705801Y-15142150D02*
X9743896Y-15142150D01*
X9743896Y-15142150D02*
X9762944Y-15151674D01*
X9762944Y-15151674D02*
X9772468Y-15170722D01*
X9772468Y-15170722D02*
X9772468Y-15189769D01*
X9772468Y-15189769D02*
X9677230Y-15208817D01*
X9848658Y-15265960D02*
X9867706Y-15275484D01*
X9867706Y-15275484D02*
X9905801Y-15275484D01*
X9905801Y-15275484D02*
X9924849Y-15265960D01*
X9924849Y-15265960D02*
X9934373Y-15246912D01*
X9934373Y-15246912D02*
X9934373Y-15237388D01*
X9934373Y-15237388D02*
X9924849Y-15218341D01*
X9924849Y-15218341D02*
X9905801Y-15208817D01*
X9905801Y-15208817D02*
X9877230Y-15208817D01*
X9877230Y-15208817D02*
X9858182Y-15199293D01*
X9858182Y-15199293D02*
X9848658Y-15180246D01*
X9848658Y-15180246D02*
X9848658Y-15170722D01*
X9848658Y-15170722D02*
X9858182Y-15151674D01*
X9858182Y-15151674D02*
X9877230Y-15142150D01*
X9877230Y-15142150D02*
X9905801Y-15142150D01*
X9905801Y-15142150D02*
X9924849Y-15151674D01*
X10001039Y-15351674D02*
X10010563Y-15342150D01*
X10010563Y-15342150D02*
X10029611Y-15313579D01*
X10029611Y-15313579D02*
X10039134Y-15294531D01*
X10039134Y-15294531D02*
X10048658Y-15265960D01*
X10048658Y-15265960D02*
X10058182Y-15218341D01*
X10058182Y-15218341D02*
X10058182Y-15180246D01*
X10058182Y-15180246D02*
X10048658Y-15132627D01*
X10048658Y-15132627D02*
X10039134Y-15104055D01*
X10039134Y-15104055D02*
X10029611Y-15085008D01*
X10029611Y-15085008D02*
X10010563Y-15056436D01*
X10010563Y-15056436D02*
X10001039Y-15046912D01*
X10362944Y-15351674D02*
X10353420Y-15342150D01*
X10353420Y-15342150D02*
X10334373Y-15313579D01*
X10334373Y-15313579D02*
X10324849Y-15294531D01*
X10324849Y-15294531D02*
X10315325Y-15265960D01*
X10315325Y-15265960D02*
X10305801Y-15218341D01*
X10305801Y-15218341D02*
X10305801Y-15180246D01*
X10305801Y-15180246D02*
X10315325Y-15132627D01*
X10315325Y-15132627D02*
X10324849Y-15104055D01*
X10324849Y-15104055D02*
X10334373Y-15085008D01*
X10334373Y-15085008D02*
X10353420Y-15056436D01*
X10353420Y-15056436D02*
X10362944Y-15046912D01*
X10439134Y-15142150D02*
X10439134Y-15275484D01*
X10439134Y-15161198D02*
X10448658Y-15151674D01*
X10448658Y-15151674D02*
X10467706Y-15142150D01*
X10467706Y-15142150D02*
X10496277Y-15142150D01*
X10496277Y-15142150D02*
X10515325Y-15151674D01*
X10515325Y-15151674D02*
X10524849Y-15170722D01*
X10524849Y-15170722D02*
X10524849Y-15275484D01*
X10648658Y-15275484D02*
X10629611Y-15265960D01*
X10629611Y-15265960D02*
X10620087Y-15256436D01*
X10620087Y-15256436D02*
X10610563Y-15237388D01*
X10610563Y-15237388D02*
X10610563Y-15180246D01*
X10610563Y-15180246D02*
X10620087Y-15161198D01*
X10620087Y-15161198D02*
X10629611Y-15151674D01*
X10629611Y-15151674D02*
X10648658Y-15142150D01*
X10648658Y-15142150D02*
X10677230Y-15142150D01*
X10677230Y-15142150D02*
X10696277Y-15151674D01*
X10696277Y-15151674D02*
X10705801Y-15161198D01*
X10705801Y-15161198D02*
X10715325Y-15180246D01*
X10715325Y-15180246D02*
X10715325Y-15237388D01*
X10715325Y-15237388D02*
X10705801Y-15256436D01*
X10705801Y-15256436D02*
X10696277Y-15265960D01*
X10696277Y-15265960D02*
X10677230Y-15275484D01*
X10677230Y-15275484D02*
X10648658Y-15275484D01*
X10772468Y-15142150D02*
X10848658Y-15142150D01*
X10801039Y-15075484D02*
X10801039Y-15246912D01*
X10801039Y-15246912D02*
X10810563Y-15265960D01*
X10810563Y-15265960D02*
X10829611Y-15275484D01*
X10829611Y-15275484D02*
X10848658Y-15275484D01*
X11067706Y-15142150D02*
X11067706Y-15342150D01*
X11067706Y-15151674D02*
X11086754Y-15142150D01*
X11086754Y-15142150D02*
X11124849Y-15142150D01*
X11124849Y-15142150D02*
X11143896Y-15151674D01*
X11143896Y-15151674D02*
X11153420Y-15161198D01*
X11153420Y-15161198D02*
X11162944Y-15180246D01*
X11162944Y-15180246D02*
X11162944Y-15237388D01*
X11162944Y-15237388D02*
X11153420Y-15256436D01*
X11153420Y-15256436D02*
X11143896Y-15265960D01*
X11143896Y-15265960D02*
X11124849Y-15275484D01*
X11124849Y-15275484D02*
X11086754Y-15275484D01*
X11086754Y-15275484D02*
X11067706Y-15265960D01*
X11277230Y-15275484D02*
X11258182Y-15265960D01*
X11258182Y-15265960D02*
X11248658Y-15246912D01*
X11248658Y-15246912D02*
X11248658Y-15075484D01*
X11439134Y-15275484D02*
X11439134Y-15170722D01*
X11439134Y-15170722D02*
X11429611Y-15151674D01*
X11429611Y-15151674D02*
X11410563Y-15142150D01*
X11410563Y-15142150D02*
X11372468Y-15142150D01*
X11372468Y-15142150D02*
X11353420Y-15151674D01*
X11439134Y-15265960D02*
X11420087Y-15275484D01*
X11420087Y-15275484D02*
X11372468Y-15275484D01*
X11372468Y-15275484D02*
X11353420Y-15265960D01*
X11353420Y-15265960D02*
X11343896Y-15246912D01*
X11343896Y-15246912D02*
X11343896Y-15227865D01*
X11343896Y-15227865D02*
X11353420Y-15208817D01*
X11353420Y-15208817D02*
X11372468Y-15199293D01*
X11372468Y-15199293D02*
X11420087Y-15199293D01*
X11420087Y-15199293D02*
X11439134Y-15189769D01*
X11505801Y-15142150D02*
X11581992Y-15142150D01*
X11534373Y-15075484D02*
X11534373Y-15246912D01*
X11534373Y-15246912D02*
X11543896Y-15265960D01*
X11543896Y-15265960D02*
X11562944Y-15275484D01*
X11562944Y-15275484D02*
X11581992Y-15275484D01*
X11724849Y-15265960D02*
X11705801Y-15275484D01*
X11705801Y-15275484D02*
X11667706Y-15275484D01*
X11667706Y-15275484D02*
X11648658Y-15265960D01*
X11648658Y-15265960D02*
X11639134Y-15246912D01*
X11639134Y-15246912D02*
X11639134Y-15170722D01*
X11639134Y-15170722D02*
X11648658Y-15151674D01*
X11648658Y-15151674D02*
X11667706Y-15142150D01*
X11667706Y-15142150D02*
X11705801Y-15142150D01*
X11705801Y-15142150D02*
X11724849Y-15151674D01*
X11724849Y-15151674D02*
X11734373Y-15170722D01*
X11734373Y-15170722D02*
X11734373Y-15189769D01*
X11734373Y-15189769D02*
X11639134Y-15208817D01*
X11905801Y-15275484D02*
X11905801Y-15075484D01*
X11905801Y-15265960D02*
X11886754Y-15275484D01*
X11886754Y-15275484D02*
X11848658Y-15275484D01*
X11848658Y-15275484D02*
X11829611Y-15265960D01*
X11829611Y-15265960D02*
X11820087Y-15256436D01*
X11820087Y-15256436D02*
X11810563Y-15237388D01*
X11810563Y-15237388D02*
X11810563Y-15180246D01*
X11810563Y-15180246D02*
X11820087Y-15161198D01*
X11820087Y-15161198D02*
X11829611Y-15151674D01*
X11829611Y-15151674D02*
X11848658Y-15142150D01*
X11848658Y-15142150D02*
X11886754Y-15142150D01*
X11886754Y-15142150D02*
X11905801Y-15151674D01*
X11981992Y-15351674D02*
X11991515Y-15342150D01*
X11991515Y-15342150D02*
X12010563Y-15313579D01*
X12010563Y-15313579D02*
X12020087Y-15294531D01*
X12020087Y-15294531D02*
X12029611Y-15265960D01*
X12029611Y-15265960D02*
X12039134Y-15218341D01*
X12039134Y-15218341D02*
X12039134Y-15180246D01*
X12039134Y-15180246D02*
X12029611Y-15132627D01*
X12029611Y-15132627D02*
X12020087Y-15104055D01*
X12020087Y-15104055D02*
X12010563Y-15085008D01*
X12010563Y-15085008D02*
X11991515Y-15056436D01*
X11991515Y-15056436D02*
X11981992Y-15046912D01*
X4935500Y-15574180D02*
X5035500Y-15474180D01*
X4935500Y-15374180D01*
X4835500Y-15474180D01*
X4935500Y-15574180D01*
X5277229Y-15365664D02*
X5401039Y-15365664D01*
X5401039Y-15365664D02*
X5334372Y-15441854D01*
X5334372Y-15441854D02*
X5362944Y-15441854D01*
X5362944Y-15441854D02*
X5381991Y-15451378D01*
X5381991Y-15451378D02*
X5391515Y-15460902D01*
X5391515Y-15460902D02*
X5401039Y-15479949D01*
X5401039Y-15479949D02*
X5401039Y-15527568D01*
X5401039Y-15527568D02*
X5391515Y-15546616D01*
X5391515Y-15546616D02*
X5381991Y-15556140D01*
X5381991Y-15556140D02*
X5362944Y-15565664D01*
X5362944Y-15565664D02*
X5305801Y-15565664D01*
X5305801Y-15565664D02*
X5286753Y-15556140D01*
X5286753Y-15556140D02*
X5277229Y-15546616D01*
X5486753Y-15546616D02*
X5496277Y-15556140D01*
X5496277Y-15556140D02*
X5486753Y-15565664D01*
X5486753Y-15565664D02*
X5477229Y-15556140D01*
X5477229Y-15556140D02*
X5486753Y-15546616D01*
X5486753Y-15546616D02*
X5486753Y-15565664D01*
X5620086Y-15365664D02*
X5639134Y-15365664D01*
X5639134Y-15365664D02*
X5658182Y-15375188D01*
X5658182Y-15375188D02*
X5667705Y-15384711D01*
X5667705Y-15384711D02*
X5677229Y-15403759D01*
X5677229Y-15403759D02*
X5686753Y-15441854D01*
X5686753Y-15441854D02*
X5686753Y-15489473D01*
X5686753Y-15489473D02*
X5677229Y-15527568D01*
X5677229Y-15527568D02*
X5667705Y-15546616D01*
X5667705Y-15546616D02*
X5658182Y-15556140D01*
X5658182Y-15556140D02*
X5639134Y-15565664D01*
X5639134Y-15565664D02*
X5620086Y-15565664D01*
X5620086Y-15565664D02*
X5601039Y-15556140D01*
X5601039Y-15556140D02*
X5591515Y-15546616D01*
X5591515Y-15546616D02*
X5581991Y-15527568D01*
X5581991Y-15527568D02*
X5572467Y-15489473D01*
X5572467Y-15489473D02*
X5572467Y-15441854D01*
X5572467Y-15441854D02*
X5581991Y-15403759D01*
X5581991Y-15403759D02*
X5591515Y-15384711D01*
X5591515Y-15384711D02*
X5601039Y-15375188D01*
X5601039Y-15375188D02*
X5620086Y-15365664D01*
X5810562Y-15365664D02*
X5829610Y-15365664D01*
X5829610Y-15365664D02*
X5848658Y-15375188D01*
X5848658Y-15375188D02*
X5858182Y-15384711D01*
X5858182Y-15384711D02*
X5867705Y-15403759D01*
X5867705Y-15403759D02*
X5877229Y-15441854D01*
X5877229Y-15441854D02*
X5877229Y-15489473D01*
X5877229Y-15489473D02*
X5867705Y-15527568D01*
X5867705Y-15527568D02*
X5858182Y-15546616D01*
X5858182Y-15546616D02*
X5848658Y-15556140D01*
X5848658Y-15556140D02*
X5829610Y-15565664D01*
X5829610Y-15565664D02*
X5810562Y-15565664D01*
X5810562Y-15565664D02*
X5791515Y-15556140D01*
X5791515Y-15556140D02*
X5781991Y-15546616D01*
X5781991Y-15546616D02*
X5772467Y-15527568D01*
X5772467Y-15527568D02*
X5762943Y-15489473D01*
X5762943Y-15489473D02*
X5762943Y-15441854D01*
X5762943Y-15441854D02*
X5772467Y-15403759D01*
X5772467Y-15403759D02*
X5781991Y-15384711D01*
X5781991Y-15384711D02*
X5791515Y-15375188D01*
X5791515Y-15375188D02*
X5810562Y-15365664D01*
X6001039Y-15365664D02*
X6020086Y-15365664D01*
X6020086Y-15365664D02*
X6039134Y-15375188D01*
X6039134Y-15375188D02*
X6048658Y-15384711D01*
X6048658Y-15384711D02*
X6058182Y-15403759D01*
X6058182Y-15403759D02*
X6067705Y-15441854D01*
X6067705Y-15441854D02*
X6067705Y-15489473D01*
X6067705Y-15489473D02*
X6058182Y-15527568D01*
X6058182Y-15527568D02*
X6048658Y-15546616D01*
X6048658Y-15546616D02*
X6039134Y-15556140D01*
X6039134Y-15556140D02*
X6020086Y-15565664D01*
X6020086Y-15565664D02*
X6001039Y-15565664D01*
X6001039Y-15565664D02*
X5981991Y-15556140D01*
X5981991Y-15556140D02*
X5972467Y-15546616D01*
X5972467Y-15546616D02*
X5962943Y-15527568D01*
X5962943Y-15527568D02*
X5953420Y-15489473D01*
X5953420Y-15489473D02*
X5953420Y-15441854D01*
X5953420Y-15441854D02*
X5962943Y-15403759D01*
X5962943Y-15403759D02*
X5972467Y-15384711D01*
X5972467Y-15384711D02*
X5981991Y-15375188D01*
X5981991Y-15375188D02*
X6001039Y-15365664D01*
X6153420Y-15565664D02*
X6153420Y-15432330D01*
X6153420Y-15451378D02*
X6162943Y-15441854D01*
X6162943Y-15441854D02*
X6181991Y-15432330D01*
X6181991Y-15432330D02*
X6210563Y-15432330D01*
X6210563Y-15432330D02*
X6229610Y-15441854D01*
X6229610Y-15441854D02*
X6239134Y-15460902D01*
X6239134Y-15460902D02*
X6239134Y-15565664D01*
X6239134Y-15460902D02*
X6248658Y-15441854D01*
X6248658Y-15441854D02*
X6267705Y-15432330D01*
X6267705Y-15432330D02*
X6296277Y-15432330D01*
X6296277Y-15432330D02*
X6315324Y-15441854D01*
X6315324Y-15441854D02*
X6324848Y-15460902D01*
X6324848Y-15460902D02*
X6324848Y-15565664D01*
X6420086Y-15565664D02*
X6420086Y-15432330D01*
X6420086Y-15451378D02*
X6429610Y-15441854D01*
X6429610Y-15441854D02*
X6448658Y-15432330D01*
X6448658Y-15432330D02*
X6477229Y-15432330D01*
X6477229Y-15432330D02*
X6496277Y-15441854D01*
X6496277Y-15441854D02*
X6505801Y-15460902D01*
X6505801Y-15460902D02*
X6505801Y-15565664D01*
X6505801Y-15460902D02*
X6515324Y-15441854D01*
X6515324Y-15441854D02*
X6534372Y-15432330D01*
X6534372Y-15432330D02*
X6562943Y-15432330D01*
X6562943Y-15432330D02*
X6581991Y-15441854D01*
X6581991Y-15441854D02*
X6591515Y-15460902D01*
X6591515Y-15460902D02*
X6591515Y-15565664D01*
X6981991Y-15356140D02*
X6810563Y-15613283D01*
X7239134Y-15365664D02*
X7258182Y-15365664D01*
X7258182Y-15365664D02*
X7277229Y-15375188D01*
X7277229Y-15375188D02*
X7286753Y-15384711D01*
X7286753Y-15384711D02*
X7296277Y-15403759D01*
X7296277Y-15403759D02*
X7305801Y-15441854D01*
X7305801Y-15441854D02*
X7305801Y-15489473D01*
X7305801Y-15489473D02*
X7296277Y-15527568D01*
X7296277Y-15527568D02*
X7286753Y-15546616D01*
X7286753Y-15546616D02*
X7277229Y-15556140D01*
X7277229Y-15556140D02*
X7258182Y-15565664D01*
X7258182Y-15565664D02*
X7239134Y-15565664D01*
X7239134Y-15565664D02*
X7220086Y-15556140D01*
X7220086Y-15556140D02*
X7210563Y-15546616D01*
X7210563Y-15546616D02*
X7201039Y-15527568D01*
X7201039Y-15527568D02*
X7191515Y-15489473D01*
X7191515Y-15489473D02*
X7191515Y-15441854D01*
X7191515Y-15441854D02*
X7201039Y-15403759D01*
X7201039Y-15403759D02*
X7210563Y-15384711D01*
X7210563Y-15384711D02*
X7220086Y-15375188D01*
X7220086Y-15375188D02*
X7239134Y-15365664D01*
X7391515Y-15546616D02*
X7401039Y-15556140D01*
X7401039Y-15556140D02*
X7391515Y-15565664D01*
X7391515Y-15565664D02*
X7381991Y-15556140D01*
X7381991Y-15556140D02*
X7391515Y-15546616D01*
X7391515Y-15546616D02*
X7391515Y-15565664D01*
X7591515Y-15565664D02*
X7477229Y-15565664D01*
X7534372Y-15565664D02*
X7534372Y-15365664D01*
X7534372Y-15365664D02*
X7515325Y-15394235D01*
X7515325Y-15394235D02*
X7496277Y-15413283D01*
X7496277Y-15413283D02*
X7477229Y-15422807D01*
X7781991Y-15565664D02*
X7667706Y-15565664D01*
X7724848Y-15565664D02*
X7724848Y-15365664D01*
X7724848Y-15365664D02*
X7705801Y-15394235D01*
X7705801Y-15394235D02*
X7686753Y-15413283D01*
X7686753Y-15413283D02*
X7667706Y-15422807D01*
X7896277Y-15451378D02*
X7877229Y-15441854D01*
X7877229Y-15441854D02*
X7867706Y-15432330D01*
X7867706Y-15432330D02*
X7858182Y-15413283D01*
X7858182Y-15413283D02*
X7858182Y-15403759D01*
X7858182Y-15403759D02*
X7867706Y-15384711D01*
X7867706Y-15384711D02*
X7877229Y-15375188D01*
X7877229Y-15375188D02*
X7896277Y-15365664D01*
X7896277Y-15365664D02*
X7934372Y-15365664D01*
X7934372Y-15365664D02*
X7953420Y-15375188D01*
X7953420Y-15375188D02*
X7962944Y-15384711D01*
X7962944Y-15384711D02*
X7972467Y-15403759D01*
X7972467Y-15403759D02*
X7972467Y-15413283D01*
X7972467Y-15413283D02*
X7962944Y-15432330D01*
X7962944Y-15432330D02*
X7953420Y-15441854D01*
X7953420Y-15441854D02*
X7934372Y-15451378D01*
X7934372Y-15451378D02*
X7896277Y-15451378D01*
X7896277Y-15451378D02*
X7877229Y-15460902D01*
X7877229Y-15460902D02*
X7867706Y-15470426D01*
X7867706Y-15470426D02*
X7858182Y-15489473D01*
X7858182Y-15489473D02*
X7858182Y-15527568D01*
X7858182Y-15527568D02*
X7867706Y-15546616D01*
X7867706Y-15546616D02*
X7877229Y-15556140D01*
X7877229Y-15556140D02*
X7896277Y-15565664D01*
X7896277Y-15565664D02*
X7934372Y-15565664D01*
X7934372Y-15565664D02*
X7953420Y-15556140D01*
X7953420Y-15556140D02*
X7962944Y-15546616D01*
X7962944Y-15546616D02*
X7972467Y-15527568D01*
X7972467Y-15527568D02*
X7972467Y-15489473D01*
X7972467Y-15489473D02*
X7962944Y-15470426D01*
X7962944Y-15470426D02*
X7953420Y-15460902D01*
X7953420Y-15460902D02*
X7934372Y-15451378D01*
X8162944Y-15565664D02*
X8048658Y-15565664D01*
X8105801Y-15565664D02*
X8105801Y-15365664D01*
X8105801Y-15365664D02*
X8086753Y-15394235D01*
X8086753Y-15394235D02*
X8067706Y-15413283D01*
X8067706Y-15413283D02*
X8048658Y-15422807D01*
X8239134Y-15365664D02*
X8239134Y-15403759D01*
X8315325Y-15365664D02*
X8315325Y-15403759D01*
X8610563Y-15641854D02*
X8601039Y-15632330D01*
X8601039Y-15632330D02*
X8581991Y-15603759D01*
X8581991Y-15603759D02*
X8572468Y-15584711D01*
X8572468Y-15584711D02*
X8562944Y-15556140D01*
X8562944Y-15556140D02*
X8553420Y-15508521D01*
X8553420Y-15508521D02*
X8553420Y-15470426D01*
X8553420Y-15470426D02*
X8562944Y-15422807D01*
X8562944Y-15422807D02*
X8572468Y-15394235D01*
X8572468Y-15394235D02*
X8581991Y-15375188D01*
X8581991Y-15375188D02*
X8601039Y-15346616D01*
X8601039Y-15346616D02*
X8610563Y-15337092D01*
X8791515Y-15565664D02*
X8677230Y-15565664D01*
X8734372Y-15565664D02*
X8734372Y-15365664D01*
X8734372Y-15365664D02*
X8715325Y-15394235D01*
X8715325Y-15394235D02*
X8696277Y-15413283D01*
X8696277Y-15413283D02*
X8677230Y-15422807D01*
X8905801Y-15451378D02*
X8886753Y-15441854D01*
X8886753Y-15441854D02*
X8877230Y-15432330D01*
X8877230Y-15432330D02*
X8867706Y-15413283D01*
X8867706Y-15413283D02*
X8867706Y-15403759D01*
X8867706Y-15403759D02*
X8877230Y-15384711D01*
X8877230Y-15384711D02*
X8886753Y-15375188D01*
X8886753Y-15375188D02*
X8905801Y-15365664D01*
X8905801Y-15365664D02*
X8943896Y-15365664D01*
X8943896Y-15365664D02*
X8962944Y-15375188D01*
X8962944Y-15375188D02*
X8972468Y-15384711D01*
X8972468Y-15384711D02*
X8981991Y-15403759D01*
X8981991Y-15403759D02*
X8981991Y-15413283D01*
X8981991Y-15413283D02*
X8972468Y-15432330D01*
X8972468Y-15432330D02*
X8962944Y-15441854D01*
X8962944Y-15441854D02*
X8943896Y-15451378D01*
X8943896Y-15451378D02*
X8905801Y-15451378D01*
X8905801Y-15451378D02*
X8886753Y-15460902D01*
X8886753Y-15460902D02*
X8877230Y-15470426D01*
X8877230Y-15470426D02*
X8867706Y-15489473D01*
X8867706Y-15489473D02*
X8867706Y-15527568D01*
X8867706Y-15527568D02*
X8877230Y-15546616D01*
X8877230Y-15546616D02*
X8886753Y-15556140D01*
X8886753Y-15556140D02*
X8905801Y-15565664D01*
X8905801Y-15565664D02*
X8943896Y-15565664D01*
X8943896Y-15565664D02*
X8962944Y-15556140D01*
X8962944Y-15556140D02*
X8972468Y-15546616D01*
X8972468Y-15546616D02*
X8981991Y-15527568D01*
X8981991Y-15527568D02*
X8981991Y-15489473D01*
X8981991Y-15489473D02*
X8972468Y-15470426D01*
X8972468Y-15470426D02*
X8962944Y-15460902D01*
X8962944Y-15460902D02*
X8943896Y-15451378D01*
X9220087Y-15565664D02*
X9220087Y-15365664D01*
X9305801Y-15565664D02*
X9305801Y-15460902D01*
X9305801Y-15460902D02*
X9296277Y-15441854D01*
X9296277Y-15441854D02*
X9277230Y-15432330D01*
X9277230Y-15432330D02*
X9248658Y-15432330D01*
X9248658Y-15432330D02*
X9229611Y-15441854D01*
X9229611Y-15441854D02*
X9220087Y-15451378D01*
X9429611Y-15565664D02*
X9410563Y-15556140D01*
X9410563Y-15556140D02*
X9401039Y-15546616D01*
X9401039Y-15546616D02*
X9391515Y-15527568D01*
X9391515Y-15527568D02*
X9391515Y-15470426D01*
X9391515Y-15470426D02*
X9401039Y-15451378D01*
X9401039Y-15451378D02*
X9410563Y-15441854D01*
X9410563Y-15441854D02*
X9429611Y-15432330D01*
X9429611Y-15432330D02*
X9458182Y-15432330D01*
X9458182Y-15432330D02*
X9477230Y-15441854D01*
X9477230Y-15441854D02*
X9486753Y-15451378D01*
X9486753Y-15451378D02*
X9496277Y-15470426D01*
X9496277Y-15470426D02*
X9496277Y-15527568D01*
X9496277Y-15527568D02*
X9486753Y-15546616D01*
X9486753Y-15546616D02*
X9477230Y-15556140D01*
X9477230Y-15556140D02*
X9458182Y-15565664D01*
X9458182Y-15565664D02*
X9429611Y-15565664D01*
X9610563Y-15565664D02*
X9591515Y-15556140D01*
X9591515Y-15556140D02*
X9581992Y-15537092D01*
X9581992Y-15537092D02*
X9581992Y-15365664D01*
X9762944Y-15556140D02*
X9743896Y-15565664D01*
X9743896Y-15565664D02*
X9705801Y-15565664D01*
X9705801Y-15565664D02*
X9686753Y-15556140D01*
X9686753Y-15556140D02*
X9677230Y-15537092D01*
X9677230Y-15537092D02*
X9677230Y-15460902D01*
X9677230Y-15460902D02*
X9686753Y-15441854D01*
X9686753Y-15441854D02*
X9705801Y-15432330D01*
X9705801Y-15432330D02*
X9743896Y-15432330D01*
X9743896Y-15432330D02*
X9762944Y-15441854D01*
X9762944Y-15441854D02*
X9772468Y-15460902D01*
X9772468Y-15460902D02*
X9772468Y-15479949D01*
X9772468Y-15479949D02*
X9677230Y-15498997D01*
X9848658Y-15556140D02*
X9867706Y-15565664D01*
X9867706Y-15565664D02*
X9905801Y-15565664D01*
X9905801Y-15565664D02*
X9924849Y-15556140D01*
X9924849Y-15556140D02*
X9934373Y-15537092D01*
X9934373Y-15537092D02*
X9934373Y-15527568D01*
X9934373Y-15527568D02*
X9924849Y-15508521D01*
X9924849Y-15508521D02*
X9905801Y-15498997D01*
X9905801Y-15498997D02*
X9877230Y-15498997D01*
X9877230Y-15498997D02*
X9858182Y-15489473D01*
X9858182Y-15489473D02*
X9848658Y-15470426D01*
X9848658Y-15470426D02*
X9848658Y-15460902D01*
X9848658Y-15460902D02*
X9858182Y-15441854D01*
X9858182Y-15441854D02*
X9877230Y-15432330D01*
X9877230Y-15432330D02*
X9905801Y-15432330D01*
X9905801Y-15432330D02*
X9924849Y-15441854D01*
X10001039Y-15641854D02*
X10010563Y-15632330D01*
X10010563Y-15632330D02*
X10029611Y-15603759D01*
X10029611Y-15603759D02*
X10039134Y-15584711D01*
X10039134Y-15584711D02*
X10048658Y-15556140D01*
X10048658Y-15556140D02*
X10058182Y-15508521D01*
X10058182Y-15508521D02*
X10058182Y-15470426D01*
X10058182Y-15470426D02*
X10048658Y-15422807D01*
X10048658Y-15422807D02*
X10039134Y-15394235D01*
X10039134Y-15394235D02*
X10029611Y-15375188D01*
X10029611Y-15375188D02*
X10010563Y-15346616D01*
X10010563Y-15346616D02*
X10001039Y-15337092D01*
X10362944Y-15641854D02*
X10353420Y-15632330D01*
X10353420Y-15632330D02*
X10334373Y-15603759D01*
X10334373Y-15603759D02*
X10324849Y-15584711D01*
X10324849Y-15584711D02*
X10315325Y-15556140D01*
X10315325Y-15556140D02*
X10305801Y-15508521D01*
X10305801Y-15508521D02*
X10305801Y-15470426D01*
X10305801Y-15470426D02*
X10315325Y-15422807D01*
X10315325Y-15422807D02*
X10324849Y-15394235D01*
X10324849Y-15394235D02*
X10334373Y-15375188D01*
X10334373Y-15375188D02*
X10353420Y-15346616D01*
X10353420Y-15346616D02*
X10362944Y-15337092D01*
X10439134Y-15432330D02*
X10439134Y-15565664D01*
X10439134Y-15451378D02*
X10448658Y-15441854D01*
X10448658Y-15441854D02*
X10467706Y-15432330D01*
X10467706Y-15432330D02*
X10496277Y-15432330D01*
X10496277Y-15432330D02*
X10515325Y-15441854D01*
X10515325Y-15441854D02*
X10524849Y-15460902D01*
X10524849Y-15460902D02*
X10524849Y-15565664D01*
X10648658Y-15565664D02*
X10629611Y-15556140D01*
X10629611Y-15556140D02*
X10620087Y-15546616D01*
X10620087Y-15546616D02*
X10610563Y-15527568D01*
X10610563Y-15527568D02*
X10610563Y-15470426D01*
X10610563Y-15470426D02*
X10620087Y-15451378D01*
X10620087Y-15451378D02*
X10629611Y-15441854D01*
X10629611Y-15441854D02*
X10648658Y-15432330D01*
X10648658Y-15432330D02*
X10677230Y-15432330D01*
X10677230Y-15432330D02*
X10696277Y-15441854D01*
X10696277Y-15441854D02*
X10705801Y-15451378D01*
X10705801Y-15451378D02*
X10715325Y-15470426D01*
X10715325Y-15470426D02*
X10715325Y-15527568D01*
X10715325Y-15527568D02*
X10705801Y-15546616D01*
X10705801Y-15546616D02*
X10696277Y-15556140D01*
X10696277Y-15556140D02*
X10677230Y-15565664D01*
X10677230Y-15565664D02*
X10648658Y-15565664D01*
X10772468Y-15432330D02*
X10848658Y-15432330D01*
X10801039Y-15365664D02*
X10801039Y-15537092D01*
X10801039Y-15537092D02*
X10810563Y-15556140D01*
X10810563Y-15556140D02*
X10829611Y-15565664D01*
X10829611Y-15565664D02*
X10848658Y-15565664D01*
X11067706Y-15432330D02*
X11067706Y-15632330D01*
X11067706Y-15441854D02*
X11086754Y-15432330D01*
X11086754Y-15432330D02*
X11124849Y-15432330D01*
X11124849Y-15432330D02*
X11143896Y-15441854D01*
X11143896Y-15441854D02*
X11153420Y-15451378D01*
X11153420Y-15451378D02*
X11162944Y-15470426D01*
X11162944Y-15470426D02*
X11162944Y-15527568D01*
X11162944Y-15527568D02*
X11153420Y-15546616D01*
X11153420Y-15546616D02*
X11143896Y-15556140D01*
X11143896Y-15556140D02*
X11124849Y-15565664D01*
X11124849Y-15565664D02*
X11086754Y-15565664D01*
X11086754Y-15565664D02*
X11067706Y-15556140D01*
X11277230Y-15565664D02*
X11258182Y-15556140D01*
X11258182Y-15556140D02*
X11248658Y-15537092D01*
X11248658Y-15537092D02*
X11248658Y-15365664D01*
X11439134Y-15565664D02*
X11439134Y-15460902D01*
X11439134Y-15460902D02*
X11429611Y-15441854D01*
X11429611Y-15441854D02*
X11410563Y-15432330D01*
X11410563Y-15432330D02*
X11372468Y-15432330D01*
X11372468Y-15432330D02*
X11353420Y-15441854D01*
X11439134Y-15556140D02*
X11420087Y-15565664D01*
X11420087Y-15565664D02*
X11372468Y-15565664D01*
X11372468Y-15565664D02*
X11353420Y-15556140D01*
X11353420Y-15556140D02*
X11343896Y-15537092D01*
X11343896Y-15537092D02*
X11343896Y-15518045D01*
X11343896Y-15518045D02*
X11353420Y-15498997D01*
X11353420Y-15498997D02*
X11372468Y-15489473D01*
X11372468Y-15489473D02*
X11420087Y-15489473D01*
X11420087Y-15489473D02*
X11439134Y-15479949D01*
X11505801Y-15432330D02*
X11581992Y-15432330D01*
X11534373Y-15365664D02*
X11534373Y-15537092D01*
X11534373Y-15537092D02*
X11543896Y-15556140D01*
X11543896Y-15556140D02*
X11562944Y-15565664D01*
X11562944Y-15565664D02*
X11581992Y-15565664D01*
X11724849Y-15556140D02*
X11705801Y-15565664D01*
X11705801Y-15565664D02*
X11667706Y-15565664D01*
X11667706Y-15565664D02*
X11648658Y-15556140D01*
X11648658Y-15556140D02*
X11639134Y-15537092D01*
X11639134Y-15537092D02*
X11639134Y-15460902D01*
X11639134Y-15460902D02*
X11648658Y-15441854D01*
X11648658Y-15441854D02*
X11667706Y-15432330D01*
X11667706Y-15432330D02*
X11705801Y-15432330D01*
X11705801Y-15432330D02*
X11724849Y-15441854D01*
X11724849Y-15441854D02*
X11734373Y-15460902D01*
X11734373Y-15460902D02*
X11734373Y-15479949D01*
X11734373Y-15479949D02*
X11639134Y-15498997D01*
X11905801Y-15565664D02*
X11905801Y-15365664D01*
X11905801Y-15556140D02*
X11886754Y-15565664D01*
X11886754Y-15565664D02*
X11848658Y-15565664D01*
X11848658Y-15565664D02*
X11829611Y-15556140D01*
X11829611Y-15556140D02*
X11820087Y-15546616D01*
X11820087Y-15546616D02*
X11810563Y-15527568D01*
X11810563Y-15527568D02*
X11810563Y-15470426D01*
X11810563Y-15470426D02*
X11820087Y-15451378D01*
X11820087Y-15451378D02*
X11829611Y-15441854D01*
X11829611Y-15441854D02*
X11848658Y-15432330D01*
X11848658Y-15432330D02*
X11886754Y-15432330D01*
X11886754Y-15432330D02*
X11905801Y-15441854D01*
X11981992Y-15641854D02*
X11991515Y-15632330D01*
X11991515Y-15632330D02*
X12010563Y-15603759D01*
X12010563Y-15603759D02*
X12020087Y-15584711D01*
X12020087Y-15584711D02*
X12029611Y-15556140D01*
X12029611Y-15556140D02*
X12039134Y-15508521D01*
X12039134Y-15508521D02*
X12039134Y-15470426D01*
X12039134Y-15470426D02*
X12029611Y-15422807D01*
X12029611Y-15422807D02*
X12020087Y-15394235D01*
X12020087Y-15394235D02*
X12010563Y-15375188D01*
X12010563Y-15375188D02*
X11991515Y-15346616D01*
X11991515Y-15346616D02*
X11981992Y-15337092D01*
X4835500Y-15694180D02*
X5035500Y-15894180D01*
X5035500Y-15694180D02*
X4835500Y-15894180D01*
X5035500Y-15794180D02*
G75*
G02*
X4835500Y-15794180I-100000J0D01*
G01*
X4835500Y-15794180D02*
G75*
G02*
X5035500Y-15794180I100000J0D01*
G01*
X5277229Y-15685664D02*
X5401039Y-15685664D01*
X5401039Y-15685664D02*
X5334372Y-15761854D01*
X5334372Y-15761854D02*
X5362944Y-15761854D01*
X5362944Y-15761854D02*
X5381991Y-15771378D01*
X5381991Y-15771378D02*
X5391515Y-15780902D01*
X5391515Y-15780902D02*
X5401039Y-15799949D01*
X5401039Y-15799949D02*
X5401039Y-15847568D01*
X5401039Y-15847568D02*
X5391515Y-15866616D01*
X5391515Y-15866616D02*
X5381991Y-15876140D01*
X5381991Y-15876140D02*
X5362944Y-15885664D01*
X5362944Y-15885664D02*
X5305801Y-15885664D01*
X5305801Y-15885664D02*
X5286753Y-15876140D01*
X5286753Y-15876140D02*
X5277229Y-15866616D01*
X5486753Y-15866616D02*
X5496277Y-15876140D01*
X5496277Y-15876140D02*
X5486753Y-15885664D01*
X5486753Y-15885664D02*
X5477229Y-15876140D01*
X5477229Y-15876140D02*
X5486753Y-15866616D01*
X5486753Y-15866616D02*
X5486753Y-15885664D01*
X5591515Y-15885664D02*
X5629610Y-15885664D01*
X5629610Y-15885664D02*
X5648658Y-15876140D01*
X5648658Y-15876140D02*
X5658182Y-15866616D01*
X5658182Y-15866616D02*
X5677229Y-15838045D01*
X5677229Y-15838045D02*
X5686753Y-15799949D01*
X5686753Y-15799949D02*
X5686753Y-15723759D01*
X5686753Y-15723759D02*
X5677229Y-15704711D01*
X5677229Y-15704711D02*
X5667705Y-15695188D01*
X5667705Y-15695188D02*
X5648658Y-15685664D01*
X5648658Y-15685664D02*
X5610562Y-15685664D01*
X5610562Y-15685664D02*
X5591515Y-15695188D01*
X5591515Y-15695188D02*
X5581991Y-15704711D01*
X5581991Y-15704711D02*
X5572467Y-15723759D01*
X5572467Y-15723759D02*
X5572467Y-15771378D01*
X5572467Y-15771378D02*
X5581991Y-15790426D01*
X5581991Y-15790426D02*
X5591515Y-15799949D01*
X5591515Y-15799949D02*
X5610562Y-15809473D01*
X5610562Y-15809473D02*
X5648658Y-15809473D01*
X5648658Y-15809473D02*
X5667705Y-15799949D01*
X5667705Y-15799949D02*
X5677229Y-15790426D01*
X5677229Y-15790426D02*
X5686753Y-15771378D01*
X5801039Y-15771378D02*
X5781991Y-15761854D01*
X5781991Y-15761854D02*
X5772467Y-15752330D01*
X5772467Y-15752330D02*
X5762943Y-15733283D01*
X5762943Y-15733283D02*
X5762943Y-15723759D01*
X5762943Y-15723759D02*
X5772467Y-15704711D01*
X5772467Y-15704711D02*
X5781991Y-15695188D01*
X5781991Y-15695188D02*
X5801039Y-15685664D01*
X5801039Y-15685664D02*
X5839134Y-15685664D01*
X5839134Y-15685664D02*
X5858182Y-15695188D01*
X5858182Y-15695188D02*
X5867705Y-15704711D01*
X5867705Y-15704711D02*
X5877229Y-15723759D01*
X5877229Y-15723759D02*
X5877229Y-15733283D01*
X5877229Y-15733283D02*
X5867705Y-15752330D01*
X5867705Y-15752330D02*
X5858182Y-15761854D01*
X5858182Y-15761854D02*
X5839134Y-15771378D01*
X5839134Y-15771378D02*
X5801039Y-15771378D01*
X5801039Y-15771378D02*
X5781991Y-15780902D01*
X5781991Y-15780902D02*
X5772467Y-15790426D01*
X5772467Y-15790426D02*
X5762943Y-15809473D01*
X5762943Y-15809473D02*
X5762943Y-15847568D01*
X5762943Y-15847568D02*
X5772467Y-15866616D01*
X5772467Y-15866616D02*
X5781991Y-15876140D01*
X5781991Y-15876140D02*
X5801039Y-15885664D01*
X5801039Y-15885664D02*
X5839134Y-15885664D01*
X5839134Y-15885664D02*
X5858182Y-15876140D01*
X5858182Y-15876140D02*
X5867705Y-15866616D01*
X5867705Y-15866616D02*
X5877229Y-15847568D01*
X5877229Y-15847568D02*
X5877229Y-15809473D01*
X5877229Y-15809473D02*
X5867705Y-15790426D01*
X5867705Y-15790426D02*
X5858182Y-15780902D01*
X5858182Y-15780902D02*
X5839134Y-15771378D01*
X5991515Y-15771378D02*
X5972467Y-15761854D01*
X5972467Y-15761854D02*
X5962943Y-15752330D01*
X5962943Y-15752330D02*
X5953420Y-15733283D01*
X5953420Y-15733283D02*
X5953420Y-15723759D01*
X5953420Y-15723759D02*
X5962943Y-15704711D01*
X5962943Y-15704711D02*
X5972467Y-15695188D01*
X5972467Y-15695188D02*
X5991515Y-15685664D01*
X5991515Y-15685664D02*
X6029610Y-15685664D01*
X6029610Y-15685664D02*
X6048658Y-15695188D01*
X6048658Y-15695188D02*
X6058182Y-15704711D01*
X6058182Y-15704711D02*
X6067705Y-15723759D01*
X6067705Y-15723759D02*
X6067705Y-15733283D01*
X6067705Y-15733283D02*
X6058182Y-15752330D01*
X6058182Y-15752330D02*
X6048658Y-15761854D01*
X6048658Y-15761854D02*
X6029610Y-15771378D01*
X6029610Y-15771378D02*
X5991515Y-15771378D01*
X5991515Y-15771378D02*
X5972467Y-15780902D01*
X5972467Y-15780902D02*
X5962943Y-15790426D01*
X5962943Y-15790426D02*
X5953420Y-15809473D01*
X5953420Y-15809473D02*
X5953420Y-15847568D01*
X5953420Y-15847568D02*
X5962943Y-15866616D01*
X5962943Y-15866616D02*
X5972467Y-15876140D01*
X5972467Y-15876140D02*
X5991515Y-15885664D01*
X5991515Y-15885664D02*
X6029610Y-15885664D01*
X6029610Y-15885664D02*
X6048658Y-15876140D01*
X6048658Y-15876140D02*
X6058182Y-15866616D01*
X6058182Y-15866616D02*
X6067705Y-15847568D01*
X6067705Y-15847568D02*
X6067705Y-15809473D01*
X6067705Y-15809473D02*
X6058182Y-15790426D01*
X6058182Y-15790426D02*
X6048658Y-15780902D01*
X6048658Y-15780902D02*
X6029610Y-15771378D01*
X6153420Y-15885664D02*
X6153420Y-15752330D01*
X6153420Y-15771378D02*
X6162943Y-15761854D01*
X6162943Y-15761854D02*
X6181991Y-15752330D01*
X6181991Y-15752330D02*
X6210563Y-15752330D01*
X6210563Y-15752330D02*
X6229610Y-15761854D01*
X6229610Y-15761854D02*
X6239134Y-15780902D01*
X6239134Y-15780902D02*
X6239134Y-15885664D01*
X6239134Y-15780902D02*
X6248658Y-15761854D01*
X6248658Y-15761854D02*
X6267705Y-15752330D01*
X6267705Y-15752330D02*
X6296277Y-15752330D01*
X6296277Y-15752330D02*
X6315324Y-15761854D01*
X6315324Y-15761854D02*
X6324848Y-15780902D01*
X6324848Y-15780902D02*
X6324848Y-15885664D01*
X6420086Y-15885664D02*
X6420086Y-15752330D01*
X6420086Y-15771378D02*
X6429610Y-15761854D01*
X6429610Y-15761854D02*
X6448658Y-15752330D01*
X6448658Y-15752330D02*
X6477229Y-15752330D01*
X6477229Y-15752330D02*
X6496277Y-15761854D01*
X6496277Y-15761854D02*
X6505801Y-15780902D01*
X6505801Y-15780902D02*
X6505801Y-15885664D01*
X6505801Y-15780902D02*
X6515324Y-15761854D01*
X6515324Y-15761854D02*
X6534372Y-15752330D01*
X6534372Y-15752330D02*
X6562943Y-15752330D01*
X6562943Y-15752330D02*
X6581991Y-15761854D01*
X6581991Y-15761854D02*
X6591515Y-15780902D01*
X6591515Y-15780902D02*
X6591515Y-15885664D01*
X6981991Y-15676140D02*
X6810563Y-15933283D01*
X7239134Y-15685664D02*
X7258182Y-15685664D01*
X7258182Y-15685664D02*
X7277229Y-15695188D01*
X7277229Y-15695188D02*
X7286753Y-15704711D01*
X7286753Y-15704711D02*
X7296277Y-15723759D01*
X7296277Y-15723759D02*
X7305801Y-15761854D01*
X7305801Y-15761854D02*
X7305801Y-15809473D01*
X7305801Y-15809473D02*
X7296277Y-15847568D01*
X7296277Y-15847568D02*
X7286753Y-15866616D01*
X7286753Y-15866616D02*
X7277229Y-15876140D01*
X7277229Y-15876140D02*
X7258182Y-15885664D01*
X7258182Y-15885664D02*
X7239134Y-15885664D01*
X7239134Y-15885664D02*
X7220086Y-15876140D01*
X7220086Y-15876140D02*
X7210563Y-15866616D01*
X7210563Y-15866616D02*
X7201039Y-15847568D01*
X7201039Y-15847568D02*
X7191515Y-15809473D01*
X7191515Y-15809473D02*
X7191515Y-15761854D01*
X7191515Y-15761854D02*
X7201039Y-15723759D01*
X7201039Y-15723759D02*
X7210563Y-15704711D01*
X7210563Y-15704711D02*
X7220086Y-15695188D01*
X7220086Y-15695188D02*
X7239134Y-15685664D01*
X7391515Y-15866616D02*
X7401039Y-15876140D01*
X7401039Y-15876140D02*
X7391515Y-15885664D01*
X7391515Y-15885664D02*
X7381991Y-15876140D01*
X7381991Y-15876140D02*
X7391515Y-15866616D01*
X7391515Y-15866616D02*
X7391515Y-15885664D01*
X7591515Y-15885664D02*
X7477229Y-15885664D01*
X7534372Y-15885664D02*
X7534372Y-15685664D01*
X7534372Y-15685664D02*
X7515325Y-15714235D01*
X7515325Y-15714235D02*
X7496277Y-15733283D01*
X7496277Y-15733283D02*
X7477229Y-15742807D01*
X7772467Y-15685664D02*
X7677229Y-15685664D01*
X7677229Y-15685664D02*
X7667706Y-15780902D01*
X7667706Y-15780902D02*
X7677229Y-15771378D01*
X7677229Y-15771378D02*
X7696277Y-15761854D01*
X7696277Y-15761854D02*
X7743896Y-15761854D01*
X7743896Y-15761854D02*
X7762944Y-15771378D01*
X7762944Y-15771378D02*
X7772467Y-15780902D01*
X7772467Y-15780902D02*
X7781991Y-15799949D01*
X7781991Y-15799949D02*
X7781991Y-15847568D01*
X7781991Y-15847568D02*
X7772467Y-15866616D01*
X7772467Y-15866616D02*
X7762944Y-15876140D01*
X7762944Y-15876140D02*
X7743896Y-15885664D01*
X7743896Y-15885664D02*
X7696277Y-15885664D01*
X7696277Y-15885664D02*
X7677229Y-15876140D01*
X7677229Y-15876140D02*
X7667706Y-15866616D01*
X7848658Y-15685664D02*
X7981991Y-15685664D01*
X7981991Y-15685664D02*
X7896277Y-15885664D01*
X8096277Y-15685664D02*
X8115325Y-15685664D01*
X8115325Y-15685664D02*
X8134372Y-15695188D01*
X8134372Y-15695188D02*
X8143896Y-15704711D01*
X8143896Y-15704711D02*
X8153420Y-15723759D01*
X8153420Y-15723759D02*
X8162944Y-15761854D01*
X8162944Y-15761854D02*
X8162944Y-15809473D01*
X8162944Y-15809473D02*
X8153420Y-15847568D01*
X8153420Y-15847568D02*
X8143896Y-15866616D01*
X8143896Y-15866616D02*
X8134372Y-15876140D01*
X8134372Y-15876140D02*
X8115325Y-15885664D01*
X8115325Y-15885664D02*
X8096277Y-15885664D01*
X8096277Y-15885664D02*
X8077229Y-15876140D01*
X8077229Y-15876140D02*
X8067706Y-15866616D01*
X8067706Y-15866616D02*
X8058182Y-15847568D01*
X8058182Y-15847568D02*
X8048658Y-15809473D01*
X8048658Y-15809473D02*
X8048658Y-15761854D01*
X8048658Y-15761854D02*
X8058182Y-15723759D01*
X8058182Y-15723759D02*
X8067706Y-15704711D01*
X8067706Y-15704711D02*
X8077229Y-15695188D01*
X8077229Y-15695188D02*
X8096277Y-15685664D01*
X8239134Y-15685664D02*
X8239134Y-15723759D01*
X8315325Y-15685664D02*
X8315325Y-15723759D01*
X8610563Y-15961854D02*
X8601039Y-15952330D01*
X8601039Y-15952330D02*
X8581991Y-15923759D01*
X8581991Y-15923759D02*
X8572468Y-15904711D01*
X8572468Y-15904711D02*
X8562944Y-15876140D01*
X8562944Y-15876140D02*
X8553420Y-15828521D01*
X8553420Y-15828521D02*
X8553420Y-15790426D01*
X8553420Y-15790426D02*
X8562944Y-15742807D01*
X8562944Y-15742807D02*
X8572468Y-15714235D01*
X8572468Y-15714235D02*
X8581991Y-15695188D01*
X8581991Y-15695188D02*
X8601039Y-15666616D01*
X8601039Y-15666616D02*
X8610563Y-15657092D01*
X8696277Y-15885664D02*
X8734372Y-15885664D01*
X8734372Y-15885664D02*
X8753420Y-15876140D01*
X8753420Y-15876140D02*
X8762944Y-15866616D01*
X8762944Y-15866616D02*
X8781991Y-15838045D01*
X8781991Y-15838045D02*
X8791515Y-15799949D01*
X8791515Y-15799949D02*
X8791515Y-15723759D01*
X8791515Y-15723759D02*
X8781991Y-15704711D01*
X8781991Y-15704711D02*
X8772468Y-15695188D01*
X8772468Y-15695188D02*
X8753420Y-15685664D01*
X8753420Y-15685664D02*
X8715325Y-15685664D01*
X8715325Y-15685664D02*
X8696277Y-15695188D01*
X8696277Y-15695188D02*
X8686753Y-15704711D01*
X8686753Y-15704711D02*
X8677230Y-15723759D01*
X8677230Y-15723759D02*
X8677230Y-15771378D01*
X8677230Y-15771378D02*
X8686753Y-15790426D01*
X8686753Y-15790426D02*
X8696277Y-15799949D01*
X8696277Y-15799949D02*
X8715325Y-15809473D01*
X8715325Y-15809473D02*
X8753420Y-15809473D01*
X8753420Y-15809473D02*
X8772468Y-15799949D01*
X8772468Y-15799949D02*
X8781991Y-15790426D01*
X8781991Y-15790426D02*
X8791515Y-15771378D01*
X9029611Y-15885664D02*
X9029611Y-15685664D01*
X9115325Y-15885664D02*
X9115325Y-15780902D01*
X9115325Y-15780902D02*
X9105801Y-15761854D01*
X9105801Y-15761854D02*
X9086753Y-15752330D01*
X9086753Y-15752330D02*
X9058182Y-15752330D01*
X9058182Y-15752330D02*
X9039134Y-15761854D01*
X9039134Y-15761854D02*
X9029611Y-15771378D01*
X9239134Y-15885664D02*
X9220087Y-15876140D01*
X9220087Y-15876140D02*
X9210563Y-15866616D01*
X9210563Y-15866616D02*
X9201039Y-15847568D01*
X9201039Y-15847568D02*
X9201039Y-15790426D01*
X9201039Y-15790426D02*
X9210563Y-15771378D01*
X9210563Y-15771378D02*
X9220087Y-15761854D01*
X9220087Y-15761854D02*
X9239134Y-15752330D01*
X9239134Y-15752330D02*
X9267706Y-15752330D01*
X9267706Y-15752330D02*
X9286753Y-15761854D01*
X9286753Y-15761854D02*
X9296277Y-15771378D01*
X9296277Y-15771378D02*
X9305801Y-15790426D01*
X9305801Y-15790426D02*
X9305801Y-15847568D01*
X9305801Y-15847568D02*
X9296277Y-15866616D01*
X9296277Y-15866616D02*
X9286753Y-15876140D01*
X9286753Y-15876140D02*
X9267706Y-15885664D01*
X9267706Y-15885664D02*
X9239134Y-15885664D01*
X9420087Y-15885664D02*
X9401039Y-15876140D01*
X9401039Y-15876140D02*
X9391515Y-15857092D01*
X9391515Y-15857092D02*
X9391515Y-15685664D01*
X9572468Y-15876140D02*
X9553420Y-15885664D01*
X9553420Y-15885664D02*
X9515325Y-15885664D01*
X9515325Y-15885664D02*
X9496277Y-15876140D01*
X9496277Y-15876140D02*
X9486753Y-15857092D01*
X9486753Y-15857092D02*
X9486753Y-15780902D01*
X9486753Y-15780902D02*
X9496277Y-15761854D01*
X9496277Y-15761854D02*
X9515325Y-15752330D01*
X9515325Y-15752330D02*
X9553420Y-15752330D01*
X9553420Y-15752330D02*
X9572468Y-15761854D01*
X9572468Y-15761854D02*
X9581992Y-15780902D01*
X9581992Y-15780902D02*
X9581992Y-15799949D01*
X9581992Y-15799949D02*
X9486753Y-15818997D01*
X9658182Y-15876140D02*
X9677230Y-15885664D01*
X9677230Y-15885664D02*
X9715325Y-15885664D01*
X9715325Y-15885664D02*
X9734373Y-15876140D01*
X9734373Y-15876140D02*
X9743896Y-15857092D01*
X9743896Y-15857092D02*
X9743896Y-15847568D01*
X9743896Y-15847568D02*
X9734373Y-15828521D01*
X9734373Y-15828521D02*
X9715325Y-15818997D01*
X9715325Y-15818997D02*
X9686753Y-15818997D01*
X9686753Y-15818997D02*
X9667706Y-15809473D01*
X9667706Y-15809473D02*
X9658182Y-15790426D01*
X9658182Y-15790426D02*
X9658182Y-15780902D01*
X9658182Y-15780902D02*
X9667706Y-15761854D01*
X9667706Y-15761854D02*
X9686753Y-15752330D01*
X9686753Y-15752330D02*
X9715325Y-15752330D01*
X9715325Y-15752330D02*
X9734373Y-15761854D01*
X9810563Y-15961854D02*
X9820087Y-15952330D01*
X9820087Y-15952330D02*
X9839134Y-15923759D01*
X9839134Y-15923759D02*
X9848658Y-15904711D01*
X9848658Y-15904711D02*
X9858182Y-15876140D01*
X9858182Y-15876140D02*
X9867706Y-15828521D01*
X9867706Y-15828521D02*
X9867706Y-15790426D01*
X9867706Y-15790426D02*
X9858182Y-15742807D01*
X9858182Y-15742807D02*
X9848658Y-15714235D01*
X9848658Y-15714235D02*
X9839134Y-15695188D01*
X9839134Y-15695188D02*
X9820087Y-15666616D01*
X9820087Y-15666616D02*
X9810563Y-15657092D01*
X10172468Y-15961854D02*
X10162944Y-15952330D01*
X10162944Y-15952330D02*
X10143896Y-15923759D01*
X10143896Y-15923759D02*
X10134373Y-15904711D01*
X10134373Y-15904711D02*
X10124849Y-15876140D01*
X10124849Y-15876140D02*
X10115325Y-15828521D01*
X10115325Y-15828521D02*
X10115325Y-15790426D01*
X10115325Y-15790426D02*
X10124849Y-15742807D01*
X10124849Y-15742807D02*
X10134373Y-15714235D01*
X10134373Y-15714235D02*
X10143896Y-15695188D01*
X10143896Y-15695188D02*
X10162944Y-15666616D01*
X10162944Y-15666616D02*
X10172468Y-15657092D01*
X10248658Y-15752330D02*
X10248658Y-15885664D01*
X10248658Y-15771378D02*
X10258182Y-15761854D01*
X10258182Y-15761854D02*
X10277230Y-15752330D01*
X10277230Y-15752330D02*
X10305801Y-15752330D01*
X10305801Y-15752330D02*
X10324849Y-15761854D01*
X10324849Y-15761854D02*
X10334373Y-15780902D01*
X10334373Y-15780902D02*
X10334373Y-15885664D01*
X10458182Y-15885664D02*
X10439134Y-15876140D01*
X10439134Y-15876140D02*
X10429611Y-15866616D01*
X10429611Y-15866616D02*
X10420087Y-15847568D01*
X10420087Y-15847568D02*
X10420087Y-15790426D01*
X10420087Y-15790426D02*
X10429611Y-15771378D01*
X10429611Y-15771378D02*
X10439134Y-15761854D01*
X10439134Y-15761854D02*
X10458182Y-15752330D01*
X10458182Y-15752330D02*
X10486754Y-15752330D01*
X10486754Y-15752330D02*
X10505801Y-15761854D01*
X10505801Y-15761854D02*
X10515325Y-15771378D01*
X10515325Y-15771378D02*
X10524849Y-15790426D01*
X10524849Y-15790426D02*
X10524849Y-15847568D01*
X10524849Y-15847568D02*
X10515325Y-15866616D01*
X10515325Y-15866616D02*
X10505801Y-15876140D01*
X10505801Y-15876140D02*
X10486754Y-15885664D01*
X10486754Y-15885664D02*
X10458182Y-15885664D01*
X10581992Y-15752330D02*
X10658182Y-15752330D01*
X10610563Y-15685664D02*
X10610563Y-15857092D01*
X10610563Y-15857092D02*
X10620087Y-15876140D01*
X10620087Y-15876140D02*
X10639134Y-15885664D01*
X10639134Y-15885664D02*
X10658182Y-15885664D01*
X10877230Y-15752330D02*
X10877230Y-15952330D01*
X10877230Y-15761854D02*
X10896277Y-15752330D01*
X10896277Y-15752330D02*
X10934373Y-15752330D01*
X10934373Y-15752330D02*
X10953420Y-15761854D01*
X10953420Y-15761854D02*
X10962944Y-15771378D01*
X10962944Y-15771378D02*
X10972468Y-15790426D01*
X10972468Y-15790426D02*
X10972468Y-15847568D01*
X10972468Y-15847568D02*
X10962944Y-15866616D01*
X10962944Y-15866616D02*
X10953420Y-15876140D01*
X10953420Y-15876140D02*
X10934373Y-15885664D01*
X10934373Y-15885664D02*
X10896277Y-15885664D01*
X10896277Y-15885664D02*
X10877230Y-15876140D01*
X11086754Y-15885664D02*
X11067706Y-15876140D01*
X11067706Y-15876140D02*
X11058182Y-15857092D01*
X11058182Y-15857092D02*
X11058182Y-15685664D01*
X11248658Y-15885664D02*
X11248658Y-15780902D01*
X11248658Y-15780902D02*
X11239134Y-15761854D01*
X11239134Y-15761854D02*
X11220087Y-15752330D01*
X11220087Y-15752330D02*
X11181992Y-15752330D01*
X11181992Y-15752330D02*
X11162944Y-15761854D01*
X11248658Y-15876140D02*
X11229611Y-15885664D01*
X11229611Y-15885664D02*
X11181992Y-15885664D01*
X11181992Y-15885664D02*
X11162944Y-15876140D01*
X11162944Y-15876140D02*
X11153420Y-15857092D01*
X11153420Y-15857092D02*
X11153420Y-15838045D01*
X11153420Y-15838045D02*
X11162944Y-15818997D01*
X11162944Y-15818997D02*
X11181992Y-15809473D01*
X11181992Y-15809473D02*
X11229611Y-15809473D01*
X11229611Y-15809473D02*
X11248658Y-15799949D01*
X11315325Y-15752330D02*
X11391515Y-15752330D01*
X11343896Y-15685664D02*
X11343896Y-15857092D01*
X11343896Y-15857092D02*
X11353420Y-15876140D01*
X11353420Y-15876140D02*
X11372468Y-15885664D01*
X11372468Y-15885664D02*
X11391515Y-15885664D01*
X11534373Y-15876140D02*
X11515325Y-15885664D01*
X11515325Y-15885664D02*
X11477230Y-15885664D01*
X11477230Y-15885664D02*
X11458182Y-15876140D01*
X11458182Y-15876140D02*
X11448658Y-15857092D01*
X11448658Y-15857092D02*
X11448658Y-15780902D01*
X11448658Y-15780902D02*
X11458182Y-15761854D01*
X11458182Y-15761854D02*
X11477230Y-15752330D01*
X11477230Y-15752330D02*
X11515325Y-15752330D01*
X11515325Y-15752330D02*
X11534373Y-15761854D01*
X11534373Y-15761854D02*
X11543896Y-15780902D01*
X11543896Y-15780902D02*
X11543896Y-15799949D01*
X11543896Y-15799949D02*
X11448658Y-15818997D01*
X11715325Y-15885664D02*
X11715325Y-15685664D01*
X11715325Y-15876140D02*
X11696277Y-15885664D01*
X11696277Y-15885664D02*
X11658182Y-15885664D01*
X11658182Y-15885664D02*
X11639134Y-15876140D01*
X11639134Y-15876140D02*
X11629611Y-15866616D01*
X11629611Y-15866616D02*
X11620087Y-15847568D01*
X11620087Y-15847568D02*
X11620087Y-15790426D01*
X11620087Y-15790426D02*
X11629611Y-15771378D01*
X11629611Y-15771378D02*
X11639134Y-15761854D01*
X11639134Y-15761854D02*
X11658182Y-15752330D01*
X11658182Y-15752330D02*
X11696277Y-15752330D01*
X11696277Y-15752330D02*
X11715325Y-15761854D01*
X11791515Y-15961854D02*
X11801039Y-15952330D01*
X11801039Y-15952330D02*
X11820087Y-15923759D01*
X11820087Y-15923759D02*
X11829611Y-15904711D01*
X11829611Y-15904711D02*
X11839134Y-15876140D01*
X11839134Y-15876140D02*
X11848658Y-15828521D01*
X11848658Y-15828521D02*
X11848658Y-15790426D01*
X11848658Y-15790426D02*
X11839134Y-15742807D01*
X11839134Y-15742807D02*
X11829611Y-15714235D01*
X11829611Y-15714235D02*
X11820087Y-15695188D01*
X11820087Y-15695188D02*
X11801039Y-15666616D01*
X11801039Y-15666616D02*
X11791515Y-15657092D01*
M02*
