%TF.GenerationSoftware,KiCad,Pcbnew,9.0.8-1.fc43*%
%TF.CreationDate,2026-04-08T18:07:31+05:30*%
%TF.ProjectId,macropad,6d616372-6f70-4616-942e-6b696361645f,rev?*%
%TF.SameCoordinates,Original*%
%TF.FileFunction,Paste,Top*%
%TF.FilePolarity,Positive*%
%FSLAX46Y46*%
G04 Gerber Fmt 4.6, Leading zero omitted, Abs format (unit mm)*
G04 Created by KiCad (PCBNEW 9.0.8-1.fc43) date 2026-04-08 18:07:31*
%MOMM*%
%LPD*%
G01*
G04 APERTURE LIST*
G04 Aperture macros list*
%AMRoundRect*
0 Rectangle with rounded corners*
0 $1 Rounding radius*
0 $2 $3 $4 $5 $6 $7 $8 $9 X,Y pos of 4 corners*
0 Add a 4 corners polygon primitive as box body*
4,1,4,$2,$3,$4,$5,$6,$7,$8,$9,$2,$3,0*
0 Add four circle primitives for the rounded corners*
1,1,$1+$1,$2,$3*
1,1,$1+$1,$4,$5*
1,1,$1+$1,$6,$7*
1,1,$1+$1,$8,$9*
0 Add four rect primitives between the rounded corners*
20,1,$1+$1,$2,$3,$4,$5,0*
20,1,$1+$1,$4,$5,$6,$7,0*
20,1,$1+$1,$6,$7,$8,$9,0*
20,1,$1+$1,$8,$9,$2,$3,0*%
G04 Aperture macros list end*
%ADD10C,0.000000*%
%ADD11RoundRect,0.250000X-0.262500X-0.450000X0.262500X-0.450000X0.262500X0.450000X-0.262500X0.450000X0*%
%ADD12RoundRect,0.200000X0.275000X-0.200000X0.275000X0.200000X-0.275000X0.200000X-0.275000X-0.200000X0*%
%ADD13RoundRect,0.225000X0.250000X-0.225000X0.250000X0.225000X-0.250000X0.225000X-0.250000X-0.225000X0*%
%ADD14RoundRect,0.250000X0.262500X0.450000X-0.262500X0.450000X-0.262500X-0.450000X0.262500X-0.450000X0*%
%ADD15RoundRect,0.250000X0.250000X0.475000X-0.250000X0.475000X-0.250000X-0.475000X0.250000X-0.475000X0*%
%ADD16RoundRect,0.250000X-0.450000X0.262500X-0.450000X-0.262500X0.450000X-0.262500X0.450000X0.262500X0*%
%ADD17R,0.250000X1.150000*%
%ADD18R,0.300000X1.150000*%
%ADD19RoundRect,0.272222X-1.422778X0.707778X-1.422778X-0.707778X1.422778X-0.707778X1.422778X0.707778X0*%
%ADD20RoundRect,0.250000X-0.350000X0.450000X-0.350000X-0.450000X0.350000X-0.450000X0.350000X0.450000X0*%
%ADD21RoundRect,0.200000X-0.275000X0.200000X-0.275000X-0.200000X0.275000X-0.200000X0.275000X0.200000X0*%
%ADD22RoundRect,0.225000X-0.225000X-0.250000X0.225000X-0.250000X0.225000X0.250000X-0.225000X0.250000X0*%
%ADD23RoundRect,0.250000X0.450000X-0.262500X0.450000X0.262500X-0.450000X0.262500X-0.450000X-0.262500X0*%
%ADD24RoundRect,0.052500X-0.347500X-0.122500X0.347500X-0.122500X0.347500X0.122500X-0.347500X0.122500X0*%
%ADD25RoundRect,0.120000X-0.280000X-0.580000X0.280000X-0.580000X0.280000X0.580000X-0.280000X0.580000X0*%
%ADD26RoundRect,0.200000X-0.200000X-0.275000X0.200000X-0.275000X0.200000X0.275000X-0.200000X0.275000X0*%
%ADD27RoundRect,0.225000X-0.250000X0.225000X-0.250000X-0.225000X0.250000X-0.225000X0.250000X0.225000X0*%
%ADD28RoundRect,0.225000X0.225000X0.250000X-0.225000X0.250000X-0.225000X-0.250000X0.225000X-0.250000X0*%
%ADD29RoundRect,0.243750X-0.456250X0.243750X-0.456250X-0.243750X0.456250X-0.243750X0.456250X0.243750X0*%
%ADD30RoundRect,0.250000X-0.475000X0.250000X-0.475000X-0.250000X0.475000X-0.250000X0.475000X0.250000X0*%
%ADD31RoundRect,0.150000X-0.512500X-0.150000X0.512500X-0.150000X0.512500X0.150000X-0.512500X0.150000X0*%
%ADD32RoundRect,0.075000X0.075000X-0.662500X0.075000X0.662500X-0.075000X0.662500X-0.075000X-0.662500X0*%
%ADD33RoundRect,0.075000X0.662500X-0.075000X0.662500X0.075000X-0.662500X0.075000X-0.662500X-0.075000X0*%
%ADD34RoundRect,0.250000X0.255000X0.440000X-0.255000X0.440000X-0.255000X-0.440000X0.255000X-0.440000X0*%
%ADD35RoundRect,0.150000X0.825000X0.150000X-0.825000X0.150000X-0.825000X-0.150000X0.825000X-0.150000X0*%
%ADD36R,1.000000X0.599999*%
%ADD37RoundRect,0.250000X0.475000X-0.250000X0.475000X0.250000X-0.475000X0.250000X-0.475000X-0.250000X0*%
%ADD38RoundRect,0.250000X-0.250000X-0.475000X0.250000X-0.475000X0.250000X0.475000X-0.250000X0.475000X0*%
%ADD39RoundRect,0.200000X0.200000X0.275000X-0.200000X0.275000X-0.200000X-0.275000X0.200000X-0.275000X0*%
%ADD40R,3.600000X2.700000*%
%ADD41RoundRect,0.050000X-0.150000X0.730000X-0.150000X-0.730000X0.150000X-0.730000X0.150000X0.730000X0*%
%ADD42RoundRect,0.250000X0.350000X-0.450000X0.350000X0.450000X-0.350000X0.450000X-0.350000X-0.450000X0*%
%ADD43RoundRect,0.150000X0.150000X-0.512500X0.150000X0.512500X-0.150000X0.512500X-0.150000X-0.512500X0*%
G04 APERTURE END LIST*
D10*
%TO.C,J2*%
G36*
X93089500Y-49612500D02*
G01*
X92589500Y-49612500D01*
X92589500Y-48462500D01*
X93089500Y-48462500D01*
X93089500Y-49612500D01*
G37*
G36*
X93890000Y-49612500D02*
G01*
X93390000Y-49612500D01*
X93390000Y-48462500D01*
X93890000Y-48462500D01*
X93890000Y-49612500D01*
G37*
G36*
X94440000Y-49612500D02*
G01*
X94140000Y-49612500D01*
X94140000Y-48462500D01*
X94440000Y-48462500D01*
X94440000Y-49612500D01*
G37*
G36*
X94940000Y-49612500D02*
G01*
X94640000Y-49612500D01*
X94640000Y-48462500D01*
X94940000Y-48462500D01*
X94940000Y-49612500D01*
G37*
G36*
X95440000Y-49612500D02*
G01*
X95140000Y-49612500D01*
X95140000Y-48462500D01*
X95440000Y-48462500D01*
X95440000Y-49612500D01*
G37*
G36*
X95940000Y-49612500D02*
G01*
X95640000Y-49612500D01*
X95640000Y-48462500D01*
X95940000Y-48462500D01*
X95940000Y-49612500D01*
G37*
G36*
X96440000Y-49612500D02*
G01*
X96140000Y-49612500D01*
X96140000Y-48462500D01*
X96440000Y-48462500D01*
X96440000Y-49612500D01*
G37*
G36*
X96940000Y-49612500D02*
G01*
X96640000Y-49612500D01*
X96640000Y-48462500D01*
X96940000Y-48462500D01*
X96940000Y-49612500D01*
G37*
G36*
X97440000Y-49612500D02*
G01*
X97140000Y-49612500D01*
X97140000Y-48462500D01*
X97440000Y-48462500D01*
X97440000Y-49612500D01*
G37*
G36*
X97940000Y-49612500D02*
G01*
X97640000Y-49612500D01*
X97640000Y-48462500D01*
X97940000Y-48462500D01*
X97940000Y-49612500D01*
G37*
G36*
X98690000Y-49612500D02*
G01*
X98190000Y-49612500D01*
X98190000Y-48462500D01*
X98690000Y-48462500D01*
X98690000Y-49612500D01*
G37*
G36*
X99490000Y-49612500D02*
G01*
X98990000Y-49612500D01*
X98990000Y-48462500D01*
X99490000Y-48462500D01*
X99490000Y-49612500D01*
G37*
G36*
X91765000Y-43384000D02*
G01*
X91794500Y-43387000D01*
X91824000Y-43391500D01*
X91853500Y-43397500D01*
X91882500Y-43405000D01*
X91911000Y-43413500D01*
X91939000Y-43424000D01*
X91966500Y-43435500D01*
X91993500Y-43448500D01*
X92020000Y-43463000D01*
X92045500Y-43478500D01*
X92070000Y-43495000D01*
X92094000Y-43513500D01*
X92117000Y-43532500D01*
X92139000Y-43553000D01*
X92160000Y-43574500D01*
X92179500Y-43596500D01*
X92198000Y-43620000D01*
X92215500Y-43644500D01*
X92232000Y-43669500D01*
X92247000Y-43695500D01*
X92260500Y-43722000D01*
X92273000Y-43749500D01*
X92284000Y-43777000D01*
X92293500Y-43805500D01*
X92301500Y-43834500D01*
X92308000Y-43863500D01*
X92313500Y-43893000D01*
X92317000Y-43922500D01*
X92319000Y-43952500D01*
X92320000Y-43982500D01*
X92320000Y-44582500D01*
X92319000Y-44612500D01*
X92317000Y-44642000D01*
X92313500Y-44672000D01*
X92308000Y-44701500D01*
X92301500Y-44730500D01*
X92293500Y-44759000D01*
X92284000Y-44787500D01*
X92273000Y-44815500D01*
X92260500Y-44842500D01*
X92247000Y-44869500D01*
X92232000Y-44895000D01*
X92215500Y-44920500D01*
X92198000Y-44944500D01*
X92179500Y-44968000D01*
X92160000Y-44990500D01*
X92139000Y-45012000D01*
X92117000Y-45032000D01*
X92094000Y-45051500D01*
X92070000Y-45069500D01*
X92045500Y-45086500D01*
X92020000Y-45102000D01*
X91993500Y-45116500D01*
X91966500Y-45129500D01*
X91939000Y-45141000D01*
X91911000Y-45151000D01*
X91882500Y-45160000D01*
X91853500Y-45167500D01*
X91824000Y-45173500D01*
X91794500Y-45177500D01*
X91765000Y-45180500D01*
X91735000Y-45182000D01*
X91705000Y-45182000D01*
X91675000Y-45180500D01*
X91645500Y-45177500D01*
X91616000Y-45173500D01*
X91586500Y-45167500D01*
X91557500Y-45160000D01*
X91529000Y-45151000D01*
X91501000Y-45141000D01*
X91473000Y-45129500D01*
X91446000Y-45116500D01*
X91420000Y-45102000D01*
X91394500Y-45086500D01*
X91369500Y-45069500D01*
X91346000Y-45051500D01*
X91323000Y-45032000D01*
X91301000Y-45012000D01*
X91280000Y-44990500D01*
X91260500Y-44968000D01*
X91241500Y-44944500D01*
X91224000Y-44920500D01*
X91208000Y-44895000D01*
X91193000Y-44869500D01*
X91179500Y-44842500D01*
X91167000Y-44815500D01*
X91156000Y-44787500D01*
X91146500Y-44759000D01*
X91138500Y-44730500D01*
X91132000Y-44701500D01*
X91126500Y-44672000D01*
X91123000Y-44642000D01*
X91120500Y-44612500D01*
X91120000Y-44582500D01*
X91120000Y-43982500D01*
X91120500Y-43952500D01*
X91123000Y-43922500D01*
X91126500Y-43893000D01*
X91132000Y-43863500D01*
X91138500Y-43834500D01*
X91146500Y-43805500D01*
X91156000Y-43777000D01*
X91167000Y-43749500D01*
X91179500Y-43722000D01*
X91193000Y-43695500D01*
X91208000Y-43669500D01*
X91224000Y-43644500D01*
X91241500Y-43620000D01*
X91260500Y-43596500D01*
X91280000Y-43574500D01*
X91301000Y-43553000D01*
X91323000Y-43532500D01*
X91346000Y-43513500D01*
X91369500Y-43495000D01*
X91394500Y-43478500D01*
X91420000Y-43463000D01*
X91446000Y-43448500D01*
X91473000Y-43435500D01*
X91501000Y-43424000D01*
X91529000Y-43413500D01*
X91557500Y-43405000D01*
X91586500Y-43397500D01*
X91616000Y-43391500D01*
X91645500Y-43387000D01*
X91675000Y-43384000D01*
X91705000Y-43382500D01*
X91735000Y-43382500D01*
X91765000Y-43384000D01*
G37*
G36*
X91765000Y-47464000D02*
G01*
X91794500Y-47467000D01*
X91824000Y-47471500D01*
X91853500Y-47477500D01*
X91882500Y-47485000D01*
X91911000Y-47493500D01*
X91939000Y-47504000D01*
X91966500Y-47515500D01*
X91993500Y-47528500D01*
X92020000Y-47543000D01*
X92045500Y-47558500D01*
X92070000Y-47575000D01*
X92094000Y-47593500D01*
X92117000Y-47612500D01*
X92139000Y-47633000D01*
X92160000Y-47654500D01*
X92179500Y-47676500D01*
X92198000Y-47700000D01*
X92215500Y-47724500D01*
X92232000Y-47749500D01*
X92247000Y-47775500D01*
X92260500Y-47802000D01*
X92273000Y-47829500D01*
X92284000Y-47857000D01*
X92293500Y-47885500D01*
X92301500Y-47914500D01*
X92308000Y-47943500D01*
X92313500Y-47973000D01*
X92317000Y-48002500D01*
X92319000Y-48032500D01*
X92320000Y-48062500D01*
X92320000Y-48862500D01*
X92319000Y-48892500D01*
X92317000Y-48922000D01*
X92313500Y-48952000D01*
X92308000Y-48981500D01*
X92301500Y-49010500D01*
X92293500Y-49039000D01*
X92284000Y-49067500D01*
X92273000Y-49095500D01*
X92260500Y-49122500D01*
X92247000Y-49149500D01*
X92232000Y-49175000D01*
X92215500Y-49200500D01*
X92198000Y-49224500D01*
X92179500Y-49248000D01*
X92160000Y-49270500D01*
X92139000Y-49292000D01*
X92117000Y-49312000D01*
X92094000Y-49331500D01*
X92070000Y-49349500D01*
X92045500Y-49366500D01*
X92020000Y-49382000D01*
X91993500Y-49396500D01*
X91966500Y-49409500D01*
X91939000Y-49421000D01*
X91911000Y-49431000D01*
X91882500Y-49440000D01*
X91853500Y-49447500D01*
X91824000Y-49453500D01*
X91794500Y-49457500D01*
X91765000Y-49460500D01*
X91735000Y-49462000D01*
X91705000Y-49462000D01*
X91675000Y-49460500D01*
X91645500Y-49457500D01*
X91616000Y-49453500D01*
X91586500Y-49447500D01*
X91557500Y-49440000D01*
X91529000Y-49431000D01*
X91501000Y-49421000D01*
X91473000Y-49409500D01*
X91446000Y-49396500D01*
X91420000Y-49382000D01*
X91394500Y-49366500D01*
X91369500Y-49349500D01*
X91346000Y-49331500D01*
X91323000Y-49312000D01*
X91301000Y-49292000D01*
X91280000Y-49270500D01*
X91260500Y-49248000D01*
X91241500Y-49224500D01*
X91224000Y-49200500D01*
X91208000Y-49175000D01*
X91193000Y-49149500D01*
X91179500Y-49122500D01*
X91167000Y-49095500D01*
X91156000Y-49067500D01*
X91146500Y-49039000D01*
X91138500Y-49010500D01*
X91132000Y-48981500D01*
X91126500Y-48952000D01*
X91123000Y-48922000D01*
X91120500Y-48892500D01*
X91120000Y-48862500D01*
X91120000Y-48062500D01*
X91120500Y-48032500D01*
X91123000Y-48002500D01*
X91126500Y-47973000D01*
X91132000Y-47943500D01*
X91138500Y-47914500D01*
X91146500Y-47885500D01*
X91156000Y-47857000D01*
X91167000Y-47829500D01*
X91179500Y-47802000D01*
X91193000Y-47775500D01*
X91208000Y-47749500D01*
X91224000Y-47724500D01*
X91241500Y-47700000D01*
X91260500Y-47676500D01*
X91280000Y-47654500D01*
X91301000Y-47633000D01*
X91323000Y-47612500D01*
X91346000Y-47593500D01*
X91369500Y-47575000D01*
X91394500Y-47558500D01*
X91420000Y-47543000D01*
X91446000Y-47528500D01*
X91473000Y-47515500D01*
X91501000Y-47504000D01*
X91529000Y-47493500D01*
X91557500Y-47485000D01*
X91586500Y-47477500D01*
X91616000Y-47471500D01*
X91645500Y-47467000D01*
X91675000Y-47464000D01*
X91705000Y-47462500D01*
X91735000Y-47462500D01*
X91765000Y-47464000D01*
G37*
G36*
X100405000Y-43384000D02*
G01*
X100434500Y-43387000D01*
X100464000Y-43391500D01*
X100493500Y-43397500D01*
X100522500Y-43405000D01*
X100551000Y-43413500D01*
X100579000Y-43424000D01*
X100607000Y-43435500D01*
X100634000Y-43448500D01*
X100660000Y-43463000D01*
X100685500Y-43478500D01*
X100710500Y-43495000D01*
X100734000Y-43513500D01*
X100757000Y-43532500D01*
X100779000Y-43553000D01*
X100800000Y-43574500D01*
X100819500Y-43596500D01*
X100838500Y-43620000D01*
X100856000Y-43644500D01*
X100872000Y-43669500D01*
X100887000Y-43695500D01*
X100900500Y-43722000D01*
X100913000Y-43749500D01*
X100924000Y-43777000D01*
X100933500Y-43805500D01*
X100941500Y-43834500D01*
X100948000Y-43863500D01*
X100953500Y-43893000D01*
X100957000Y-43922500D01*
X100959500Y-43952500D01*
X100960000Y-43982500D01*
X100960000Y-44582500D01*
X100959500Y-44612500D01*
X100957000Y-44642000D01*
X100953500Y-44672000D01*
X100948000Y-44701500D01*
X100941500Y-44730500D01*
X100933500Y-44759000D01*
X100924000Y-44787500D01*
X100913000Y-44815500D01*
X100900500Y-44842500D01*
X100887000Y-44869500D01*
X100872000Y-44895000D01*
X100856000Y-44920500D01*
X100838500Y-44944500D01*
X100819500Y-44968000D01*
X100800000Y-44990500D01*
X100779000Y-45012000D01*
X100757000Y-45032000D01*
X100734000Y-45051500D01*
X100710500Y-45069500D01*
X100685500Y-45086500D01*
X100660000Y-45102000D01*
X100634000Y-45116500D01*
X100607000Y-45129500D01*
X100579000Y-45141000D01*
X100551000Y-45151000D01*
X100522500Y-45160000D01*
X100493500Y-45167500D01*
X100464000Y-45173500D01*
X100434500Y-45177500D01*
X100405000Y-45180500D01*
X100375000Y-45182000D01*
X100345000Y-45182000D01*
X100315000Y-45180500D01*
X100285500Y-45177500D01*
X100256000Y-45173500D01*
X100226500Y-45167500D01*
X100197500Y-45160000D01*
X100169000Y-45151000D01*
X100141000Y-45141000D01*
X100113500Y-45129500D01*
X100086500Y-45116500D01*
X100060000Y-45102000D01*
X100034500Y-45086500D01*
X100010000Y-45069500D01*
X99986000Y-45051500D01*
X99963000Y-45032000D01*
X99941000Y-45012000D01*
X99920000Y-44990500D01*
X99900500Y-44968000D01*
X99882000Y-44944500D01*
X99864500Y-44920500D01*
X99848000Y-44895000D01*
X99833000Y-44869500D01*
X99819500Y-44842500D01*
X99807000Y-44815500D01*
X99796000Y-44787500D01*
X99786500Y-44759000D01*
X99778500Y-44730500D01*
X99772000Y-44701500D01*
X99766500Y-44672000D01*
X99763000Y-44642000D01*
X99761000Y-44612500D01*
X99760000Y-44582500D01*
X99760000Y-43982500D01*
X99761000Y-43952500D01*
X99763000Y-43922500D01*
X99766500Y-43893000D01*
X99772000Y-43863500D01*
X99778500Y-43834500D01*
X99786500Y-43805500D01*
X99796000Y-43777000D01*
X99807000Y-43749500D01*
X99819500Y-43722000D01*
X99833000Y-43695500D01*
X99848000Y-43669500D01*
X99864500Y-43644500D01*
X99882000Y-43620000D01*
X99900500Y-43596500D01*
X99920000Y-43574500D01*
X99941000Y-43553000D01*
X99963000Y-43532500D01*
X99986000Y-43513500D01*
X100010000Y-43495000D01*
X100034500Y-43478500D01*
X100060000Y-43463000D01*
X100086500Y-43448500D01*
X100113500Y-43435500D01*
X100141000Y-43424000D01*
X100169000Y-43413500D01*
X100197500Y-43405000D01*
X100226500Y-43397500D01*
X100256000Y-43391500D01*
X100285500Y-43387000D01*
X100315000Y-43384000D01*
X100345000Y-43382500D01*
X100375000Y-43382500D01*
X100405000Y-43384000D01*
G37*
G36*
X100405000Y-47464000D02*
G01*
X100434500Y-47467000D01*
X100464000Y-47471500D01*
X100493500Y-47477500D01*
X100522500Y-47485000D01*
X100551000Y-47493500D01*
X100579000Y-47504000D01*
X100607000Y-47515500D01*
X100634000Y-47528500D01*
X100660000Y-47543000D01*
X100685500Y-47558500D01*
X100710500Y-47575000D01*
X100734000Y-47593500D01*
X100757000Y-47612500D01*
X100779000Y-47633000D01*
X100800000Y-47654500D01*
X100819500Y-47676500D01*
X100838500Y-47700000D01*
X100856000Y-47724500D01*
X100872000Y-47749500D01*
X100887000Y-47775500D01*
X100900500Y-47802000D01*
X100913000Y-47829500D01*
X100924000Y-47857000D01*
X100933500Y-47885500D01*
X100941500Y-47914500D01*
X100948000Y-47943500D01*
X100953500Y-47973000D01*
X100957000Y-48002500D01*
X100959500Y-48032500D01*
X100960000Y-48062500D01*
X100960000Y-48862500D01*
X100959500Y-48892500D01*
X100957000Y-48922000D01*
X100953500Y-48952000D01*
X100948000Y-48981500D01*
X100941500Y-49010500D01*
X100933500Y-49039000D01*
X100924000Y-49067500D01*
X100913000Y-49095500D01*
X100900500Y-49122500D01*
X100887000Y-49149500D01*
X100872000Y-49175000D01*
X100856000Y-49200500D01*
X100838500Y-49224500D01*
X100819500Y-49248000D01*
X100800000Y-49270500D01*
X100779000Y-49292000D01*
X100757000Y-49312000D01*
X100734000Y-49331500D01*
X100710500Y-49349500D01*
X100685500Y-49366500D01*
X100660000Y-49382000D01*
X100634000Y-49396500D01*
X100607000Y-49409500D01*
X100579000Y-49421000D01*
X100551000Y-49431000D01*
X100522500Y-49440000D01*
X100493500Y-49447500D01*
X100464000Y-49453500D01*
X100434500Y-49457500D01*
X100405000Y-49460500D01*
X100375000Y-49462000D01*
X100345000Y-49462000D01*
X100315000Y-49460500D01*
X100285500Y-49457500D01*
X100256000Y-49453500D01*
X100226500Y-49447500D01*
X100197500Y-49440000D01*
X100169000Y-49431000D01*
X100141000Y-49421000D01*
X100113500Y-49409500D01*
X100086500Y-49396500D01*
X100060000Y-49382000D01*
X100034500Y-49366500D01*
X100010000Y-49349500D01*
X99986000Y-49331500D01*
X99963000Y-49312000D01*
X99941000Y-49292000D01*
X99920000Y-49270500D01*
X99900500Y-49248000D01*
X99882000Y-49224500D01*
X99864500Y-49200500D01*
X99848000Y-49175000D01*
X99833000Y-49149500D01*
X99819500Y-49122500D01*
X99807000Y-49095500D01*
X99796000Y-49067500D01*
X99786500Y-49039000D01*
X99778500Y-49010500D01*
X99772000Y-48981500D01*
X99766500Y-48952000D01*
X99763000Y-48922000D01*
X99761000Y-48892500D01*
X99760000Y-48862500D01*
X99760000Y-48062500D01*
X99761000Y-48032500D01*
X99763000Y-48002500D01*
X99766500Y-47973000D01*
X99772000Y-47943500D01*
X99778500Y-47914500D01*
X99786500Y-47885500D01*
X99796000Y-47857000D01*
X99807000Y-47829500D01*
X99819500Y-47802000D01*
X99833000Y-47775500D01*
X99848000Y-47749500D01*
X99864500Y-47724500D01*
X99882000Y-47700000D01*
X99900500Y-47676500D01*
X99920000Y-47654500D01*
X99941000Y-47633000D01*
X99963000Y-47612500D01*
X99986000Y-47593500D01*
X100010000Y-47575000D01*
X100034500Y-47558500D01*
X100060000Y-47543000D01*
X100086500Y-47528500D01*
X100113500Y-47515500D01*
X100141000Y-47504000D01*
X100169000Y-47493500D01*
X100197500Y-47485000D01*
X100226500Y-47477500D01*
X100256000Y-47471500D01*
X100285500Y-47467000D01*
X100315000Y-47464000D01*
X100345000Y-47462500D01*
X100375000Y-47462500D01*
X100405000Y-47464000D01*
G37*
%TD*%
D11*
%TO.C,R14*%
X72847500Y-78770000D03*
X74672500Y-78770000D03*
%TD*%
D12*
%TO.C,R24*%
X88960000Y-52915000D03*
X88960000Y-51265000D03*
%TD*%
D13*
%TO.C,C9*%
X103710000Y-72935000D03*
X103710000Y-71385000D03*
%TD*%
%TO.C,C20*%
X150112976Y-110645000D03*
X150112976Y-109095000D03*
%TD*%
D14*
%TO.C,R1*%
X56762500Y-121150000D03*
X54937500Y-121150000D03*
%TD*%
D15*
%TO.C,C23*%
X159375476Y-123844500D03*
X157475476Y-123844500D03*
%TD*%
D13*
%TO.C,C12*%
X160662976Y-116270000D03*
X160662976Y-114720000D03*
%TD*%
D16*
%TO.C,R12*%
X88450000Y-61967500D03*
X88450000Y-63792500D03*
%TD*%
D17*
%TO.C,J2*%
X99365000Y-49037500D03*
X98565000Y-49037500D03*
D18*
X97290000Y-49037500D03*
X96290000Y-49037500D03*
X95790000Y-49037500D03*
X94790000Y-49037500D03*
D17*
X93515000Y-49037500D03*
X92714500Y-49037500D03*
X92964500Y-49037500D03*
X93765000Y-49037500D03*
D18*
X94290000Y-49037500D03*
X95290000Y-49037500D03*
X96790000Y-49037500D03*
X97790000Y-49037500D03*
D17*
X98315000Y-49037500D03*
X99115000Y-49037500D03*
%TD*%
D19*
%TO.C,D2*%
X61125000Y-118095000D03*
X61125000Y-124905000D03*
%TD*%
D20*
%TO.C,Y1*%
X95520000Y-72660000D03*
X95520000Y-74860000D03*
X97220000Y-74860000D03*
X97220000Y-72660000D03*
%TD*%
D21*
%TO.C,R9*%
X68285000Y-125960000D03*
X68285000Y-127610000D03*
%TD*%
D22*
%TO.C,C30*%
X69540000Y-47740000D03*
X71090000Y-47740000D03*
%TD*%
D11*
%TO.C,R20*%
X72727500Y-96630000D03*
X74552500Y-96630000D03*
%TD*%
D23*
%TO.C,R23*%
X86520000Y-53002500D03*
X86520000Y-51177500D03*
%TD*%
D24*
%TO.C,U10*%
X61361181Y-62025000D03*
X61361181Y-62675000D03*
X61361181Y-63325000D03*
X63361181Y-62025000D03*
X63361181Y-62675000D03*
X63361181Y-63325000D03*
D25*
X62361181Y-62675000D03*
%TD*%
D26*
%TO.C,R2*%
X93505000Y-54700000D03*
X95155000Y-54700000D03*
%TD*%
D22*
%TO.C,C15*%
X146857976Y-110705000D03*
X148407976Y-110705000D03*
%TD*%
D23*
%TO.C,R11*%
X104770000Y-59642500D03*
X104770000Y-57817500D03*
%TD*%
D15*
%TO.C,C31*%
X63200000Y-64880000D03*
X61300000Y-64880000D03*
%TD*%
D22*
%TO.C,C2*%
X101805000Y-55000000D03*
X103355000Y-55000000D03*
%TD*%
%TO.C,C29*%
X69540000Y-49740000D03*
X71090000Y-49740000D03*
%TD*%
D13*
%TO.C,C14*%
X160982976Y-106050000D03*
X160982976Y-104500000D03*
%TD*%
D27*
%TO.C,C17*%
X93520000Y-71575000D03*
X93520000Y-73125000D03*
%TD*%
D28*
%TO.C,C21*%
X151782976Y-131955000D03*
X150232976Y-131955000D03*
%TD*%
D29*
%TO.C,D3*%
X55375000Y-112592500D03*
X55375000Y-114467500D03*
%TD*%
D30*
%TO.C,C28*%
X63040000Y-47740000D03*
X63040000Y-49640000D03*
%TD*%
D31*
%TO.C,Q1*%
X59870000Y-113650000D03*
X59870000Y-115550000D03*
X62145000Y-114600000D03*
%TD*%
D28*
%TO.C,C19*%
X153027976Y-102615000D03*
X151477976Y-102615000D03*
%TD*%
%TO.C,C8*%
X93275000Y-69590000D03*
X91725000Y-69590000D03*
%TD*%
D13*
%TO.C,C18*%
X99270000Y-73900000D03*
X99270000Y-72350000D03*
%TD*%
D32*
%TO.C,U4*%
X153672976Y-114167500D03*
X154172976Y-114167500D03*
X154672976Y-114167500D03*
X155172976Y-114167500D03*
X155672976Y-114167500D03*
X156172976Y-114167500D03*
X156672976Y-114167500D03*
X157172976Y-114167500D03*
X157672976Y-114167500D03*
X158172976Y-114167500D03*
X158672976Y-114167500D03*
X159172976Y-114167500D03*
D33*
X160585476Y-112755000D03*
X160585476Y-112255000D03*
X160585476Y-111755000D03*
X160585476Y-111255000D03*
X160585476Y-110755000D03*
X160585476Y-110255000D03*
X160585476Y-109755000D03*
X160585476Y-109255000D03*
X160585476Y-108755000D03*
X160585476Y-108255000D03*
X160585476Y-107755000D03*
X160585476Y-107255000D03*
D32*
X159172976Y-105842500D03*
X158672976Y-105842500D03*
X158172976Y-105842500D03*
X157672976Y-105842500D03*
X157172976Y-105842500D03*
X156672976Y-105842500D03*
X156172976Y-105842500D03*
X155672976Y-105842500D03*
X155172976Y-105842500D03*
X154672976Y-105842500D03*
X154172976Y-105842500D03*
X153672976Y-105842500D03*
D33*
X152260476Y-107255000D03*
X152260476Y-107755000D03*
X152260476Y-108255000D03*
X152260476Y-108755000D03*
X152260476Y-109255000D03*
X152260476Y-109755000D03*
X152260476Y-110255000D03*
X152260476Y-110755000D03*
X152260476Y-111255000D03*
X152260476Y-111755000D03*
X152260476Y-112255000D03*
X152260476Y-112755000D03*
%TD*%
D34*
%TO.C,U6*%
X63150000Y-110285000D03*
X63150000Y-108635000D03*
X61950000Y-110285000D03*
X61950000Y-108635000D03*
D35*
X65025000Y-111365000D03*
X65025000Y-110095000D03*
X65025000Y-108825000D03*
X65025000Y-107555000D03*
X60075000Y-107555000D03*
X60075000Y-108825000D03*
X60075000Y-110095000D03*
X60075000Y-111365000D03*
%TD*%
D28*
%TO.C,C25*%
X68835000Y-119960000D03*
X67285000Y-119960000D03*
%TD*%
D11*
%TO.C,R17*%
X72867500Y-81300000D03*
X74692500Y-81300000D03*
%TD*%
D36*
%TO.C,U1*%
X156162976Y-132035001D03*
X156162976Y-131085000D03*
X156162976Y-130135002D03*
X153412976Y-130135002D03*
X153412976Y-132035001D03*
%TD*%
D28*
%TO.C,C27*%
X63315000Y-60770000D03*
X61765000Y-60770000D03*
%TD*%
D11*
%TO.C,R18*%
X72697500Y-94450000D03*
X74522500Y-94450000D03*
%TD*%
D36*
%TO.C,U9*%
X65040000Y-47740000D03*
X65040000Y-48690001D03*
X65040000Y-49639999D03*
X67790000Y-49639999D03*
X67790000Y-47740000D03*
%TD*%
D28*
%TO.C,C16*%
X151732976Y-130145000D03*
X150182976Y-130145000D03*
%TD*%
D21*
%TO.C,R4*%
X57375000Y-115175000D03*
X57375000Y-116825000D03*
%TD*%
D37*
%TO.C,C7*%
X162552976Y-116535000D03*
X162552976Y-114635000D03*
%TD*%
D13*
%TO.C,C22*%
X160742976Y-100720000D03*
X160742976Y-99170000D03*
%TD*%
D23*
%TO.C,R3*%
X162822976Y-109255000D03*
X162822976Y-107430000D03*
%TD*%
D30*
%TO.C,C13*%
X158102976Y-130115000D03*
X158102976Y-132015000D03*
%TD*%
D28*
%TO.C,C5*%
X90165000Y-67790000D03*
X88615000Y-67790000D03*
%TD*%
D29*
%TO.C,D1*%
X55405000Y-116822500D03*
X55405000Y-118697500D03*
%TD*%
D11*
%TO.C,R19*%
X72717500Y-98820000D03*
X74542500Y-98820000D03*
%TD*%
D38*
%TO.C,C26*%
X74065000Y-118950000D03*
X75965000Y-118950000D03*
%TD*%
D39*
%TO.C,R22*%
X151847976Y-114165000D03*
X150197976Y-114165000D03*
%TD*%
D28*
%TO.C,C4*%
X90975000Y-56530000D03*
X89425000Y-56530000D03*
%TD*%
D40*
%TO.C,L1*%
X69500000Y-58280000D03*
X69500000Y-66580000D03*
%TD*%
D28*
%TO.C,C10*%
X148387976Y-116685000D03*
X146837976Y-116685000D03*
%TD*%
D12*
%TO.C,R16*%
X84980000Y-48705000D03*
X84980000Y-47055000D03*
%TD*%
D11*
%TO.C,R13*%
X72797500Y-76420000D03*
X74622500Y-76420000D03*
%TD*%
D28*
%TO.C,C24*%
X56625000Y-123150000D03*
X55075000Y-123150000D03*
%TD*%
D21*
%TO.C,R7*%
X57375000Y-110927500D03*
X57375000Y-112577500D03*
%TD*%
D26*
%TO.C,R10*%
X67635000Y-117960000D03*
X69285000Y-117960000D03*
%TD*%
D41*
%TO.C,Q2*%
X75925000Y-121300000D03*
X75275000Y-121300000D03*
X74625000Y-121300000D03*
X73975000Y-121300000D03*
X73975000Y-127060000D03*
X74625000Y-127060000D03*
X75275000Y-127060000D03*
X75925000Y-127060000D03*
%TD*%
D42*
%TO.C,Y2*%
X148442976Y-114815000D03*
X148442976Y-112615000D03*
X146742976Y-112615000D03*
X146742976Y-114815000D03*
%TD*%
D12*
%TO.C,R8*%
X67505000Y-110305000D03*
X67505000Y-108655000D03*
%TD*%
D15*
%TO.C,C1*%
X89320000Y-59180000D03*
X87420000Y-59180000D03*
%TD*%
D32*
%TO.C,U2*%
X93870000Y-65397500D03*
X94370000Y-65397500D03*
X94870000Y-65397500D03*
X95370000Y-65397500D03*
X95870000Y-65397500D03*
X96370000Y-65397500D03*
X96870000Y-65397500D03*
X97370000Y-65397500D03*
X97870000Y-65397500D03*
X98370000Y-65397500D03*
X98870000Y-65397500D03*
X99370000Y-65397500D03*
D33*
X100782500Y-63985000D03*
X100782500Y-63485000D03*
X100782500Y-62985000D03*
X100782500Y-62485000D03*
X100782500Y-61985000D03*
X100782500Y-61485000D03*
X100782500Y-60985000D03*
X100782500Y-60485000D03*
X100782500Y-59985000D03*
X100782500Y-59485000D03*
X100782500Y-58985000D03*
X100782500Y-58485000D03*
D32*
X99370000Y-57072500D03*
X98870000Y-57072500D03*
X98370000Y-57072500D03*
X97870000Y-57072500D03*
X97370000Y-57072500D03*
X96870000Y-57072500D03*
X96370000Y-57072500D03*
X95870000Y-57072500D03*
X95370000Y-57072500D03*
X94870000Y-57072500D03*
X94370000Y-57072500D03*
X93870000Y-57072500D03*
D33*
X92457500Y-58485000D03*
X92457500Y-58985000D03*
X92457500Y-59485000D03*
X92457500Y-59985000D03*
X92457500Y-60485000D03*
X92457500Y-60985000D03*
X92457500Y-61485000D03*
X92457500Y-61985000D03*
X92457500Y-62485000D03*
X92457500Y-62985000D03*
X92457500Y-63485000D03*
X92457500Y-63985000D03*
%TD*%
D26*
%TO.C,R15*%
X86645000Y-48440000D03*
X88295000Y-48440000D03*
%TD*%
D43*
%TO.C,U7*%
X67335000Y-124235000D03*
X68285000Y-124235000D03*
X69235000Y-124235000D03*
X69235000Y-121960000D03*
X68285000Y-121960000D03*
X67335000Y-121960000D03*
%TD*%
D26*
%TO.C,R21*%
X95270000Y-70585000D03*
X96920000Y-70585000D03*
%TD*%
D23*
%TO.C,R5*%
X149982976Y-107237500D03*
X149982976Y-105412500D03*
%TD*%
D22*
%TO.C,C6*%
X100450000Y-69620000D03*
X102000000Y-69620000D03*
%TD*%
D28*
%TO.C,C11*%
X152802976Y-115925000D03*
X151252976Y-115925000D03*
%TD*%
D39*
%TO.C,R6*%
X156537976Y-102745000D03*
X154887976Y-102745000D03*
%TD*%
D30*
%TO.C,C3*%
X116560000Y-53900000D03*
X116560000Y-55800000D03*
%TD*%
M02*
